<svg viewBox="0 0 1907.16 1859.1" xmlns="http://www.w3.org/2000/svg"><path d="m1373.1 670.1 66-5a363.73 363.73 0 0 1 122 10.5 436.07 436.07 0 0 1 111.5 46.5 454.73 454.73 0 0 1 96 76 507.06 507.06 0 0 1 74.5 98.5 493.92 493.92 0 0 1 48 113.5 416.58 416.58 0 0 1 16 121q-2 97-36 179.5t-103 151.5q-136 137-329 137-105 0-194.5-42a474.42 474.42 0 0 1 -154.5-115 1731 1731 0 0 0 49 187.5 1201.38 1201.38 0 0 0 71 172.5l6 19q0 17-11.5 27.5t-28.5 10.5h-447a41.19 41.19 0 0 1 -28-10.5q-12-10.5-12-27.5l5-19 16-30q11-24 25-58.5t29-81.5q16-47 29-94.5t23-95.5q-141 157-350 157-195 0-331-138-69-69-101-151t-34-179q-2-92 35.5-177.5a491.36 491.36 0 0 1 251.5-253.5q85-38 179-35 20 1 36 1.5a167.84 167.84 0 0 1 30 3.5 421.87 421.87 0 0 1 -34.5-99 612.4 612.4 0 0 1 -12.5-103 411.38 411.38 0 0 1 35.5-177 500.61 500.61 0 0 1 102-150.5q64.5-65.5 150-104t180.5-36.5a564.34 564.34 0 0 1 120.5 16.5q57.5 14.5 112.5 46.5 106 60 171 172 62 109 62 233 0 106.99-46 202z"/></svg>