<svg viewBox="0 0 2080 2081" xmlns="http://www.w3.org/2000/svg"><path d="m1539 1508 1 5a13.33 13.33 0 0 1 -5 11q-185 160-451 160-188 0-339-82-76-42-135.5-99t-102.5-132a635.64 635.64 0 0 1 -62.5-157q-20.5-82-22.5-173t20.5-174.5a623.42 623.42 0 0 1 65-155.5 617.2 617.2 0 0 1 103-130.5 636 636 0 0 1 134.5-99.5 659.15 659.15 0 0 1 159.5-62.5q85.5-21.5 179.5-20.5 89 2 165.5 15.5t142.5 42.5q132 56 132 84l-2 7-148 270q-4 7-9 7l-12-3q-50-40-121-62a490.35 490.35 0 0 0 -146-22q-136 0-226 85-89 84-89 219 0 134 88 219a283 283 0 0 0 101 64q57 21 126 21 67 0 152-29 86-29 146-75l11-3q6 0 10 7zm-498 473q254 0 470-126 110-63 195.5-149.5t148.5-195.5q63-109 94.5-225.5t31.5-243.5q0-252-128-472-63-109-148.5-194.5t-194.5-148.5q-218-126-469-126-129 0-247 31.5t-228 97.5q-109 64-194 150.5t-148 195.5q-124 215-124 466 0 253 124 468 124 216 345 345 218 127 472 127zm0-1981q283 0 528 145 242 144 376 383 135 242 135 513 0 142-35 271t-104 250q-137 238-379 379-241 140-521 140-276 0-515-136-238-134-383-377-143-244-143-527 0-281 139-520t379-380q240-141 523-141z"/></svg>