<svg viewBox="0 0 1256 2059.03" xmlns="http://www.w3.org/2000/svg"><path d="m625 208q-72 0-130.5 18.5t-100 54q-41.5 35.5-63.5 88.5t-22 122q0 85 32 151a309.76 309.76 0 0 0 38 61 357.74 357.74 0 0 0 55 55q32 26 81 53.5t116 59.5q173-79 245-169 72-92 72-211 0-69-22-122t-64-88.5q-42-35.5-102-54t-135-18.5zm-380 1316q0 161 97.5 244.5t280.5 83.5q93 0 165-23t122-66.5q50-43.5 76-106.5t26-143q0-129-95-227-48-49-128.5-100.5t-196.5-106.5q-86 41-151 87.5t-108.5 101q-43.5 54.5-65.5 118.03t-22 138.47zm383-1524q251 1 408 131 156 132 156 351 0 156-86.5 276.5t-272.5 214.5q112 60 192.5 122t131.5 128.5q51 66.49 75 137.5t24 149q0 249-172 400-172 149-456 149-297 0-462-141-166-141-166-397 0-351 387-537-86-54-146-112t-98.5-120.5a496.3 496.3 0 0 1 -57-130.5 568.4 568.4 0 0 1 -19.5-142q-2-108 40.5-196.5a447.33 447.33 0 0 1 118-151.5q75.5-63 179-97.5t224.5-33.5z"/></svg>