<svg viewBox="0 0 1262 2057.02" xmlns="http://www.w3.org/2000/svg"><path d="m612 211q-177 0-273.5 118.5t-96.5 344.5q0 199 93.5 303.5t268.5 107.5q84 2 159-29.5t131-83q56-51.5 88-117.5t31-134a816.21 816.21 0 0 0 -14.5-133 640.54 640.54 0 0 0 -37.5-124q-51-121-142-187t-207-66zm650 672q-2 596-219 885t-656 289a1050.72 1050.72 0 0 1 -136-9q-34-4-58.5-8t-40.5-8v-213q92 34 227 34 211 0 344-88t202-257q35-86 55.5-200t26.5-260h-18q-129 233-420 233-267 0-418-163t-151-444q0-308 163-492 81-91 192-135.5t254-46.5q148-1 269 59.5t206.5 175q85.5 114.5 131.5 278.5t46 370z"/></svg>