<svg viewBox="0 0 2254.12 1278" xmlns="http://www.w3.org/2000/svg"><path d="m2167 30 87 1215a26.48 26.48 0 0 1 -6.5 20 24.19 24.19 0 0 1 -19.5 9h-215q-25 0-26-25l-41-507-163 513q-6 19-22 19h-161q-20 0-26-19l-162-513-42 507q-2 12-7 18.5t-19 6.5h-214q-28 0-26-29l87-1215q3-24 26-24h228q22 0 26 19l208 807 208-807q4-19 26-19h228q24 0 26 24zm-2141-30h979q24 0 24 25v219q0 26-24 26h-352v983q0 25-26 25h-224q-25 0-25-25v-983h-352a25.14 25.14 0 0 1 -18.5-7.5 25.14 25.14 0 0 1 -7.5-18.5v-219q0-25 26-25z"/></svg>