<svg viewBox="0 0 1260 2057.06" xmlns="http://www.w3.org/2000/svg"><path d="m650 1847q87-1 155.5-31a307.2 307.2 0 0 0 116-88q47.5-58 72.5-144t25-199q0-199-93.5-304t-267.5-108q-83-1-157.5 30t-130.5 82.5q-56 51.49-88.5 117t-32.5 134.5q1 102 31 195t83 163.5q53 70.5 126.5 112t160.5 39.5zm-650-673q1-299 56-519.5t164-366q109-145.5 272.5-217t381.5-71.5q146 0 235 26v212q-48-16-104.5-24t-122.5-8q-306 0-459 191-154 190-169 613h17q129-233 420-233 269 0 418 163 151 163 151 445 0 313-164 492-82 91-192.5 134.5t-250.5 45.5q-147 2-268-58t-206.5-173.5q-85.5-113.5-132-278t-46.5-373.5z"/></svg>