<svg viewBox="0 0 1866 1866" xmlns="http://www.w3.org/2000/svg"><path d="m1416 1044q20 0 34 12t14 36q0 78-95 182-47 51-100 87a549.61 549.61 0 0 1 -109.5 58 594.43 594.43 0 0 1 -114 32 655.56 655.56 0 0 1 -112.5 10 647.27 647.27 0 0 1 -89.5-6.5 620 620 0 0 1 -93-20.5 678.77 678.77 0 0 1 -91.5-35 448.14 448.14 0 0 1 -84-51 630.16 630.16 0 0 1 -71.5-64q-32.5-34-55-68t-35-66q-12.5-32-12.5-58 0-20 12-34t36-14q33 0 89 60a517.79 517.79 0 0 0 174.5 125.5q100.5 44.5 220.5 44.5 238 0 394-170 55-60 89-60zm-160-126q-59 0-99-48-41-49-41-118 0-70 41-117 43-49 99-49a120.38 120.38 0 0 1 55.5 13 137 137 0 0 1 44 35.5q18.49 22.5 29 53a196.73 196.73 0 0 1 10.5 64.5q0 68-39 117t-100 49zm-647 0q-59 0-99-48-41-49-41-118 0-70 41-117 43-49 99-49a116.22 116.22 0 0 1 53.5 13 142.65 142.65 0 0 1 44.5 35.5 172.5 172.5 0 0 1 30 52.5q11 30 11 65 0 71-41 118-41 48-98 48zm324 830a794.88 794.88 0 0 0 205.5-26.5q99.5-26.5 193.5-78.5 190-106 303-297t113-413q0-215-109-406-110-190-300-300-191-109-406-109-225 0-416 115-189 112-295 302-104 186-104 398 0 218 109 408 108 190 298 298 190 109 408 109zm0-1748q248 0 466 126 110 63 194.5 148.5t147.5 194.5q125 214 125 464 0 249-126 466-124 217-343 342-214 125-464 125-249 0-466-126-216-124-342-342-125-216-125-465 0-248 126-466 124-216 342-342 216-125 465-125z"/></svg>