<svg viewBox="0 0 1788.11 1923" xmlns="http://www.w3.org/2000/svg"><path d="m1788.06 1087a415.86 415.86 0 0 1 -16 121.5 468.11 468.11 0 0 1 -48 111.5 488.2 488.2 0 0 1 -74.5 95.5 482.69 482.69 0 0 1 -207 122.5 384.87 384.87 0 0 1 -120.5 15q-86-2-161.5-28.5t-141.5-82.5q9 57 22.5 112t31.5 111q17 56 33.5 97.5t30.5 69.5l15 32 5 20a38.41 38.41 0 0 1 -11 27.5q-11 11.51-28 11.5h-448q-15 0-27-11.5t-12-27.5a40.42 40.42 0 0 1 5-20l15-32q14-30 30.5-72t33.5-99q36-112 54-219-66 56-141 82.5t-160 28.5a419.21 419.21 0 0 1 -122.5-16 464.79 464.79 0 0 1 -112-48.5 483.43 483.43 0 0 1 -95.5-75 498.08 498.08 0 0 1 -74-95.5 469.69 469.69 0 0 1 -48-111 406.62 406.62 0 0 1 -16-120q2-136 59-272.5t174-279.5q117-143 277-274t366-255l17-6 21 6q403 241 639 527 118 143 175.5 280.5t59.5 273.5z"/></svg>