<svg viewBox="0 0 1264 2057" xmlns="http://www.w3.org/2000/svg"><path d="m1202 497q0 96-29 176t-84.5 141.5q-55.5 61.5-135.5 102.5t-183 59v8q121 15 213.5 54t154.5 100a406.7 406.7 0 0 1 94 142q32 81 32 180 0 282-190 439-190 158-545 158-327 0-529-109v-232a1173.41 1173.41 0 0 0 125 55.5 1149.1 1149.1 0 0 0 132.5 41 1281.49 1281.49 0 0 0 135 25.5 994.71 994.71 0 0 0 131.5 9q238 0 361-98t123-297q0-174-130.5-263.5t-390.5-89.5h-182v-207h182q216 0 338-102 122-104 122-277 0-70-24-126t-68.5-95q-44.5-39-108-60t-141.5-21q-74 0-137.5 12a703.08 703.08 0 0 0 -121 34 736.42 736.42 0 0 0 -109.5 52.5q-52 30.5-103 67.5l-126-171q121-100 275.5-153t321.5-53q278 0 439 135 158 132 158 362z"/></svg>