<svg viewBox="0 0 1248 2029" xmlns="http://www.w3.org/2000/svg"><path d="m1248 1802v227h-1248v-214l479-521q224-244 295-344a1066.12 1066.12 0 0 0 63-100 699.62 699.62 0 0 0 45-98.5 566 566 0 0 0 26.5-100.5 643.61 643.61 0 0 0 8.5-106q0-156-88-244-89-90-235-90-65 0-123.5 14a595 595 0 0 0 -111.5 38.5 672.77 672.77 0 0 0 -102.5 59 1128 1128 0 0 0 -96.5 75.5l-139-163q259-235 576-235 264 0 418 145 153 143 153 390 0 126-45 246a1007.6 1007.6 0 0 1 -55.5 121.5 1249 1249 0 0 1 -76.5 123.5q-44 63-118 151.5t-183 204.5l-385 409v11z"/></svg>