<svg viewBox="0 0 1704 2274" xmlns="http://www.w3.org/2000/svg"><path d="m1590 2107v-1940q0-22-16-37.5t-36-15.5h-1371q-21 0-36.5 15.5a51.08 51.08 0 0 0 -15.5 37.5v1940a51.08 51.08 0 0 0 15.5 37.5q15.5 15.5 36.5 15.5h1371q20 0 36-15.5t16-37.5zm-1423-2107h1371q67 0 116 49 24 25 37 54t13 64v1940q0 35-13 64t-37 54q-49 49-116 49h-1371q-68 0-119-49-48-50-48-118v-1940q0-68 48-118 51-49 119-49zm532 1119a40 40 0 0 1 24 8q49 43 121 43 70 0 119-41 9-8 25-8 25 0 25 28 0 42-55 82-52 40-120 40-60 0-107-38-48-39-48-95 0-19 16-19zm206-80q0-29 27-59 26-30 59-30 41 0 41 56 0 37-20.5 59.5t-49.5 22.5a61.59 61.59 0 0 1 -39.5-14q-17.5-14-17.5-35zm-166 39q-28 0-48-22t-20-60q0-56 41-56 28 0 57 29 29 27 29 59 0 21-17.5 35.5t-41.5 14.5zm476-548q0-17-46-39-47-22-78-22-87 0-158 77-68 76-68 176l4 36q6 26 79 26h25l40 1q18 1 30.5-1t20-9.5q7.5-7.5 11.5-21.5t6-37q11-149 123-177 11-2 11-9zm-115 834-23-3q-23 0-39.5 11.5a221.21 221.21 0 0 0 -30 25l-25 25-23.5 11.5q-13 0-27-7a68.3 68.3 0 0 0 -31-7 235 235 0 0 0 -89 17l-15 2q-12 0-18-8-33-41-90-41l-24 6-24 5q-18 0-24-30-2-11-10.5-21.5a108.74 108.74 0 0 0 -20-19 111 111 0 0 0 -25.5-14q-14-5.51-26-5.5a80.33 80.33 0 0 0 -38 9.5 99.26 99.26 0 0 0 -31 25.5 122 122 0 0 0 -20.5 38 141.59 141.59 0 0 0 -7.5 46 94.23 94.23 0 0 0 3.5 25.5 58.84 58.84 0 0 0 12 22.5 60.62 60.62 0 0 0 22 16q13.5 6 33.5 6a58.31 58.31 0 0 0 25.5-5.5q11.5-5.5 28.5-5.5 12 0 12 8l-7 50q0 58 84 58 23 0 39.5-7.5t36.5-17.5q8-4 15-13.5t18-9.5l8 3q22 87 108 87 65 0 82-44l4-15q6-21 11-31.5t13-10.5l12 4 10 10a98.23 98.23 0 0 0 30 21q16 7 37 7a110.13 110.13 0 0 0 33-5 92.18 92.18 0 0 0 29-15 74.34 74.34 0 0 0 20.5-24q7.5-14 7.5-32l-6-29-5-22q0-11 11-11 12 0 28.5 7t28.5 7a71.53 71.53 0 0 0 29.5-6.5 84.67 84.67 0 0 0 25.5-17.5 95.7 95.7 0 0 0 18-25 64 64 0 0 0 7-29q0-35-37-75t-70-40q-23 0-36.5 10t-30.5 39a112 112 0 0 0 -4 12.5 76.4 76.4 0 0 1 -5.5 14.5 53.47 53.47 0 0 1 -8 12 14.79 14.79 0 0 1 -11.5 5zm-271 479v-15q0-34-1.5-56t-5-34q-3.5-12-9.5-17t-16-5l-26-6q-8-4-36-39l-7-6q-14 0-39 19a142.21 142.21 0 0 1 -27 15.5 68.59 68.59 0 0 1 -27 5.5q-28 0-67-18-10-6-23-25-12-16-21-16t-17.5 9.5q-8.5 9.5-16.5 25.5a310.35 310.35 0 0 0 -15 36 384.14 384.14 0 0 0 -12 42l-8 35-6 24q0 37 84 65 82 27 218 27 44 0 55-7 13-7 18-26t5-34zm-231-711q-1 74 36 127 35 49 107 80 68 31 135 31a188.48 188.48 0 0 0 59-9.5 325.8 325.8 0 0 0 59-26.5q60-36 88-96t28-131q0-83-30-157a217.29 217.29 0 0 1 -11-31q-4-15-7-31-4-26-33-26l-46 7-96 4a347 347 0 0 1 -52.5-2q-26.5-3-53-6.5t-52.5-7a382.54 382.54 0 0 0 -51-3.5q-22 0-40 48a437.43 437.43 0 0 0 -16.5 53 610.15 610.15 0 0 0 -12.5 68q-5 38-7.5 65t-3.5 44zm870-485q0 32-20.5 57t-58.5 25a121.34 121.34 0 0 1 -33-4.5 90.12 90.12 0 0 1 -29.5-14.5 74.09 74.09 0 0 1 -21.5-25q-8-15-8-36a65.91 65.91 0 0 1 2-16q2-8 5-17-18-15-49-15-32 0-51.5 28t-32.5 84l-11 49a407.87 407.87 0 0 0 -11 41.5 191 191 0 0 0 -4 38.5 145.11 145.11 0 0 0 14 62 429.48 429.48 0 0 1 20 53.5q9 29.5 18 63.5a445 445 0 0 1 14 62q4 28 6 51l-2 24q-1 17 12.5 29t56.5 31q42 19 72 74 32 56 32 109a141.31 141.31 0 0 1 -25.5 82q-25.5 37-73.5 52-41 9-41 22 0 11 7 18 46 81 69.5 150.5t23.5 128.5q0 67-123 107-123 39-298 39a2193.73 2193.73 0 0 1 -282-18q-140-17-208.5-55.5t-68.5-95.5q0-39 14-85t40-100q5-11 15.5-25.5t10.5-26.5q0-11-10.5-17.5t-18.5-11.5a115.79 115.79 0 0 1 -32.5-25 127.83 127.83 0 0 1 -21.5-32.5 173.85 173.85 0 0 1 -12-36.5 179.18 179.18 0 0 1 -4-37q0-54 19-90 36-88 104-107 37-10 37-36l-7-71a585.13 585.13 0 0 1 11-113 738.37 738.37 0 0 1 32-113q16-42 31-82a237.28 237.28 0 0 0 15-84q0-66-27-97t-93-31q-62 0-59 33l2 17q-2 35-26.5 61t-61.5 26q-45 0-70.5-24t-25.5-66a75.06 75.06 0 0 1 8-34 92.41 92.41 0 0 1 21.5-28 106.81 106.81 0 0 1 30.5-19 91 91 0 0 1 35-7q22 0 35 10 65-86 139-130.5t147-44.5q115 0 190 91 12 14 19 14 16 0 25-9 97-104 216-104 31 0 65 11.5a314.59 314.59 0 0 1 66 31.5 368.1 368.1 0 0 1 60.5 47.5 330 330 0 0 1 49.5 60.5q8 20 20 20l26-6a83.26 83.26 0 0 1 32.5 6.5 79.66 79.66 0 0 1 27 18.5 97.33 97.33 0 0 1 18.5 27.5 80.37 80.37 0 0 1 7 33.5z"/></svg>