<svg viewBox="0 0 1907 2218" xmlns="http://www.w3.org/2000/svg"><path d="m763 768 89 43 89-117-99-46-7 4-76 103-3 7q0 4 7 6zm265 128 101 47 6-4 78-104 1-5-4-7-93-44zm-499-99 3-8 234-316a12.55 12.55 0 0 1 11-6q2 0 249 118l164-215a13.33 13.33 0 0 1 11-5l6 1 150 71q6 5 6 14l-2 8-160 210 234 112q6 3 6 12l-2 8-233 318q-4 5-12 5l-6-1-245-118-187 245-11 5-5-1-150-71q-9-10-9-14l4-8 183-239-231-111q-8-3-8-14zm1260 153 1-172-603 804a260.07 260.07 0 0 1 -90.5 76q-54.5 28-120.5 28a258.52 258.52 0 0 1 -59.5-6.5 303.44 303.44 0 0 1 -52.5-17.5l-747-355v226q0 44 47 66l751 357q24 12 57 12a161.57 161.57 0 0 0 68.5-15q32.51-15 52.5-41l677-908q19-27 19-54zm-1672 181q0 46 47 68l751 357q9 5 23 8t34 3a161.57 161.57 0 0 0 68.5-15q32.51-15 52.5-41l679-908q20-26 20-54 0-39-48-62l-750-357q-26-13-57-13-41 0-70.5 14.5a143.78 143.78 0 0 0 -50.5 41.5l-681 909q-18 24-18 49zm1790-576v435q0 99-6 135-6 40-37 81l-677 908q-36 49-94.5 76.5t-120.5 27.5q-59 0-108-24l-751-356q-53-25-83-70t-30-102v-538q0-62 41-116l679-908q36-49 93.5-76.5t123.5-27.5a272.35 272.35 0 0 1 55.5 5.5 206.16 206.16 0 0 1 50.5 17.5l751 357q51 24 82 68.5t31 106.5z"/></svg>