<svg viewBox="0 0 2064 2066" xmlns="http://www.w3.org/2000/svg"><path d="m737 1000h85q30 0 51-59 20-60 20-143a555 555 0 0 0 -5.5-80.5q-5.5-37.5-15-65t-22.5-43q-13-15.5-28-15.5h-85q-5 0-5 5v396q0 5 5 5zm-535-689h325q17 0 17 19v235q0 18-17 18h-199v319h164a16.74 16.74 0 0 1 13 5.5 19.36 19.36 0 0 1 5 13.5v235q0 18-18 18h-164v573q0 19-19 19h-107q-17 0-17-19v-1417q0-19 17-19zm1335 0h341q18 0 18 19v235q0 18-18 18h-216v304h164q19 0 19 17v236q0 19-19 19h-164v335h216q18 0 18 18v235q0 19-18 19h-341q-19 0-19-19v-1417q0-19 19-19zm-432 0h342a18.78 18.78 0 0 1 19 19v235a16.74 16.74 0 0 1 -5.5 13 19.36 19.36 0 0 1 -13.5 5h-215v304h163q19 0 19 17v236q0 19-19 19h-163v335h215a19.36 19.36 0 0 1 13.5 5 16.74 16.74 0 0 1 5.5 13v235a18.78 18.78 0 0 1 -19 19h-342q-18 0-18-19v-1417q0-19 18-19zm-198 938 128 493v4q0 20-19 20h-106q-17 0-20-15l-123-468h-24v464q0 18-19 18h-107q-19 0-19-18v-1417q0-19 19-19h219q80 0 131 139 52 142 52 348a1216.23 1216.23 0 0 1 -8 142 1140.09 1140.09 0 0 1 -23 131q-32 127-81 178zm1079 706v-1843q0-13-9.5-23a31.1 31.1 0 0 0 -23.5-10h-1842a31.1 31.1 0 0 0 -23.5 10q-9.5 10-9.5 23v1843q0 14 9.5 23t23.5 9h1842q14 0 23.5-9t9.5-23zm-1875-1955h1842a107 107 0 0 1 43.5 9 115 115 0 0 1 35.5 24 108.23 108.23 0 0 1 23.5 35.5 112.4 112.4 0 0 1 8.5 43.5v1843a109.25 109.25 0 0 1 -32 78 115 115 0 0 1 -35.5 24 107 107 0 0 1 -43.5 9h-1842a103.56 103.56 0 0 1 -43-9 115.77 115.77 0 0 1 -59-59 103.56 103.56 0 0 1 -9-43v-1843a107 107 0 0 1 9-43.5 115 115 0 0 1 24-35.5 116.81 116.81 0 0 1 35-24 103.56 103.56 0 0 1 43-9z"/></svg>