<svg viewBox="0 0 2064 2066" xmlns="http://www.w3.org/2000/svg"><path d="m256 272h297q12 0 21.5 9t9.5 21v1479q0 14-9.5 23t-21.5 9h-297q-14 0-23-9t-9-23v-1479q0-12 9-21t23-9zm785 1167h215l22-2q60-8 107-40t83-86q72-106 72-277 0-91-23-165.5t-64.5-127q-41.5-52.5-98-81.5t-122.5-29h-191q-11 0-20 8.5a27.19 27.19 0 0 0 -9 20.5v751q0 11 9 19.5t20 8.5zm-320-1167h526q130 0 242 54.5t194.5 154.5q82.5 100 129 240.5t46.5 312.5q0 174-47 315t-129 240.5q-82 99.49-194 154t-242 54.5h-526q-13 0-21-9a30.64 30.64 0 0 1 -8-21v-1467q0-11 8-20t21-9zm1265 1683v-1843q0-15-9.5-24.5a31.93 31.93 0 0 0 -23.5-9.5h-1842a31.93 31.93 0 0 0 -23.5 9.5q-9.5 9.5-9.5 24.5v1843q0 12 9.5 22a31.1 31.1 0 0 0 23.5 10h1842a31.1 31.1 0 0 0 23.5-10q9.5-10 9.5-22zm-1875-1955h1842a107 107 0 0 1 43.5 9 115 115 0 0 1 35.5 24 108.23 108.23 0 0 1 23.5 35.5 112.4 112.4 0 0 1 8.5 43.5v1843a109.25 109.25 0 0 1 -32 78 115 115 0 0 1 -35.5 24 107 107 0 0 1 -43.5 9h-1842a103.56 103.56 0 0 1 -43-9 115.77 115.77 0 0 1 -59-59 103.56 103.56 0 0 1 -9-43v-1843a107 107 0 0 1 9-43.5 115 115 0 0 1 24-35.5 116.81 116.81 0 0 1 35-24 103.56 103.56 0 0 1 43-9z"/></svg>