<svg viewBox="0 0 1656 1860" xmlns="http://www.w3.org/2000/svg"><path d="m1186 0h431q17 0 28 11.5a38.41 38.41 0 0 1 11 27.5v872q0 59-4 123.5t-12 136.5a814 814 0 0 1 -29 141.5 869 869 0 0 1 -56 140.5q-69 137-172 223a702.12 702.12 0 0 1 -113 75.5q-62 33.49-135 59.5-144 49-308 49a976.6 976.6 0 0 1 -201.5-20.5 902 902 0 0 1 -189.5-62.5q-185-85-286-238a884.06 884.06 0 0 1 -85.5-161.5 719.67 719.67 0 0 1 -45.5-173.5q-11-82-15-143t-4-101v-921a38.41 38.41 0 0 1 11-27.5q11-11.5 28-11.5h431q17 0 28.5 11.5a37.51 37.51 0 0 1 11.5 27.5v872q0 51 2 99t5 96q20 129 94.5 189t215.5 60q143 0 217.5-59.5t94.5-191.5l7-163v-902a37.51 37.51 0 0 1 11.5-27.5q11.5-11.5 28.5-11.5z"/></svg>