<svg viewBox="0 0 2064 2066" xmlns="http://www.w3.org/2000/svg"><path d="m1748 318h126q21 0 21 21l-126 1408q-2 19-21 19h-101q-19 0-19-19l-67-704-65 704q0 3-4 11t-16 8h-101q-3 0-11-4t-8-15l-126-1408q0-21 19-21h126q19 0 20 17l43 589 58-589q0-17 20-17h91q21 0 21 17l59 589 41-589q0-17 20-17zm-1172-9h117q8 0 14.5 6.5t6.5 14.5v1423q0 8-6.5 14a20.88 20.88 0 0 1 -14.5 6h-117q-18 0-19-16l-203-833v829q0 20-22 20h-116a20.88 20.88 0 0 1 -14.5-6q-6.5-6-6.5-14v-1423q0-8 6.5-14.5t14.5-6.5h116q18 0 21 15l202 835v-829q0-8 6.5-14.5t14.5-6.5zm215 2h373q21 0 21 19v237q0 7-6.5 12a23.22 23.22 0 0 1 -14.5 5h-237v304h181q19 0 19 19v235q0 21-19 21h-181v335h237q21 0 21 19v236q0 19-21 19h-373q-21 0-21-19v-1423q0-19 21-19zm1195 1644v-1843q0-13-9.5-23a31.1 31.1 0 0 0 -23.5-10h-1842a31.1 31.1 0 0 0 -23.5 10q-9.5 10-9.5 23v1843a32.45 32.45 0 0 0 33 33h1842a32.45 32.45 0 0 0 33-33zm-1875-1955h1842a107 107 0 0 1 43.5 9 115 115 0 0 1 35.5 24 108.23 108.23 0 0 1 23.5 35.5 112.4 112.4 0 0 1 8.5 43.5v1843a112.4 112.4 0 0 1 -8.5 43.5 106.8 106.8 0 0 1 -59 59 112.4 112.4 0 0 1 -43.5 8.5h-1842a109.25 109.25 0 0 1 -78-32 115 115 0 0 1 -24-35.5 107 107 0 0 1 -9-43.5v-1843a107 107 0 0 1 9-43.5 115 115 0 0 1 24-35.5 116.81 116.81 0 0 1 35-24 103.56 103.56 0 0 1 43-9z"/></svg>