<svg viewBox="0 0 2064 2066" xmlns="http://www.w3.org/2000/svg"><path d="m762 309h175q25 0 25 25v1417q0 26-25 26h-175q-17 0-23-16l-312-863v853q0 26-25 26h-174a25.62 25.62 0 0 1 -26-26v-1417q0-25 26-25h174q17 0 23 17l312 863v-855q0-25 25-25zm775 660h338q14 0 14 12 0 243-49 435-50 194-142.5 291.5t-221.5 97.5q-198 0-324-212-126-211-126-549t126-550q125-212 324-212 192 0 317 204l2 7-2 5-126 257-9 7a16.37 16.37 0 0 1 -12-5 368.73 368.73 0 0 0 -41.5-51 294.18 294.18 0 0 0 -45.5-38.5 235.13 235.13 0 0 0 -44.5-24q-21.5-8.5-38.5-8.5-92 0-153 120-31 60-46.5 131.5t-15.5 157.5q0 168 62 295 62 128 153 128 61 0 112-65 50-62 56-158h-107q-13 0-13-13v-250q0-12 13-12zm449 986v-1843q0-15-9.5-24.5a31.93 31.93 0 0 0 -23.5-9.5h-1842a31.93 31.93 0 0 0 -23.5 9.5q-9.5 9.5-9.5 24.5v1843q0 12 9.5 22a31.1 31.1 0 0 0 23.5 10h1842a31.1 31.1 0 0 0 23.5-10q9.5-10 9.5-22zm-1875-1955h1842a112.4 112.4 0 0 1 43.5 8.5 106.8 106.8 0 0 1 59 59 115 115 0 0 1 8.5 44.5v1843a109.25 109.25 0 0 1 -32 78 115 115 0 0 1 -35.5 24 107 107 0 0 1 -43.5 9h-1842a103.56 103.56 0 0 1 -43-9 115.77 115.77 0 0 1 -59-59 103.56 103.56 0 0 1 -9-43v-1843a109.48 109.48 0 0 1 9-44.5 115 115 0 0 1 24-35.5 109.25 109.25 0 0 1 78-32z"/></svg>