<svg viewBox="0 0 2064 2066" xmlns="http://www.w3.org/2000/svg"><path d="m1780 331a94.13 94.13 0 0 1 43.5 10.5 112.65 112.65 0 0 1 35.5 28.5 142.44 142.44 0 0 1 24 42.5 151 151 0 0 1 9 52.5l-90 1006q-5 19-22 19-19 0-24-19l-87-981-3-25a159 159 0 0 1 8.5-52.5 129.44 129.44 0 0 1 24-42.5 116.46 116.46 0 0 1 36.5-28.5 99.24 99.24 0 0 1 45-10.5zm0 1227q36 0 60 24.5t24 60.5q0 36-24 60.5t-60 24.5q-36 0-60.5-24.5t-24.5-60.5q0-36 24.5-60.5t60.5-24.5zm-1050-1231h186q24 0 24 22v695q0 98-7 176.5t-19.5 142q-12.5 63.5-31 113.5a639.22 639.22 0 0 1 -41.5 91q-46 81-116 126.5t-148 45.5a263.66 263.66 0 0 1 -95.5-17.5 292.23 292.23 0 0 1 -84-50q-38.5-32.5-69.5-78.5t-52-102a912.42 912.42 0 0 1 -52-229.5q-11-117.5-11-243.5v-669q0-22 24-22h186q21 0 21 22v669q0 101 4.5 168t19 106.5q14.5 39.5 40.5 56.5t69 18q42 2 67.5-16t40-59.5q14.5-41.51 19-109t4.5-164.5v-669q0-22 22-22zm478 670h131q48 0 78-58 32-61 32-137 0-75-32-136-31-60-78-60h-131q-6 0-6 7v378q0 6 6 6zm-185-664h338q115 0 196 134 40 67 60 149.5t20 185.5q0 199-80 335-81 135-196 135h-150v440a18.94 18.94 0 0 1 -7 15q-7 6-15 6h-166q-23 0-23-21v-1358q0-21 23-21zm963 1621v-1843a32.45 32.45 0 0 0 -33-33h-1842a32.45 32.45 0 0 0 -33 33v1843q0 13 9.5 23a31.1 31.1 0 0 0 23.5 10h1842a31.1 31.1 0 0 0 23.5-10q9.5-10 9.5-23zm-1875-1954h1842a107 107 0 0 1 43.5 9 115 115 0 0 1 35.5 24 108.23 108.23 0 0 1 23.5 35.5 109.86 109.86 0 0 1 8.5 42.5v1843a112.4 112.4 0 0 1 -8.5 43.5 108.23 108.23 0 0 1 -23.5 35.5 115 115 0 0 1 -35.5 24 107 107 0 0 1 -43.5 9h-1842a103.56 103.56 0 0 1 -43-9 116.81 116.81 0 0 1 -35-24 115 115 0 0 1 -24-35.5 107 107 0 0 1 -9-43.5v-1843a104.66 104.66 0 0 1 9-42.5 115 115 0 0 1 24-35.5 116.81 116.81 0 0 1 35-24 103.56 103.56 0 0 1 43-9z"/></svg>