<svg viewBox="0 0 1942 1990" xmlns="http://www.w3.org/2000/svg"><path d="m970 1433q18 0 39.5-2t49.5-5l-161-233q-7-9-7-22 0-25 26-34l289-83 9-2q20 0 32 17l126 182q102-133 102-308 0-214-141-352t-364-138q-222 0-362 137-141 137-141 353 0 217 139 353 140 137 364 137zm829 438q0 27-27 34l-289 83-9 2q-20 0-30-16l-106-149q-175 61-368 61-282 0-500-121-221-121-345-336-125-216-125-486t124-484q123-216 342-337 220-122 504-122 142 0 266 30.5a988.5 988.5 0 0 1 235 90.5q223 121 346 335 125 214 125 487 0 210-75.5 388.5t-220.5 309.5l145 208q8 11 8 22z"/></svg>