<svg viewBox="0 0 1942 1883" xmlns="http://www.w3.org/2000/svg"><path d="m970 1432q224 0 364-140 141-139 141-350 0-213-141-351-141-139-364-139-220 0-362 137-141 137-141 353 0 213 139 352 141 138 364 138zm0-1432q280 0 501 120 222 121 346 335a908 908 0 0 1 94 230q31 121 31 257 0 266-124 483-61 109-147 193t-197 145a949 949 0 0 1 -237 90.5q-125 29.5-267 29.5-141 0-265.5-29.5a950.41 950.41 0 0 1 -236.5-90.5q-111-61-197-145t-147-193q-124-217-124-483 0-269 124-484 123-216 342-337 221-121 504-121z"/></svg>