<svg viewBox="0 0 2064 2066" xmlns="http://www.w3.org/2000/svg"><path d="m858 565h257q86 0 146 63 62 65 62 153 0 89-62 154-59 62-146 62h-257q-10 0-10-8v-416q0-8 10-8zm827 216a459.85 459.85 0 0 0 -18-135.5 505 505 0 0 0 -54.5-123.5 555.35 555.35 0 0 0 -319.5-243.5 487.79 487.79 0 0 0 -137-19.5h-660a30.75 30.75 0 0 0 -22.5 9.5 31.93 31.93 0 0 0 -9.5 23.5v1487a32.45 32.45 0 0 0 32 32h322q15 0 24.5-9.5a30.75 30.75 0 0 0 9.5-22.5v-474h304q143 0 264-70 123-69 194-191 36-62 53-127.5a570.15 570.15 0 0 0 18-135.5zm-1574-781h1842a107 107 0 0 1 43.5 9 115 115 0 0 1 35.5 24 108.23 108.23 0 0 1 23.5 35.5 112.4 112.4 0 0 1 8.5 43.5v1843a109.25 109.25 0 0 1 -32 78 115 115 0 0 1 -35.5 24 107 107 0 0 1 -43.5 9h-1842a107 107 0 0 1 -43.5-9 115 115 0 0 1 -35.5-24 109.25 109.25 0 0 1 -32-78v-1843a112.4 112.4 0 0 1 8.5-43.5 108.23 108.23 0 0 1 23.5-35.5 115 115 0 0 1 35.5-24 107 107 0 0 1 43.5-9z"/></svg>