<svg viewBox="0 0 2066 2066" xmlns="http://www.w3.org/2000/svg"><path d="m1396 1806h362q12 0 22.5-8t10.5-24l-3-12-553-1472q-7-22-31-22h-345q-24 0-30 22l-557 1483q0 16 10.5 24.5a37.77 37.77 0 0 0 24.5 8.5h362q25 0 32-22l84-253h496l83 253q7 22 32 22zm-1285-1806h1843a107 107 0 0 1 43.5 9 112.91 112.91 0 0 1 59.5 59.5 107 107 0 0 1 9 43.5v1843a103.56 103.56 0 0 1 -9 43 116.81 116.81 0 0 1 -24 35 115 115 0 0 1 -35.5 24 107 107 0 0 1 -43.5 9h-1843a103.56 103.56 0 0 1 -43-9 115.77 115.77 0 0 1 -59-59 103.56 103.56 0 0 1 -9-43v-1843a107 107 0 0 1 9-43.5 115 115 0 0 1 24-35.5 116.81 116.81 0 0 1 35-24 103.56 103.56 0 0 1 43-9zm777 1219 144-434 145 434z"/></svg>