<svg viewBox="0 0 1658 1905" xmlns="http://www.w3.org/2000/svg"><path d="m1655 1644 3 11q0 10-8 15-272 235-669 235-278 0-504-121-227-124-351-342-126-220-126-489t126-488q63-111 150.5-196t199.5-146q226-123 505-123a1457.8 1457.8 0 0 1 155.5 8 1266.26 1266.26 0 0 1 141.5 23 1005 1005 0 0 1 128 39.5 855.23 855.23 0 0 1 117 55.5q110 63 110 84l-2 11-221 398q-7 13-17 13l-14-6a505.24 505.24 0 0 0 -82-52q-45-23-100-39-110-33-213-33-204 0-336 126-130 125-130 325 0 199 130 324 132 126 336 126 54 0 113-11t122-34q127-46 206-109l13-4q13 0 19 11z"/></svg>