<svg viewBox="0 0 1884 1908" xmlns="http://www.w3.org/2000/svg"><path d="m1116 857h746q22 0 22 20a1352.38 1352.38 0 0 1 -13.5 191.5 1630.71 1630.71 0 0 1 -39.5 191.5q-55 194-169 344-115 152-287.5 228t-392.5 76q-278 0-504-124-228-122-352-342a940.78 940.78 0 0 1 -94.5-230.5q-31.5-120.5-31.5-256.5 0-270 126-489 63-111 151.5-196t201.5-146q228-124 503-124 163 0 310 42a875.36 875.36 0 0 1 138.5 50.5 1000.22 1000.22 0 0 1 126.5 70.5q120 80 120 106a16.37 16.37 0 0 1 -5 12l-278 320q-4 8-14 8-9 0-15-5-76-67-187-110-57-21-105.5-32t-90.5-11q-67 0-128 16a394.26 394.26 0 0 0 -115 51q-109 67-173 186-62 115-62 251 0 135 62 256a516.3 516.3 0 0 0 76.5 111 493.13 493.13 0 0 0 98 83.5 452.54 452.54 0 0 0 114.5 53 435.3 435.3 0 0 0 127 18.5q140 0 252-77 110-76 125-190h-243q-20 0-20-19v-314a20.51 20.51 0 0 1 20-20z"/></svg>