<svg viewBox="0 0 2064 2066" xmlns="http://www.w3.org/2000/svg"><path d="m640 1454q88 0 141-126t53-305q0-179-53-305-53-123-141-123-85 0-141 122-27 60-40 136.5t-13 169.5q0 187 53 308 55 123 141 123zm0-1180q206 0 337 213 65 107 98 240t33 296q0 325-131 539-131 212-337 212-208 0-336-209-130-209-130-542 0-328 130-539 130-210 336-210zm1252 1451 1 8q0 26-24 26h-206q-19 0-23-16l-248-653v645a24.66 24.66 0 0 1 -6.5 16.5q-6.49 7.5-17.5 7.5h-183q-12 0-18.5-7.5a24.66 24.66 0 0 1 -6.5-16.5v-1405q0-25 25-25h183q24 0 24 25v527l215-537q7-15 24-15h205q24 0 24 25l-1 8-254 632zm94 230v-1843q0-13-9.5-23a31.1 31.1 0 0 0 -23.5-10h-1842a31.1 31.1 0 0 0 -23.5 10q-9.5 10-9.5 23v1843a32.45 32.45 0 0 0 33 33h1842a32.45 32.45 0 0 0 33-33zm-1875-1955h1842a107 107 0 0 1 43.5 9 115 115 0 0 1 35.5 24 108.23 108.23 0 0 1 23.5 35.5 112.4 112.4 0 0 1 8.5 43.5v1843a109.25 109.25 0 0 1 -32 78 115 115 0 0 1 -35.5 24 107 107 0 0 1 -43.5 9h-1842a103.56 103.56 0 0 1 -43-9 115.77 115.77 0 0 1 -59-59 103.56 103.56 0 0 1 -9-43v-1843a107 107 0 0 1 9-43.5 115 115 0 0 1 24-35.5 116.81 116.81 0 0 1 35-24 103.56 103.56 0 0 1 43-9z"/></svg>