<svg viewBox="0 0 2066 2065" xmlns="http://www.w3.org/2000/svg"><path d="m1062 868h-207q-7 0-7-7v-300q0-8 7-8h207q62 0 105 47 44 47 44 110 0 64-44 111-43 47-105 47zm-205 291h217q66 0 116 53 51 54 51 129 0 78-49 130-50 52-118 52h-217q-7 0-7-8v-348q0-8 7-8zm-330 650h628a505.09 505.09 0 0 0 187-35.5q90-35.51 158-96.5a469.12 469.12 0 0 0 108-141.5q40-80.51 39-169.5-2-112-56.5-205.5t-148.5-154.5q135-129 135-305 0-183-143-314-145-131-349-131h-558q-16 0-24.5 9.5t-8.5 23.5v1487q0 33 33 33zm-416-1809h1843a107 107 0 0 1 43.5 9 115 115 0 0 1 35.5 24 116.81 116.81 0 0 1 24 35 103.56 103.56 0 0 1 9 43v1843a103.56 103.56 0 0 1 -9 43 116.81 116.81 0 0 1 -24 35 115 115 0 0 1 -35.5 24 107 107 0 0 1 -43.5 9h-1843a103.56 103.56 0 0 1 -43-9 115.77 115.77 0 0 1 -59-59 103.56 103.56 0 0 1 -9-43v-1843a103.56 103.56 0 0 1 9-43 115.77 115.77 0 0 1 59-59 103.56 103.56 0 0 1 43-9z"/></svg>