<svg viewBox="0 0 1494 2053" xmlns="http://www.w3.org/2000/svg"><path d="m1494 1457q0 154-93 295a594.27 594.27 0 0 1 -113.5 127q-66.49 56-150 94.5t-182.5 59q-99 20.5-209 20.5-233 0-394-79-107-52-182-103-75-50-160-132a28.47 28.47 0 0 1 -10-22l4-15 205-315q10-12 25-12a30.77 30.77 0 0 1 19 6q78 72 178 130 102 60 201 87 51 14 87 18.5t59 3.5a331.69 331.69 0 0 0 72-11.5 186.38 186.38 0 0 0 63-31.5q57-43 57-109 0-25-9.5-52.5t-29.5-55q-20-27.5-50-52.5t-71-44l-75-36-266-127q-122-59-206.5-116t-132.5-117q-93-115-93-284 0-273 183-428 183-156 506-156 161 0 323 45 164 44 262 108 13 9 13 25l-2 12-133 298q-6 18-27 18l-13-4q-71-34-128.5-56.5t-102.5-33.5q-45-11-87-17.5a542.54 542.54 0 0 0 -83-6.5q-45 0-82.5 9.5t-64.5 28.5q-27 19-41.5 46.5t-14.5 64.5a140 140 0 0 0 9.5 50 191.2 191.2 0 0 0 26 47 213.39 213.39 0 0 0 39.5 40 247.78 247.78 0 0 0 49 30l146 69q189 88 321 167t207 158q75 79 113 167.5t38 191.5z"/></svg>