<svg viewBox="0 0 2064 2065" xmlns="http://www.w3.org/2000/svg"><path d="m542 1221 82-414 82 414zm975-356h-122q-7 0-7-6v-299q0-6 7-6h122q18 0 34.5 12t29 33q12.49 21 19.5 49.5a257.19 257.19 0 0 1 7 61.5q0 33-7 61t-19.5 49q-12.49 21-29 33t-34.5 12zm-122 295h130q21 0 39 14t31.5 38q13.5 24 21.5 57t8 72q0 39-8 72t-21.5 56.5q-13.5 23.51-31.5 37t-39 13.5h-130q-5 0-5-5v-349q0-6 5-6zm-670-890h-204a31.47 31.47 0 0 0 -16.5 4.5q-7.5 4.5-9.5 15.5l-328 1474-2 5q0 25 26 25h217q19 0 24-21l51-254h282l49 254q6 21 24 21h218q8 0 15.5-6t7.5-19v-5l-328-1474q-2-11-9.5-15.5a31.47 31.47 0 0 0 -16.5-4.5zm1148 1094q0-112-35.5-205t-94.5-152q87-127 87-308t-89-309q-88-127-210-127h-333q-24 0-24 26v1487q0 26 24 26h375q125 0 212-129 88-130 88-309zm-1762-1364h1842a107 107 0 0 1 43.5 9 115 115 0 0 1 35.5 24 109.25 109.25 0 0 1 32 78v1843a109.25 109.25 0 0 1 -32 78 115 115 0 0 1 -35.5 24 107 107 0 0 1 -43.5 9h-1842a107 107 0 0 1 -43.5-9 115 115 0 0 1 -35.5-24 109.25 109.25 0 0 1 -32-78v-1843a109.25 109.25 0 0 1 32-78 115 115 0 0 1 35.5-24 107 107 0 0 1 43.5-9z"/></svg>