<svg viewBox="0 0 2066 2066" xmlns="http://www.w3.org/2000/svg"><path d="m1032 1844q236 0 428-104 192-105 299-290a766.92 766.92 0 0 0 81.5-197q26.51-103 26.5-220 0-226-106-415-107-186-298-291-194-105-431-105-235 0-430 105-193 105-300 293-105 186-105 413 0 232 107 416 108 187 299 291 192 104 429 104zm-921-1844h1843a107 107 0 0 1 43.5 9 112.91 112.91 0 0 1 59.5 59.5 107 107 0 0 1 9 43.5v1843a103.56 103.56 0 0 1 -9 43 116.81 116.81 0 0 1 -24 35 115 115 0 0 1 -35.5 24 107 107 0 0 1 -43.5 9h-1843a103.56 103.56 0 0 1 -43-9 115.77 115.77 0 0 1 -59-59 103.56 103.56 0 0 1 -9-43v-1843a107 107 0 0 1 9-43.5 115 115 0 0 1 24-35.5 116.81 116.81 0 0 1 35-24 103.56 103.56 0 0 1 43-9zm921 639q179 0 292 111 114 111 114 283 0 169-112 282-111 112-294 112-181 0-293-111t-112-283q0-174 112-283 112-111 293-111z"/></svg>