<svg viewBox="0 0 2064 2066" xmlns="http://www.w3.org/2000/svg"><path d="m1405 1494h403q26 0 26 25v245a25.62 25.62 0 0 1 -26 26h-626a25.62 25.62 0 0 1 -26-26v-1479a25.62 25.62 0 0 1 26-26h197a25.62 25.62 0 0 1 26 26zm-438-212 101 326v4l-2 8q-72 100-158 148t-189 50q-109 2-202-57.5t-161-166q-68-106.5-106-253t-37-318.5q2-177 36-318.5t105-252.5q142-222 365-222 205 0 334 166l4 8-1 4-112 334q-6 9-15 9l-10-5q-37-49-89.5-76a238.4 238.4 0 0 0 -110.5-27q-101 0-168 108-67 109-67 272 0 167 67 274 67 108 168 108 54 0 118-35 66-38 105-92 7-6 14-6 10 0 11 10zm1019 673v-1843q0-13-9.5-23a31.1 31.1 0 0 0 -23.5-10h-1842a31.1 31.1 0 0 0 -23.5 10q-9.5 10-9.5 23v1843q0 14 9.5 23t23.5 9h1842q14 0 23.5-9t9.5-23zm-1875-1955h1842a107 107 0 0 1 43.5 9 115 115 0 0 1 35.5 24 108.23 108.23 0 0 1 23.5 35.5 112.4 112.4 0 0 1 8.5 43.5v1843a109.25 109.25 0 0 1 -32 78 115 115 0 0 1 -35.5 24 107 107 0 0 1 -43.5 9h-1842a103.56 103.56 0 0 1 -43-9 115.77 115.77 0 0 1 -59-59 103.56 103.56 0 0 1 -9-43v-1843a107 107 0 0 1 9-43.5 115 115 0 0 1 24-35.5 116.81 116.81 0 0 1 35-24 103.56 103.56 0 0 1 43-9z"/></svg>