<svg viewBox="0 0 2064 2066" xmlns="http://www.w3.org/2000/svg"><path d="m1273 1432q29 0 47-110 18-111 18-289 0-182-18-290-18-109-47-109-14 0-25 28t-19.5 79.5q-8.5 51.5-13 125.5t-4.5 166q0 91 4 163.5t13 126.5q19 109 45 109zm-441 0q28 0 46-116 18-117 18-283 0-165-18-282t-46-117q-29 0-47 120-18 119-18 279 0 166 18 283 18 116 47 116zm825 21h210q18 0 18 16v222q0 18-18 18h-332q-18 0-18-18v-1334q0-16 18-16h105q17 0 17 16zm-1083-207 9 9 53 287v4q-76 176-187 176-120 0-196-194-38-98-56.5-223t-18.5-280q0-154 18-279.5t56-222.5q75-196 197-196 108 0 180 146l-1 13-58 287q-1 8-8 8-8 0-9-5-56-118-103-118-48 0-81 103-33 102-33 264 0 165 33 265 33 101 81 101 12 0 26-11t29-30a445.09 445.09 0 0 0 30.5-44.5q15.5-25.5 29.5-53.5 1-6 9-6zm699-911q88 0 144 196 56 197 56 502t-56 502q-55 194-144 194-87 0-142-195-56-197-56-501 0-305 56-502 56-196 142-196zm-441 0q87 0 143 196 56 197 56 502t-56 502q-55 194-143 194-89 0-144-197-56-200-56-499 0-151 14-274.5t42-223.5q56-200 144-200zm1154 1619v-1843a32.45 32.45 0 0 0 -33-33h-1842a32.45 32.45 0 0 0 -33 33v1843q0 13 9.5 23a31.1 31.1 0 0 0 23.5 10h1842a31.1 31.1 0 0 0 23.5-10q9.5-10 9.5-23zm-1875-1954h1842a107 107 0 0 1 43.5 9 115 115 0 0 1 35.5 24 108.23 108.23 0 0 1 23.5 35.5 109.86 109.86 0 0 1 8.5 42.5v1843a112.4 112.4 0 0 1 -8.5 43.5 108.23 108.23 0 0 1 -23.5 35.5 115 115 0 0 1 -35.5 24 107 107 0 0 1 -43.5 9h-1842a103.56 103.56 0 0 1 -43-9 116.81 116.81 0 0 1 -35-24 115 115 0 0 1 -24-35.5 107 107 0 0 1 -9-43.5v-1843a104.66 104.66 0 0 1 9-42.5 115 115 0 0 1 24-35.5 116.81 116.81 0 0 1 35-24 103.56 103.56 0 0 1 43-9z"/></svg>