<svg viewBox="0 0 1370 1845" xmlns="http://www.w3.org/2000/svg"><path d="m431 1505h258q83 0 140-63 57-64 57-152 0-89-57-152-59-64-140-64h-258q-10 0-10 8v414q0 9 10 9zm-2-779h245q72 0 125-53 53-55 53-133t-53-133q-54-54-125-54h-245q-9 0-9 9v355q0 9 9 9zm697 164a570.49 570.49 0 0 1 100 83 546.73 546.73 0 0 1 77 101.5 494.45 494.45 0 0 1 49.5 116.5 468.79 468.79 0 0 1 17.5 128q0 141-78 262-77 122-213 193t-294 71h-747q-17 0-27.5-10.5t-10.5-27.5v-1768a39.38 39.38 0 0 1 10.5-27.5q10.5-11.5 27.5-11.5h663q157 0 292 71t215 193q79 123 79 264 0 210-161 362z"/></svg>