<svg viewBox="0 0 1684.03 1845" xmlns="http://www.w3.org/2000/svg"><path d="m502 1412h319q170 0 284-141 115-142 115-349 0-220-122-354-122-136-318-136h-278q-17 0-27.5 10.5t-10.5 27.5v905a36.39 36.39 0 0 0 10.5 26q10.5 11 27.5 11zm-464-1412h764q261 0 462 116 202 117 311 327a947.2 947.2 0 0 1 80.5 225q26.5 119 28.5 254 1 135-27.5 256t-83.5 223.5a826.41 826.41 0 0 1 -311 324q-98 57.49-214.5 88.5t-245.5 31h-764q-17 0-27.5-11.5a39.38 39.38 0 0 1 -10.5-27.5v-1768a38.14 38.14 0 0 1 10.5-26.5q10.5-11.5 27.5-11.5z"/></svg>