<svg viewBox="0 0 1996 1995" xmlns="http://www.w3.org/2000/svg"><path d="m313 513q0-14 6-20l79-101q8-9 21-9l15 4 194 145q8 11 8 22l-4 13-81 103q-8 9-19 9-10 0-15-5l-193-145a17.57 17.57 0 0 1 -7-7q-2-4-4-9zm-20 404q0-14 5-19l80-102q5-8 19-8l15 4 194 146q10 6 10 21 0 7-6 13l-79 101q-9 11-21 11l-13-5-195-145q-8-8-9-17zm353 463 4 15q0 9-7 16l-226 236q-6 6-19 6-12-1-19-10l-74-106-4-14a23.13 23.13 0 0 1 7-17l226-236a33.69 33.69 0 0 1 19-6q13 2 19 11zm399-751v91h238v-91zm427 91h168q8 0 16 6.5t8 19.5v130q0 24-24 24h-398v57h398q24 0 24 25v595q0 57-32 90t-82 33h-159q-21 0-24-21l-21-114-1-6q0-23 24-23h106v-400h-233v222h38v-112a24.37 24.37 0 0 1 8-18.5q8-7.5 17-7.5h111q8 0 16.5 7.5a23.7 23.7 0 0 1 8.5 18.5v247a22.26 22.26 0 0 1 -8.5 18q-8.51 7-16.5 7h-502q-11 0-18-7.5a24.82 24.82 0 0 1 -7-17.5v-247q0-26 25-26h109q25 0 25 26v112h36v-222h-230v539a24.82 24.82 0 0 1 -7 17.5q-7 7.5-18 7.5h-139q-25 0-25-25v-693q0-25 25-25h394v-57h-394q-25 0-25-24v-130a25.14 25.14 0 0 1 7.5-18.5 24 24 0 0 1 17.5-7.5h168v-91h-133q-23 0-23-26v-130q0-23 23-23h133v-87a25.14 25.14 0 0 1 7.5-18.5q7.5-7.5 15.5-7.5h141q8 0 15.5 6.5t7.5 19.5v87h238v-87q0-26 25-26h139q25 0 25 26v87h131q25 0 25 23v130q0 26-25 26h-131zm445 1152v-1749q0-18-13.5-31t-30.5-13h-1748q-20 0-33.5 13t-13.5 31v1749q0 20 13.5 32.5t33.5 12.5h1748q17 0 30.5-12.5t13.5-32.5zm-1792-1872h1748a122.79 122.79 0 0 1 86.5 35.5 128.19 128.19 0 0 1 26.5 39 118 118 0 0 1 10 48.5v1749a115.6 115.6 0 0 1 -10 47.5 125.77 125.77 0 0 1 -65.5 65.5 115.6 115.6 0 0 1 -47.5 10h-1748a121.5 121.5 0 0 1 -49-10 133 133 0 0 1 -40-26.5 117.28 117.28 0 0 1 -26.5-39 120.92 120.92 0 0 1 -9.5-47.5v-1749a123.47 123.47 0 0 1 9.5-48.5 117.28 117.28 0 0 1 26.5-39 125.59 125.59 0 0 1 40-26 127.14 127.14 0 0 1 49-9.5z"/></svg>