<svg viewBox="0 0 1996 1995" xmlns="http://www.w3.org/2000/svg"><path d="m811 484h281q11 0 17.5 8t6.5 16v259q0 11-7.5 18t-16.5 7h-112a24.82 24.82 0 0 1 -17.5-7q-7.5-7-7.5-18v-99h-144v61h76q12 0 18 8t6 16v97q0 26-24 26h-76v43h152q8 0 16.5 6.5a20.88 20.88 0 0 1 8.5 17.5v98q0 12-8.5 18t-16.5 6h-152v44h241a22.26 22.26 0 0 1 18 8.5q7 8.51 7 16.5v97q0 11-8 17.5t-17 6.5h-663q-25 0-25-24v-97q0-25 25-25h240v-44h-153q-25 0-25-24v-98a20.88 20.88 0 0 1 8.5-17.5q8.5-6.5 16.5-6.5h153v-43h-76q-25 0-25-26v-97q0-9 7-16.5t18-7.5h76v-61h-142v99q0 11-7.5 18a24.82 24.82 0 0 1 -17.5 7h-112q-9 0-16.5-7t-7.5-18v-259q0-8 6.5-16t19.5-8h277v-89q0-8 6.5-16.5t18.5-8.5h133a20.88 20.88 0 0 1 17.5 8.5q6.5 8.5 6.5 16.5zm73 963-6-3h-316l-7 3-2 7v90l2 7 7 3h316l6-3 3-7v-90zm-495-137h663a22.26 22.26 0 0 1 18 8.5q7 8.51 7 16.5v328a22.85 22.85 0 0 1 -8 18q-8 7-17 7h-663q-25 0-25-25v-328q0-8 6-16.5t19-8.5zm961 19h-161q-25 0-25-26v-866q0-9 7-16.5t18-7.5h161q25 0 25 24v866q0 11-7 18a24.49 24.49 0 0 1 -10 6.5 29.51 29.51 0 0 1 -8 1.5zm127-916h162a25.14 25.14 0 0 1 18.5 7.5q7.5 7.5 7.5 16.5v1123q0 58-33.5 91t-81.5 33h-202q-22 0-25-21l-22-170q0-27 25-27h127v-1029q0-24 24-24zm441 1459v-1749a43.2 43.2 0 0 0 -12.5-31q-12.5-13-32.5-13h-1750q-20 0-32.5 13a43.2 43.2 0 0 0 -12.5 31v1749q0 20 12.5 32.5t32.5 12.5h1750q20 0 32.5-12.5t12.5-32.5zm-1795-1872h1750a115.6 115.6 0 0 1 47.5 10 125.77 125.77 0 0 1 65.5 65.5 115.6 115.6 0 0 1 10 47.5v1749a118 118 0 0 1 -10 48.5 128.19 128.19 0 0 1 -26.5 39 122.79 122.79 0 0 1 -86.5 35.5h-1750a122.79 122.79 0 0 1 -86.5-35.5 128.19 128.19 0 0 1 -26.5-39 118 118 0 0 1 -10-48.5v-1749a115.6 115.6 0 0 1 10-47.5 125.77 125.77 0 0 1 65.5-65.5 115.6 115.6 0 0 1 47.5-10z"/></svg>