<svg viewBox="0 0 1996 1995" xmlns="http://www.w3.org/2000/svg"><path d="m1376 1547v-111l-2-7-6-3h-702l-7 3-2 7v111l2 5 7 3h702l6-3zm-515-658v102l1 7 7 3h297l5-3 3-7v-102l-3-7-5-1h-297l-7 1zm142 366h568q24 0 24 25v421a25.14 25.14 0 0 1 -7.5 18.5q-7.5 7.5-16.5 7.5h-1107a24 24 0 0 1 -17.5-7.5 25.14 25.14 0 0 1 -7.5-18.5v-421q0-25 25-25h308l35-104h-101q-25 0-25-24v-374q0-24 25-24h622q25 0 25 24v374q0 12-8.5 18t-16.5 6h-291zm432-804h212q13 0 19 8.5t6 16.5v417q0 9-7 16.5t-18 7.5h-190q-11 0-18-7.5t-7-16.5v-257h-837v257a24.66 24.66 0 0 1 -6.5 16.5q-6.5 7.5-17.5 7.5h-192q-25 0-25-24v-417a24.82 24.82 0 0 1 7-17.5q7-7.5 18-7.5h209v-189q0-16 17-16h175q16 0 16 16v189h97v-189q0-16 18-16h174q18 0 18 16v189h101l79-197q4-15 22-15l10 1 154 65q14 6 14 23l-1 9zm483 1421v-1749q0-20-12.5-32.5t-32.5-12.5h-1750q-20 0-32.5 12.5t-12.5 32.5v1749q0 20 12.5 32.5t32.5 12.5h1750q20 0 32.5-12.5t12.5-32.5zm-1795-1872h1750a115.6 115.6 0 0 1 47.5 10 125.77 125.77 0 0 1 65.5 65.5 115.6 115.6 0 0 1 10 47.5v1749a115.6 115.6 0 0 1 -10 47.5 125.77 125.77 0 0 1 -65.5 65.5 115.6 115.6 0 0 1 -47.5 10h-1750a115.6 115.6 0 0 1 -47.5-10 125.77 125.77 0 0 1 -65.5-65.5 115.6 115.6 0 0 1 -10-47.5v-1749a115.6 115.6 0 0 1 10-47.5 125.77 125.77 0 0 1 65.5-65.5 115.6 115.6 0 0 1 47.5-10z"/></svg>