<svg viewBox="0 0 1996 1994" xmlns="http://www.w3.org/2000/svg"><path d="m1439 1298 2-6v-73l-2-6-7-3h-295l-7 3-1 6v73l1 6 7 3h295zm0 139-7-2h-295l-7 2-1 7v73l1 7 7 1h295l7-1 2-7v-73zm245-651v6l-7 19q-15 46-49 100t-81 75.5q-47 21.5-108 21.5h-368q-57 0-90-32t-33-83v-490q0-9 8.5-16.5t16.5-7.5h162q8 0 16.5 6.5a20.88 20.88 0 0 1 8.5 17.5v121l400-115 6-2q18 0 24 18l38 130 1 7q0 18-19 23l-450 130v81h212q55 0 74-11 18-11 40-60 6-15 22-15l8 1 152 51q16 4 16 24zm-808 322 1 9q0 16-15 24l-116 52v344q0 32-10 57a130.29 130.29 0 0 1 -27.5 43 118.41 118.41 0 0 1 -41 27.5 130.91 130.91 0 0 1 -49.5 9.5h-145q-18 0-24-22l-25-183v-3q0-26 25-26h63v-143l-97 45-11 2q-16 0-22-15l-56-123-2-11q0-14 15-22l173-78v-277h-152q-8 0-16.5-8t-8.5-17v-135q0-10 8.5-17.5t16.5-7.5h152v-260q0-9 7.5-16t16.5-7h185q11 0 18 7.5t7 15.5v260h106q8 0 16.5 7a22.26 22.26 0 0 1 8.5 18v135a22.26 22.26 0 0 1 -8.5 18q-8.5 7-16.5 7h-106v174q42-21 50-21 17 0 23 14zm87-59h643q8 0 16.5 6t8.5 19v586q0 12-8.5 18t-16.5 6h-643q-8 0-16.5-6t-8.5-18v-586q0-13 8.5-19t16.5-6zm955 822v-1748q0-20-12.5-32.5t-32.5-12.5h-1750q-20 0-32 12.5t-12 32.5v1748q0 20 12 32.5t32 12.5h1750q20 0 32.5-12.5t12.5-32.5zm-1795-1871h1750a122.79 122.79 0 0 1 86.5 35.5 128.19 128.19 0 0 1 26.5 39 118 118 0 0 1 10 48.5v1748a118 118 0 0 1 -10 48.5 128.19 128.19 0 0 1 -26.5 39 122.79 122.79 0 0 1 -86.5 35.5h-1750a122.79 122.79 0 0 1 -86.5-35.5 128.19 128.19 0 0 1 -26.5-39 118 118 0 0 1 -10-48.5v-1748a118 118 0 0 1 10-48.5 128.19 128.19 0 0 1 26.5-39 122.79 122.79 0 0 1 86.5-35.5z"/></svg>