<svg viewBox="0 0 2140 2142" xmlns="http://www.w3.org/2000/svg"><path d="m945 1124-7-4h-200l-5 3-3 7v186l3 7 5 2h200l7-2 3-7v-186zm-371-171h528a23.7 23.7 0 0 1 18.5 8.5q7.5 8.5 7.5 16.5v490q0 24-26 24h-528q-25 0-25-24v-490q0-25 25-25zm-148-354h1269q9 0 16.5 7.5a24 24 0 0 1 7.5 17.5v188q0 11-7.5 18t-16.5 7h-170v778q0 39-11.5 70.5t-32.5 53a149.53 149.53 0 0 1 -49.5 33.5 156.85 156.85 0 0 1 -61.5 12h-186q-21 0-24-21l-32-189-1-5q0-23 26-23h87v-709h-814q-24 0-24-25v-188q0-25 24-25zm1636 472q0-273-136-503-137-230-366-360-228-130-489-130-260 0-493 131-228 130-365 361-135 231-135 501 0 134 32.5 257.5t99.5 240.5q132 231 365 362 232 132 496 132 268 0 495-133 231-134 362-361 134-228 134-498zm-991-1071q143 0 274.5 35.5t255.5 106.5q248 142 393 390 146 250 146 539t-146 539q-73 125-170.5 222.5t-222.5 168.5q-246 141-530 141-287 0-537-143-248-144-391-392-143-246-143-536 0-288 143-535 72-125 169-223t222-170q250-143 537-143z"/></svg>