<svg viewBox="0 0 1996 1994" xmlns="http://www.w3.org/2000/svg"><path d="m1015 759q-2-27 25-27l171-3q22 0 24 20 0 23 17 72a288.09 288.09 0 0 0 17 40q9 17 20 28 21 21 63 33.5t112 12.5h19l10-1q27 0 27 25v154q0 11-7.5 18a24.82 24.82 0 0 1 -17.5 7q-172 0-246-25-78-26-124-72-48-47-77-120.5t-33-161.5zm-481 394-9 1q-13 0-19-11l-86-139-4-12q0-17 19-25 112-23 209-90 50-35 85-68t56-68q8-12 11-16t17-4q9 0 15 5l117 112q9 9 9 18l-5 12q0 1-10.5 17t-32.5 41.5q-22 25.5-55.5 56.5t-79.5 62q-46 31-105 59.5t-132 48.5zm608-737h489q9 0 17.5 7.5t8.5 16.5v401a25.62 25.62 0 0 1 -26 26h-190q-25 0-25-26v-220h-837v220q0 12-8.5 19t-16.5 7h-191q-8 0-16-7t-8-19v-401q0-11 8-17.5t16-6.5h489v-129q0-25 26-25h240q24 0 24 25zm0 1069h424a24.82 24.82 0 0 1 17.5 7q7.5 7 7.5 18v152q0 11-7.5 17.5a25.9 25.9 0 0 1 -17.5 6.5h-1135q-26 0-26-24v-152q0-8 7-16.5t19-8.5h421v-113h-262q-24 0-24-25v-150a24.37 24.37 0 0 1 8-18.5q8-7.5 16-7.5h816a22.85 22.85 0 0 1 18 8 26.6 26.6 0 0 1 7 18v150a24.82 24.82 0 0 1 -7 17.5q-7 7.5-18 7.5h-264zm775 386v-1748q0-20-13.5-32.5t-30.5-12.5h-1748q-20 0-33.5 12.5t-13.5 32.5v1748q0 20 13.5 32.5t33.5 12.5h1748q17 0 30.5-12.5t13.5-32.5zm-1792-1871h1748a115.6 115.6 0 0 1 47.5 10 125.77 125.77 0 0 1 65.5 65.5 115.6 115.6 0 0 1 10 47.5v1748a118 118 0 0 1 -10 48.5 128.19 128.19 0 0 1 -26.5 39 122.79 122.79 0 0 1 -86.5 35.5h-1748a127.14 127.14 0 0 1 -49-9.5 125.59 125.59 0 0 1 -40-26 117.28 117.28 0 0 1 -26.5-39 123.47 123.47 0 0 1 -9.5-48.5v-1748a120.92 120.92 0 0 1 9.5-47.5 117.28 117.28 0 0 1 26.5-39 133 133 0 0 1 40-26.5 121.5 121.5 0 0 1 49-10z"/></svg>