<svg viewBox="0 0 1974 1976" xmlns="http://www.w3.org/2000/svg"><path d="m1308 1041v-74h-443v74zm-443 155v74h443v-74zm228-752h502q11 0 18 7.5t7 16.5v189q0 25-25 25h-602l-57 95h573q9 0 17.5 7a22.26 22.26 0 0 1 8.5 18v750q0 29-9 53.5t-24.5 42a108.72 108.72 0 0 1 -36 27 100 100 0 0 1 -42.5 9.5h-151q-21 0-24-20l-25-141q0-29 25-29h60v-70h-443v236q0 11-8 17.5t-17 6.5h-178q-25 0-25-24v-549q-66 56-146 108-5 4-19 4a30 30 0 0 1 -8.5-5 43.71 43.71 0 0 1 -6.5-7l-97-164-4-12q0-16 13-22 211-120 356-331h-290q-9 0-17-7a22.85 22.85 0 0 1 -8-18v-189q0-24 25-24h417q25-60 35.5-97t15.5-57.5q5-20.5 10-27t19-6.5h173q26 0 26 26-1 1-8 44t-30 118zm803 1410v-1731q0-20-12-32.5t-32-12.5h-1730a43.2 43.2 0 0 0 -31 12.5q-13 12.5-13 32.5v1731q0 17 13 30.5t31 13.5h1730q20 0 32-13.5t12-30.5zm-1774-1854h1730a123.47 123.47 0 0 1 48.5 9.5 121.09 121.09 0 0 1 39 26 114.73 114.73 0 0 1 25.5 39 129.39 129.39 0 0 1 9 48.5v1731a126.69 126.69 0 0 1 -9 47.5 114.73 114.73 0 0 1 -25.5 39 121.09 121.09 0 0 1 -39 26 123.47 123.47 0 0 1 -48.5 9.5h-1730a121.63 121.63 0 0 1 -122-122v-1731a123.47 123.47 0 0 1 9.5-48.5 121.63 121.63 0 0 1 112.5-74.5z"/></svg>