<svg viewBox="0 0 1996 1995" xmlns="http://www.w3.org/2000/svg"><path d="m726 997v156h70v-156zm598 156v-156h-75v156zm-340-156v156h79v-156zm-258-365v180h70v-180zm598 180v-180h-75v180zm-261 0v-180h-79v180zm254 810 2 8q0 20-19 22l-132 36-8 1q-19 0-22-18l-59-217-1-7q0-14 18-25l133-34 6-1q18 0 24 17zm-373-212 53 220v6q0 18-19 24l-133 32-5 1q-21 0-23-20l-54-219-1-4q0-20 19-25l133-33h5q21 0 25 18zm700 202 2 7q0 14-17 25l-130 42-8 2q-21 0-23-17l-71-215-2-6q0-18 17-24l131-43 7-2q18 0 23 17zm-964-151-1 8-88 208q-8 16-23 16l-136-56q-15-7-15-23l2-10 87-208q7-15 25-15l8 2 127 53q14 6 14 25zm832-649h149q24 0 24 25v135q0 25-24 25h-149v156h104q24 0 24 23v135a25.9 25.9 0 0 1 -6.5 17.5q-6.49 7.5-17.5 7.5h-1180q-26 0-26-25v-135q0-8 7.5-15.5a25.14 25.14 0 0 1 18.5-7.5h104v-156h-150q-11 0-18-7.5a24.82 24.82 0 0 1 -7-17.5v-135a24.82 24.82 0 0 1 7-17.5q7-7.5 18-7.5h150v-178l-46 112q-8 17-25 17l-164-69q-15-7-15-21l156-377q7-15 25-15l8 2 156 65q13 6 13 24 0 3-7 22t-21 53h996q24 0 24 25v135q0 11-7.5 18t-16.5 7h-104zm406 1059v-1748q0-20-12.5-32.5t-32.5-12.5h-1750q-20 0-32 12.5t-12 32.5v1748q0 20 12 33t32 13h1750q20 0 32.5-13t12.5-33zm-1795-1871h1750a122.79 122.79 0 0 1 86.5 35.5 128.19 128.19 0 0 1 26.5 39 118 118 0 0 1 10 48.5v1748a121.5 121.5 0 0 1 -10 49 126.61 126.61 0 0 1 -26.5 39.5 122.79 122.79 0 0 1 -86.5 35.5h-1750a122.79 122.79 0 0 1 -86.5-35.5 126.61 126.61 0 0 1 -26.5-39.5 121.5 121.5 0 0 1 -10-49v-1748a118 118 0 0 1 10-48.5 128.19 128.19 0 0 1 26.5-39 122.79 122.79 0 0 1 86.5-35.5z"/></svg>