<svg viewBox="0 0 2140 2142" xmlns="http://www.w3.org/2000/svg"><path d="m856 931q0 19-15 24l-89 35v742q0 11-7.5 17.5a25.9 25.9 0 0 1 -17.5 6.5h-158q-25 0-25-24v-658l-98 37q-16 0-22-17l-62-158q0-19 16-22l385-154 9-1q18 0 24 15 60 155 60 157zm-432-173-62-159q0-17 16-22l342-135 10-2q16 0 23 15l59 150 2 9q0 16-16 22l-352 138q-16 0-22-16zm584 779h201q8 0 16 7a22.85 22.85 0 0 1 8 18v127q0 25-24 25h-201q-11 0-18-7.5a24.82 24.82 0 0 1 -7-17.5v-127q0-9 7-17a22.85 22.85 0 0 1 18-8zm-134-448h870a24.66 24.66 0 0 1 16.5 6.5q7.5 6.49 7.5 17.5v129q0 11-7.5 18t-16.5 7h-140v60h140a24.66 24.66 0 0 1 16.5 6.5q7.5 6.49 7.5 17.5v106q0 24-24 24h-140v173q0 60-34 96t-88 36h-139q-19 0-25-20l-24-142-2-6q0-9 8.5-16t17.5-7h60v-114h-504q-11 0-18-7.5t-7-16.5v-106q0-24 25-24h504v-60h-504q-25 0-25-25v-129q0-24 25-24zm617-296-7-2h-354l-7 2-3 6v70l3 6 7 3h354l7-3 2-6v-70zm0-131 2-7v-70l-2-5-7-3h-354l-7 3-3 5v70l3 7 7 3h354zm149 368h-666a25.63 25.63 0 0 1 -25-25v-558q0-11 7.5-17.5a25.9 25.9 0 0 1 17.5-6.5h666q24 0 24 24v558q0 8-7.5 16.5t-16.5 8.5zm422 41q0-265-134-495-133-231-363-364t-494-133q-265 0-497 133t-364 362q-132 231-132 497 0 273 135 502 136 231 365 361t493 130q268 0 495-133 115-66 205.5-155t156.5-204q134-229 134-501zm-991-1071q143 0 274.5 35.5t255.5 106.5q248 142 393 390 146 250 146 539t-146 539q-73 125-170.5 222.5t-222.5 168.5q-246 141-530 141-287 0-537-143-248-144-391-392-143-246-143-536 0-288 143-535 72-125 169-223t222-170q250-143 537-143z"/></svg>