<svg viewBox="0 0 1996 1995" xmlns="http://www.w3.org/2000/svg"><path d="m1616 1532-4 13-73 117q-11 12-22 12l-12-4-235-145q-14-8-14-21l4-13 74-117q7-12 22-12l12 4 237 145q11 6 11 21zm-870-29q0 10-10 16l-194 158q-5 5-17 5-9 0-17-8l-88-107q-5-2-5-13 0-16 9-21l193-157q6-6 16-6 12 0 18 8l89 107q6 6 6 18zm-273-580h1065q24 0 24 25v121a25.9 25.9 0 0 1 -6.5 17.5q-6.49 7.5-17.5 7.5h-1065q-11 0-17.5-7.5a25.9 25.9 0 0 1 -6.5-17.5v-121q0-25 24-25zm-139 243h1343q25 0 25 25v122q0 11-7.5 17.5a25.9 25.9 0 0 1 -17.5 6.5h-536v226q0 63-33 98t-90 35h-199q-22 0-24-23l-14-141a29.8 29.8 0 0 1 7-19.5 22.26 22.26 0 0 1 18-8.5h109v-167h-581q-9 0-17-6.5t-8-17.5v-122q0-25 25-25zm1416-370q0 9-7 16l-85 88q-6 8-18 8-8 0-18-8l-181-189v103q0 23-25 23h-136q-23 0-23-23v-115l-116 120q-7 7-18 7-6 0-18-7l-84-88a23.13 23.13 0 0 1 -7-17q0-11 7-18l108-111h-69q-8 0-16-6t-8-19v-97a24.66 24.66 0 0 1 6.5-16.5q6.5-7.5 17.5-7.5h197v-96q0-23 23-23h136q25 0 25 23v96h240a24 24 0 0 1 17.5 7.5q7.5 7.5 7.5 16.5v97q0 13-8.5 19t-16.5 6h-123l185 193q3 5 5 9a19.91 19.91 0 0 1 2 9zm-1396 112q-11 0-17-8l-85-88q-7-7-7-16 0-11 7-18l184-193h-123q-24 0-24-25v-97q0-7 6.5-15.5a20.88 20.88 0 0 1 17.5-8.5h241v-96q0-23 26-23h133q14 0 20 7.5t6 15.5v96h195q11 0 18 7.5t7 16.5v97q0 11-7.5 18a24.82 24.82 0 0 1 -17.5 7h-67l108 111q6 6 6 18t-6 17l-86 88q-7 7-18 7-9 0-16-7l-116-120v115q0 7-6 15t-20 8h-133q-26 0-26-23v-103l-182 189q-8 8-18 8zm1563 964v-1749q0-20-13.5-32.5t-30.5-12.5h-1748q-20 0-33.5 12.5t-13.5 32.5v1749q0 20 13.5 32.5t33.5 12.5h1748q17 0 30.5-12.5t13.5-32.5zm-1792-1872h1748a115.6 115.6 0 0 1 47.5 10 125.77 125.77 0 0 1 65.5 65.5 115.6 115.6 0 0 1 10 47.5v1749a118 118 0 0 1 -10 48.5 128.19 128.19 0 0 1 -26.5 39 122.79 122.79 0 0 1 -86.5 35.5h-1748a127.14 127.14 0 0 1 -49-9.5 125.59 125.59 0 0 1 -40-26 117.28 117.28 0 0 1 -26.5-39 123.47 123.47 0 0 1 -9.5-48.5v-1749a120.92 120.92 0 0 1 9.5-47.5 117.28 117.28 0 0 1 26.5-39 133 133 0 0 1 40-26.5 121.5 121.5 0 0 1 49-10z"/></svg>