<svg viewBox="0 0 1996 1995" xmlns="http://www.w3.org/2000/svg"><path d="m1074 469h625q25 0 25 24v1088q0 25-25 25h-625q-25 0-25-25v-241q0-8 6.5-16t18.5-8h347v-557h-347q-12 0-18.5-8.5t-6.5-16.5v-241q0-24 25-24zm-776 0h627q23 0 23 24v1088q0 25-23 25h-627q-9 0-16.5-7t-7.5-18v-241q0-7 6.5-15.5a20.88 20.88 0 0 1 17.5-8.5h348v-557h-348a20.88 20.88 0 0 1 -17.5-8.5q-6.5-8.5-6.5-16.5v-241a24.66 24.66 0 0 1 6.5-16.5q6.5-7.5 17.5-7.5zm1620 1402v-1748q0-20-12.5-32.5t-32.5-12.5h-1750q-20 0-32 12.5t-12 32.5v1748q0 20 12 33t32 13h1750q20 0 32.5-13t12.5-33zm-1795-1871h1750a122.79 122.79 0 0 1 86.5 35.5 128.19 128.19 0 0 1 26.5 39 118 118 0 0 1 10 48.5v1748a121.5 121.5 0 0 1 -10 49 126.61 126.61 0 0 1 -26.5 39.5 122.79 122.79 0 0 1 -86.5 35.5h-1750a122.79 122.79 0 0 1 -86.5-35.5 126.61 126.61 0 0 1 -26.5-39.5 121.5 121.5 0 0 1 -10-49v-1748a118 118 0 0 1 10-48.5 128.19 128.19 0 0 1 26.5-39 122.79 122.79 0 0 1 86.5-35.5z"/></svg>