<svg viewBox="0 0 1996 1995" xmlns="http://www.w3.org/2000/svg"><path d="m1796 790-113 186q-5 9-15 9-18 0-132-59-115-60-248-146t-265-192q-126 101-240.5 175.5t-203 124q-88.5 49.5-142.5 73.5t-58 24q-10 0-14-9l-111-179-4-12q0-7 56-33l18-8q202-94 372-213.5t316-249.5l10-4 10 3q159 142 346 265 94 63 177 110.5t156 82.5q80 39 83 44 2 6 2 8zm-447 546-6-3h-638l-7 3-3 6v127l3 5 7 3h638l6-3 3-5v-127zm-854-190h1058q16 0 16 18v483q0 16-16 16h-1058q-18 0-18-16v-483a16.74 16.74 0 0 1 5.5-13 18.09 18.09 0 0 1 12.5-5zm898-88h-739q-8 0-12-5.5t-4-10.5v-153q0-17 16-17h739q17 0 17 17v153q0 5-5 10.5a15.64 15.64 0 0 1 -12 5.5zm524 813v-1748q0-20-13.5-32.5t-30.5-12.5h-1748q-20 0-33.5 12.5t-13.5 32.5v1748q0 20 13.5 32.5t33.5 12.5h1748q17 0 30.5-12.5t13.5-32.5zm-1792-1871h1748a122.79 122.79 0 0 1 86.5 35.5 128.19 128.19 0 0 1 26.5 39 118 118 0 0 1 10 48.5v1748a121.5 121.5 0 0 1 -10 49 126.61 126.61 0 0 1 -26.5 39.5 122.79 122.79 0 0 1 -86.5 35.5h-1748a127.14 127.14 0 0 1 -49-9.5 125.59 125.59 0 0 1 -40-26 116.1 116.1 0 0 1 -26.5-39.5 127.14 127.14 0 0 1 -9.5-49v-1748a123.47 123.47 0 0 1 9.5-48.5 117.28 117.28 0 0 1 26.5-39 125.59 125.59 0 0 1 40-26 127.14 127.14 0 0 1 49-9.5z"/></svg>