<svg viewBox="0 0 1996 1995" xmlns="http://www.w3.org/2000/svg"><path d="m1471 626h250q11 0 18 7.5a24.82 24.82 0 0 1 7 17.5v228q0 9-8 16t-17 7h-250q-3 170-38 299t-86.5 223q-51.5 94-110.5 156t-109.5 99.5q-50.51 37.5-85 53t-35.5 15.5l-9 1q-14 0-20-11l-126-191-4-13q0-14 19-24a516.77 516.77 0 0 0 134.5-95.5q59.51-58.5 101-135.5t64.5-171.5q23-94.5 26-205.5h-368v333q0 11-8 17.5t-17 6.5h-228q-12 0-18.5-7.5a24.66 24.66 0 0 1 -6.5-16.5v-333h-272q-8 0-16.5-7t-8.5-16v-228a25.63 25.63 0 0 1 25-25h272v-232q0-26 25-26h228q8 0 16.5 6.5t8.5 19.5v232h369v-232q0-26 25-26h228q8 0 16.5 7t8.5 19zm447 1246v-1748q0-20-12.5-32.5t-32.5-12.5h-1750q-20 0-32 12.5t-12 32.5v1748q0 20 12 32.5t32 12.5h1750q20 0 32.5-12.5t12.5-32.5zm-1795-1872h1750a122.79 122.79 0 0 1 86.5 35.5 126.61 126.61 0 0 1 26.5 39.5 121.5 121.5 0 0 1 10 49v1748a118 118 0 0 1 -10 48.5 128.19 128.19 0 0 1 -26.5 39 122.79 122.79 0 0 1 -86.5 35.5h-1750a122.79 122.79 0 0 1 -86.5-35.5 128.19 128.19 0 0 1 -26.5-39 118 118 0 0 1 -10-48.5v-1748a121.5 121.5 0 0 1 10-49 126.61 126.61 0 0 1 26.5-39.5 122.79 122.79 0 0 1 86.5-35.5z"/></svg>