<svg viewBox="0 0 1996 1994" xmlns="http://www.w3.org/2000/svg"><path d="m1166 836h283q15 0 15-15v-114q0-15-15-15h-283zm0 187v144h283q15 0 15-15v-114q0-15-15-15zm-615 15v114q0 15 17 15h282v-144h-282q-17 0-17 15zm299-202v-144h-282q-17 0-17 15v114q0 15 17 15zm316-356h506q24 0 24 26v847q0 24-24 24h-506v342q0 25-25 25h-267q-11 0-17.5-7.5a25.9 25.9 0 0 1 -6.5-17.5v-342h-507q-24 0-24-24v-847a25.14 25.14 0 0 1 7.5-18.5q7.5-7.5 16.5-7.5h507v-209q0-11 7.5-18t16.5-7h267q8 0 16.5 6t8.5 19zm752 1391v-1748q0-20-12.5-32.5t-32.5-12.5h-1750q-20 0-32.5 12.5t-12.5 32.5v1748q0 20 12.5 32.5t32.5 12.5h1750q20 0 32.5-12.5t12.5-32.5zm-1795-1871h1750a122.79 122.79 0 0 1 86.5 35.5 128.19 128.19 0 0 1 26.5 39 118 118 0 0 1 10 48.5v1748a118 118 0 0 1 -10 48.5 128.19 128.19 0 0 1 -26.5 39 122.79 122.79 0 0 1 -86.5 35.5h-1750a122.79 122.79 0 0 1 -86.5-35.5 128.19 128.19 0 0 1 -26.5-39 118 118 0 0 1 -10-48.5v-1748a118 118 0 0 1 10-48.5 128.19 128.19 0 0 1 26.5-39 122.79 122.79 0 0 1 86.5-35.5z"/></svg>