<svg viewBox="0 0 1974 1975" xmlns="http://www.w3.org/2000/svg"><path d="m709 1059h619v-132h-619zm619-338v-134h-619v134zm-852-395h1097q25 0 25 25v1132q0 45-18 96-9 25-24.5 42.5a154.1 154.1 0 0 1 -34 29 134.23 134.23 0 0 1 -38.5 16.5 156.94 156.94 0 0 1 -38 5h-227q-21 0-24-20l-31-215v-4q0-23 24-23h141v-144h-630a693.17 693.17 0 0 1 -50 161q-17 39-36.5 75t-38.5 66.5q-19 30.5-36 53.5t-29 35a27.14 27.14 0 0 1 -20 8q-9 0-15-5l-169-145q-9-7-9-17a23.13 23.13 0 0 1 7-17l25-30q48-58 86-151 38-91 38-174v-775q0-25 25-25zm1420 1527v-1731q0-17-12-30.5t-32-13.5h-1730q-18 0-31 13.5t-13 30.5v1731q0 17 13 30.5t31 13.5h1730q20 0 32-13.5t12-30.5zm-1774-1853h1730a123.47 123.47 0 0 1 48.5 9.5 121.09 121.09 0 0 1 39 26 114.73 114.73 0 0 1 25.5 39 126.69 126.69 0 0 1 9 47.5v1731a126.69 126.69 0 0 1 -9 47.5 114.73 114.73 0 0 1 -25.5 39 121.09 121.09 0 0 1 -39 26 123.47 123.47 0 0 1 -48.5 9.5h-1730a121.63 121.63 0 0 1 -122-122v-1731a121.63 121.63 0 0 1 122-122z"/></svg>