<svg viewBox="0 0 2080 2068" xmlns="http://www.w3.org/2000/svg"><path d="m1227 1094a109.69 109.69 0 0 0 36.5-6.5 105.93 105.93 0 0 0 32.5-18 92.32 92.32 0 0 0 23-28.5q9-17 9-38 0-38-26-66.5t-71-28.5a111.92 111.92 0 0 0 -39 7 101.85 101.85 0 0 0 -33 19.5 96 96 0 0 0 -22.5 30 86.9 86.9 0 0 0 -8.5 38.5q0 40 29 65.5t70 25.5zm-177 261q41 0 70.5-24t29.5-69a93.36 93.36 0 0 0 -6.5-34.5 89.61 89.61 0 0 0 -19-29.5 95.45 95.45 0 0 0 -30.5-21q-18-8-40-8a107.82 107.82 0 0 0 -38.5 7 98.42 98.42 0 0 0 -32.5 20 104.46 104.46 0 0 0 -22.5 30q-8.5 17-8.5 38 0 40 28.5 65.5t69.5 25.5zm-4-686a111.11 111.11 0 0 0 -38 6.5 101.74 101.74 0 0 0 -32 18.5 90.29 90.29 0 0 0 -22.5 29.5q-8.5 17.5-8.5 39.5 0 42 29 67t69 25a116.24 116.24 0 0 0 37-6 89.35 89.35 0 0 0 31.5-18 93.7 93.7 0 0 0 22-29.5q8.5-17.5 8.5-39.5 0-41-25.5-67t-70.5-26zm-299 299a104.06 104.06 0 0 0 36.5-6.5 92.6 92.6 0 0 0 31-19 102 102 0 0 0 22-29.5q8.5-17 8.5-38 0-37-25.5-65t-70.5-28a111.11 111.11 0 0 0 -38 6.5 97 97 0 0 0 -32 19 96 96 0 0 0 -22.5 30q-8.5 17.5-8.5 39.5 0 41 29 66t70 25zm-2 274a108.21 108.21 0 0 0 37-6.5 101.74 101.74 0 0 0 32-18.5 92 92 0 0 0 22.5-29q8.5-17 8.5-38 0-37-25.5-65t-70.5-28a111.11 111.11 0 0 0 -38 6.5 97.51 97.51 0 0 0 -54.5 48.5q-8.5 17-8.5 38 0 41 28.5 66.5t68.5 25.5zm1335-252q0 21-15 30-32 21-51 33.5t-24 17.5a25.1 25.1 0 0 0 -7 8 16.17 16.17 0 0 0 -2 7q0 12 13 24t28.5 25a252.31 252.31 0 0 1 28.5 28q13 15 13 34 0 46-68 120-69 74-161.5 111.5a505.14 505.14 0 0 1 -191.5 37.5q-62 0-115-13-19 0-19 16l1 10a647 647 0 0 1 30 194q0 60-9.5 112.5a552.43 552.43 0 0 1 -27.5 99.5q-37 93-71 93-11 0-24.5-6a228 228 0 0 1 -30.5-17q-17-12-31.5-17t-25.5-5q-21 0-30 74-5 34-23 47.5t-55 13.5a237.15 237.15 0 0 1 -37-3q-19-3-41-8-147-32-252-143-105-113-126-262-3-12-5-23.5t-13-11.5q-15 0-28 15-134 108-322 108-84 0-189-29-102-28-102-63 0-17 16-54 15-33 15-50 0-19-46-22-20-1-35.5-3t-26-9a41.11 41.11 0 0 1 -15.5-19.5q-5-12.5-5-33.5a177.9 177.9 0 0 1 2-27q2-13 4-27l9-45a487.89 487.89 0 0 1 69.5-179.5q52.5-82.5 138.5-151.5 20-22 20-31 0-11-7-17.5t-15-14.5a512.35 512.35 0 0 1 -129-166q-47-96-47-204 0-84 18.5-126t55.5-40l45 3q36 2 46.5-3t10.5-21a127.27 127.27 0 0 0 -2.5-26q-2.5-12-5.5-23t-5.5-22a103.27 103.27 0 0 1 -2.5-23q0-57 156-57a737.75 737.75 0 0 1 99 6.5 571 571 0 0 1 95.5 21.5 611.54 611.54 0 0 1 96 40q48.5 25 101.5 62 14 10 24.5 13.5t15.5 3.5q22 0 34-48 26-94 96-179 72-85 169-130.5t205-45.5q17 0 33.5 1a296.28 296.28 0 0 1 33.5 4q10 2 16 3a29.11 29.11 0 0 1 9.5 3q3.49 2 5.5 7a91.25 91.25 0 0 1 4 15q0 17 10 46 10 30 26 30 13 0 49-18l40-19 12-1q27 0 68 48 21 23 38 55.5a544.7 544.7 0 0 1 31 72.5 707.1 707.1 0 0 1 20 76.5 349.08 349.08 0 0 1 7 67.5q0 115-70 239-12 21-12 32t11 14.5a165.39 165.39 0 0 0 23 5.5q97 18 194 69a614 614 0 0 1 89.5 57.5 669.21 669.21 0 0 1 75.5 68.5q69 74 69 113z"/></svg>