<svg viewBox="0 0 1852.2 1881" xmlns="http://www.w3.org/2000/svg"><path d="m1754.2 871q0-94-48.5-191t-136.5-181q-45-42-113.5-89t-162.5-98q-189-103-364-158.5t-315-55.5q-105 0-189.5 43t-146 126.5q-61.5 83.5-99 205.5t-49.5 281q-8 103-20 210.5a1923.21 1923.21 0 0 0 -12 213.5q0 191 55 328 27 68 72.5 119.5a434.27 434.27 0 0 0 104.5 86.5q59 35 129.5 53t149.5 18q155 0 328-63 26-30 26-74 0-103-145-281l-114-139q-18-23-36-45.5a490.84 490.84 0 0 1 -33-46.5q-16-25-23-43t-7-31q0-22 19-40.5t54-41.5l31-19q55-36 110-75t110.5-79q55.5-40 111.5-78.5t114-71.5q51-30 76-30 22 0 45.5 17t50.5 49l97 113a1153.85 1153.85 0 0 1 75.5 98.5q34.5 50.5 64.5 104.5 29 54 44.5 98t15.5 80q67-83 98.5-157t31.5-157zm98 0q0 131-68 256-34 63-89.5 129.5t-135.5 138.5q-79 72-145.5 128.5t-122.5 98.5a1729.24 1729.24 0 0 1 -162.5 109 1166.44 1166.44 0 0 1 -165.5 81 1038.85 1038.85 0 0 1 -172 51 906 906 0 0 1 -182 18q-141 0-255-47t-193.5-136.5q-79.5-89.5-121.5-218t-39-290.5q1-55 3.5-110t7.5-112l20-221q11-112 32-210.5t59-183.5q75-174 197.5-263t294.5-89q143 0 337 59a1927.75 1927.75 0 0 1 193 70q97 41 197 95 199 110 298 206a729.89 729.89 0 0 1 90 101.5 664.4 664.4 0 0 1 67 114.5q56 121 56 225z"/></svg>