<svg viewBox="0 0 1888 2333" xmlns="http://www.w3.org/2000/svg"><path d="m1004 1519 132-30q0-28-11.5-48.5a98.18 98.18 0 0 0 -30.5-33.5q-19-13-44.5-19a228.45 228.45 0 0 0 -52.5-6q-50 0-50 23 0 13 11 30 17 28 29 49t17 35zm-516 691q49 0 96-4t93-11q48-8 114-23t152-39q85-24 152-46.5t117-42.5q50-20 108-48t126-65q136-76 193-122 59-48 93-96.5t34-85.5q0-16-15.5-28.5t-43-20.5q-27.49-8-65.5-12.5a717.92 717.92 0 0 0 -84-4.5q-45 0-106.5 5.5t-140.5 16.5q-22 43-22 56 0 8 7 8 73 16 73 82a77.08 77.08 0 0 1 -12 42q-12 19-32.5 32.5t-48 21a217.56 217.56 0 0 1 -57.5 7.5 305.69 305.69 0 0 1 -66.5-7q-31.5-7-54.5-20.5t-36.5-32a68.7 68.7 0 0 1 -13.5-41.5q0-34 41-107l-75 19-15 55-43 124q-13 39-13 69 0 12 9 16 58 25 58 69 0 80-134 80-48 0-95-22-46-21-62-47.5t-16-68.5q0-53 17-98.5t37-95.5q-254 99-418 226-162 125-162 180 0 38 81 59t230 21zm1070-771q165 0 247.5 49t82.5 139q0 49-21 98.5t-66.5 100q-45.49 50.51-118 103t-174.5 108.5q-207 112-422 179-108 35-195 57.5t-154 34.5q-66 12-128 18.5a1161.35 1161.35 0 0 1 -121 6.5q-218 0-326.5-52.5t-108.5-150.5q0-76 83-164 106-112 261-205t364-168a134.4 134.4 0 0 0 -26.5-22.5q-13.5-8.5-27.5-16.5-83-41-143-105a441.94 441.94 0 0 1 -53.5-70 433 433 0 0 1 -39.5-83q-32-91-32-162a923.31 923.31 0 0 1 5-98.5 861.79 861.79 0 0 1 14-88.5q10-42 14-69t4-38q0-48-37-64l-113-52a610.52 610.52 0 0 1 -133-81.5q-60-48.5-103-103.5t-66.5-111q-23.5-56-23.5-105 0-72 41-122 43-50 105-50a136.55 136.55 0 0 1 47 8 130.66 130.66 0 0 1 38.5 21.5 101.92 101.92 0 0 1 26 31.5 82.32 82.32 0 0 1 9.5 39l-3 26q0 16 12 34a229.21 229.21 0 0 0 28 50 294.94 294.94 0 0 0 39 43q44 39 114 71 34 15 89.5 35.5t133.5 43.5a348 348 0 0 1 -23.5-45.5 265.91 265.91 0 0 1 -14.5-44.5q-11-47-11-123 0-112 42-182 44-72 122-115 80-44 164-44 137 0 244 92 53 47 79.5 102t26.5 122a320.12 320.12 0 0 1 -8 70.5 447.52 447.52 0 0 1 -22 70 492.66 492.66 0 0 1 -33 66.5 486.23 486.23 0 0 1 -41 59q25-8 57-21t71-34q76-41 103-68 10-10 16-37 27-123 140-123 57 0 91.5 33.5t34.5 95.5q0 66-45.5 119t-127.5 109q-81 55-152 91t-123 56l-82 32a303 303 0 0 0 -29.5 13q-11.51 6-16.5 11-9 11-26 55-8 21-14 43t-10.5 41.5q-4.5 19.5-7 35t-2.5 24.5q0 48 31.5 83.5t105.5 74.5q74 39 104.5 76.5t30.5 86.5l-8 75q58-7 111-11t101-4z"/></svg>