<svg viewBox="0 0 2300 2321" xmlns="http://www.w3.org/2000/svg"><path d="m1281 1513q0 23-16 41t-36 18a57 57 0 0 1 -29-7.5 78.48 78.48 0 0 1 -22.5-19.5 89.23 89.23 0 0 1 -14.5-26.5 87.2 87.2 0 0 1 -5-28.5q0-24 15.5-40.5t39.5-16.5a52.44 52.44 0 0 1 27.5 7.5 74.85 74.85 0 0 1 21.5 19.5 98.05 98.05 0 0 1 14 26 80.18 80.18 0 0 1 5 27zm-205-806a66.1 66.1 0 0 1 -30-7 79.69 79.69 0 0 1 -24.5-19 100.29 100.29 0 0 1 -17-27.5 83.26 83.26 0 0 1 -6.5-32.5q0-28 18.5-45.5t44.5-17.5a59.72 59.72 0 0 1 29.5 7.5 79.2 79.2 0 0 1 23.5 20 95.68 95.68 0 0 1 15.5 28 93.46 93.46 0 0 1 5.5 31.5q0 24-17.5 43t-41.5 19zm-838-231q-14 0-34.5-4a272.78 272.78 0 0 1 -40-11 179.62 179.62 0 0 1 -34-16q-14.5-9-15.5-20 0-9 9-18l65-64a127.18 127.18 0 0 1 18-13.5 34.24 34.24 0 0 1 18-5.5h26q16 0 37 19l65 64q7 6 7 18 0 15-9 19l-11 6q-52 26-101 26zm-124-427q0-10 14-21 11-4 40-16t70-12a174.6 174.6 0 0 1 38 4 270.65 270.65 0 0 1 32 9q14 5 24 9.5t14 5.5q13 9 13 22 0 11-7 17-21 21-36 37a339.44 339.44 0 0 1 -28 27 102.63 102.63 0 0 1 -26 16.5 73.67 73.67 0 0 1 -29 5.5q-24 0-45-21l-65-65q-9-9-9-18zm208 201v-26q0-16 21-37l64-64q8-8 18-8 14 0 20 13 4 3 8.5 14.5t9.5 29.5a332 332 0 0 1 9.5 34 149.56 149.56 0 0 1 3.5 32 156.94 156.94 0 0 1 -5 38q-1 16-17 52-15 33-29 33-8 0-18-8l-64-66q-21-21-21-37zm-171-26v26q0 18-19 37l-64 66q-8 8-18 8t-15-6q-7-7-20-41a195.61 195.61 0 0 1 -15-76q0-11 .5-20t1.5-19q2-9 6-22a233.61 233.61 0 0 1 12-30q15-32 29-32a26 26 0 0 1 19 8l64 64q19 18 19 37zm1169 1302q0-53-37-98-18-21-37.5-32.5t-39.5-11.5q-36 0-61 27t-25 68q0 60 38 99 39 40 81 40 13 0 27-7a95.13 95.13 0 0 0 26-19.5 109.43 109.43 0 0 0 20-29.5 83.55 83.55 0 0 0 8-36zm-128-871q0-63-41-111-40-49-98-49a107 107 0 0 0 -43.5 9 110.85 110.85 0 0 0 -35.5 24.5 112.66 112.66 0 0 0 -23.5 36.5 118.73 118.73 0 0 0 -8.5 45q0 62 42 111 43 49 102 49 41 0 74-36 32-35 32-79zm167 871q0 52-37 92-35 40-83 40-65 0-112-56t-47-123q0-29 10-53.5a130.19 130.19 0 0 1 27-42 124.18 124.18 0 0 1 40-27.5 121.5 121.5 0 0 1 49-10q64 0 108 56 45 56 45 124zm-511 445a111.94 111.94 0 0 0 57.5-15.5q26.5-15.49 46-44t30.5-67q11-38.51 11-85.5 0-112-55-200-56-89-129-89-61 0-104 67-42 69-42 152 0 118 53 200 54 82 132 82zm-122-881q35 0 64-16t49.5-44.5q20.5-28.5 31.5-68t11-87.5q0-114-58-197-58-85-134-85-67 0-113 66-47 65-45 157a402.77 402.77 0 0 0 12 96q12 49 36 89t60.5 65.5q36.5 25.5 85.5 24.5zm-171 1183q0 18-12 33t-36 15q-25 0-40-20-7-10-12.5-41t-11.5-85l-13-107q-11-102-27.5-201.5t-29.5-200.5l-52-404-30-206q-14-92-24-175t-20-158l-9-72-13-94-1-7q0-7 5-7l29 4q36 0 49-10l11-1q4 0 4 7l3 23 209 1540q9 65 15 106t6 61zm1642-704-74-26a194.1 194.1 0 0 1 -44-22 158.39 158.39 0 0 1 -61-77q-9-24-9-53 0-30 16.5-70.5t41.5-97.5l24-56-45 12q-80 22-155.5 35.5a842.52 842.52 0 0 1 -148.5 13.5h-176q-172 0-292 21a1161.58 1161.58 0 0 0 -118 26q-58 16-117 38t-101 40.5q-42 18.5-68 36.5 51 17 89.5 51.5t67.5 84.5q57 102 57 233 0 106-43 183 65-20 129-46.5t139-51.5q28-9 46-18.5t28-18.5q20-20 30.5-51t14.5-90v-10s.33-4 1-12 1.83-11.33 3.5-10 4.5 0 8.5-4q9 0 17.5 9.5t15 24.5a176.14 176.14 0 0 1 10.5 34.5 195.85 195.85 0 0 1 4 39.5q0 39-10 68l177-24q97-13 167-24.5t113-25.5a670.59 670.59 0 0 0 166-84q80-56 96-79zm103-21q0 62-98 138-50 39-95.5 68t-90.5 46q-60 23-144 41.5t-194 31.5q-204 23-283 42-40 10-82 24t-89 33q-59 25-109 42.5t-95 28.5a746.08 746.08 0 0 1 -85.5 16 649.19 649.19 0 0 1 -79.5 5q-125 0-204-111-80-111-80-264 0-78 26-142 27-64 103-141t213-139a1450.72 1450.72 0 0 1 290-96q78-17 170-26.5t201-7.5l168 1q20 0 48.5-2.5t65.5-7.5q38-5 66-9t47-10l29-8q44-12 76-21.5t55-9.5q59 0 59 52 0 69-43 145-46 77-46 121 0 60 88 82l36 10q77 21 77 68zm-1861-733q0-139 80-231 15-22 42.5-48.5t67.5-58.5a862.19 862.19 0 0 1 92.5-63q50.5-30 112.5-59 125-57 276-85.5a1450 1450 0 0 1 307-24.5l180 4 181 7q70 2 120-2.5t82-11.5q42-9 72.5-13t52.5-4q79 0 79 52 0 46-53 119-74 99-74 145 0 58 126 88 83 19 83 67 0 85-160 167t-335 97l-167 14q-59 5-117.5 14.5t-118.5 23.5q-14 0-14-12 0-5 12-29a177.46 177.46 0 0 0 11-41.5 321.78 321.78 0 0 0 3-44.5q0-17-2-37t-5-44q-9-36-25-60.5t-30-24.5q-11 0-11 10a205.5 205.5 0 0 0 5.5 48 210 210 0 0 1 5.5 49q0 70-35 138-36 67-89 96l-93 36q-183 90-341 90h-19l-15-2q-124 0-205-109-82-109-82-260z"/></svg>