<svg viewBox="0 0 2342 2209" xmlns="http://www.w3.org/2000/svg"><path d="m1888 1900a58 58 0 0 0 -2.5-15 73.27 73.27 0 0 0 -7.5-17.5 52.31 52.31 0 0 0 -12.5-14.5 27.18 27.18 0 0 0 -17.5-6q-18 0-48 34-28 32-28 50a39.94 39.94 0 0 0 4.5 18 63.31 63.31 0 0 0 12 16.5 66.93 66.93 0 0 0 16 12 37 37 0 0 0 17.5 4.5q11 0 22-14 14-15 29-31.5t15-36.5zm-211-27q27 0 64-48 37-49 37-70 0-9-8-21t-29-12q-9 0-21 7t-26 22l-17.5 17.5-18 20.5q-18 20.51-14 23t-5.5 24q0 16 12 26 11 11 26 11zm64 182q0-7-5.5-16a107.63 107.63 0 0 0 -13.5-17.5 83.57 83.57 0 0 0 -18-14.5q-10-6-19-6-16 0-48 32-28 29-28 53 0 14 26 14a256.41 256.41 0 0 0 40-3 157.77 157.77 0 0 0 34-9q15-6 23.5-14.5t8.5-18.5zm-108-416q0-17-16-32-4-3-28.5-23t-71.5-56q-46-36-93-55.5a282.54 282.54 0 0 0 -98-21.5 243.39 243.39 0 0 0 -58.5 5 296.2 296.2 0 0 0 -54.5 17 215.46 215.46 0 0 0 -47.5 27.5 197 197 0 0 0 -36.5 36 176.79 176.79 0 0 0 -23.5 40q-8.5 20.5-8.5 38.5 0 17 17 17l20-6a210.85 210.85 0 0 1 44.5-14q24.49-5 56.5-5a267.82 267.82 0 0 1 72 10 419.5 419.5 0 0 1 71 27 559.83 559.83 0 0 1 69 40q34 23 66 48 17 14 34 18 10 0 19-10 7-5 17-18.5t24-33.5q30-42 26-49zm-41 306a20.88 20.88 0 0 0 -8.5-17.5q-8.5-6.5-21.5-6.5-11 0-24.5 6t-27.5 20l-53 51q-26 26-16 31 0 12 14.5 20t27.5 8q27 0 68-48 41-45 41-64zm-151-100q0-23-37-46a551.47 551.47 0 0 0 -73.5-39.5q-35.5-15.5-80.5-15.5a271.75 271.75 0 0 0 -36.5 2.5 219.44 219.44 0 0 0 -33.5 7q-15 4.5-24.5 10.5t-9.5 13q0 6 6 12a253.84 253.84 0 0 0 28 33l33 33 70 64q27 25 52 25a56.21 56.21 0 0 0 27-7 110.55 110.55 0 0 0 24-17.5 271.28 271.28 0 0 0 21-22.5q10-12 18-23 16-19 16-29zm-553-1529q0-81-40-118t-102-37q-118 0-259 85a703.78 703.78 0 0 0 -125.5 97 764.38 764.38 0 0 0 -101.5 122q-88 133-88 256 0 78 42 120.5t121 42.5q114 0 246-85a727.13 727.13 0 0 0 120-97.5 827.14 827.14 0 0 0 99-121.5q88-133 88-264zm1454 1695q0 53-45 101t-99 48q-84 0-108-89-18-70-57-70-16 0-37 23l-55 65q-102 120-212 120-53 0-98-16a135.34 135.34 0 0 0 -39-6l-60 7q-73 0-96-38-14-26-35-26l-47 8a109 109 0 0 1 -30.5-4.5 139.75 139.75 0 0 1 -29-12 95 95 0 0 1 -23-17.5q-9.49-10-12.5-21-10-35-25-45l-60-41q-18-12-43-12l-58 8q-59 0-111-44-52-43-52-97l8-71a204.24 204.24 0 0 0 -10.5-64 207.24 207.24 0 0 1 -10.5-65 292 292 0 0 1 9-71q24-209 214-282 21-7 21-21 0-15-100-73-50-28-98-53.5a835.64 835.64 0 0 0 -97-44 730.05 730.05 0 0 0 -98-29.5 455.36 455.36 0 0 0 -100-11 471.17 471.17 0 0 0 -62.5 4.5q-33.5 4.5-71 10t-79.5 10a836.54 836.54 0 0 1 -89 4.5q-81 0-145-21.5t-108.5-63.5q-44.5-42-68.5-104t-24-142a631.93 631.93 0 0 1 27-183.5q27-89.5 84-179.5 112-178 293-290 179-112 351-112 81 0 142.5 23.5a249.1 249.1 0 0 1 103.5 73.5q42 50 62.5 128t18.5 187l-3 153q-1 64 4 125.5a776.85 776.85 0 0 0 19 119.5 682 682 0 0 0 38 113 565.16 565.16 0 0 0 61 106q28 38 98.5 106.5t186.5 170.5q230 203 258 203 8 0 11.5-2.5a17.41 17.41 0 0 0 5.5-6.5 25.06 25.06 0 0 0 2.5-8.5 25.06 25.06 0 0 1 2.5-8.5q12-28 47-28a73.71 73.71 0 0 1 32.5 7.5 91.27 91.27 0 0 1 27.5 20.5 101.82 101.82 0 0 1 19 29.5 87.39 87.39 0 0 1 7 34.5q0 21-23 34-24 14-24 19 0 11 11 23.5t28 12.5q11 0 13.5-5.5l7.5-16.5q12-25 35-25a58.33 58.33 0 0 1 25.5 6 89.2 89.2 0 0 1 23 16 82.36 82.36 0 0 1 17 23 59.72 59.72 0 0 1 6.5 27q0 24-27 32-29 11-29 22 0 13 13.5 23t28.5 10q12 0 22-14 10-12 26-12a62 62 0 0 1 24 5 75.4 75.4 0 0 1 21.5 13.5 76.22 76.22 0 0 1 15.5 19 42.85 42.85 0 0 1 6 21.5q0 20-15 26-16 6-16 19 0 17 30 44a300.09 300.09 0 0 0 27 21.5q11 7.5 21 9.5l23 4 38-2q38-3 77 30 37 30 37 78z"/></svg>