<svg viewBox="0 0 2034.29 2206.14" xmlns="http://www.w3.org/2000/svg"><path d="m458.29 717q0-45 24-73.5t61-28.5q36 0 62 25t26 66q0 38-31 117-29 76-41 76-6 0-13.5-7a151.14 151.14 0 0 1 -16-18 302.48 302.48 0 0 1 -17.5-25.5q-9-14.5-18-28.5-10-16-16-26a113 113 0 0 1 -9-18q-3-8-5.5-22.5t-5.5-36.5zm-44 285a338.45 338.45 0 0 1 -73-7.5q-34-7.5-58.5-22t-38.5-34.5a75 75 0 0 1 -14-44q0-30 21-49.5t49-19.5q42 0 86 65 45 65 45 99 0 13-17 13zm843 23q0 96-153 96-118 0-118-25 0-6 6-16a260.8 260.8 0 0 1 15-22q9-12 20-25.5t22-25.5q32-38 63-51t55-13a102.3 102.3 0 0 1 32.5 5.5 87.81 87.81 0 0 1 29 16 83.67 83.67 0 0 1 20.5 26 74.12 74.12 0 0 1 8 34.5zm-717 242q20 0 36-15t16-38q0-17-16-30t-33-13q-20 0-34 17.5t-14 37.5a27.54 27.54 0 0 0 5 15.5 61.61 61.61 0 0 0 11.5 13 58.4 58.4 0 0 0 14.5 9q8 3.5 14 3.5zm1242 264-4 12q25 31 25 98 0 45-9.5 81.5t-27.5 63q-18 26.51-43.5 40.5t-57.5 14h-11l-121 253q-10 22-35 22l-11-1-74-23q-27-9-27-39 0-7 13.5-35.5t39.5-80.5l59-119q-38-7-66.5-19t-48.5-27q-40 103-73 139-30 34-68 34l-16-2q-53 24-84 24a284.72 284.72 0 0 1 -51.5-4.5q-24.51-4.5-43-15a85.33 85.33 0 0 1 -29.5-27q-11-16.5-11-40.5 0-42 25.5-65t57.5-23q32 0 82 21 48 19 70 41 19-11 35-41t33-77l14-38a150.71 150.71 0 0 1 -12-60q0-69 53-125 54-56 125-56 40 0 74.5 9t79.5 18q65-155 115.5-298.5t87.5-277.5q36-134 55-244t19-199q0-70-9.5-123.5t-27.5-91.5a245.29 245.29 0 0 0 -47.5-66.5 285.55 285.55 0 0 0 -66.5-49.5 352 352 0 0 0 -79.5-31 348 348 0 0 0 -87.5-11q-108 0-213.5 61.5t-195.5 173.5l-421 806q18 35 18 98 0 172-73 333 23 35 23 79 0 20-2.5 33.5t-9.5 21.5q-6 7-18.5 13a212.81 212.81 0 0 1 -28.5 11 316.79 316.79 0 0 1 -34 8.5 266.73 266.73 0 0 1 -34 4.5q-32 45-53.5 81t-34.5 66q-13 30-18 55a244.32 244.32 0 0 0 -5 48q0 22 11 52 29-7 77-47 46-39 72-39 33 0 33 35l-5 62q0 27 18 37t42.5 15q24.5 5 49 10.5t36.5 24.5l2 6q0 21-119 44-60 11-103 17t-70 5l-78-3a530.61 530.61 0 0 1 -144-25.5q-69-22.5-120-64.5a279.06 279.06 0 0 1 -43.5-45.5 294.78 294.78 0 0 1 -32.5-55q-14-30.49-24.5-69t-19.5-88.5q-5 3-14.5 5t-24.5 2l-16-4q-11-11-20-46-12-38-10-70l1-43-1-12v-11q0-38 8.5-81t25.5-91q33-95 51-112 18-18 56-18 28 0 33-15 7-28 87-111 81-84 178-131t192-47q38 0 79 11l417-797q94-128 222-206 129-78 267-78 203 0 310.5 129t107.5 378q0 191-66 456-16 67-37.5 135t-46 138.5q-24.51 70.5-50.5 144t-52 150.5z"/></svg>