<svg viewBox="0 0 2230 2023" xmlns="http://www.w3.org/2000/svg"><path d="m1825 1313q53 21 86 35.5t47 22.5q28 13 28 26 0 20-54 63l-14 10q-76 61-160.5 89t-177.5 28h-22q125 201 304 269l41 11q48 13 70 30t22 50a56.84 56.84 0 0 1 -8 29.5 82.91 82.91 0 0 1 -22 24 110.48 110.48 0 0 1 -32.5 16.5 127.26 127.26 0 0 1 -39.5 6q-29 0-64.5-10t-78.5-32q-86-45-164-123.5a1112.87 1112.87 0 0 1 -141-174.5 573.57 573.57 0 0 1 -49.5 109q-30.49 52-75.5 98-88 92-126 92-17 0-31-56a432.91 432.91 0 0 1 -11.5-53.5q-3.5-24.5-5.5-44.5-84 68-190 110-52 22-128 42t-178 29a457.42 457.42 0 0 1 -58 9.5 718.74 718.74 0 0 1 -75 3.5q-105 0-105-45l1-9q20-117 72.5-216a926.43 926.43 0 0 1 128.5-184q-69-28-143.5-66t-155.5-89q-81-51-143-98t-105-94q-10-11-22-23.5a238.22 238.22 0 0 1 -22-26.5 157.31 157.31 0 0 1 -16.5-29 77.25 77.25 0 0 1 -6.5-31q0-76 223-121 48-9 121-13t173-4h43l43 1q-118-147-184-356a1307.68 1307.68 0 0 1 -50-215 1582.21 1582.21 0 0 1 -16-228q0-43 4.5-70.5t13.5-43.5q9-16 23-22t33-6q47 0 172 54 63 28 134.5 67.5t153.5 94.5q162 108 275 249 40-203 139-350 99-148 153-148a57.72 57.72 0 0 1 22 4.5q11 4.5 24 18t28.5 37.5q15.5 24 35.5 63 20 38 38 86t36 106q35 115 56.5 223t26.5 206q165-74 356-74a680.25 680.25 0 0 1 90 6q23 2 35.5 6t18.5 9a21.28 21.28 0 0 1 7.5 12.5 90.09 90.09 0 0 1 1.5 17.5q0 29-23 90a468.9 468.9 0 0 1 -24 55q-13 25-26 48-49 89-90.5 153.5t-77.5 106.5q-69 78-164 139z"/></svg>