<svg viewBox="0 0 1840 2350" xmlns="http://www.w3.org/2000/svg"><path d="m750 2293h30l-14-45zm323-58 4-31-10-28-29 80q30-10 35-21zm-583 22-40-126-8 18 11 86q6 10 37 22zm332-2071q-63-12-63-58v-6a612.84 612.84 0 0 1 103-58.5 702.91 702.91 0 0 1 112-38.5q-96 63-152 161zm468 1295 4-17q0-24-29-24-37 0-67 39l-23 30q19 34 32 61t21 47zm-1053 6 57 127q23-48 42-83.5t35-61.5l-125-35q-18 0-18 15a83.88 83.88 0 0 0 9 38zm488 33q-68-3-127.5-8.5a1103.55 1103.55 0 0 1 -110.5-15.5q65 102 115 199 36-57 66.5-100t56.5-75zm68-1278q-14 32-24 73-75 10-133.5 27.5t-103.5 43.5a617.34 617.34 0 0 1 74-120.5 752.18 752.18 0 0 1 97-101.5q16 63 90 78zm318 1254-8-13a1335.88 1335.88 0 0 1 -144 25.5 1354.23 1354.23 0 0 1 -142 9.5q32 44 65 97t67 118q35-57 75-115.5t87-121.5zm-201-1311q38-61 99.5-110t132.5-75q119 0 226 33l-52 11-68 27q-106 42-189 73t-149 41zm-435 580q-5-35-6.5-59.5t-1.5-38.5q0-80 23-166 51-45 116-73.5t146-40.5l-15 109q-85 20-153.5 90t-108.5 179zm729 918q-23-50-38.5-82.5t-24.5-47.5a2810.42 2810.42 0 0 0 -160 242q22 45 44.5 98.5t47.5 118.5l69-143q18-59 33-105t29-81zm-882-3q58 126 91 198.5t41 94.5q28-61 55.5-115.5t56.5-102.5q-42-82-80-147.5t-73-113.5q-28 49-51 95a971.3 971.3 0 0 0 -40 91zm716 410q-21-59-44-117t-49-115q-38 68-74.5 143t-70.5 159l40 131q39-3 71-7t58-9q21-61 38.5-107t30.5-78zm-350 201q11-37 23.5-70t25.5-62q-28-84-62.5-168t-76.5-172q-30 53-58.5 111t-56.5 121q28 79 46 135t28 89q28 5 60.5 9t70.5 7zm84-736q-36 47-70.5 97t-66.5 104q34 70 68 150t69 171q32-75 68-146t74-138q-32-63-67.5-122.5t-74.5-115.5zm187-247q-141-42-250.5-132.5t-172.5-218.5q2-76 16.5-139.5t40-112q25.5-48.5 60.5-80.5a210.55 210.55 0 0 1 79-46l-1 32a648.91 648.91 0 0 0 4.5 105q6.5 52 15.5 105a1177.51 1177.51 0 0 0 30 128 1160.81 1160.81 0 0 0 45.5 127.5 1135.17 1135.17 0 0 0 60 121 1070.43 1070.43 0 0 0 72.5 110.5zm-133-821 13-107h32q112 0 230.5 27.5t239 82.5q120.5 55 241.5 137t240 191q-34 144-130 263-46-68-93.5-127.5a1379.35 1379.35 0 0 0 -210.5-212.5q-59-48-127-94-136-92-235-126a652.07 652.07 0 0 0 -99.5-25.5 592.41 592.41 0 0 0 -100.5-8.5zm59-181-30 2q8-35 22-63 96-6 177-30.5t155-52.5q74-28 144.5-50a485.49 485.49 0 0 1 145.5-22q160 94 249 242 90 148 92 326-109-90-223-155a1528 1528 0 0 0 -235-109q-121-44-237-66a1237 1237 0 0 0 -231-22zm702 879q-81 66-184 103.5t-231 45.5q-67-68-129-156.5a1292.09 1292.09 0 0 1 -186.5-397q-29.5-107.5-30.5-212.5 111 3 218 54t213 154q107 102 189 203t141 206zm-432 225q148 0 272-50a1951.93 1951.93 0 0 0 -112.5 209.5 2126.35 2126.35 0 0 0 -87.5 222.5q-38 115-59.5 208.5t-29.5 166.5l-8 82q0 18-27.5 36.5t-77 32.5q-49.5 14-117 23t-146.5 9q-85 0-149-8t-109-21.5q-45-13.5-72-32t-37-40.5a2085.2 2085.2 0 0 0 -41.5-253 2146.54 2146.54 0 0 0 -73.5-250q-45-125-97-232t-115-198q-68-70-68-144 0-99 114-183 112-85 303-129 8 28 18 56.5t23 57.5q-136 32-209 81.5t-73 104.5q0 91 171 156 86 32 189 48t226 16q30 0 67-2t82-5a825.11 825.11 0 0 0 124.5 29 811.32 811.32 0 0 0 119.5 9z"/></svg>