<svg viewBox="0 0 2014 2128" xmlns="http://www.w3.org/2000/svg"><path d="m1282 905q0-18-22-17-55 1-116 95-35 55-93.5 86a264 264 0 0 1 -125.5 31q-179 0-179-77l7-60a39.85 39.85 0 0 1 2-11.5q2-6.5 6-16.5 43-90 43-131t-26-41q-4 0-10 6a151.34 151.34 0 0 0 -13.5 16q-7.5 10-14.5 21.5a173 173 0 0 0 -12 23.5l-11 25q-6 17-23 33a86.45 86.45 0 0 0 -20 23.5 94.33 94.33 0 0 0 -10 26.5l-18 78-2 27q0 39 17.5 70.5t49 53.5q31.5 22 75 34t94.5 12q80 0 150-22t120-67q50-44 91-122 41-75 41-97zm-1101-457q16 0 26.5-10.5t10.5-27.5a36.39 36.39 0 0 0 -10.5-26q-10.5-11-26.5-11-17 0-27.5 11a36.39 36.39 0 0 0 -10.5 26q0 17 10.5 27.5t27.5 10.5zm1833 842q-2 12-12 30-72 72-182 72-92 0-154.5-62t-94.5-172l-20-69 4 56-6 120q-2 39 21 78.5t51.5 80.5q28.5 41 52.5 83.5t24 85.5q0 55-46 98.5t-121 74.5q-46 19-76.5 33.5t-46.5 23.5q-30 20-44 44 0 47-56 86-57 40-124 40-64 0-64-69 0-101 113-172 78-48 117-84t39-53q0-10-72-69l-31-25a87.55 87.55 0 0 0 -20.5-13.5q-11.5-5.5-26.5-11.5-15-5-28.5-11t-28-11.5a196.47 196.47 0 0 0 -71.5-12.5q-23 0-50.5 2t-61.5 7v658h-215v-628q-42 2-85 8a651.18 651.18 0 0 1 -90 6l-74-7-12 2h-12a531.78 531.78 0 0 1 -62.5-3.5q-29.5-3.49-58-8t-56-8.5a391.63 391.63 0 0 0 -56.5-4q-106 0-106 154 0 49 16 58 29 17 40.5 35t11.5 47q0 4-2 18t-8 37l-4 17q-6 53-49 53-49 0-77-23a425.38 425.38 0 0 1 -44-44.5 222.15 222.15 0 0 1 -33-52 257.4 257.4 0 0 1 -19-63q-6-34.5-3-78.5l6-110 3-38q5-71 27-108.5t62-47.5l33-8 63-28q-2-4-5-12a178.79 178.79 0 0 1 -6-20.5 315.16 315.16 0 0 1 -5.5-31.5 349.9 349.9 0 0 1 -2.5-45q0-102 22-177 11-38 33.5-84.5t57.5-102.5q16-25 35.5-65.5t42.5-98.5a135 135 0 0 0 8.5-26.5 115.56 115.56 0 0 0 2.5-22.5q0-22-11.5-31t-19.5-9q-14 0-25 13a237.56 237.56 0 0 0 -22.5 32.5q-11.5 19.5-25 42.5a221.13 221.13 0 0 1 -32.5 42.5 165.76 165.76 0 0 1 -45 32.5q-26 13-61 13a208.38 208.38 0 0 1 -53.5-6.5q-24.5-6.5-42.5-20.5a99.58 99.58 0 0 1 -28.5-35.5q-10.5-21.5-10.5-50.5 0-57 20-116l26-115 14.5-58s8.83-31.67 26.5-95q21-68 62-96l1-6 6-44q0-16 1-29.5a69.68 69.68 0 0 1 5.5-23.5 37.14 37.14 0 0 1 13.5-16q9-6 26-6 53 0 73 56 18-22 46-22h7q37 0 65.5 13.5t28.5 30.5l3 4 15 4q15 5 30.5 11a154.52 154.52 0 0 1 31.5 17l16 7a236.47 236.47 0 0 1 46 27 363.18 363.18 0 0 1 46 41q22 24 33.5 40t11.5 26q25 4 36 19.5a212.14 212.14 0 0 1 19 32.5 239.89 239.89 0 0 0 18.5 41.5 452.54 452.54 0 0 0 26.5 41.5 77.2 77.2 0 0 1 11 24q3 12 5 24.5t4 24.5a84.64 84.64 0 0 0 8 24v-522h215v795q82 9 90 9a256.41 256.41 0 0 0 40-3q19-3 38-7t38.5-7a273 273 0 0 1 41.5-3q67 0 79 72a236.07 236.07 0 0 1 92 53q59-64 164-64a242.4 242.4 0 0 1 88.5 16.5 273.59 273.59 0 0 1 78 46.5 304.07 304.07 0 0 1 61.5 71.5q26 41.5 41 92.5 26 85 48 119 12 17 31.5 30.5a252.83 252.83 0 0 0 45.5 24.5q23 11 29 22 9 10 9 22z"/></svg>