<svg viewBox="0 0 2328.1 2260" xmlns="http://www.w3.org/2000/svg"><path d="m1826.1 1207q0-15-27-36l-11-8q-71-44-82-44-27 14-85 119a633.76 633.76 0 0 1 -47 73q-28 38-65 83l4 1a365 365 0 0 1 88 45 560.5 560.5 0 0 1 75 63l41-98q48-116 90-163 19.01-19 19-35zm-215 463q9-13 33-84-32-38-100-80-66-42-101-48l-20 15q-26 19-39 28t-13 12l37 19a494.52 494.52 0 0 1 56 28.5q30 17.51 67 42.5 35 26 55.5 42t24.5 25zm-250-49-49-26a340.42 340.42 0 0 0 -71 23 240.93 240.93 0 0 0 -61 40q-53 48-53 107 0 49 41 46l30-1q16-1 23 12 7 21 13 32.5t14 17.5a39.2 39.2 0 0 0 18 7.5 164.73 164.73 0 0 0 24 1.5h27q48 0 48 37l-3 26q0 15 18.5 22.5t42.5 7.5q39 0 64-16 12-12 21.5-31a269.81 269.81 0 0 0 16.5-42 359.81 359.81 0 0 0 11-48 309.52 309.52 0 0 0 4-49 218.31 218.31 0 0 0 -1.5-25 168.36 168.36 0 0 0 -5.5-27q-46-38-78.5-60.5t-51.5-32.5zm525-977q0-142-78-264-38-60-76.5-103t-79.5-66a714.89 714.89 0 0 0 -196-81.5q-105-26.5-226-26.5-285 0-557 146-273 146-421 378-75 116-113 238t-38 253q0 224 105 366 107 143 284 143a316.67 316.67 0 0 0 77-9 282 282 0 0 0 70.5-28.5q34.5-19.5 70.5-49t77-71.5q103-104 193-135 88-31 233-33 57-1 99-3.5t70-7.5a411.89 411.89 0 0 0 108-36l29-42 25-44q18-32 37.5-60a356.33 356.33 0 0 1 40-48.5q20.51-20.51 42-32a93.15 93.15 0 0 1 44.5-11.5q23-26 62.5-81.5t97.5-142.5a452.11 452.11 0 0 0 15.5-73.5 608.37 608.37 0 0 0 4.5-74.5zm442-310q0 37-38 117-20 42-79 152t-159 290q-40 72-74 138t-60 128q11 25 11 48-2 45-36 93a692.7 692.7 0 0 0 -51.5 80q-22.5 41-41.5 84.5t-36.5 91q-17.5 47.51-35.5 99.5-12 35-23 56.5t-20 32.5q-16 20-45 34l1 10q-2 125-71 235a467.76 467.76 0 0 1 -80.5 98 518.63 518.63 0 0 1 -105.5 75q-119 64-240 64-118 0-195-34-78-34-78-89 0-62 76-62 32 0 42-26 5-13 8.5-51t3.5-101q1-168 67.5-263t181.5-129q2-21 17-39t41-36l49-35-38 6-107 3q-57 2-102.5 5.5t-79.5 14.5q-34 11-71 34t-75 61l-65 61q-78 75-159.5 111.5a422.39 422.39 0 0 1 -169.5 37.5q-101 1-191-40.5t-157-121q-67-79.5-105.5-193t-36.5-256.5q2-148 42.5-284t124.5-265q166-256 457-413 289-156 597-156 109 0 203.5 18.5t178.5 54.5q84 35 151 90.5t120 130.5q52 75 80.5 154.5t31.5 167.5l166-247q31-46 61-70t62-24a56 56 0 0 1 16.5 3 52.82 52.82 0 0 1 17.5 9.5q8 6.5 13.5 18t5.5 28.5zm-1209 585a74.71 74.71 0 0 0 7 32 92.49 92.49 0 0 0 18.5 26.5 90.49 90.49 0 0 0 27 18.5 78 78 0 0 0 32.5 7q63 0 121-49 61-52 61-110 0-32-28-51t-75-19q-57 0-111 47-52.99 46-53 98zm164-247q43 0 80.5 12.5t65 35a160.77 160.77 0 0 1 43 54q15.5 31.5 15.5 70.5 0 104-88 182-87 78-195 78-79 0-133-56-27-28-40-60.5a182.67 182.67 0 0 1 -13-68.5q0-97 82-172t183-75zm-849-51q0-51 42-93 43-42 100-42a104.11 104.11 0 0 1 39.5 7.5 101.56 101.56 0 0 1 54.5 52 91.56 91.56 0 0 1 8 38.5q0 51-47 96-48 45-102 45-23 0-40.5-9a92.9 92.9 0 0 1 -29.5-23.5 106.8 106.8 0 0 1 -18.5-33 115.38 115.38 0 0 1 -6.5-38.5zm-43 535q58 0 93 45 36 45 36 100a163.8 163.8 0 0 1 -7 48 120.68 120.68 0 0 1 -21.5 41 109.8 109.8 0 0 1 -36 29q-21.5 11-50.5 11a109.47 109.47 0 0 1 -50.5-12 119.36 119.36 0 0 1 -40-33 164.9 164.9 0 0 1 -26-48.5 178 178 0 0 1 -9.5-58.5q0-31 9-54t24.5-38a101.08 101.08 0 0 1 36-22.5 122.74 122.74 0 0 1 42.5-7.5zm29-352a101.19 101.19 0 0 1 42 9 111.68 111.68 0 0 1 58.5 61 116.12 116.12 0 0 1 8.5 44q0 58-38 100-39 44-89 44a108.72 108.72 0 0 1 -43-8.5 122.23 122.23 0 0 1 -36-23.5 104.72 104.72 0 0 1 -25-36.5q-9-21.5-9-48.5 0-53 39-97t92-44zm312-415q0-49 49-91 51-42 105-42 45 0 72 31.5t27 76.5a95.55 95.55 0 0 1 -12.5 48 119.71 119.71 0 0 1 -33.5 37.5q-21 15.5-49.5 24a206.94 206.94 0 0 1 -59.5 8.5q-40 0-69-26.5t-29-66.5z"/></svg>