<svg viewBox="0 0 2024 2081" xmlns="http://www.w3.org/2000/svg"><path d="m881 553-2 16q28 0 43.5-26t15.5-68q0-92-41-157-41-66-104-66l-23 4-41 19-22 6a94.51 94.51 0 0 1 -29.5-8.5 69.48 69.48 0 0 0 -30.5-6.5l-21 4q-51 24-61 24l-63-9q-73 0-73 105 0 83 43 150 41 68 108 68 42 0 42-66 0-51-23-114a112.08 112.08 0 0 1 -8-42q0-27 19-27 29 0 59 65a379.77 379.77 0 0 1 23 65 232.76 232.76 0 0 1 7 64l-2 37q0 12 21 12 36 0 58.5-20t22.5-58q0-28-11-74l-24-86q0-26 22-26 12 0 17 7 15 11 29 32t25 53q11 32 18.5 62.5a197.22 197.22 0 0 1 5.5 60.5zm49 431a296.34 296.34 0 0 0 -103 18q-49 17-49 42 0 28 18.5 47t41.5 19a208.28 208.28 0 0 0 56-7.5q27-7.5 56-14.5a305.37 305.37 0 0 0 32-9.5q12-4.5 12-20.5a80.16 80.16 0 0 0 -18-51.5q-18-22.5-46-22.5zm86 487 1 20q3 40-15.5 77.5t-53.5 73.5q-69 71-173 105a408.47 408.47 0 0 0 86 23 624.52 624.52 0 0 0 96 7q43-20 74.5-48.5a266.34 266.34 0 0 0 51.5-62.5 284.16 284.16 0 0 0 30-72 301.17 301.17 0 0 0 10-77v-16l-2-17q-26-1-52.5-4.5t-52.5-8.5zm21-270q0 8 5 20.5t17 27.5q11 16 20 27t15 18q12 14 26.5 19.5t37.5 5.5a156.53 156.53 0 0 0 32.5-3.5 109.9 109.9 0 0 0 29.5-10.5 64.09 64.09 0 0 0 21-17.5 39.32 39.32 0 0 0 8-24.5q0-43-40-77-39-33-79-33a152.11 152.11 0 0 0 -31.5 3.5 132.12 132.12 0 0 0 -30 10 81.3 81.3 0 0 0 -22.5 15.5q-9 9-9 19zm269 257q-28 8-54.5 14.5a425.43 425.43 0 0 1 -52.5 9.5l3 35q5 71-20 131a384.94 384.94 0 0 1 -70 110l50 5 50 5q119-50 119-184 0-67-25-126zm-8-414q0 31 40 71 38 40 72 40a95.72 95.72 0 0 0 53-15.5q24-15.49 24-44.5 0-37-39-67-40-32-79-32-29 0-50 13t-21 35zm219 521q0-74-49-164l-17-1q-11-2-28.5 5t-43.5 18q31 82 31 161 0 97-55 173l4-2a401.88 401.88 0 0 0 56.5-24.5q27.5-14.5 52.5-40.5 49-54 49-125zm-892-647v-219q-13 3-24 5a117.74 117.74 0 0 1 -21 2q-35 0-71-12v280a357.65 357.65 0 0 0 59.5-26.5q27.5-15.5 56.5-29.5zm230 699q85-61 85-126l-6-30-4-5a419.27 419.27 0 0 0 -90.5-12q-45.5-1-94.5-2l-4 22q0 52 38 102 38 51 76 51zm-192-153 3-26q-69-6-112-29-26 32-26 92 0 57 24.5 111t62.5 91l19 2q4 0 16-3t34-8q40-10 86-29a230.48 230.48 0 0 1 -42.5-38.5 253.13 253.13 0 0 1 -33.5-49.5 312.67 312.67 0 0 1 -22.5-56 201.86 201.86 0 0 1 -8.5-57zm40-765v194q9-2 28.5-3t49.5-1h23l22-2v-217q-46 29-123 29zm-59 423a100.76 100.76 0 0 0 -33 5.5 108.49 108.49 0 0 0 -29.5 15.5 75.65 75.65 0 0 0 -21.5 24.5 64.2 64.2 0 0 0 -8 31.5q0 24 48 53 49 29 93 29a71.53 71.53 0 0 0 29.5-6.5 105.52 105.52 0 0 0 26.5-17 84.29 84.29 0 0 0 19-23.5 56.21 56.21 0 0 0 7-27q0-31-41-58a160.27 160.27 0 0 0 -90-27zm579 744h-13q-34 0-60-5.5t-46-5.5l-7 2a730.09 730.09 0 0 0 -75 11 422.42 422.42 0 0 1 -81 8q-115 0-257-59-27-11-61-14.5t-73-6q-39-2.51-80.5-7a392.4 392.4 0 0 1 -82-18 315.66 315.66 0 0 1 -78.5-39.5q-38-26-70-71a186.2 186.2 0 0 1 -20.5-35.5q-7.5-17.51-13-33t-9-27.5q-3.5-12-8.5-19l-13-19q-26-27-41.5-47t-23.5-34q-12 38-12 74 0 124 125 231 123 108 336 170 210 61 450 61 124 0 237-15.5a1428.2 1428.2 0 0 0 219-47.5q106-32 189-74t145-97q123-108 123-228 0-26-6-47a207.45 207.45 0 0 1 -79 87q-21 71-89 126-69 53-153 61l-48 10-29 17q-47 39-81 57-32 17-83.5 26t-130.5 9zm357-462-11 1h-11a351.38 351.38 0 0 1 29 80 363.43 363.43 0 0 1 9 80 314.32 314.32 0 0 1 -3 43.5 177.46 177.46 0 0 1 -11 41.5 466.55 466.55 0 0 0 48.5-11q20.51-6 32.5-14a275.82 275.82 0 0 0 26.5-20.5 206.33 206.33 0 0 0 26.5-27.5 199.44 199.44 0 0 0 20.5-31q8.51-16 10.5-31-8-18-27-35.5t-51-37.5q-63-38-89-38zm94-48q98 49 133 105a48 48 0 0 0 15-16.5 166.53 166.53 0 0 0 10.5-22 121.29 121.29 0 0 0 6.5-22.5 105.12 105.12 0 0 0 2-18q0-38-26.5-68t-66.5-59l-31 47q-14 25-43 54zm-1484 0a104.52 104.52 0 0 0 10.5 46.5q10.5 21.5 30.5 43.5l24 27q8-152 107-229-20-13-31.5-29a260.93 260.93 0 0 0 -27.5-32 121.93 121.93 0 0 1 -22 27 170.73 170.73 0 0 1 -28 21q-30 18-46.5 53.5t-16.5 71.5zm262-73q-119 45-119 203a297.39 297.39 0 0 0 18.5 104q18.5 50 46.5 78 20 9 48 16a402.43 402.43 0 0 0 63 10q-61-99-61-193 0-81 40-134l11-15q-14-26-25.5-42.5t-21.5-26.5zm453-618v200q24-3 45.5-6t38.5-1l65 4a361.35 361.35 0 0 1 48 7q23 5 45 11t44 10.5a219 219 0 0 0 44 4.5q209 0 350 111a298 298 0 0 1 60 23.5 331.22 331.22 0 0 1 59 39.5 464.85 464.85 0 0 1 53 47 299.06 299.06 0 0 1 39 50q224 158 224 354 0 155-135 285-135 129-370 202a1584.35 1584.35 0 0 1 -243.5 55.5q-125.5 18.5-262.5 18.5-276 0-513-75-118-38-210-89t-156-115q-130-129-130-282a315.15 315.15 0 0 1 7.5-70 324 324 0 0 1 21.5-63.5 417.21 417.21 0 0 1 34-60q20-29.5 45-60.5 32-79 94-118 13-8 37-41 46-64 92-90.5a242.67 242.67 0 0 1 100-31.5v-342q-100-100-100-253 0-43 12.5-80.5t35-65a164 164 0 0 1 53-43q30.5-15.5 67.5-15.5a223.77 223.77 0 0 1 30.5 2q14.5 2 28.5 5 26-11 46-18t36-7h7q19 0 56 10 42-25 90-25 58 0 106 28a210.27 210.27 0 0 1 76 75 287.58 287.58 0 0 0 51.5-10 274.69 274.69 0 0 0 44.5-17.5 404.24 404.24 0 0 0 41.5-24q20.5-13.5 43.5-27.5a317.16 317.16 0 0 1 97-42.5q53-13.5 102-26.5 56-14 112.5-24l113-20 113.5-20.5q113.51-20.5 114-24.5 36-9 63-14t44-5q45 0 77 18.5t32 55.5q0 49-60 59l-197 35-123 20q-119 18-208.5 43.5t-149.5 61.5q-25 14-56.5 37.5t-69.5 55.5q-41 34-71.5 56.5t-51.5 35.5q0 74-33.5 123.5t-98.5 63.5z"/></svg>