<svg viewBox="0 0 2354 2203" xmlns="http://www.w3.org/2000/svg"><path d="m487 982q70 0 127-10.5t97.5-30q40.5-19.5 63-47t22.5-60.5q0-56-84-92-87-35-215-35-140 0-225 41-84 41-84 108 0 58 86 92 87 34 212 34zm795-348q-24 0-40 18t-16 41q0 28 17.5 44t42.5 16q25 0 42.5-17t17.5-43q0-28-19-43.5t-45-15.5zm128-242q-25 0-43 18.5t-18 43.5q0 28 19 44.5t42 16.5q28 0 45.5-17.5t17.5-43.5q0-26-18.5-44t-44.5-18zm-302 837q0-32-21.5-52t-51.5-20q-32 0-52 20t-20 52q0 30 20 51.5t52 21.5q30 0 51.5-21.5t21.5-51.5zm-8-276q0 29 20 48.5t49 19.5q29 0 49.5-19.5t20.5-48.5q0-29-20.5-49.5t-49.5-20.5q-29 0-49.5 20.5t-19.5 49.5zm1254-432q0 28-19 46t-46 18q-20 0-29-4l-256-62q-44-9-47-53 0-5-4-5-56-18-99-50t-77-79l-25-34-11 20q-31 49-119 290-8 24-29.5 78t-59.5 148l-172 432q-68 171-127.5 318t-113.5 273q-36 84-88.5 148.5t-118 108.5a512.48 512.48 0 0 1 -142 66.5q-76.5 22.5-160.5 22.5-242 0-379-153-138-155-138-420 0-88 30-241 15-76 22-126t7-75q0-37-11.5-66.5a286.45 286.45 0 0 0 -28.5-55 583.6 583.6 0 0 0 -36.5-49q-19.5-23.5-36.5-48a281.8 281.8 0 0 1 -28.5-52q-11.5-27.5-11.5-61.5 0-61 35-113t101-89.5q66-37.5 160.5-58.5t213.5-21q203 0 328 71 125 70 125 185 0 30-14.5 70.5t-34.5 94.5l-15 40-25 101-59 252 73-128-4-31q0-49 27.5-87a155.69 155.69 0 0 1 71.5-55l47-85q-8-20-8-49a144 144 0 0 1 9-51 151.88 151.88 0 0 1 24.5-43 142.43 142.43 0 0 1 37-32 162.46 162.46 0 0 1 46.5-19l26-46q-19-38-19-69a131.83 131.83 0 0 1 10.5-52.5 134.18 134.18 0 0 1 28.5-42.5 141.26 141.26 0 0 1 42.5-29 153.86 153.86 0 0 1 52.5-13l14-24q-23-37-23-78a145.48 145.48 0 0 1 10.5-55 133.61 133.61 0 0 1 29.5-45 141.47 141.47 0 0 1 44.5-30 136.18 136.18 0 0 1 54.5-11l6 1 102-183q22-39 46-64.5t50.5-40a198.3 198.3 0 0 1 56-20.5 313.18 313.18 0 0 1 62.5-6 228.24 228.24 0 0 1 65.5 10 261.27 261.27 0 0 1 64.5 29.5 292.84 292.84 0 0 1 57 47 262.77 262.77 0 0 1 44 63.5q23 45 35 71.5t17 35.5a124.11 124.11 0 0 0 11 15q6 7 14 15 27-15 40-15 14 0 30 8l119 64q46 32 69 86a49.47 49.47 0 0 0 6.5 11 102.5 102.5 0 0 0 9.5 11q39 31 39 69z"/></svg>