<svg viewBox="0 0 2262 2332" xmlns="http://www.w3.org/2000/svg"><path d="m1024 1029 306-329 253 238-306 331zm669-94 275-297a100 100 0 0 0 7.5-14 33.39 33.39 0 0 0 2.5-13 38.41 38.41 0 0 0 -11-27.5 35.89 35.89 0 0 0 -27-11.5q-18 0-30 13l-274 295-253-239 259-278q11-16 11-27 0-16-11.5-28a37.9 37.9 0 0 0 -28.5-12 39.52 39.52 0 0 0 -29 12l-258 279-181-171a39.65 39.65 0 0 0 -11.5-8 34.19 34.19 0 0 0 -14.5-3q-17 0-28 12.5a41.94 41.94 0 0 0 -11 28.5q0 10 3 16a47 47 0 0 0 9 12l181 171-305 329-167-157q-16-11-29-11a35.89 35.89 0 0 0 -27 11.5 38.41 38.41 0 0 0 -11 27.5q0 17 12 28l168 159-70 75a353.94 353.94 0 0 0 22 38q12 18 21 32l83-90 253 239-69 74a177.52 177.52 0 0 1 10 19 111.41 111.41 0 0 0 9 16.5 69.67 69.67 0 0 0 12.5 14q7.5 6.49 20.5 10.5l75-81 137 130q14 4 25 8a116.9 116.9 0 0 1 21.5 10.5 129.35 129.35 0 0 1 21 16.5 210.71 210.71 0 0 1 22.5 26q30-10 30-37a39.52 39.52 0 0 0 -12-29l-192-182 305-330 178 169q10 9 26 9 17 0 28.5-11.5t11.5-26.5q0-17-13-29zm-141 959q-36-58-60.5-112.5a1180.89 1180.89 0 0 0 -56.5-109.5q-32-54-83.5-76t-129.5-26a226.75 226.75 0 0 0 -26.5-.5 220.56 220.56 0 0 1 -29.5-1 153.82 153.82 0 0 1 -28.5-5.5 60.23 60.23 0 0 1 -23.5-13 47.63 47.63 0 0 1 -12-15.5 158.78 158.78 0 0 0 -9-16.5 467.87 467.87 0 0 1 -24-46.5q-11-24.49-24-48a307.35 307.35 0 0 0 -29.5-44 117.82 117.82 0 0 0 -41.5-32.5q-29-15-55-28.5a304.5 304.5 0 0 0 -58-22.5q-29-8-43-21.5a90.93 90.93 0 0 1 -21-30 252.29 252.29 0 0 1 -12-36 169.45 169.45 0 0 0 -16-39.5q-11-21-21.5-41.5t-22-39.5q-11.5-19-25-37a231.17 231.17 0 0 0 -31.5-34q-12-11-26.5-25.5t-32.5-14.5q-10 0-10 11a28.81 28.81 0 0 0 2.5 11q2.5 6 5.5 14 15 26 22.5 66.5a760 760 0 0 1 10.5 78.5q0 4 .5 21.5t2 42q1.5 24.49 4 52t6 51q3.5 23.51 9 39.5t13.5 18q18 4 38 7.5t40 9a270.1 270.1 0 0 1 38 13.5 131.78 131.78 0 0 1 33 21q21 19 32 48.5a399.79 399.79 0 0 1 17.5 62.5q6.5 33 12 66.5t16.5 60.5a25.83 25.83 0 0 1 3.5 11.5 25.83 25.83 0 0 0 3.5 11.5 26.8 26.8 0 0 0 11.5 12 64.45 64.45 0 0 0 16.5 6 166.36 166.36 0 0 0 18.5 3q9.5 1 17.5 2 38 0 81 2.5a375.82 375.82 0 0 1 84 14.5 92.6 92.6 0 0 0 20 2q11 0 19 9a31.58 31.58 0 0 1 8 18 86.85 86.85 0 0 0 5 21 507.76 507.76 0 0 0 18 85.5q13 43.5 29 83.5a139.66 139.66 0 0 1 7 20 142.64 142.64 0 0 0 7.5 21 56.51 56.51 0 0 0 11.5 17q7 7 18 7 26 0 57.5-1a438.58 438.58 0 0 0 60.5-6q15-2 30.5-5.5a138.36 138.36 0 0 1 30.5-3.5 50.81 50.81 0 0 1 23 5 137 137 0 0 1 19 11.5 154.72 154.72 0 0 0 18.5 11.5 43.39 43.39 0 0 0 20.5 5 58.31 58.31 0 0 0 25.5-5.5 86.35 86.35 0 0 0 20-13 62.4 62.4 0 0 0 13.5-16.5q5-9 5-17 0-11-6-22.5a150.66 150.66 0 0 0 -14.5-22.5q-8.51-11-17.5-22a229.42 229.42 0 0 1 -16-22zm-420 160q1-3 1-12 0-3-2-16t-4.5-27.5q-2.5-14.5-5.5-27.5t-4-17q-5-25-9-55t-20-49q-15-16-38.5-25a284.76 284.76 0 0 0 -51-14q-27.5-5-57.5-8t-57-8q-33-6-47-17a61.73 61.73 0 0 1 -20-26.5 149.45 149.45 0 0 1 -8.5-34.5 195.88 195.88 0 0 0 -10.5-41 396.91 396.91 0 0 1 -13.5-39.5l-11-39-12-39q-12-39-16.5-38.5t-27-28q-22.5-28.5-37.5-14t-41.5-8q-26.5-22.5-39-9-21-7-27.5-24a177 177 0 0 1 -9.5-37q-3-20-7-37.5a303.29 303.29 0 0 1 -6-37.5q-3-45-5.5-85.5t-9.5-85.5q-1-7-2.5-24t-4.5-37.5q-3-20.51-7-42.5a231.08 231.08 0 0 0 -11-40.5q-7-18.5-16.5-30t-22.5-11.5a34.13 34.13 0 0 0 -17.5 5 93.19 93.19 0 0 0 -16.5 12.5q-8 7.5-15.5 16t-13.5 14.5a774.41 774.41 0 0 0 -59 66q-27 34-56 68-25 29-53 60.5t-52 61.5q-24 30-39.5 57t-15.5 48q0 15 8.5 33.5a216.15 216.15 0 0 0 22 37q13.5 18.49 28.5 37t29 34.5a2033.19 2033.19 0 0 0 181.5 193q96.5 90 191.5 180 31 30 62 63t62.5 66q31.5 33 64 63.5a619.26 619.26 0 0 0 66.5 54.5q12 9 26 20t28.5 21a203.94 203.94 0 0 0 29.5 17q15 7 29 7a86.67 86.67 0 0 0 41-10 171.25 171.25 0 0 0 35.5-25 292.6 292.6 0 0 0 31-33q14.51-18 27.5-34 9-11 19.5-23.5t15.5-24.5zm306-2034 803 760q21 20 21 48t-18 47q-137 145-273.5 287.5t-273.5 288.5q-40 42-78.5 86a986.56 986.56 0 0 1 -80.5 82q18 35 34 65t31 58.5q15 28.5 29 56t29 56.5q8 17 20 38t23 41.5q11 20.51 19 39t8 28.5q0 12-6 26.5a179.64 179.64 0 0 1 -15 28.5 220.6 220.6 0 0 1 -19.5 26 225.67 225.67 0 0 1 -19.5 20 136.5 136.5 0 0 1 -27 18 165.31 165.31 0 0 0 -28 18 309.39 309.39 0 0 1 -28 18.5 55.1 55.1 0 0 1 -28 7.5q-20 0-33.5-8.5a202.89 202.89 0 0 1 -25.5-19 245.3 245.3 0 0 0 -25.5-19.5q-13.5-9-34.5-9a162.07 162.07 0 0 0 -18 1 98.7 98.7 0 0 0 -16 3 596.65 596.65 0 0 1 -60.5 6.5q-28.5 1.5-68.5 1.5-14 0-28-1a137.32 137.32 0 0 1 -28-5q-4 1-12.5 10.5t-18 21q-9.49 11.51-17 21.5t-9.5 12a259.27 259.27 0 0 0 -26 28 352 352 0 0 1 -26 29q-15 15-30 31.5a338.44 338.44 0 0 1 -31.5 30.5 183.88 183.88 0 0 1 -35 23.5q-18.5 9.5-42.5 9.5-12 0-20.5-3a115.16 115.16 0 0 1 -17.5-8q-35-19-63.5-37.5t-54-38.5q-25.5-20-49.5-42t-50-49q-69-70-142.5-135.5t-147-131.5q-73.5-66-143.5-135.5a1684.36 1684.36 0 0 1 -132-147.5q-19-24-45.5-54t-50.5-60.5a631.64 631.64 0 0 1 -41-58q-17-27.5-17-46.5a58.55 58.55 0 0 1 8.5-31q8.5-14 21.5-35a702.24 702.24 0 0 1 48-65.5q26-31.5 53-62.5t54.5-62q27.5-31 51.5-64a508.08 508.08 0 0 1 58.5-67.5q32.5-31.5 66.5-59.5 16-14 32.5-31.5a441.79 441.79 0 0 1 34-32.5 194.29 194.29 0 0 1 38-25.5q20.5-10.5 45.5-10.5 14 0 27.5 1t27.5 3l8-8q99-100 195-201t190.5-203q94.5-102 190-204t193.5-204q21-22 48-22 26 0 46 20z"/></svg>