<svg viewBox="0 0 1907.29 1896" xmlns="http://www.w3.org/2000/svg"><path d="m775.29 1587q0-24 17.5-36a66.61 66.61 0 0 1 38.5-12q44 0 82 33 39 33 39 74 0 45-58 45-46 0-82-32-37-31-37-72zm-414-89q0-20 13.5-34t35.5-14q44 0 82 32 37 30 37 68 0 45-56 45-42 0-78-31-34-31-34-66zm119-182q0-28 16.5-42.5t44.5-14.5q54 0 95 38t41 81q0 50-65 50a144.27 144.27 0 0 1 -49.5-8.5q-23.5-8.51-43.5-28.5-39-37-39-75zm877 279q-20 0-35.5-15t-15.5-49a111.87 111.87 0 0 1 7.5-40.5 115.38 115.38 0 0 1 20.5-34.5 109 109 0 0 1 29-24 66.45 66.45 0 0 1 33-9q28 0 40 21a87.43 87.43 0 0 1 12 44 108 108 0 0 1 -7.5 40 123.57 123.57 0 0 1 -20 34 99.75 99.75 0 0 1 -29 24 71.07 71.07 0 0 1 -34.5 9zm321-298q-20 0-34.5-14.5t-14.5-47.5a101.17 101.17 0 0 1 7-37 123.91 123.91 0 0 1 18-32 95 95 0 0 1 26-23 61.15 61.15 0 0 1 32-9q25 0 38 18.5a70.53 70.53 0 0 1 13 41.5 112.15 112.15 0 0 1 -7 39 107 107 0 0 1 -19 33 98.48 98.48 0 0 1 -27.5 22.5 64.84 64.84 0 0 1 -31.5 8.5zm-74-406q-23 0-41-17.5t-18-55.5q0-43 33-81 34-37 69-37 15 0 26 6.5a60.06 60.06 0 0 1 18.5 17 81.23 81.23 0 0 1 11.5 23.5 88.22 88.22 0 0 1 4 26 119.18 119.18 0 0 1 -9 46.5 130.3 130.3 0 0 1 -23.5 37.5 108.2 108.2 0 0 1 -33 25 85 85 0 0 1 -37.5 9zm-353 325q-20 0-39.5-16.5t-19.5-54.5q0-41 32-81 29-38 70-38 16 0 27 7a66.24 66.24 0 0 1 18.5 17.5 73.42 73.42 0 0 1 11 23 90.73 90.73 0 0 1 3.5 24.5 119.18 119.18 0 0 1 -9 46.5 124.66 124.66 0 0 1 -24 37.5 114.33 114.33 0 0 1 -33.5 25q-18.51 9-36.5 9zm-544-38q0-30 20.5-46.5t49.5-16.5q45 0 87 34 41 35 41 81 0 32-22 46.5t-52 14.5q-50 0-87-37-37-36-37-76zm-467-106q0-29 20.5-46.5t48.5-17.5q49 0 90 36 40 35 40 80 0 32-23 47t-53 15q-47 0-86-36-37-34-37-78zm430-578q0-84 75-138 77-56 185-56 99 0 157 49 59 50 59 112 0 77-81 129-78 50-183 50-87 0-151-39-61-39-61-107zm1160 651q0-86-7.5-164t-7.5-160q0-74-7.5-125t-21.5-82.5q-14-31.5-35-45.5t-48-14q-24 0-51.5 13.5t-60.5 39.5l-271 215q-74 59-121 102.5t-65 78.5q-36 65-36 182 0 74 30 236 38 207 40 211 39 144 100 144l11-2q31-4 65.5-20.5t72.5-42.5q38-26 89.5-71t116.5-111q58-57 93-93.5t46-52.5a454.48 454.48 0 0 0 39-70 298.53 298.53 0 0 0 23-82 636.19 636.19 0 0 0 6-86zm-755 588-6-68-7-59q-2-22-4-42.5t-6-40.5l-17-81-16-112q-18-121-50-190t-86-88q-68-24-207.5-61t-354.5-91q-47-11-81.5-17t-58.5-6q-40 0-56.5 23.5a87.71 87.71 0 0 0 -16.5 51.5q0 20 10 56t29 89q8 22 18 63.5t27 102.5l47 158q22 74 59.5 132.5t104.5 93.5q23 12 64.5 25.5t103.5 30.5q62 17 115 29.5t100 21.5q94 18 157 30.5t77 8.5q28 0 43-10t12-50zm-925-1068q0 53 45 83 43 30 190 74 73 22 148 42t155 39q79 18 135.5 27.5t91.5 9.5q75 0 117-17 45-17 111-64 35-24 94-72.5t144-120.5q171-145 190-169a221.22 221.22 0 0 0 33.5-53.5 128.6 128.6 0 0 0 10.5-60.5q-3-67-55.5-115.5t-163.5-91.5q-37-14-80-26t-91-23q-48-11-86.5-18t-67.5-11a1098.84 1098.84 0 0 0 -117-6q-187 0-336 83-74 42-150.5 101t-157.5 138q-160 159-160 251zm1757 418q0 86-10 154t-29 119q-34 91-154 202l-177 164q-94 88-180 131t-167 43q-38 0-86.5-6t-109.5-17l-194-37q-37-7-79-17.5t-85-22.5q-43-12-86-25.5t-81-26.5q-38-13-70-25t-57-24q-53-24-100-94-48-72-88-180l-97-265q-57-156-57-287-1-36 1.5-72t7.5-72q26-196 241-387 109-97 198-163.5t160-102.5q144-72 292-72 75 0 169 14t210 41q116 27 204 60.5t151 75.5q126 85 188 217 30 66 48.5 151t23.5 191q5 105 8.5 187.5t4.5 145.5z"/></svg>