<svg viewBox="0 0 2362.05 2329" xmlns="http://www.w3.org/2000/svg"><path d="m1349.05 2242 47-3q-84-21-130-61-46-42-71.5-109a423.5 423.5 0 0 1 -27.5-140q-1-76 28.5-142t79-114.5a360 360 0 0 1 114-75.5 329.8 329.8 0 0 1 133.5-26q49 2 90 13l48-55a386.42 386.42 0 0 0 -47.5-44 371.85 371.85 0 0 0 -52.5-34q-11-6-60-15-24-4-44-6t-36-2q-116 0-220 67-102 66-164 179-60 113-60 235 0 82 24 146t71 107.5q47 43.5 116.5 64t161.5 15.5zm914-1409q0-169-49-285-49-113-142-209-94-95-220.5-158t-273.5-80q211 98 308 242 95 143 95 365 0 63-12.5 119a769.88 769.88 0 0 1 -31.5 106 856.84 856.84 0 0 1 -41.5 93q-22.5 43-41.5 79.5t-31.5 66q-12.49 29.51-12.5 52.5l4 27q13 31 103 80 91 49 138 49 26 0 42-8.5a56.33 56.33 0 0 0 24-23.5q70-130 106-258t36-257zm-1518 302q0-33-10-61a148 148 0 0 0 -28-48.5 127.41 127.41 0 0 0 -43-32q-25-11.5-56-11.5-89 0-166 82-76 82-76 176 0 30 10.5 55.5a129.46 129.46 0 0 0 29.5 44 137.67 137.67 0 0 0 45 29 148.15 148.15 0 0 0 56 10.5q85 0 161-76 77.01-75 77-168zm-658 41 4 23 1-11a507.56 507.56 0 0 1 30.5-114.5q22.5-57.49 64.5-116.5 82-118 188-177t248-59a254.26 254.26 0 0 0 -68.5-24.5 438 438 0 0 0 -77.5-8.5q-78-3-150.5 30.5a423 423 0 0 0 -128 91q-55.5 57.5-89 132.5t-31.5 156a459.84 459.84 0 0 0 9 78zm2275-343q0 280-155 563a128.6 128.6 0 0 1 -30 38.5 185.06 185.06 0 0 1 -38 25.5 156.23 156.23 0 0 1 -41.5 14 231.66 231.66 0 0 1 -42.5 4 243 243 0 0 1 -32-2 141.73 141.73 0 0 1 -29-7 1339.74 1339.74 0 0 1 -68 121.5q-38 60.49-83 123.5 10 53 10 94 0 134-67 255a513.32 513.32 0 0 1 -184 190q-116 71-253 71l-5-1q-15 6-71 6-139 0-262-63-122-63-190-170t-68-247a603.18 603.18 0 0 1 19-151.5q19-73.5 57-145.5 77-142 210-224 132-83 287-83 128 0 234 58 109 60 152 156 43-66 61-106-61-48-61-129 0-31 12.5-66a766.15 766.15 0 0 1 31-73.5q18.51-38.51 40.5-80.5t40.5-87.5a737.21 737.21 0 0 0 31-94 400.73 400.73 0 0 0 12.5-100.5q0-155-120-271-121-115-292-115-155 0-298 86a526.27 526.27 0 0 0 -67.5 50q-33.49 29-69.5 67l-67 69q-11 9-20 17.5a122.27 122.27 0 0 1 -20.5 15.5 101.61 101.61 0 0 1 -26 11q-14.49 4-35.5 4h-14l-14-2a391.26 391.26 0 0 0 -35.5 40.5 199.24 199.24 0 0 0 -24.5 41.5 123.53 123.53 0 0 1 15.5 16.5 55.65 55.65 0 0 0 16.5 14.5q46 24 79.5 58a303.78 303.78 0 0 1 54.5 75 354.2 354.2 0 0 1 31 87.5 452.72 452.72 0 0 1 10 95.5q0 174-100 301t-200.5 185.5q-100.5 58.5-203.5 58.5-119 0-219-54-49-26-85.5-62a219.59 219.59 0 0 1 -53.5-84 392.26 392.26 0 0 1 -56-75.5 458.9 458.9 0 0 1 -37-83 518.87 518.87 0 0 1 -20.5-86.5 699.8 699.8 0 0 1 -7.5-85 444.37 444.37 0 0 1 16.5-128 482.48 482.48 0 0 1 50-116.5 527.44 527.44 0 0 1 175.5-178 449.45 449.45 0 0 1 113-49.5 420.34 420.34 0 0 1 122-16 579.32 579.32 0 0 1 71 6.5 477.22 477.22 0 0 1 71 16.5q51-72 79-103-3-10-5-19.5a85.64 85.64 0 0 1 -2-17.5q0-66 104-175 105-106 211-172 107-66 232-106t270-40q153 0 309 61a922.37 922.37 0 0 1 150 74 988 988 0 0 1 132 97 913.87 913.87 0 0 1 111 117 667.62 667.62 0 0 1 82.5 134.5q33.51 72.5 51.5 159t18 190.5z"/></svg>