<svg viewBox="0 0 1530 2318" xmlns="http://www.w3.org/2000/svg"><path d="m778 1601q-120 1-226-35t-184.5-102q-78.5-66-123.5-159.5t-43-207.5q2-86 90-138a416.21 416.21 0 0 1 101-39.5q54-13.5 119-13.5a537.77 537.77 0 0 1 142.5 19q69.5 19 138 42.5t137.5 42.5a524.91 524.91 0 0 0 140 19q54 0 100-10a347 347 0 0 0 85-30 50.81 50.81 0 0 1 23-5q14 0 23.5 9a68.21 68.21 0 0 1 15.5 23 124.48 124.48 0 0 1 8.5 31 232.92 232.92 0 0 1 2.5 34q0 228-156 373-78 74-176.5 110t-216.5 37zm-449-1286q-212 436-212 806 0 183 82 316a468 468 0 0 0 102.5 116q60.5 49 139.5 83 80 35 160.5 51a826.3 826.3 0 0 0 161.5 16 862.08 862.08 0 0 0 111.5-7.5 853.19 853.19 0 0 0 118.5-24.5q124-35 220-107 98-73 149-186t51-257q0-91-14-190a1849.84 1849.84 0 0 0 -40.5-202 1989.25 1989.25 0 0 0 -66-207.5 2112.2 2112.2 0 0 0 -90.5-205.5q-65 49-179 74.5t-257 25.5q-143 0-257.5-25.5t-179.5-75.5zm56-105q10 15 42 31t81.5 29q49.5 13 114.5 21t143 8q78 0 144.5-8.5t116.5-22q50-13.5 81-30t38-31.5q-9-13-41.5-29t-82.5-29.5q-50-13.5-115-22t-141-8.5q-78 0-144 8.5t-116 21.5q-50 13-81.5 29.5t-39.5 32.5zm593 1964q-179-56-244-186-56 97-190 155l-70 30a1081.83 1081.83 0 0 0 108.5 20 819.61 819.61 0 0 0 106.5 7q90 0 161.5-6t127.5-20zm-145-357v74q0 29 10.5 53t34 45.5q23.5 21.49 62 41.5t94.5 40q145 54 145 117 0 57-144 93-72 18-157.5 27.5t-188.5 9.5q-78 0-146.5-10t-127.5-30q-116-39-116-100 0-54 141-119l66-30q70-32 106-70t35-85l-2-62q-158-25-278.5-82.5t-202-145.5q-81.5-88-123-204.5t-41.5-258.5a1573.75 1573.75 0 0 1 18.5-238q18.5-121 56.5-249 38-129 88.5-244a2148.59 2148.59 0 0 1 112.5-221q47-82 178-125 135-44 312-44 199 0 320 42.5t169 126.5a2265 2265 0 0 1 110.5 216q50.5 113 88.5 240 38 128 57 251a1602.34 1602.34 0 0 1 19 245q0 198-82 347-81 150-247 241a869.43 869.43 0 0 1 -175 72.5q-91 26.5-193 35.5z"/></svg>