<svg viewBox="0 0 2316 1881" xmlns="http://www.w3.org/2000/svg"><path d="m784 1558 375-238 375 238-107-432 338-281-441-35-165-406-167 406-441 35 338 281zm994 272a49.1 49.1 0 0 1 -15 36q-15 15-35 15-13 0-26-8l-543-345-545 345q-13 8-26 8-20 0-35-15a49.1 49.1 0 0 1 -15-36q0-5 156-640l-492-408q-17-13-17-38 0-20 12.5-33.5t32.5-15.5l640-52 242-588q14-32 47-32 31 0 45 32l242 588 640 52q20 2 32.5 15.5t12.5 33.5q0 25-17 38l-490 408q77 319 115.5 478t38.5 162zm538-270q0 22-34 83-17 30-35 56a380 380 0 0 1 -36 45q-18 19-35 30t-31 11q-20 0-33-14t-24-25q-71-72-141.5-142a1480.51 1480.51 0 0 1 -132.5-151q-8-11-8-22a37 37 0 0 1 4.5-17.5 56 56 0 0 1 11.5-15 72.7 72.7 0 0 1 15.5-11 35.21 35.21 0 0 1 16.5-4.5q8 0 29.5 4t56.5 12q35 8 65.5 16.5t57.5 18.5l34 8q45 11 83 23a567.75 567.75 0 0 1 70 27q66 32 66 68zm-577-1062q-18 0-33-16t-15-36q0-8 5-19t13-28l45-86 97-169q14-25 30.5-50.5a541.55 541.55 0 0 1 33.5-46.5q17-21 35-34t35-13a59.07 59.07 0 0 1 23.5 4.5 99.68 99.68 0 0 1 21 12.5 264.74 264.74 0 0 1 22.5 19.5q12 11.5 27 25.5 21 19 43 46.5a562.75 562.75 0 0 1 38.5 54q16.5 26.5 25 46t4.5 22.5q0 17-11 28-2 5-8 6l-201 118q-197 115-231 115zm-1277 885a35.21 35.21 0 0 1 16.5 4.5 72.7 72.7 0 0 1 15.5 11 56 56 0 0 1 11.5 15 37 37 0 0 1 4.5 17.5q0 11-8 22-31 40-63.5 77.5t-67.5 72.5l-167 169a46.88 46.88 0 0 1 -33 13q-27 0-68-44a325.57 325.57 0 0 1 -39-47.5 510.73 510.73 0 0 1 -34-58.5q-9-18-19.5-36a74.28 74.28 0 0 1 -10.5-38q0-34 47.5-60t141.5-51l63-16q25-7 55.5-15.5t68.5-17.5q76-18 86-18zm-338-1152q0-27 40-85a525.77 525.77 0 0 1 81-93 134.62 134.62 0 0 0 17.5-16.5 178.69 178.69 0 0 1 18-17.5 98.34 98.34 0 0 1 21-13.5 58.31 58.31 0 0 1 25.5-5.5q41 0 85 62 14 20 28.5 40a299 299 0 0 1 25.5 42l96 169 41 82q11 21 16.5 33.5t5.5 17.5a44 44 0 0 1 -4 18 59.49 59.49 0 0 1 -11 16.5 68.92 68.92 0 0 1 -15.5 12.5 34.13 34.13 0 0 1 -17.5 5l-15-3q-100-45-192-98t-187-108q-9-5-19.5-10.5a132.88 132.88 0 0 1 -19-12 68.45 68.45 0 0 1 -14.5-15q-6-8.5-6-20.5z"/></svg>