<svg viewBox="0 0 1976 1783" xmlns="http://www.w3.org/2000/svg"><path d="m685 892q0 125 89 214 45 44 98.5 66.5t116.5 22.5q63 0 115.5-22.5t97.5-66.5q89-89 89-214 0-126-89-215-45-44-97.5-66.5t-115.5-22.5q-63 0-116.5 22.5t-98.5 66.5q-89 89-89 215zm1036 0q0 236-143 439-140 202-390 329-246 123-513 123-103 0-199-20.5a834.88 834.88 0 0 1 -182-61 808 808 0 0 1 -160.5-100 767.78 767.78 0 0 1 -133.5-137.5q60 32 112 53t97 32a649.17 649.17 0 0 0 91 15.5q46 4.5 92 4.5 194 0 194-49 0-14-19-27a773 773 0 0 1 -129-114.5q-57-63.5-99-144.5a769.85 769.85 0 0 1 -63.5-166 715.13 715.13 0 0 1 -21.5-176q0-238 144-442t391-327q124-61 250.5-92a1086.06 1086.06 0 0 1 259.5-31q208 0 382 81t295 238a791.7 791.7 0 0 0 -94.5-44.5 907.73 907.73 0 0 0 -100.5-33 862 862 0 0 0 -101-20.5 692.26 692.26 0 0 0 -96-7q-91 0-142.5 13.5t-51.5 35.5q0 16 19 29a774.14 774.14 0 0 1 131 117.5 709.38 709.38 0 0 1 98 142 732.42 732.42 0 0 1 83 340.5z"/></svg>