<svg viewBox="0 0 2218 1129.16" xmlns="http://www.w3.org/2000/svg"><path d="m545 386.09q0-27-11.5-47.5t-37.5-34q-26-13.5-67-20t-101-6.5h-67q-156 0-156 198 0 93 70 93 23 0 30.5-15.5t18.5-40.5l9-33q5-32 17.5-42.5t40.5-10.5q28 0 46.5 1t29 5.5q10.5 4.5 14.5 13t4 22.5a197.25 197.25 0 0 1 -2.5 31.5 125.48 125.48 0 0 1 -8.5 29.5q-69 174-69 299a173.37 173.37 0 0 0 3 32 93 93 0 0 0 10 28.5 74.8 74.8 0 0 0 18 21.5q11 9 27 10h14l17-4q27-14 39.5-48.5t20.5-89.5l7-50 64-235 11-45q9-36 9-63zm169 724q0 17-28 17h-420q-100 0-128-39-69-96-103.5-218t-34.5-276q0-202 35.5-344.5t100.5-213.5q23-25 48.5-29.5a313.66 313.66 0 0 1 54.5-4.5h449q30 0 30 21a41 41 0 0 1 -2 13q-2 6-5 13l-10 25q-43 110-61 240.5t-18 279.5q0 81 6 154a1248.15 1248.15 0 0 0 19 139q12 65 27.5 113.5t32.5 80.5q3 8 5 14.5a49.25 49.25 0 0 1 2 14.5zm1394-725q0-117-175-117-63 0-109 2.5t-78 7.5q-24 4-38 25.5t-11 59.5l6 68q2 28 2.5 46.5t4.5 28.5q7 21 23 34t48 13q29 0 44.5-23t15.5-61a190.82 190.82 0 0 1 1.5-27q1.5-10 7.5-15t18-6.5q12-1.5 33-1.5 55 0 55 53l-6 38-11 40-22 95a515.33 515.33 0 0 1 -27.5 83q-17.51 41-39.5 83-10 23-10 43 0 48 58 48a73 73 0 0 0 25-4 66.05 66.05 0 0 0 21.5-13.5 172.68 172.68 0 0 0 22-25q11.51-15.51 26.5-38.5 30-47 46-107 8-29 18.5-71t24.5-96q26-109 26-162zm110 209a1129.7 1129.7 0 0 1 -18 201.5 770.49 770.49 0 0 1 -60 189.5q-20 45-38.5 73t-34.5 42q-33 27-78 27h-449q-41 0-41-24 0-13 5-22 84-199 84-487 0-260-63-469a508 508 0 0 0 -18-48 232.47 232.47 0 0 1 -15-49q0-10 5.5-15a35.81 35.81 0 0 1 13-7.5 62.83 62.83 0 0 1 16.5-3q9-.51 17-.5h469q78 0 141 162 64 161 64 430zm-833-201q0-63-44.5-93.5t-135.5-32.5l-171-4q-50-2-86.5 5t-62.5 19q-50 26-50 114 0 170 93 170 62 0 62-74 0-30 6-45.5t20-22q14-6.51 35.5-7t53.5-.5q83 0 83 42 0 43-39 142l-56 140q-12 29-26.5 58.5a137.67 137.67 0 0 0 -14.5 61.5q0 74 72 74 25 0 43.5-9.5a113.21 113.21 0 0 0 32.5-25 163 163 0 0 0 24-35q10-19.5 18-39.5l60-155q40-103 61.5-173t21.5-110zm125 201q0 226-51 394-24 79-35 98-12 20-29 32t-45 11l-41-2h-474q-34 0-52-38-45-100-66-223t-21-272q0-137 13.5-262t57.5-235l19-48q11-29 22.5-39.5t37.5-9.5l32 2h481q25 0 39.5 10t22.5 39q89 240.99 89 543z"/></svg>