<svg viewBox="0 0 1794 1643" xmlns="http://www.w3.org/2000/svg"><path d="m634 375q23 0 39.5 14t16.5 39q0 37-43 70-40 31-86 31-32 0-46-18.5t-14-35.5q0-40 45-70 46-30 88-30zm447 190-1-5-61-10a105.27 105.27 0 0 1 -43-11 178.86 178.86 0 0 1 -39-27l-24-24q-14-14-28.5-21.5a118.24 118.24 0 0 0 -27.5-10.5q-26-7-26-20 0-23 57-58 148-91 148-218 0-10-6-16l-20 16q-19 15-52.5 28.5t-81.5 27.5q-89 26-132 60-15 13-24 13-8 0-15-7a71.37 71.37 0 0 1 -12.5-17.5 84.87 84.87 0 0 1 -8-23.5 91.45 91.45 0 0 1 -1.5-25l3-34 2-59q2-29-11-29-8 0-18.5 7.5t-15.5 10.5q-96 61-132 233-11 44-67 46-84 5-118 21a167.32 167.32 0 0 0 -25.5 13.5 201.1 201.1 0 0 1 -23 13 147.61 147.61 0 0 1 -24 9 81.45 81.45 0 0 1 -27.5 2.5l-21-1q-16-2-16 11 0 28 55 58 28 16 54.5 23.5a142.54 142.54 0 0 0 54.5 4.5l23-3q18 0 18 15 0 10-5 22l-10 19-12 52q-13 53-23 91.5t-28 61.5q-9 13-26 26.5t-20 28.5q17 11 39 11 51 0 122-49 73-50 106-108 45-80 87-80 14 0 79 20 66 20 103 20 100 0 145-12a205.62 205.62 0 0 0 40-14.5 150.6 150.6 0 0 0 30-19.5l39-33a112.91 112.91 0 0 0 15.5-14.5 21.88 21.88 0 0 0 5.5-14.5zm713 196q0 234-148 452-74 109-168 190a915.72 915.72 0 0 1 -205.5 134q-111.5 53-239.5 79.5t-269 26.5q-356 0-560-207-204-205-204-573 0-217 125-414 125-198 340-323 216-126 449-126 145 0 307 41 159 40 291 145a816.38 816.38 0 0 1 117.5 115 702.3 702.3 0 0 1 89 136 717.88 717.88 0 0 1 56 154.5q19.5 81.5 19.5 169.5z"/></svg>