<svg viewBox="0 0 1984 2344" xmlns="http://www.w3.org/2000/svg"><path d="m1676 1429h-77v104h77zm-1382 104h77v-104h-77zm651-589h78v-103h-78zm939 807 100 593h-858v-254q0-20-12.5-32t-32.5-12h-179q-20 0-32 12t-12 32v254h-858l100-593v-89h67v-303q-13 0-16-9l-22-56-2-6 3-8 183-347v-323q0-21 20-21 8 0 15 7l206 84q11 3 11 16 0 12-11 18l-201 80v139l182 347 1 8-1 6-20 56a19.26 19.26 0 0 1 -17 9v359h58v-56h94v56h68v-134l-128-126v-293h94v64h80v-64h62v-394h-8q-9 0-15-11l-22-56-1-5 3-7 182-348v-324a19.19 19.19 0 0 1 6-14 19.19 19.19 0 0 1 14-6q9 0 14 6l208 84q12 5 12 18 0 12-12 16l-203 82v138l184 348 2 7-1 5-22 56q-6 11-16 11h-9v394h61v64h78v-64h94v293l-129 126v134h81v-56h95v56h50v-359q-13 0-16-9l-22-56-1-6 2-8 182-345v-325q0-8 6.5-14.5t14.5-6.5q6 0 13 7l208 84q11 3 11 16 0 12-11 18l-202 80v141l183 345 2 7-24 63q-1 9-16 9v303h82z"/></svg>