<svg viewBox="0 0 1812 2047" xmlns="http://www.w3.org/2000/svg"><path d="m734 429 7 32q0 10-11 13h-15l-18-2 3-21 10-56q1-10 9-10 3 0 5 5a72.71 72.71 0 0 1 3.5 12.5l3 15s1.17 3.83 3.5 11.5zm-421-100q0-22 5-27l3-4 25-4q13 0 22 8 8 13 8 26 0 20-12.5 27.5t-24.5 7.5q-26 0-26-34zm30 129a41.94 41.94 0 0 1 28.5 11q12.5 11 12.5 31 0 16-11.5 26t-23.5 10q-24 0-29.5-8.5t-5.5-25.5q0-16 1.5-25t5-13a15.17 15.17 0 0 1 9-5 76.78 76.78 0 0 1 13.5-1zm1238 602v-257h-212v257zm-382 0v-257h-212v257zm-762 0v-257h-212v257zm762 392v-257h-212v257zm-762 0v-257h-212v257zm1144 0v-257h-212v257zm-762 0v-257h-213v257zm0-392v-257h-213v257zm48-482a200.85 200.85 0 0 0 -4-40.5q-4-19.5-10-39t-12-38.5a372.33 372.33 0 0 1 -10-39q-30-155-53-186-21-30-61-30-41 0-65.5 39t-38.5 117l-11 60q-4 21-10 42t-12 41.5q-6 20.5-10.5 40a162.82 162.82 0 0 0 -4.5 36.5q0 48 50 48 23 0 34-6.5t16-16.5a67 67 0 0 0 6.5-21 76 76 0 0 1 6-21 38.18 38.18 0 0 1 14.5-16.5q10-6.5 31-6.5 16 0 24.5 6.5a39.68 39.68 0 0 1 12.5 15.5 133.19 133.19 0 0 1 7 20.5 87.67 87.67 0 0 0 8 20.5 44.15 44.15 0 0 0 15 15.5q10 6.5 29 6.5h10l7-1q31-11 31-47zm751 3v-11q-2-25-41-85-38-59-38-87 0-11 8-27t26-36q34-40 34-66 0-17-14-30.5t-31-13.5q-20 0-38.5 15t-27.5 32q-12 24-26.5 40.5t-22.5 16.5q-9 0-12-8.5t-4-21.5q-1-13-2-28.5a79.74 79.74 0 0 0 -7-28.5 52.16 52.16 0 0 0 -18.5-21.5q-12.5-8.5-35.5-8.5-36 0-43 36t-7 107v80l3 80-1 41q-1 29 10.5 50t52.5 21q52 0 49-45l-3-46a51.24 51.24 0 0 1 5.5-27q6.49-13 19.5-13 23 0 38 36 14 29 23.5 48.5t16.5 27.5q13 17 35 17a39.94 39.94 0 0 0 18-4.5 69.8 69.8 0 0 0 16.5-11.5 67.65 67.65 0 0 0 12-14.5q4.5-7.5 4.5-13.5zm-364-49 7-195a364.37 364.37 0 0 0 -1-47.5q-2-21.5-8.5-37t-18.5-24q-12-8.5-32-8.5-19 0-29 9.5a54.71 54.71 0 0 0 -14.5 24 150.94 150.94 0 0 0 -6 31.5q-1.5 17-3 31.5a161.75 161.75 0 0 1 -4 24q-2.5 9.5-10.5 9.5-12 0-26.5-20.5t-32-44.5a407.88 407.88 0 0 0 -37.5-44.5q-20-20.5-42-20.5-35 0-54 33.5t-16 100.5l7 169q2 46 16 74t38 28q56 0 54-85l-2-66q0-20 11-20t21 11.5q10 11.5 23 34.5l8 15 19 30q18 38 36.5 54t44.5 16q49 0 52-83zm-747-37a101.37 101.37 0 0 0 -4-28q-4-14-14-30l-24-23q-18-15-18-26l4-14q6-7 10.5-13a62.74 62.74 0 0 0 7.5-13 56.41 56.41 0 0 0 4-16 214.68 214.68 0 0 0 1-23q0-50-43.5-79t-112.5-29q-52 0-79.5 19t-25.5 57l1 32-1 23v25l3 183q0 42 15 63 18 19 55 22 20 1 32 1h20q41 0 72.5-10.5t53-28.5q21.5-18 32.5-41.5a117.7 117.7 0 0 0 11-50.5zm-355-495h1508q62 0 107 45t45 105v1897h-652v-321q0-36-25.5-59.5t-59.5-23.5h-338q-36 0-60.5 23.5t-24.5 59.5v321h-652v-1897q0-60 45-105t107-45z"/></svg>