<svg viewBox="0 0 1416 2074" xmlns="http://www.w3.org/2000/svg"><path d="m933 844a40.14 40.14 0 0 1 28 11 35.2 35.2 0 0 1 12 27q0 37-69 63-34 14-64.5 20a478.43 478.43 0 0 1 -59.5 8 197.49 197.49 0 0 1 -80.5-13q-39.5-15-70.5-36t-49.5-44q-18.5-23-18.5-37a37.51 37.51 0 0 1 11.5-27.5q11.5-11.5 28.5-11.5 18 0 31 15 66 76 148 76a195.08 195.08 0 0 0 65.5-11.5q32.5-11.5 67.5-33.5 7-6 20-6zm367 220v-27q0-127-31.5-242.5t-94.5-221.5q-126-214-339-334-216-121-456-121-37 0-60.5 1t-37.5 5q-14 4-19.5 10.5t-5.5 17.5q0 24 53 63 71 50 123 159a577.93 577.93 0 0 1 40 109.5 466.5 466.5 0 0 1 14 114.5 496.69 496.69 0 0 1 -14.5 119q-14.5 59-44.5 118-59 116-148 176-48 33-65.5 56t-17.5 48q0 20 15.5 37t43.5 30.5q28 13.5 67 23.5t87 16a191.69 191.69 0 0 1 27.5 6 96.27 96.27 0 0 1 24.5 11 70.45 70.45 0 0 1 18 16 33.2 33.2 0 0 1 7 21q0 19-33 46-34 27-34 46a26.63 26.63 0 0 0 3 12q3 6 12.5 13t28 16q18.5 9 49.5 21l-37 5q-38 6-57.5 23.5t-19.5 51.5a124.11 124.11 0 0 0 9 46.5 119.16 119.16 0 0 1 9 44.5 121.43 121.43 0 0 1 -8 44.5 182.79 182.79 0 0 1 -21.5 39.5 248.77 248.77 0 0 1 -32 36.5q-18.5 17.5-38.5 35.5-15 14-46 33.5t-77 45.5q-75 41-75 64 0 21 49.5 38.5t156.5 17.5q212 0 391.5-68t310.5-193a867.9 867.9 0 0 0 116.5-136.5 895.79 895.79 0 0 0 86.5-158.5q71-172 71-336zm116-27q0 288-140 529-139 241-388 374-251 134-571 134-132 0-225-41-92-40-92-129 0-86 112-156 53-32 84.5-52.5t45.5-31.5q28-23 42-40t14-25a45.65 45.65 0 0 0 -2.5-14.5q-2.5-7.5-6-18.5a193.62 193.62 0 0 1 -6-25.5 205.79 205.79 0 0 1 -2.5-34.5q0-45 25-94a163.14 163.14 0 0 1 -6-45q0-16 6-43-228-53-228-210a165 165 0 0 1 7.5-48.5 230.6 230.6 0 0 1 20-46.5 272.07 272.07 0 0 1 28-40.5 172.84 172.84 0 0 1 32.5-30.5l45-33q71-52 115-143 42-91 42-174 0-84-27.5-155.5t-92.5-125.5l-24-19q-43-35-65-70.5t-22-75.5q0-78 55.5-115t186.5-37q279 0 517 137t379 375q141 239 141 525z"/></svg>