<svg viewBox="0 0 2208 2325" xmlns="http://www.w3.org/2000/svg"><path d="m1944 526q31-35 49.5-58t25.5-34q16-24 19-41-29 4-59.5 11a265.38 265.38 0 0 1 -59.5 7q2 14 8 42.5t17 72.5zm-216 157 12 82 85-101q-24 5-49 12a177.8 177.8 0 0 1 -48 7zm-747 847q-250 0-382-18-65-9-128-23.5a1077.79 1077.79 0 0 1 -124-36.5q-60-22-101-40t-61-35q-11-10-21-14t-18-4q-19 0-19 18l6 23 8 20a623.35 623.35 0 0 0 110.5 180.5q70.5 80.5 184.5 135.5a1016.63 1016.63 0 0 0 243.5 84q128.5 27 274.5 27 106 0 203-13.5a1132.12 1132.12 0 0 0 188-42.5q91-28 164.5-67.5t129-87q55.5-47.51 91.5-102t53-114.5l8-22 5-23q0-16-18-16-11 0-30 15-40 31-110 58.5t-173 50.5q-101 24-221 35.5t-263 11.5zm-19 659q126 0 216-33t90-84a76 76 0 0 0 -11.5-40 117.77 117.77 0 0 0 -31-33.5 142.35 142.35 0 0 0 -44.5-22 159.14 159.14 0 0 0 -52-6.5l-169 7-165-7a155 155 0 0 0 -51.5 6.5 143.4 143.4 0 0 0 -44 22 117.77 117.77 0 0 0 -31 33.5 76 76 0 0 0 -11.5 40q0 49 97 83 95 34 208 34zm-705-1003q2 81 54 122 26 21 82.5 39t139 30.5q82.5 12.5 189 19.5t233.5 7q58 0 121.5-1.5t128.5-6q65-4.5 129.5-11.5t123.5-19q60-12 100.5-28t64.5-37.5q24-21.49 34.5-49.5t10.5-65q0-52-16-106t-45.5-107.5q-29.51-53.5-72-105a837.52 837.52 0 0 0 -96.5-98.5q-108-93-228-132t-252-39q-112 0-215.5 29t-198.5 97q-70 51-124 111t-90.5 122q-36.5 62-55 121t-17.5 108zm1279-715-109 145 26 19q46-11 85-18t71-11q-8-37-15.5-71a527.14 527.14 0 0 1 -10.5-71zm252-293q-9 10-42.5 46t-90.5 99l10 34q38-5 73-12t69-16q-9-58-14-96t-5-55zm-79 405 139-29-9-63-13-61q-63 11-98.5 17t-46.5 8a378.92 378.92 0 0 0 11.5 63.5q8.5 31.5 16.5 64.5zm-62 253-19-134-85 11q26 25 52 55.5t52 67.5zm227-637 15 56 13 56 39-8 43-6q-28-29-55-53.5a606.28 606.28 0 0 0 -55-44.5zm334 184q0 24-23 55l-48 62q-17 21-32.5 43a449.73 449.73 0 0 1 -33.5 42q-83 94-137.5 158.5t-81.5 102.5a300.1 300.1 0 0 1 -23 29.5q-12 13.5-26 27.5a308.73 308.73 0 0 0 -23.5 26.5q-11.5 14.5-20.5 27.5a225.2 225.2 0 0 0 -14 22.5q-5 9.5-5 11.5l23 56a102.11 102.11 0 0 0 16.5 25.5 56.23 56.23 0 0 0 24.5 15.5q119 42 119 190a602.73 602.73 0 0 1 -10 108q-10 55-32 114-43 116-122 201t-193 143q-57 30-104 48t-83 26q-42 10-42 24a28.06 28.06 0 0 0 3 11.5 63.12 63.12 0 0 0 10 14.5q36 45 36 104 0 108-119 180-116 71-316 73a645 645 0 0 1 -155-18.5q-75-18.5-133-51.5t-92-79.5q-34-46.5-32-103.5 2-64 36-103 12-15 12-26 0-17-41-23l-15-4q-128-35-226-99t-170-149q-26-32-50-75t-44-100q-41-114-41-215 0-148 120-190 17-6 30.5-23.5t21.5-46.5q10-32 35-76t65-103q81-117 195-198 115-84 243-124.5t256-40.5q184 0 353 80a317 317 0 0 0 45.5-57.5 428.64 428.64 0 0 1 45.5-60.5q30-34 57-70.5t53.5-73.5q26.51-37 54-73.5t58.5-71.5l41-45q96-104 140-104a89.1 89.1 0 0 1 29 7.5 234.82 234.82 0 0 1 31 16.5q17 10 52.5 39t92.5 80q57 51 94 89t57 64q38 52 38 87z"/></svg>