<svg viewBox="0 0 1984.03 1947" xmlns="http://www.w3.org/2000/svg"><path d="m805 1022q21 0 41 17t20 42q0 25-21.5 42.5t-46.5 17.5q-24 0-39.5-17t-15.5-42q0-26 19-43t43-17zm551 524q-24 0-39.5-17t-15.5-42q0-26 19-43t44-17a53.85 53.85 0 0 1 23.5 5.5 71.68 71.68 0 0 1 20 14 68.12 68.12 0 0 1 13.5 19 47.39 47.39 0 0 1 5 20.5q0 25-22 42.5t-48 17.5zm-579 21q0-32 18.5-48.5t41.5-16.5q25 0 45 18.5t20 47.5q0 25-20 38a77.4 77.4 0 0 1 -43 13q-24 0-43-12.5t-19-39.5zm842-390q-24 0-40.5-17t-16.5-42q0-26 20-43t43-17a53.85 53.85 0 0 1 23.5 5.5 71.68 71.68 0 0 1 20 14 71 71 0 0 1 13.5 18.5 44.29 44.29 0 0 1 5 20 50.27 50.27 0 0 1 -6 23.5 60.43 60.43 0 0 1 -16 19.5 91 91 0 0 1 -22 13 62 62 0 0 1 -24 5zm-1282 123a62.39 62.39 0 0 1 15.5-42q15.51-18 41.5-18 29 0 51 20.5t22 54.5q0 28-16 40.5a57 57 0 0 1 -36 12.5 91.1 91.1 0 0 1 -28-4.5 75.72 75.72 0 0 1 -25-13.5 74.8 74.8 0 0 1 -18-21.5 57.38 57.38 0 0 1 -7-28.5zm967-509q0-30 18.5-44t40.5-14q28 0 51 20.5t23 56.5q0 25-17 37t-41 12a83.67 83.67 0 0 1 -52-17.5q-23-17.5-23-50.5zm-64 275a72 72 0 0 1 24.5 4.5 78.54 78.54 0 0 1 23 13 69.6 69.6 0 0 1 17 20 50.87 50.87 0 0 1 6.5 25.5q0 25-23 41a87.27 87.27 0 0 1 -51 16q-25 0-44.5-17.5t-19.5-45.5q0-26 20.5-41.5a75.14 75.14 0 0 1 46.5-15.5zm-704-244a96.19 96.19 0 0 1 25 3.5 78.88 78.88 0 0 1 23.5 10.5 62.45 62.45 0 0 1 17.5 17.5q7 10.5 7 24.5 0 26-22 46t-56 20q-32 0-47-16.5a55.43 55.43 0 0 1 -15-38.5 64 64 0 0 1 4.5-23.5 75.83 75.83 0 0 1 13-21.5 62.88 62.88 0 0 1 21-16q12.5-6 28.5-6zm416-261q32 0 56-15t24-36q0-20-22-35t-58-15q-38 0-58 17.5t-20 32.5q0 16 20.5 33.5t57.5 17.5zm40 1270q411 0 643-176 233-176 233-487 0-206-124-383a728.58 728.58 0 0 0 -144-154.5q-83-66.5-192-111.5-96 39-194 39-19 0-37.5-1a297.16 297.16 0 0 1 -35.5-4q-20 59-71.5 91.5t-117.5 32.5q-81 0-136-48-58-48-58-119 0-23 10-47-147 26-267.5 93.5t-206.5 162.5q-86 95-132.5 210.5t-45.5 238.5q2 156 58.5 277.5t173.5 209.5q232 176 644 176zm540-1381q106 56 187.5 131.5t142.5 172.5q119 189 122 414 1 177-67.5 321t-197.5 246q-129 102-313.5 157t-413.5 55q-231 0-415.5-56t-313-158q-128.5-102-196.5-245.5t-67-319.5q2-231 126-424 125-194 354-306 227-112 515-112 34-144 152-234 59-46 125-69t144-23a593 593 0 0 1 124 13q61 13 128 39 69 28 74 36 8 11 8 26 0 30-27 100-28 69-76.5 130a517.94 517.94 0 0 1 -114.5 106z"/></svg>