<svg viewBox="0 0 1920.04 1894" xmlns="http://www.w3.org/2000/svg"><path d="m1230 654q0 17-15 29t-39 12q-46 0-46-30 0-17 18-31.5t39-14.5q21 0 32 11.5t11 23.5zm455 338 3 12a38 38 0 0 1 -6.5 21 72.49 72.49 0 0 1 -16 17.5 79.39 79.39 0 0 1 -21.5 12 67.94 67.94 0 0 1 -24 4.5q-13 0-26.5-9t-13.5-30q0-24 20.5-37t43.5-13q32 0 41 22zm-295-5q-58 0-58-37 0-18 19.5-27a93.44 93.44 0 0 1 39.5-9q48 0 48 36 0 37-49 37zm-375 407q0 47-46 47-26 0-44-12t-18-32q0-22 20.5-31.5a102.29 102.29 0 0 1 43.5-9.5q44 0 44 38zm687-138q0 41-52 41-24 0-40-11.5t-16-26.5q0-34 53-34 55 0 55 31zm-219 177a205.51 205.51 0 0 1 24.5 1.5 96.7 96.7 0 0 1 23 5.5 47.67 47.67 0 0 1 17 10.5q6.49 6.49 6.5 16.5 0 40-51 40a101.09 101.09 0 0 1 -44-10q-21-10-21-27 0-37 45-37zm-133 190q0 26-21.5 40.5t-45.5 14.5a117.15 117.15 0 0 1 -24-2.5 99.49 99.49 0 0 1 -22.5-7.5 55.14 55.14 0 0 1 -17-12 24.09 24.09 0 0 1 -6.5-17 35.85 35.85 0 0 1 7.5-22 73.76 73.76 0 0 1 19-17.5 103.42 103.42 0 0 1 26-12 95.86 95.86 0 0 1 28.5-4.5q24 0 40 11.5t16 28.5zm96-381a95.43 95.43 0 0 1 -1 14.5 64.58 64.58 0 0 1 -4 14q-3 7.5-8 18t-13 26.5q-17 32-42.5 41.5t-65.5 9.5q-70 0-92-17-78-78-78-120 0-25 52-69 14-12 25.5-22a269.52 269.52 0 0 1 23-18 103.35 103.35 0 0 1 24-12.5 83.81 83.81 0 0 1 28.5-4.5q68 0 122 81 11 15 20 26.5t9 31.5zm-889-95q-1 32-14 68-11 34-35.5 43t-62.5 9q-125 0-125-66a82.23 82.23 0 0 1 3.5-23 171.47 171.47 0 0 1 8.5-23l20-41a60.42 60.42 0 0 1 19.5-24q12.5-9 32.5-8l58 5 59 6q37 10 36 54zm305-593 7 78q0 30-3.5 45t-11.5 22q-4 3-20 9t-46 13q-60 15-133 15-28 0-38-17.5t-10-66.5q0-59 9-91 3-17 9-20 3-3 22.5-8.5t55.5-15.5q36-9 61-13.5t39-5.5q16 0 27 5.5a58.18 58.18 0 0 1 18 13.5 54.19 54.19 0 0 1 10.5 18 57.64 57.64 0 0 1 3.5 19zm786 211q1 25-25.5 39t-97.5 14q-34 0-51.5-13t-24.5-39q-5-28-12.5-64t-4.5-64q0-9 10-17t27.5-14a235.13 235.13 0 0 1 40-9.5 309.38 309.38 0 0 1 47.5-3.5q20 0 31 8 13 5 36 62a467.15 467.15 0 0 1 17.5 53 190.85 190.85 0 0 1 6.5 48zm150 249q0-115-47-300-23-91-50-164t-59.5-130.5q-32.51-57.49-70-100a526.89 526.89 0 0 0 -80.5-74.5q-23 11-45.5 24a205.08 205.08 0 0 1 -47.5 20 209.7 209.7 0 0 0 -27.5 10q-13.5 6-26 12a195.9 195.9 0 0 1 -25 10 80 80 0 0 1 -24.5 4q-21 0-35-28.5t-14-85.5q0-59 8-70-94-22-242-22-115 0-217.5 18t-189 52.5q-86.5 34.5-154 84t-113.5 112.5q-19 26-38 51t-36 50.5q-17 25.5-32.5 52.5a423.18 423.18 0 0 0 -27.5 58q-36 88-54.5 196t-18.5 242q0 220 103 371 104 152 242 236t319 107a365.25 365.25 0 0 1 -34.5-25.5 280.71 280.71 0 0 1 -34.5-34.5q-32-38-32-71 0-23 46-56 24-17 44.5-26t40.5-9q26 0 67 35 40 33 56 54.5t16 35.5q0 13-9 27t-24.5 27.5a296.5 296.5 0 0 1 -36 26.5 317.71 317.71 0 0 1 -43.5 23q65 8 119.5 12t99.5 4q92 0 166-18.5a702 702 0 0 0 144-53.5q69-35 182-121 115-85 175.5-230.5t60.5-335.5zm117-42 4 93q5 97-14 184.5a961.6 961.6 0 0 1 -53 168.5q-66 157-186 244l-91 67q-69 51-129 85t-114 50q-107 30-281 30-103 0-274-18-172-18-311-90a877.22 877.22 0 0 1 -187.5-131 858.28 858.28 0 0 1 -147.5-176q-62-98-96.5-213.5t-34.5-243.5a1345.86 1345.86 0 0 1 8-143.5q8-74.5 25-157.5 33-164 119-298a940.32 940.32 0 0 1 212-233q128-99 275.5-144.5t316.5-45.5q223 0 396 57.5t281 164.5q54 53 102 123t86 161.5q38 91.5 63 206.5t31 259z"/></svg>