<svg viewBox="0 0 1752.03 2274.11" xmlns="http://www.w3.org/2000/svg"><path d="m741 783.11h392q-149-82-195-238-53 158.01-197 238zm-202-465a104.11 104.11 0 0 0 -39.5 7.5 95.39 95.39 0 0 0 -32 21 103.54 103.54 0 0 0 -21.5 31.5 95 95 0 0 0 -8 39 102.07 102.07 0 0 0 8 40 100.44 100.44 0 0 0 21.5 32.5 101.94 101.94 0 0 0 32 21.5 98.32 98.32 0 0 0 39.5 8q43 0 71.5-29.5t28.5-72.5q0-42-28.5-70.5t-71.5-28.5zm795 0q-42 0-71 28.5t-29 70.5a107.93 107.93 0 0 0 7.5 40 94.24 94.24 0 0 0 21 32.5 101.94 101.94 0 0 0 32 21.5 101.52 101.52 0 0 0 79 0 108.2 108.2 0 0 0 32.5-21.5 96.6 96.6 0 0 0 22-32.5 102.07 102.07 0 0 0 8-40 95 95 0 0 0 -8-39 99.41 99.41 0 0 0 -22-31.5 101 101 0 0 0 -32.5-21 104.11 104.11 0 0 0 -39.5-7.5zm418 99a435.82 435.82 0 0 1 -17 115 419.36 419.36 0 0 1 -113 187.5 420 420 0 0 1 -89 65.5 82.86 82.86 0 0 1 35.5 26 63.56 63.56 0 0 1 14.5 41v537q0 29-20 49t-50 20h-369v180q0 29-20.5 50t-49.5 21h-24l284 442a40 40 0 0 1 8 24q0 28-21 41l-36 22q-13 8-26 8-26 0-40-21l-194-304v305a47.8 47.8 0 0 1 -48 48h-42q-20 0-33.5-14t-13.5-34v-305l-195 304q-14 21-40 21-15 0-26-8l-34-22q-22-13-22-41 0-15 7-24l284-442h-24q-29 0-49.5-21t-20.5-50v-180h-369q-29 0-49.5-20t-20.5-49v-169l-281 139q-20 0-34-18t-14-43v-463q0-25 14-42t34-17l281 137v-61q0-35 31-57-106-50-172-150a367.53 367.53 0 0 1 -49.5-108q-15.5-57-16.5-120a379.43 379.43 0 0 1 33-160.5q34-76.5 91.5-134a435.31 435.31 0 0 1 133.5-91 367.69 367.69 0 0 1 159-31.5 464 464 0 0 1 128 21.5q61 19.5 116 59.5 56 41 94.5 93t60.5 118q39-127 147-210 56-42 118-61t131-21a372.14 372.14 0 0 1 159 31 430 430 0 0 1 134 91 442.67 442.67 0 0 1 92 134.5 379.43 379.43 0 0 1 33 160.5z"/></svg>