<svg viewBox="0 0 1938 1978" xmlns="http://www.w3.org/2000/svg"><path d="m1780 745 38 91q11-69 16.5-132.5t5.5-123.5v-40a944.56 944.56 0 0 0 -74-118.5 903.26 903.26 0 0 0 -97-111.5q-55-54-124-106.5t-155-103.5l-36-2h-38q-49 0-95 3.5t-91 10.5a906 906 0 0 1 194 96q92 60 178 144a1470.2 1470.2 0 0 1 156.5 180q71.5 97 121.5 213zm-657-318q0-62-62-106a264.15 264.15 0 0 0 -63.5-32 212.32 212.32 0 0 0 -68.5-11 143.67 143.67 0 0 0 -33 4 127 127 0 0 0 -31 11.5 79 79 0 0 0 -23 18 35.2 35.2 0 0 0 -9 23.5 30.09 30.09 0 0 0 6.5 15 26.65 26.65 0 0 1 5.5 17 21.24 21.24 0 0 1 -2.5 10.5q-2.5 4.5-11 7.5t-24 5.5q-15.5 2.5-41.5 4.5-81 8-81 59a69.21 69.21 0 0 0 9.5 36q9.5 16 9.5 28 0 11-13.5 18.5t-27.5 6.5l-28-1a85.06 85.06 0 0 0 -33 4.5 108.88 108.88 0 0 0 -29 15 81.88 81.88 0 0 0 -21 22q-8 12.5-8 25.5a62.67 62.67 0 0 0 5.5 25.5 60.49 60.49 0 0 1 5.5 24.5q0 12-4 18a19.27 19.27 0 0 1 -10 8 42.65 42.65 0 0 1 -13.5 2 102 102 0 0 0 -14.5 1q-47 5-78.5 28t-31.5 61q0 15 8.5 24t8.5 20q0 18-28 16l-19-1q-28 3-48 21.5t-20 46.5q0 45 67 96t123 51a82.23 82.23 0 0 0 23-3.5 67.82 67.82 0 0 0 21.5-10.5 62 62 0 0 0 16-17.5q6.5-10.5 6.5-25.5a46.2 46.2 0 0 0 -4-19 127.73 127.73 0 0 0 -9.5-17.5q-5.5-8.5-10.5-18a55.67 55.67 0 0 1 -6-21.5q0-11 16-11l36 5 26 9 14 1q32 0 55-21t23-56q0-19-17-45a104.88 104.88 0 0 1 -12-20.5 47.43 47.43 0 0 1 -4-18.5q0-17 22-17a83.83 83.83 0 0 1 24.5 3.5q11.5 3.5 23 7.5t23 7.5a83.83 83.83 0 0 0 24.5 3.5q38 0 57-20t19-48q0-30-21-59-25-27-25-34 0-8 10-12.5a46.36 46.36 0 0 1 19-4.5 70 70 0 0 1 35.5 9.5q16.5 9.5 39.5 9.5a124.57 124.57 0 0 0 26-3 83 83 0 0 0 25-9.5 62.74 62.74 0 0 0 18.5-16.5q7.5-10 7.5-24a46.2 46.2 0 0 0 -4-19q-4-9-8.5-18t-8.5-18.5a49.71 49.71 0 0 1 -4-19.5q0-25 33-25 16 0 27.5 7t31.5 7q59 0 59-41zm-465 1446q75-8 149.5-23a1391.48 1391.48 0 0 0 149.5-39l-16-3a1144 1144 0 0 1 -237-66.5 1195.55 1195.55 0 0 1 -216-114 1448.12 1448.12 0 0 1 -196.5-157.5q-93.5-89-178.5-196l-13-22-2 27v26q0 104 17 198 45 63 104 123.5t121 105.5q31 23 59.5 40.5a475.23 475.23 0 0 0 55.5 29.5q27 11 77.5 29t125.5 42zm1280-1288q0 293-102 557-104 264-289 443-93 91-207.5 162.5t-254.5 125.5q-278 105-561 105-260 0-348-82-73-67-126-238a1124.22 1124.22 0 0 1 -38-174.5 1357.19 1357.19 0 0 1 -12-182.5q0-251 91-481t273-418a1258.11 1258.11 0 0 1 197.5-168 1418.49 1418.49 0 0 1 228.5-127 1292.83 1292.83 0 0 1 255-80.5q130-26.5 269-26.5a1217.3 1217.3 0 0 1 136.5 7.5q66.5 7.5 132.5 21.5 128 27 205 78 77 50 113 183a1069.08 1069.08 0 0 1 27.5 140.5 1206.22 1206.22 0 0 1 9.5 154.5z"/></svg>