<svg viewBox="0 0 2390 2378" xmlns="http://www.w3.org/2000/svg"><path d="m285 1092q0 143 15 216 13 73 48 133 32 58 101 87t187 29h22q153 0 153-36a68.3 68.3 0 0 0 -7-31l-188 11q-62 4-108-14.5t-78-52.5q-32-34-50.5-96.5t-25.5-155.5q-4-51-8-85t-9-54q-5-20-11-28t-15-8l-6 1q-20 13-20 84zm1280 38q0 25 21 25 13 0 27.5-7a152.46 152.46 0 0 1 25.5-10 707.19 707.19 0 0 0 101-48.5q47-27.49 100-53.5t89-60a291.18 291.18 0 0 0 58-75.5 323.22 323.22 0 0 0 31.5-90.5q9.49-49 8.5-105l-1-114v-45l-3-178v-57l3-58 7-52a64 64 0 0 0 -5.5-25q-5.51-13-16.5-13-19 0-34 60-8 30-11 52.5t-4 37.5q-5 33-6.5 77t-1.5 99v128l1 100q1 45-5.5 80t-17.5 60q-25 52-85.5 98.5t-156.5 92.5l-92 44-22 14zm-747 565a76.36 76.36 0 0 0 -2-17.5 134.07 134.07 0 0 0 -5-16.5l-212 3q-146 1-235-50-86-48-138-166-51-117-51-266 0-88 18-148 3-11 5-22a113 113 0 0 0 2-20q0-21-13-21-18 0-32.5 16.5t-24.5 46.5q-10 30-15.5 71.5a690.49 690.49 0 0 0 -5.5 90.5 798.48 798.48 0 0 0 8 113 715.51 715.51 0 0 0 23.5 107 624.94 624.94 0 0 0 37.5 95.5q22 44.51 49 79.5 55 70 140 100 42 16 103.5 23t142.5 7q54 0 98-3.5a719.09 719.09 0 0 0 80-10.5 128.21 128.21 0 0 1 17.5-3q9.5-1 9.5-9zm1428-1227q0-133-23-230-23-96-70-96-20 0-20 35l5 30q39 111 39 312 0 212-26 324-26 109-74 176-50 69-135 124t-196 106l-128 59q-47 22-47 47 0 30 26 30 12 0 31-6t48-19q29-13 71-32.5t100-45.5a886.51 886.51 0 0 0 212-135q97-84 115-139 28-57 43-129.5t20-164.5q9-181 9-246zm-773 743 3-245q2-137-4-235.5t-15-162.5q-9-64-22.5-120t-30.5-106q-36-98-91-178-55-79-84-79-20 0-20 18 0 13 14 35a270.2 270.2 0 0 1 19 34.5q8 17.5 15 35.5l29 73q23 57 40 114.5a1137.58 1137.58 0 0 1 28 117.5q12 60 21 143.5t14 191.5q5 109 8 190.5t3 139.5q0 130-4.5 328.5t-15.5 470.5l-6 183v8q0 51 20 51 25 0 34-59 13-85 20-170.5t9-172.5zm-418 1052q16 0 16-36v-13l-23-170-25-179-50-393q-19-146-32-259t-19-194l-19-260q-4-48-5.5-93.5t-1.5-87.5q0-80 6-148t20-127q14-59 26-99.5t23-63.5a136.2 136.2 0 0 0 7-18 45 45 0 0 0 2-12q0-24-18-24-32 0-75 84a579.92 579.92 0 0 0 -37.5 89.5 774.3 774.3 0 0 0 -25 98.5 966.88 966.88 0 0 0 -13.5 103.5q-4 52.5-4 103.5t6 137.5q6 86.5 19 210.5 12 124 28.5 266t38.5 307q43 326 74 503.5t43 217.5q11 56 39 56zm171-3q23 0 23-79 0-165-12-327l-25-327q-12-161-18.5-406.5t-10.5-577.5q0-42-1-85.5t-3-85q-2-41.5-5-79.5t-8-68q-11-61-21.5-95t-30.5-34q-22 0-28.5 11.5t-8.5 37.5l-6 51q-2 14-1.5 36.5t.5 56.5v46l1 48q10 364 31.5 686.5t45.5 605.5l23 271q4 46 11.5 119.5t18.5 174.5a23.86 23.86 0 0 0 9.5 14.5 25.89 25.89 0 0 0 15.5 5.5zm1164-1870q0 132-18 307-8 88-18 155t-23 115q-24 96-71 171-45 72-104 122-29 25-87 58.5t-147 75.5q-88 42-171 79.5t-164 71.5l-11 161q-14 216-32 341t-38 163q-86 168-298 168a382.11 382.11 0 0 1 -89-10.5 460 460 0 0 1 -84.5-29 401 401 0 0 1 -75-44.5 365.55 365.55 0 0 1 -60.5-57q-11-13-18.5-34.5t-15-56q-7.5-34.5-15-83.5t-18.5-116l-22-136q-81 10-142 15t-103 5q-129 0-220.5-31t-148.5-88q-56-57-106-158-25-51-42.5-96a726.64 726.64 0 0 1 -28-87 621.87 621.87 0 0 1 -15-83 769.47 769.47 0 0 1 -4.5-84q0-133 70-228 35-49 80.5-72.5t99.5-23.5q74 0 119.5 30.5t73.5 80.5q29 51 44 113l45 181q10 40 47.5 67t92.5 24l61-2q-46-265-69.5-452.5t-23.5-304.5q0-617 495-617 250 0 366 170 59 85 90 227.5t26 344.5l-5 227q52-34 87-61t55-47a348.37 348.37 0 0 0 34.5-42 238.31 238.31 0 0 0 24.5-45.5 220.94 220.94 0 0 0 14-53.5q4-29 3-67l-4-137-5-166q-2-66 7-115.5t26-81.5a254.31 254.31 0 0 1 43.5-59 292.57 292.57 0 0 1 207.5-87q72 0 129 30.5a262.81 262.81 0 0 1 94 84.5 303.77 303.77 0 0 1 49.5 115.5q12.5 62.5 12.5 152.5z"/></svg>