<svg viewBox="0 0 2078 1883" xmlns="http://www.w3.org/2000/svg"><path d="m1628 1065-6-12-186-200q-7-7-15-7-10 0-16 13l-107 247q0 13 19 13l296-41q15-3 15-13zm-62 241q0-8-6-8l-11 4-98 64a28.45 28.45 0 0 1 -11 5.5 49.31 49.31 0 0 1 -12 1.5q-19 0-29-9l-64-51q-9-8-27-8-15 0-25 7l-78 54q-9 7-26 7-15 0-26-8l-85-62a33.2 33.2 0 0 0 -21-7q-10 0-16 2.5a47.58 47.58 0 0 0 -12 7.5l-65 56a43.6 43.6 0 0 1 -14.5 8.5 45.65 45.65 0 0 1 -14.5 2.5 49.31 49.31 0 0 1 -12-1.5 28.45 28.45 0 0 1 -11-5.5l-103-65-19-5a43.09 43.09 0 0 0 -17 3 111.48 111.48 0 0 0 -15 8l-53 51q-12 12-33 12l-18-4-132-67-11-3q-9 0-9 10l96 276q7 21 26 21l13-3 88-45q10-5 26-5 18 0 29 6l111 69q9 5 22 5 17 0 29-9l87-77q9-8 26-8 16 0 23 7l88 71q9 9 27 9a51.35 51.35 0 0 0 25-6l105-72q10-6 29-6 17 0 26 5l82 49 12 4q15 0 25-20 79-264 79-271zm-1101-249-7 12q0 13 15 13l282 31 19 2q15 0 15-13l-2-9-110-236q-7-11-16-11-8 0-15 7zm457 146q0 16 23 16h208q22 0 22-14a29.51 29.51 0 0 0 -1.5-8 24.49 24.49 0 0 0 -6.5-10l-99-107a35.2 35.2 0 0 0 -27-12q-18 0-29 14l-83 104q-7 9-7 17zm1156-99q0 225-115 411-114 185-339.5 276.5t-581.5 91.5q-178 0-319.5-20.5t-249.5-62.5q-106-42-191.5-109.5t-151.5-164.5q-130-190-130-417a803.8 803.8 0 0 1 16-160 757.88 757.88 0 0 1 50-156q66-154 183-265t271-159q78-24 185-38.5t247-17.5q0-63-53-118l-30-22q-41-20-57.5-38.5t-16.5-40.5q0-34 29-63 30-31 62-31 15 0 37 13 23 14 80 62a402.46 402.46 0 0 1 49 49.5 276.61 276.61 0 0 1 35 54 317.57 317.57 0 0 1 22.5 62 504.13 504.13 0 0 1 12.5 72.5q355 5 536 92 186 89 302 279 118 192 118 420z"/></svg>