<svg viewBox="0 0 2128 2329" xmlns="http://www.w3.org/2000/svg"><path d="m380 110a115 115 0 0 1 8.5-44.5 111 111 0 0 1 22.5-35 101.24 101.24 0 0 1 32-22.5 90.26 90.26 0 0 1 37-8q48 0 87 46a355 355 0 0 1 35 47.5 241.76 241.76 0 0 1 24 52.5 157.47 157.47 0 0 1 -13 45 142.31 142.31 0 0 1 -26 39 128.5 128.5 0 0 1 -37.5 27.5q-21.5 10.5-47.5 10.5a87.58 87.58 0 0 1 -19-2q-9-2-20-5-16-20-33-37.5a180.31 180.31 0 0 1 -29-39.5q-21-28-21-74zm112 206q22 12 49 12a110.57 110.57 0 0 0 44-9 149.14 149.14 0 0 0 38.5-24 142 142 0 0 0 29.5-35 124.32 124.32 0 0 0 16-43l52 38 54 37q71 48 108.5 126t46.5 182l-1 19 1 22a82.22 82.22 0 0 1 -8.5 40.5 111.1 111.1 0 0 1 -25.5 34 136.93 136.93 0 0 1 -36 23.5 98.94 98.94 0 0 1 -41 9q-23 0-47.5-10a377.44 377.44 0 0 1 -52.5-27q-53-34-90.5-64.5t-59.5-59.5q-22-30-34.5-73t-17.5-98a368.41 368.41 0 0 0 -9.5-52 424.16 424.16 0 0 0 -15.5-48zm1636 405a84.34 84.34 0 0 1 -10.5 40.5 137 137 0 0 1 -28.5 36 182.4 182.4 0 0 1 -42 28.5 266.67 266.67 0 0 1 -50 19q-45-8-74-38t-29-70q0-6 9-36 32-26 52-41t31-19q24-8 45-8 24 0 42 8a95.45 95.45 0 0 1 30.5 21 85.66 85.66 0 0 1 18.5 28.5 84.08 84.08 0 0 1 6 30.5zm-273 4q-13 24-13 46 0 74 92 110-20 17-36 43-53 88-133 133t-174 38l-21-1-9 1a76.12 76.12 0 0 1 -33.5-8 108.1 108.1 0 0 1 -29.5-21 103.48 103.48 0 0 1 -21-30.5 84.69 84.69 0 0 1 -8-35.5q0-20 9.5-42t26.5-47q61-91 113-126 51-35 148-41 23-2 45-6a220.26 220.26 0 0 0 44-13zm-367-366q-45 0-76-25t-40-70l18-44q41-101 123-101 21 0 38 7.5a81.23 81.23 0 0 1 28.5 20.5 100.49 100.49 0 0 1 18 29 87 87 0 0 1 6.5 33 140.35 140.35 0 0 1 -6 41.5 182.41 182.41 0 0 1 -16 37 283.77 283.77 0 0 1 -22 33q-12 15.5-25 30.5a79.34 79.34 0 0 1 -23.5 6.5 197.79 197.79 0 0 1 -23.5 1.5zm-275 459q-26 0-47.5-9.5a97.23 97.23 0 0 1 -35.5-26 110.08 110.08 0 0 1 -21-39 124.93 124.93 0 0 1 -5-47.5l2-32q5-49 11-80.5t11-47.5q20-65 62-104a559.75 559.75 0 0 1 75-59.5 476.84 476.84 0 0 0 74-60.5 99 99 0 0 0 9.5 43 109.34 109.34 0 0 0 25.5 34.5 124.2 124.2 0 0 0 83 31.5l37-5a182.66 182.66 0 0 0 -10 60q-1 82-40 156-37 70-112 128-74 58-119 58zm-243 719q34 0 60.5-24.5t26.5-61.5q0-22-7-37.5t-18.5-25a75.64 75.64 0 0 0 -26-14 99 99 0 0 0 -29.5-4.5 80.37 80.37 0 0 0 -33.5 7 97.33 97.33 0 0 0 -27.5 18.5 86.2 86.2 0 0 0 -19 27 75.77 75.77 0 0 0 -7 31.5q0 36 21.5 59.5t59.5 23.5zm-184-421q0 25 22 42.5t48 17.5q30 0 52-18.5t22-51.5q0-29-20.5-44.5a73.68 73.68 0 0 0 -45.5-15.5q-34 0-56 20.5t-22 49.5zm-190 241q29 0 51.5-20.5t22.5-52.5q0-36-22-50.5a85.47 85.47 0 0 0 -48-14.5q-32 0-54 21t-22 51q0 28 19 47t53 19zm177-547q206 0 385 101t284 279q52 89 78 182.5t26 196.5q0 102-25.5 197t-78.5 184q-105 177-284 278t-385 101q-207 0-386-101-180-101-283-278-104-174-104-381 0-206 104-381 52-88 121.5-157t159.5-120q179-101 388-101z"/></svg>