<svg viewBox="0 0 1958 1958" xmlns="http://www.w3.org/2000/svg"><path d="m407 979q0 288 155 521 154 234 417 341 232-3 430-116 200-116 316-315 116-198 116-431 0-117-28.5-224.5t-87.5-207.5q-117-200-319-315-203-115-431-115-129 51-231.5 135.5t-180.5 202.5q-156 236-156 524zm572-979q263 0 490 131 226 132 358 358 131 227 131 490 0 262-129 487-66 113-154.5 203t-203.5 157q-225 132-492 132-134 0-256.5-32.5t-237.5-99.5q-227-134-356-359t-129-488q0-263 131-490 66-114 154.5-203t202.5-155q226-131 491-131z"/></svg>