<svg viewBox="0 0 2418 1764" xmlns="http://www.w3.org/2000/svg"><path d="m1412 634q0 48 45 48 22 0 48-11 76-30 153-30 115 0 222 65 10 5 16.5 8.5t10.5 3.5q26 0 26-28 0-16-13-28a423.85 423.85 0 0 1 -32-29.5 224.37 224.37 0 0 1 -21.5-25.5 79.4 79.4 0 0 1 -12-24.5 106 106 0 0 1 -3.5-28.5 93.42 93.42 0 0 1 8.5-39.5 118.43 118.43 0 0 1 22.5-33 97.14 97.14 0 0 1 33.5-22.5 111 111 0 0 1 42.5-8q32 0 58 15.5t54 35.5q29 20 51 20 20 0 20-24 0-11-4-18a43.63 43.63 0 0 0 -12-13q-59-41-59-98 0-42 28.5-69t68.5-27q38 0 114 43l19 6q25 0 25-19l-2-8q-27-86-187-149a936.29 936.29 0 0 0 -161.5-48 841.57 841.57 0 0 0 -164.5-16q-54 0-118.5 8t-139.5 23q-148 31-148 88 0 15 7.5 23a42.86 42.86 0 0 0 18 11.5 143.36 143.36 0 0 0 23.5 5.5 114.71 114.71 0 0 1 23.5 6 54.44 54.44 0 0 1 18 11q7.5 7 7.5 22 0 21-13 32.5a313.62 313.62 0 0 1 -28 22 234.15 234.15 0 0 0 -28 23q-13 12.5-13 34.5 0 17 7.5 25.5a48.27 48.27 0 0 0 19 13 137.26 137.26 0 0 0 25 7 170.85 170.85 0 0 1 25 6.5 44.12 44.12 0 0 1 19 12.5q7.5 8.5 7.5 24.5 0 22-16.5 38.5a460.94 460.94 0 0 1 -37 33 287.55 287.55 0 0 0 -37 35.5q-16.5 19-16.5 46zm995 751q11 0 11 18 0 65-85 162-84 95-207 147t-275 52a1051.18 1051.18 0 0 1 -133.5-8.5 894.61 894.61 0 0 1 -135.5-28.5q-69-19-152-54t-183-85q-42-21-86.5-40.5a922.05 922.05 0 0 0 -90-34 808.24 808.24 0 0 0 -92-23.5 496.16 496.16 0 0 0 -94.5-9 418.74 418.74 0 0 0 -67 5.5 444.55 444.55 0 0 0 -71 18 793.59 793.59 0 0 0 -80 32.5q-43 20-94 48-98 53-174 79t-149 26q-99 0-175-76-74-76-74-185 0-33 13-33l17 6q53 29 100 29 48 0 88-28 38-26 75-79 18-26 43.5-74t57.5-118q42-91 72.5-154.5t50.5-99.5q59-103 122.5-192a2052.47 2052.47 0 0 1 129.5-164 1522.69 1522.69 0 0 1 145.5-144 1872.32 1872.32 0 0 1 167.5-129q182-124 361.5-186.5t362.5-62.5q113 0 229 27a933.08 933.08 0 0 1 105 32 849.3 849.3 0 0 1 89 39q79 42 126.5 94t47.5 111q0 42-29.5 72t-77.5 30l-37-6-16-8q-32-16-51-25t-29-9q-13 0-13 13 0 12 9 18 40 29 52 54.5a124.16 124.16 0 0 1 12 53.5 127.32 127.32 0 0 1 -6.5 40.5 105.35 105.35 0 0 1 -19 34.5 92.33 92.33 0 0 1 -31 24q-18.49 9-42.5 9h-6q-55 0-120-53-20-16-40-16-23 0-23 19 0 13 15 26 21 18 34 32.5a180.77 180.77 0 0 1 20.5 27 78.65 78.65 0 0 1 10 25 129.4 129.4 0 0 1 2.5 25.5 115.86 115.86 0 0 1 -7.5 41 110.18 110.18 0 0 1 -21.5 35.5 105.63 105.63 0 0 1 -34.5 25q-20.5 9.5-46.5 9.5-32 0-60-19-84-57-189-57-53 0-95 13.5t-71.5 38a165 165 0 0 0 -45.5 60q-16 35.5-16 78.5 0 176 224 365 223 189 461 189 84 0 185-34 45-16 72-33t35-17z"/></svg>