<svg viewBox="0 0 2348 2021" xmlns="http://www.w3.org/2000/svg"><path d="m2345 417 3 6q0 9-43 31-134 73-256 145.5t-230 146.5q-108 74-201.5 151t-169.5 158l-24 25q-26 28-43 42.5t-26 14.5l-17-4a184.58 184.58 0 0 1 -24.5-18 225.38 225.38 0 0 1 -20-19.5 130.6 130.6 0 0 1 -13.5-17.5q-5-8-5-13 0-10 18-25l29-25q91-78 182-149.5t187-136.5q97-64 193.5-118.5t199.5-101.5q102-46 164.5-69.5t85.5-23.5zm-1624 182q0-10 19-24l32-25q74-58 148.5-112.5t152.5-104.5q79-51 151-92.5t139-74.5q67-34 135-63t140-54q71-24 114-36.5t58-12.5q15 0 15 10 0 18-79 46-57 21-158 76t-247 143q-146 88-263.5 173t-208.5 171q-59 54-71 54-16 0-45-30-32-30-32-44zm171 808 348 2-251-243 110-327-308 159-278-202 58 340-279 205 340 46 108 333zm629 105q0 17-12.5 27t-26.5 10l-505-4-219 454q-10 22-35 22-28 0-37-28l-158-481-494-69q-34-4-34-39 0-19 15-30l407-299-84-491-1-6a40.14 40.14 0 0 1 11-28q11-12 28-12 14 0 24 7l403 292 448-229 17-4q18 0 28.5 11t10.5 27l-2 12-158 473 362 355q12 14 12 30zm650-1367q17 0 17 8 0 7-22 20-21 12-28 12-451 225-725 434 0-35-18-59t-35-33q73-51 149-97.5t157-88.5q82-42 159.5-77t154.5-63q154-56 191-56z"/></svg>