<svg viewBox="0 0 1802 1935" xmlns="http://www.w3.org/2000/svg"><path d="m1705 0a117.67 117.67 0 0 1 35.5 5.5 111.72 111.72 0 0 1 31 15 77.92 77.92 0 0 1 22 23.5 58.55 58.55 0 0 1 8.5 31 48.37 48.37 0 0 1 -8 26.5 93.18 93.18 0 0 1 -20.5 22.5 92.06 92.06 0 0 1 -29.5 15.5 112.89 112.89 0 0 1 -35 5.5l-29-4q-20 0-37 17-190 146-331 398-141 253-211 560 146 58 219.5 159t73.5 234q0 183-113 305-115 121-296 121a546.89 546.89 0 0 1 -120-13 497.77 497.77 0 0 1 -114-41 457.82 457.82 0 0 1 -98.5-67 428.84 428.84 0 0 1 -74-86 386.16 386.16 0 0 1 -46.5-101 395.58 395.58 0 0 1 -16-113q0-175 127-302 128-128 300-128a368.36 368.36 0 0 1 83 9l19-76a2179.18 2179.18 0 0 1 87-266q51-127 115-239.5t140.5-208q76.5-95.5 163.5-171.5-161 33-300.5 94t-255 147.5a1163 1163 0 0 0 -205.5 197 1180.45 1180.45 0 0 0 -152 241.5q-13 27-20 45t-10 28q122 52 192 143-152 45-258 184-104 135-104 302 0 100 34 178-94 2-179-30t-150-88.5a428.29 428.29 0 0 1 -103.5-134q-38.5-77.5-39.5-167.5a390.24 390.24 0 0 1 16-110.5 443.36 443.36 0 0 1 45-103 454.63 454.63 0 0 1 69-88.5 468.84 468.84 0 0 1 87.5-69 429 429 0 0 1 101-45 333.89 333.89 0 0 1 108.5-14 557.67 557.67 0 0 1 107 15l31-72q65-149 166-270t235-217a1311.2 1311.2 0 0 1 289.5-156.5q155.5-60.5 334.5-95.5l7-1q20-5 53-28a107.83 107.83 0 0 1 27.5-13 96.21 96.21 0 0 1 27.5-4z"/></svg>