<svg viewBox="0 0 1980 1804" xmlns="http://www.w3.org/2000/svg"><path d="m1980 348a1659.7 1659.7 0 0 1 -15 221.5q-15 111.5-56 223.5-42 116-89 213t-94 181q-93 165-129 165-17 0-17-40t-36-90q-36-50-97.5-76t-136.5-26q-142 0-242 84-99 84-99 218 0 53 23 93t68 70l16 5q37 9 37 33 0 17-33 20t-83 3q-229 0-400-75-79-35-128.5-52.5t-69.5-17.5q-43 0-92 64-46 64-74 114-42 81-64 103t-53 22q-48 0-82-43t-34-59q0-30 75-89l30-30 57-63q100-109 100-208a398.71 398.71 0 0 0 -3-48.5q-3-24.49-7-49.5t-7-51a471 471 0 0 1 -3-54q0-168 52-305.5t158-247.5q106-110 227.5-185.5a1063 1063 0 0 1 259.5-116.5q37-11 61.5-16t38.5-5q25 0 25 15a19.19 19.19 0 0 1 -6 14q-17 17-24.5 31t-7.5 23a52.46 52.46 0 0 0 9.5 30 86.21 86.21 0 0 0 25 24 142.1 142.1 0 0 0 34.5 16 122.56 122.56 0 0 0 37 6q59 0 112-44 55-45 55-101 0-18-18-39l-4-9q0-33 121-32l79 2q85 2 153.5-9.5t119.5-32q51-20.5 85-48.5t52-59q11-20 25-20 17 0 29 47a1312.8 1312.8 0 0 1 28.5 145 1124.57 1124.57 0 0 1 10.5 156z"/></svg>