<svg viewBox="0 0 2388 2193.13" xmlns="http://www.w3.org/2000/svg"><path d="m2166 1513a559 559 0 0 0 -6.5-86.5 694.88 694.88 0 0 0 -18.5-83.5q-24-83-52-83-24 0-24 56 0 55 27 181 13 62 23 75 10 12 21 12 30 0 30-71zm-1914-109q14 0 23-17 11-18 29-117 9-51 14-85.5t5-51.5q0-55-23-55-31 0-55 85a663.4 663.4 0 0 0 -23 172q0 69 30 69zm1130-1040q-23 0-27-26l-52-301v-6a32.49 32.49 0 0 1 8-21.5q8-9.5 22-9.5h5l175 21q28 6 28 31l-3 14-123 279q-8 19-33 19zm185 115-8 1a32.6 32.6 0 0 1 -22.5-8.5q-9.5-8.5-9.5-24.5 0-13 7-20l202-230q9-11 22-11 20 0 29 15l93 149 6 18q0 24-24 30zm-660-267q0-8 3-12.5a63.76 63.76 0 0 1 8-9.5l134-112q10-8 21-8 19 0 30 19l120 282 3 12q0 12-9.5 22t-24.5 10l-15-5-256-168q-14-8-14-30zm-607 788q47 0 75 35.5t28 97.5q0 51-21 154-10 53-21.5 90t-26.5 60.5q-15 23.51-35 34t-47 10.5q-25 0-45-11a102.18 102.18 0 0 1 -34-30.5q-14-19.5-21.5-46a210.47 210.47 0 0 1 -7.5-57.5q0-146 42-241 43-96 114-96zm1945 517q0 66-30.5 106.5t-78.5 40.5q-42 0-72.5-31.5t-41.5-85.5q-16-78-26.5-134.5t-10.5-97.5q0-61 28-97t76-36q85 0 121 118 35 119 35 217zm-1837-892 3 32a76.32 76.32 0 0 1 -3 27 196.54 196.54 0 0 1 -11 29q-14 28-14 50 0 97 78 95l51-2q36-1 61.5 12a129.31 129.31 0 0 1 43.5 36q35 45 98 51l73-4q60-4 89.5 39.5t29.5 128.5q0 19 1 35.5t5.5 28.5a42.18 42.18 0 0 0 13.5 19q9 7 26 7 8 0 26.5-11t29.5-43l16-52q19-60 30-91.5t11-38.5l-4-39a120.33 120.33 0 0 1 7-40 158.1 158.1 0 0 1 19.5-38 170.26 170.26 0 0 1 29.5-32.5 154.35 154.35 0 0 1 37-23.5l22-9q10-3 15-14a167.12 167.12 0 0 1 16-33 204.22 204.22 0 0 1 24-31 86.22 86.22 0 0 0 -32-22q-63-21-76-70-11-38-48-58t-82-20l-52 7a71.8 71.8 0 0 1 -29.5-6 94.71 94.71 0 0 1 -25.5-17q-18-17-31.5-26a142.67 142.67 0 0 0 -24.5-13.5 63.88 63.88 0 0 0 -21-5q-10-.5-23-.5a35.29 35.29 0 0 0 -14 3q-7 3-16 7a139.66 139.66 0 0 1 -20 7 95.18 95.18 0 0 1 -25 3 97.85 97.85 0 0 1 -21-2q-9-2-15.5-4l-13-4-13.5-2q-28 0-56 18-30 17-54 17l-49-6q-82 19-82 95zm733 309 4 40q0 29-9 42-11 17-11 32 0 30 25 51l9 2q42 0 62 62a145.74 145.74 0 0 0 37 18q48 1 74.5 32t41.5 93a391.74 391.74 0 0 0 12 41.5q6 16.5 13 26t16 13q9 3.49 22 3.5 12 0 20-2.5t13.5-11.5q5.51-9 8-26t3.5-45q2-98 35.5-138t83.5-36l67 6h7q65-6 89-41 43-62 106-59l57 3q37 2 58-23.5t21-71.5q0-16-23-79l-6-27 4-43q0-75-82-96l-19 3-30 4q-26 0-51-15-38-22-58-22a67.14 67.14 0 0 0 -29.5 6.5q-13.5 6.5-33.5 6.5a127.27 127.27 0 0 1 -26-2.5 74.4 74.4 0 0 1 -21-7.5 65.22 65.22 0 0 0 -19-7 97.27 97.27 0 0 0 -19-2 125.64 125.64 0 0 0 -36.5 5 92.38 92.38 0 0 0 -30.5 16l-8 10q-32 37-72 37l-52-8q-24 0-69 16-26 14-39 29-6 7-13 21.5t-17 35.5q-8 21-31 30-36 17-60 33t-24 45zm-27 248 3-12q-11-6-25-19-3 10-6.5 23a185.56 185.56 0 0 1 -10 27.5 162.8 162.8 0 0 1 -17.5 29.5q-11 15-29 30l-8 44-6 45-50 312q-8 45-22.5 76.5t-38 50.5q-23.5 19-57 27.5t-79.5 8.5q-65 0-163-19-99-20-150-61.5t-51-100.5l4-39 70-460q2-62 27-62 5 0 17.5 3t30.5 11q112 46 276 64l-2-60q-1-14-2-27.5a99.49 99.49 0 0 0 -4.5-24q-3.5-10.5-11-16t-21.5-4.5l-67 5a151.85 151.85 0 0 1 -47.5-3.5 241.23 241.23 0 0 1 -44.5-15 193.25 193.25 0 0 1 -38-22.5q-17-13-27-27l-19-25q-8-3-12-5a16.17 16.17 0 0 0 -7-2h-14l-51 2q-31 1-55-9a166.48 166.48 0 0 1 -44-27 162.13 162.13 0 0 1 -28.5 6.5 197.79 197.79 0 0 1 -23.5 1.5q-66 0-105 30t-64 92q-12 30-23 78t-20 114q-10 66-14 109.5t-4 65.5a420.17 420.17 0 0 0 2.5 46.5 168.43 168.43 0 0 0 10 42 93.36 93.36 0 0 0 22.5 34q15 14.51 40 23.5l23 8q70 18 99.5 60t29.5 92l-6 58q0 41 40.5 71t133.5 55q94 24 167.5 35t130.5 11q109 0 156-31 46-32 71-102 26-68 67-339 15-97 26-166.5t21-112.5zm1194 398q0-19-1-38t-3-39q-2-20-9.5-62t-19.5-107q-22-128-56-177-32-48-97-64a329 329 0 0 0 -44.5-3q-22.5 0-51.5-8-17 17-42 27t-57 9l-50-2q-26 0-45 19l-16 21q-9 11-24.5 21.5a209 209 0 0 1 -35.5 19 270.76 270.76 0 0 1 -43 14 192.89 192.89 0 0 1 -45 5.5l-62-5q-21 0-28 7-15 14-15 46v22l-3 57a850.74 850.74 0 0 0 114-17 1057.58 1057.58 0 0 0 105-29q91-32 104-32 8 0 14 7.5t9.5 19.5a187.85 187.85 0 0 1 5.5 26 191.4 191.4 0 0 1 2 27l62 401 8 80q0 88-116 134-113 47-248 47-85 0-133-36t-64-127l-33-191-31-211q-48-34-71-142l-13-39-19-2q2 26 6 49t9 45l18 82q30 241 60 388.5t58 198.5q28 52 69 72 22 11 56 16t83 5q63 0 136-11.5t165-36.5q91-25 132-55t39-67l-4-63q-5-58 30-95.5t101-54.5q31-12 49.5-26t28.5-32q10-18 13-41a414.21 414.21 0 0 0 3-53zm80-1q0 189-155 228-36 9-55 28.5t-17 48.5l4 61q2 29-7.5 53a156.41 156.41 0 0 1 -26.5 44 196.18 196.18 0 0 1 -41 36 421.18 421.18 0 0 1 -51 29q-28 13-76 28t-117 31q-69 15-127 21.5t-104 5.5q-72-2-126.5-15.5t-91.5-43.5q-71-56-104-201-14-62-35-183t-47-304q-5-37-16.5-85.5a757.4 757.4 0 0 1 -16.5-96.5l-37 244q-17 112-33 191.5t-35 130.5q-18 50-44.5 84.5a219.22 219.22 0 0 1 -63 56q-36.5 21.49-84 31t-108.5 9.5q-33 0-65.5-2.5t-67.5-7.5q-35-5-74.5-12.5t-86.5-18.5q-92-22-141-48a382.92 382.92 0 0 1 -45-28.5 191.63 191.63 0 0 1 -36.5-35 161.54 161.54 0 0 1 -24.5-43q-9-23.51-9-52.5l6-60q0-29-17.5-48.5t-53.5-27.5q-75-18-116.5-75.5t-41.5-151.5q0-23 4-65t13-105q8-63 17-109t18-76q10-29 21-55a375.36 375.36 0 0 1 25-49 265.54 265.54 0 0 1 31.5-42 170.13 170.13 0 0 1 42.5-33q25-14 60-23.5t84-13.5a192 192 0 0 1 -12-66 111.79 111.79 0 0 1 2.5-21.5q2.5-12.5 6.5-26t8.5-26q4.5-12.5 7.5-21.5l4-11-4-43q0-69 48-120 47-53 113-53l45 6 18-5q17-11 29.5-17.5a120 120 0 0 1 23.5-9.5 128.86 128.86 0 0 1 21-4q10-1 22-1 25 0 40 6.5t23 6.5q9 0 27-9.5t48-9.5q84 0 157 68 35-8 50-8 57 0 116 30 29 15 47.5 32t26.5 38l16 41q29 15 52 25.5t43 35.5q66-20 99-20a197.79 197.79 0 0 1 23.5 1.5 122.73 122.73 0 0 1 26.5 6.5l5-3 10-11q46-54 143-54 14 0 32.5 4.5t41.5 15.5q21-8 37-11a154.53 154.53 0 0 1 28-3q44 0 94 30l12 6 52-6q65 0 112 54a208.65 208.65 0 0 1 37.5 56 126.32 126.32 0 0 1 10.5 64l-2 36 4 19q23 48 23 94 0 31-11 66l66 5q71 16 113 58.5t67 104.5q25 62 47 201 11 70 16.5 119.5t5.5 79.5z"/></svg>