<svg viewBox="0 0 2454 1769" xmlns="http://www.w3.org/2000/svg"><path d="m2334 576a276.24 276.24 0 0 0 -6-56l-9-44q-41-186-141.5-278.5t-252.5-92.5a494.34 494.34 0 0 0 -92 8.5 484.24 484.24 0 0 0 -90 26.5 572.16 572.16 0 0 0 -82.5 38.5 397.82 397.82 0 0 0 -69.5 50.5q-62 54-62 99l6 25 15 47q6 36 23 36a71.65 71.65 0 0 0 37-10 301.65 301.65 0 0 1 34.5-17.5 387.92 387.92 0 0 1 40.5-15 414.22 414.22 0 0 1 41-10.5 185.08 185.08 0 0 1 36-4q25 0 25 27 0 19-18 26a604.87 604.87 0 0 0 -63 30 484.11 484.11 0 0 0 -60 39q-12 9-25 18a230.79 230.79 0 0 0 -23.5 18.5 116.89 116.89 0 0 0 -17.5 19.5q-7 10-7 20l6 54-7 93 4 16a76.29 76.29 0 0 0 13-3.5 57.66 57.66 0 0 0 14-7.5l29-13 89-37q125-52 226.5-80t185.5-28q115 0 154 43 11 13 22 13 9 0 17-11t8-40zm-639 384-82 5q-122 6-122 36 0 8 8 18 55 65 102.5 149t70.5 192l9 45q7 32 13.5 61t13.5 51q7 22 14.5 35t16.5 13a69.69 69.69 0 0 0 32.5-7.5 100.94 100.94 0 0 0 26.5-20 158.23 158.23 0 0 0 22-29.5q10-17 20-35 20-38 33-61t20-30q17-17 37.5-23.5a133.6 133.6 0 0 1 40.5-6.5q31 0 65.5 11t72.5 34q23 13 40 13 25 0 25-30 0-23-40-105a654.59 654.59 0 0 0 -46.5-78.5 767.67 767.67 0 0 0 -60.5-76.5 634.16 634.16 0 0 0 -70-67.5 454.09 454.09 0 0 0 -78-52 359.69 359.69 0 0 0 -86.5-32q-45.5-10.5-97.5-8.5zm-234-361q0-60-21-120-19-60-50-88a203 203 0 0 0 -35.5-23 173.18 173.18 0 0 0 -42.5-15q-24-5-64-8t-98-3q-64 0-93 10a164.34 164.34 0 0 0 -44 56q-16 33-24 79-4 23-8.5 47.5t-7.5 45.5q-3 21-5 36.5t0 22.5q0 115 52 176t150 61a348.69 348.69 0 0 0 66.5-6.5 429.48 429.48 0 0 0 64-17.5 319.7 319.7 0 0 0 57-27q26.51-16 45.5-34 58-80 58-192zm-499 402q0-32-121-36l-83-5a364.51 364.51 0 0 0 -131 18q-64 21-125 70-29 24-56.5 51.5a554.8 554.8 0 0 0 -51.5 59.5q-23 31-44 63a598.25 598.25 0 0 0 -38 67q-17 34-25 57t-8 36q0 28 25 28 18 0 41-13 38-23 72.5-34t65.5-11q41 0 70 24 13 12 29.5 36t33.5 60q44 93 98 93 9 0 17-13t15.5-35a494.5 494.5 0 0 0 14-51q6.5-29 12.5-61l8-45q31-103 74-187.5t98-153.5q9-10 9-18zm-664-430q62-2 139.5 15.5t171.5 49.5q189 65 242 93a57.66 57.66 0 0 0 14 7.5 76.29 76.29 0 0 0 13 3.5l4-16-8-93 7-52q0-11-7-21.5a99.83 99.83 0 0 0 -18-20q-11-9.5-24-19t-24-17.5a395.86 395.86 0 0 0 -60-39.5 675.37 675.37 0 0 0 -63-29.5q-19-8-19-26a27.89 27.89 0 0 1 7-19 22.85 22.85 0 0 1 18-8q28 0 60.5 11t58.5 19q15 5 34 16t36 11q19 0 20-19l7-33q16-45 16-57 2-30-33-68.5t-92-73q-57-34.5-128-58t-142-22.5q-71 2-135 24t-111 63q-46 39-84 104-37 65-59 151-11 45-15.5 77t-4.5 53q0 21 6.5 35.5t18.5 14.5q10 0 21-13 17-20 50-31t83-12zm2156 50a624 624 0 0 1 -4 71 408.61 408.61 0 0 1 -14 69q-13 95-115 160a437.76 437.76 0 0 1 -108 49q-57 17-123 15l-72-3q133 105 212 249 38 72 58 146a572.58 572.58 0 0 1 20 150q0 20-16.5 37t-37.5 17l-15-2q-40-14-80-39-115-65-156-65-33 0-71 41t-93 133a313.42 313.42 0 0 1 -34 46.5 408.83 408.83 0 0 1 -38 38q-19 16.5-37.5 26t-33.5 9.5q-46 0-70-73-11-35-21-72t-18-73q-40-178-66-262-13-42-27.5-78.5t-31.5-70.5q-34-67-95.5-101.5a266.45 266.45 0 0 0 -132.5-34.5q-114 0-193 67-38 34-78 127-39 92-96 355-15 71-29.5 115t-26.5 64q-23 37-55 37t-71-33.5q-39-33.5-69-86.5-52-91-90.5-132.5t-72.5-41.5q-46 0-159 65a509.53 509.53 0 0 1 -79 39l-17 2q-21 0-37-17t-16-37q0-149 77-293a716 716 0 0 1 91.5-135.5 878.14 878.14 0 0 1 121.5-116.5l-73 3q-78 3-142.5-19.5a365 365 0 0 1 -116.5-66.5q-103-85-103-276 0-167 72-323 73-158 187-229t276-71a603.49 603.49 0 0 1 145 17.5 574 574 0 0 1 250.5 133 527.19 527.19 0 0 1 92.5 110.5q31-13 75-20t103-7q114 0 153 10 42 9 74 31l26-41a468 468 0 0 1 77.5-93.5q45.5-42.5 110.5-74.5a663.17 663.17 0 0 1 133.5-49q68.5-17 143.5-17 80 0 147 17.5a455.62 455.62 0 0 1 124 52.5q114 69 189 227 75 159 75 324z"/></svg>