<svg viewBox="0 0 1760 1954" xmlns="http://www.w3.org/2000/svg"><path d="m1642 977q0-214-115-417-58-103-133-182.5a888.17 888.17 0 0 0 -169-139.5q-94-60-191-92a556.78 556.78 0 0 0 -198-28 587.61 587.61 0 0 0 -189.5 39q-90.5 35-174.5 95a811.29 811.29 0 0 0 -148.5 136q-65.5 77-112.5 174-93 194-93 415t93 413q47 97 112 175a792.78 792.78 0 0 0 149 138q85 61 175.5 93.5a703.25 703.25 0 0 0 188.5 39.5q218-13 405-131t294-313q107-196 107-415zm-810-977h8q123 0 236.5 40t220.5 107q109 67 192 155t146 199q125 221 125 476 0 257-125 477-122 219-336 353-108 67-222 107t-237 40h-8a596.55 596.55 0 0 1 -216-40q-104-40-200-105-190-130-303-353-113-222-113-479 0-127 27.5-243.5t82.5-227.5q54-110 129.5-198.5a918.82 918.82 0 0 1 172.5-156.5q97-69 201-110t219-41z"/></svg>