<svg viewBox="0 0 2048 2188" xmlns="http://www.w3.org/2000/svg"><path d="m1854 937h20q96 0 96-36 0-14-9-27.5a101.6 101.6 0 0 0 -23.5-24.5 117 117 0 0 0 -34-17.5 127.32 127.32 0 0 0 -40.5-6.5 113.25 113.25 0 0 0 -36 6 104.77 104.77 0 0 0 -31.5 16.5 93.52 93.52 0 0 0 -22 24 54.26 54.26 0 0 0 -8.5 29.5q0 24 31 30a306.19 306.19 0 0 0 58 6zm-468 123 361 208a745.71 745.71 0 0 0 35.5-78 759.09 759.09 0 0 0 26.5-82q-58-18-93.5-65t-35.5-109q0-68 44-120l-303 53 2 30a283.68 283.68 0 0 1 -8.5 84 437.85 437.85 0 0 1 -28.5 79zm483 417q0-15-9.5-29a102.26 102.26 0 0 0 -24.5-25 129 129 0 0 0 -74-24 108.21 108.21 0 0 0 -37 6.5 106.81 106.81 0 0 0 -31.5 17.5 101.2 101.2 0 0 0 -22 24.5 52.61 52.61 0 0 0 -8.5 28.5q0 12 8.5 18.5t23.5 10.5a168 168 0 0 0 34.5 5q19.5 1 41.5 1 99 0 99-34zm-167-144-354-205q-64 86-151 127l142 392a857.16 857.16 0 0 0 127-68 804.53 804.53 0 0 0 114-90q5-54 38.5-96a185.18 185.18 0 0 1 83.5-60zm-281 533q0-15-9.5-29a102.26 102.26 0 0 0 -24.5-25 124.38 124.38 0 0 0 -34.5-17.5 127.32 127.32 0 0 0 -40.5-6.5 101.33 101.33 0 0 0 -35.5 6.5 115.57 115.57 0 0 0 -31 17 83.24 83.24 0 0 0 -21.5 24.5q-8 14-8 28 0 21 25 28.5t82 7.5q98 0 98-34zm-275-515 62 337 56-14zm-254 647h271q-32-43-32-101 0-42 20-82l-7-34q-29 4-58.5 6t-60.5 2q-32 0-62-2t-59-6a157.62 157.62 0 0 1 23 48.5 197.28 197.28 0 0 1 7 52.5 185.71 185.71 0 0 1 -10 61q-10 29-32 55zm-37-146q0-12-7-26a81.57 81.57 0 0 0 -20.5-25.5q-13.5-11.5-33.5-19t-46-7.5a98.73 98.73 0 0 0 -34.5 6.5 115.84 115.84 0 0 0 -31.5 17.5 106 106 0 0 0 -23 24.5 50.55 50.55 0 0 0 -9 28.5q0 12 5.5 18.5t18 10.5q12.5 4 33.5 5t52 1q96 0 96-34zm-146-205 142-392q-87-41-151-127l-354 205a185.18 185.18 0 0 1 83.5 60q33.5 42 38.5 96a804.53 804.53 0 0 0 114 90 857.16 857.16 0 0 0 127 68zm-318-171q0-31-35-54-37-23-70-23a119.39 119.39 0 0 0 -38 6 111.76 111.76 0 0 0 -32 16.5 80.55 80.55 0 0 0 -22 24.5 59.5 59.5 0 0 0 -8 30q0 21 23 28t85 7q97 0 97-35zm-152-368q12 42 27 82a679.93 679.93 0 0 0 35 78l361-208a437.85 437.85 0 0 1 -28.5-79 283.68 283.68 0 0 1 -8.5-84l2-30-304-53q46 50 46 119 0 62-36 109.5t-94 65.5zm-50-171q101 0 101-36l-1-8q-13-36-44.5-52t-63.5-16a104.06 104.06 0 0 0 -36.5 6.5 107.78 107.78 0 0 0 -30.5 17 86.4 86.4 0 0 0 -21 24.5q-8 14-8 28 0 9 5 15a35.54 35.54 0 0 0 12.5 9.5 82.21 82.21 0 0 0 16 5.5 65.19 65.19 0 0 0 14.5 2 162.18 162.18 0 0 0 22.5 3q13.5 1 33.5 1zm122-430a790.76 790.76 0 0 0 -47.5 103 905.42 905.42 0 0 0 -32.5 106l411 73q26-97 97-170l-96-115q-22 49-66 78.5t-101 29.5q-57 0-99.5-29a193.08 193.08 0 0 1 -65.5-76zm162-187a104.4 104.4 0 0 0 -35 6 123.91 123.91 0 0 0 -31 16 81.18 81.18 0 0 0 -22.5 24 56.77 56.77 0 0 0 -8.5 30q0 22 23 28.5t84 6.5q98 0 98-33 0-16-9.5-30.5a91.79 91.79 0 0 0 -24.5-25 122.51 122.51 0 0 0 -34.5-16.5 133.63 133.63 0 0 0 -39.5-6zm388-219q-92 20-173.5 56.5a746.07 746.07 0 0 0 -153.5 92.5l2 4q49 17 81 55t41 89l141 169q86-57 186-67v-137a178.6 178.6 0 0 1 -57.5-24 198.56 198.56 0 0 1 -46-40.5 181.68 181.68 0 0 1 -30.5-53 177.51 177.51 0 0 1 -11-62.5q0-41 21-82zm160-26a106 106 0 0 0 -34.5 6 113.38 113.38 0 0 0 -31 16 83.89 83.89 0 0 0 -22 24 56.77 56.77 0 0 0 -8.5 30q0 22 22 29t85 7q98 0 98-34 0-14-8-28a83.4 83.4 0 0 0 -22.5-25 125.16 125.16 0 0 0 -34.5-18q-20-7-44-7zm166 24q21 42 21 84a177.51 177.51 0 0 1 -11 62.5 181.68 181.68 0 0 1 -30.5 53 198.56 198.56 0 0 1 -46 40.5 178.6 178.6 0 0 1 -57.5 24v137q100 10 186 67l142-169q8-51 40-89t81-55l4-4q-152-114-329-151zm490 297a54 54 0 0 0 -9.5-31 86.21 86.21 0 0 0 -25-24 128.36 128.36 0 0 0 -35-15.5 141.21 141.21 0 0 0 -38.5-5.5 101.33 101.33 0 0 0 -35.5 6.5 115.57 115.57 0 0 0 -31 17 90.33 90.33 0 0 0 -22 24.5q-8.51 14-8.5 28 0 10 4.5 16.5t16 11q11.51 4.5 32 6.5t52.5 2q100 0 100-36zm-529 526 169 98a457.43 457.43 0 0 0 21.5-64.5q7.5-30.5 4.5-58.5l-1-16-193 34zm-45 74 67 184a315.49 315.49 0 0 0 108-91l-170-98zm-147 496-38 211 107 7a326.88 326.88 0 0 0 46.5-1.5l58.5-5.5-38-211zm-56-577-194-34-1 16a186.87 186.87 0 0 0 4.5 62.5 328.65 328.65 0 0 0 21.5 60.5l169-98zm17-85-126-149q-52 53-71 122l193 34zm68-53v-196a305.82 305.82 0 0 0 -70.5 16 291.26 291.26 0 0 0 -63.5 32l126 150zm272-96-126 149 4 7 193-34q-19-69-71-122zm-186 98 126-150a291.26 291.26 0 0 0 -63.5-32 305.82 305.82 0 0 0 -70.5-16v196zm-46 340-18 95 18 2 16-2zm31 175-31 1-33-1-22 117h108zm-154 56-118 324 56 14zm-24-170 67-184-5-5-170 98a315.49 315.49 0 0 0 108 91zm861-673a199.47 199.47 0 0 1 -67 76q-43 29-100 29t-101-29.5q-44-29.5-66-78.5l-96 115q71 73 97 170l411-73a885.48 885.48 0 0 0 -78-209zm309 427a181.24 181.24 0 0 1 -12 66 183.08 183.08 0 0 1 -33 55 173.62 173.62 0 0 1 -50.5 39.5 197.13 197.13 0 0 1 -63.5 20.5 862 862 0 0 1 -83 213 191 191 0 0 1 56.5 24.5 188.61 188.61 0 0 1 44.5 40 179.73 179.73 0 0 1 40 114.5q0 77-55 131-54 54-130 54-57 0-101-30a187.26 187.26 0 0 1 -66-78 971.1 971.1 0 0 1 -227 137 168.45 168.45 0 0 1 53 25 189.28 189.28 0 0 1 41.5 40 176.38 176.38 0 0 1 27 51.5 187 187 0 0 1 9.5 59.5q0 77-53 130t-130 53q-14 0-24-1a106.56 106.56 0 0 1 -20-4v74q0 17-12.5 28a41.94 41.94 0 0 1 -28.5 11h-414a43.81 43.81 0 0 1 -28-9.5q-12-9.49-12-29.5v-85l-27 3q-78 0-132-54-53-53-53-131 0-55 29.5-99.5t75.5-66.5a889.3 889.3 0 0 1 -113.5-59 814.22 814.22 0 0 1 -102.5-75 196.61 196.61 0 0 1 -67 79.5q-44 30.5-101 30.5-78 0-131-54-54-53-54-131a180.71 180.71 0 0 1 10.5-62 187.53 187.53 0 0 1 29-52.5 176.37 176.37 0 0 1 44.5-40 197.75 197.75 0 0 1 57-24.5 862 862 0 0 1 -83-213 169.33 169.33 0 0 1 -62-20 186.58 186.58 0 0 1 -50.5-40.5 192.63 192.63 0 0 1 -34-55.5 174.9 174.9 0 0 1 -12.5-66 177.51 177.51 0 0 1 11-62.5 181.68 181.68 0 0 1 30.5-53 193.36 193.36 0 0 1 45.5-40 197.75 197.75 0 0 1 57-24.5l1-11a690.69 690.69 0 0 1 53.5-191.5 988.89 988.89 0 0 1 101.5-176.5q22-79 98-112 112-127 261.5-188t320.5-69a127.42 127.42 0 0 1 22.5-4q11.5-1 22.5-1l45 5a1605 1605 0 0 1 165.5 28.5 1005.65 1005.65 0 0 1 156.5 49 774.24 774.24 0 0 1 140.5 74.5 598.66 598.66 0 0 1 118.5 105q74 33 97 112a1122.77 1122.77 0 0 1 101.5 173.5q42.5 90.5 53.5 193.5l1 12a197.75 197.75 0 0 1 57 24.5 189.1 189.1 0 0 1 76 94 177.51 177.51 0 0 1 11 62.5z"/></svg>