<svg viewBox="0 0 2428 2295" xmlns="http://www.w3.org/2000/svg"><path d="m1639 973q0-45 50-45 51 0 51 44 0 23-16 35.5a57 57 0 0 1 -36 12.5q-43 0-49-47zm271 47a57 57 0 0 1 -36-12.5q-16-12.5-16-35.5 0-44 49-44 28 0 40 14t12 31a43.91 43.91 0 0 1 -14.5 33.5 48.91 48.91 0 0 1 -34.5 13.5zm418 742q0-100-142-227-33-29-49-63l-144 99 37 40a334.44 334.44 0 0 0 37.5 34 225.87 225.87 0 0 0 47.5 28q46 22 68.5 45t22.5 53q0 53-64 53-71 0-135-67-65-68-78-142l-59 41q-26 17-62 17t-61-17l-77-54q-3 34-23.5 73.5a344.2 344.2 0 0 1 -51.5 73.5 283.09 283.09 0 0 1 -68.5 55.5q-37.5 21.5-73.5 19.5-32-2-48.5-14.5t-16.5-40.5q0-32 22.5-53.5t70.5-43.5q54-23 88-66 9-11 20-22a173.44 173.44 0 0 1 24-20l-148-101q-22 42-62 78-136 123-136 221 0 32 11 57.5a126.62 126.62 0 0 0 30.5 43.5 139.74 139.74 0 0 0 46 28q26.51 10 57.5 10 57 0 128-40 35-20 58.5-42.5t37.5-46.5q21-37 33-50.5t23-13.5q10 0 15 11 6 21 16 32.5a65.42 65.42 0 0 0 22 17 73 73 0 0 0 25 6.5q13 1 27 1 74 0 85-40a49.74 49.74 0 0 0 7.5-17.5q2.5-10.5 13.5-10.5 12 0 24.5 14t32.5 50q25 46 93 88 71 41 130 41 34 0 61-11t46-29.5a118 118 0 0 0 28.5-44 154.93 154.93 0 0 0 9.5-54.5zm-844-409-4 14q0 11 10 18l301 206 17 5 18-5 281-192q11-8 11-25l-2-10q0-2-14.5-24t-49.5-47.5q-35-25.5-93-46.5t-145-21q-90 0-153 19.5t-102 43q-39 23.51-57 43.5t-18 22zm69-388q0 63 31 111.5t85 73.5l15 6q72-9 90-9 84 0 140 9 131-65 131-191 0-66-33-122.5t-90-91.5q-56 21-120 21-68 0-126-21-57 35-90 91.5t-33 122.5zm112-542q0 21-21 45-30 51-30 77a77.36 77.36 0 0 0 14 44.5q14 20.5 39 36t59.5 24q34.5 8.5 75.5 8.5 78 0 125.5-31t47.5-85q0-48-30-85-13-16-13-34 0-15 15-23 49-26 88-74 40-48 40-85 0-23-15-42t-38-19q-46 0-77 67l-7 26a341.93 341.93 0 0 1 -12.5 41 332.24 332.24 0 0 1 -15.5 35.5q-8 15.5-17.5 25.5t-19.5 10a22.85 22.85 0 0 1 -18-8q-7-8-7-20a166.69 166.69 0 0 1 3.5-32.5l7.5-37.5 7.5-42.5q7.5-42.5 3.5-47.5a163.14 163.14 0 0 0 -4-36.5 99.12 99.12 0 0 0 -12.5-31 67.75 67.75 0 0 0 -22.5-22q-14-8.5-34-8.5-67 0-67 105a349.77 349.77 0 0 0 4.5 54.5q4.5 28.5 10.5 57.5l7 32q0 34-26 34-34 0-56-75-11-37-21-61.5t-21.5-39q-11.5-14.5-25-20.5a71.8 71.8 0 0 0 -29.5-6q-25 0-39 19a69.22 69.22 0 0 0 -14 42l2 19q21 69 102 125a119.38 119.38 0 0 0 13 7.5 119.38 119.38 0 0 1 13 7.5 47.58 47.58 0 0 1 10.5 9.5 20.64 20.64 0 0 1 4.5 13.5zm-505 1339q0-101-135-221a324.45 324.45 0 0 1 -28.5-28 235.64 235.64 0 0 1 -23-30.5 317.12 317.12 0 0 1 -20-37q-9.5-20.5-19.5-49.5-22-67-44-95-39-51-105-71-78 33-157 33-88 0-155-33-71 21-109 77a354.63 354.63 0 0 0 -19.5 35.5q-10.5 21.5-21.5 53.5-24 68-41 93-9 12-20.5 25t-26.5 27q-137 123-137 221 0 32 11 57.5a126.62 126.62 0 0 0 30.5 43.5 139.74 139.74 0 0 0 46 28q26.5 10 57.5 10 58 0 129-40 35-20 58.5-42.5t37.5-46.5q20-37 32.5-50.5t23.5-13.5q10 0 15 11 6 21 15.5 32.5a60.72 60.72 0 0 0 21.5 17 73.77 73.77 0 0 0 25.5 6.5q13.5 1 27.5 1 74 0 85-40a66.4 66.4 0 0 0 6.5-17.5q2.5-10.5 14.5-10.5t24.5 14q12.5 14 32.5 50 12 21 34.5 43t57.5 43q68 43 131 43 34 0 61-11t46-29.5a118 118 0 0 0 28.5-44 154.93 154.93 0 0 0 9.5-54.5zm-774-831-3 34q-4 45 15 83t53 70q68 62 177 62 53 0 96-15.5a260.67 260.67 0 0 0 79-45.5q36-29 55.5-67.5t15.5-86.5l-3-34q-13-11-38.5-28.5t-63.5-40.5q-34-20-59.5-37.5t-40.5-34.5a243.43 243.43 0 0 1 -18.5-24.5q-10.5-15.5-22.5-15.5-8 0-17 11-20 28-55.5 57.5t-90.5 61.5q-54 31-79 51zm2042 841q0 71-41 126-40 54-86 64-73 17-88 30l-20 14q-9 4-36.5 9t-76 9.5q-48.49 4.5-119 7.5t-164.5 3q-101 0-173-3t-117-8q-44-5-70-10t-34-8l-19-14q-12-11-61-22-78-15-110-65-32 50-108 65-49 11-60 22l-20 14q-9 4-36.5 9t-76 9.5q-48.5 4.5-119 7.5t-164.5 3q-185 0-281.5-10.5t-112.5-18.5l-19-14q-15-13-90-30-50-11-88-64-38-54-38-127 0-64 27-116.5t92-109.5q22-20 38-37a437.54 437.54 0 0 0 29-34q26-35 53-93 14-30 29-57a403.8 403.8 0 0 1 34-51.5 332 332 0 0 1 43.5-46 435.12 435.12 0 0 1 56.5-41.5q-103-85-103-220l-4-45-4-37q0-132 126-214l-1-8q5-86 122-101-8-30-15-70.5t-13-93.5q-5-53-8-102t-3-95q0-80 13-97 12-18 38.5-27.5t71.5-9.5q128 0 133 57l3 34v48a1744 1744 0 0 1 -9.5 185 1578.43 1578.43 0 0 1 -27.5 171 354.91 354.91 0 0 1 44 10.5 143.82 143.82 0 0 1 37.5 17.5 82.23 82.23 0 0 1 26.5 29q10 18 12 44l-1 8q126 82 126 214a280.94 280.94 0 0 1 -2 31.5q-2 17.5-6 38.5 0 142-102 232 95 51 163 192 38 77 62 105a327.71 327.71 0 0 0 32.5 35.5l35 33 34 34q34 34 30.5 37.5a299.76 299.76 0 0 1 30.5-37 483.5 483.5 0 0 1 35.5-33q16-14 31.5-29a377.55 377.55 0 0 0 30.5-33.5 422.77 422.77 0 0 0 30.5-43.5q15.49-25 31.5-60l-1-9v-9a104.9 104.9 0 0 1 4-29 135.24 135.24 0 0 1 11-27q3-3 31-33t84-68l38-26q-28-25-46.5-50.5a240.9 240.9 0 0 1 -29.5-53.5 379.51 379.51 0 0 1 -78.5-37.5q-35.51-22.5-60.5-51a225.4 225.4 0 0 1 -39-62 181 181 0 0 1 -14-70.5q0-90 59.5-174.5t177.5-150.5a214.41 214.41 0 0 1 46-91l-37-28q-54-40-81-87.5t-27-106.5q0-61 34-95.5t95-34.5a74.18 74.18 0 0 1 21.5 3.5q11.51 3.5 22 7.5t20 7.5q9.5 3.5 15.5 3.5 11 0 14.5-8.5t6.5-16.5a122.14 122.14 0 0 1 20-35 143.75 143.75 0 0 1 30.5-28 156.08 156.08 0 0 1 38-19 127.57 127.57 0 0 1 41.5-7q45 0 81.5 25t44.5 71q1 8 2.5 15t13.5 7a41.91 41.91 0 0 0 17-4q9-4 19.5-9a199 199 0 0 1 22.5-9 81.67 81.67 0 0 1 26-4q61 0 95 35.5t34 93.5q0 130-141 220a190.77 190.77 0 0 1 23 40 264.88 264.88 0 0 1 16 52q241 136 241 327 0 74-51 132.5t-139 88.5a318.38 318.38 0 0 1 -78 104l22 14a378.83 378.83 0 0 1 47 28 306.7 306.7 0 0 1 74 72.5q14 19.5 20 37.5a88.06 88.06 0 0 1 8 36l-3 19a593.27 593.27 0 0 0 42.5 72.5 323.38 323.38 0 0 0 50.5 57.5q49 43 78 78.5t40 63.5q23 57 23 108zm-1051 343h843q14 0 23.5 9t9.5 23v115a32.45 32.45 0 0 1 -33 33h-843a29.15 29.15 0 0 1 -22-9.5q-9-9.49-9-23.5v-115q0-14 9-23a29.92 29.92 0 0 1 22-9zm-638-1095a55 55 0 0 1 -35.5-12.5q-15.5-12.5-15.5-35.5 0-44 49-44 28 0 39.5 14t11.5 31q0 20-14 33.5t-35 13.5zm-270-47q0-17 11.5-31t39.5-14q49 0 49 44 0 23-16 35.5a57 57 0 0 1 -36 12.5q-20 0-34-13.5t-14-33.5zm86 327h147q28 0 28 31l-45 334q-5 32-37 32h-39q-32 0-37-32l-45-334q0-31 28-31zm483 471q0 50-64 53-38 2-76.5-21a297 297 0 0 1 -70-58.5 326 326 0 0 1 -51-76.5q-19.5-41-18.5-74 1-46 23-46 32 0 92 72 14 17 38.5 33.5t66.5 36.5q60 28 60 81zm-561-223q25 0 25 43 0 44-33 102a345.62 345.62 0 0 1 -38 53 258.21 258.21 0 0 1 -45 41 228.29 228.29 0 0 1 -50 27 143.88 143.88 0 0 1 -52 10q-64 0-64-55 0-32 22.5-54.5t70.5-42.5q55-23 90-70 42-54 74-54zm-269 567h841q14 0 23.5 9t9.5 23v115a32.45 32.45 0 0 1 -33 33h-841a32.45 32.45 0 0 1 -33-33v-115q0-14 9.5-23t23.5-9z"/></svg>