<svg viewBox="0 0 2336 2463" xmlns="http://www.w3.org/2000/svg"><path d="m1425 1143q79 0 153 82 76 82 76 201 0 44-7.5 81.5t-17.5 66a500.89 500.89 0 0 1 -19 47.5q-9 19-12 26l-5 1-8-3q-174-120-232-247a223.52 223.52 0 0 1 -35.5 48.5 347.09 347.09 0 0 1 -49.5 42.5 371.73 371.73 0 0 1 -61 37 688.44 688.44 0 0 1 -73 30q-39 14-67.5 20t-46.5 6l-8-1-3-8q0-224 95-330-61-5-126.5-24.5t-136.5-51.5l-5-6 1-8q10-22 62-66a502.52 502.52 0 0 1 111.5-73 289.24 289.24 0 0 1 126.5-29q90 0 160 47 70 49 76 121 27-10 52-10zm-312-645q0-97 62-180 31-42 66.5-64t76.5-19l20 1-3-26q0-84 86-146 88-64 181-64 73 0 154 34 42 17 70.5 34t46.5 34l4 8-4 7q-63 51-123 86.5t-121 56.5q123 81 176 306l-2 8q-15 8-78 8-209 0-308-108-22 139-171 307l-7 4-7-4q-7 0-41-52a604.44 604.44 0 0 1 -55.5-112q-22.5-60-22.5-119zm-1074 119-1-10q0-8 4-22.5t12-37.5a562.65 562.65 0 0 1 41-92 352.4 352.4 0 0 1 45.5-62 323.26 323.26 0 0 1 59.5-51 282.61 282.61 0 0 1 73-34.5q40-12.5 88-12.5 105 0 149 75 35-35 101-35 28 0 61.5 11.5t71.5 32.5q78 42 117.5 125.5t39.5 195.5q0 33-2.5 53.5t-2.5 21.5l-4 7-10 1q-197-79-300-201 0 53-16 99.5a415.93 415.93 0 0 1 -40 85 466.2 466.2 0 0 1 -52 69q-28 30.5-52.5 51.5t-41.5 32q-17 11-18 11l-4 3-4-2-5-5q-44-118-44-226 0-77 23-138-117 51-280 57zm799 1570 277 193q111-75 194.5-216t136.5-339l16-62-245-112q-34 134-94 232-59 96-118 163-29 34-71 69t-96 72zm708-423q0 18-10.5 58t-30.5 104q-21 64-44 118.5t-48 102.5q-51 95-112.5 172.5t-139.5 130.5a60 60 0 0 1 -22.5 10.5 110.11 110.11 0 0 1 -23.5 2.5q-29 0-50-15l-275-191q-35-24-35-70 0-48 44-74 3-1 22.5-13.5t49-37.5q29.5-25 66-63.5t73.5-92q37-53.51 70-122.5t57-155q8-28 30-45.5a78.14 78.14 0 0 1 50-17.5 88.06 88.06 0 0 1 36 8l243 112q50 23 50 78zm472-283 235-198q-118-39-230-163a1092.32 1092.32 0 0 1 -106-138.5 1832.24 1832.24 0 0 1 -94-163.5l-27-55-201 142q20 76 44 140.5t56 118.5q62 106 134 178 71 71 189 139zm318-197q0 39-28 63l-236 198q-23 20-54 20-49 0-148-73-98-73-179-183a942.78 942.78 0 0 1 -73-114 1130.33 1130.33 0 0 1 -57-122q-50-122-50-168 0-43 36-70l200-140q19-15 49-15 23-1 44.5 12.5a86.13 86.13 0 0 1 32.5 36.5 1463.34 1463.34 0 0 0 84.5 158.5 1283.88 1283.88 0 0 0 103.5 144.5q114 136 218 170 23 8 40 30t17 52zm-2258 70 206 197a573.52 573.52 0 0 0 104-49 626.68 626.68 0 0 0 91-67 920.84 920.84 0 0 0 78-79.5 1037.26 1037.26 0 0 0 68-87.5q63-93 144-267l-187-99q-74 126-153 211-77 83-152 137-37 27-86.5 52.5t-112.5 51.5zm769-353q0 32-58 146-56 113-123 199a973.84 973.84 0 0 1 -67.5 79.5q-35.5 37.5-72.5 69.5a769.62 769.62 0 0 1 -72 57 549 549 0 0 1 -73 43q-69 35-97 35a81.47 81.47 0 0 1 -28.5-5q-13.5-5-25.5-17l-207-198q-23-21-23-57 0-26 15.5-46a82 82 0 0 1 38.5-28 680.28 680.28 0 0 0 135.5-66.5 886.69 886.69 0 0 0 124-95 969.29 969.29 0 0 0 109-118 1162.09 1162.09 0 0 0 91.5-135.5q22-39 68-39a81.82 81.82 0 0 1 37 9l186 97q42 23 42 70zm1165 1093q34 18 92 18 80 0 116-36 9 70 14.5 150t8.5 172q-47 33-108 33-67 0-115-33l2-67q1-52-2-111t-8-126zm-1379-1824q0-28 51-28a1491.26 1491.26 0 0 1 207 44q105 30 214 76a318.17 318.17 0 0 0 -27 93q-104-54-206.5-91a1588.34 1588.34 0 0 0 -204.5-59q-34-7-34-35zm1576 1720q-38 33-94 33-39 0-111-18-9-99-27-199t-44-204a213.83 213.83 0 0 0 57 8q81 0 129-39 63 210 90 419zm-695-1193q-29-32-62-64.5t-71-66.5a450.23 450.23 0 0 0 31-56.5q13-28.5 24-57.5 47 34 94.5 75t98.5 92q-54 65-115 78z"/></svg>