<svg viewBox="0 0 1952 2039" xmlns="http://www.w3.org/2000/svg"><path d="m1752 1093v-256h-202v256zm0 409v-257h-202v257zm-338-409v-256h-202v256zm0 409v-257h-202v257zm-258-1111v-52a31.93 31.93 0 0 0 -9.5-23.5q-9.5-9.5-24.5-9.5h-54q-13 0-23.5-9.5a30.43 30.43 0 0 1 -10.5-23.5v-54q0-33-33-33h-50a37.77 37.77 0 0 0 -24.5 8.5q-10.5 8.5-10.5 24.5v54a31.93 31.93 0 0 1 -9.5 23.5 30.75 30.75 0 0 1 -22.5 9.5h-55a32.45 32.45 0 0 0 -33 33v52a32.45 32.45 0 0 0 33 33h55a31.6 31.6 0 0 1 22.5 9q9.5 9 9.5 25v53q0 14 10.5 24a34.4 34.4 0 0 0 24.5 10h50q16 0 24.5-10a35.83 35.83 0 0 0 8.5-24v-53q0-16 10.5-25a35.2 35.2 0 0 1 23.5-9h54q15 0 24.5-9.5a31.93 31.93 0 0 0 9.5-23.5zm-79 702v-256h-202v256zm0 409v-257h-202v257zm-338-409v-256h-201v256zm0 409v-257h-201v257zm-338-409v-256h-201v256zm0 409v-257h-201v257zm1096-952h294q66 0 113 47 48 48 48 114v1328h-704v-212q0-38-26.5-64t-64.5-26h-362q-38 0-64.5 26t-26.5 64v212h-704v-1328q0-66 48-114 47-47 113-47h294q106 0 106-88v-301q0-66 48-113 46-48 113-48h508q66 0 113 48 48 47 48 113v301q0 88 106 88z"/></svg>