<svg viewBox="0 0 2136 1868" xmlns="http://www.w3.org/2000/svg"><path d="m2039 416q0-10-6-20.5a82 82 0 0 0 -15-19 79.69 79.69 0 0 0 -20.5-14 51.9 51.9 0 0 0 -22.5-5.5 128.86 128.86 0 0 0 -40 6.5 135.1 135.1 0 0 1 -42 6.5q-18 0-18-12 0-10 16.5-15.5a354.35 354.35 0 0 0 36-14.5 124.82 124.82 0 0 0 36-25.5q16.5-16.5 16.5-49.5 0-24-19-42a63.24 63.24 0 0 0 -45-18q-23 0-44 28-20 30-38 30-15 0-15-12l6-12q26-43 26-74 0-55-55-55a137.27 137.27 0 0 0 -23.5 2 53.9 53.9 0 0 0 -22.5 10q-11 8-21 23.5t-19 42.5q-27 76-72.5 120.5t-111.5 56.5l-172 31q-5 23-8 44a213.67 213.67 0 0 0 -2 41q2 36 4.5 61.5t5.5 42.5q6 31 40 68l65-13 67-17q37-9 76-16t93-7q15 0 39.5 5.5t57.5 17.5q61 23 86 23a56 56 0 0 0 26.5-9 85.75 85.75 0 0 0 21.5-19.5 94.82 94.82 0 0 0 14-24.5 69.62 69.62 0 0 0 5-25q0-16-11-23a96.27 96.27 0 0 0 -24.5-11q-13.5-4-24.5-8t-11-14q0-13 15-13 20 0 35.5 5.5t35.5 5.5q79 0 79-82zm-1019 284q22 0 41-16.5t19-40.5a40.42 40.42 0 0 0 -6.5-21.5 75.82 75.82 0 0 0 -17-19 86.67 86.67 0 0 0 -52.5-18.5 54.39 54.39 0 0 0 -35 12q-15 12-15 40t20.5 46q20.5 18 45.5 18zm-44 245q24 0 41-15t17-40a64 64 0 0 0 -4.5-23.5 82.38 82.38 0 0 0 -12.5-21.5 64.65 64.65 0 0 0 -18.5-16 46.51 46.51 0 0 0 -23.5-6q-23 0-40 17a55.88 55.88 0 0 0 -17 41q0 23 15 43.5t43 20.5zm-154 216a94.66 94.66 0 0 0 6 32.5 109.44 109.44 0 0 0 16.5 30 87.5 87.5 0 0 0 25 22 59.38 59.38 0 0 0 30.5 8.5q20 0 34-12t14-32a103.34 103.34 0 0 0 -25-68.5 80.16 80.16 0 0 0 -25.5-19.5 67.17 67.17 0 0 0 -29.5-7q-20 0-33 11.5t-13 34.5zm-125 250a73.66 73.66 0 0 0 7 30.5 113.16 113.16 0 0 0 18.5 28.5 99.92 99.92 0 0 0 27 21.5 66.62 66.62 0 0 0 32.5 8.5q20 0 34-11.5t14-31.5a89.88 89.88 0 0 0 -7-35.5 95.09 95.09 0 0 0 -19-29 100.94 100.94 0 0 0 -26.5-20 63.57 63.57 0 0 0 -29.5-7.5 55 55 0 0 0 -35.5 12.5q-15.5 12.5-15.5 33.5zm-83-420q0 31 26 61 25 28 53 28 22 0 39-15.5t17-44.5q0-13-7.5-26a88.36 88.36 0 0 0 -20-23.5 120.27 120.27 0 0 0 -28-17.5 75.77 75.77 0 0 0 -31.5-7q-18 0-33 12t-15 33zm-138 589q0 28 27 56 27 29 59 29 20 0 33-14t13-34q0-29-28-59-30-30-59-30-21 0-33 15t-12 37zm298-855q-22 0-32.5 17.5t-10.5 39.5q0 45 21 63.5t42 18.5q18 0 36-16t18-45a62.09 62.09 0 0 0 -7-28 102.15 102.15 0 0 0 -17.5-25 90.77 90.77 0 0 0 -24-18q-13.5-7-25.5-7zm1362-308a209.35 209.35 0 0 1 -5 45.5 206.92 206.92 0 0 1 -14 42 180.28 180.28 0 0 1 -21 35q-12 15.5-25 23.5-17 10-29.5 28.5t-21.5 44.5q-12 35-53 65-41 31-77 31a271.48 271.48 0 0 1 -58.5-6.5 381.52 381.52 0 0 1 -57.5-17.5q-54-22-85-22-26 0-86.5 12t-156.5 32q-28 6-43.5 8.5t-18.5 2.5q-23 0-36.5-9t-30.5-31q-104 42-156 129-26 44-45.5 108t-33.5 152a977.32 977.32 0 0 1 -34.5 146.5 1470.32 1470.32 0 0 1 -57.5 151.5q-34 78-73.5 142.5a935.81 935.81 0 0 1 -85.5 118.5q-45 54-95 94.5t-101 68.5q-51 28-101.5 42t-96.5 14q-130 0-227-75a483.75 483.75 0 0 1 -88-89q-39-51-66-117-56-131-56-285a661.91 661.91 0 0 1 15.5-142.5 728.46 728.46 0 0 1 45-137.5 861.23 861.23 0 0 1 71-129.5 984.79 984.79 0 0 1 92.5-118.5 1143.23 1143.23 0 0 1 110.5-106 1082.31 1082.31 0 0 1 126.5-91q68-42 150.5-77.5t181.5-63.5q198-56 374-56h88q7-49 36.5-71t89.5-30l60-8 62-13a185.31 185.31 0 0 0 23.5-5.5 95.7 95.7 0 0 0 21.5-9.5 104.29 104.29 0 0 0 34-30q8-9 18-30t23-53q16-40 36.5-65t43-39.5a145.63 145.63 0 0 1 46.5-20 209.85 209.85 0 0 1 47-5.5q90 0 139 78a64 64 0 0 0 22 20q36 18 59 34t36.5 33a97.55 97.55 0 0 1 18.5 36 165.1 165.1 0 0 1 5 42q0 52 25 81a307.85 307.85 0 0 1 19 26 108.56 108.56 0 0 1 10.5 20.5 80.29 80.29 0 0 1 4.5 20.5q1 11 1 26z"/></svg>