<svg viewBox="0 0 2352 2094" xmlns="http://www.w3.org/2000/svg"><path d="m489 422 95 238 2 15a35.6 35.6 0 0 1 -10 25.5 40.18 40.18 0 0 1 -24 12.5l-254 28 37 39q117 12 250 100 64-172 220-276 161-106 361-106 232 0 401 124 170 122 212 327 82-49 134-65l137-126-242-13q-17-2-27.5-13t-10.5-28l86-252-248 77-9 1a40.38 40.38 0 0 1 -29-11.5 37.9 37.9 0 0 1 -12-28.5v-4l28-249-224 170a50.69 50.69 0 0 1 -26 7q-21 0-33-22l-128-260-115 250q-5 12-15 17.5a44.87 44.87 0 0 1 -22 5.5q-15 0-25-9l-215-185 4 257q1 17-10.5 28.5a37.51 37.51 0 0 1 -27.5 11.5q-4 0-260-86zm1221 572q-47-200-185-309t-359-109q-91 0-172 25a569 569 0 0 0 -153 74q-141 97-190 254 90 77 327 312l39 40q47 46 89 70t82 24q21 0 51-15.5t72.5-46q42.49-30.49 98.5-77t130-108.5q42-35 83.5-69t86.5-65zm642-40v917q0 92-65 157-66 66-156 66h-1908q-92 0-158-66-65-65-65-157v-991q140-79 231-96l-44-48q-11-11-11-24 0-17 8.5-28t25.5-13l282-30q-111-277-111-282a40.38 40.38 0 0 1 11.5-29 37.9 37.9 0 0 1 28.5-12l287 96-4-289a42.39 42.39 0 0 1 10-28q10-12 30-12 13 0 24 10l241 208 127-279q11-24 36-24 24 0 35 22l145 293 260-196a40 40 0 0 1 24-8q20 0 29.5 12a43.81 43.81 0 0 1 9.5 28l-33 285 265-81 10-2q18 0 29 12.5t11 27.5l-1 12-92 264 282 17q37 1 37 40 0 16-12 28l-113 103q144 0 294 97z"/></svg>