<svg viewBox="0 0 1974 2281" xmlns="http://www.w3.org/2000/svg"><path d="m710 509q97 63 289 63 51 0 98.5-4t94.5-12q91-16 91-47 0-19-21-34.5t-59.5-26.5q-38.5-11-91.5-17.5t-116-6.5a603 603 0 0 0 -64.5 3.5q-32.5 3.5-68.5 10.5-71 13-111.5 32t-40.5 39zm306 173a1182.25 1182.25 0 0 1 -249-26q-118-26-177-72.5t-59-108.5q0-71 52-123 51-53 160-84 108-30 241-30 44 0 95.5 7.5t112.5 21.5q122 28 182 77t60 115q0 102-114 162-112 61-304 61zm-721 105-23-11q-34 55-82 161 18 43 56 66 20 12 55.5 18.5t88.5 10.5q62 4 99 27t57 74q23 57 67 93t105 36q27 0 122-26 47-14 80-20t53-6q131 0 131 216 0 86 9 137t27 78.5q18 27.49 44.5 37t61.5 12.5q66 0 104-60.5t36-167.5l-3-152q-1-66 10-110.5t33.5-72a126 126 0 0 1 56-39.5q33.49-12 77.5-12a531.62 531.62 0 0 1 89 8 565.46 565.46 0 0 0 95 8q57 0 88-17-44-164-133-304l-10-2q-68 44-101 44-11 0-23-6.5t-12-21.5q0-25 45-58a374.45 374.45 0 0 0 55.5-50 378.41 378.41 0 0 0 44-58.5 280.19 280.19 0 0 0 28.5-63q10-32.5 10-62.5 0-51-30-105.5t-85-102.5q-27-24-66.5-45t-90.5-40q-52-18-108-32.5t-117-25.5a1090 1090 0 0 0 -115-17q-55-5-105-5-220 0-397 57-175 57-266 159-91 98-91 195 0 108 115 185l24 12q68 37 68 63a19.19 19.19 0 0 1 -6 14 43.74 43.74 0 0 1 -14.5 9.5 79.49 79.49 0 0 1 -18.5 5 117.51 117.51 0 0 1 -17 1.5 114.94 114.94 0 0 1 -24.5-2.5 226.35 226.35 0 0 1 -23.5-6.5zm1679 595q0 275-114 476-112 200-342 312-227 111-530 111-156 0-290-28.5t-249-85.5q-228-112-338-319-111-207-111-466 0-137 27-257 14-62 33.5-121t42-112.5q22.5-53.5 47-100a934 934 0 0 1 48.5-82.5q-11-14-20.5-35a323.26 323.26 0 0 1 -16.5-46 484.91 484.91 0 0 1 -11.5-52.5 337 337 0 0 1 -4.5-54.5q0-80 36-140 99-175 317-278 215-103 471-103 125 0 235.5 14.5t208.5 44.5q98 30 179.5 72.5t147.5 99.5q131 113 131 270 0 123-97 205 97 147 148 327a1370.46 1370.46 0 0 1 39 176.5 1158.81 1158.81 0 0 1 13 172.5z"/></svg>