<svg viewBox="0 0 2300 2297" xmlns="http://www.w3.org/2000/svg"><path d="m1035 945q-3-24-15-51.5t-23-48.5a701.58 701.58 0 0 1 71 26.5 570.41 570.41 0 0 1 66 34.5l-25 78q-17-11-35.5-21a368 368 0 0 0 -38.5-18zm-880 41a75 75 0 0 1 -12.5 30.5q-9.5 13.5-26.5 13.5a75.77 75.77 0 0 1 -31.5-7 276.06 276.06 0 0 0 -31.5-12q-8-2-17-5a79.32 79.32 0 0 1 -17-8 57.35 57.35 0 0 1 -13.5-11.5q-5.5-6.5-5.5-16.5l2-16q2-10 5.5-24.5a148.46 148.46 0 0 1 9.5-27.5 98.93 98.93 0 0 1 13.5-22q7.5-9 18.5-9 9 0 20 6 8 4 25.5 9t35.5 9.5a304.23 304.23 0 0 1 31.5 9.5q13.5 5 13.5 9 0 6-3 17t-7 22.5q-4 11.5-7 21t-3 11.5zm1151 61q53 62 86.5 115.5a750.66 750.66 0 0 1 57.5 111.5q-47 0-96 15a588 588 0 0 0 -41-82 864.27 864.27 0 0 0 -52-77q17-32 26.5-50t18.5-33zm702 998q12 7 27.5 15a301.32 301.32 0 0 1 29 17 122.07 122.07 0 0 1 23 19.5q9.49 10.5 9.5 21.5 0 15-14 29.5a322.68 322.68 0 0 0 -26 30.5q-6 8-12 17t-12.5 17a69.33 69.33 0 0 1 -14.5 13.5 31 31 0 0 1 -18 5.5q-4 0-22.5-9a400.51 400.51 0 0 1 -39-22 269 269 0 0 1 -37-28q-16.5-15-16.5-27 0-9 7-18a140.56 140.56 0 0 1 17-18q10-9 21-17.5a199.81 199.81 0 0 0 19-16.5q11-11 21-23t24-12q9 0 14 5zm-1713-1874q-8-9-18.5-19a231.84 231.84 0 0 1 -19.5-21 131.84 131.84 0 0 1 -15-22.5q-6-11.5-6-22.5 0-15 11-24.5t22-17.5a76.81 76.81 0 0 0 13-11.5 162.61 162.61 0 0 1 15.5-14.5 184.29 184.29 0 0 1 17-12.5 31.8 31.8 0 0 1 17.5-5.5q7 0 15 6.5a146.65 146.65 0 0 1 16.5 16q8.5 9.5 16 19.5t13.5 17a152.36 152.36 0 0 0 16.5 16q9.5 8 18 15a146.87 146.87 0 0 1 14.5 13.5q6 6.5 6 12.5 0 1-9 15.5a335.6 335.6 0 0 1 -23 32 181.9 181.9 0 0 1 -32.5 31.5q-18.5 14-36.5 14a30.72 30.72 0 0 1 -14.5-4 98.64 98.64 0 0 1 -14.5-9.5 111.24 111.24 0 0 1 -13-12 102.5 102.5 0 0 1 -10-12.5zm1486 941q-4-7-4-20a121.07 121.07 0 0 1 .5-12.5 87 87 0 0 0 .5-9.5v-30q0-14 1-27a80.84 80.84 0 0 1 6-25 230.91 230.91 0 0 1 43-6q22-1 46-1 21 0 41.5-2t44.5-2q20 0 23 10.5t3 38.5a214.54 214.54 0 0 0 4.5 45 209.54 209.54 0 0 1 4.5 44q0 14-9 17.5t-25 3.5a116.68 116.68 0 0 1 -15.5-1 97.1 97.1 0 0 0 -12.5-1h-32.5l-48.5-1.5q-48.49-1.5-46-6.5t-25-14zm236-543q2-12 15-18.5t31-10q18-3.5 38.5-6t36.5-5.5q17-2 35.5-5.5a177.89 177.89 0 0 1 32.5-3.5q10 0 14 4 7 28 17 59t10 59q0 23-14.5 31.5t-42.5 13.5q-53 10-108 16-20 6-29 6-10 0-17.5-11.5t-12-28.5a238.48 238.48 0 0 1 -6.5-35.5 307.81 307.81 0 0 1 -2-32.5q0-8 .5-16t1.5-16zm-1723 23q-8-12-19-25.5t-21.5-27a194.49 194.49 0 0 1 -18-27.5q-7.5-14-7.5-26 0-8 10.5-21a155.65 155.65 0 0 1 26-25 202.32 202.32 0 0 1 33.5-21q18-9 33-9t28.5 15q13.5 15 29.5 31a310.59 310.59 0 0 1 36.5 39q16.5 21 32.5 44a170.17 170.17 0 0 0 10.5 15 23.83 23.83 0 0 1 5.5 15q0 11-10.5 17a113.15 113.15 0 0 0 -18.5 13 280 280 0 0 0 -20 20q-11 12-22.5 23a160.08 160.08 0 0 1 -23 18.5q-11.5 7.5-20.5 7.5-8 0-16.5-8a145 145 0 0 1 -17-19.5q-8.5-11.5-16.5-24.5t-15-24zm1361 1301q6 10 15 23t17.5 27a207.78 207.78 0 0 1 14.5 28.5q6 14.51 6 27.5 0 10-5.5 16.5a57.35 57.35 0 0 1 -13.5 11.5q-8 5-16.5 9.5a60 60 0 0 0 -14.5 10.5q-18 15-42 32t-47 17q-27 0-33-17-7-13-17-31t-19.5-37a376 376 0 0 1 -16.5-38q-7-19-7-34a51.92 51.92 0 0 1 10.5-32 73.94 73.94 0 0 1 26.5-22 379 379 0 0 0 44-26q22-15 47-15 11 0 18 5a60.63 60.63 0 0 1 12.5 12 93.37 93.37 0 0 1 10 16 78.23 78.23 0 0 0 10.5 16zm-335-1521q-5 0-28-7t-48.5-17a371 371 0 0 1 -46-21.5q-20.5-11.5-20.5-20.5 0-27 8.5-59.5a375.73 375.73 0 0 1 21.5-61q13-28.5 27.5-47.5t26.5-19q17 0 36.5 6.5a223.86 223.86 0 0 1 34.5 14.5q8 4 22 10a208 208 0 0 1 27 14 156.51 156.51 0 0 1 22.5 16.5q9.5 8.5 9.5 17.5 0 13-7.5 26.5a173.88 173.88 0 0 0 -11.5 24.5q-6 17-14.5 38t-18 40a160.55 160.55 0 0 1 -20.5 32q-11 13-21 13zm978 1189 2 8q0 11-10.5 24t-14.5 20q-13 20-23.5 39.5a197.22 197.22 0 0 1 -26.5 37.5 60 60 0 0 0 -10.5 14.5 128.69 128.69 0 0 1 -10 16 66.3 66.3 0 0 1 -12.5 13 26.65 26.65 0 0 1 -17 5.5q-49 0-81-15t-60-44q-41-43-87.5-66.5t-107.5-23.5q-29 0-58 2t-59 2a326.86 326.86 0 0 1 -73-8q-35-8-69-36-20-16-40-30.5a292.89 292.89 0 0 0 -41-25 219.08 219.08 0 0 0 -45-16.5 214 214 0 0 0 -52-6 362.21 362.21 0 0 0 -128.5 23.5 641.88 641.88 0 0 0 -116.5 57.5q-3 3-10 6a37.7 37.7 0 0 1 -15 3q-7 0-9-7.5a60.06 60.06 0 0 1 -2-15.5q0-17 5.5-29.5a92.44 92.44 0 0 1 14.5-23 135.26 135.26 0 0 1 20-19q11-8.51 22-17.5 30-24 63-46a475.6 475.6 0 0 1 68.5-38 440.26 440.26 0 0 1 73-25.5 314.5 314.5 0 0 1 77.5-9.5 326.81 326.81 0 0 1 66 7 201.45 201.45 0 0 1 65 26q21 13 42.5 28.5a518.45 518.45 0 0 0 45 29 313.15 313.15 0 0 0 48 22.5 145.34 145.34 0 0 0 50.5 9 204.62 204.62 0 0 0 43-4.5q21-4.5 42-10.5t42.5-10.5a211.72 211.72 0 0 1 43.5-4.5h7a193.79 193.79 0 0 1 86 20 660.94 660.94 0 0 1 77 44 326.81 326.81 0 0 0 30.5 20.5 298.71 298.71 0 0 0 29 15q14.51 6.49 30 12.5t33.5 12q8 3 15 5.5t15 4.5h8q10 0 14 4zm-1476-1042a84.68 84.68 0 0 0 -12.5-23.5 234.15 234.15 0 0 0 -19-22.5q-10.5-11-21.5-21.5t-20-20.5q-29-35-40.5-70a229.08 229.08 0 0 1 -11.5-72 307.75 307.75 0 0 1 26-124.5 1156.11 1156.11 0 0 1 59-116.5q11-18 18-31t27-13q30 0 55.5 19.5t47.5 39.5a52.23 52.23 0 0 0 11 8 125.17 125.17 0 0 1 13 8.5 59.86 59.86 0 0 1 10.5 10 20.64 20.64 0 0 1 4.5 13.5 35.21 35.21 0 0 1 -4.5 16.5 149.83 149.83 0 0 1 -11 17.5q-6.5 9-13 17.5a143.06 143.06 0 0 0 -10.5 15.5q-8 12-16.5 25.5a258.91 258.91 0 0 0 -15.5 28.5 247.23 247.23 0 0 0 -12 31 106.88 106.88 0 0 0 -5 32 55.8 55.8 0 0 0 6.5 27 103.24 103.24 0 0 0 16 22 191.74 191.74 0 0 0 21 19 235.91 235.91 0 0 1 21.5 19 221.78 221.78 0 0 1 48 64.5 175.07 175.07 0 0 1 18 78.5q0 42-15 75t-32.5 63.5q-17.5 30.5-32.5 61.5a151.8 151.8 0 0 0 -15 67 127.14 127.14 0 0 0 9.5 49q9.5 23 21.5 46.5a486 486 0 0 1 21.5 48.5 148 148 0 0 1 9.5 53q0 27-8 58.5a319.85 319.85 0 0 1 -22 60.5 255.57 255.57 0 0 1 -33 52q-19 23-41 34-3 2-13 4.5t-22.5 5.5q-12.5 3-25 5a135.41 135.41 0 0 1 -20.5 2q-11 0-11-7 0-8 8.5-14t12.5-11q26-36 37.5-76a291.69 291.69 0 0 0 11.5-81q0-24-6-43a192.29 192.29 0 0 0 -15.5-36q-9.5-17-21-33.5a400.1 400.1 0 0 1 -21.5-34.5 108.39 108.39 0 0 1 -14.5-39.5 264.53 264.53 0 0 1 -3.5-42.5 201.9 201.9 0 0 1 8.5-59q8.5-28 19-55.5t19.5-54.5a175.94 175.94 0 0 0 9-56 168.55 168.55 0 0 0 -5-41zm294 730q-14-14-14-38a86.17 86.17 0 0 1 2.5-21q2.51-10 5.5-19 22-57 39-115t37-117q11-33 24.5-72.5t31-78a542.35 542.35 0 0 1 40.5-73.5 249.14 249.14 0 0 1 55-60 155.53 155.53 0 0 1 43.5-23q23.51-8 47.5-15.5a430 430 0 0 0 46.5-17.5 133.82 133.82 0 0 0 40.5-28 94.09 94.09 0 0 0 16-24 179.59 179.59 0 0 0 10-27.5q4-14.5 6.5-29a271.32 271.32 0 0 1 6.5-28.5 551.58 551.58 0 0 1 24-74.5q15-37.5 51-59.5a90.94 90.94 0 0 1 30-12.5q16-3.5 32.5-6t33.5-5.5a127.75 127.75 0 0 0 32-10q24-10 39-28a212.94 212.94 0 0 0 26-39.5q11-21.5 21-44a172 172 0 0 1 25-40.5 160.5 160.5 0 0 1 58.5-46 249.22 249.22 0 0 1 74.5-21l4-1q12 0 25 12.5a201.49 201.49 0 0 1 25.5 30.5 393.69 393.69 0 0 1 23.5 38.5q11 20.5 19 37.5a126.62 126.62 0 0 0 13 22q8 11 8 22 0 14-14.5 20a164.49 164.49 0 0 0 -25.5 13l-52 28a135.35 135.35 0 0 0 -36 29.5 329.4 329.4 0 0 0 -28 38q-13 20.5-24.5 42a253.05 253.05 0 0 1 -26 39.5 181.54 181.54 0 0 1 -32.5 31.5q-18 13.5-43 18.5a212.45 212.45 0 0 1 -33 3.5q-17 .5-33.5 2a200.06 200.06 0 0 0 -32 5.5 88.66 88.66 0 0 0 -28.5 13q-13 8-15.5 18.5a70.87 70.87 0 0 1 -9.5 21.5 418.27 418.27 0 0 0 -29.5 58.5 244 244 0 0 1 -32.5 56.5q-20 27-39 48.5t-48 37.5a293 293 0 0 1 -55 23 278.51 278.51 0 0 0 -53 22 274 274 0 0 0 -69 52.5 481.84 481.84 0 0 0 -54.5 69q-24.49 37.5-45 77t-39.5 75.5a615.5 615.5 0 0 1 -36 69 304.27 304.27 0 0 0 -31 69q-4 11-10 23.5t-15 12.5q-6 0-12-6zm286 282a191.42 191.42 0 0 1 37.5 3.5 113.21 113.21 0 0 1 33.5 12.5q-16 66-45 117.5t-69 89.5a403.86 403.86 0 0 1 -47.5 38.5q-26.5 18.5-56.5 35.5t-61 33q-31 16-60 30-35 16-70.5 30.5t-72.5 29.5l-536 220-20 10-178 74q-15 6-31.5 13.5t-32.5 13.5q-16 6-31 10.5t-27 4.5q-29 0-48.5-19t-19.5-51a147.13 147.13 0 0 1 12-59.5q12-27.5 23-56.5l40-110q42-115 80.5-218.5t73.5-198.5q30-80 60.5-160t56.5-148q26-68 45.5-118t28.5-70a649.14 649.14 0 0 1 39.5-81 465.72 465.72 0 0 1 50.5-71.5 356.11 356.11 0 0 1 63-57.5 284.77 284.77 0 0 1 78-39 209.91 209.91 0 0 0 16.5 48 301.31 301.31 0 0 0 26.5 45q-73 28-103.5 87t-30.5 153a449.28 449.28 0 0 0 19 129.5 529.34 529.34 0 0 0 53.5 121 582.71 582.71 0 0 0 81.5 106 547.19 547.19 0 0 0 104 84 520.11 520.11 0 0 0 121.5 55.5 445 445 0 0 0 132.5 20 328.89 328.89 0 0 0 80-9.5 250.16 250.16 0 0 0 70-29 218 218 0 0 0 56-49q24-29.51 36-68.5a53.15 53.15 0 0 1 10.5-1z"/></svg>