<svg viewBox="0 0 2306 2311" xmlns="http://www.w3.org/2000/svg"><path d="m1556 1509v144h-79v-144zm150 0v144h-78v-144zm-877 0v144h-78v-144zm-150 0v144h-78v-144zm588 0v144h-78v-144zm-150 0v144h-78v-144zm-465-490v82q51-20 95.5-40t84.5-42zm502-83q-138 162-319 187h637q-85-9-175-63-87-52-143-124zm502 165v-82h-181q76 43 181 82zm-831-539v213h106v-88q0-28 18.5-47t46.5-19q28 0 47 19t19 47v88h183v-88q0-28 19-47t47-19q28 0 46 19t18 47v88h107v-213zm329-311a507 507 0 0 1 -40.5 66 462 462 0 0 1 -47 55.5 317.24 317.24 0 0 1 -50.5 41.5q-26 17-51 23h377q-49-6-105-63a462.52 462.52 0 0 1 -47.5-60 495.59 495.59 0 0 1 -35.5-63zm755 1480v-294h-1512v294zm236-297h-119v297q23 0 29 23a2236.08 2236.08 0 0 0 110 308q32 75 62 124.5t57 75.5a27.14 27.14 0 0 1 8 20q0 11-9 20t-20 9h-2219q-14 0-22-9t-8-20q0-11 10-20 39-39 83-128 23-45 46-101t49-127q50-144 50-153 6-22 28-22v-297h-118q-40 0-88-19-47-19-61-34-13-10-13-25 0-11 9-19t20-8q59-3 131-50.5t139-138.5q10-13 24-13h211v-125h-114q-55 0-102-32l-11-5q-12-9-12-25 0-11 8.5-20.5a27.61 27.61 0 0 1 21.5-9.5q49 0 92.5-12.5t78-31q34.5-18.5 57-39.5t30.5-39q10-13 25-13h100v-213h-17q-37 0-68-11t-54-25q-23-14-36.5-28.5t-14.5-22.5l-3-12q0-13 9.5-21a32.49 32.49 0 0 1 21.5-8l40 7q24 0 49-15.5t49.5-44q24.5-28.5 46.5-68a669.84 669.84 0 0 0 40-86.5q-46-11-66.5-43.5t-20.5-68.5a129.85 129.85 0 0 1 7.5-44 124.05 124.05 0 0 1 20-36.5 98.53 98.53 0 0 1 30-25 77.46 77.46 0 0 1 37.5-9.5q20 0 20 19a68.39 68.39 0 0 1 -6 29q-6 13-6 33 0 26 37 35 45 14 55 39h224l18-34q9-17 14-23t19-6q15 0 19.5 7t13.5 23l17 33h225q6-20 20.5-27a162.08 162.08 0 0 1 30-11 121.51 121.51 0 0 0 27.5-10.5q12-6.5 12-25.5 0-20-6-32.5t-6-29.5q0-19 20-19a75.53 75.53 0 0 1 36.5 9.5 101.25 101.25 0 0 1 30.5 25.5 133.44 133.44 0 0 1 21 37 119.91 119.91 0 0 1 8 43q0 36-21 68.5t-65 43.5a629.15 629.15 0 0 0 40.5 86.5q22.5 39.5 46.5 68t49 44q25 15.5 48 15.5l39-7q31 0 31 30 0 14-12.5 31t-35.5 32q-23 15-55.5 25t-71.5 10h-16v213h98q15 0 25 13 9 17 32 38t57 40q34 19 77.5 31.5t93.5 12.5q13 0 20.5 9.5a33.78 33.78 0 0 1 7.5 21.5 28.51 28.51 0 0 1 -12 24l-11 5q-47 32-102 32h-113v125h211q15 0 25 13 69 92 136 139t132 50q14 0 21.5 8.5a28.63 28.63 0 0 1 7.5 19.5q0 14-13 24-15 15-61 34a366.44 366.44 0 0 1 -45.5 14 183.26 183.26 0 0 1 -41.5 5z"/></svg>