<svg viewBox="0 0 2352 2340" xmlns="http://www.w3.org/2000/svg"><path d="m2292 1569v-50h60v50zm0-203v-70h60v70zm60-203h-60a379.29 379.29 0 0 0 -3-49q-3-23-10-40h73zm-2352 406v-50h147a361.69 361.69 0 0 0 -16 50zm1400-50v50h-362l-18-50zm-942 587v-85q0-20-13.5-33.5t-33.5-13.5h-53q-20 0-32.5 13.5t-12.5 33.5v85q0 20 12.5 32.5t32.5 12.5h53q20 0 33.5-12.5t13.5-32.5zm613 0v-85q0-20-13.5-33.5t-33.5-13.5h-53q-20 0-32.5 13.5t-12.5 33.5v85q0 20 12.5 32.5t32.5 12.5h53q20 0 33.5-12.5t13.5-32.5zm-758-346v84q0 20 12.5 33.5t32.5 13.5h53q20 0 33.5-13.5t13.5-33.5v-84q0-20-13.5-33t-33.5-13h-53q-20 0-32.5 13t-12.5 33zm349 346v-85q0-20-13-33.5t-33-13.5h-53q-20 0-33 13.5t-13 33.5v85q0 20 13 32.5t33 12.5h53q20 0 33-12.5t13-32.5zm945-884v85q0 20 12.5 32.5t32.5 12.5h55q20 0 32.5-12.5t12.5-32.5v-85q0-20-12.5-33.5t-32.5-13.5h-55q-20 0-32.5 15t-12.5 32zm-1090 538v84q0 20 13 33.5t33 13.5h53q20 0 33-13.5t13-33.5v-84q0-20-13-33t-33-13h-53q-20 0-33 13t-13 33zm350 84v-84q0-18-13.5-32t-33.5-14h-53q-20 0-33.5 13t-13.5 33v84q0 20 13.5 33.5t33.5 13.5h53a43.91 43.91 0 0 0 33.5-14.5q13.5-14.5 13.5-32.5zm1098-340v85q0 20 12.5 32.5t32.5 12.5h55q20 0 32.5-10.5t12.5-18.5v-119q0-8-12.5-18.5t-32.5-10.5h-55q-20 0-32.5 13.5t-12.5 33.5zm145-181v-119q0-7-12.5-18t-32.5-11h-55q-20 0-32.5 13.5t-12.5 33.5v85q0 20 12.5 32.5t32.5 12.5h55q20 0 32.5-10.5t12.5-18.5zm-195 536v-117q0-8-13.5-19t-33.5-11h-53q-20 0-33.5 13t-13.5 33v85q0 20 13.5 33.5t33.5 13.5h53q20 0 33.5-11.5t13.5-19.5zm-1694-1859h1910a209.24 209.24 0 0 1 67.5 11 223 223 0 0 1 59.5 30.5 234.74 234.74 0 0 1 48 46.5 223.28 223.28 0 0 1 33 59h-2326a223.28 223.28 0 0 1 33-59 234.74 234.74 0 0 1 48-46.5 223 223 0 0 1 59.5-30.5 209.24 209.24 0 0 1 67.5-11zm2131 223v126h-775l57 59h718v145h-626l29 77h597v125h-575l2 44-2 54h575v106h-171q-53-31-113-31h-383q16-74 16-129 0-150-78-272-39-61-88.5-108a521.78 521.78 0 0 0 -107.5-79 539.53 539.53 0 0 0 -121.5-49 498.73 498.73 0 0 0 -129.5-17 532.16 532.16 0 0 0 -137 17.5 502.53 502.53 0 0 0 -127 53.5q-122 72-190 194-70 122-70 260 0 106 35.5 197.5t110.5 166.5l7 7q73 72 170.5 113.5t200.5 41.5a509.15 509.15 0 0 0 116.5-13 489.51 489.51 0 0 0 107.5-39v93h-19a685.25 685.25 0 0 1 -101.5 27.5 559 559 0 0 1 -103.5 9.5 550.94 550.94 0 0 1 -103-9.5 690.64 690.64 0 0 1 -101-27.5h-972v-70h835a537.47 537.47 0 0 1 -73.5-59 617.64 617.64 0 0 1 -65.5-74h-696v-89h640q-20-35-45-115h-595v-106h575l-2-54 2-44h-575v-125h597l29-77h-626v-145h718l57-59h-775v-126l2-38h2348zm-119 931 2 1173-29 13h-2022v-725q0-69 49-118 50-49 118-49h465q69 0 118 49t49 118v95h476v-556q0-69 49-118 50-49 118-49h442q33 0 61 12.5t54 36.5q50 48 50 118z"/></svg>