<svg viewBox="0 0 2370 2243.04" xmlns="http://www.w3.org/2000/svg"><path d="m1550 1631a283.94 283.94 0 0 0 17.5-35 82.18 82.18 0 0 0 6.5-31q0-33-9.5-60.5a136.9 136.9 0 0 0 -27.5-47.5 130.65 130.65 0 0 0 -43-31.5q-25-11.49-56-11.5-11 0-22.5 1a127.42 127.42 0 0 0 -22.5 4q42 50 81.5 107t75.5 105zm-325 171q28 0 61.5-7.5a448.55 448.55 0 0 0 67.5-21 672.2 672.2 0 0 0 67-31 621.14 621.14 0 0 0 62-37.5q-15-23-61.5-82t-124.5-156q-65 53-65 118 0 50 35 83 19 18 19 34 0 18-28 18-69 0-115-67-47-66-47-150 0-100 55-197l-88-96q-33 101-49 181.5t-16 142.5q0 117 64 191 65 77.05 163 77zm-338-1019a806.84 806.84 0 0 0 55.5-168q18.5-87 18.5-184 0-187-82-187-19 0-34 13t-26 37q-11 24-17 56.5t-6 71.5q0 91 26 204 14 54 29.5 93.5t35.5 63.5zm729 934q45 67 66 132.5a428.52 428.52 0 0 1 21 131.5q0 58-15 106t-42 82.5a193.08 193.08 0 0 1 -65.5 54q-38.5 19.5-86.5 19.5-68 0-120-46-51-43-51-102 0-25 9-45.5a105.34 105.34 0 0 1 24.5-35 110.4 110.4 0 0 1 36.5-22.5 125.41 125.41 0 0 1 45-8l26 3q20 7 44 35 23 30 46 30 15 0 26-7a63.3 63.3 0 0 0 18.5-18 77 77 0 0 0 11-25 115.17 115.17 0 0 0 3.5-28q0-52-21.5-97.5t-49.5-92.5q-178 154-379 154-98 0-177.5-40t-158.5-119q-128-169-128-393a834.49 834.49 0 0 1 6.5-104.5 880.67 880.67 0 0 1 19.5-103.5q14-51 38-112t58-133q-26-35-55-81t-60-105q-61-116-101-233t-40-232q0-119 63-197 32-39 72.5-61t91.5-24q44-1 84.5 21t81.5 67q78 85 141 260a1136.79 1136.79 0 0 1 47 172.5 941 941 0 0 1 16 173.5q0 109-12.5 200.5t-35.5 166.5q11 20 40.5 57.5t77.5 95.5q94-74 209-74 66 0 118.5 23.5a236.66 236.66 0 0 1 88.5 68q36 44.51 55.5 107t19.5 140.5q0 131.05-107 238zm-806 126 32 29a723.55 723.55 0 0 0 -112.5 61q-54.5 36-98 69.5t-73 57.5q-29.5 24-36.5 24-14 0-18-12l-501-1318-3-8q0-6 6-11 57-68 115.5-122a1086.15 1086.15 0 0 1 121-97 1002.08 1002.08 0 0 1 130.5-76 1158.75 1158.75 0 0 1 144-58l24 110q-186 58-327 184l86 225a867.12 867.12 0 0 1 150-106.5q81-45.5 177-77.5 28 64 53 99-193 57-339 197l78 204q122-97 282-148-16 48-25 80.5t-14 52.5q-109 45-201 124l76 200q43-32 109-66l19 116-87 58 78 205q46-30 104-55zm353-1480-14-40q37 2 70.5 4.5t65 5.5q31.5 3 63 5t64.5 2q110 0 248-24a1304 1304 0 0 0 134-28.5q65-17.5 128-39.5l7-1q13 0 19 13 21 68 21 74 0 14-12 18a1336.18 1336.18 0 0 1 -130 40q-67 17-141 31a1398.9 1398.9 0 0 1 -141.5 20q-68.51 6-133.5 6-18 0-74.5-3t-152.5-11zm-258 71-51 3-1-14q0-7 1-19.5t3.5-26.5q2.5-14 5.5-27.5a153 153 0 0 1 7-23.5l22-1q13 21 13 109zm447 586 142 6q64 4 137.5-7t158.5-28a952.57 952.57 0 0 0 164.5-48.5 1101.22 1101.22 0 0 0 155.5-76.5l8-2q14 0 21 13l20 70 1 7q0 11-11 16a1303.87 1303.87 0 0 1 -128.5 63.5 1072 1072 0 0 1 -121.5 43.5q-58 17-129 30.5t-157 22.5q-71-46-172-46-96 0-168 40l-43-3-55-71 11-40zm118-347a1223.76 1223.76 0 0 0 127-7q67-7 143-23 78-15 145.5-37.5a1133.65 1133.65 0 0 0 128.5-51.5l10-1q14 0 17 12l22 70 2 6q0 13-13 17a1069 1069 0 0 1 -135 51q-72 22-156 40-164 34-293 34-26 0-88.5-4t-161.5-12l-2-110q35 2 66.5 4.5l62.5 5q31 2.51 61.5 4.5t63.5 2zm310 799-8-109 67-11q103-17 196-52.5a1052.21 1052.21 0 0 0 180-89.5l10-3q10 0 19 15l22 75q0 13-10 17-89 50-197 93-107 41.05-279 65zm588 155 2 7q0 13-69 50-34 19-75.5 37.5t-89.5 35.5q-98 35-184 51-42 8-96 14.5t-121 11.5q-14-35-25.5-61.5t-22.5-47.5q99-3 186.5-17.5t163-36.5q75.49-22 140-50.5t117.5-59.5l33-19q18 0 19 14z"/></svg>