<svg viewBox="0 0 2264 2333" xmlns="http://www.w3.org/2000/svg"><path d="m1966 1192q13 0 13 29 0 18-26 47t-82 66a1026.53 1026.53 0 0 1 -159.5 86 1278.75 1278.75 0 0 1 -179.5 62 1453.31 1453.31 0 0 1 -194.5 37.5 1647.82 1647.82 0 0 1 -203.5 12.5 1591.57 1591.57 0 0 1 -216-14.5 1417.87 1417.87 0 0 1 -204-43 1206.18 1206.18 0 0 1 -185.5-70.5q-87.5-42-160.5-97l-38-29q-46-34-71-64.5t-28-59.5q0-29 17-29 16 0 63 46 34 34 82.5 68.5t114.5 68.5a1008.83 1008.83 0 0 0 140.5 61 1404.61 1404.61 0 0 0 154.5 44 1450.32 1450.32 0 0 0 164 27 1575.88 1575.88 0 0 0 168 9q458 0 787-237 35-20 44-20zm157 124q0-67-7-123t-22-102q-29-92-90-171.5t-142-133.5l1 136q1 74-11.5 108.5t-58.5 34.5q-50 0-67-26t-17-70q0-96 6-267-32-15-65.5-27.5a681.6 681.6 0 0 0 -68.5-21.5l4 39q0 63-31 110.5t-89 67.5l3 102v325q0 73-71 73-26 0-43-7t-26-20a80.66 80.66 0 0 1 -12.5-30.5 158.1 158.1 0 0 1 -2.5-38.5l6-141 4-265a133.92 133.92 0 0 1 -40.5-23.5q-18.5-15.5-32.5-41.5-27-51-27-105 0-50 22-93l-75-3-2 229 2 20q2 40-20.5 57t-51.5 17q-50 0-66.5-27t-16.5-69q0-41 2-96t5-125l-53 4 4 45q0 61-31.5 108.5t-89.5 67.5q2 17 3.5 42t.5 60l-1 69 1 70-1 164 1 22q2 36-16.5 54.5t-54.5 18.5q-45 0-64-21.5t-18-74.5l8-406q-92-47-100-162l-94 26v249q0 41-21.5 57.5t-49.5 16.5q-50 0-67.5-27.5t-15.5-69.5l5-160q-64 38-111 88.5t-78.5 117q-31.5 66.5-47 151.5t-15.5 191q0 122 74 122l93-9q44 0 78 37 36 37 86 135a302.82 302.82 0 0 0 25 40.5 142.21 142.21 0 0 0 30 30q17 12.49 41 19t59 6.5a357 357 0 0 0 73-7.5 352.16 352.16 0 0 1 72-7.5q85 0 176 95 64 66 169 66 52 0 89-20 20-11 47-32t63-52q36-30 100-47.5t158-12.5l87 4q28 2 49-5t35-20q30-27 64-90 38-73 79-103.5t99-30.5a160.41 160.41 0 0 1 54.5 9.5q26.5 9.5 46.5 9.5a36.71 36.71 0 0 0 27-11q11-11 18.5-29t11-41.5a329.36 329.36 0 0 0 3.5-48.5zm-71 398v-136l-40-16-42-8q-55 0-97 74-29 49-55 82t-52 52.5q-26 19.5-53 27.5a196.21 196.21 0 0 1 -56 8 381.35 381.35 0 0 1 -80.5-8.5 376.6 376.6 0 0 0 -79.5-8.5q-47 0-87 15t-76 44q-115 96-257 96-55 0-101-15a324 324 0 0 1 -87-44q-32-23-55-38a389.05 389.05 0 0 0 -41.5-24 189.81 189.81 0 0 0 -33.5-13 119.63 119.63 0 0 0 -31-4 112.28 112.28 0 0 0 -29 4q-15 4-31.5 8.5t-34 8a180.85 180.85 0 0 1 -35.5 3.5 278.15 278.15 0 0 1 -70.5-9 225.79 225.79 0 0 1 -65-28.5 242 242 0 0 1 -55.5-49.5q-25-30-43-73-26-59-53.5-85.5t-64.5-26.5l-27 4q0 168 9 223a380 380 0 0 0 13 51 320.33 320.33 0 0 0 20 47 350.23 350.23 0 0 0 29 46 494.89 494.89 0 0 0 41 48 644.85 644.85 0 0 0 132 109.5q74 46.5 166 76.5 184 60 508 60 162 0 286.5-15.5t215.5-45.5q181-62 297-180 116-117 116-260zm-1706-1365q0 45 27 74.5t77 29.5q53 0 81-29.5t28-82.5q0-51-32-110-35-58-51-64-23 8-44 26.5t-44 48.5q-42 60-42 107zm339 304q0 116 104 116 53 0 81.5-29.5t28.5-83.5q0-33-14-69-8-18-17-35a335.75 335.75 0 0 0 -20-33q-23-33-33-36-37 6-83 67-47 60-47 103zm314-398q0 46 26.5 75.5t77.5 29.5q51 0 79-30t30-85q1-24-8.5-52.5a355 355 0 0 0 -23-54q-13.5-25.5-28-43t-23.5-19.5q-40 6-85 69t-45 110zm429 265q-37 9-85 70-46 61-46 104 0 112 104 112 53 0 82-31t29-84q0-17-8.5-42t-23.5-58q-31-67-52-71zm264-124q0 46 26.5 75.5t77.5 29.5q50 0 80-31t30-85a158.64 158.64 0 0 0 -4-35.5 218 218 0 0 0 -11-34.5 265.66 265.66 0 0 0 -17-35.5 313 313 0 0 0 -20-31 202.35 202.35 0 0 0 -19-22.5q-9-9-13-11-39 6-85 71-23 32-34 59t-11 51zm572 916q0 199-94 259v145q0 127-68.5 239t-202.5 203a869 869 0 0 1 -144.5 78q-77.51 33-167.5 54-176 43-450 43-314 0-494-52-91-26-168.5-65.5a950.39 950.39 0 0 1 -144.5-90.5q-67-52-113-108t-75-118q-29-63-35-101-4-21-5-50.5t-1-70.5v-117a207.67 207.67 0 0 1 -44-35q-19-20-31.5-48.5t-19-66q-6.5-37.5-6.5-87.5a1093.55 1093.55 0 0 1 41-297q42-145 112-227 71-83 218-160l1-105q0-9-1-12.5a11.65 11.65 0 0 0 -2.5-5 11.44 11.44 0 0 0 -4.5-2.5q-3-1-7-5-36-23-61-64.5t-25-94.5q0-97 76-176 78-81 129-81 30 0 56.5 22.5t51.5 66.5q51 89 51 158 0 62-32 109.5t-90 67.5l1 56q42-15 77-24.5t62-14.5q87-126 162-126 59 0 110 90l98-5 2-37v-33q-102-52-102-178 0-91 89-175 12-11 25-23a299.32 299.32 0 0 1 27.5-22.5 164.11 164.11 0 0 1 30.5-17.5 83.85 83.85 0 0 1 34-7q37 0 72 40 35 39 60 103 26 64 26 104a210.23 210.23 0 0 1 -8 58 177.33 177.33 0 0 1 -24 51.5 189.44 189.44 0 0 1 -38.5 41.5 173.75 173.75 0 0 1 -50.5 28l1 20v47q48 0 88.5 1.5t72.5 5.5q59-55 100-55 54 0 101 78a906.77 906.77 0 0 1 189 57v-17q-21-5-39-21t-31.5-40a231 231 0 0 1 -21.5-54 276.59 276.59 0 0 1 -9-63q-1-20 8.5-46.5a321.46 321.46 0 0 1 26-54.5 517.62 517.62 0 0 1 37.5-55 338.51 338.51 0 0 1 44.5-47.5q23.51-20.5 46-32t42.5-9.5q37 0 73 39 34 38 60 103 13 32 19.5 58t6.5 47q0 61-32 109.5t-90 68.5l3 88q98 57 175 123a865 865 0 0 1 135 145q48 63 70 160.5t22 230.5z"/></svg>