<svg viewBox="0 0 2124.14 2326" xmlns="http://www.w3.org/2000/svg"><path d="m908.14 2230q228 0 338-38-108-40-159-71-52-34-90-76l-96-1a248.63 248.63 0 0 1 -46.5 41.5 489.4 489.4 0 0 1 -51.5 31q-26 13.5-51 24.5t-46 21l-55 27q14 8 40 14t64 13a597.3 597.3 0 0 0 76 11q38.01 3 77 3zm617-1782q0 23 21 38.5t53 15.5a131.59 131.59 0 0 0 63-15.5q29-15.5 58-33.5a605.9 605.9 0 0 1 62-33.5q33-15.5 77-15.5 45 0 81.5-7t62.5-19.5q26-12.5 40-30.5t14-40q0-22-7-30a40 40 0 0 0 -7.5-10.5q-4.5-4.5-13.5-9t-25.5-8q-16.5-3.5-44.5-8.5l-55 3q-29 4-62.5 18.5t-75.5 34.5l-43 21-60 12q-69 14-103.5 42.5t-34.5 75.5zm-1235 541q-58-32-89.5-89.5t-31.5-126.5q0-38 22-57 23-21 74-25 26-2 71-3t108-1a400.66 400.66 0 0 1 42.5 2q18.51 2 34.5 5l14-22q-62 0-152-25-94-24-123-46-32-23-32-74 0-69 54-140 53-71 117-71 25 0 48 26t60 90l28 48a613.11 613.11 0 0 1 27.5 56 435.08 435.08 0 0 0 28.5 55l12-18q-23-48-41-134a690.54 690.54 0 0 0 -23-85 264.36 264.36 0 0 1 -14-86q0-34 32-53t91-19a269.47 269.47 0 0 1 108.5 23.5 291 291 0 0 1 47 26.5q21.51 15 33.5 33 15-22 15-45 0-20-14-30-7-6-31.5-14t-66.5-19q-42-11-76.5-15a532.59 532.59 0 0 0 -60.5-4 635.93 635.93 0 0 0 -205.5 34.5 508.28 508.28 0 0 0 -89.5 41 383.12 383.12 0 0 0 -74 55.5q-63 60-107 170a628.23 628.23 0 0 0 -33 110 575.07 575.07 0 0 0 -11 113q0 131 52 250 51 117 88 117 14 0 32-18t35-36zm692 100q241 0 361-37l18-3q10 0 15 4.5a35.05 35.05 0 0 1 8 10.5 42 42 0 0 1 4 13 74.84 74.84 0 0 0 3 13 405.15 405.15 0 0 0 19 93.5q15 45.49 31 92t29 96.5q13 50 13 107 0 121-62 205-63 87-182 130a631 631 0 0 1 -124 33.5 820.51 820.51 0 0 1 -133 10.5q-137 0-256-44-120-45-182.5-130t-62.5-206a502.2 502.2 0 0 1 3-54.5 334 334 0 0 1 11-55.5q8-28 20-66t29-87q25-69 26-108 3-56 32-56l22 3q143.01 35 358 35zm1142-773q0 75-86 122 22 32 21 77l-3 67 1 34q1 38-43 70-21 13-31 27a158.13 158.13 0 0 1 -57 48q-34 17-82 13l-36-2q0 81-69 141-68 58-158 58-24 0-52-15a241.45 241.45 0 0 0 -35.5-14.5 314.2 314.2 0 0 0 -32.5-8.5q-49 0-92-50-42-51-42-110-39 11-74 11-84 0-142-48-30-23-45-51.5a148.48 148.48 0 0 1 -17-60.5 162.38 162.38 0 0 0 -10.5-50.5 144 144 0 0 1 -9.5-50.5q0-37 14-69a173.17 173.17 0 0 1 39-56q25-24 59.5-39.5t75.5-19.5q-34-23-51-50.5t-17-76.5a180.27 180.27 0 0 1 21-85q21-40 66-60 18-8 29-20.5a92 92 0 0 1 26-20.5q49-26 107-26 54 0 90.5 25t63.5 87q0-6 9.5-13t26.5-18l11-7q50-31 85-31 25 0 53 17 16 10 27.5 14t20.5 4q16 0 33 7.5a135.72 135.72 0 0 1 32.5 20.5 180.66 180.66 0 0 1 28 29.5 163.4 163.4 0 0 1 20.5 35.5l39-3q39-2 72 9.5a196.76 196.76 0 0 1 60 33.5q54 44 54 105zm-437 1199q0 218-140.5 351.5t-416.5 170.5l60 29 51 19q140 54 140 115 0 30-35.5 52.5t-107.5 39.5q-72 17-154 25.5t-176 8.5q-73 0-137.5-9.5a766.1 766.1 0 0 1 -123.5-28.5q-116-39-116-98 0-26 31-54 16-14 56-33.5t101-50.5l52-26q-240-42-366.5-173.5t-126.5-339.5q0-78 17-145.5t39-130.5q22-63 42.5-123.5a544.92 544.92 0 0 0 26.5-124.5l-34 55q-38 63-74 95t-74 32q-21 0-48-22t-58-67a529.07 529.07 0 0 1 -54-95.5 736.21 736.21 0 0 1 -36-102.5 722.13 722.13 0 0 1 -20-102.5 683.43 683.43 0 0 1 -5-95.5 926.89 926.89 0 0 1 13-130.5 658.74 658.74 0 0 1 35-125.5q23-63 53.5-113.5a556.76 556.76 0 0 1 67.5-90.5q76-81 196-125 123-45 257-45 62 0 128 13.5a925.41 925.41 0 0 1 125 34.5q30 11 48 20t27.5 18.5q9.51 9.5 12.5 19.5a80.17 80.17 0 0 1 3 23 106.2 106.2 0 0 1 -8.5 42 192.18 192.18 0 0 1 -23.5 40l-194 264a1016.82 1016.82 0 0 1 102-11q52-3 109-3 0 14 4.5 40.5t14.5 66.5q-151 0-322 30-20 30-38 56a561.4 561.4 0 0 1 -38 49q151 37 213 44 32 5 67.5 7t76.5 1l152-1q77 53 172 53l14-1 16 34q-67 11-142 16.5t-159 5.5q-319 0-482-71l3 62a553.46 553.46 0 0 1 -6.5 109 844.35 844.35 0 0 1 -23 101.5q-14.49 49.5-32 98t-33 97a1011.31 1011.31 0 0 0 -26 98 492.72 492.72 0 0 0 -10.5 102.5q0 160 82 255 80 95 226 139a1143.93 1143.93 0 0 0 141.5 32 885.18 885.18 0 0 0 138.5 11q315 0 473.5-114t158.5-323q0-68-16-130t-37-122q-21-60-41-121a662.32 662.32 0 0 1 -28-128q7 0 24 11 35 23 78 23a904.18 904.18 0 0 0 31.5 108.5q19.5 54.49 38 111.5t32 118q13.5 61 13.5 129z"/></svg>