<svg viewBox="0 0 2416 2290" xmlns="http://www.w3.org/2000/svg"><path d="m1934 729q0-29-15.5-44.5t-41.5-15.5q-32 0-99 41-64 40-64 71 0 27 56 27 62 0 112-19 52-19 52-60zm-295-14q37 0 79-60 44-59 44-102 0-33-19-53t-44-20q-42 0-64 46t-22 132q0 57 26 57zm-795 954q0-47-37-47-20 0-87 84-20 23-20 53 0 25 14.5 42t35.5 17q37 0 65-55 29-54 29-94zm-325-47a51.14 51.14 0 0 0 4 19 70.66 70.66 0 0 0 11.5 19 63.61 63.61 0 0 0 17 14.5 42.08 42.08 0 0 0 21.5 5.5q38 0 110-48 74-50 74-81 0-27-52-27-41 0-75 7t-58.5 19.5q-24.5 12.5-38.5 31t-14 40.5zm1897-960q0 54-55.5 100.5t-155.5 80.5q-99 33-166 47.5t-109 17.5q-110 10-110 36l2 15q39 113 39 230 0 112-36 210.5t-108 179.5q-69 78-172 130-99 49-277 49-130 0-224-27-31-10-45-10-25 0-28 40-2 43-14.5 90t-34.5 100q-43 104-124 221-82 118-159 118a108 108 0 0 1 -40-7.5q-19-7.5-37.5-25.5t-37-48q-18.5-30-38.5-75-15-33-27.5-56t-25-37.5q-12.5-14.5-25.5-21.5a81.06 81.06 0 0 0 -28-9q-194-25-194-166 0-73-93-135-50-33-71.5-64.5a120.66 120.66 0 0 1 -21.5-69.5q0-51 45-99 23-24 55-44t74-33.5q42-13.5 95-19.5t118-3l136 7 74 8q43 0 43-27l-8-41q-10-48-13-87t-3-70q0-246 161-423 162-179 475-179 60 0 111.5 7a480.63 480.63 0 0 1 96.5 23l26 5q31 0 31-61 0-42 23-148a1221.8 1221.8 0 0 1 63-200q40-96 91.5-143t104.5-47q26 0 46 8.5t36.5 27q16.5 18.5 30.5 47.5t28 69a213.8 213.8 0 0 0 14 33 97.2 97.2 0 0 0 21.5 27q13.5 12 33.5 22t50 19q32 9 54 18.5t33 17.5q38 26 65 109 19 59 33 79 8 12 27 26t48 33q97 63 97 126z"/></svg>