<svg viewBox="0 0 2500 2215" xmlns="http://www.w3.org/2000/svg"><path d="m680 922q31 0 50.5 4t30.5 11q11 7 15.5 17a55.53 55.53 0 0 1 4.5 23q0 30-22 45.5t-79 15.5h-29q-82 0-82-60 0-14 4.5-24.5t16.5-17.5q12-7 33.5-10.5t56.5-3.5zm1365 138-33 3q-38 3-65-13.5t-27-49.5q0-28 24-41.5t87-13.5h33q70 0 70 55a44.43 44.43 0 0 1 -2 14q-2 6-5 13-11 17-32 24t-50 9zm-274 1088q0 61-96 61h-24q-93 0-93-61 0-56 105-56 72 0 90 15t18 41zm-871-1836h-30q-92 0-92-60 0-56 105-56 33 0 54 3.5t33 10q12 6.5 16 17a65.49 65.49 0 0 1 4 23.5q0 62-90 62zm309 1022q0-28 24-41.5t87-13.5q31 0 50.5 3.5t31 10.5q11.51 7 16 17.5t4.5 24.5q0 62-102 60-62 0-75-6a89.42 89.42 0 0 1 -25-21.5q-11-13.5-11-33.5zm-153-903q0-28 24-41.5t87-13.5q31 0 51 4t31 11q11 7 15.5 17a55.53 55.53 0 0 1 4.5 23q0 32-29 47.5t-67 15.5q-76 0-97-18-20-17-20-45zm-97 1157q0-56 94-56h31q29 0 47.5 14.5t18.5 43.5q0 29-23.5 45.5t-57.5 14.5l-28-1q-42-2-62-16.5t-20-44.5zm34-913q0 60-89 60h-23q-78 0-78-60 0-58 94-58h26q70 0 70 58zm614-559h-31q-92 0-92-60 0-29 24.5-42.5t86.5-13.5q31 0 50.5 4t30.5 11q11 7 15.5 17a55.53 55.53 0 0 1 4.5 23q0 61-89 61zm-1350 1230q0 29-27.5 44.5t-65.5 15.5q-62 0-86-13.5t-24-42.5q0-18 9.5-29t25-17a135.53 135.53 0 0 1 35.5-8q20-2 41-2 92 0 92 52zm613-57h43q35 0 51.5 14t16.5 39q0 25-26 41.5t-66 16.5q-32 0-53.5-3t-34.5-10q-13-7-18-17.5t-5-24.5q0-56 92-56zm-268-798q-62 0-84.5-13.5t-22.5-42.5q0-26 21.5-41t82.5-15q56 0 77 12.5t21 40.5q0 12-8 22.5a83.3 83.3 0 0 1 -21 19 102.15 102.15 0 0 1 -30 13 140.13 140.13 0 0 1 -36 4.5zm75 1091q0 26-27.5 42t-65.5 16q-32 0-53.5-3t-34-10q-12.5-7-17.5-17t-5-24q0-29 25-43.5t86-14.5q92 0 92 54zm-237-834q-62 0-85-13.5t-23-43.5q0-26 24-40.5t87-14.5q90 0 90 52a49.1 49.1 0 0 1 -15 36q-30 24-78 24zm1447 1100q0 26-26 42.5t-68 16.5q-32 0-53-3.5t-33-10.5q-12-7-17-17.5t-5-24.5q0-14 5.5-24.5t19.5-17.5q14-7 37.5-10.5t60.5-3.5l11 1q68 0 68 52zm-726-1786q0-29 25-42.5t87-13.5q91 0 91 52 0 26-26 43t-67 17q-36 0-57.5-4.5t-33-12q-11.5-7.5-15.5-17.5a58.67 58.67 0 0 1 -4-22zm301 942q0-29 24.5-42.5t86.5-13.5q31 0 50.5 4t30.5 11q11 7 15.5 17a55.53 55.53 0 0 1 4.5 23q0 61-94 61h-32q-86 0-86-60zm363-697h-36q-92 0-92-61 0-57 106-57 33 0 54 3.5t33 10.5q12 7 16.5 18a65.55 65.55 0 0 1 4.5 25q0 61-86 61zm254 991q0-26 22-41t81-15q33 0 54.5 3.5t33.5 10.5q12 7 16.5 17.5t4.5 24.5q0 61-94 61h-28q-90 0-90-61zm-49-896q31 0 50.5 3.5t30.5 10q11 6.5 15.5 17t4.5 24.5q0 62-90 62h-30q-93 0-93-61 0-14 5-24.5t17.5-17.5q12.49-7 34.5-10.5t55-3.5zm-54 1251q-94 0-94-62 0-28 24-41.5t87-13.5q31 0 51 4t31 11q11 7 15.5 17a55.53 55.53 0 0 1 4.5 23 61.18 61.18 0 0 1 -9 32 64.67 64.67 0 0 1 -11 13.5q-6 5.51-18 9t-31 5.5q-19 2-50 2zm-151-913-33 3q-38 3-65-13.5t-27-49.5q0-56 105-56 33 0 54 3.5t33 10.5q12 7 16.5 17.5t4.5 24.5a63.75 63.75 0 0 1 -6 27q-10 12-19.5 18a78.85 78.85 0 0 1 -19.5 9 106.51 106.51 0 0 1 -20.5 4q-10.5 1-22.5 2zm-596 1404q0 61-86 61h-33q-93 0-93-60 0-29 24.5-42.5t86.5-13.5h26q75 0 75 55zm976-2028h-32q-90 0-90-60 0-29 24.5-42.5t86.5-13.5q31 0 50.5 3.5t30.5 10q11 6.49 15.5 17t4.5 24.5q0 61-90 61zm-1112 825h43q35 0 52 14.5t17 37.5q0 26-25 42.5t-67 16.5q-32 0-53.5-3.5t-34.5-10q-13-6.49-18-17t-5-24.5q0-56 91-56zm273-756q100 0 100 53 0 26-25 42.5t-67 16.5q-32 0-53.5-3t-34-10q-12.49-7-17.5-17t-5-25q0-28 21.5-42.5t80.5-14.5zm526 1132q0 26-27 42.5t-68 16.5q-62 0-85-13.5t-23-42.5q0-15 5.5-25.5t19.5-17q14-6.49 38-10t60-3.5l11 2q69 0 69 51zm-207-879q0 26-27.5 42.5t-65.5 16.5q-62 0-85.5-13.5t-23.5-42.5q0-56 124-56l11 1q34 4 50.5 16t16.5 36zm-101 1153q0 25-26.5 42.5t-68.5 17.5q-62 0-85-14t-23-42q0-28 23-42t88-14q92 0 92 52zm-370-899q0-29 24-42.5t87-13.5q92 0 92 54 0 26-27.5 42t-65.5 16q-36 0-57.5-4t-33-11.5q-11.51-7.5-15.5-18a62.6 62.6 0 0 1 -4-22.5zm1111 1171q0 26-25.5 43.5t-67.5 17.5q-62 0-85-14t-23-44q0-18 9.5-29t26-16.5q16.5-5.51 39-7.5t48.5-2l11 2q34 4 50.5 15.5t16.5 34.5zm-502-1803q0-28 24-41t87-13q90 0 90 52 0 26-25.5 43t-67.5 17q-71 0-90-17-18-16-18-41zm-1453 921q0 60-89 60h-30q-94 0-94-60a54 54 0 0 1 5-23.5q5-10.5 17-18t33-11.5q21-4 53-3l55 1q50 6 50 55zm318 1174q0 60-89 60h-28q-97 0-97-62 0-28 24-41t87-13h26q77 0 77 56zm-334-1915q0-29 24.5-43t86.5-14q31 0 50.5 3.5t31 10q11.5 6.5 15.5 17t4 24.5q0 30-21 46t-77 16h-28q-86 0-86-60zm156-184q0-14 5-24.5t18-17.5q13-7 34.5-10.5t53.5-3.5q31 0 51 4t31 11q11 7 15.5 17a55.53 55.53 0 0 1 4.5 23q0 61-91 61h-30q-92 0-92-60zm-171 1729q38 5 53 17.5t15 36.5q0 26-27 42.5t-68 16.5q-62 0-84.5-14t-22.5-43q0-15 5.5-25.5t20.5-17q15-6.49 41-10t67-3.5zm-224-1498q-62 0-86-13.5t-24-42.5q0-29 24.5-42.5t86.5-13.5q92 0 92 54 0 23-26 40.5t-67 17.5zm710 1505h41q10 2 22 4.5a78.67 78.67 0 0 1 22 8 47.46 47.46 0 0 1 16.5 15q6.5 9.5 6.5 24.5 0 28-27 44t-68 16q-31 0-51.5-3.5t-32.5-10.5q-12-7-17-18a59.84 59.84 0 0 1 -5-25q0-55 93-55zm-597-1732q0-28 24-41t87-13q90 0 90 52 0 26-25.5 43t-67.5 17q-71 0-90-17-18-16-18-41zm2006 231q-36 0-60-14t-24-37q0-26 20.5-37t71.5-11q36 0 60 3t38.5 9q14.51 6 20 15a39.44 39.44 0 0 1 5.5 21q0 32-29 41.5t-103 9.5zm-1747 1113q-36 0-60-14.5t-24-39.5a46.39 46.39 0 0 1 4.5-21q4.5-9 16-15t32-9q20.5-3 53.5-3 110 0 112 50 1 32-30 42t-104 10zm-320-1019q52 0 75 11.5t27 35.5q0 14-5 24t-18 16q-13 6-35.5 9t-57.5 3q-101 0-101-52a42.58 42.58 0 0 1 5-21q5-9 18-14.5t35-8.5q22-3 57-3zm-76 358q-61 0-61-53 0-47 63-47h31q67 0 67 47 0 32-21 42.5t-79 10.5zm1320 1109q0 14-5 24t-18 16q-13 6-35.5 9t-57.5 3q-101 0-101-52a46.39 46.39 0 0 1 4.5-21q4.5-9 15.5-15t30-9q19-3 48-3 69 0 94 12.5t25 35.5zm-481-1751q-36 0-60.5-13.5t-24.5-38.5q0-16 7.5-25.5a47.19 47.19 0 0 1 20-14.5 101.56 101.56 0 0 1 28-6.5q15.5-1.5 32.5-1.5h38q92 0 92 48 0 33-29 42.5t-104 9.5zm1431 586q0 26-18 39.5t-75 13.5q-89 0-89-53 0-16 6.5-26a37.62 37.62 0 0 1 17-14.5 83.75 83.75 0 0 1 23.5-6 235.62 235.62 0 0 1 27-1.5q23 0 40.5 1a162.23 162.23 0 0 1 29.5 4q15 8 26.5 15.5t11.5 27.5zm139-638q0 19-6.5 29.5a38.85 38.85 0 0 1 -18 15.5 77.53 77.53 0 0 1 -25.5 6q-14 1-29 1-81 0-81-52 0-17 6.5-26.5a41 41 0 0 1 18-14.5q11.51-5 27-6t33.5-1q75 0 75 48zm-357 2099q0 28-18 40t-67 12q-75 0-75-52 0-17 6-26.5a38.78 38.78 0 0 1 16.5-14.5 66.07 66.07 0 0 1 23.5-6q13-1 27-1 51 0 69 12t18 36zm304-1690q0 28-16.5 40t-65.5 12a212.84 212.84 0 0 1 -30-2 75.35 75.35 0 0 1 -24.5-7.5 43.49 43.49 0 0 1 -17-16q-6.5-10.5-6.5-27.5 0-16 5.5-25.5a33.82 33.82 0 0 1 15-14 61.88 61.88 0 0 1 21.5-5.5q12-1 25-1 54 0 73.5 11.5t19.5 35.5zm-2384-357q-26 0-44.5-13t-18.5-39q0-17 5.5-26.5a37.89 37.89 0 0 1 14.5-14.5q9-5 21.5-6t26.5-1q55 0 73.5 12.5t18.5 35.5q0 33-20.5 42.5t-76.5 9.5z"/></svg>