<svg viewBox="0 0 2444 2356" xmlns="http://www.w3.org/2000/svg"><path d="m2182 1928 2 16q44-19 59-32t15-28a23.7 23.7 0 0 0 -8.5-18.5 29.92 29.92 0 0 0 -20.5-7.5q-13 0-22 6.5a54.84 54.84 0 0 0 -15 16.5 70.19 70.19 0 0 0 -8.5 22.5 87.15 87.15 0 0 0 -1.5 24.5zm244 208-4 16-47 77q-8 15-24 15l-6-2h-3q-73 0-149-46-76-47-108-121-78-11-138-67t-92-147l-2-11q0-12 9-21l63-64q8-8 21-8 16 0 30 26 44 101 98 136 24-82 65-124t106-42q50 0 82 35.5t32 94.5a144.65 144.65 0 0 1 -7.5 45 187.21 187.21 0 0 1 -22 45 218.77 218.77 0 0 1 -36 41.5 246.31 246.31 0 0 1 -49.5 34.5q33 26 69 39.5a333.51 333.51 0 0 0 75 18.5l19 3 5 2q14 10 14 24zm-2426-1442 4-15 33-55q6-15 25-15 10 0 20 8 31 29 66 29a90.73 90.73 0 0 0 24.5-3.5q12.5-3.5 27-7.5t31-7.5a176.47 176.47 0 0 1 36.5-3.5q61 0 99 51 15 20 27 33a135 135 0 0 0 24 21 83.5 83.5 0 0 0 25.5 11.5q13.5 3.5 31.5 3.5 11 0 21 7.5t9 22.5l-3 73q-2 29-45 29a164.07 164.07 0 0 1 -76-18.5q-36-18.5-55-44.5-15-20-25-31t-18.5-16.5a46 46 0 0 0 -17-7 120.05 120.05 0 0 0 -20.5-1.5q-22 0-49 10t-65 10a157.16 157.16 0 0 1 -46-7 138.54 138.54 0 0 1 -43-22q-41-30-41-54zm301 1201q0 11-9 20l-63 65q-11 8-22 8t-21-8l-64-65a27.14 27.14 0 0 1 -8-20q0-14 8-22l64-63q10-10 21-10t22 10l63 63a29.92 29.92 0 0 1 9 22zm99 178h90q13 0 21.5 8.5t8.5 19.5v92q0 11-8.5 20t-21.5 9h-90q-11 0-20.5-7.5t-9.5-21.5v-92q0-13 9.5-20.5t20.5-7.5zm899-221h86q11 0 20 9t9 20v85q0 14-9 22t-20 8h-86q-29 0-29-30v-85q0-11 8-20t21-9zm-463 26v91q0 30-29 30h-90q-14 0-22-9a30.64 30.64 0 0 1 -8-21v-91a27.66 27.66 0 0 1 8-19.5q8-8.51 22-8.5h90q13 0 21 8.5a27.66 27.66 0 0 1 8 19.5zm1162 325q0 13-9 20l-60 60q-11 9-22 9-13 0-20-9l-60-60q-9-7-9-20 0-12 9-21l60-60q10-10 20-10 11 0 22 10l60 60q9 9 9 21zm139-669q12 0 21 9l60 60q8 10 8 21a27.14 27.14 0 0 1 -8 20l-60 61q-8 9-21 9-14 0-20-9l-62-61q-8-10-8-20t8-21l62-60q9-9 20-9zm-767 656q0 11-8 21l-61 60a23.6 23.6 0 0 1 -11 6.5 45.67 45.67 0 0 1 -11 1.5q-13 0-20-8l-60-60q-8-8-8-21 0-15 8-20l60-62a27.14 27.14 0 0 1 20-8 34.45 34.45 0 0 1 22 8l61 62a27.14 27.14 0 0 1 8 20zm-790-359q0 13-8 20l-64 64q-9 9-21 9-13 0-20-9l-64-64q-10-7-10-20 0-14 10-21l64-64q7-10 20-10 12 0 21 10l64 64q8 5 8 21zm-487-630q-13 0-20-8l-64-64q-9-9-9-21a25.65 25.65 0 0 1 9-20l64-65q10-9 20-9t22 9l63 65q10 10 10 20 0 11-10 21l-63 64q-9 8-22 8zm285-264q11 0 22 8l63 65a27.14 27.14 0 0 1 8 20q0 11-8 21l-63 64q-11 10-22 10t-21-10l-64-64q-8-10-8-21a27.14 27.14 0 0 1 8-20l64-65q10-8 21-8zm310 746h-90q-14 0-22-9a30.64 30.64 0 0 1 -8-21v-91q0-12 9.5-21t20.5-9h90a27.19 27.19 0 0 1 20.5 9 29.61 29.61 0 0 1 8.5 21v91q0 11-8 22-11 8-21 8zm-487-123h-8q-13 0-22-11l-46-59q-7-7-7-18 0-12 10-20.5t27-8.5q20 0 34-7a90.2 90.2 0 0 0 25-18.5 169.09 169.09 0 0 0 20.5-26.5q9.5-15 21.5-32 18-26 48-41.5t73-19.5q31-2 52.5-6.5t36.5-12.5a71.39 71.39 0 0 0 24.5-21q9.5-13 16.5-33 20-60 54.5-90t80.5-27l42 3q55-4 91-57l11-24q5-17 10.5-22.5t19.5-5.5q11 0 23 10l46 58 6 19q-4 47-55 93t-105 45l-43-1q-27-1-43 13.5t-33 58.5l-23 44q-20 37-56.5 54t-84.5 17q-49 0-70 13-9 5-20 16t-22 29q-28 44-61 66.5t-74 22.5zm954 320 7 79q4 48-14.5 77t-44 48a438.94 438.94 0 0 1 -51 33q-25.5 14-35.5 30l-7 28q-3 39-8.5 65.5t-10.5 40.5a159.06 159.06 0 0 1 -35 52q-23 23-45 23l-79-30q-17-6-19-26 0-18 16-28 43-19 46-79 3-62 12-83a221.43 221.43 0 0 1 9.5-20.5q5.5-10.5 16.5-22a292.43 292.43 0 0 1 28.5-25.5q17.5-14 46.5-31 23-14 35-35.5t10-49.5l-5-74q-4-44 18.5-74.5t64.5-49.5q69-31 69-105l-3-28-2-1-1-10q0-11 8-20.5t21-9.5l12 3 69 27a51 51 0 0 0 7.5 4q4.5 2 8 8.5t6 19q2.5 12.5 2.5 34.5 0 45-22 86.5t-61 62.5l-30 16q-23 13-32.5 26.5t-7.5 38.5zm624 15q0 55-33 100-33 43-53 43h-2l-79-13q-13-2-19-10.5a33 33 0 0 1 -6-19.5q0-12 10-22 45-45 45-92 0-49-55-94-53-44-53-97 0-30 23-87 23-55 23-71 0-41-42-79-70-63-70-145a163.57 163.57 0 0 1 8-52q9-22 28-51 18-28 37-28h4l79 15q23 2 23 28 0 13-8 21-34 43-34 82 0 49 52 101 60 60 60 122 0 22-9 54.5t-29 74.5q-8 18-8 28 0 29 31 52 77 62 77 140zm-303-944q1 35-10.5 65a162.91 162.91 0 0 1 -33.5 53.5 185.11 185.11 0 0 1 -53 39q-31 15.49-69 21.5-37 6-55 18a111.55 111.55 0 0 0 -17 14 64.05 64.05 0 0 0 -13 19q-5 9-10.5 30t-10.5 53q-18 106-123 116-115 14-115 115l4 37v4q0 13-8 22a25.65 25.65 0 0 1 -20 9q-8 0-84-35a27.2 27.2 0 0 1 -10-3.5q-4-2.51-7-9.5t-4.5-19.5q-1.5-12.5-1.5-35.5 0-73 45.5-120.5t123.5-53.5q33-2 49-19t21-49l8-47q12-65 50-94t95-40q59-11 90-41.5t28-80.5l-1-26q-1-11 7-20.5t21-9.5l13 3 71 32q16 7 18 19t2 34zm-833-359a468 468 0 0 0 39 188q63-8 110-16t77-16q61-15 121.5-35t139.5-52q224-92 426-255-59-134-177-210-119-78-261-78-124 0-234 61-112 62-176 174-65 113-65 239zm1208-149a458.15 458.15 0 0 0 -164 30 1472.18 1472.18 0 0 0 18 146.5q13 75.5 33 157.5 39 164 116 323 38 80 78 146a1366.06 1366.06 0 0 0 82 121q141-51 226-174 86-123 86-272 0-66-17-126a497.78 497.78 0 0 0 -49-115q-65-110-176-174-111-63-233-63zm-1169 455q-73 0-115-85-43-83-43-219 0-160 80-296 80-137 219-217a610.43 610.43 0 0 1 142.5-60.5 564.83 564.83 0 0 1 152.5-20.5q175 0 324 97t221 260a694.29 694.29 0 0 1 93.5-23 556.68 556.68 0 0 1 94.5-8q156 0 293 79 137 80 218 216 82 140 82 298a579.37 579.37 0 0 1 -38 206.5q-38 100.5-105 179.5-64 77-154 129-87 50-133 50-59 0-93-46-8-8-23.5-29.5t-38.5-58.5q-23-35-46-76t-47-88q-71-137-120-302.5a2058.05 2058.05 0 0 1 -70-342.5q-67 47-135 89t-140 80a1457.48 1457.48 0 0 1 -153.5 70.5q-82.5 32.5-179.5 60.5t-167.5 42.5q-70.5 14.5-118.5 14.5z"/></svg>