<svg viewBox="0 0 2258 2329" xmlns="http://www.w3.org/2000/svg"><path d="m1399 916v23q0 36 2 59t7 33q10 19 47 19 26 0 41.5-5t24-14a42.93 42.93 0 0 0 11-21.5 134.7 134.7 0 0 0 2.5-26.5l-1-41 2-178q1-43-1.5-72.5t-10-47.5q-7.5-18-22-25.5t-37.5-7.5q-68 0-65 77l1 44q1 19-6 31t-15 12h-49q-11 0-18-13.5a63.07 63.07 0 0 1 -7-29.5l2-44q2-77-66-77-67 0-70 81l-1 49 3 201-2 41a134.7 134.7 0 0 0 2.5 26.5 42.93 42.93 0 0 0 11 21.5q8.51 9 24.5 14t42 5q18 0 29-4a32.74 32.74 0 0 0 17-13.5q6-9.49 8-26.5a380.48 380.48 0 0 0 2-43v-40q0-22 27-22h32q33 0 33 15zm-568-186h-10q-57 0-63-42 0-17 6-29 3-7 13-21t29-35q39-44 49-37 16 0 26 23t10 63q0 42-17.5 60t-42.5 18zm741 1367v-127a102.66 102.66 0 0 0 -8.5-41.5 109.41 109.41 0 0 0 -23-34 107.93 107.93 0 0 0 -34.5-23 106.2 106.2 0 0 0 -42-8.5h-319a102.66 102.66 0 0 0 -41.5 8.5 115.73 115.73 0 0 0 -34.5 23 105.4 105.4 0 0 0 -23.5 34 102.66 102.66 0 0 0 -8.5 41.5v127a102.66 102.66 0 0 0 8.5 41.5 105.4 105.4 0 0 0 23.5 34 115.73 115.73 0 0 0 34.5 23 102.66 102.66 0 0 0 41.5 8.5h319a106.2 106.2 0 0 0 42-8.5 107.93 107.93 0 0 0 34.5-23 109.41 109.41 0 0 0 23-34 102.66 102.66 0 0 0 8.5-41.5zm-844-1208h33q57 0 60 41l3 40q3 44 20.5 65.5t54.5 21.5q92 0 92-90 0-58 15-73 7-7 23-13t40-9q65-6 65-95a158.67 158.67 0 0 0 -2.5-28 82 82 0 0 0 -8.5-25 54.36 54.36 0 0 0 -15.5-18q-9.49-7-23.5-6l-25 1q-42 3-42-62a272 272 0 0 1 7-60q7-31 7-54 0-171-103-171a140.14 140.14 0 0 0 -49 8.5q-23 8.5-46 27t-49 46.5q-26 28-59 67-66 78-97 145t-31 126q0 53 37 84t94 31zm-357-22q0-16 26-40 197-176 197-312 0-42-15.5-76a163.56 163.56 0 0 0 -44-58q-28.5-24-68-37t-87.5-13q-79 0-147 53-67 52-67 111 0 30 15.5 53t45.5 23q19 0 62-26 46-26 71-26 15 0 32 12.5t17 44.5q0 20-17 49.5t-54 69.5l-49 53q-52 57-79.5 100.5t-26.5 75.5a179.76 179.76 0 0 0 10.5 56 115.88 115.88 0 0 0 28 44q18.5 18 46 26.5t64.5 3.5l91 3 48-4 38-7q74-6 74-70 0-34-20.5-56.5t-56.5-22.5h-13l-50 1h-19q-25 0-34-8-18-10-18-23zm566 852h1321v610h-197v-348a108.82 108.82 0 0 0 -10-46.5 125.48 125.48 0 0 0 -26.5-37.5 121.4 121.4 0 0 0 -38-25 114.16 114.16 0 0 0 -44.5-9h-74a113.79 113.79 0 0 0 -46.5 9.5 121.18 121.18 0 0 0 -63 63 111.38 111.38 0 0 0 -9.5 45.5v348h-1014v-942l-72 1q-195 4-324.5-24.5t-201.5-83.5q-71-55-104-152-33-96-33-282 0-161 2.5-266.5t7.5-159.5q10-107 38-167t112-136q130-117 664-117 152 0 268.5 8t202 24.5q85.5 16.5 142 41t89.5 57.5a421.25 421.25 0 0 1 71 96.5q28 52.5 44 115.5 15 63 23 161.5t8 235.5q0 191-25 294-23 103-75 174-51 71-130 105a722.5 722.5 0 0 1 -86 30 987.43 987.43 0 0 1 -97 22q-51 9-131 13.5t-191 6.5v167q26-52 77-85.5t114-33.5h918q78 0 142 58 62 56 68 139h-1319z"/></svg>