<svg viewBox="0 0 2256 2186" xmlns="http://www.w3.org/2000/svg"><path d="m1276 1394q0-10 14-10 38 0 74 30 36 31 36 63 0 50-93 50-42 0-42-15l6-10q26-17 26-45 0-24-10.5-39.5t-10.5-23.5zm310-803q-1 29-14 80t-38 124q-25 72-53 129t-59.5 99.5q-31.5 42.5-67.5 72.5a359.65 359.65 0 0 1 -76 49l-17 3q-23 0-23-15v-7l60-106a773.46 773.46 0 0 0 33.5-84q13.5-41 22.5-80 10-39 19.5-93t19.5-126q4-39 45-47l37-9a478.69 478.69 0 0 1 49-20q21-7 37-7 17 3 21 13t4 24zm-450-376q103 0 187.5 10t152.5 29q137 40 137 95t-138 94q-69 20-153 30t-186 10q-103 0-188-10t-154-30q-136-39-136-94 0-56 137-95 138-39 341-39zm-635 847q51 0 79-67-80-100-119-265l-66-32q-143-72-143-160a85.77 85.77 0 0 1 17.5-52.5q17.5-23.5 53.5-23.5 30 0 55 18t49 38q-5-52-7.5-82.5t-2.5-38.5a379.21 379.21 0 0 1 2-40.5q2-18.5 5-33.5a262.53 262.53 0 0 0 -46-14 255.17 255.17 0 0 0 -52-5q-96 0-158 64-61 62-61 165 0 101 65 180 66 77 171 105 63 17 94.5 47t31.5 62q0 18-7.5 38.5a128.58 128.58 0 0 0 -7.5 44.5q0 20 13.5 36t33.5 16zm329 689v153a34.65 34.65 0 0 0 9 24q9 10 24 10h545q9 0 21-7t12-27v-153q0-16-11-25t-22-9h-545a33.37 33.37 0 0 0 -23 9q-10 9-10 25zm917-1353q0-70-34-119a499.39 499.39 0 0 0 -98.5-76q-55.5-33-126-54.5t-158-32.5q-87.5-11-194.5-11-214 0-349 41-134 42-219 121-45 41-45 131 0 45 6 103.5t20 131.5q13 73 34 135.5a580 580 0 0 0 53 115.5q64 105 212 228 30 25 50 46.5t31 40.5q11 19 15.5 36a132.38 132.38 0 0 1 4.5 34q0 67-94 107-96 42-96 108a82.48 82.48 0 0 0 1 15c.67 3.33 1.67 5.67 3 7q8 24 35.5 35t75.5 13l204 5q138 4 226-1.5t127-13.5q39-7 58.5-22t19.5-36q0-69-85-107-29-13-48.5-24.5t-31.5-23.5a68.55 68.55 0 0 1 -17-27q-5-15-5-35a152.1 152.1 0 0 1 4-35q4-17 15.5-35.5t30.5-39.5q19-21 49-47 37-32 72.5-64t67.5-67q95-104 140.5-249.5t45.5-333.5zm402 135q0-100-63-165-62-64-156-64a229.21 229.21 0 0 0 -83 15q3 15 5 34a404.44 404.44 0 0 1 2 42q0 14-2 41t-6 69q47-43 87-43 36 0 53.5 22.5a81.59 81.59 0 0 1 17.5 51.5q0 88-131 153l-62 32q-41 175-130 284 32 57 74 57 24 0 35.5-18a71 71 0 0 0 11.5-39q0-23-7.5-42t-7.5-36a77.53 77.53 0 0 1 5.5-27.5q5.51-14.5 20-28.5t39.5-28q25-14 65-26 107-35 169.5-106.5t62.5-177.5zm107-2q0 140-90 249-91 107-217 137a254.2 254.2 0 0 0 -26 7.5 160.71 160.71 0 0 0 -27 12.5l7 32 4 39a160.52 160.52 0 0 1 -12 62 157.8 157.8 0 0 1 -33 50.5 156 156 0 0 1 -49.5 34 151.46 151.46 0 0 1 -61.5 12.5q-85 0-145-82-15 11-41 33.5t-61 57.5q-71 69-77 88 189 80 189 222l-3 17q33 7 42 40l103 378h104q22 0 39 17t17 39v154q0 24-16.5 39.5t-39.5 15.5h-1454q-24 0-39.5-15.5t-15.5-39.5v-154q0-22 16.5-39t38.5-17h105l101-378q9-30 41-40l-1-11v-10a198 198 0 0 1 9.5-62q9.5-29 31-55.5t58-51q36.5-24.5 90.5-49.5-5-16-39.5-50t-97.5-92l-51-47q-56 92-156 92a144.65 144.65 0 0 1 -58.5-12 138 138 0 0 1 -47.5-34 170.77 170.77 0 0 1 -32-52q-12-30-12-65l4-37 7-30-7-4-41-14q-71-23-127.5-58a396.16 396.16 0 0 1 -99.5-88q-85-104-85-242 0-141 93-237t233-96a356.33 356.33 0 0 1 72 7 330.81 330.81 0 0 1 66 21q84-109 250.5-167.5t421.5-58.5q250 0 412.5 57t254.5 163q56-22 127-22 144 0 236 97 90 98 90 236z"/></svg>