<svg viewBox="0 0 1660 1816" xmlns="http://www.w3.org/2000/svg"><path d="m941 1061q306 0 488 84 180 83 180 217a90.83 90.83 0 0 1 -13 47q-13 22-33 22-14 0-31-14l-26-22-39-29a331.32 331.32 0 0 0 -69.5-38 204 204 0 0 0 -75.5-14q-97 0-211 97-111 96-184 156.5t-111 86.5q-137 92-210 120-73 29-135 29a433.82 433.82 0 0 1 -47-2.5 442.25 442.25 0 0 1 -46-7.5l-126-23q-16 0-36 23-18 23-36 23-54 0-117-63t-63-102q0-22 14-33 30-23 40-32.5t9-24.5l-1-52v-21q0-114 154-217 314-210 725-210zm-890-648q0-43 101-43 139 0 216 139 78 137 78 357a485.62 485.62 0 0 1 -4.5 68.5 247.25 247.25 0 0 1 -15.5 58.5 375.36 375.36 0 0 1 -25 49 259.72 259.72 0 0 1 -34 44q-37 40-140 105-109 70-158 129l-3-65q-2-60 17-146t54-201q29-92 42.5-163.5t13.5-122.5q0-88-42-138-5-6-20.5-13t-39.5-16q-40-13-40-42zm1290-341q0-42 62-42a183.72 183.72 0 0 1 80.5 18.5q38.5 18.5 76.5 55.5 74 72 74 156 0 42-39 42-44 0-108-44-63-44-105-101-41-56-41-85zm319 412a137.24 137.24 0 0 1 -9 49.5 144.77 144.77 0 0 1 -23.5 41 116.4 116.4 0 0 1 -33.5 28 81.53 81.53 0 0 1 -40 10.5 80 80 0 0 1 -28.5-5.5 85.49 85.49 0 0 1 -26-15.5 79.21 79.21 0 0 1 -18.5-23.5 63.07 63.07 0 0 1 -7-29.5q0-51 37-95 36-45 75-45 29 0 51.5 22.5t22.5 62.5zm-483-192q0-43 38-75 38-34 81-34 24 0 71 33a342.56 342.56 0 0 1 43.5 36 289.6 289.6 0 0 1 35.5 41.5 231.88 231.88 0 0 1 24 43q9 21.5 9 40.5a90.12 90.12 0 0 1 -8.5 39 98.78 98.78 0 0 1 -23.5 31.5 110.19 110.19 0 0 1 -34.5 21 114.59 114.59 0 0 1 -41.5 7.5q-45 0-86-28-44-28-77-75-31-46-31-81zm-89-95q-24-3-44-41-11-20-15.5-37.5a131.06 131.06 0 0 1 -4.5-32.5q0-41 33.5-63.5t96.5-22.5q49 0 77.5 25t28.5 61q0 17-18 31t-53 32l-31 16q-18 11-33 21.5t-37 10.5zm330 673a114.59 114.59 0 0 1 -41.5-7.5 100.58 100.58 0 0 1 -56-51 84.68 84.68 0 0 1 -8.5-37.5q0-20 11-40.5t33-44.5q45-48 94-48a108 108 0 0 1 40 7.5 116.19 116.19 0 0 1 33.5 20 97 97 0 0 1 23.5 30.5 86 86 0 0 1 9 39q0 62-45 96a212.25 212.25 0 0 1 -46.5 26.5q-23.5 9.5-46.5 9.5zm-63 184a560.69 560.69 0 0 0 -128-31q-66-8-136-15 1-38 54-84 54-45 100-45 50 0 95 36 43 35 43 70 0 37-28 69zm-601-819a92.21 92.21 0 0 1 11.5-45 117.14 117.14 0 0 1 30.5-36 155.22 155.22 0 0 1 44-24 152.37 152.37 0 0 1 52-9q22 0 43.5 14.5a189.31 189.31 0 0 1 38.5 34.5 216.21 216.21 0 0 1 28 41.5q11 21.5 11 35.5t-5.5 23a66.46 66.46 0 0 1 -15.5 17l-86 66q-28 20-53 20-36 0-67-51-32-50-32-87zm-243 196q0-48 35-88 37-40 85-40 30 0 63 28a205.21 205.21 0 0 1 30 33 416.88 416.88 0 0 1 27 42q26 46 26 63 0 15-60 70l-23 22q-37 34-53 34-20 0-37-14-20-15-58-74-35-44-35-76zm796 161q0 50-43 89-39 38-91 38-65 0-155-85-89-84-89-154 0-47 45-86t93-39q10 0 17.5.5a60.23 60.23 0 0 1 16 3.5 146.67 146.67 0 0 1 19 8.5 292.29 292.29 0 0 1 25.5 15.5q15 10 27.5 19a266.77 266.77 0 0 1 22.5 18q10 9 33 37t58 76q21 29 21 59zm-586 98q0-26 8.5-47t25.5-40q35-38 74-38 17 0 30.5 5.5t38.5 26.5q12 11 25 23t27 25l36 36 53 51q30 29 42.5 49t5.5 33q0 46-42 80-38 33-82 33-89 0-165-75-77-75-77-162zm151 314q-81 4-154 14t-140 25q-26-23-43.5-59t-17.5-72q0-50 29-81a124.18 124.18 0 0 0 15.5-16.5 154.88 154.88 0 0 1 15.5-17 95.52 95.52 0 0 1 17.5-13 42.08 42.08 0 0 1 21.5-5.5q28 0 55 41 23 38 94 93 104 82 107 91zm-444-511q4-6 13-6 12 0 30 19t56 71q38 53 38 86 0 30-17.5 56t-45.5 29l-4-1q-12-122-70-254z"/></svg>