<svg viewBox="0 0 1744 2066.14" xmlns="http://www.w3.org/2000/svg"><path d="m1119 1245 104-88q15 20 27.5 39.5t23.5 38.5q16 30 33.5 51.5t31.5 41.5q-59 47-96.5 77.5t-55.5 47.5l-5 4-45-133zm-19 276-77 56-93 58q-17-66-27.5-106t-13.5-56l-5-27 71-61q30-26 50.5-43t29.5-26q7 25 23 76t42 129zm-341-632-55-98q28-19 36-19 36-14 73.5-32t75.5-38a367.09 367.09 0 0 0 61.5 49.5q33.5 21.5 54.5 43.5l-71 83q-33 40-54.5 72.5t-24.5 40.5l-30 16zm-4 578 32-2q11 50 19 83.5t15 53.5l-4 1-243 58-41-85-23-57-29-65a1155.43 1155.43 0 0 1 137 8 848.11 848.11 0 0 0 137 5zm330-613q14 10 37 24.5t57 34.5q30 17 55.5 35t48.5 36l-216 176-104-154 41-56q5-5 25.5-29.5t55.5-66.5zm-93 372-162 134-4 4-71 4a793.86 793.86 0 0 1 -137-4 1268 1268 0 0 0 -142-8l40-67q23-40 41.5-77t38.5-61q29-1 65.5-5.5a762.75 762.75 0 0 0 76-13.5q39.5-9 80-21.5a691 691 0 0 0 78.5-29.5l15 20q20 27 39.5 58t41.5 67zm152-452 98-130q-46-28-89-46l-16 22q-4 31-9.5 51t-14 31q-8.51 11-19.5 15.5t-26 4.5a181.49 181.49 0 0 1 -38.5-4 124.26 124.26 0 0 1 -32.5-11.5 64.21 64.21 0 0 1 -22.5-19.5q-8.5-12-8.5-29 0-47 26-108l-76 33-212 97q-18 8-29 13.5t-16 9.5l-63-116-93 34 225 413q-43 11-129 18h-12q-245-147-335-245-29 35-58 82 24 24 48.5 46a601.14 601.14 0 0 0 52.5 42l-60 38-64 40-60 46q-6 31-9.5 62a562 562 0 0 0 -3.5 63 241.36 241.36 0 0 0 37.5-21q17.5-12 34.5-24l56-44 68-44q16-10 36.5-23t46.5-33l125 79-56 96q-25 43-44 77.5t-31 60.5l-174-4-94-7q7 21 9 48a425.24 425.24 0 0 0 7 52 301.56 301.56 0 0 0 37.5 4q20.5 1 41.5 2l170 2a159 159 0 0 0 7 19 67.25 67.25 0 0 0 11 17l91 203q-50 12-99 22.5t-110 30.5q25 26 45 45.5t37 33.5l86-20 86-24q50 94 74 163 32 8 62.5 13.5t58.5 8.5l-17-34q-9-19-16-35.5t-13.5-33q-6.5-16.5-14-34t-17.5-37.5l-18-35 193-45 33-9 23 76q8 26 21 61t35 78l21 54q26-4 50.5-8t47.5-9l-33-85q-14-37-28-69t-24-62l117-72 72-54q38 27 100 88 30 29 56 51t48 38q17-15 63-74-53-47-92.5-84.5t-70.5-63.5l-19-16q26-26 54.5-49.5t58.5-46.5q30-23 61.5-47t63.5-52l97-84q0-30-2-61t-6-64l-6 7-138 120q-20-25-36-48t-30-45l-51-79a1059.36 1059.36 0 0 1 100.5-76 631.14 631.14 0 0 0 96.5-79l-48-87-87 67-56-40q-20-14-40-27t-42-25a408 408 0 0 1 -41-25.5q-19-13.5-39-29.5zm21-277q218 85 360 299 140 210 143 459 1 117-26 223t-79.5 196.5a757.79 757.79 0 0 1 -127.5 163.5 774.11 774.11 0 0 1 -169 124.5q-94 51.49-205 78.5t-235 25q-121-2-228-26.5a746.05 746.05 0 0 1 -201-77.5q-188-105-293-296-104-189-104-425 0-229 111-409 112-182 316-283 204-103 455-103 39 0 72 3t61 8l4-31q0-29-22-48l-9-6q-91-40-166-85.5a1445.93 1445.93 0 0 1 -138-94.5q-29-23-48-38.5t-27-26.5q-17-23-17-49 0-32 24.5-55t56.5-23q33 0 55 22 0 2 28 27t82 62q54 37 132.5 79.5t179.5 77.5q106 37 245 56 142 21 270 21a75.32 75.32 0 0 1 30 6 83.63 83.63 0 0 1 25 16.5 78.56 78.56 0 0 1 17.5 25 73.79 73.79 0 0 1 6.5 30.5q0 33-23 56t-58 23q-51 0-107.5-3t-121.5-10q-66-8-119-17t-98-20l-5-2h-7q-18 0-25 13a146.48 146.48 0 0 0 -11 18 35.46 35.46 0 0 0 -4 16z"/></svg>