<svg viewBox="0 0 2154 1991" xmlns="http://www.w3.org/2000/svg"><path d="m885 1037-23-3q-45 21-45 57 0 29 20 46t43 17q58 0 94-55 21-47 59-47a61.32 61.32 0 0 1 21 4 113 113 0 0 1 22 11q29 0 51-1t36.5-6.5q14.51-5.51 21.5-16t7-29.5q0-26-15-45t-43-19l-24 5q-15 15-45 15-18 0-29.5-14.5t-11.5-34.5l2-23q0-32-57-32-38 0-54.5 15t-16.5 26q0 16 7 28 32 6 32 54 0 22-14 35t-38 13zm-146 56q-1-35 12-63t41-45l40-24q-12-27-12-54a102 102 0 0 1 11.5-48 113.54 113.54 0 0 1 31.5-37.5q20-15.5 47-24.5t59-9q113 0 134 88l31-4a130.21 130.21 0 0 1 53 11 143.07 143.07 0 0 1 44 30 133.61 133.61 0 0 1 29.5 45 148.12 148.12 0 0 1 10.5 56q0 30-11.5 55a119.81 119.81 0 0 1 -32.5 42.5q-21 17.51-50 27t-63 9.5q-39 0-73-10-59 93-161 93-61 0-100-38t-41-100zm333-996q-87 0-140 55.5t-64 170.5l124 10q97 8 170 29t126 43a819.14 819.14 0 0 1 99 52 708.4 708.4 0 0 1 91 67 879.3 879.3 0 0 1 151 168 1020.75 1020.75 0 0 1 106 197q28-60 79.5-94t113.5-34q60 0 89 12-21-58-55.5-117.5a892.69 892.69 0 0 0 -81.5-117 1144.92 1144.92 0 0 0 -106-112.5 1186.6 1186.6 0 0 0 -129-104 1361.45 1361.45 0 0 0 -146.5-90 1458.92 1458.92 0 0 0 -158.5-72q-165-63-268-63zm-81 1509q43 0 61-37 22-42 54-72a249.39 249.39 0 0 1 70-49q20-11 52.5-24t81.5-30l309-102q65-22 130.5-45t131.5-48q136-51 147-61 12-9 12-19 8-40 13-71t3-55l-2-62a288.09 288.09 0 0 0 -17.5-38 123.05 123.05 0 0 0 -22-29 87.91 87.91 0 0 0 -29-18.5q-16.5-6.5-38.5-6.5-78 0-115.5 43t-37.5 113q0 45-19 77t-59 50a484.42 484.42 0 0 1 -88 30.5q-44 10.5-87 18.5-42 8-71 15.5t-46 13.5q-48 19-96.5 35.5t-98.5 32.5l-770 252q-31 10-62 18t-60.5 16q-29.5 8-56 16.5a248.63 248.63 0 0 0 -47.5 20.5q-12 7-21 7-15 0-26.5-11t-11.5-29q0-46 144-82 89-22 174.5-49t171.5-56l345-114q153-51 249.5-83t137.5-48a378 378 0 0 1 40-13.5 341.53 341.53 0 0 1 40-8.5q41-5 77.5-12.5a605.13 605.13 0 0 0 69.5-18.5q67-23 76-33-7-30-15-57.5a484.53 484.53 0 0 0 -19-53.5 165.61 165.61 0 0 1 -35.5 41 247.68 247.68 0 0 1 -48.5 31.5 258.3 258.3 0 0 1 -57 20.5 267.36 267.36 0 0 1 -61 7q-41 0-75-11t-59.5-31a141.57 141.57 0 0 1 -39.5-47.5q-14-27.5-14-60.5v-20l2-15q2-24 18.5-50a227.37 227.37 0 0 1 42-48.5 223.82 223.82 0 0 1 58.5-37 167.35 167.35 0 0 1 68-14.5q34 0 75 11-51-65-105.5-114t-114-83a648.41 648.41 0 0 0 -125.5-55 826.12 826.12 0 0 0 -140-31q39 39 39 102 0 66-71 125-69 57-157 57a242.3 242.3 0 0 1 -59-7 194.77 194.77 0 0 1 -50.5-20 130 130 0 0 1 -37.5-32 112.67 112.67 0 0 1 -21-43q-50 66-103.5 134.5t-112.5 140.5q83 0 142 46 29 23 44.5 51t15.5 63q0 73-68 124-69 51-151 51-46 0-94-19t-77-59q-63 96-103.5 165.5t-57.5 116.5q-34 89-34 179a630.59 630.59 0 0 0 7.5 96.5 647.8 647.8 0 0 0 23.5 98.5q31 100 68 100 18 0 33-16t22-41q17-100 62.5-155.5t115.5-55.5q15 0 42.5 7t65.5 20l23 6q58 0 82-41 58-78 151-78 32 0 57.5 10.5a400.51 400.51 0 0 1 48 23.5q22.5 13 44.5 23.5a107.73 107.73 0 0 0 47 10.5zm1163-619q0 69-18 154-7 32-24.5 52t-45.5 36q-13 8-59.5 26.5t-130.5 49q-84 30.49-208.5 73t-292.5 97.5l-67 22q-128 42-168 118-48 90-149 90-32 0-58-11t-49-23.5q-23-12.5-45-23.5a99.63 99.63 0 0 0 -45-11q-44 0-71 39-57 79-162 79-28 0-74-16a321.31 321.31 0 0 0 -35-11.5q-14-3.49-22-3.5-34 0-54.5 35t-26.5 89a149.28 149.28 0 0 1 -17 57 174.39 174.39 0 0 1 -35 45.5 160.53 160.53 0 0 1 -47 30.5 134.9 134.9 0 0 1 -53 11q-101 0-149-133t-48-261a601.44 601.44 0 0 1 23.5-165.5q23.5-82.5 69.5-167.5 48-85 132-203t204-273l272-350q10-13 21.5-27.5t21.5-30a248.51 248.51 0 0 0 17.5-32 112.28 112.28 0 0 0 9.5-33.5q15-152 93.5-233.5t207.5-81.5a460.59 460.59 0 0 1 68.5 5.5 758 758 0 0 1 78.5 16.5q44 11 80.5 22t66.5 22q341 127 565 380 223 253 223 541z"/></svg>