<svg viewBox="0 0 2068.5 1723.91" xmlns="http://www.w3.org/2000/svg"><path d="m1817.5 1515.91q8-6 8-15a23.38 23.38 0 0 0 -4.5-13.5 71.61 71.61 0 0 0 -10.5-12q-6-5.51-12-10.5t-9-8a96.16 96.16 0 0 1 -17.5-35q-5.51-20-11.5-38.5t-16-31.5q-10-13-30-13-16 0-27 10t-11 30a163.35 163.35 0 0 0 8 50 145.21 145.21 0 0 0 24 45.5 122.27 122.27 0 0 0 39.5 33q23.51 12.49 55.5 12.5 10.01 0 14-4zm-362-478q18 0 31-8t13-28q0-18-11-31a166.62 166.62 0 0 0 -26-24.5q-15-11.5-29-22.5t-20-25q-5-10-8.5-25.5a201.77 201.77 0 0 0 -9-29.5 73.49 73.49 0 0 0 -15-24q-9.49-10-24.5-10-11 0-18 7a48.44 48.44 0 0 0 -11 18 105.14 105.14 0 0 0 -5.5 24 226.65 226.65 0 0 0 -1.5 26 299.16 299.16 0 0 0 5 53.5 131.64 131.64 0 0 0 19.5 49.5q14.51 22 41 36t69.5 14zm28 382q9-10 9-30a99.63 99.63 0 0 0 -11-45 143.09 143.09 0 0 0 -28.5-39 145 145 0 0 0 -40-27.5q-22.5-10.5-44.5-10.5a73.61 73.61 0 0 0 -25.5 5 100.5 100.5 0 0 0 -25 13.5 81 81 0 0 0 -19 19.5 41.72 41.72 0 0 0 -7.5 24q0 19 11 28t27 13a261.31 261.31 0 0 0 33 6q17 2 28 6a88.21 88.21 0 0 1 16 12.5l18 17 18 15q18 15 17 6.5 10.01 0 24-14zm-326-930a238.7 238.7 0 0 0 6.5-38.5q1.5-18.5 1.5-38.5 0-63-27-123a224 224 0 0 0 -30.5-48.5 513.88 513.88 0 0 1 -33.5-45.5 138.08 138.08 0 0 0 -35-36 191.58 191.58 0 0 0 -45.5-24 289.15 289.15 0 0 0 -50.5-13.5 293.22 293.22 0 0 0 -50-4.5q-36 0-71-3t-73-3a489 489 0 0 0 -140 20.5 989.33 989.33 0 0 0 -132 49.5 898.4 898.4 0 0 0 -95 52 572.25 572.25 0 0 0 -88.5 68 466.22 466.22 0 0 0 -70 82.5 277.27 277.27 0 0 0 -40.5 95.5 237.78 237.78 0 0 1 -26 69.5 430.6 430.6 0 0 0 -31 67.5 197.82 197.82 0 0 0 -12.5 53q-2.5 27-2.5 55 0 31 1.5 62a412.12 412.12 0 0 0 7.5 61 371.84 371.84 0 0 0 17 59 232.78 232.78 0 0 0 30 55q24 33 62.5 61a425 425 0 0 0 84.5 47.5 557.65 557.65 0 0 0 94.5 30.5q48.5 11 90.5 11a463.34 463.34 0 0 0 105.5-12q51.5-12 105.5-27a618.84 618.84 0 0 0 145.5-62.5 601.06 601.06 0 0 0 123.5-96.5 572.58 572.58 0 0 0 93.5-126 521.61 521.61 0 0 0 54.5-150q8-38 14.5-74.5t15.5-73.5zm-105 963q22-12 22-38 0-24-15-44-18-25-35.5-40a155.13 155.13 0 0 0 -36-23.5 142.41 142.41 0 0 0 -40.5-11.5 373.2 373.2 0 0 0 -50-3q-14 0-31 1.5a160.16 160.16 0 0 0 -32 6q-15 4.5-25 13.5t-10 24q0 13 15.5 21a147.14 147.14 0 0 0 36 12.5q20.5 4.5 40.5 7l28 3.5a52.34 52.34 0 0 1 30 15.5 286.06 286.06 0 0 1 22.5 26.5 208.9 208.9 0 0 0 22.5 25.5q12 11.5 30 11.5 12 0 28-8zm940 5a151.85 151.85 0 0 0 23 25.5q13 11.5 25 23a141.49 141.49 0 0 1 20 23.5 47.61 47.61 0 0 1 8 27q0 33-24.5 53.5t-57.5 25.5a502.86 502.86 0 0 0 -59 13.5l-58 17-58 16.5q-58 16.5-60 11-79 8-158.5 19a1170.17 1170.17 0 0 1 -160.5 11q-134 0-259-18a1601.58 1601.58 0 0 1 -243.5-54.5 1577.91 1577.91 0 0 1 -231.5-92 1901.81 1901.81 0 0 1 -223-129.5 1793.06 1793.06 0 0 1 -177.5-135.5 950.9 950.9 0 0 1 -149.5-164.5q-16-21-34-45a248.53 248.53 0 0 1 -29-49q-20-20-36-49.5a348.21 348.21 0 0 1 -26.5-63.5 493.51 493.51 0 0 1 -16-69 431.51 431.51 0 0 1 -5.5-67v-21a175.78 175.78 0 0 0 -1-18.5 104.65 104.65 0 0 1 0-20.5q1-35 4-72.5t18-75.5q16-42 31.5-70t21.5-53q12-51 41.5-103.5t74.5-101.5q45-49 105.5-92.5t135.5-77.5q88-40 166-62.5t149-17.5l16 2q32 2 65 3t73 1q80 0 144.5 29.5t100.5 74.5a568.34 568.34 0 0 0 47 42q25 20 46 40 45 42 88 89t90 92a1042.55 1042.55 0 0 1 104 114 1502.53 1502.53 0 0 1 88 125q41 65 77.5 134t71.5 140a275.88 275.88 0 0 1 17.5 47q6.49 24 12 48t12.5 47.5a210.58 210.58 0 0 0 19 44.5 242.88 242.88 0 0 0 17.5 26.5q9.49 12.49 18.5 25a299.49 299.49 0 0 1 17 26.5 150.91 150.91 0 0 1 13 30q11 38 23 75t25 74q11 33 25 66a318.74 318.74 0 0 0 34 61z"/></svg>