<svg viewBox="0 0 1912 2095" xmlns="http://www.w3.org/2000/svg"><path d="m215 869a158.6 158.6 0 0 1 -58-10.5 153 153 0 0 1 -47.5-29 139 139 0 0 1 -32.5-43.5 123.18 123.18 0 0 1 -12-54q0-77 61-137 63-60 144-60 17 0 30 1a160.94 160.94 0 0 1 22 3l-92-425q-11-28-11-38 0-36 28.5-56t68.5-20a141.6 141.6 0 0 1 73 20q34 20 68 44t68.5 44a146.05 146.05 0 0 0 74.5 20q15 0 24.5-2a105.43 105.43 0 0 0 16-4.5q6.5-2.5 12-4.5a33.48 33.48 0 0 1 11.5-2q14 0 14 22 0 29-56 79-54 50-115 50a248.35 248.35 0 0 1 -67-9.5 245 245 0 0 0 -66-9.5q-23 0-37 5l79 367q9 20 9 53 0 80-66 140-66 57-144 57zm1697-252a459.82 459.82 0 0 1 -22.5 142.5q-22.5 69.5-66.5 136.5-78-47-130-83t-92.5-68.5q-40.5-32.5-76-65.5t-80.5-75q-183-172-308-367 139-101 293-101 184 0 333 147 150 149 150 334zm-876-287q56 89 182 233 65 73 135 141t148 131q78 63 136.5 103.5t96.5 60.5a677 677 0 0 1 -57 43.5 407.27 407.27 0 0 1 -63.5 35.5 393.43 393.43 0 0 1 -72.5 24q-39 9-85 9-199 0-360-160t-161-353q0-159 101-268zm248 854-1015 903q-10 8-18 8-56 0-152-95-99-96-99-149 0-10 6-16l863-1051q28 86 105 181 79 94 166 153 88 60 144 66z"/></svg>