<svg viewBox="0 0 2390 1577" xmlns="http://www.w3.org/2000/svg"><path d="m2070 774 94-263a882.77 882.77 0 0 0 -128-29.5q-63-9.5-129-24.5a98.21 98.21 0 0 0 -31.5-3q-16.5 1-28.5-7 0 3-4 12.5t-10 25.5q-26 75-45.5 130.5t-36.5 91.5q208 15 319 67zm-226 632 110-306q-42-16-96-29t-122-25q-136-23-155-23l-34 77-56 153a1566.18 1566.18 0 0 1 180.5 64.5 1430.93 1430.93 0 0 1 172.5 88.5zm-570-501-11 21 37 3q40 3 80.5 7t80.5 12q40 7 68.5 15.5t45.5 19.5l13-27 13-29 27-49 68-144-38-9a540 540 0 0 1 -65.5-8l-65-12-65.5-11q-65.51-11-67-5-22 0-27-4l-15 41q-7 29-37 86-15 30-26 53.5t-16 39.5zm93-247 28-70 3-9 85-193-196-10-98 3h-18l-16-2 1 10a64 64 0 0 1 -6.5 29q-6.49 13-11.5 24-17 47-32 96.5a299 299 0 0 1 -44 89.5l57 3q42 2 76.5 2.5a520.44 520.44 0 0 1 63.5 4.5l30 4q32 5 51.5 8.5t26.5 9.5zm-141 290-28-6q-19-4-89-10t-194-11q-7 32-18 68t-28 78q-32 81-51 112l292 8q7-17 16-36.5t20-39.5q11-21 31.5-61.5t48.5-101.5zm-416-58 89 10a55 55 0 0 1 4-19.5 119.4 119.4 0 0 1 11-21.5l22-37 54-109 11-29 14-32-12 2h-11q-130 0-214-22a312.59 312.59 0 0 1 -15 44q-10 24-24 54l-63 143-3 6 74 6zm-44-280q8-8 22-45l22-55q13-33 22.5-66a644.34 644.34 0 0 1 23.5-67l3-6-9 1h-9q-68 0-158-21l-107 237 74 8q14 2 30 3l32 2 30 3q30 3 24 6zm-242 538q65-112 119-249-29 0-74.5-10.5t-108.5-21.5l-9-1-94 209q56 35 88 47 16 6 36 12t43 14zm402-872-33 75h6q37 10 109 10t89 3l30-2 19 3a806.58 806.58 0 0 1 37-89 875.21 875.21 0 0 0 35-81l-55 2q-38 1-86-4.5t-106-14.5q-6 18-11.5 31a153.14 153.14 0 0 1 -10.5 21zm616 11-19 73q177 0 317 52l86-189 23-58q-112-20-217-20-37 0-73 2t-72 6l-23 67zm848-60-3 20-454 1270q-14 40-55 40-25 0-35-10a1499.91 1499.91 0 0 0 -135.5-77.5 1604.06 1604.06 0 0 0 -282.5-109 1217.48 1217.48 0 0 0 -146-30.5q-74-12-186.5-19.5t-264.5-9.5q-374-3-520-114l-153 342q-23 48-74 48-37 0-59-24.5t-22-56.5a79.21 79.21 0 0 1 7-32l633-1415a76.34 76.34 0 0 1 34.5-36.5 104 104 0 0 1 49.5-12.5q16 0 85 19 204 56 354 56 40 0 106.5-6t161.5-20q95-14 169.5-20t131.5-6a1237.23 1237.23 0 0 1 167.5 11q80.5 11 149.5 28t126 36.5q57 19.5 97.5 36.5t62.5 28q22 11 23 11 32 18 32 53z"/></svg>