<svg viewBox="0 0 2188.09 1794.03" xmlns="http://www.w3.org/2000/svg"><path d="m2188.09 508q0 106-53 159.5t-152 53.5q-22 0-81-8.5t-157-24.5q-98-16-166.5-24t-106.5-8q-61 0-134 26-70 26-105.5 70t-35.5 101a170.61 170.61 0 0 0 2.5 28q2.51 15 7.5 34 48 207 48 390a1163.24 1163.24 0 0 1 -26 245q-13 58-27.5 103t-32.5 77q-37 64-158 64a220.8 220.8 0 0 1 -47-5q-23-5-40.5-14t-28-22a46.39 46.39 0 0 1 -10.5-30 72.55 72.55 0 0 1 4-23 200.38 200.38 0 0 1 11-26q85-157 118-280a1018 1018 0 0 0 33-259q0-51-7.5-113t-21.5-140q-20-58-82-88.5t-148-30.5a588.58 588.58 0 0 0 -120.5 12 342 342 0 0 0 -108.5 43l-72 42q-74 45-138 69t-121 24q-54 0-96.5-18a201.5 201.5 0 0 1 -72.5-51.5q-30-33.51-46-81t-17-106.5q-2-103 40.5-193.5a496.51 496.51 0 0 1 116-157.5q73.5-67 171.5-105t209-37q164 2 295 81.5t231 243.5q21-121 74.5-219t130-167q76.5-69 170.5-106a516.22 516.22 0 0 1 196-36 634.76 634.76 0 0 1 144 18q69 17 135 53 65 35 115.5 82a479.25 479.25 0 0 1 86.5 108q73.01 120 73 247z"/></svg>