<svg viewBox="0 0 2072.08 2214.05" xmlns="http://www.w3.org/2000/svg"><path d="m1947 1200.05a266.11 266.11 0 0 0 -3-40.5 197.27 197.27 0 0 0 -8-34q-5-14.5-12-23.5t-15-9a28.65 28.65 0 0 0 -13 3 62.77 62.77 0 0 0 -12 8q-92 73-365 166-277 94-576 142.5a3028.26 3028.26 0 0 1 -605 36.5l-139-5q-21-2-36 3a94.85 94.85 0 0 0 -26 13q-9 8-16 22.5t-9 37.5l-6 70q0 58 67 55l72-4 84 1q164 2 334.5-20.5t353.5-67.5l187-45q296-71 478-140.5t251-143.5q14-13.99 14-25zm-23 386q0-8-7-8-19 0-41 15a1864.39 1864.39 0 0 1 -189 105.5 1801.85 1801.85 0 0 1 -207 84.5q-107 36-237.5 68t-287.5 60q-155 28-294 44t-263 12l-98-2-125-10q-38-3-38 26 3 18 17 38.5t48.5 38.5q34.5 18 95 29.5t156.5 9.5q156-2 321.5-23t345.5-67q180-46 322-95t251-102q53-26 89.5-48t58.5-39q42-36 62-70.5t20-66.5zm-1814 195q0 100 93 100h44l157 6a1582.12 1582.12 0 0 0 230-9q118-13 243-32l28-4q35-3 62-70 24-58 82-95.5t139-37.5q91 0 201 48 52 23 67 23a50.69 50.69 0 0 0 26-7l26-13q84-30 152-62.5t124-64.5l17-10q47-28 47-36l-47-5a424.86 424.86 0 0 1 -64.5-12.5 219.75 219.75 0 0 1 -56.5-24.5 69.15 69.15 0 0 0 -22.5-9.5 105.58 105.58 0 0 0 -22.5-2.5q-18 0-48 11-10 5-45.5 15.5t-95.5 30.5q-109 36-256 72t-337 62l-51 7a107 107 0 0 0 -25 7q-12 5-25 15.5a256.85 256.85 0 0 0 -28 27q-15 16.5-34 40.5a453.46 453.46 0 0 1 -38 44q-18 18-33 29a213 213 0 0 1 -64 29 257.53 257.53 0 0 1 -66 9q-101 0-184-85l-20-26q-19-23-40-30.5t-59-7.5q-56 0-67 11-9 9-9 57zm59-493q0 26 40 41t109 15a411 411 0 0 0 45.5-2.5q22.5-2.5 45.5-4.5l87-8q186-18 338-36t273-45q121-27 279-78t354-129q35-13 56-25.5t32.5-24.5q11.51-12 15-24.5a94.23 94.23 0 0 0 3.5-25.5q0-26-14.5-58t-42.5-70q-56-76-140-162-20 180-138 267.5t-316 87.5q-116 0-227-45-111-46-176.5-124t-65.5-184q-119 99-219 193t-175 191l-84 110q-45 45-62.5 82t-17.5 59zm753-750q-9 0-17.5 9.5a115.07 115.07 0 0 0 -16 24 149.45 149.45 0 0 0 -12 32.5 144.1 144.1 0 0 0 -4.5 35q0 34 16 53.5t41 19.5q45 0 45-67 0-30-17-67-20-40.05-35-40zm132-203q0 24 14.5 39.5t34.5 15.5q31 0 49-38 19-41 19-81 0-44-23-44-26 0-60 39-34 37.95-34 69zm184 288a206.58 206.58 0 0 0 -2.5-32 131.67 131.67 0 0 0 -7.5-28.5 70.64 70.64 0 0 0 -12-20.5q-7-8-15-8-27 0-47 41-11 20-16 37.5a119 119 0 0 0 -5 32.5q0 28 15 44.5t38 16.5a37.31 37.31 0 0 0 23-7.5 59.07 59.07 0 0 0 16.5-19.5 95.88 95.88 0 0 0 9.5-27 147.82 147.82 0 0 0 3-29zm126-308q-30 0-30 74 0 46 18 71t38 25q20 0 36-16t16-39q0-34-27-75-34-40.05-51-40zm96 405q0-66-23-66-30 0-60 44-31 43-31 77 0 21 14 32a50.39 50.39 0 0 0 32 11q29 0 48.5-28t19.5-70zm609 611 2 119q2 81-8.5 144.5t-30.5 110.5q-39 92-244 201-102 54-242.5 106.5t-320.5 102.5q-181 51-357 75a2602.33 2602.33 0 0 1 -352 24h-45l-137-4q-173-6-254-82-19-18-33-49t-23.5-71a694 694 0 0 1 -14.5-87.5q-5-47.5-6-98.5l-3-140v-47q0-231 70-387 35-80 96.5-171t149.5-197q88-106 196-206t237-196q18-58 50.5-116.5a849 849 0 0 1 74.5-112 870.09 870.09 0 0 1 92-100q50-46.5 103-80t107-52q54-18.5 105-17.5 45 2 84 14.5t74 40.5q70 54 130 182 59 125 76 249 54 47 106 98t104 109q53 57 88 105t55 86a464 464 0 0 1 33 80.5 705 705 0 0 1 21 90.5q9 47 16 109t2 141z"/></svg>