<svg viewBox="0 0 1830 2206" xmlns="http://www.w3.org/2000/svg"><path d="m150 587v11q0 82 63 130h61q14-12 26.5-30.5t26.5-43.5q19-33 43-33a35.28 35.28 0 0 1 20 6q41 26 80 26a94.8 94.8 0 0 0 35.5-7 160.26 160.26 0 0 0 32.5-17.5 150.09 150.09 0 0 0 26.5-23.5q11.5-13 17.5-25 11-20 34-20 17 0 30 14 41 40 90 58.5t110 20.5q43 1 78.5-10t61.5-26.5q26-15.5 41-31.5t16-25q11-23 37-23 16 0 27 9 119 104 261 104 125 0 213-82 87-82 87-202 0-129-77-208-75-80-195-80a397.33 397.33 0 0 0 -79 7.5 318.61 318.61 0 0 0 -68 21.5q-31 14-53 33t-34 42q-11 21-36 21a31.65 31.65 0 0 1 -16-4 67.31 67.31 0 0 1 -14-11q-2-3-13.5-14.5t-35-24.5q-23.51-13-61-23.5t-92.5-10.5q-41 0-76 9a250.63 250.63 0 0 0 -63.5 25.5q-28.5 16.5-48 39a145.19 145.19 0 0 0 -28.5 49.5q-5 14-15 21t-24 7l-16-4a338.8 338.8 0 0 0 -49.5-17.5 192.36 192.36 0 0 0 -49.5-6.5q-90 0-142.5 54.5t-52.5 148.5a40.38 40.38 0 0 1 -11.5 29q-11.5 12-28.5 11l-19-2a82.51 82.51 0 0 0 -42 7q-20 9-40 26-38 32-38 75zm1680 686v933h-1830v-609q0-19 18-30l70-39 25-768q0-13 7-17-50-70-50-143 0-76 51-132 51-57 131-65 8-56 30.5-101t57.5-76.5q35-31.5 81.5-48.5t102.5-17a300.85 300.85 0 0 1 50.5 4 335.6 335.6 0 0 1 45.5 11q84-139 268-139 145 0 234 70 98-106 272-106 152 0 254 102 99 99 99 261 0 152-109 258-108 107-271 107-155 0-279-96-34 46-98 72.5t-141 26.5q-126 0-227-74-68 75-152 75-38 0-85-19l-32 44 2 3 19 610 231-129 18-4q17 0 25.5 11a39.79 39.79 0 0 1 8.5 25v264l534-296 17-4q16 0 26 11t10 25v264l534-296 17-4q17 0 26 11a38.4 38.4 0 0 1 9 25z"/></svg>