<svg viewBox="0 0 2478 2007" xmlns="http://www.w3.org/2000/svg"><path d="m1580 1033q25 0 40.5 16.5t15.5 36.5q0 16-14.5 33.5t-50.5 17.5q-22 0-38-12.5t-16-35.5q0-26 17.5-41t45.5-15zm-143 142 12-1q28 0 45 18.5t17 38.5q0 20-15.5 34t-47.5 14a71.3 71.3 0 0 1 -39.5-12q-18.49-12-18.5-36a52.5 52.5 0 0 1 13.5-35.5 64 64 0 0 1 33.5-20.5zm-126 132 14-2q27 0 42.5 18t15.5 38q0 48-61 48a70.54 70.54 0 0 1 -40-12q-18-12-18-36 0-23 11.5-37.5t35.5-16.5zm-134 123 13-2q28 0 43.5 18t15.5 38q0 20-15 34t-48 14a68.94 68.94 0 0 1 -39-12q-18-12-18-36 0-21 14-35.5a63.47 63.47 0 0 1 34-18.5zm-381-411q0 8-28 32-28 22-40 22a22.33 22.33 0 0 1 -13.5-4 109.12 109.12 0 0 1 -12.5-11q-147-150-249-284-48-63-73-99t-25-50q0-3 23-26t31-23q3 0 13 8 20 33 49 74t68 89q39 48 74 86.5t66 68.5q117 111 117 117zm-324-481 6-11 9-8q17-14 26.5-23t14.5-9q8 0 10 5.5a22.87 22.87 0 0 0 5 8.5q5 8 20 29.5t42 55.5q27 34 57 67.5t62 67.5q63 67 170 150 34 27 34 36t-11 15q-31 31-52 41l-8 2q-16-5-36-24-99-90-163-161t-101-119l-67-89a143.91 143.91 0 0 0 -11.5-17.5q-6.5-8.5-6.5-16.5zm292 75q0-10 8-15l35-27a20.35 20.35 0 0 1 15-6q12 0 18 8l30 28a18.94 18.94 0 0 1 7 15q0 9-8 15l-37 28-15 5q-11 0-18-7l-29-29a20.35 20.35 0 0 1 -6-15zm422 350q0-7 9-12l46-37q6-6 21-6l19 5 86 46q11 5 11 15a12.55 12.55 0 0 1 -6 11l-49 40q-7 7-22 7l-18-5-87-50q-10-6-10-14zm-580-531q0-9 10-19l29-23q6-6 13-6 12 0 18 9l29 35q5 5 5 14a19 19 0 0 1 -8 16l-31 26-14 4q-11 0-16-9l-29-34q-6-7-6-13zm461 449q0-6 9-12l42-33q12-7 20-7 13 0 18 6l43 28q8 6 8 14 0 5-7 12l-45 36q-5 5-19 5t-19-5l-41-29q-9-6-9-15zm-106-85q0-7 6-13l40-32q5-5 17-5 9 0 20 6l37 28q8 6 8 15 0 5-7 14l-43 31q-10 7-18 7-11 0-18-7l-36-29a20.35 20.35 0 0 1 -6-15zm-106-91q0-9 8-15l37-31q6-5 17-5a23.2 23.2 0 0 1 9.5 2 87.4 87.4 0 0 1 9.5 5l38 34a18.94 18.94 0 0 1 7 15q0 7-7 14l-39 30q-5 5-18 5-8 0-18-7l-37-34q-7-7-7-13zm-167-173q0-9 10-18l31-26 14-4a23.2 23.2 0 0 1 9.5 2 87.4 87.4 0 0 1 9.5 5l18 19q6 8 6 15 0 9-9 15l-34 26q-5 6-14 6-11 0-17-8-24-24-24-32zm404 713q0 8-7 14l-57 49q-6 5-18 5-8 0-21-8-3-3-15-12t-34-26q-21-17-43.5-35t-48.5-38q-48-38-58-63a20.35 20.35 0 0 1 6-15l43-35q6-6 18-6 13 0 19 6 5 11 102 79 98 69 104 70 10 6 10 15zm68-71q-13 0-19-6-33-16-98-56-32-20-60.5-41t-54.5-42a48.23 48.23 0 0 1 -6-7 14.25 14.25 0 0 1 -2-8 19.19 19.19 0 0 1 6-14l47-40q7-5 18-5 14 0 19 5l96 66 104 64q24 15 24 24 0 8-5 13l-48 40q-12 7-21 7zm486 707 659-769a2532.39 2532.39 0 0 1 -283-61q-137-38-269-89-3 15-19 28.5t-46 13.5q-23 0-38-13t-15-36q0-20 15-37a2143.74 2143.74 0 0 1 -279.5-143.5 2324.14 2324.14 0 0 1 -258.5-183.5q-248-203-400-445l-578 459a2476.29 2476.29 0 0 0 367.5 534.5q218.5 242.5 493.5 425.5 16-22 48-22 28 0 43.5 18t15.5 38q0 19-10 29 73 45 147.5 83.5t152.5 73.5q152 69 254 96zm832-810a54.53 54.53 0 0 1 -14 37l-754 878q-17 21-43 21-13 0-46.5-9t-89.5-29q-56-20-115-44.5t-122-53.5q-125-57-252.5-134.5t-262.5-179.5a2421 2421 0 0 1 -257.5-225.5q-121.5-122.5-236.5-269.5-57-73-107-147.5t-93-151.5q-85-151-85-175 0-26 24-45l668-531q16-12 39-12 33 0 55 40 54 103 143.5 208.5t215.5 215.5q252 220 577.5 359t704.5 188q26 3 38.5 21.5t12.5 38.5z"/></svg>