<svg viewBox="0 0 1958 2111" xmlns="http://www.w3.org/2000/svg"><path d="m1880 346q0-19-34-19h-110l-241 278 76 4h9a261.77 261.77 0 0 0 30.5-1.5 97.53 97.53 0 0 0 22-5 69.82 69.82 0 0 0 19-11 253.66 253.66 0 0 0 21.5-19.5l90-88 83-90a204.82 204.82 0 0 1 21-22q13-12 13-26zm-155 889q-2-153-53-290t-155-261l-82-3h-7l-463 526q-17 17-33 17a43.93 43.93 0 0 1 -30-11.5q-13-11.5-13-29.5t15-38l437-547a104.67 104.67 0 0 1 -12-36.5q-3-20.5-7-40.5a854.42 854.42 0 0 0 -85-43.5 623.08 623.08 0 0 0 -85.5-30.5 649 649 0 0 0 -90.5-18 790.58 790.58 0 0 0 -100-6q-259 0-460 105-200 105-311 300-110 193-110 444 0 111 27.5 208.5t84.5 185.5q112 175 308 271a862.93 862.93 0 0 0 206 71.5q107 22.5 226 24.5 118 2 223-25.5t193.5-78.5a726.86 726.86 0 0 0 159-123.5 735.05 735.05 0 0 0 119-161.5q48.49-89 74-192.5t24.5-216.5zm-350-856q0 17 6 50.5t20 86.5l233-283q-20-155-46-155a29.73 29.73 0 0 0 -15 4q-6 4-93 121-86 115-99 149a24.28 24.28 0 0 0 -5 12 105.78 105.78 0 0 0 -1 15zm583-31q0 23-12.5 45.5t-35.5 47.5l-116 121-33 33-32 32q-18 18-32.5 28.5a166.45 166.45 0 0 1 -27.5 16.5 117 117 0 0 1 -25 8.5q-12 2.5-24 4.5 185 242 185 550 0 248-111 449t-312 315q-199 112-450 112-256 0-472-107-215-106-338-299-122-194-122-433 0-273 121-487 120-212 337-327 222-115 503-115 175 0 340 77l-4-40a138.6 138.6 0 0 1 9.5-50.5 224.64 224.64 0 0 1 26.5-48.5l28-43 126-172q23-32 47.5-49a91.92 91.92 0 0 1 53.5-17q38 0 64 27.5t36 72.5l13 56 9 55q32 11 44 37l5 1h17l70-1q52-1 82 28t30 72zm-1334 870q0-120 82-201 83-84 207-84a340.49 340.49 0 0 1 90 12l-79 96q-24 29-40 49.5a390.45 390.45 0 0 0 -26 37q-10 16.5-14 30a96.21 96.21 0 0 0 -4 27.5q0 40 28 63.5t64 23.5q41 0 79-42l153-171q55 91 55 182 0 115-87 194-88 79-213 79-131 0-213-84-82-85-82-212zm691-333 52-59q70 80 103.5 175.5t35.5 207.5a541.45 541.45 0 0 1 -20 154.5 573.15 573.15 0 0 1 -59.5 139 564.11 564.11 0 0 1 -93.5 117.5 591.25 591.25 0 0 1 -122 90.5 606.52 606.52 0 0 1 -143.5 57.5 595.11 595.11 0 0 1 -158.5 19q-134-2-241-40t-190-118q-83-79-123-182t-42-233a541.45 541.45 0 0 1 20-154.5 582.32 582.32 0 0 1 59.5-139.5 558.5 558.5 0 0 1 93.5-118 597.34 597.34 0 0 1 121.5-90.5 610.69 610.69 0 0 1 143.5-58q77-20.5 160-18.5a830.42 830.42 0 0 1 149.5 17 631.09 631.09 0 0 1 139.5 47l-51 63a608.82 608.82 0 0 0 -115-34.5 766.63 766.63 0 0 0 -123-13.5q-113-2-208.5 36.5t-164.5 107q-69 68.5-107.5 160.5t-37.5 196q1 114 35 204.5a419.73 419.73 0 0 0 104 157.5q70 67 164 99t213 34q105 1 200-37t166.5-105.5q71.51-67.5 113-159t39.5-198.5q-2-94-29-174.5t-84-149.5z"/></svg>