<svg viewBox="0 0 2336 2259" xmlns="http://www.w3.org/2000/svg"><path d="m2256 925q0-107-21.5-192t-61.5-144q-40-59-97.5-90.5t-129.5-31.5q-28 0-28 12l10 15a361.66 361.66 0 0 1 77.5 71.5q32.51 40.5 54 95t32 125q10.5 70.5 10.5 160.5 0 200-80 388-80 192-212 297v160q204-116 325-341 121-227 121-525zm-446-88v689q102-109 162-269a935.58 935.58 0 0 0 59-328q0-63-7-117t-21-100q-27-96-74-141-23-24-59-46.5t-84-45.5q-29 18-39 57 41 70 52 146a1081.24 1081.24 0 0 1 11 155zm-565-567 164 57q16-29 48-55-41-84-105-84-36 0-63.5 25a193.85 193.85 0 0 0 -43.5 57zm-383 1830q30 0 44-23.5t14-53.5a188.85 188.85 0 0 0 -5.5-46 162.68 162.68 0 0 0 -14.5-38.5q-9-16.5-21-26t-26-9.5q-17 0-28.5 9a75.7 75.7 0 0 0 -19.5 23.5 110.36 110.36 0 0 0 -11.5 33 201.52 201.52 0 0 0 -3.5 37.5 152.1 152.1 0 0 0 4 35 93.47 93.47 0 0 0 12.5 30 66.27 66.27 0 0 0 22 21q13.5 8 33.5 8zm-667-231q29 0 41-21.5t12-49.5a179.56 179.56 0 0 0 -4.5-40.5 149.29 149.29 0 0 0 -12.5-35q-8-15.49-19.5-25t-25.5-9.5q-16 0-27 8a60.4 60.4 0 0 0 -18 21.5 105.75 105.75 0 0 0 -10 30.5 201 201 0 0 0 -3 35 142.72 142.72 0 0 0 3.5 31.5 75.87 75.87 0 0 0 12 27.5 69 69 0 0 0 21 19.5q12.5 7.5 30.5 7.5zm1546-1687q170 0 302 92 67 46 119.5 113.5t92.5 157.5a933 933 0 0 1 60.5 187.5q20.5 97.5 20.5 204.5 0 161-36 304a1113.58 1113.58 0 0 1 -108 272q-72 129-166.5 221.5t-215.5 152.5l-510 254a73.81 73.81 0 0 1 -21.5 8 104.93 104.93 0 0 1 -19.5 2q-55 0-55-77v-684q0-113 24-205 22-91 83-140 30-23 84.5-49.5t134.5-55.5l161-57 7-111q5-78-24-113t-84-35q-39 0-82 15t-86.5 47.5q-43.5 32.5-86 83t-81.5 121.5q-39 71-69 154t-50 180.5q-20 97.5-29.5 210t-6.5 243.5l5 262 7 137q3 49-7.5 83.5t-32 56q-21.49 21.49-54 31.5t-73.5 10a390.58 390.58 0 0 1 -68-6q-36-6-119-33l-256-80q-85-27-158.5-54t-134.5-56q-121-58-157-147-6-16-11-32.5a288.82 288.82 0 0 1 -8-33.5q-3-17-8.5-61.5t-10.5-117.5q-6-73-9-150t-4-158q0-146 5.5-258.5t16.5-191.5q23-160 71-274t115-194q104-122 241.5-185t286.5-60q47 1 93 5t93 12q32-73 129-129 95-55 183-55a295.62 295.62 0 0 1 95 15.5q46 15.5 93 46.5 93 61 130 153 78-33 189-33z"/></svg>