<svg viewBox="0 0 2082.44 2303" xmlns="http://www.w3.org/2000/svg"><path d="m2078 1171 4 58q2 26-5 56t-10 53l-32-13-94-36a89 89 0 0 1 -28-12 75.54 75.54 0 0 0 -25-11l-3-33 1-45a273.83 273.83 0 0 0 -4.5-58.5q-5.5-30.5-14.5-63.5l-12-26-17 44q-15 59-31.5 95t-25.5 36q-13 0-27-8l-67-19 6-101a280.31 280.31 0 0 0 -.5-37.5 203.07 203.07 0 0 0 -5-32.5 113.87 113.87 0 0 0 -8-23q-4.5-9-7.5-9-17 0-28 59-20 110-46 110-8 0-24-9l-35-8-34-9-93-35-159-41 29 48q29 48 51 107t39 131q34 144 53 282.5a2090.85 2090.85 0 0 1 19 284.5q0 77-3.5 132.5t-7.5 91.5l-4 45q-4 42-18 68t-43 37a400.6 400.6 0 0 1 -60 17.5 306.45 306.45 0 0 1 -63 6.5q-45 0-84.5-10a351.46 351.46 0 0 1 -77.5-30q-74-39-74-98 0-11 7-22 28-38 29-63l8-47a1583.72 1583.72 0 0 0 44.5-213 1576.65 1576.65 0 0 0 14.5-214q0-107-5-216a1038.57 1038.57 0 0 0 -33-216l-48 100-6 14q-8 19-14 29t-14 10a21.48 21.48 0 0 1 -12-4 99.65 99.65 0 0 1 -12-9.5q-6-5.51-11-11t-8-8.5q-14-10-20-15.5t-7-7.5q6 38 12 48 4 8 9.5 17t10.5 18a167 167 0 0 1 8.5 17.5q3.5 8.5 3.5 14.5 0 14-6 23l-23 50q-21 44-31.5 66.5t-15.5 22.5q-20 0-68-87-23-41-36-45l-1 15a136.11 136.11 0 0 0 5 37.5 210 210 0 0 0 13 34 345.61 345.61 0 0 0 18 32.5q10 16 20 33a156.93 156.93 0 0 0 12 16.5 29.8 29.8 0 0 1 7 19.5 58.12 58.12 0 0 1 -7 28l-12 25-23 66-7 16q-26 63-42 63l-6-1q-69-33-116-118a350.94 350.94 0 0 1 -34-89 428.88 428.88 0 0 1 -11-98q0-143 78-266a364.82 364.82 0 0 1 -53.5 44 193.69 193.69 0 0 0 -49.5 48q-4 5-9 12t-10.5 13.5a68.32 68.32 0 0 1 -12.5 11.5q-7 5-14 5-14 0-21.5-20.5a276.37 276.37 0 0 1 -12-45q-4.5-24.49-8-45t-8.5-20.5q-11 0-11 81 0 23 5.5 41.5a134.27 134.27 0 0 1 5.5 38.5q0 14-25 46.5t-62 64.5q-11-8-26-46-8-20-12-33.5a134.67 134.67 0 0 1 -5-22.5l-1-46-5-39q-31 0-31 91a357.71 357.71 0 0 0 4.5 53.5q4.5 29.5 10.5 65.5l3 17q0 10-27 46-14 18-27.5 36t-27.5 35l-23 31a177.72 177.72 0 0 0 -15 25q-7 14-17 14-11 0-27.5-25t-26.5-61q-11-37-17.5-82.5a683.17 683.17 0 0 1 -6.5-96.5q0-103 41-214 44-110 129-183 88-76 224-124 139-50 234-50-24-4-50-6t-51.5-3.5q-25.5-1.5-51-4.5a302.48 302.48 0 0 1 -49.5-10l-1-10q0-11 6.5-47t6.5-84q0-4-4-4-8 0-18 7a139.2 139.2 0 0 0 -20.5 18 166.29 166.29 0 0 0 -19.5 25 128.71 128.71 0 0 0 -14 29l-20 55-9 1h-10l-41-1-49 1h-11l-12-1q0-19 6.5-41a455.3 455.3 0 0 1 17.5-48q24-51 24-62 0-4-13-4-34 0-65 30a397.15 397.15 0 0 0 -30.5 32 277 277 0 0 0 -27.5 39q-13 22-18.5 35.5t-5.5 21.5q-3 8-43 8-34 0-70.5-3.5t-75.5-7.5l-26-3q10-76 71-159 62-85 181-146 120-63 250-63 89 0 165 31.5t150 79.5q-30-53-45.5-101t-15.5-95q0-100 58-183 58-86 176-153 121-69 188-69 6 0 6 11 0 10-5.5 46.5t-19.5 101.5l-10 44q0 9-7 16l-22 10q-135 30-135 52 0 8 63 12 34 3 52 5.5t22 4.5q7 3 5 23l-1 34-4 156v25l1 26q60-145 189-238 130-95 277-95 111 0 152 21l24 8q34 4 104 56 69 53 69 75 0 10-50 35-50 24-61 32-5 3-11.5 7a74.3 74.3 0 0 1 -15.5 7 19 19 0 0 1 -16-8q-6-8-18.5-17.5t-32.5-23.5a60.83 60.83 0 0 1 -12.5-7.5q-7.5-5.5-16-11a144.93 144.93 0 0 0 -17-9.5q-8.51-4-14.5-4t-6 13q0 28 21 68 11 22 16.5 36t6.5 21q-20 8-34 18.5t-27 10.5q-9 0-18-8-17-14-88-48-73-35-80-35-6 0-6 8 0 25 36 71 41 54 45 77 0 13-19 21-107 53-236 165 172-65 319-65 209 0 337 114 123 111 138 310z"/></svg>