<svg viewBox="0 0 1836 1846" xmlns="http://www.w3.org/2000/svg"><path d="m1297 117q67 108 101 223t33 242q-1 121-29.5 230t-88.5 209q-115 198-317 312-200 115-432 115-241 0-446-123 116 186 313 296 196 108 420 108 238 0 435-115 200-117 316-315 59-100 87.5-209t28.5-227q0-227-111-424-109-196-310-322zm539 732q0 282-133 509-66 114-155.5 202.5t-202.5 154.5q-224 131-494 131-199 0-375-71-175-70-327-220-149-146-149-230a110.57 110.57 0 0 1 9-44 123 123 0 0 1 25-37.5 118.29 118.29 0 0 1 37.5-26 113.79 113.79 0 0 1 46.5-9.5q34 0 60 16 179 107 386 107 204 0 376-100 87-51 154-119t118-155q101-175 101-376 0-109-28-208t-88-193q-18-27-18-63 0-26 10-47.5a119.19 119.19 0 0 1 64-61 116.12 116.12 0 0 1 44-8.5q36 0 91 35t131 104q152 140 234.5 321t82.5 389z"/></svg>