<svg viewBox="0 0 2492 2579.29" xmlns="http://www.w3.org/2000/svg"><path d="m123 2244h395v277q-294-85-395-277zm1550-255v-807q59 48 120 92t125 86v629zm-1512-410v410h-126q-26-137-33-360 47-13 86.5-25.5t72.5-24.5zm103 410v-450a972.8 972.8 0 0 0 125-57.5q59-32.5 118-65.5v573zm1079 0v-1120q55 60 111.5 116t115.5 110v894zm914-1291q20 0 34.5-14.5t14.5-34.5a45.48 45.48 0 0 0 -14.5-34 48 48 0 0 0 -34.5-14 47.8 47.8 0 0 0 -48 48 48 48 0 0 0 14 34.5 45.48 45.48 0 0 0 34 14.5zm-97 397a47.8 47.8 0 0 0 48-48q0-21-14-35.5a45.48 45.48 0 0 0 -34-14.5q-21 0-35 14.5t-14 35.5a46.3 46.3 0 0 0 14 34q14 14 35 14zm-223-727q33 0 56-23t23-56q0-32-23-55t-56-23q-32 0-55 23t-23 55q0 33 23 56t55 23zm-137 378a47.8 47.8 0 0 0 48-48q0-21-14-35a46.3 46.3 0 0 0 -34-14 48 48 0 0 0 -34.5 14q-14.5 14-14.5 35a45.48 45.48 0 0 0 14.5 34 48 48 0 0 0 34.5 14zm-228-368a43.91 43.91 0 0 0 33.5-14.5q13.5-14.5 13.5-35.5a48.91 48.91 0 0 0 -13.5-34.5 43.91 43.91 0 0 0 -33.5-14.5q-21 0-35.5 14.5t-14.5 34.5q0 21 14.5 35.5t35.5 14.5zm-647-50a75.32 75.32 0 0 0 30-6 77.45 77.45 0 0 0 24.5-16.5 82.81 82.81 0 0 0 17-25 74.81 74.81 0 0 0 0-61 82.81 82.81 0 0 0 -17-25 84.82 84.82 0 0 0 -24.5-17 70.4 70.4 0 0 0 -30-6.5q-33 0-56.5 23.5t-23.5 55.5q0 32 23.5 55t56.5 23zm-139 370q21 0 35.5-14.5t14.5-34.5a45.48 45.48 0 0 0 -14.5-34q-14.5-14-35.5-14a47.8 47.8 0 0 0 -48 48 48 48 0 0 0 14 34.5 45.48 45.48 0 0 0 34 14.5zm-379 108q33 0 55.5-23t22.5-55q0-33-22.5-56t-55.5-23q-32 0-55 23t-23 56a75.32 75.32 0 0 0 6 30 77.45 77.45 0 0 0 16.5 24.5 82.81 82.81 0 0 0 25 17 73.79 73.79 0 0 0 30.5 6.5zm-32-527q-21 0-34.5 14.5a48.91 48.91 0 0 0 -13.5 34.5q0 21 13.5 35.5t34.5 14.5q20 0 34.5-14.5t14.5-35.5q0-20-14.5-34.5t-34.5-14.5zm-125 900q28 0 47.5-19t19.5-48q0-28-19.5-46.5t-47.5-18.5q-28 0-47.5 18.5t-19.5 46.5q0 29 19.5 48t47.5 19zm2242-60q0 22-2 123.5t-7 284.5q-218-65-435-193-220-129-424-313-103-93-183.5-178t-139.5-164q-19-26-43-26-22 0-35 17-113 148-323 342a2707.74 2707.74 0 0 1 -216.5 178.5 2480.42 2480.42 0 0 1 -225.5 149 2088.42 2088.42 0 0 1 -229.5 116q-115.5 49.5-228.5 80.5 0-192 1.5-324.5t5.5-209.5q7-154 31.5-287.5a1506.91 1506.91 0 0 1 70.5-256.5 930.5 930.5 0 0 1 53.5-117 660.11 660.11 0 0 1 70-104 553.36 553.36 0 0 1 88.5-86q49-38 111-62 124-48 294-68 171-21 580-21 166 0 291.5 8.5t210.5 24.5q173 32 298 101 126 71 213 204t129 320q22 93 33 207t11 254zm-1535 870v-904q53-48 107-102t111-114v1120zm1041 505v-250h310q-121 174-310 250zm22-505v-568a1342.74 1342.74 0 0 0 118 64.5q61 29.51 126 57.5v446zm-1165-815v815h-245v-636q116-76 245-179zm1511 815v-406a1015.06 1015.06 0 0 0 113 37q-15 233-54 369zm-1530 582v-327h846v321q-39 3-78 5t-78 3q-38 2-147.5 3t-292.5 3q-78 1-140-1.5t-110-6.5z"/></svg>