<svg viewBox="0 0 1540.97 2378" xmlns="http://www.w3.org/2000/svg"><path d="m1421.5 1101q0-69-39-69-18 0-30 8-232 133-580 133-77 0-155-7t-159-21q-158-25-262-85-20-9-37-9-40 0-40 67 0 257 10 418.5t31 232.5q30 100 59 151 28 48 72 91 64 63 181 101.5t298 38.5q197 0 333-52t209-164q72-112 90-299 10-93 14.5-225.5t4.5-309.5zm-1057-120q0 14 23 22 60 17 128.5 25t147.5 8q122 0 235.5-9.5a1010.15 1010.15 0 0 0 225.5-45.5q9-12 9-23 0-38-106-62-105-24-243-24-157 0-234 13a617.6 617.6 0 0 0 -73 17.5q-34 10.5-59 23t-39.5 27q-14.5 14.5-14.5 28.5zm1175-189 1 286q2 192-4.5 338t-17.5 250q-21 206-94 334.5t-212 193.5l3 26q0 64-130 111-65 24-143 35.5t-172 11.5q-94 0-172.5-11.5t-143.5-35.5q-127-46-127-111l3-26q-138-64-214-195-74-130-95-334-11-102-17-251t-4-348l3-282q0-109 85-194 85-87 217-112a22.26 22.26 0 0 1 18 8.5 29.8 29.8 0 0 1 7 19.5q0 13-13 20-81 40-128 100.5t-47 127.5q0 106 89 178 16-43 69-70 89-45 202-67.5t254-22.5q212 0 353 48 143 47 165 104 63-33 99-78.5t36-95.5q0-64-48-123-48-60-116-86-21-8-32.5-14t-11.5-23q0-30 29-30 34-1 70.5 11.5a298 298 0 0 1 70.5 35.5 422.42 422.42 0 0 1 64.5 54 410.54 410.54 0 0 1 53.5 67 358.55 358.55 0 0 1 36.5 74.5q13.5 38.5 13.5 75.5zm-528-265q0-40-23-71-54-72-71-112a180.78 180.78 0 0 1 -13-42 239.85 239.85 0 0 1 -4-43q0-58 29-115a294.81 294.81 0 0 1 82-101q50-43 86-43 26 0 26 25l-5 18q-25 40-45.5 80t-20.5 88q0 53 48 126 59 92 59 168 0 80-59 146-58 67-129 67-39 0-39-32 0-21 16-37 63-64 63-122zm-278 0q0-40-23-71-26-35-43-62t-27-50a211.17 211.17 0 0 1 -14-43.5 216 216 0 0 1 -4-41.5 259.3 259.3 0 0 1 25-112 228.38 228.38 0 0 1 33-53 433.6 433.6 0 0 1 46-47q54-47 93-47 26 0 26 25 0 8-6 18-24 40-44.5 80t-20.5 88q0 26 12.5 57.5t35.5 68.5q59 90 59 168 0 80-59 146-58 67-128 67-20 0-30.5-10t-10.5-22q0-20 17-37 63-63 63-122zm-279 0a147.06 147.06 0 0 0 -5-38.5 101.07 101.07 0 0 0 -17-34.5q-26-35-43-62t-26.5-49.5a222.33 222.33 0 0 1 -13.5-42.5 208.28 208.28 0 0 1 -4-41 294.81 294.81 0 0 1 5.5-57 227.52 227.52 0 0 1 18.5-55q26-55 80-100 54-47 93-47 26 0 26 26l-7 17q-24 40-44 80t-20 88q0 52 47 126 59 90 59 168 0 80-59 146-57 67-128 67-20 0-30.5-10t-10.5-22q0-20 18-37 61.01-61 61-122z"/></svg>