<svg viewBox="0 0 2080 2178" xmlns="http://www.w3.org/2000/svg"><path d="m2080 1256q0 44-41 60l-1782 729-148 119q-17 14-41 14-26 0-47-19.5t-21-47.5q0-25 17-45l126-137 874-1726q19-36 59-36 28 0 47.5 19t17.5 44l-3 40q-3 44 13.5 81a203 203 0 0 0 47.5 66q64 61 148 61l69-9q27 0 46 17.5t19 45.5l-3 18q-13 38-13 75 0 56 26 101l329-291q50-43 50-104 0-55-41-94-43-41-93-41-21 0-78 20l-26 4a97.17 97.17 0 0 1 -66.5-27 104.59 104.59 0 0 1 -22-31q-8.51-18-8.5-40a85 85 0 0 1 15-49q15-22 41.5-38.5t63.5-25.5q37-9 81-9 135 0 234 97 97 97 97 234 0 149-118 253l-283 251 78-9q28 0 47 18.5t19 46.5q0 21-8.5 45a142.89 142.89 0 0 0 -8.5 48q0 89 60 149 60 59 149 59 32 0 55 15t23 49z"/></svg>