<svg viewBox="0 0 1904 1827" xmlns="http://www.w3.org/2000/svg"><path d="m1667 916a559.18 559.18 0 0 0 -26-170q-26-82-77-160-53-79-127-152t-173-142q-195-137-402-193l-231 135q-216 126-345 315-130 189-130 375 0 135 64 254 66 121 184 186t272 65q52 0 52-32 0-18-17-41-63-86-102.5-197.5t-39.5-236.5a764.87 764.87 0 0 1 16-158q1-5 4.5-17.5a241 241 0 0 1 9-26 105.18 105.18 0 0 1 13-23.5q7.5-10 17.5-10 20 0 18 23l-1 21q-12 171 17.5 303t94 222q64.5 90 161.5 137t220 48q127 1 259-70 133-70 201-181t68-274zm237 855q0 37-23 39-75 8-139 12.5t-118 4.5q-220 0-393-70-168-70-224-220-45-5-71.5-7.5t-34.5-2.5q-48 152-218 226-172 74-403 74-56 0-109.5-4.5t-107.5-9.5l-26-3q-20 0-28.5-7.5t-8.5-33.5q0-47 34-134 36-91 87-155.5t121-115.5a534 534 0 0 1 -79.5-93.5 624.71 624.71 0 0 1 -58-108 615.81 615.81 0 0 1 -35.5-117 623 623 0 0 1 -12-121.5 658.26 658.26 0 0 1 37-217.5q37-106.5 111-212.5 148-210 376-345l222-129q32-20 59-20 57 0 230 82 86 42 159.5 87a1503.48 1503.48 0 0 1 135.5 93q183 142 281 303.5t98 350.5q0 134-37.5 234.5t-115.5 182.5q90 58 153 128 61 68 100 163 38 91 38 147z"/></svg>