<svg viewBox="0 0 1760 1868" xmlns="http://www.w3.org/2000/svg"><path d="m1522 1195v-111q0-34-24-58t-58-24h-97v193zm0 162v-84h-179v166h97q34 0 58-24t24-58zm-257-162v-193h-97q-34 0-58 24t-24 58v111zm0 244v-166h-179v84q0 34 24 58t58 24zm495-584v924q0 38-25.5 63.5t-63.5 25.5h-831v-610q0-29-20.5-48.5t-48.5-19.5h-271q-28 0-47.5 19.5t-19.5 48.5v610h-344a83.85 83.85 0 0 1 -34-7 96.88 96.88 0 0 1 -28.5-19 85.55 85.55 0 0 1 -26.5-63v-924a173 173 0 0 1 5-40 228.58 228.58 0 0 1 14-41 296.12 296.12 0 0 1 20.5-38 134.57 134.57 0 0 1 25.5-30l750-682q27-24 64-24 40 0 67 24l749 682a165.44 165.44 0 0 1 25 30 262.93 262.93 0 0 1 21 38 228.58 228.58 0 0 1 14 41 173 173 0 0 1 5 40z"/></svg>