<svg viewBox="0 0 2042 2359" xmlns="http://www.w3.org/2000/svg"><path d="m613 1339q0 36 40 67 40 29 78 29 19 0 19-24v-20l7-37q0-16-34-34-17-9-27.5-15a178.85 178.85 0 0 0 -17.5-9 116.58 116.58 0 0 0 -12-4.5 42.07 42.07 0 0 0 -12-1.5q-17 0-29 16t-12 33zm277-586q-34 0-57.5 23.5t-23.5 58.5q0 33 23.5 57t57.5 24q34 0 58-24t24-57q0-35-24-58.5t-58-23.5zm654 1416q34 0 58-24.5t24-57.5q0-34-24-58t-58-24q-35 0-58 24t-23 58q0 33 23 57.5t58 24.5zm-374-1282q-34 0-58 24t-24 59q0 34 24 57t58 23q34 0 58-23t24-57q0-35-24-59t-58-24zm27 834q0-35-23-59t-57-24q-34 0-58 24t-24 59q0 34 24 58t58 24q34 0 57-24t23-58zm-637 383q34 0 58-24t24-58q0-35-24-59t-58-24q-34 0-58 24t-24 59q0 34 24 58t58 24zm528-645q-29 0-29 50 0 51 65 65 165 36 266 36 61 0 61-48 0-44-40-49l-193-26a371.52 371.52 0 0 1 -65-16.5q-33-11.5-65-11.5zm-265 4 5 51q0 18-12.5 33a309.7 309.7 0 0 1 -27 28.5q-14.5 13.5-27 27.5t-12.5 31a44.62 44.62 0 0 0 6 22.5 64.65 64.65 0 0 0 16 18.5 78.2 78.2 0 0 0 22.5 12.5 74.73 74.73 0 0 0 25.5 4.5q30 0 73-28 23-13 38-24.5t24-23.5a72.15 72.15 0 0 0 12.5-26 132.6 132.6 0 0 0 3.5-32q0-44-12-106l-3-26q-5-53-52-53a125.37 125.37 0 0 0 -31.5 4 139.6 139.6 0 0 0 -27.5 10 74.33 74.33 0 0 0 -19.5 13.5q-7.5 7.5-7.5 14.5zm-65-403q4 16 35 52 31 35 93 63 29 13 74 24.5t106 21.5q61 10 113 14.5t94 4.5q61 0 61-49 0-44-38-48l-112-12q-99-11-177.5-33.5t-137.5-59.5a196.09 196.09 0 0 1 -27-21.5q-12-11.5-32-11.5t-35 14q-17 19-17 41zm25-883q0-10 18-13l108-17q37-6 52-38l45-96q6-13 15-13 7 0 15 15l47 94q16 33 52 38l108 15q17 3 17 14 0 10-8 15l-79 73q-21 20-21 50l2 10 20 109 2 8q0 14-13 14l-13-4-96-55q-8-3-15-5a62.72 62.72 0 0 0 -17-2 51.83 51.83 0 0 0 -16.5 2.5 80.54 80.54 0 0 0 -14.5 6.5l-96 53-14 4q-12 0-12-14l2-8 20-108 1-9q0-31-21-51l-80-73q-8-7-8-15zm642 1813h30q37 0 60.5-16.5t23.5-45.5q0-43-43-43l-201-4q-41-1-81-2t-82-4q-79-6-230-33-239-40-327-128-12-13-33-13-20 0-35 15.5t-15 36.5q0 14 12 29l19 25q35 44 105 75 35 16 97.5 31.5t154.5 32.5q92 18 164.5 27.5t128.5 11.5q56 2 118 3.5t134 1.5zm526-68 19-3a79.63 79.63 0 0 1 50 17q22 17 22 44 0 55-65 111-62 55-195 99a869.43 869.43 0 0 1 -267 42q-88 0-165.5-12a732.11 732.11 0 0 1 -146.5-38l-33-9q-18 0-18 30v18l2 63q0 25-2 39.5t-7.5 22.5a25.49 25.49 0 0 1 -14 10.5 73.23 73.23 0 0 1 -20.5 2.5h-64.5l-66.5-1q-70-2-78-10-10-9-10-35l1-122q2-19-19-19l-12 3q-173 57-334 57a919.63 919.63 0 0 1 -136-10 787.57 787.57 0 0 1 -133-32q-131-45-194.5-101t-63.5-107q0-29 22.5-46a81.7 81.7 0 0 1 50.5-17 228.35 228.35 0 0 1 54.5 7 236 236 0 0 0 56.5 7 330.5 330.5 0 0 0 84-11q42-11 80-37 19-13 31-22t18.5-16.5a61.36 61.36 0 0 0 9.5-14 34.19 34.19 0 0 0 3-14.5q0-24-20-30l-56-21a324.8 324.8 0 0 1 -57-28.5q-28-17.5-55-46.5-53-58-53-114 0-20 14-37t43-17a237.65 237.65 0 0 1 49.5 5 218.69 218.69 0 0 0 45.5 5q81 0 146-46 34-24 50.5-43.5t16.5-37.5q0-24-37-34-36-10-63.5-27.5t-45.5-38q-18-20.5-27-41.5t-9-38q0-48 63-48a452.07 452.07 0 0 0 108-13.5q55-13.5 99.5-38.5t72-61.5q27.5-36.5 26.5-83.5 0-35-20-35h-12a175 175 0 0 1 -51.5-7.5q-24.5-7.5-42.5-21a106.18 106.18 0 0 1 -28.5-31.5 76.06 76.06 0 0 1 -10.5-39q0-25 24-38t69-18l38-10a351.17 351.17 0 0 0 61.5-32.5 581.91 581.91 0 0 0 56.5-42.5q28-24 67.5-71.5t93.5-121.5q31-42 56-42 23 0 55 42l60 81q104 140 219 187l40 10q45 5 68 18t23 38q0 42-34.5 70.5t-92.5 28.5h-19q-17 0-19 35-2 44 24.5 80.5t70 62q43.5 25.5 97.5 40t106 14.5q42 1 56.5 13t14.5 35q0 30-24 63-25 34-44 48-22 14-67 30-47 16-47 37 0 27 40 61 40 35 82.5 51t91.5 16a204.85 204.85 0 0 0 44.5-5 223.59 223.59 0 0 1 48.5-5q29 0 43 17a59.61 59.61 0 0 1 14 39q0 51-53 112-51 57-110 75-13 4-26.5 8.5a150.32 150.32 0 0 0 -24.5 10.5 70.7 70.7 0 0 0 -18 13.5 26.08 26.08 0 0 0 -7 18.5q0 24 37 50 36 27 63 39a347.64 347.64 0 0 0 58 19q30 7 68 7a256.6 256.6 0 0 0 44-4q23-4 47-7z"/></svg>