<svg viewBox="0 0 2092 2320" xmlns="http://www.w3.org/2000/svg"><path d="m1665 2175a102.66 102.66 0 0 0 41.5-8.5 108.32 108.32 0 0 0 57-57 102.66 102.66 0 0 0 8.5-41.5 97.84 97.84 0 0 0 -9-41.5 116.82 116.82 0 0 0 -23.5-34 102.55 102.55 0 0 0 -34-22.5 105.78 105.78 0 0 0 -40.5-8 102.11 102.11 0 0 0 -40 8 103.89 103.89 0 0 0 -33.5 22.5 109.41 109.41 0 0 0 -23 34 102.66 102.66 0 0 0 -8.5 41.5 108.31 108.31 0 0 0 8 41.5 102.55 102.55 0 0 0 22.5 34 111.11 111.11 0 0 0 33.5 23 99.19 99.19 0 0 0 41 8.5zm-364-455h729a31.93 31.93 0 0 1 23.5 9.5 30.75 30.75 0 0 1 9.5 22.5v129a33.64 33.64 0 0 1 -9.5 24 31.1 31.1 0 0 1 -23.5 10h-68v372q0 14-8.5 23.5t-24.5 9.5h-111q-23 0-33-26-9-25-34-25h-172q-21 0-32 25-10 26-35 26h-111a32.45 32.45 0 0 1 -33-33v-372h-67q-15 0-24-10a34.65 34.65 0 0 1 -9-24v-129a31.6 31.6 0 0 1 9-22.5q9-9.5 24-9.5zm121-300q-9-28-9-47a124 124 0 0 1 10-50 130.16 130.16 0 0 1 27.5-40.5 135.56 135.56 0 0 1 41-28 148.27 148.27 0 0 1 49.5-12.5q-5-14-8-26a107 107 0 0 1 -3-26 131.83 131.83 0 0 1 10.5-52.5 130.22 130.22 0 0 1 29-42.5 133.24 133.24 0 0 1 43-28 137.49 137.49 0 0 1 52.5-10 141.31 141.31 0 0 1 53 10 131.86 131.86 0 0 1 43.5 28 136.88 136.88 0 0 1 29.5 42.5 126.72 126.72 0 0 1 11 52.5 77.38 77.38 0 0 1 -5.5 29.5q-5.5 13.5-5.5 22.5a144.9 144.9 0 0 1 88.5 40 129.23 129.23 0 0 1 28 40.5 122.38 122.38 0 0 1 10.5 50.5 148.23 148.23 0 0 1 -8 47 154.61 154.61 0 0 1 50 14 143.66 143.66 0 0 1 40 28 121.52 121.52 0 0 1 26.5 40 127.14 127.14 0 0 1 9.5 49q0 29-10.5 53.5a124.75 124.75 0 0 1 -29 42 136.08 136.08 0 0 1 -43.5 27.5 144 144 0 0 1 -54 10q-74 0-116-66-18 28-49.5 47a130.18 130.18 0 0 1 -68.5 19q-76 0-116-66-44 66-118 66a137.49 137.49 0 0 1 -52.5-10 133.24 133.24 0 0 1 -43-28 130.22 130.22 0 0 1 -29-42.5 131.83 131.83 0 0 1 -10.5-52.5q0-49 33.5-84.5t92.5-46.5zm-233 495q8 10 21 23.5t25.5 27q12.49 13.5 21.5 25t9 16.5q0 12-73 20a1192.4 1192.4 0 0 1 -148 9q-233 0-439-94-103-47-188-109a987.14 987.14 0 0 1 -154-139q-9 81-21 162.5a998.07 998.07 0 0 0 -10 168.5l4 172 4 45q0 56-68 56a97.85 97.85 0 0 1 -21-2 26.93 26.93 0 0 1 -15-9q-6-7-8.5-19.5t-2.5-32.5v-109q0-63 1-110t4-79q14-134 24.5-223t18.5-134q-174-256-174-562 0-273 140-509 70-118 165-211t216-161q243-137 524-137 285 0 530 141 244 140 380 375 137 236 137 502 0 166-54 320l-9 5q-13 0-41-28a169.11 169.11 0 0 1 -23.5-29 147.16 147.16 0 0 1 -14.5-29q32-126 32-239 0-241-124-450-125-212-341-334-218-125-472-125-250 0-468 122-108 61-193.5 144t-148.5 189q-125 211-125 454 0 205 93 395 24-129 59-231.5t80-180.5q66-114 126.5-201t117.5-149q113-124 318-239 205-116 408-134 16 0 26.5 9t10.5 25q0 41-37 45-106 14-214 59t-220 123q63-16 139.5-24t168.5-8q24 0 45 1t36.5 5q15.49 4 24 12t8.5 22q0 13-6 20a36.28 36.28 0 0 1 -16 10.5 92.29 92.29 0 0 1 -23.5 4.5q-13.5 1-29.5 1-75 0-147 7t-143 21q-72 14-128.5 30t-101.5 35l-56 57q160-49 377-49 55 0 85 7t30 37q0 31-49 31h-26q-90 0-168.5 10t-147.5 24q-69 15-117 28t-76 27q-87 121-146 250.5a1452 1452 0 0 0 -92 269.5q74-83 154-148t155-107q78-43 224-90 75-24 143.5-36.5t130.5-12.5q146 0 146 45a57 57 0 0 1 -9 30.5q-9 14.51-29 14.5-20-3-40-5t-43-2q-177 0-394 103a1141.92 1141.92 0 0 1 122 7 1159.62 1159.62 0 0 1 120.5 19q55.5 12 92 29t35.5 38q0 33-32 33l-43-8q-63-12-140.5-23t-173.5-13a605 605 0 0 0 -75.5 2.5q-34.5 3.5-65.5 8.5l-62 47 27-2h29q32 0 67.5 3t74.5 8q39 5 76 13t72 19q71 21 71 50 0 33-33 33l-43-8q-86-17-160.5-26.5t-138.5-9.5q-48 0-83.5 2t-56.5 6q-53 51-89 92.5t-56 73.5q119 170 321 271t432 101q36 0 72-3t72-8z"/></svg>