<svg viewBox="0 0 2068 2177" xmlns="http://www.w3.org/2000/svg"><path d="m1516 1452q0-26-11-26-12 0-22 12-17 22-49.5 44.5t-80.5 47.5q-92 48-202 71-54 11-125.5 15.5t-160.5 4.5q-129 0-240-13t-205-41q-187-56-261-148-23-30-37-30-15 0-15 16t9 34l13 26a498.34 498.34 0 0 0 49.5 86.5 553.28 553.28 0 0 0 142.5 139 462.34 462.34 0 0 0 86 45.5q92 37 225 59 69 11 134.5 17t128.5 6q92 0 171-14.5t146.5-45a585.26 585.26 0 0 0 126-77.5q58.5-47 110.5-112 11-13 23-27.5a323.94 323.94 0 0 0 21.5-29 196.32 196.32 0 0 0 16-29.5 77.25 77.25 0 0 0 6.5-31zm-422 521q0-16-14.5-30t-31.5-14l-37 6-84 4q-81 4-143.5-1.5t-107.5-15.5l-31-7q-8 0-19 5.5a95.57 95.57 0 0 0 -36.5 32.5q-6.5 10-6.5 20 0 40 81 66 79 24 185 24 142 0 193-29 52-29 52-61zm-912-862q0 182 186 281 188 98 512 98 352 0 527-155 57-51 57-135 0-47-17.5-102.5t-47.5-125.5l-28-63q-45 0-62 14t-20 54q-2 30-13 52t-27.5 35.5a112.81 112.81 0 0 1 -36 20 124.28 124.28 0 0 1 -39.5 6.5q-45 0-77.5-29t-41.5-74a167.45 167.45 0 0 0 -12-35 147.36 147.36 0 0 0 -18.5-30 96.68 96.68 0 0 0 -23-21q-12.5-8-24.5-8-22 0-41 24l-17 21q-30 39-86 39-49 0-85-26-24-18-36-49t-21.5-62q-9.5-31-23.5-53.5t-43-22.5q-31 0-81 44-25 21-46 32.5t-39 11.5q-32 0-46-15t-26-53q-14-41-43-41-5 0-45 73l-48 88q-67 123-67 206zm1886-213q0 28-27 50t-80 43q-45 18-80 39a643.78 643.78 0 0 0 -61 41 978.38 978.38 0 0 0 -103.5 95.5q-50.5 53.5-86.5 104.5a297.48 297.48 0 0 1 12 84q0 146-130 311-129 165-320 225 34 43 34 87 0 78-104 137-52 30-116 46t-144 16a818.42 818.42 0 0 1 -102.5-6.5q-51.5-6.5-105.5-17.5-106-22-159.5-70t-53.5-121q0-43 41-82-160-43-259-119-95-75-160-200-63-124-63-234 0-101 50-169 2-163 119-356 19-32 36-65t32-68q55-125 89.5-199.5t50.5-102.5q30-56 97-142 67-88 112-124 64-50 134.5-75.5t148.5-25.5a514 514 0 0 1 131.5 17 643.28 643.28 0 0 1 127.5 49q123 64 184 167a586.3 586.3 0 0 1 45 92 867.16 867.16 0 0 1 30.5 96q12.49 49 22 99t19.5 101q9 50 17.5 93t19.5 80q9 36 34 112t64 193q28-47 70-98t100-107q114-113 202-113 60 0 96 41 36 42 36 76z"/></svg>