<svg viewBox="0 0 1920 1845" xmlns="http://www.w3.org/2000/svg"><path d="m952 625q110 0 189 92 81 92 81 202 0 103-86 175-86 71-204 71-119 0-198-72-80-71-80-183 0-84 43-155 22-37 47-62a205.08 205.08 0 0 1 56-40 257.53 257.53 0 0 1 68-21.5q37-6.5 84-6.5zm474 291q0-103-36-190.5t-102-151.5q-66-64-157.5-99.5t-201.5-34.5a644.35 644.35 0 0 0 -70.5 6.5q-38.5 5.5-86.5 19.5-95 27-167 96-71 70-115 168-42 98-42 181 0 186 136 325 137 140 352 140 137 0 250-52 58-26 102.5-67.5a404 404 0 0 0 75-94.5 458.18 458.18 0 0 0 46.5-115.5 524.09 524.09 0 0 0 16-130.5zm154-69 181-3q64-1 112 45 47 44 47 105t-48 97q-48 36-126 36a704.8 704.8 0 0 1 -116-9.5 723.51 723.51 0 0 0 -119-9.5q-15 0-15 4 0 6 44 18.5t131 38.5l39 13q34 21 55.5 41.5t33.5 40.5q12 20 16.5 39.5a175.13 175.13 0 0 1 4.5 39.5q0 28-11 49a98.74 98.74 0 0 1 -29.5 34.5q-18.49 13.5-43.5 20a206 206 0 0 1 -52 6.5q-65 0-135-35l-33-21q-68-46-103.5-72t-42.5-26l113 147q35 45 45.5 82t10.5 63q0 74-31 106t-97 32a190.39 190.39 0 0 1 -69.5-13 233.45 233.45 0 0 1 -63-37 295 295 0 0 1 -53.5-57.5 371.8 371.8 0 0 1 -41-74.5q-53-122-65-122l-2 4q0 11 4 33t13 56q10 34 15.5 52.5t6.5 23.5q17 77 17 112a162.59 162.59 0 0 1 -9 54.5 147.26 147.26 0 0 1 -24.5 44.5 110.55 110.55 0 0 1 -36.5 29.5 99.24 99.24 0 0 1 -45 10.5q-72 0-101-26-47-38-73-84a226 226 0 0 1 -29-100l-1-31q-6-132-19-132-3 0-25 60t-23 74a579.21 579.21 0 0 1 -29 74.5q-16 33.5-37.5 57.5a160.31 160.31 0 0 1 -49 37.5q-27.5 13.5-61.5 13.5-51 0-81.5-43.5t-30.5-117.5l7-63 77-229q-8 0-29 32.5t-64 95.5l-22 31q-14 14-36 27.5t-54 27.5a522.6 522.6 0 0 1 -57.5 20q-25.5 7-46.5 7-55 0-74-8-32-17-32-81 0-73 38.5-141.5t125.5-138.5l20-13q36-23 56-35.5t20-20.5q0-4-9-4-14 0-53.5 13.5t-104.5 41.5q-72 30-135 30-65 0-95-43t-30-112q0-44 23-74.5t69-50.5l30-14a90 90 0 0 1 22-12q11-4 22-7 11-4 32.5-8.5t56.5-9.5q49-7 73.5-9.5t24.5-5.5q0-12-95-15a344.07 344.07 0 0 1 -38.5-4.5q-20.5-3.5-45.5-13.5-47-18-61-29-95-68-95-141 0-71 38-113t99-42q32 0 69.5 12t82.5 31l19 9 26 9q57 21 88.5 34t38.5 13q0-5-71-54l-75-52q-45-45-72.5-99t-27.5-99q0-58 38-93.5t99-35.5q40 0 105 39 9 5 34 32t65 76q38 47 58.5 71.5t24.5 26.5q-2-14-16-44-78-151-78-212 0-81 33-128t95-47q72 0 120 57.5t59 172.5l4 38 6 39q7 39 15 39 5 0 11-27l30-130q14-56 64-124 52-70 132-70 14 0 56 12 79 25 79 155a283.42 283.42 0 0 1 -3.5 43.5 139.45 139.45 0 0 1 -14.5 43.5q-37 76-56 114.5t-19 40.5q5-2 51-56l52-62q23-28 45-53.5a472.12 472.12 0 0 1 44-45 209.59 209.59 0 0 1 45-31 110.18 110.18 0 0 1 50-11.5q64 0 91 43 27 44 27 72 0 31-23 80-23 48-44 62l-49 46q-34 31-52 49.5t-18 26.5q0 7 10 7 28 0 112-45a261.57 261.57 0 0 1 34.5-15 412.49 412.49 0 0 1 39.5-12 364.64 364.64 0 0 1 38-7.5 229.47 229.47 0 0 1 31-2.5q33 0 74 18 42 17 65 41t23 72q0 57-41 96-39 38-155 77-142 47-142 69t98 20z"/></svg>