<svg viewBox="0 0 2370 2337" xmlns="http://www.w3.org/2000/svg"><path d="m1173 1467q0-34-14.5-56t-40.5-22q-17 0-32 15t-15 35q0 8 13 26 12 17 12 26 0 20-20.5 51.5a375.39 375.39 0 0 1 -49.5 60.5q-30 30-51 53t-34 42.5q-13 19.5-18.5 37a120.91 120.91 0 0 0 -5.5 36.5 111.76 111.76 0 0 0 6 36.5 94.53 94.53 0 0 0 17.5 31 98.38 98.38 0 0 0 26.5 22 65.74 65.74 0 0 0 33 8.5q48 0 48-50 0-13-9-24-25-25-25-45 0-25 17-45.5a452.14 452.14 0 0 1 42-43.5q31-29 50.5-55.5t30.5-50.5q11-24 15-46a239.85 239.85 0 0 0 4-43zm-308-247q15 2 29 18 14 17 30 17a51.78 51.78 0 0 0 35-13q15-13 15-33 0-29-28-47.5t-73-14.5l-48 4a160.7 160.7 0 0 0 -64 19.5 624.84 624.84 0 0 0 -56.5 35q-26.5 18.5-50.5 33.5t-46 15q-31 0-50-33-9-14-34-14-46 0-46 52a71.4 71.4 0 0 0 8.5 34 103 103 0 0 0 55 48 107.82 107.82 0 0 0 38.5 7q39 0 74-20t69.5-44q34.5-24 69-44t72.5-20zm1414-876q0 12 11 17t24 9.5a100.94 100.94 0 0 1 24 12q11 7.5 11 26.5 0 20-16.5 33.5t-36.5 13.5q-23 0-52-23a49.14 49.14 0 0 1 -14-17q-5-10-16-10-22 0-22 27 0 5 7.5 11.5t21.5 17.5q27 21 27 44 0 20-16 31.5t-33 11.5q-22 0-32.5-9.5a72.7 72.7 0 0 1 -16.5-21.5q-6-12-10.5-21.5t-13.5-9.5l-27 5q-18 0-28-10l-361 351q82 136 82 271 0 156-121 270-63 59-97 105t-44 98q-9 45-30 45-24 0-82-45-27-11-46-11-69 0-121 61-54 63-54 129 0 30 16 59.5t64 58.5q12 8 12 23 0 13-27 29-12 6-22 11.5a195.75 195.75 0 0 0 -18.5 11.5 73.08 73.08 0 0 0 -15.5 15 157.73 157.73 0 0 0 -14 22l-26 52q-28 55-46.5 93.5t-35.5 58.5q-134 147-350 147-193 0-356-117-164-117-271-296-107-176-107-351a570 570 0 0 1 11-112 481.46 481.46 0 0 1 34-105.5 452.75 452.75 0 0 1 58.5-95q35.5-44.5 84.5-81.5 20-15 59-32t99-34q25-7 43-14a256.47 256.47 0 0 0 29-13q21-11 52-55 16-25 28-25a22.33 22.33 0 0 1 13.5 4 32.35 32.35 0 0 1 9 10q3.5 6 6.5 12.5a91.87 91.87 0 0 0 7 12.5 105 105 0 0 0 47.5 51.5q32.5 17.5 64.5 17.5 70 0 130-50 63-52 63-115a78.73 78.73 0 0 0 -2-17q-2-9-5-20l-8-16q-13-26-20.5-42.5t-7.5-23.5q0-11 9-15.5t38-10.5l19-4a269.9 269.9 0 0 0 46.5-13.5 323.21 323.21 0 0 0 44.5-22 527.78 527.78 0 0 0 49-33q26-19.5 59-47.5 108-93 242-93 119 0 239 71l431-299q-12-22-12-30l4-22q0-12-11-18t-23.5-12a116.91 116.91 0 0 1 -23.5-15q-11-9-11-26 0-20 13-34t33-14q21 0 56 35l8 11q11 20 35 20 7-7 7-14 0-8-8-19-42-43-42-68 0-16 11.5-28.5t31.5-12.5q21 0 32.5 12.5a123.51 123.51 0 0 1 19 27q7.5 14.5 13 27t15.5 12.5q15 0 27-12-33-43-33-86 0-45 26-71t71-26q62 0 110 57t48 116q0 62-82 149-9 17-9 22z"/></svg>