<svg viewBox="0 0 2070 2255" xmlns="http://www.w3.org/2000/svg"><path d="m1131 383-24 28q51 22 86 44t55 45q29-11 59.5-21t64.5-20zm-986 777 129 45q-3-13-5-26a135.79 135.79 0 0 1 -1-29l2-30-118-45q-16-6-31-10a112.28 112.28 0 0 0 -29-4q-26 0-26 28 0 23 20 40t59 31zm1252 373 161-186q-18 5-45.5 6.5t-65.5 1.5l-27 30q-23 25-38.5 43.5t-27.5 31q-12 12.49-22.5 19a42 42 0 0 1 -22.5 6.5q-9 0-21-4.5t-29-10.5l-61-20q-20 26-33.5 42.5t-20.5 21.5q10 2 36.5 11.5t71.5 26.5q29 8 37 23t8 40l-7 498q-2 78 32 78 14 0 20-13.5t8-39.5l2-23q7-124 14.5-231t7.5-203q0-120 23-148zm-461-1066q-61 0-129 62-67 61-67 123 0 57 71 95a290.38 290.38 0 0 0 77 27.5 422.54 422.54 0 0 0 86 8.5 119.06 119.06 0 0 0 48-10q19-10 36-28 7-8 19.5-27.5t29.5-51.5q10-20 23.5-44.5t13.5-45.5q0-38-81-73-40-17-72-26.5t-55-9.5zm-784 342q0 17 29 26 46 16 78 29.5t50 24.5q36 21 50 52t12 89l-3 75q-1 37 18 37 11 0 31.5-13.5t49.5-38.5l20-18q19-17 55.5-46.5t90.5-77.5q110-95 110-98 0-25-38-54-20-15-36-23t-30-7l-51 2-65-1-214 6h-34a416.22 416.22 0 0 0 -47 2.5 275 275 0 0 0 -39 7q-17 4.5-27 11t-10 15.5zm1181 429 88 4q51 1 51-25 0-22-97-124-49-51-99-95.5a1043.47 1043.47 0 0 0 -104-81.5q-19-13-35-25t-40-12l-18 3q-42 15-71 15-35 0-56-8-10-3-19.5-5a85.64 85.64 0 0 0 -17.5-2q-8 0-15.5 6t-7.5 17q0 9 44 127 22 59 53.5 134.5t73.5 169.5q15 33 34 33 24 0 58-47 43-58 74-71 15-7 40.5-11t63.5-2zm462 403 36-570q-87 39-176 45l-60 70q17 28 26.5 50.5t9.5 42.5q0 52-66 67-5 100-7 237.5t-2 316.5q0 22 12 22 8 0 18-14l161-183q24-28 35.5-49t12.5-35zm-1187-978q20 0 27.5-7t8.5-33l3-19q-17-11-32-14a174.15 174.15 0 0 1 -32-10q-11-3-23.5-5.5a223.41 223.41 0 0 0 -23.5-3.5 299.75 299.75 0 0 1 -69-9.5q-32-8.5-55.5-23.5t-37-36.5a87.54 87.54 0 0 1 -13.5-47.5q0-71 76-71 61 0 169 83 7 6 16.5 14.5t19.5 16a151.32 151.32 0 0 0 20.5 13 44 44 0 0 0 20.5 5.5q14 0 75-56l25-19 26-14q56-23 56-54 0-30-63-107t-140.5-118.5q-77.5-41.5-152.5-41.5-118 0-198 107-80 106-80 214 0 78 42 128t125 78l8 2q86 29 202 29zm1053-152q-103 0-193 18t-157 51q-66 32-94 78.5t-28 92.5q0 24 20 24l28-4 138-7q59-3 105.5 4t78.5 20.5q32 13.5 49 33t17 42.5a58.72 58.72 0 0 1 -8 30.5 79.54 79.54 0 0 1 -20.5 23 101 101 0 0 1 -28.5 15 97.82 97.82 0 0 1 -32 5.5q-18 0-78-12l-97-21-12-4q-8 0-8 7 0 18 104 63 52 23 100 34t90 11q32 0 68-11.5t77-35.5a488.15 488.15 0 0 0 75-51.5 392.5 392.5 0 0 0 60-62.5q54-70 54-134 0-49-22-88t-62.5-66q-40.5-27-97.5-41.5t-126-14.5zm-851 884 193 68q-8-13-19.5-38.5t-27.5-61.5l-124-43 74-100a1279.46 1279.46 0 0 0 -51-139.5 1162.37 1162.37 0 0 1 -51-143.5q-54 34-155 131-56 54-94 87.5t-60 49.5l245 85q38 13 56.5 21t18.5 16q0 7-7.5 13.5t-7.5 21.5l2 12q0 14-14 14-15 0-46.5-12.5t-83.5-32.5q-78-30-133-46.5t-86-24.5l89 595q5 31 37.5 51.5t89.5 37.5l58 16q25 8 54.5 20.5t49.5 12.5a9.66 9.66 0 0 0 9-5.5q3-5.51 4.5-19.5t2-37q.5-23 .5-58 0-124-10-245.5t-13-244.5zm123-1126 558 166q97-15 181-15 195 0 296.5 71.5t101.5 208.5q0 96-44 187l-74 647q-5 41-15.5 71t-25.5 47l-219 257q-103 121-166.5 194t-88.5 99q-53 53-129 53-26 0-56-7a592.94 592.94 0 0 1 -66-20l-298-104q-253-88-397-138t-180-67q-45-17-77.5-46.5t-40.5-57.5l-167-612q-12-45-19-73.5t-7-42.5a164.79 164.79 0 0 1 16-71q16-34 39-56l12-12 40-39q-99-57-99-104 0-35 67-74 69-40 174-50-122-72-122-266 0-96 34-177.5t100-131.5q66-49 138-77.5t139-28.5q102 0 215 79a667.34 667.34 0 0 1 101 86 577.8 577.8 0 0 1 79 104z"/></svg>