<svg viewBox="0 0 2274 2322" xmlns="http://www.w3.org/2000/svg"><path d="m989 950q0-11 8.5-19a27.66 27.66 0 0 1 19.5-8 27.32 27.32 0 0 1 27 27q0 11-8 20t-19 9q-11 0-19.5-9t-8.5-20zm-470 565a27.66 27.66 0 0 1 -19.5-8q-8.5-8-8.5-19t8.5-19a27.66 27.66 0 0 1 19.5-8 27.14 27.14 0 0 1 20 8 26.56 26.56 0 0 1 0 38 27.14 27.14 0 0 1 -20 8zm1656-1243q-11 0-19.5-9t-8.5-20q0-11 8.5-19a27.77 27.77 0 0 1 39 0q8.51 8 8.5 19t-8.5 20q-8.5 9-19.5 9zm-770 1734q11 0 19 9t8 20a27.66 27.66 0 0 1 -8 19.5q-8 8.51-19 8.5a27.93 27.93 0 0 1 -20.5-8.5q-8.5-8.5-8.5-19.5t8.5-20a27.19 27.19 0 0 1 20.5-9zm-974-686a27.93 27.93 0 0 1 -20.5-8.5q-8.5-8.5-8.5-19.5t8.5-19.5a27.93 27.93 0 0 1 20.5-8.5q11 0 19 8.5a27.77 27.77 0 0 1 0 39q-8 8.5-19 8.5zm-375 19a26 26 0 0 1 -8 19 27.14 27.14 0 0 1 -20 8 27.66 27.66 0 0 1 -19.5-8q-8.5-8-8.5-19t8.5-20q8.5-9 19.5-9a25.65 25.65 0 0 1 20 9q8 9 8 20zm985-1002a25.65 25.65 0 0 1 9-20q9-8 20-8a26 26 0 0 1 19 8 29 29 0 0 1 0 40 26 26 0 0 1 -19 8q-11 0-20-8a25.65 25.65 0 0 1 -9-20zm127 518a26.31 26.31 0 0 1 -20-8.5 27.66 27.66 0 0 1 -8-19.5q0-11 8-20a26.72 26.72 0 0 1 40 0q8 9 8 20a27.66 27.66 0 0 1 -8 19.5 26.31 26.31 0 0 1 -20 8.5zm1007 95q11 0 19.5 8.5a27.93 27.93 0 0 1 8.5 20.5q0 11-8.5 19a27.77 27.77 0 0 1 -39 0q-8.51-8-8.5-19a27.93 27.93 0 0 1 8.5-20.5q8.5-8.5 19.5-8.5zm-1561 1316q11 0 19.5 8.5t8.5 19.5q0 11-8.5 19.5t-19.5 8.5a26.31 26.31 0 0 1 -20-8.5 27.77 27.77 0 0 1 0-39 26.31 26.31 0 0 1 20-8.5zm1065-778a27.32 27.32 0 0 1 27 27q0 13-8 21a26 26 0 0 1 -19 8q-11 0-20-8t-9-21q0-11 9-19t20-8zm-914-421q-11 0-19-8.5a28.86 28.86 0 0 1 -8-20.5 27.32 27.32 0 0 1 27-27 28.86 28.86 0 0 1 20.5 8q8.5 8 8.5 19a29 29 0 0 1 -29 29zm-709 796a27.66 27.66 0 0 1 19.5 8q8.5 8 8.5 21 0 11-8.5 19a27.66 27.66 0 0 1 -19.5 8 27.14 27.14 0 0 1 -20-8 26 26 0 0 1 -8-19q0-13 8-21a27.14 27.14 0 0 1 20-8zm0 375a27.66 27.66 0 0 1 19.5 8 26.31 26.31 0 0 1 8.5 20q0 11-8.5 19.5t-19.5 8.5a26.31 26.31 0 0 1 -20-8.5 27.66 27.66 0 0 1 -8-19.5 27.34 27.34 0 0 1 28-28zm1060-259q13 0 21 8a26 26 0 0 1 8 19q0 13-8 21t-21 8a26 26 0 0 1 -19-8q-8-8-8-21a27.32 27.32 0 0 1 27-27zm-166-87q20 0 33 13t13 33q0 20-13 32.5t-33 12.5q-20 0-33.5-12.5t-13.5-32.5q0-20 13.5-33t33.5-13zm-385-492q-20 0-33-12.5t-13-32.5q0-20 13-33t33-13q20 0 33.5 13t13.5 33q0 20-13.5 32.5t-33.5 12.5zm220 780q20 0 33.5 13.5t13.5 33.5q0 20-13.5 33t-33.5 13q-20 0-33-13t-13-33q0-20 13-33.5t33-13.5zm894-918q20 0 33 13.5t13 33.5q0 20-13 33t-33 13q-20 0-33.5-13t-13.5-33q0-20 13.5-33.5t33.5-13.5zm-1472 77q-20 0-33.5-13.5t-13.5-33.5q0-20 13.5-33t33.5-13q20 0 33 13t13 33q0 20-13 33.5t-33 13.5zm1319 145q0 20-13.5 33t-33.5 13q-20 0-33.5-13t-13.5-33q0-20 13.5-33.5t33.5-13.5q20 0 33.5 13.5t13.5 33.5zm603-1034q-20 0-33.5-13.5t-13.5-33.5q0-20 13.5-33t33.5-13q20 0 33 13t13 33q0 20-13 33.5t-33 13.5zm-1059-227q-20 0-33.5-13.5t-13.5-33.5q0-20 13.5-33t33.5-13q20 0 33 13t13 33q0 20-13 33.5t-33 13.5zm-47 604q-20 0-33-13t-13-33q0-20 13-33.5t33-13.5q20 0 33.5 13.5t13.5 33.5q0 20-13.5 33t-33.5 13zm503 985q20 0 33 13.5t13 33.5q0 20-13 33t-33 13q-20 0-33.5-13t-13.5-33q0-20 13.5-33.5t33.5-13.5zm-74-581q0-5-37-30a43.5 43.5 0 0 1 -8.5-9q-3.49-5-2.5-13l1-40q0-8-4-8l-38 26q-5 5-15 5l-9-1-42-15q-5 0-5 5l1 5 14 38 1 7-5 16-26 32-3 6q0 6 8 4l42-1q12 0 20 11l23 34 5 6q5 0 18-47 2-14 17-16l39-10c4-.67 6-2.33 6-5zm779-549 3-5q0-3-5-6l-41-7q-13 0-20-13l-16-37-5-6-7 6-17 35q-8 15-20 15l-40 5-8 5 4 5 29 28q8 11 8 20v3l-10 41q0 8 6 8l40-22 12-2q4 0 48 24l5 2q4 0 4-9l-7-41v-4a26.82 26.82 0 0 1 2-10c1.33-3.33 3-5.67 5-7zm-1447 1041-4-8-38-27q-11-8-11-22v-3l1-46q0-9-5-9l-7 3-37 27q-5 6-18 6l-10-1-43-17h-6q-5 0-5 6l1 5 15 42 2 10q0 12-6 18l-30 38-3 6q0 5 8 5l50-1q11-1 23 12l26 40 7 5 5-7 14-45q1-5 8-12 6-6 56-19 7 0 7-6zm989-1173-3 6q0 6 9 4l49-1q16 0 22 12l26 41 7 5q4 0 6-7l14-45q1-6 8-13 3-3 16.5-7t39.5-12q7 0 7-5 0-6-42-36-13-7-12-25l1-45v-2q0-7-6-7l-6 2-36 28q-5 5-19 5l-8-1-50-17q-6 0-6 7l1 4 16 43 2 7q0 8-7 20zm-469 1095-4-7-39-27q-12-9-12-26l2-45q0-10-6-10l-7 3-35 27q-5 6-19 6l-9-1-49-17q-7 0-7 7l2 4 16 44 1 7q0 9-6 19l-29 38-3 7q0 7 7 5l49-2q16-1 23 12l26 41 7 4q6 0 7-5l14-47q4-13 19-19l45-12q7 0 7-6zm507-1470-2 7q0 5 8 5l49-1q16-1 23 12l26 41 7 4q5 0 19-53a34.46 34.46 0 0 1 9-11q5-5 57-19 7-3 7-7l-4-7-39-27q-12-7-12-22v-3l2-47q0-8-6-8l-7 3-37 27a27.84 27.84 0 0 1 -17 6l-10-2-44-16h-5q-6 0-6 5l2 5 15 43 1 10q0 13-5 18zm-488 179-4 8q0 7 11 7l63-3q19 0 30 17l34 53 8 5q6 0 9-8l17-60q6-19 26-25l59-15q10-1 10-8 0-5-7-9l-49-36q-17-12-17-31l3-61q0-12-8-12l-8 4-47 36a48.89 48.89 0 0 1 -25 7l-11-2-64-22q-8 0-8 8l1 6q22 59 22 68 0 12-7 24zm306 460-5-10-51-36q-15-10-15-28v-3l2-60q0-13-7-13l-8 5-48 35a48.89 48.89 0 0 1 -25 7l-11-1-64-22q-7 0-7 8l1 5 21 56 1 10q0 17-8 26l-38 49-4 8q0 7 11 7h1l63-2q18-1 29 16l34 52q2 7 9 7 4 0 9-8l17-61q6-19 26-24l58-15q9-3 9-8zm-1110 1272-6-10-50-35q-15-10-15-29v-3l1-60q0-11-7-11l-8 3-48 35q-7 7-25 7-6 0-75-23-7 0-7 8l2 6q11 29 16.5 46.5t5.5 21.5a35.57 35.57 0 0 1 -2 13 69.61 69.61 0 0 1 -5 10l-40 50-4 8q0 7 11 7h1l63-2q19 0 30 17l33 52 10 6q5 0 8-9l18-60q5-20 26-25l57-15q10-3 10-8zm563-732-5-8-49-36q-17-14-17-33l3-60q0-11-8-11l-9 3-47 37a60.16 60.16 0 0 1 -10.5 5 39.87 39.87 0 0 1 -13.5 2l-75-25q-8 0-8 8l1 6 21 57 1 11a39.09 39.09 0 0 1 -7 23l-39 50-4 8q0 7 10 7h2l63-2q19 0 30 17 38 59 42 59 7 0 8-10l18-59q6-19 26-24l59-17q8-1 8-8zm924-333-6-8-50-35q-15-10-15-30v-3l1-60q0-11-7-11l-8 2-48 37a48.89 48.89 0 0 1 -25 7l-11-3-64-21q-8 0-8 8l1 5 21 58 1 11q0 12-7 24l-38 48-4 10q0 7 11 7l64-3q19-2 30 16l33 52q5 7 10 7 4 0 7-9l19-59q6-23 26-25l57-16q10-3 10-9zm-1872 641 63-2q19 0 30 17l34 52 9 5q5 0 8-8 6-19 10-33.5a172.26 172.26 0 0 1 8.5-24.5 69.53 69.53 0 0 1 10-16.5q5.5-6.5 15.5-10.5l58-15q10-3 10-8t-7-10l-49-35q-15-10-15-29v-3l1-60q0-11-8-11l-7 3-48 35q-8 7-24 7l-11-1-64-22q-9 0-9 8l2 6q23 64 23 68a35.57 35.57 0 0 1 -2 13 39.59 39.59 0 0 1 -6 10l-39 50-4 8q0 7 11 7zm1238-315q-26 0-39-22l-17-27-38 1q-17 1-30.5-11.5t-13.5-32.5q0-16 33-57l-14-38v-9q0-16 12-30.5t32-14.5l18 4 31 11 26-19q9-9 29-9t32.5 13.5q12.5 13.5 11.5 29.5l-2 37 28 19q20 16 20 37 0 35-35 44l-32 8-9 32q-10 34-43 34zm902-670q0 21-17 35l-23 21 6 33v8q0 20-13 33t-30 13q-11 0-26-6l-27-18q-43 23-52 23-20 0-32.5-13.5t-12.5-33.5l1-9 7-33-23-22q-17-15-17-34 0-38 43-44l33-4 15-30q12-26 41-26 27 0 41 27l13 30q44 8 51 11 8 6 15 17t7 22zm-1580 1175q-27 0-41-23l-22-35-47 2q-17 0-30-12.5t-13-32.5q0-16 12-30l26-33-14-39-4-17q0-20 12.5-33t32.5-13l18 5 40 13 33-24q14-11 30-11 17 0 30 13t13 33v4l-1 40 34 25q21 15 21 41 0 33-36 42l-40 11-10 38q-11 36-44 36zm650-208q0 35-37 45l-39 11-12 38q-11 36-44 36-25 0-39-23l-22-35-48 2q-17 0-30.5-12.5t-13.5-32.5q0-15 12-30l26-33-13-37-3-19q0-20 12.5-33t32.5-13l18 5 38 13 33-24a47.84 47.84 0 0 1 30-10q20 0 33 12.5t12 32.5l-1 45 34 24q21 18 21 38zm476-1419-3 2q-20 0-34-13a42 42 0 0 1 -14-32q0-15 12-32l26-31-13-39-4-18q0-20 13.5-32.5a44.92 44.92 0 0 1 31.5-12.5l19 3 38 15 33-24a43.6 43.6 0 0 1 14.5-8.5 48.62 48.62 0 0 1 15.5-2.5q20 0 33.5 14t11.5 31l-3 45 35 24q22 17 22 39 0 17-11 29a53.42 53.42 0 0 1 -26 16l-39 9-12 40q-11 36-44 36-26 0-39-24l-22-34zm1 375h-42q-21 0-34.5-12.5t-13.5-32.5a45.11 45.11 0 0 1 11-30l26-33-14-37-3-19q0-20 12.5-32.5t32.5-12.5l18 4 40 14 33-25q14-11 28-11 20 0 33 13.5t13 33.5l-2 45 34 23q21 18 21 45 0 29-36 38l-39 11-13 39q-11 35-43 35-25 0-40-23zm228 421q0 39-42 51l-53 15-18 55q-14 41-49 41-16 0-27-7t-20-20l-31-48-63 1q-20 1-35.5-13t-15.5-38q0-22 14-35l35-45-19-54-2-20q0-24 14-38t36-14l21 4 54 19 47-34q14-11 34-11 22 0 36.5 16t14.5 37v4l-2 56 47 35q24 18 24 43zm-1487 1068a41.18 41.18 0 0 1 -12 29.5 64.84 64.84 0 0 1 -29 17.5l-54 15-18 55q-13 41-49 41-31 0-47-27l-30-48-64 1q-18 1-34.5-12t-16.5-37q0-20 14-37l35-45q-22-65-22-75 0-21 15.5-36t35.5-15q8 0 77 23l45-34q19-11 34-11 20 0 35.5 14.5t15.5 37.5v4l-2 58 47 33q24 16 24 48zm-292-310q-28 0-45-27l-32-48-63 1q-20 1-35-13.5t-15-36.5q0-22 13-36l36-45q-23-64-23-74 0-21 15-36.5t37-15.5q7 0 75 24l46-35q16-11 33-11 24 0 38.5 16.5t13.5 39.5l-1 58 46 33q23 16 25 45 1 37-43 51l-53 15-18 54q-13 41-50 41zm1403-964v7q-6 33-42 42l-53 14-18 56q-14 40-50 40-30 0-46-26l-30-48-64 1q-21 1-36-14t-15-35q0-20 14-37l35-47q-23-64-23-72 0-22 14-37t38-15q5 0 23.5 6t53.5 17l45-34q16-12 34-12 22 0 36 15.5t14 37.5v4l-1 56 47 34q24 20 24 47zm-284-402h-59q-24 0-39.5-14.5t-15.5-36.5a54.39 54.39 0 0 1 12-35l37-47q-23-64-23-74 0-23 16-36.5t36-13.5l21 2 54 21 46-34q14-13 34-13 23 0 38 16.5t14 37.5l-3 60 48 34q24 18 24 45 1 17-12 31.5t-30 19.5l-55 13-16 57q-12 39-51 39-28 0-45-26zm-426 1102a51.35 51.35 0 0 1 -25-6q-11-6-20-20l-31-49-65 3q-20 1-35-14t-15-37q0-20 13-37l37-45q-23-64-23-72a54.67 54.67 0 0 1 14.5-38q14.5-16 37.5-16 7 0 75 24l45-33a111.67 111.67 0 0 1 17-9.5 44.5 44.5 0 0 1 18-3.5q23 0 38 16t14 36l-3 62 48 33q22 15 24 45l-1 9q-4 31-41 42l-55 15-16 54q-12 41-51 41z"/></svg>