<svg viewBox="0 0 2118 2084" xmlns="http://www.w3.org/2000/svg"><path d="m99 688q0 37 12 61t38 32l47 13 236 58q97 23 182 23a465.11 465.11 0 0 0 46.5-2 231.82 231.82 0 0 0 31.5-5q49-12 119-48.5t166-92.5l92-53q-15-123-40-181-28 17-64.5 42.5t-83.5 60.5q-54 40-90.5 65.5t-57.5 39.5q-38 26-76 26-35 0-71-13a655 655 0 0 0 -65-20q-32-8-64-15l-171-35q-55-11-98.5-20t-75.5-9q-13 33-13 73zm80-164 378 79q33 7 58 16.5t42 9.5l15-3a619.65 619.65 0 0 0 51.5-35.5q25.5-19.5 51-40t52.5-41.5q27-21 57-40l79-51q-20-14-47-23.5t-59-17.5q-33-7-85.5-17t-124.5-25q-144-30-156-24l-15 2q-188 107-297 211zm1379 73-4-69q-45 20-96 45.5t-110 59.5l-2 94 3 88q28-5 61-10t73-8l21-20q29-30 43.5-75.5t10.5-104.5zm-946 799q0 28 43 26l162-1q38 0 95 11.5t132 34.5q111 36 142 36a185.29 185.29 0 0 0 56-8.5 290.07 290.07 0 0 0 52.5-22.5 467.16 467.16 0 0 0 49-31q23.51-17 46.5-34 214-159 510-243l26-4q37-6 55.5-12.5t18.5-19.5q0-33-56-33l-61 6q-125 23-254.5 77t-263.5 146l-39 27q-48 33-79 51.5t-48 18.5q-46 0-85-15a674.07 674.07 0 0 0 -77-24.5q-41-10.5-87-19.5-93-18-169-18-169 0-169 52zm1033-1023v-42l-3-71-13-2h-12q-98 0-320 96 34 43 45 170l162-81 50-22q45-20 68-30t23-18zm-513-276q-69 0-151 15.5t-176 47.5q41 3 92 13t114 28q63 17 112.5 34.5t85.5 37.5l13 7q66-28 139.5-58a1116 1116 0 0 1 154.5-50q-117-38-212.5-56.5t-171.5-18.5zm-530 1094q39-35 100-78.5t146-96.5q170-105 238-123l-5-114-101 56q-72 40-125.5 69.5t-92.5 43.5q-78 26-148 26-55 0-128.5-13t-167.5-37l-88-22-1 11a377.46 377.46 0 0 0 5.5 66 358 358 0 0 0 14.5 56.5 240.44 240.44 0 0 0 20.5 44.5q11.5 19 23.5 29 18 18 55 30 35 12 116 30 40 10 74 15t64 7zm1372 201-4-74-156 73q-134 63-211.5 105t-105.5 58l-201 110a583.75 583.75 0 0 1 -61.5 28.5 165.16 165.16 0 0 1 -60.5 11.5q-86 0-224-44-58-18-131.5-27.5t-164.5-9.5q-10 37-10 85 0 59 13.5 105.5t36.5 75.5q16 20 57.5 38t95 31.5a957.16 957.16 0 0 0 111.5 21q58 7.5 106 7.5a756.29 756.29 0 0 0 184-23q90-22 191-68 51-23 111.5-57.5t132.5-79.5q72-46 120-80t71-57q49-48 76.5-104t23.5-126zm144-267q0 38-15 76t-44 61a378.52 378.52 0 0 1 11 60.5q3 30.49 3 62.5 0 156-80 249-105 126-392 289-143 81-277 121t-260 40q-109 0-235-30-125-29-176-72-106-89-106-274 0-23 2-44.5t5-40.5q-57-7-89.5-47t-32.5-99q0-106 84-198-115-16-203-48-87-32-134.5-109.5t-47.5-208.5v-17l2-17q-70-23-101.5-74.5t-31.5-116.5a312.12 312.12 0 0 1 40-154q40-71 168-160l67-46q232-161 451-244.5t406-83.5q35 0 70 3t69 8q34 5 85 16t120 31q137 39 179 62 42 22 65 66.5t23 115.5v71q0 70-94 116 4 25 6 50.5t2 51.5q0 122-51 207 81 8 149 22t122 37q55 23 99.5 52.5t76 64q31.5 34.5 48.5 73t17 78.5z"/></svg>