<svg viewBox="0 0 1968 1942" xmlns="http://www.w3.org/2000/svg"><path d="m1871 1603q0-40-26-67t-71-23l-86 7-22-3a547.38 547.38 0 0 1 -64 67 623.78 623.78 0 0 1 -82 61q18 27 21 89 6 110 81 110 29 0 52.5-20t35.5-46q16-36 37.5-55t59.5-30q29-8 46.5-34t17.5-56zm-1183-1049q0-47-81-115-33-27-70-70a267 267 0 0 1 -28-41.5q-11-20.5-10-40.5l1-41q3-74-21.5-111t-72.5-37q-32 0-60 20.5a151.92 151.92 0 0 0 -44 49.5q-23 41-49 62.5t-70 29.5a80.5 80.5 0 0 0 -34.5 14 125 125 0 0 0 -27 26 112.07 112.07 0 0 0 -17.5 33 116.24 116.24 0 0 0 -6 37q0 51 34.5 79.5t92.5 26.5l62-2q40-1 71 13.5t60 55.5q39 54 79.5 89t69.5 35q37 0 78-38 43-39 43-75zm1042 863 44-3q41-3 76.5 10.5a176 176 0 0 1 61.5 39 185.46 185.46 0 0 1 41 61q15 35.51 15 77.5a193.69 193.69 0 0 1 -10.5 63.5 204.81 204.81 0 0 1 -29 55.5 196.9 196.9 0 0 1 -43.5 43 140.28 140.28 0 0 1 -54 24q-12 4-17.5 8t-13.5 22q-25 57-73 90.5t-105 33.5a166.63 166.63 0 0 1 -66.5-14q-32.51-14-57.5-43t-40.5-73.5q-15.5-44.5-15.5-105.5l-11-13q-137 60-281 60-73 0-136.5-15.5t-113.5-45q-50-29.5-85.5-71.5a276.43 276.43 0 0 1 -52.5-95q-9-28-20.5-49a145.56 145.56 0 0 0 -28-36.5 160.75 160.75 0 0 0 -38.5-26.5q-22-11-53-20-92-26-158-72t-109-107.5q-43-61.5-64-136.5t-22-159a476.65 476.65 0 0 1 21.5-148.5q22.5-72.5 67.5-144.5l-16-23q-14-20-24.5-25.5t-30.5-4.5l-62 1q-48 2-88.5-13a221.64 221.64 0 0 1 -72.5-44q-64-58-64-148 0-74 46-133a233.77 233.77 0 0 1 53.5-48 171.33 171.33 0 0 1 64.5-25 122 122 0 0 0 17-4.5 49.29 49.29 0 0 0 12.5-6.5 44.48 44.48 0 0 0 10.5-11.5q5-7.5 12-19.5 30-57 81.5-89t108.5-32q50 0 86 18a157.27 157.27 0 0 1 59 50.5q23 32.5 34 78.5t11 102v35l58 66q126-64 272-64a590.26 590.26 0 0 1 114 11 545.18 545.18 0 0 1 107 32.5 502.72 502.72 0 0 1 95.5 53 406.68 406.68 0 0 1 78.5 72.5q15 17 30.5 47t32.5 72q38 94 69 128 15 17 52 40.5t95 56.5a365.86 365.86 0 0 1 80 61.5 377.17 377.17 0 0 1 61.5 82.5 425.45 425.45 0 0 1 39.5 100 448.7 448.7 0 0 1 14 113q0 136-65 261z"/></svg>