<svg viewBox="0 0 1302 2352" xmlns="http://www.w3.org/2000/svg"><path d="m1185 1292q0-33-29-33a40.22 40.22 0 0 0 -21 6q-40 23-78 35.5a242.07 242.07 0 0 1 -76 12.5 272.16 272.16 0 0 1 -29-1.5 175.46 175.46 0 0 1 -25.5-4.5 76.84 76.84 0 0 1 -18.5-7q-7-4-7-10 0-21 76-46a314.7 314.7 0 0 0 72-35.5 426.66 426.66 0 0 0 66-54.5q63-64 63-126 0-44-37-89-38-43-65-43-11 0-35 11-126 57-188 57-29 0-50.5-8t-21.5-21q0-25 38-39 118-42 162-69 45-28 73-63t28-83q0-27-7-49.5a170.64 170.64 0 0 0 -20-42.5q-26-38-48-38a34.65 34.65 0 0 0 -24 9q-15 16-49 31a176.43 176.43 0 0 1 -72 15q-30 0-30-22 0-19 43-65 14-14 27-35a274.88 274.88 0 0 0 22.5-45.5 369.45 369.45 0 0 0 15.5-50.5 226.32 226.32 0 0 0 6-51q0-69-47-143-47-75-91-75l-23 5 4 29a223 223 0 0 1 -24 101q-25 45-69 77-22 15-62 29.5t-101 30.5q-65 17-111 33.5t-75 31.5q-57 30-90.5 71t-33.5 98q0 57 41 94 9 9 9 19 0 25-60 85-49 50-67.5 93.5t-18.5 88.5a154 154 0 0 0 7 45 254.8 254.8 0 0 0 20 47q28 50 28 65a50.63 50.63 0 0 1 -4.5 21 155.44 155.44 0 0 1 -12.5 22q-31 47-31 97 0 65 36 113.5t102 80.5q32 17 74 27.5a877.12 877.12 0 0 0 93 17.5q51 8 99.5 11t96.5 3q133 0 232-19t170-56q71-39 109-96 39-58 39-92zm117 36q0 91-50.5 156.5t-144.5 107.5l-14 198q-2 33-11.5 49.5t-29.5 16.5q-44 0-59.5 10.5t-18.5 34.5l-30 212-28 193q-7 29-20 37t-33 8h-31l-129 1h-82l-205-1q-25 0-38.5-14t-13.5-31l-59-405q-8-30-30-37.5t-54-7.5q-23 0-28.5-21a212.17 212.17 0 0 1 -6.5-45l-14-213q-172-93-172-249 0-36 9-77.5t29-88.5l4-20a88.64 88.64 0 0 0 -7-34 592.94 592.94 0 0 1 -20-66q-7-30-7-55 0-63 17.5-104.5t38.5-67.5q21-26 38.5-40.5t17.5-25.5q0-17-13-46-14-28-14-70 0-104 86-190 90-90 203-118l101-25q103-25 156-78.5t53-122.5l-7-61q0-38 73-38 77 0 143 54 68 56 108 145 21 45 31 87.5t10 81.5q0 50-19 94 70 22 115 87 44 65 44 137 0 66-44 133a296.86 296.86 0 0 1 106.5 96.5 267.65 267.65 0 0 1 30.5 62 200.36 200.36 0 0 1 11 64.5q0 32-8.5 59t-17.5 56l-8 26q0 5 7 14 4 5 10 16.5a181.1 181.1 0 0 1 11.5 29 335.1 335.1 0 0 1 9.5 39 254.06 254.06 0 0 1 4 46.5z"/></svg>