<svg viewBox="0 0 2249 1874" xmlns="http://www.w3.org/2000/svg"><path d="m340 1803q0 31-27 31-11 1-17.5-6a29.43 29.43 0 0 0 -15.5-9q-7 0-7 6l3 12a20.64 20.64 0 0 1 -4.5 13.5 34.47 34.47 0 0 1 -11.5 9 59 59 0 0 1 -14 5 62.32 62.32 0 0 1 -13 1.5q-9 0-14.5-3.5a78.15 78.15 0 0 1 -9.5-7q-4-3.49-7.5-7a10.51 10.51 0 0 0 -7.5-3.5l-6 4q-10 25-35 25-34 0-56-34-5-6-11-6-4 0-4 5 0 20-18 20-28 0-47-48a231 231 0 0 1 -13-48.5 331.44 331.44 0 0 1 -4-51.5q0-138 30-138l90 8a281.48 281.48 0 0 0 42-3.5q23-3.49 52-13.5l19-7q9 0 22 54 9 37 17 61t15.5 39.5q7.5 15.5 14.5 24.5a172 172 0 0 0 14 16q24 27 24 51zm-325-298q0-121 60-144l-2-657q0-30 20-30 35 0 53 22.5t18 54.5l-2 194v54l3 197v164q31 13 51 64 17 47 17 63 0 48-134 48a220.08 220.08 0 0 1 -29-2 183.35 183.35 0 0 1 -27-5.5 69.33 69.33 0 0 1 -20-9q-8-5.5-8-13.5zm1937-679v133q0 48 5.5 106t5.5 117q0 109-31.5 176.5t-94.5 105.5q-62 36-229 65-84 14-174.5 21.5t-191.5 7.5q-92 0-189.5-5t-203.5-15q-106-11-179.5-23t-117.5-27q-85-29-134-78.5t-51-130.5l-1-60 1-391 329 147 109 51q105 48 190 75.5t154 27.5q138 0 295-74 119-57 245-113.5t263-115.5zm297-287q0 29-31 57-15 15-45.5 34t-79.5 40l-344 151q-171 75-342 156-136 64-258 64-66 0-136-22-35-11-79-31t-101-46l-102-46-596-267q-28-12-46-23t-28.5-22.5q-10.5-11.5-14.5-23a77.16 77.16 0 0 1 -4-25.5q0-46 49-85 25-20 69-42t109-50l127-54 485-219q73-33 145.5-59a439.7 439.7 0 0 1 149.5-26q64 0 118 19 112 39 240 96 65 29 157.5 74t216.5 104l201 95a510.18 510.18 0 0 1 53 30.5 283.3 283.3 0 0 1 44.5 36 175 175 0 0 1 31 41q11.5 21.5 11.5 43.5z"/></svg>