<svg viewBox="0 0 1798 1835" xmlns="http://www.w3.org/2000/svg"><path d="m396 608q95 0 167 69 73 70 73 170 0 99-70 170-68 69-170 69-98 0-168-69-70-70-70-170 0-104 71-171 73-68 167-68zm218-82q0-104 71-171 72-69 168-69 99 0 170 73 35 36 52.5 77t17.5 90q0 95-70 168-69 71-170 71-104 0-171-71-68-73-68-168zm239 772q-48 0-90.5-17t-77.5-52q-71-71-71-170 0-97 70-168 68-71 169-71 95 0 167 69 73 70 73 170 0 94-73 167-72 72-167 72zm245-458q0-96 71-167 73-71 167-71 100 0 170 70 69 69 69 170 0 98-71 169-69 70-171 70-100 0-168-73-67-70-67-168zm-172 580q0 92-71 160-70 67-167 67-100 0-170-69-70-72-70-170 0-67 37-129 39-63 78-63 25 0 38 31 26 55 98 93a294.31 294.31 0 0 0 75 27.5 369.68 369.68 0 0 0 79 8.5q24 0 38.5 1.5t22 6a21.92 21.92 0 0 1 10 13.5q2.5 9 2.5 23zm240-845 5-49q4-47-8.5-90a291.34 291.34 0 0 0 -37-80 314.44 314.44 0 0 0 -58.5-66 378.11 378.11 0 0 0 -73-49 229.4 229.4 0 0 1 81.5-71q49.5-26 110.5-26 100 0 169 70 70 69 70 168 0 84-48 145l-41-3a225.22 225.22 0 0 0 -87 11q-42 14-83 40zm-792 591 35-2q35-2 35 33 0 25-20 82-20 55-57.5 79.5t-91.5 24.5q-99 0-169-69-70-72-70-170a229.66 229.66 0 0 1 5.5-50.5 325.2 325.2 0 0 1 15.5-49.5q21-51 44-51 17 0 26 17 37 67 105 111 35 23 71 35t71 10zm1037 154q2 41-15.5 76t-49.5 65q-65 60-143 60-109 0-187-114-18-22-18-46 0-18 12-21l22-13q69-48 111-157 3-8 6.5-16.5a79 79 0 0 1 8-15 47.25 47.25 0 0 1 10.5-11q6-4.5 16-4.5a94.17 94.17 0 0 1 29 4.5q14 4.5 28.5 10t29.5 10a107.28 107.28 0 0 0 31 4.5q31 0 67 41 18 20 29 51t13 76zm-52 259q22 0 22 37 0 84-76 152-76 67-165 67-87 0-151-55-66-55-66-134 0-37 23-78t51-41a46.38 46.38 0 0 1 29 10q102 76 202 76 57 0 109-29 12-5 22-5zm279-584q37 0 81 53t44 127q0 104-68 177-67 70-189 70-18 0-22-10t-4-27l5-55q0-68-27-127-17-26-17-40 0-21 32-36l31-15q32-14 77-68 14-17 25.5-33t31.5-16zm160 589q0 100-69 170t-170 70q-129 0-129-60l3-15q4-19 9.5-36.5t10.5-34q5-16.5 9-33.5a161.24 161.24 0 0 0 4-37l-7-62q0-37 37-37l51 6a231.54 231.54 0 0 0 68.5-10 277.6 277.6 0 0 0 63.5-29q27-15 50-15 29 0 49 35t20 88zm-1708-997q-36 0-63-19t-27-48q0-41 32-89 34-51 169-175 68-63 128-110.5t112-79.5q108-66 130-66a52.51 52.51 0 0 1 28 8 82.12 82.12 0 0 1 22.5 20.5 117.09 117.09 0 0 1 15.5 27.5 77.91 77.91 0 0 1 6 29q0 52-66 85-37 11-89 59-51 45-51 63 0 11 19.5 28t43 38a369.61 369.61 0 0 1 43 45.5q19.5 24.5 19.5 49.5 0 30-18 63-17 33-40 33a105.55 105.55 0 0 1 -46-10 185 185 0 0 1 -39-25 317.32 317.32 0 0 1 -34-33q-16-18-31-33a214.15 214.15 0 0 0 -29.5-25q-14.5-10-30.5-10a37.69 37.69 0 0 0 -20.5 6 142.62 142.62 0 0 0 -18.5 14 136.68 136.68 0 0 0 -16.5 17.5q-7.5 9.5-13.5 16.5l-31 39q-19 24-33 39.5a249.47 249.47 0 0 1 -25.5 25q-11.5 9.5-22.5 13a75.48 75.48 0 0 1 -23 3.5z"/></svg>