<svg viewBox="0 0 1670 2210.24" xmlns="http://www.w3.org/2000/svg"><path d="m1469 1219.24v-258h-212v258zm0 450v-258h-212v258zm-356-450v-258h-213v258zm0 450v-258h-213v258zm-225-1115v23q0 36 2 58.5t7 33.5q11 19 47 19 26 0 42-5t24-14a45.06 45.06 0 0 0 10.5-21.5 134.78 134.78 0 0 0 2.5-26.5l-1-41 2-151q1-43-1-72.5t-10-47.5q-8-18-22.5-25.5t-37.5-7.5q-32 0-49.5 19.5t-15.5 57.5l1 43q1 30-20 30h-63q-26 0-25-30l1-43q2-38-15.5-57.5t-49.5-19.5q-69 0-70 81l-1 49 2 174-1 41a134.78 134.78 0 0 0 2.5 26.5 45.06 45.06 0 0 0 10.5 21.5q8 9 24 14t42 5q18 0 29-4a32.08 32.08 0 0 0 17-14q6-10 8-27a380.61 380.61 0 0 0 2-43v-39q0-22 28-22h45q33 0 33 15zm-132 665v-258h-212v258zm0 450v-258h-212v258zm-355-450v-258h-212v258zm0 450v-258h-212v258zm1269-1156v1697h-583v-217q0-36-23.5-60.5t-59.5-24.5h-338q-36 0-60.5 24.5t-24.5 60.5v217h-581v-1697q0-28 17-56t40-41l720-403q9-5 24-9t35-4q32-2 57 13l720 403q23 13 40 41t17 56z"/></svg>