<svg viewBox="0 0 2336 1589" xmlns="http://www.w3.org/2000/svg"><path d="m1834 660a91 91 0 0 0 35-7 89.42 89.42 0 0 0 29.5-19.5 108.77 108.77 0 0 0 20.5-28.5 75.06 75.06 0 0 0 8-34 80.37 80.37 0 0 0 -7-33.5 97.33 97.33 0 0 0 -18.5-27.5 81 81 0 0 0 -26.5-18.5 77.25 77.25 0 0 0 -31-6.5 85.85 85.85 0 0 0 -35 7.5 109.91 109.91 0 0 0 -30.5 20 96.57 96.57 0 0 0 -21.5 29 78.18 78.18 0 0 0 -8 34.5q0 38 25.5 61t59.5 23zm-294-92a80.81 80.81 0 0 0 -6.5-31.5 89.22 89.22 0 0 0 -18-27.5 93.42 93.42 0 0 0 -27-19.5 75.88 75.88 0 0 0 -33.5-7.5 85.85 85.85 0 0 0 -35 7.5 102.84 102.84 0 0 0 -30 20 93.49 93.49 0 0 0 -20.5 29 84.76 84.76 0 0 0 -7.5 35.5q0 37 25 60t57 23q16 0 33.5-7.5a107.64 107.64 0 0 0 31-20 116.23 116.23 0 0 0 22.5-28.5 66.5 66.5 0 0 0 9-33zm111 264q16 0 33-7.5a108.36 108.36 0 0 0 30-19.5 101.88 101.88 0 0 0 21.5-28.5 74.33 74.33 0 0 0 8.5-34.5 80.81 80.81 0 0 0 -6.5-31.5 89.22 89.22 0 0 0 -18-27.5 93.42 93.42 0 0 0 -27-19.5 73.71 73.71 0 0 0 -32.5-7.5 85.85 85.85 0 0 0 -35 7.5 108.36 108.36 0 0 0 -30 19.5 87.72 87.72 0 0 0 -20.5 28.5 82.45 82.45 0 0 0 -7.5 34.5q0 38 25.5 62t58.5 24zm72-435a84.52 84.52 0 0 0 -6.5-32 87.62 87.62 0 0 0 -18-28 95.74 95.74 0 0 0 -26.5-19.5 72.75 72.75 0 0 0 -33-7.5 88.18 88.18 0 0 0 -36 7.5 96.19 96.19 0 0 0 -29.5 20 98 98 0 0 0 -20 29 82.45 82.45 0 0 0 -7.5 34.5q0 22 8 38a85.36 85.36 0 0 0 20 26.5 78.1 78.1 0 0 0 27 15.5 91.63 91.63 0 0 0 29 5 83.63 83.63 0 0 0 34-7.5 98 98 0 0 0 30-20.5 114.38 114.38 0 0 0 21-28.5 70 70 0 0 0 8-32.5zm-250 692q40 0 67-25.5t27-67.5q0-22-8.5-38.5a91.26 91.26 0 0 0 -22-28 88.68 88.68 0 0 0 -30.5-17 109.81 109.81 0 0 0 -34-5.5 104.06 104.06 0 0 0 -36.5 6.5 87.33 87.33 0 0 0 -30.5 19 94.17 94.17 0 0 0 -21 31q-8 18.5-8 42.5 0 34 27.5 58.5t69.5 24.5zm-632-15q40 0 67-25.5t27-67.5q0-22-8.5-38.5a91.26 91.26 0 0 0 -22-28 88.68 88.68 0 0 0 -30.5-17 109.81 109.81 0 0 0 -34-5.5 100 100 0 0 0 -36 6.5 93.89 93.89 0 0 0 -30.5 19 90.54 90.54 0 0 0 -21.5 31q-8 18.5-8 42.5 0 21 8.5 36.5a83.27 83.27 0 0 0 22 26 90.26 90.26 0 0 0 31 15.5 128.76 128.76 0 0 0 35.5 5zm309-15q41 0 68-24.5t27-66.5q0-22-9-39a95.9 95.9 0 0 0 -22.5-28.5 94.53 94.53 0 0 0 -31-17.5 103.22 103.22 0 0 0 -33.5-6q-38 0-67 25.5t-29 74.5q0 20 8.5 35a85.21 85.21 0 0 0 22 25.5 97.72 97.72 0 0 0 31 16 117.67 117.67 0 0 0 35.5 5.5zm-447-414 15-6 18 2q23 2 40.5-.5l31.5-4.5 22.5-20q22.5-20 6.5-53l-1-29q-1-23-11-33-11-10-66-15-59-6-59-23l2-14q0-25-1.5-43t-3.5-31q-3-26-73-26-26 0-40.5 2.5t-18.5 4.5q-9 8-17 70-6 57-23 57-66 0-85 6-19 3-26 18-7 14-7 72a81.5 81.5 0 0 1 3 21.5 49.55 49.55 0 0 0 3.5 19q3.5 8.5 15.5 13.5t41 5h52q22 0 22 23v33q0 58 15 68 14 10 82 10 33 0 48-14 10-6 10-48v-34q0-30 4-31zm1633 669v16q0 105-61 183-60 76-155 76-114 0-232-132-108-119-158-154-49-36-124-59a683.79 683.79 0 0 0 -81-20.5q-44-8.51-98.5-14.5t-122-9q-67.5-3-151.5-3-109 0-191.5 5.5t-139.5 16.5q-57 11-102.5 25.5t-79.5 34.5q-67 39-190 178-117 132-235 132-96 0-155-77-60-78-60-182 0-61 16-134.5t49-162.5q34-89 69-169.5t70-155.5l108-237q25-54 52-92t49.5-65q22.5-27 37.5-45.5t15-35.5l-5-59q2-63 61-93 168-81 319-81 24 0 35 10.5t18 39.5q5 21 15.5 29t38.5 6l210-11 238 13q21 1 32-5a41.37 41.37 0 0 0 16.5-15.5 82.55 82.55 0 0 0 8.5-21.5 131 131 0 0 1 7.5-22 39.26 39.26 0 0 1 14-16.5q9.5-6.5 28.5-6.5a527.58 527.58 0 0 1 97.5 9.5 957.67 957.67 0 0 1 105.5 26.5q109 35 143 63 34 27 34 72l-5 61q0 19 18 38 36 40 78.5 112.5t93.5 178.5q51 106 97 214t88 220q83 222 83 319z"/></svg>