<svg viewBox="0 0 2054 2132" xmlns="http://www.w3.org/2000/svg"><path d="m1558 232q-91 0-152 61-62 60-62 151 0 148 113 261 111 113 253 113 65 0 106-38.5t55-100.5q-47-174-98-271-52-96-124-157a227.25 227.25 0 0 0 -91-19zm379 878-7-125q-87 10-151 91-61 76-61 177a297 297 0 0 0 7.5 66 288 288 0 0 0 22.5 63.5 277.32 277.32 0 0 0 38 57.5 244.35 244.35 0 0 0 54 47q48-68 76-162t21-215zm-1376-878q0 68 93 114 91 48 212 48 116 0 195-56 80-56 80-157a130.27 130.27 0 0 0 -14-59q-11 0-49.5 3.5t-105.5 10.5q-133 13-235.5 37t-175.5 59zm575 855q33 0 33 64 0 20-1.5 40.5t-3.5 42.5q-3 22-7 55t-10 79q-11 92-24 130 185 82 302 82 115 0 115-79 0-154-300-436-298-283-607-360-87-22-127-22-55 0-88.5 31.5t-33.5 82.5q0 128 228 358 115-96 147-153 46-88 89-88 26 0 26 28 0 40-49 121t-170 185q-120 103-289 185-56 26-99 59.5t-72 70q-29 36.49-44.5 75t-15.5 75.5q0 47 19 85a184.69 184.69 0 0 0 53.5 64.5q34.5 26.5 82.5 40.5t106 14a490.07 490.07 0 0 0 147-22.5q72-22.5 139.5-64.5t129-102.5q61.5-60.5 114.5-137.5 38-67 66.5-125.5t48.5-109.5q20-53 36-111.5t28-125.5a34.87 34.87 0 0 1 10-21.5q9-9.5 21-9.5zm918 23q0 152-36.5 270.5t-107 199.5q-70.5 81-174 123.5t-237.5 42.5q-200 0-428-90-61 133-127 214a762.84 762.84 0 0 1 -147 139q-81 58-170.5 90.5a533.63 533.63 0 0 1 -183.5 32.5q-192 0-318-104-125-105-125-270 0-131 89-253 87-121 228-179 38-16 72-33t66-34a902.41 902.41 0 0 1 -109-137q-48-74-86-161-76-174-76-341 0-137 48-237a504.92 504.92 0 0 1 133-171q86-71 220-117 69-24 151-42t180-29q98-11 175.5-17.5t137.5-6.5q172 0 293.5 42.5t210.5 124.5q88 82 148 194 29 57 58 141.5t58 199.5q28 114 42.5 215t14.5 193z"/></svg>