<svg viewBox="0 0 1430 2347" xmlns="http://www.w3.org/2000/svg"><path d="m1196 1539q15 0 27.5 10t12.5 27q0 26-21 48t-74 55q-11 7-21.5 14.5a146.58 146.58 0 0 0 -18.5 15.5q-30 32-52 32-15 0-21.5-12t-6.5-23q0-35 72-101t103-66zm-3 448q0 30-30 30-22 0-67-38-47-39-81-39-24 0-46.5 16.5a488.25 488.25 0 0 0 -43.5 36q-21 19.5-41.5 35.5t-41.5 16q-31 0-31-23 0-17 11-34 7-11 66-77 63-69 125-75 57 0 119 59 61 58 61 93zm-8-530q0 24-30 24-14 0-31.5-9t-41.5-26q-23-17-41.5-24.5t-29.5-7.5a84.77 84.77 0 0 0 -43.5 12 344.85 344.85 0 0 0 -39.5 27q-19 15-37 27t-36 12q-12 0-23.5-7.5t-11.5-23.5q0-14 12-31.5t34-40.5l19-21q32-34 59-51.5t53-17.5a92.6 92.6 0 0 1 20 2 125.94 125.94 0 0 1 17 5q10 3 25 14t38 29q45 36 66.5 63.5t21.5 44.5zm-750 284q-20 0-52-32l-39-29q-51-29-73.5-53.5t-22.5-50.5q0-20 13.5-28.5a52.61 52.61 0 0 1 28.5-8.5q31 0 103 66 71 65 71 103 0 12-9 22.5t-20 10.5zm266 280q0 23-32 23-21 0-41.5-16t-41.5-35.5a534.19 534.19 0 0 0 -43-36q-22-16.5-46-16.5-28 0-74 39-47 38-71 38-33 0-33-27 0-39 63-98t118-57q25 1 56.5 20t78.5 69q23 26 37 42.5t19 24.5q10 14 10 30zm-374-564q0-27 44-69 11-11 27-25.5t37-30.5q43-33 80-33 34 0 61 22.5t51 46.5l19 20q46 46 46 71 0 15-10.5 24t-26.5 9l-17-5-34-21q-38-24-63-38t-40-14q-22 0-67 32-49 35-77 35l-11-2q-19-6-19-22zm636 267 2 10q0 24-30 24-24 0-44.5-16.5t-40.5-36q-20-19.5-40.5-36t-44.5-16.5q-49 0-94 51-51 54-87 54-30 0-30-24 0-18 18-41.5t53-65.5q36-42 73.5-62t63.5-16q26 0 56.5 17.5t58.5 46.5q14 15 28.5 31t29.5 34q28 34 28 46zm323-59a895.63 895.63 0 0 0 -12-146.5 818.72 818.72 0 0 0 -38-144.5q-52-144-144-248-173 82-363 82-180 0-325-91-101 89-159 240a895.76 895.76 0 0 0 -43 158 955.88 955.88 0 0 0 -14 165q0 161 65 288a455.36 455.36 0 0 0 83.5 113 492.75 492.75 0 0 0 115 84.5q64.5 34.5 141 52.5t161.5 18q120 0 224-39.5t173-112.5a418.18 418.18 0 0 0 59.5-84 569.93 569.93 0 0 0 42.5-101 679.89 679.89 0 0 0 25-113 900.26 900.26 0 0 0 8-121zm-61-1120 145-7q60-3 60 26 0 24-47 52-12 8-39.5 32t-57 55.5a834.61 834.61 0 0 0 -55 65q-25.5 33.5-35.5 58.5 0 14 18 13l30-1q62-3 92.5 6.5t30.5 26.5q0 9-9 18t-17 16a791.44 791.44 0 0 0 -76 81 527.53 527.53 0 0 1 -80 79 745 745 0 0 1 86.5 120q38.51 66 66.5 146 58 160 58 333 0 104-19.5 194.5t-57.5 168.5q-38 77-94.5 136.5a539.85 539.85 0 0 1 -129 100q-72.5 40.5-159 61.5t-182.5 21q-200 0-356-84t-238-238q-82-155-82-347a1032.69 1032.69 0 0 1 14-170 942.48 942.48 0 0 1 42.5-163.5 894.62 894.62 0 0 1 71.5-152.5 834 834 0 0 1 101-137 740.35 740.35 0 0 0 -88.5-51 471.92 471.92 0 0 0 -85.5-32q-19-5-19-17 0-20 21.5-28.5a267.25 267.25 0 0 1 47-13.5q25.5-5 47-10.5t21.5-19.5q0-8-6.5-17a175.73 175.73 0 0 0 -14.5-17.5q-8-8.5-16.5-16t-12.5-11.5q-31-21-76.5-41.5t-107.5-40.5q-17-5-17-18 0-28 52-46a312.16 312.16 0 0 1 56.5-15 316.33 316.33 0 0 1 62.5-4l100 2q15 2 15-21 0-31-19-63-17-29-47-61-29-29-120-95l-23-13q-69-26-69-46t77-40q80-20 120-20a747.24 747.24 0 0 1 90 5 373 373 0 0 1 76 17l20 4q24 0 30.5-3.5t6.5-18.5q0-26-19-74-19-52-96-175a42 42 0 0 1 -6-22q0-30 38-30l11 1q103 13 181 50t135 91q20 14 34 14 23 0 45-22 69-68 154-102t191-34q45 0 45 18l-15 26a420.64 420.64 0 0 0 -44 104 1014.56 1014.56 0 0 0 -24 114q0 16 12 16l29-9q89-46 231-46 42 0 67 3.5t25 20.5q0 11-70 72-59 51-97 98.5t-52 95.5l-6 18q0 16 28 14z"/></svg>