<svg xmlns="http://www.w3.org/2000/svg" viewBox="0 0 2388 2047"><title>u1F385</title><g id="Layer_2" data-name="Layer 2"><g id="Layer_1-2" data-name="Layer 1"><path id="u1F385" d="M920,1166q-34,0-57.5-23T839,1087q0-34,23.5-57.5T920,1006a73.79,73.79,0,0,1,30.5,6.5,78.56,78.56,0,0,1,25,17.5,89.6,89.6,0,0,1,17,25.5A76.19,76.19,0,0,1,999,1087q0,33-23.5,56T920,1166ZM665,1439a94.17,94.17,0,0,0,13,12.5,202.54,202.54,0,0,1,15.5,14,111,111,0,0,1,13,15.5,31,31,0,0,1,5.5,18q0,17-10.5,22a54,54,0,0,1-23.5,5,158.6,158.6,0,0,1-58-10.5,205.08,205.08,0,0,1-49-27,284.66,284.66,0,0,1-39-35Q515,1435,505,1418a101.58,101.58,0,0,1-7.5-13.5,95,95,0,0,0-8-14A39.41,39.41,0,0,0,479,1380q-6-4-16-4a92.34,92.34,0,0,0-21.5,2.5A84.35,84.35,0,0,1,422,1381a339,339,0,0,1-45.5-3.5,253.85,253.85,0,0,1-47.5-11q-22-7.5-37-20T277,1316a31.93,31.93,0,0,1,9.5-23.5Q296,1283,316,1283q16,0,31,1t31,1a250.62,250.62,0,0,0,37-3q20-3,39-6.5t34.5-6.5q15.5-3,24.5-3,22,0,36,9.5a84.78,84.78,0,0,1,23.5,24,150,150,0,0,1,15.5,31,288.25,288.25,0,0,0,13,30.5,186.4,186.4,0,0,0,27.5,42A338.68,338.68,0,0,0,665,1439ZM2118,522a144,144,0,0,0,60.5-13,160.84,160.84,0,0,0,50-35.5,171.21,171.21,0,0,0,34-52A161.12,161.12,0,0,0,2275,358a131,131,0,0,0-11.5-54.5A133.48,133.48,0,0,0,2231,259q-21-19-51-30t-67-11a180.9,180.9,0,0,0-57.5,9.5,153.39,153.39,0,0,0-51,28.5q-22.5,19-37,47.5T1953,370q0,36,14,64.5a143.93,143.93,0,0,0,37.5,48,165.44,165.44,0,0,0,53,29.5A187.13,187.13,0,0,0,2118,522Zm-419,799q29-20,42-55t13-69q0-54-25-104a717.69,717.69,0,0,0-57-95,1423,1423,0,0,0-160.5-186.5A1156.47,1156.47,0,0,0,1318,659q-51-31-102.5-63T1110,536.5q-54-27.5-110.5-50A829.13,829.13,0,0,0,884,450q-52-12-115.5-25.5A606.83,606.83,0,0,0,642,411a335.65,335.65,0,0,0-71.5,7.5A215,215,0,0,0,507,443q-42,25-67,71.5T415,610q0,32,11,41t31,9a227.47,227.47,0,0,0,49-5.5,223.21,223.21,0,0,1,48-5.5,533.73,533.73,0,0,1,162,25,1049.56,1049.56,0,0,1,153,62q78,38,155,79.5t149.5,90A1417.62,1417.62,0,0,1,1312,1011a910.77,910.77,0,0,1,121,127q29,38,57.5,81t66.5,71q22,15,47,29a106.87,106.87,0,0,0,53,14Q1676,1333,1699,1321Zm-229,216a190.91,190.91,0,0,0,20-24,266.62,266.62,0,0,0,18.5-30,167.84,167.84,0,0,0,13.5-34,134.11,134.11,0,0,0,5-36q0-10-6-21a80.83,80.83,0,0,0-15.5-20,82.8,82.8,0,0,0-22.5-15,63.75,63.75,0,0,0-27-6,45.48,45.48,0,0,0-34,14.5,131.33,131.33,0,0,0-23.5,34A333.32,333.32,0,0,0,1382,1440q-7,21-12,34a237.55,237.55,0,0,0-9.5,28.5,126.78,126.78,0,0,0-4.5,33.5,69.48,69.48,0,0,0,6.5,30.5Q1369,1580,1389,1580t42.5-13.5A198.53,198.53,0,0,0,1470,1537Zm-215,4,10-54s4.33-17.67,13-53,15.5-51.83,20.5-49.5,15.83-12.5,32.5-44.5a211.65,211.65,0,0,0,29-36.5q13-20.51,13-42.5,0-14-10-28t-21-27q-3-5-14-18.5t-24.5-27.5a307.59,307.59,0,0,0-27-25q-13.5-11-22.5-11-11,0-16,10a88.77,88.77,0,0,0-7.5,23.5,249.33,249.33,0,0,0-3.5,27q-1,13.5-2,21.5a556.41,556.41,0,0,1-20.5,90q-13.5,42-38.5,73t-63.5,49q-38.51,18-95.5,18a278.83,278.83,0,0,1-75.5-10.5A696,696,0,0,1,855,1399q-25-10-46.5-31T766,1325.5a333,333,0,0,0-44-38,97.83,97.83,0,0,0-51-18.5q-16-1-43-1t-57.5-2q-30.5-2-62-7t-57-16q-25.5-11-41.5-29t-16-46a63,63,0,0,1,3-20q3-9,7-23-53-4-87.5-20.5T259,1054q-29,50-53.5,99.5A870.92,870.92,0,0,0,163,1255a725.83,725.83,0,0,0-28,106.5A633.36,633.36,0,0,0,125,1476a738.36,738.36,0,0,0,7,99.5A673.32,673.32,0,0,0,153.5,1676a494.74,494.74,0,0,0,38,93,341.58,341.58,0,0,0,56,77.5,247.4,247.4,0,0,0,75,53Q365,1919,419,1919a73.84,73.84,0,0,0,9-.5q4-.49,9-1.5,78-5,158.5-6t161-7A1249.82,1249.82,0,0,0,915,1882a632.83,632.83,0,0,0,150-51q51-25,84-56.5t54-68a333.11,333.11,0,0,0,32.5-78.5Q1247,1586,1255,1541ZM364,889a345.94,345.94,0,0,0-20.5,36.5A89.41,89.41,0,0,0,334,965q0,22,20.5,36.5T425,1016q23,0,34.5-13.5A335.39,335.39,0,0,1,486,975a75.55,75.55,0,0,1-35.5-26Q437,931,437,907q0-30,21-51t50-21q32,0,52,21t20,51q0,9-1,12a291.86,291.86,0,0,0,29-8.5,100.76,100.76,0,0,1,33-5.5q28,0,28,22,0,9-4,14-17,24-45,41t-54,34.5a210.34,210.34,0,0,0-45,40.5q-19,23-19,59,0,15,6.5,24.5a42.2,42.2,0,0,0,17,14.5,84.1,84.1,0,0,0,23.5,7,177.9,177.9,0,0,0,27,2,326.57,326.57,0,0,0,36-2,317.83,317.83,0,0,1,35-2,440.41,440.41,0,0,1,66,5,172.67,172.67,0,0,1,62,22q28,17,44.5,40a499.46,499.46,0,0,0,35.5,44q19,21,49.5,35.5T992,1321q26,0,46-8.5t35.5-27q15.49-18.49,27.5-49t23-74.5q3-10,8-24.5t10-30a321.15,321.15,0,0,0,8.5-32,148,148,0,0,0,3.5-30.5q0-32-20-47-23-17-51-35t-57-33q-56-29-112.5-61T798,810.5a884.64,884.64,0,0,0-120.5-44A456.21,456.21,0,0,0,552,749a307.71,307.71,0,0,0-66,7q-32,7-53,27-22,20-37,50.5A459.2,459.2,0,0,1,364,889ZM2085,99q69,0,125,16.5t95.5,51q39.49,34.5,61,87T2388,378q0,55-20.5,102.5a245.18,245.18,0,0,1-57,82Q2274,597,2223,617t-112,20a337,337,0,0,1-80-9.5,261,261,0,0,1-72.5-29.5,267.72,267.72,0,0,1-60.5-49.5q-27-29.5-43-70.5a237.45,237.45,0,0,0-30.5,61,441.68,441.68,0,0,0-17.5,71,696.42,696.42,0,0,0-8,75q-2,38-2,74,0,54,3,107.5t3,108.5q0,17,.5,37t8.5,35q6,19,13,40t13,42.5q6,21.49,9.5,41.5a211.16,211.16,0,0,1,3.5,36,351.45,351.45,0,0,1-8.5,77,261,261,0,0,1-27,71q-18.49,33-49.5,59t-76,40a145.18,145.18,0,0,1-15.5,4q-9.49,2-19,4.5a120.33,120.33,0,0,0-17.5,6q-8,3.49-11,9.5a93.72,93.72,0,0,0-11.5,28q-3.49,15-7.5,28a160,160,0,0,1-18.5,37,267.51,267.51,0,0,1-29,36.5A327.71,327.71,0,0,1,1525,1640a199.48,199.48,0,0,1-38,24,141.82,141.82,0,0,1-56,16,177.19,177.19,0,0,0-54,12q-20,8-28,23.5a230.21,230.21,0,0,1-19,30.5,834.4,834.4,0,0,1-109,124,385.33,385.33,0,0,1-140,84,1296.07,1296.07,0,0,1-205.5,52.5A1737.79,1737.79,0,0,1,665,2030q-53,2-119,9.5a1168.16,1168.16,0,0,1-132,7.5,572.37,572.37,0,0,1-73-4.5q-35-4.5-63-15.5a329.11,329.11,0,0,1-93-56.5,404.81,404.81,0,0,1-71.5-81,559.24,559.24,0,0,1-52.5-99,742.1,742.1,0,0,1-35.5-110A888,888,0,0,1,6,1567a1060.39,1060.39,0,0,1-6-111q0-40,3-75a541.81,541.81,0,0,1,31.5-143.5,948.05,948.05,0,0,1,62-135,1428.81,1428.81,0,0,1,79-126Q218,916,259,860q8-11,18.5-24T298,809.5a167.39,167.39,0,0,0,16.5-27A60.83,60.83,0,0,0,321,756q0-20-9-34.5A215,215,0,0,1,296,690a132.74,132.74,0,0,1-11-36,249.78,249.78,0,0,1-3-39q0-67,25.5-118A287.29,287.29,0,0,1,375,409a337.32,337.32,0,0,1,95.5-59A456.6,456.6,0,0,1,580,320q21-2,40.5-4.5A309.74,309.74,0,0,1,660,313q28,0,65-18.5T805,250q43-26,88.5-54A703.15,703.15,0,0,1,983,149q69-30,139-57t141.5-47.5a1265,1265,0,0,1,145-32.5A920.09,920.09,0,0,1,1557,0a982,982,0,0,1,233,27.5A825.46,825.46,0,0,1,2006,114a305.15,305.15,0,0,1,39.5-11A195.85,195.85,0,0,1,2085,99Z"/></g></g></svg>