<svg viewBox="0 0 2056 1902" xmlns="http://www.w3.org/2000/svg"><path d="m1338 965a158.64 158.64 0 0 1 35.5 4q17.51 4 35 8.5t35.5 8a193.66 193.66 0 0 0 37 3.5q37 0 37-24 0-18-35.5-49t-122.5-65l-56-12q-7-5-7-11 0-9 13.5-14.5t29.5-11.5a218.85 218.85 0 0 0 29.5-13.5q13.5-7.5 13.5-19.5 0-22-28.5-37t-74.5-15l-61 7q-28 0-28-15 0-9 6-19.5a158.79 158.79 0 0 1 15.5-22 156.34 156.34 0 0 1 22.5-22 176.94 176.94 0 0 1 28-18.5q10-6 20.5-12.5a140.94 140.94 0 0 0 19.5-14.5 82 82 0 0 0 15-17.5 39.4 39.4 0 0 0 6-21.5q0-15-18.5-26t-44.5-11q-28 0-51.5 9.5t-44.5 9.5q-23 0-23-27l8-64q0-36-31-36-23 0-42 8.5a136.11 136.11 0 0 0 -33.5 21 124.6 124.6 0 0 0 -24.5 28.5 196.51 196.51 0 0 0 -16 31q-6 14-18 14-17 0-19.5-14.5t-4-31.5a97.48 97.48 0 0 0 -8-31.5q-6.5-14.5-30.5-14.5-15 0-30.5 9.5t-15.5 30.5q111 122 157.5 215.5t46.5 170.5q0 66-44 107.5t-122 41.5q-28 0-50.5-6a108.29 108.29 0 0 1 -40.5-20.5q-18-14.5-31.5-38.5t-23.5-59q0-9-3-23t-11-31l-27-67q-15-37-40-80t-63-91q-29 6-29 33 0 12 18 37 17 26 17 38 0 22-7.5 28t-35.5 6a47 47 0 0 0 -15.5 3 71.91 71.91 0 0 0 -16 8 51.84 51.84 0 0 0 -12.5 11.5 23.22 23.22 0 0 0 -5 14.5q0 13 46 34l16 7q42 20 42 34 0 17-22 17l-15-2q-75 0-123 16t-48 44q0 15 15 17.5a201 201 0 0 0 33 2.5 145.46 145.46 0 0 1 33 3.5q15 3.5 15 19.5 0 11-10 19.5t-22.5 18.5a126.05 126.05 0 0 0 -22.5 23.5q-10 13.5-10 34.5 0 24 44 24a82.47 82.47 0 0 0 25-3.5 195.62 195.62 0 0 0 21-8q10-4.5 19-8.5a46.2 46.2 0 0 1 19-4q24 0 24 20 0 14-8 31t-8 28q0 17 13 32.5t33 15.5q26 0 61-38 34-39 54-39 15 0 15 10l-2 12q-36 77-36 112a79.78 79.78 0 0 0 3 21 85.61 85.61 0 0 0 8.5 20.5 51.11 51.11 0 0 0 13.5 15.5 30.77 30.77 0 0 0 19 6q28 0 46-41 20-41 41-41 26 0 66 82 8 17 27.5 32.5t39.5 15.5q19 0 27.5-18t8.5-35a138.4 138.4 0 0 0 -6.5-41 138.4 138.4 0 0 1 -6.5-41q0-25 18-25 16 0 43 21 25 20 45 20 26 0 26-41 0-72-41-107-10-7-10-19 0-19 45-19 56 0 112 21l24 12q69 37 98 37 23 0 23-22t-14.5-36.5a225.07 225.07 0 0 0 -32-26.5q-17.51-12-32-24t-14.5-29q0-11 21-11zm-891-796q-63 0-63 64 0 27 32 50-15 27-15 44 0 79 67 86l33 4q7 36 30 54t53 18l25-4 17-5 10 2q17 13 74 85a507.06 507.06 0 0 1 50.5 74 720.47 720.47 0 0 1 41.5 88q18 48 30 83t17 58q12 54 66 54 88 0 88-73 0-31-11.5-72.5t-40-92q-28.5-50.5-75.5-108t-118-121.5l-14-12q-34-31-34-44l4-11q3-8 5-15a54.54 54.54 0 0 0 2-15 94.8 94.8 0 0 0 -7-35.5 110.21 110.21 0 0 0 -18-30.5 85.6 85.6 0 0 0 -25-20.5 52.89 52.89 0 0 0 -29-6.5l-20 1q0-40-25-65t-61-25l-34 7-8-3q-14-13-47-13zm1609 901q0 45-10.5 84.5a288.94 288.94 0 0 1 -29.5 72 234.07 234.07 0 0 1 -45 56 183.13 183.13 0 0 1 -57 35.5l-86 34q-15 6-29 26-29 39-82 75-51 33-92 33-33 0-60.5-6t-48.5-20q-34-22-50-23a66.81 66.81 0 0 0 11 37q17 25 17 65 0 54-28.5 103.5a206 206 0 0 1 -77.5 77.5q-17 10-28 18t-14 16q-26 63-42 81-20 18-50 34-29 16-65.5 24.5a322.81 322.81 0 0 1 -73.5 8.5 282.59 282.59 0 0 1 -76-10 143.19 143.19 0 0 1 -62-35l-43-40-52 4a118.14 118.14 0 0 1 -52-8q-26-10-52-30a234 234 0 0 1 -43-42q-18-23-29-54.5t-16.5-73q-5.5-41.5-5.5-97.5 0-19-8-19-19 0-36 42a155.71 155.71 0 0 1 -31 47 182.57 182.57 0 0 1 -46 35 237.42 237.42 0 0 1 -57 21.5 267 267 0 0 1 -63 7.5 264.25 264.25 0 0 1 -184.5-75 202.45 202.45 0 0 1 -38.5-52l-83-17q-75-24-106-75t-31-128q0-71 30-122l8-25-1-9a207.72 207.72 0 0 1 -11-66q0-71 41-138 20-33 46.5-55.5a236.13 236.13 0 0 1 58.5-36.5l33-8q22-6 22-12 0-13-48-39l-12-7a142.47 142.47 0 0 1 -34.5-48q-12.5-28-12.5-53 0-64 50-120 8-9 10.5-17a53.28 53.28 0 0 0 2.5-16l-5-26q-33-73-33-118 0-61 48-115 50-56 116-69 31-114 138-114 28 0 63 12l14-1h12q50 0 89.5 26t59.5 71q53 10 92 77l1-17q15-52 39.5-95t56.5-74.5a242 242 0 0 1 71-49 198 198 0 0 1 82-17.5 192.72 192.72 0 0 1 55 8 192.72 192.72 0 0 0 55 8 96.21 96.21 0 0 0 29.5-5 349.27 349.27 0 0 0 35.5-14q39-18 73-18 65 0 110.5 29t75.5 88q21 39 63 58l40 18q112 51 112 156 0 87-92 177a173.44 173.44 0 0 1 -24 20q-13 9-13 26 0 4 25 4 11 0 27-6t36-6q29 0 65 6.5t78 17.5q86 24 145 92 61 69 61 134l-7 54q0 25 9 31 27 20 48 70 22 50 22 101z"/></svg>