<svg viewBox="0 0 2210 2184" xmlns="http://www.w3.org/2000/svg"><path d="m777 1528q0 16-13 29.5t-24 24.5l-268 275-250 260q-31 32-59.5 49.5t-60.5 17.5q-46 0-74-30.5t-28-75.5q0-37 24-58l216-199 297-275q31-29 60.5-56t59.5-51q10-12 22-12 11 0 15.5 7.5a75.64 75.64 0 0 0 11.5 14.5l62 60q9 5 9 19zm591-1528q220 0 416 107 197 107 311 293 115 188 115 409 0 210-108 399-54 94-126.5 165a719.11 719.11 0 0 1 -161 119q-88.5 48-191.5 72.5t-218 24.5a968.59 968.59 0 0 1 -224.5-26q-109.5-26-218.5-77-108-51-191-117.5t-138.5-143.5q-55.5-77-84-163a559 559 0 0 1 -28.5-177 268.53 268.53 0 0 1 4.5-50.5q4.5-23.5 12.5-41t18.5-28q10.5-10.5 22.5-10.5 25 0 32 43l3 14q25 122 97.5 219.5t177.5 175.5q210 156 458 156 166 0 310-74 147-76 229-202 85-128 85-277 0-144-82-290-81-143-216-230-134-86-280-86-109 0-195 28t-146 82q-60 54-92.5 133t-33.5 181a406.19 406.19 0 0 0 29 156.5q30 75.5 82.5 133.5a408.7 408.7 0 0 0 123.5 93q71 35 151 33 113-2 193-68 80-68 80-171 0-85-60-153-59-69-131-69-64 0-64 45 0 19 10.5 30a116.66 116.66 0 0 0 26 20q15.49 9 34 17.5a161.24 161.24 0 0 1 34 21 105.26 105.26 0 0 1 26 31.5q10.5 19 10.5 49 0 58-55 97-54 38-129 38-106 0-182-92-74-92-74-210 0-146 96-238 97-93 256-93 115 0 228 69 112 69 182 184 68 112 70 232 2 110-43 199a460.68 460.68 0 0 1 -122 151.5q-77 62.51-179 96t-214 32.5q-84-1-161-21.5t-149-64.5q-147-88-230-240-84-151-84-322 0-173 92-314 91-141 252-221 156-80 344-80z"/></svg>