<svg viewBox="0 0 1878 1777" xmlns="http://www.w3.org/2000/svg"><path d="m1570 369a46.31 46.31 0 0 0 26.5-8.5q12.5-8.5 12.5-28.5 0-32-36-68-34-34-66-34-13 0-25.5 8t-12.5 22a28 28 0 0 0 4 14l34 50q31 45 63 45zm-150 36q14 0 25.5-10t11.5-27q0-32-36-68-34-35-65-35-13 0-25 8.5t-12 20.5q0 13 16 32l15 23q37 56 70 56zm-182 35q14 0 25.5-10a31.76 31.76 0 0 0 11.5-25q0-29-34-66-35-37-67-37-10 0-24.5 7t-14.5 22q0 6 4 14l37 53q34 47 62 42zm-159 1239q29 0 40.5-6t11.5-34a303.51 303.51 0 0 0 -3-39.5 380.88 380.88 0 0 0 -10-48.5 785.06 785.06 0 0 1 -12-78.5q-4-39.49-8-79.5l-20-260a682.24 682.24 0 0 0 -9-73.5q-6-32.51-20-56.5-57-105-57-163a96.17 96.17 0 0 1 14.5-51.5q14.5-23.5 52.5-55.5 14-12 24-21.5a79.67 79.67 0 0 0 16-21 100.36 100.36 0 0 0 9-25.5q3-14 3-34 0-77-86-165-88-88-224-134t-296-46q-170 0-290 76-118 76-118 192 0 58 45 100 47 42 67.5 75t20.5 70q0 46-14 78-14 34-24.5 63.5a434.22 434.22 0 0 0 -15.5 52.5q-5 24-11 69t-13 112q-7 66-11 119t-6.5 96.5q-2.5 43.5-3 79t-.5 66.5q0 71 6 81l448 34q158 12 280.5 20.5t213.5 8.5zm799-229q0 57-29.5 92.5t-82.5 42.5l-616 180q-3 3-12.5 5t-20.5 4a163.63 163.63 0 0 1 -21.5 2.5q-10.5.49-16.5.5l-52-3q-113-6-224-11.5t-222-14.5l-442-34q-50-4-78-39t-28-98q0-85 4-177t13-195q7-71 15-147t36-154q30-84 30-105 0-28-31-52-50-38-75-82.5t-25-110.5q0-101 70-189 69-88 183-137 140-59 267.5-101.5t245.5-70.5q238-56 387-56 185 0 338 53 76 27 140.5 67a681.41 681.41 0 0 1 118.5 93q108 108 108 225a276.44 276.44 0 0 1 -4 46.5 376.3 376.3 0 0 1 -11 46.5q-15 43-91 106l-13 16q0 23 28 76 29 55 43 106.5a458.21 458.21 0 0 1 16 102.5l4 99 15 172q4 44 10 86.5t15 86.5a328.32 328.32 0 0 1 6.5 40q1.5 17 1.5 28z"/></svg>