<svg viewBox="0 0 2040 1887" xmlns="http://www.w3.org/2000/svg"><path d="m1010 1200q127 0 223-85 95-85 95-217 0-135-99-225-101-90-244-90-130 0-219 89t-89 226q0 132 97 217 98 85 236 85zm1030-55q0 107-74 186-74 78-186 78a290.81 290.81 0 0 1 -73.5-9.5 466.54 466.54 0 0 1 -71.5-25 618.65 618.65 0 0 1 -69-36q-34-20.51-67-42.5l-8-2q-8 0-8 7l6 18a461.38 461.38 0 0 1 24 58.5q11 32.51 21 70.5 9 38 14 69.5a369.79 369.79 0 0 1 5 57.5q0 130-85 221-84 91-217 91-122 0-195-63a482.08 482.08 0 0 1 -68-72.5 490.52 490.52 0 0 1 -50.5-81.5 421.2 421.2 0 0 1 -31-85 353.48 353.48 0 0 1 -10.5-84q0-22-8-33-7 0-16 12-35 82-76 139.5t-88 94q-47 36.49-100.5 53t-113.5 16.5q-128 0-212-84-83-83-83-219 0-198 203-368 15-12 15-26 0-11-10.5-13.5t-27.5-5.5l-93 6q-73 4-127-15.5t-89-55.5q-70-71-70-174 0-120 103-216a370.71 370.71 0 0 1 119-75.5q67-26.5 148-20.5l114 8q25-1 25-19l-5-20q-58-85-58-206 0-114 86-197 88-82 211-82 227 0 345 296 12 30 24 30 10 0 24-14 140-209 365-209 142 0 245 83 102 86 102 211 0 153-191 275-9 6-14 10t-5 9q0 12 28 18a424.65 424.65 0 0 1 103 36.5 515.44 515.44 0 0 1 93 61.5q89 75 133.5 161.5t44.5 176.5z"/></svg>