<svg viewBox="0 0 1766 1764" xmlns="http://www.w3.org/2000/svg"><path d="m414 1142q18 7 18 22 0 17-14.5 31.5t-30.5 14.5q-9 0-12.5-7a35.36 35.36 0 0 1 -3.5-16q0-15 8.5-30.5t25.5-15.5q8 0 9 1zm809 37a132.32 132.32 0 0 1 25 26 147.29 147.29 0 0 1 18 32.5 195.87 195.87 0 0 1 10.5 35.5 178.7 178.7 0 0 1 3.5 34q0 53-28.5 86t-76.5 33q-10 0-25-1.5a293.11 293.11 0 0 1 -31.5-5 301.9 301.9 0 0 1 -33-9 152.14 152.14 0 0 1 -28.5-12.5 319.46 319.46 0 0 0 -30-17.5q-13-6.49-38-6.5a195.48 195.48 0 0 0 -20.5 1 185.21 185.21 0 0 1 -19.5 1 189.73 189.73 0 0 1 -33-3 109.63 109.63 0 0 1 -31.5-10.5 65.49 65.49 0 0 1 -23.5-20q-9-12.49-9-32.5 0-17 5-28a79.42 79.42 0 0 1 13-20 110.57 110.57 0 0 1 18.5-16.5 235.6 235.6 0 0 0 21.5-17.5q11-10 25-21a349.6 349.6 0 0 1 29-20.5 283.58 283.58 0 0 1 28.5-16q13.5-6.49 22.5-6.5a27.89 27.89 0 0 1 19 7q8 7 23 16l7 6q16 12 41 12 16 0 28-5.5a140 140 0 0 0 22-12.5 218.75 218.75 0 0 1 20-12.5 44.87 44.87 0 0 1 22-5.5q13 0 26 10zm-107-162q9-5 29-5a73.71 73.71 0 0 1 32.5 7.5q15.5 7.5 15.5 23.5 0 24-32 24-23 0-40-12.5t-17-26.5q0-4 2.5-5.5t9.5-5.5zm-130 72q-6 0-18.5-.5a170.41 170.41 0 0 1 -25.5-3 113.4 113.4 0 0 1 -22.5-6.5q-9.5-4-9.5-11 0-15 17-23a85.84 85.84 0 0 1 37-8h24q11 0 21.5-1t21.5-1a134.65 134.65 0 0 1 20 1.5 66.18 66.18 0 0 1 18.5 5.5 40.83 40.83 0 0 1 14 10.5q5.51 6.49 5.5 16.5 0 16-10.5 22.5t-18.5 6.5a75.21 75.21 0 0 1 -16.5-1.5q-6.49-1.5-13.5-3t-17-3a191 191 0 0 0 -27-1.5zm28-314q-13 13-22 13-21 0-21-29 0-7 .5-16a92.39 92.39 0 0 1 3-18.5 90.55 90.55 0 0 1 6.5-17.5 26.22 26.22 0 0 1 12-12 36.42 36.42 0 0 1 16.5-4 120.6 120.6 0 0 0 16-1 36 36 0 0 0 13.5-4.5q6-3.5 9-15.5a123 123 0 0 0 4-12q1-4 5-11a170 170 0 0 1 22.5-24q12.49-11 12.5-27a23.7 23.7 0 0 0 -8.5-18.5q-8.5-7.5-8.5-16.5 0-10 8-18.5a97.32 97.32 0 0 1 18-15 125.81 125.81 0 0 1 19.5-10.5q9.49-4 12.5-4 8 0 15 6a62.35 62.35 0 0 1 12.5 15 78.49 78.49 0 0 1 8.5 19.5 74.42 74.42 0 0 1 3 20.5q0 11-3.5 16a16.22 16.22 0 0 1 -8 6.5 73.34 73.34 0 0 1 -10 2.5 17.6 17.6 0 0 0 -9.5 5q-9 9-9.5 25t-4.5 27a116.6 116.6 0 0 1 -12.5 24 77.06 77.06 0 0 1 -18.5 19q-8 4-9 3.5t-1 8.5a14.64 14.64 0 0 0 3 9 14.64 14.64 0 0 1 3 9q0 14-8.5 19a77.52 77.52 0 0 1 -20.5 8q-12 3-25.5 6a47.08 47.08 0 0 0 -23.5 13zm410 647q104-104 164-241.5t60-298.5q0-165-62-302.5a819.27 819.27 0 0 0 -169-244.5c-3.33.67-6.33 1.33-9 2a29.23 29.23 0 0 1 -7 1 114.88 114.88 0 0 1 -37.5-6q-17.51-6-34.5-13.5t-34.5-14a106.94 106.94 0 0 0 -37.5-6.5q-42 0-62 12.5t-30.5 30a237.52 237.52 0 0 0 -18 37 88.76 88.76 0 0 1 -22.5 33.5q-16 15-32.5 22.5a92.07 92.07 0 0 0 -29.5 21.5q-12 11-14.5 22.5a261.38 261.38 0 0 1 -7.5 26.5q-6 19-17.5 30.5a133.63 133.63 0 0 1 -24.5 19.5q-13 8-25.5 16a75.68 75.68 0 0 0 -21.5 21 164.79 164.79 0 0 0 -13 19.5 164.79 164.79 0 0 1 -13 19.5q-12 16-22 29t-10 37q0 20 3 31.5a61.05 61.05 0 0 0 9 20 88.05 88.05 0 0 0 14 15.5q8 7 19 16 14 12 23.5 32t9.5 35q0 26-16.5 51t-33.5 38a130.68 130.68 0 0 1 -13 9.5q-7 4.5-14 9.5a47 47 0 0 0 -11.5 11.5 23.38 23.38 0 0 0 -4.5 13.5 30.82 30.82 0 0 0 2 10.5 30.82 30.82 0 0 1 2 10.5 41.9 41.9 0 0 1 -8.5 25.5 75.6 75.6 0 0 1 -21.5 19.5 108.32 108.32 0 0 1 -27 12 92.05 92.05 0 0 1 -25 4q-6 0-14-.5a67.31 67.31 0 0 1 -16-3 35.61 35.61 0 0 1 -13.5-7.5q-5.5-5-5.5-15 0-8-1-11-11-19-29-22t-34-5a56.73 56.73 0 0 1 -27-11 162.21 162.21 0 0 1 -22.5-20.5q-10.5-11.5-20.5-23a109.87 109.87 0 0 0 -22-19.5 334.68 334.68 0 0 0 -54.5-28q-29.5-12-57.5-12-35 0-60.5 18t-43 47q-17.5 29-26 66.5a344.78 344.78 0 0 0 -8.5 76.5q0 11-1 26.5a165.94 165.94 0 0 1 -4.5 29.5 66.55 66.55 0 0 1 -11.5 24.5q-8 10.5-22 10.5-17 0-33.5-14.5t-31-36.5a317.12 317.12 0 0 1 -25.5-47q-11-25-18-45-8-24-9.5-56.5a556.08 556.08 0 0 0 -6-61q-4.5-28.5-18-48.5t-45.5-20a68.28 68.28 0 0 0 -1 13v16q0 105 27.5 202.5a783.7 783.7 0 0 0 77 182.5 757.28 757.28 0 0 0 119.5 155 768.56 768.56 0 0 0 337.5 197.5q97.5 27.5 202.5 27.5 161 0 298.5-59.5a778.7 778.7 0 0 0 243.5-165.5zm-542-1422q122 0 234.5 31.5a891 891 0 0 1 390 226.5 886.34 886.34 0 0 1 138.5 178q58 98 89.5 211t31.5 235q0 122-31.5 234.5a873.78 873.78 0 0 1 -89.5 210.5 899.14 899.14 0 0 1 -138.5 178.5 878 878 0 0 1 -179 138 895.8 895.8 0 0 1 -211 89q-112.5 31.5-234.5 31.5t-235-31.5q-113-31.5-211-89a871.87 871.87 0 0 1 -178-138 887.62 887.62 0 0 1 -226.5-389q-31.5-112.5-31.5-234.5t31.5-235q31.5-113 89-211a883.28 883.28 0 0 1 315.5-315.5q98-57.5 211-89t235-31.5z"/></svg>