<svg viewBox="0 0 2014 1710" xmlns="http://www.w3.org/2000/svg"><path d="m1750 969q-15-81-89-148-73-66-182-93a237 237 0 0 0 -24 30 137.48 137.48 0 0 0 -16 33 220.13 220.13 0 0 0 -9 41 423.39 423.39 0 0 0 -3 54l15-1h16a452.78 452.78 0 0 1 114 14.5 584.07 584.07 0 0 1 111 41.5q26 14 42.5 20t24.5 8zm-1356-843q0 22 60 70 31 24 59.5 47.5a632.75 632.75 0 0 1 53.5 49.5 416.64 416.64 0 0 1 45.5 56.5q20.5 30.5 37.5 69.5a570.2 570.2 0 0 1 63.5 27.5 666.51 666.51 0 0 1 58.5 33.5q20-26 45-54t56-58q-61-116-168-193-53-38-111.5-57.5t-124.5-19.5q-28 0-51.5 7.5t-23.5 20.5zm1069 1438q58 0 97-67 39-69 39-162 0-130-95-213a371.42 371.42 0 0 0 -108.5-66q-60.49-24-135.5-19l-63 4q81 48 137 137t74 223l5 41q8 60 18.5 91t31.5 31zm-1145-832 110-1q101-2 179.5 5t135.5 21a632.36 632.36 0 0 1 106.5 34 533.33 533.33 0 0 1 94.5 52q-9-29-25.5-62a560.38 560.38 0 0 0 -92.5-132 547 547 0 0 0 -65-59q-71-54-151.5-81.5t-162.5-29.5q-76-1-140 14t-110.5 41q-46.5 26-72.5 60t-25 69a42.58 42.58 0 0 0 5 21q24 23 77 36t137 12zm69 737q0 17-1 32a177.34 177.34 0 0 1 -4 28l27 24 32-48q61-94 121.5-184.5a1224.12 1224.12 0 0 1 135.5-168.5q28-30 47.5-53.5t31.5-43.5q12-20 17-36.5a115 115 0 0 0 5-33.5q0-80-70-119-35-20-98-29t-155-9q-57 83-88 190a782.91 782.91 0 0 0 -31 219q0 46 14 108 9 41 12.5 72t3.5 52zm1528-1258q0-46-67-76-68-30-162-30-88 0-193.5 29.5t-232.5 88.5q-126 59-228 137a1016.85 1016.85 0 0 0 -181 178 814.18 814.18 0 0 1 81.5 85.5 604.66 604.66 0 0 1 63.5 94 511.81 511.81 0 0 1 43 106q16 56.5 20 121.5l12 11 147-145q111-109 233-210.5t258-195.5q49-34 87.5-60.5t64.5-49q26-22.5 40-42.5t14-42zm-229-203q146 0 238 56 90 56 90 149 0 111-173 221-72 46-144 99t-146 113q121 41 208 134 89 92 89 191 0 41-22 69t-67 28q-41 0-139-50-29-15-66.5-23a582.65 582.65 0 0 0 -82.5-11 384.91 384.91 0 0 1 93.5 60.5 377.27 377.27 0 0 1 70.5 82.5 403.58 403.58 0 0 1 45 99 381.85 381.85 0 0 1 16 111 443.48 443.48 0 0 1 -16.5 120q-16.5 59-47 105t-73.5 74q-43 28-96 26-31-1-55-13.5a137.6 137.6 0 0 1 -41.5-33 162.41 162.41 0 0 1 -28-48 254.9 254.9 0 0 1 -14.5-58.5q-8-69-17.5-115.5t-17.5-72.5q-17-49-51.5-73.5t-74.5-24.5q-36 0-73.5 31.5t-90.5 99.5q-63 83-178 164-59 42-116.5 66.5a565 565 0 0 1 -114.5 35.5q-27 4-41 33-30 57-63 57-23 0-81-38-30-20-48-33.5t-26-21.5q-18-14-29.5-23a151.84 151.84 0 0 1 -17.5-15.5q-6-6.49-8-11a23.2 23.2 0 0 1 -2-9.5l4-20a220 220 0 0 0 11-70 368.14 368.14 0 0 0 -4.5-57.5q-4.5-28.5-10-57t-10-57.5a377.72 377.72 0 0 1 -4.5-58q0-216 103-409l-45 1q-162 5-240-41.5t-78-127.5q0-55 30.5-106t88-90q57.5-39 140.5-62t188-23q40 0 72 6a280.91 280.91 0 0 0 -39.5-43q-22.5-20-47.5-39t-49.5-38a318.05 318.05 0 0 1 -43.5-40.5 211.36 211.36 0 0 1 -31-45.5q-12-24-12-54 0-55 47-90.5t126-35.5a487.35 487.35 0 0 1 140.5 20.5 530.79 530.79 0 0 1 130 59q61.5 38.5 114.5 94.5t94 128q160-126 364-210 205-84 374-84z"/></svg>