<svg viewBox="0 0 2178 2274.3" xmlns="http://www.w3.org/2000/svg"><path d="m1000 1140.3q-87 0-153-60t-66-140q0-101 89-178 89-76 211-76 89 0 148 37l5-680q0-22 15.5-33.5t46.5-9.5l31 3q75 16 137.5 44a565.59 565.59 0 0 1 116.5 70q106 82 128 223 9 59 39 79 37 22 37 38a25.92 25.92 0 0 1 -6.5 17.5 51.31 51.31 0 0 1 -17 12.5 98.33 98.33 0 0 1 -23 7.5 126.09 126.09 0 0 1 -56.5-1.5q-15-4-32-14t-37-28q-20-18-47-46-76-82-250-82l-3 532q0 104-100 195-99 90-213 90zm32 499q0 20-22.5 29a124.11 124.11 0 0 1 -46.5 9 122 122 0 0 1 -30.5-4 115.31 115.31 0 0 1 -30.5-13q-15-9-36-29.5t-48-55.5q-35-44-101-70.5t-145-26.5l-37 530q-7 101-108 184-100 82-207 82-82 0-152-60-68-60-68-144 0-53 22.5-96t67.5-78q92-71 211-71 94 0 160 47l47-679q2-40 58-40 28 0 68.5 14t93.5 40q106 53 166.5 132.5t68.5 179.5q4 52 19 70l13 10q37 26 37 40zm1146-185a27.9 27.9 0 0 1 -7 19 53.57 53.57 0 0 1 -17.5 13 114.5 114.5 0 0 1 -23.5 8 111.16 111.16 0 0 1 -25 3 129.88 129.88 0 0 1 -32.5-4q-15.49-4-32.5-14.5a283 283 0 0 1 -36.5-27.5q-19.5-17-44.5-44-39-42-97-63.5t-136-16.5l-19 2 6 532q1 110-99 201-97 89-212 89-84 0-152-59-67-60-67-140 0-106 92-180 94-77 219-77 39 0 72.5 9.5a248.18 248.18 0 0 1 61.5 26.5l-8-680q-2-45 65-45l28 2q161 32 262.5 116t124.5 214q9 50 26 69l15 11q17 12 27 20.5t10 15.5z"/></svg>