<svg viewBox="0 0 2432 2437" xmlns="http://www.w3.org/2000/svg"><path d="m1315 2285q32 0 53.5 21.5t21.5 53.5q0 32-21.5 54.5t-53.5 22.5q-32 0-54-22.5t-22-54.5q0-32 22-53.5t54-21.5zm-906-245q32 0 53.5 21t21.5 53q0 32-21.5 54t-53.5 22q-32 0-53.5-22t-21.5-54q0-32 21.5-53t53.5-21zm-257-844q0 32-22 53.5t-54 21.5q-32 0-54-21.5t-22-53.5q0-32 22-53.5t54-21.5q32 0 54 21.5t22 53.5zm227-714q-32 0-53.5-21.5t-21.5-53.5q0-32 21.5-54t53.5-22q32 0 54 22t22 54q0 32-22 53.5t-54 21.5zm816-331q-32 0-53.5-21.5t-21.5-53.5q0-32 21.5-54t53.5-22q32 0 54 22t22 54q0 32-22 53.5t-54 21.5zm872 399q-32 0-53.5-21.5t-21.5-53.5q0-32 21.5-53.5t53.5-21.5q32 0 53.5 21.5t21.5 53.5q0 32-21.5 53.5t-53.5 21.5zm290 676q32 0 53.5 21.5t21.5 53.5q0 32-21.5 54t-53.5 22q-32 0-53.5-22t-21.5-54q0-32 21.5-53.5t53.5-21.5zm-1494 1037q36 0 62 25t26 61q0 36-26 62t-62 26q-36 0-61.5-26t-25.5-62q0-36 25.5-61t61.5-25zm-702-639q36 0 61 25t25 63q0 36-25 61t-61 25q-36 0-61.5-25t-25.5-61q0-38 25.5-63t61.5-25zm-2-759q-36 0-62-25t-26-61q0-38 26-63t62-25a85.79 85.79 0 0 1 33.5 6.5 79.66 79.66 0 0 1 27 18.5 95.18 95.18 0 0 1 18.5 28 86.31 86.31 0 0 1 7 35 80.37 80.37 0 0 1 -7 33.5 97.33 97.33 0 0 1 -18.5 27.5 79.66 79.66 0 0 1 -27 18.5 85.79 85.79 0 0 1 -33.5 6.5zm573-605q-36 0-61-25.5t-25-61.5q0-36 25-62t61-26q37 0 62 26t25 62q0 36-25 61.5t-62 25.5zm1041-1q-36 0-61-25t-25-63q0-36 25-61t61-25q37 0 62 25t25 61q0 38-25 63t-62 25zm557 672q-36 0-62-25.5t-26-61.5q0-36 26-61.5t62-25.5a80.37 80.37 0 0 1 33.5 7 97.33 97.33 0 0 1 27.5 18.5 85.65 85.65 0 0 1 0 123 97.33 97.33 0 0 1 -27.5 18.5 80.37 80.37 0 0 1 -33.5 7zm-31 637q38 0 63 26t25 62a84.54 84.54 0 0 1 -25 61 90.5 90.5 0 0 1 -28 19 86.31 86.31 0 0 1 -35 7 80.37 80.37 0 0 1 -33.5-7 86.2 86.2 0 0 1 -27-19 97.33 97.33 0 0 1 -18.5-27.5 80.37 80.37 0 0 1 -7-33.5 83.85 83.85 0 0 1 7-34 95.18 95.18 0 0 1 18.5-28 86.2 86.2 0 0 1 27-19 80.37 80.37 0 0 1 33.5-7zm-181 434q37 0 62 25t25 62q0 36-25 62t-62 26q-36 0-61.5-26t-25.5-62q0-37 25.5-62t61.5-25zm-388 239q38 0 63 25t25 63q0 36-25 61t-63 25q-36 0-61.5-25t-25.5-61q0-38 25.5-63t61.5-25zm-540-892a49.94 49.94 0 0 1 -14.5 36q-14.51 15-34.5 15-22 0-37-15a49.1 49.1 0 0 1 -15-36q0-20 15-35t37-15q20 0 34.5 15t14.5 35zm112-197q21 0 35 15t14 36q0 21-14 35.5t-35 14.5q-22 0-36-14.5t-14-35.5q0-21 14-36t36-15zm911 134q0 41-34 63-35 18-70 18h-11q-13 0-33-4t-49-10q-41-8-87-18.5t-97-26.5q-102-30-102-53 0-22 123-40 124-18 207-18 81 0 117 25.5t36 63.5zm-223 653q0 32-22.5 53.5t-55.5 21.5h-7q-21-3-42.5-16a267.83 267.83 0 0 1 -43.5-33.5q-22-20.51-44.5-46t-44.5-52.5q-23-27-44-55.5t-42-57.5q-41-61-41-69 0-17 18-17 4 0 15.5 4t26.5 10q15 6 31.5 14t31.5 17q15 8 44.5 25.5t74.5 43.5q45 27 74 50t45.5 43q16.5 20 22 36.5t3.5 28.5zm-366 238q-14 0-37-10a100.27 100.27 0 0 1 -24.5-17 129.45 129.45 0 0 1 -18.5-22q-17-28-48-118-15-47-27.5-87.5t-21.5-78.5q-18-75-18-87 0-22 17-22 28 0 122 124l38 51q47 62 70.5 106.5t23.5 76.5q0 42-22 63t-54 21zm447-1333h11q37 0 63 22t26 56q0 30-25.5 56t-79.5 39q-28 6-65.5 12.5t-85.5 11.5q-48 6-92 8.5t-86 2.5q-34 0-34-19 0-15 36-38.5t108-58.5l57-29q62-30 103-46.5t64-16.5zm-633-79q-17 0-17-19 0-20 8.5-50.5t23.5-72.5l31-92q30-87 48-119 20-34 44-56t56-22q32 0 54 22.5t22 56.5q0 21-8 43.5t-26 47.5q-17 23-39.5 53t-51.5 66q-29 36-56 64.5t-52 52.5q-27 25-37 25zm-1108 339q26 0 60.5 5.5t79.5 15.5l65 13q161 34 161 61 0 8-4.5 12.5a31.19 31.19 0 0 1 -11 7q-6.5 2.5-13.5 4.5a120.34 120.34 0 0 1 -13 3q-183 48-322 48-54 0-86.5-23.5t-32.5-61.5q0-36 30-60.5t87-24.5zm744 642q19 0 19 41 0 66-26 190-13 61-22 100t-16 56a168 168 0 0 1 -17 31.5 99.65 99.65 0 0 1 -26 25.5l-5 3q-16 11-41 11-34 0-55.5-24.5t-21.5-61.5q0-33 19.5-77t54.5-104l51-84a599.37 599.37 0 0 1 54-80q22-27 32-27zm-218-81q0 10-13 34-25 45-53 91t-62 94q-35 48-59 76.5t-40 39.5q-30 21-59 21-32 0-53.5-21t-21.5-53a106.62 106.62 0 0 1 7-37q7-19 24.5-40t46-46q28.5-25 71.5-56l80-58q16-12 35-23.5t35.5-20.5q16.5-9 29-14.5t16.5-5.5q16 0 16 19zm-373-1097q0-32 21-53.5t53-21.5q79 0 180 145 28 40 58 79a625.22 625.22 0 0 1 53 81 121.59 121.59 0 0 0 9 16.5q6 9.5 6 18.5 0 17-19 17l-18-6-16-8a1251.65 1251.65 0 0 1 -118.5-66q-53.5-34-100.5-68l-34-25q-74-52-74-109zm643-230q0-45 22.5-74.5t59.5-29.5q42 0 64.5 37t22.5 108q0 20-3 54.5t-8 85.5q-9 100-23 149t-30 49q-31 0-68-163-20-81-28.5-135t-8.5-81zm-355 80a85.46 85.46 0 0 1 20.5-56.5q20.5-24.5 56.5-24.5 46 0 77 46 15 23 26.5 57t19.5 80q8 47 12.5 77.5t4.5 47.5q0 38-20 38-42 0-143-142-26-37-40-67t-14-56zm-459 458q0-34 23.5-56t61.5-22q31 0 73 20 21 11 50 31t67 50q76 61 76 81 0 24-49 24h-23l-23-1q-23-1-34-4.5t-58-9.5q-69-11-103.5-30t-48.5-44l-4-5q-8-15-8-34zm1558-324q32 0 53.5 22t21.5 51q0 41-35 80.5t-118 85.5q-42 23-65.5 35t-28.5 14a99.54 99.54 0 0 1 -26 3q-18 0-18-26a91.27 91.27 0 0 1 3-22q3-12 11.5-29t23-41q14.51-24 37.5-57 23-34 42-56.5t36-35.5q17-13 32-18.5a89.27 89.27 0 0 1 31-5.5zm163 1104a154.71 154.71 0 0 1 -38.5-5q-19.5-5-43-17t-52.5-32q-29-20-67-49-34-26-52-41.5t-18-26.5q0-28 57-28a783.2 783.2 0 0 1 101 6.5 631.5 631.5 0 0 1 92 18.5q21 6 35 11a128.91 128.91 0 0 1 24.5 11.5 90.73 90.73 0 0 1 18.5 15q8 8.51 18 21.5a73.5 73.5 0 0 1 10 38q0 34-24 55.5t-61 21.5zm-731 556q-40 0-63.5-34.5t-23.5-95.5q0-23 6.5-60.5t16.5-88.5q9-46 17.5-69.5t22.5-23.5q27 0 67 93 38 91 38 177 0 20-4 35a152.54 152.54 0 0 1 -11 29q-28 38-66 38zm-904-540q-32 0-57-20.5t-25-56.5a79.63 79.63 0 0 1 17-50q17-22 54-37t95-22.5q58-7.5 140-7.5 50 0 50 22 0 20-36 53-17 15-46.5 34.5t-71.5 43.5q-82 47-120 41zm1019-581q17-87 53-136t84-49q36 0 55.5 23.5t19.5 53.5q0 38-31 61l-2 1a259 259 0 0 1 -38.5 26 295.87 295.87 0 0 1 -47.5 21q-26 9-44.5 14t-31.5 5l-9-1q-8-2-8-19zm133 369h-3q-14-8-33.5-23t-44.5-39q-49-46-49-68 0-27 130-27a135.87 135.87 0 0 1 46 7.5 117.77 117.77 0 0 1 36.5 20.5 93.79 93.79 0 0 1 24 30 79.37 79.37 0 0 1 8.5 36q0 32-22.5 53t-54.5 21q-19 0-38-11zm-341 280a78.94 78.94 0 0 1 -54.5-22.5 84.82 84.82 0 0 1 -17-24.5q-6.49-14-4.5-31l1-16v-1a247.06 247.06 0 0 1 14-49.5 465.66 465.66 0 0 1 26-54.5q31-59 46-59 17 0 44 57 27 59 27 102 0 42-23 71-28 28-59 28zm-402-389h3a197.85 197.85 0 0 1 41-11q10-2 31.5-4.5t53.5-4.5q60-2 60 20 0 12-39 64-19 26-34 42.5t-29.5 26.5q-14.5 10-28.5 13.5a128 128 0 0 1 -31 3.5q-37 0-58.5-21t-21.5-54q0-57 53-75zm29-327-6-17v-11q0-33 23.5-53.5t53.5-20.5q29 0 53 21h2q23 20 43.5 49.5t36.5 67.5q8 12 11.5 21.5t3.5 15.5q0 14-27 14-14 0-33-1.5t-42-5.5q-47-8-77.5-26.5t-41.5-53.5zm199-162a88.08 88.08 0 0 1 6-33l1-7q22-45 67-45 28 0 51.5 17t28.5 49v1l4 48a152.76 152.76 0 0 1 -1.5 40.5q-3.5 21.5-8.5 47.5-10 49-23 49-11 0-20.5-10a129.08 129.08 0 0 0 -19.5-17q-15-14-30-29a228.88 228.88 0 0 1 -27-32.5 198.35 198.35 0 0 1 -20-37 108.31 108.31 0 0 1 -8-41.5zm371 557q0 28-18 42.5t-38 14.5q-32 0-51.5-26.5t-19.5-63.5v-8a126.33 126.33 0 0 1 1-14.5 114.47 114.47 0 0 1 3-16 48.61 48.61 0 0 1 5-12.5q3-5 7-5 39 0 74 29 37 28 37 60zm-384-148a83.29 83.29 0 0 1 -22-3 61.58 61.58 0 0 1 -20-9.5 51.62 51.62 0 0 1 -15-17.5q-6-11-6-27 0-25 19-42t45-17q29 0 63 23 34 24 34 43 0 1-20 23-39 27-78 27zm215-253a133.29 133.29 0 0 1 3-28 75.06 75.06 0 0 1 10.5-25.5 61.24 61.24 0 0 1 18.5-18.5q11-7 28-7 28 0 42.5 18t14.5 42q0 32-30 63-29 31-61 31-8 0-18-27-11-28-8-48z"/></svg>