<svg viewBox="0 0 1990 1829" xmlns="http://www.w3.org/2000/svg"><path d="m451 1256a43.51 43.51 0 0 0 9.5-1 43.51 43.51 0 0 1 9.5-1q9 0 21.5 7.5t12.5 27.5q0 17-16.5 27t-38.5 10q-8 0-26.5-3.5a206.79 206.79 0 0 1 -37.5-11 104 104 0 0 1 -33-20.5q-14-13-14-31 0-14 7.5-23.5t18.5-9.5a59.22 59.22 0 0 1 21.5 4.5q11.5 4.5 23.5 10t23 10q11 4.5 19 4.5zm-100-376a41.92 41.92 0 0 1 4.5-19 46.39 46.39 0 0 0 4.5-21q0-17-10-35t-10-33q0-8 10.5-18.5t34.5-10.5q14 0 23 7.5a50.42 50.42 0 0 1 14 19 98.78 98.78 0 0 1 7 25.5 191.4 191.4 0 0 1 2 27 218.21 218.21 0 0 1 -2 27.5 123.29 123.29 0 0 1 -7.5 29.5 67.85 67.85 0 0 1 -15 23.5q-9.5 9.5-24.5 9.5-11 0-21-10.5t-10-21.5zm280-467q13 0 19.5 11.5t6.5 22.5q0 11-9 27a124.87 124.87 0 0 1 -24 30 156.17 156.17 0 0 1 -34 24 84.68 84.68 0 0 1 -40 10 162 162 0 0 1 -19-1.5 140.75 140.75 0 0 1 -23.5-5 57.2 57.2 0 0 1 -20-10.5 22.26 22.26 0 0 1 -8.5-18q0-13 7-19.5a42.55 42.55 0 0 1 17-9.5 107.17 107.17 0 0 1 21.5-4 107.17 107.17 0 0 0 21.5-4 53.81 53.81 0 0 0 22-11.5q10-8.5 19-17.5a154.59 154.59 0 0 1 19.5-16.5 41.06 41.06 0 0 1 24.5-7.5zm963-12a171.54 171.54 0 0 1 22 8.5q12 5.5 12 13.5t-15.5 19.5q-15.5 11.5-40.5 11.5-20 0-34-3.5a110.29 110.29 0 0 1 -24.5-9 95.9 95.9 0 0 1 -19-13q-8.5-7.5-16.5-15.5l-3-4a53.74 53.74 0 0 1 -9.5-14 41.92 41.92 0 0 1 -4.5-19q0-8 5.5-16t19.5-8a33.35 33.35 0 0 1 17.5 4.5 85.15 85.15 0 0 1 14 10.5l13 12 14.5 10q12 7 23 8.5t26 3.5zm-617-97a89 89 0 0 0 22.5-3 101 101 0 0 1 25.5-3q17 0 25 9t8 17a25.09 25.09 0 0 1 -9.5 20 83.81 83.81 0 0 1 -23.5 13.5 123.37 123.37 0 0 1 -29 7.5 201.08 201.08 0 0 1 -26 2q-29 0-52-15.5t-35-49.5q-3-8-5-12.5a23.2 23.2 0 0 1 -2-9.5q0-11 8.5-15.5a35.21 35.21 0 0 1 16.5-4.5q13 0 21 7t15.5 15a143 143 0 0 0 16.5 15q9 7 23 7zm914 588v-26a624.65 624.65 0 0 0 -22.5-166 771.2 771.2 0 0 0 -62.5-157.5 837.5 837.5 0 0 0 -95-142 865.11 865.11 0 0 0 -120-119.5 774.35 774.35 0 0 0 -137.5-90q-72.5-37-147.5-54-88-20-168-29.5a1315.39 1315.39 0 0 0 -155-9.5q-350 0-593 222-146 134-218.5 291t-72.5 347a900.76 900.76 0 0 0 18 179 779.57 779.57 0 0 0 55 170 707.91 707.91 0 0 0 93.5 151q56.5 70 134.5 121a293.56 293.56 0 0 0 31.5 19q15.5 8 32.5 18a61.87 61.87 0 0 0 -.5-8.5 61.87 61.87 0 0 1 -.5-8.5q0-29 11-48.5t31-19.5q19 0 29.5 9.5a61.48 61.48 0 0 1 16 23.5 141.45 141.45 0 0 1 8 30 174.18 174.18 0 0 0 6.5 28q6 20 15.5 32a148.9 148.9 0 0 0 21.5 22q30 9 60 17t62 16q-3-11-5-21a102 102 0 0 1 -2-20q0-32 15-47.5t35-15.5q22 0 30 16a142.49 142.49 0 0 1 12 36.5q4 20.51 10 40.5t24 28a389.41 389.41 0 0 0 47.5 5q23.5 1 47.5 1 42 0 84.5-4t87.5-11q1-2 1-8-2-12-9.5-26a156.52 156.52 0 0 0 -19-27.5q-11.51-13.5-24-26.5t-22.5-23q-57-54-114.5-105.5t-112.5-109.5q-40-42-81.5-85a901.39 901.39 0 0 0 -92.5-83q-17-14-33-27a261.23 261.23 0 0 1 -31-30 150.72 150.72 0 0 0 -24.5-21.5q-13.5-9.5-26.5-19.5a93.53 93.53 0 0 1 -21.5-23q-8.5-13-8.5-31a91.73 91.73 0 0 1 7.5-36.5 162.33 162.33 0 0 1 19.5-33.5 325.5 325.5 0 0 1 26.5-31q14.5-15 28.5-29a66.12 66.12 0 0 0 13-18.5 66.12 66.12 0 0 1 13-18.5 177 177 0 0 1 22-15.5 112.36 112.36 0 0 0 22-17.5 782.62 782.62 0 0 1 72.5-64 368.4 368.4 0 0 0 68.5-70 404.07 404.07 0 0 1 59.5-64q32.5-28 69.5-55a525.85 525.85 0 0 0 64.5-56.5 318.73 318.73 0 0 1 66.5-52.5 493.26 493.26 0 0 0 47-32q25-19 50.5-35.5a517.53 517.53 0 0 1 49.5-28.5q24-12 44-12 12 0 27.5 5.5a289.52 289.52 0 0 1 32.5 14q17 8.5 34 19a336.22 336.22 0 0 1 31 21.5q33 26 67.5 50t70.5 50a335 335 0 0 0 45 27 218.61 218.61 0 0 1 44 29q20 16 37.5 33t37.5 33q34 26 65.5 53t63.5 55q28 24 51.5 44.5t49.5 56.5zm93-119a665.37 665.37 0 0 1 6 90 1015.11 1015.11 0 0 1 -12 153.5q-12 78.49-32 144.5-32 107-89 198.5a877.53 877.53 0 0 1 -133 165.5 970.29 970.29 0 0 1 -168.5 131 1147 1147 0 0 1 -193.5 95.5 1167.79 1167.79 0 0 1 -209 58 1207.91 1207.91 0 0 1 -215 19.5 1178.15 1178.15 0 0 1 -307.5-40.5q-150.5-40.5-283.5-127.5a674.2 674.2 0 0 1 -151-134 796.09 796.09 0 0 1 -108.5-170 894.27 894.27 0 0 1 -65.5-193.5 962.5 962.5 0 0 1 -22-204.5q0-211 84-389.5t241-321.5q73-67 151-114.5a873.94 873.94 0 0 1 160.5-77 922 922 0 0 1 169.5-43 1152.64 1152.64 0 0 1 177-13.5 1365.19 1365.19 0 0 1 168.5 10.5q84.5 10.5 174.5 30.5a741.4 741.4 0 0 1 239.5 98.5 911.2 911.2 0 0 1 198.5 169.5 946.91 946.91 0 0 1 144 218.5q57 119.5 76 245.5z"/></svg>