<svg viewBox="0 0 1926 1933" xmlns="http://www.w3.org/2000/svg"><path d="m1484 956q3-7 11.5-10a52.22 52.22 0 0 1 17.5-3q11 0 17.5 5.5a35.35 35.35 0 0 1 10 14.5 72.77 72.77 0 0 1 4.5 19.5q1 10.5 1 20.5a188.31 188.31 0 0 1 -3 31.5 123 123 0 0 1 -10.5 33 72.52 72.52 0 0 1 -21 26q-13.5 10.5-34.5 10.5a71.09 71.09 0 0 1 -33-10 60.54 60.54 0 0 1 -14-12q-6-7-6-15 0-10 7-20.5a219.7 219.7 0 0 1 16-21q9-10.5 17.5-20t11.5-17.5a58.2 58.2 0 0 0 3.5-17.5q.5-9.5 4.5-14.5zm11-280q10-14 30-14 12 0 19 6.5a36.13 36.13 0 0 1 10 16.5 107.92 107.92 0 0 1 4 22q1 12 1 22a155.1 155.1 0 0 1 -3.5 31 111.28 111.28 0 0 1 -11.5 31.5 70.67 70.67 0 0 1 -21.5 24q-13.5 9.5-32.5 9.5-4 0-13-2.5a83 83 0 0 1 -18-7.5 71.65 71.65 0 0 1 -16-12q-7-7-7-16 0-10 7-20a210.62 210.62 0 0 1 16-20q9-10 17.5-19.5t11.5-18.5a57 57 0 0 0 3.5-17 47 47 0 0 1 3.5-16zm-536 336q23 0 32.5 17.5a79.43 79.43 0 0 1 9.5 38.5q0 53-25.5 82t-63.5 29a64.68 64.68 0 0 1 -37-11.5q-17-11.5-17-27.5 0-24 15.5-34.5t30.5-19.5q10-6 13.5-18t7-24.5a67.14 67.14 0 0 1 10.5-22q7-9.5 24-9.5zm302-281q24 0 34 17t10 40q0 51-27 81t-63 30q-20 0-37.5-12t-17.5-29q0-21 15.5-32.5t31.5-22.5a36.11 36.11 0 0 0 12.5-19q3.49-12 7.5-24a63.45 63.45 0 0 1 11-20.5q7-8.5 23-8.5zm-26-237q6-6 10-17.5a223.48 223.48 0 0 1 9.5-23 113.77 113.77 0 0 1 12-20 20.88 20.88 0 0 1 17.5-8.5q12 0 21 10a98.85 98.85 0 0 1 15 22 100.42 100.42 0 0 1 8.5 23.5q2.5 11.5 2.5 14.5 0 13-7 29a107.14 107.14 0 0 1 -20 30 112.9 112.9 0 0 1 -31.5 23.5q-18.5 9.5-41.5 9.5-6 0-14.5-3a61.49 61.49 0 0 1 -16-8.5 55.89 55.89 0 0 1 -13-13.5 31 31 0 0 1 -5.5-18 25.23 25.23 0 0 1 6-17 56.69 56.69 0 0 1 14.5-12q8.51-5 17.5-10a67.1 67.1 0 0 0 15-11zm509 464a253.76 253.76 0 0 0 10-34 161 161 0 0 0 4-35q0-10-.5-25t-2-31.5a213.15 213.15 0 0 0 -5.5-32.5q-4-16-11-27-9-13-16.5-22t-13.5-16.5a69.27 69.27 0 0 1 -9.5-15.5q-3.49-8-3.5-20-1-32-12-58t-40-49a47.69 47.69 0 0 1 -14.5-18.5 99.58 99.58 0 0 1 -6.5-21.5 167.43 167.43 0 0 1 -2.5-23 167.43 167.43 0 0 0 -2.5-23q-9-57-45-91a65.63 65.63 0 0 0 -17-12.5q-9-4.5-18-8t-17.5-7.5a54.9 54.9 0 0 1 -15.5-11 147.52 147.52 0 0 1 -27.5-34.5q-10.5-18.5-22-35.5a202.65 202.65 0 0 0 -27-32q-15.5-15-40.5-25a97.44 97.44 0 0 0 -28.5-7.5 220.48 220.48 0 0 1 -29-5 116.77 116.77 0 0 1 -29-11.5q-14.51-8-27.5-25-27-34-59-45a263.07 263.07 0 0 0 -67-13.5q-35-2.5-71-3a189.24 189.24 0 0 1 -70-14.5q-14-5-28-8.5a123.51 123.51 0 0 0 -30-3.5 278.43 278.43 0 0 0 -61 6.5q-29 6.5-54 26.5-20 17-44 22a340.08 340.08 0 0 1 -49 6.5q-25 1.5-50 3.5a139.41 139.41 0 0 0 -47 12q-17 8-28 20a276.18 276.18 0 0 0 -21 26q-10 14-19.5 28a115.16 115.16 0 0 1 -21.5 24 88.64 88.64 0 0 1 -23.5 15q-13.5 6-27.5 11t-27.5 9.5a110.28 110.28 0 0 0 -24.5 11.5q-23 14-32 32a218.53 218.53 0 0 0 -14.5 37q-5.5 19-11 37t-20.5 32q-4 4-12.5 5t-13.5 5a125.15 125.15 0 0 0 -56 46.5 135.94 135.94 0 0 0 -23 69.5q-1 30-5 46.5t-10.5 27.5a128.18 128.18 0 0 1 -14.5 20 156.81 156.81 0 0 0 -16 22 109.41 109.41 0 0 0 -14 33 161.24 161.24 0 0 0 -4 37 219.27 219.27 0 0 1 -1.5 22 64.66 64.66 0 0 1 -8.5 26q-10 17-19.5 33t-9.5 37q0 21 10.5 45a218.19 218.19 0 0 0 28 46.5 318.7 318.7 0 0 0 40 42.5 290.21 290.21 0 0 0 46.5 34q157 90 325.5 134t348.5 44q36 0 71.5-2t71.5-5a32.12 32.12 0 0 1 13-12q8-4 13-7a96.29 96.29 0 0 0 19.5-19q7.5-10 15.5-21 6-7 11-19a261.92 261.92 0 0 1 11.5-24 98.9 98.9 0 0 1 15-21q8.51-9 21.5-9a34.94 34.94 0 0 1 21 6.5 43.71 43.71 0 0 1 14 17 99.49 99.49 0 0 1 7.5 22.5 117.15 117.15 0 0 1 2.5 24 163.66 163.66 0 0 1 -2 23.5q-2 13.5-5 16.5l32-7q62-13 131-32.5a881.76 881.76 0 0 0 131.5-48.5q62.51-29 112-71a248.45 248.45 0 0 0 72.5-102zm110-199a259.53 259.53 0 0 1 56.5 106.5q15.5 59.5 15.5 130.5 0 68-24 138a732.32 732.32 0 0 1 -62 134.5 796 796 0 0 1 -87 120.5q-49 56-98 97a1203.05 1203.05 0 0 1 -119 86.5 1026.3 1026.3 0 0 1 -123 67.5v56q0 62-29 107t-83 74q-54 29-131 42.5t-174 13.5q-23 0-63-3t-86-11a720 720 0 0 1 -93.5-23q-47.5-15-86-39t-63-59q-24.5-35-24.5-83a355.29 355.29 0 0 1 3-46q-163-60-311-183-50-42-98.5-98a860.46 860.46 0 0 1 -87-120 704.46 704.46 0 0 1 -62.5-133.5q-24-69.5-24-138.5 0-83 20.5-148.5t77.5-115.5a262.66 262.66 0 0 1 23.5-65.5q15.5-29.5 35.5-49.5v-22a210.74 210.74 0 0 1 9.5-62 228.48 228.48 0 0 1 27.5-58.5 281.63 281.63 0 0 1 43-51 246.12 246.12 0 0 1 56-39.5q20-71 66.5-117.5t126.5-66.5q6-10 14.5-24.5a200.94 200.94 0 0 1 22-30 257 257 0 0 1 32-30.5q18.5-15 44.5-27a225.5 225.5 0 0 1 52-17 485.63 485.63 0 0 1 48.5-7q22.5-2 40-3t25.5-5a248.53 248.53 0 0 1 49-29 306.76 306.76 0 0 1 49-17 302.65 302.65 0 0 1 46-8q22-2 40-2 46 0 97 21 19 7 54.5 5.5t79.5 4q44 5.5 91 26.5t89 72q56 8 93 29t61 45.5q24 24.5 38 48.5t25 38q59 20 98 70.5t53 127.5a120.58 120.58 0 0 1 1 15q0 7 3 18a305.93 305.93 0 0 1 45.5 56q20.51 32 28.5 77 1 7 1.5 12t.5 13q17 23 29 41.5a127.1 127.1 0 0 1 17 38.5z"/></svg>