<svg viewBox="0 0 2098 2350" xmlns="http://www.w3.org/2000/svg"><path d="m98 267q0-35 21.5-57.5t53.5-22.5q42 0 80 30 70 72 70 128 0 31-40 31a206.22 206.22 0 0 1 -21.5-1 57.2 57.2 0 0 1 -16.5-4q-94-26-119-48-28-23-28-56zm1732 35-97 3q-49-6-49-30 0-28 57-73 60-45 97-45 29 0 50 20.5t21 52.5q0 34-21.5 52.5t-57.5 19.5zm-1182-105q-20 0-49.5-11a302.92 302.92 0 0 1 -57-28.5q-27.5-17.5-46.5-39.5t-16-43q0-37 25.5-56a93.81 93.81 0 0 1 57.5-19q32 0 59 29t44 83q0 16 5.5 28.5a65 65 0 0 1 5.5 26.5q0 30-28 30zm394 38q-21 0-46-49-14-26-19.5-50a209.85 209.85 0 0 1 -5.5-47q0-38 22.5-60t58.5-22q36 0 54 23t18 51a181.58 181.58 0 0 1 -6 46 158.18 158.18 0 0 1 -20 45q-15 24-27.5 43.5t-28.5 19.5zm-313-137q0-29 17-48.5t43-19.5q36 0 67 40 16 20 27.5 47.5a458.06 458.06 0 0 1 20.5 62.5q18 71 18 211a80 80 0 0 1 -5.5 28.5q-5.5 14.5-16.5 14.5-22 0-41-76a333.6 333.6 0 0 0 -24.5-63.5 392.82 392.82 0 0 0 -37.5-59.5q-11-15-23-30.5a309.23 309.23 0 0 1 -22-32.5 201.32 201.32 0 0 1 -16.5-35.5 115.38 115.38 0 0 1 -6.5-38.5zm1369 593q0 64-94 64-61 0-112-5.5a1007.62 1007.62 0 0 0 -108-5.5 1178.72 1178.72 0 0 0 -152 10 1297 1297 0 0 0 -155 30q-2 1-12 3t-27 5q-18 3-31.5 5a159.08 159.08 0 0 1 -22.5 2q-19 0-19-7 0-42 122-83 122-42 208-54t280-18a351.5 351.5 0 0 1 39.5 2q17.51 2 31.5 5 52 21 52 47zm-1106 24q-22 0-22-27 0-102 51-209t143-199q91-91 198-142 106-51 159-51 42 0 68 16.5t26 45.5q0 97-197 137-252 51-391 395-13 34-35 34zm-783-74-45 2q-53 2-86.5-4t-49.5-15q-28-18-28-48 0-42 41-65t106-23a463.9 463.9 0 0 1 68.5 5q33.5 5 67.5 13 35 9 83 29t111 52q126 63 203 128 76 67 76 96a40.38 40.38 0 0 1 -11.5 29q-11.5 12-26.5 12t-27-12q-92-86-232-142-70-28-132-43.5t-118-13.5zm-98 508q-38 0-55-18t-17-38q0-50 63-110a422.74 422.74 0 0 1 75-54 531.19 531.19 0 0 1 89.5-40.5 633.75 633.75 0 0 1 99-25.5 594.4 594.4 0 0 1 102.5-9 571.24 571.24 0 0 1 75.5 5 487 487 0 0 1 74.5 16q72 22 126 59 52 37 52 60a36.49 36.49 0 0 1 -9 24.5 28.94 28.94 0 0 1 -23 10.5q-10 0-16-6-93-60-211-60-71 0-131.5 19a347.63 347.63 0 0 0 -110.5 58l-63 49q-77 60-121 60zm1833-130a45.71 45.71 0 0 1 -7.5 25.5 70.36 70.36 0 0 1 -19 19.5 97.71 97.71 0 0 1 -25 12.5 83.48 83.48 0 0 1 -26.5 4.5 81.21 81.21 0 0 1 -30-5.5 92.77 92.77 0 0 1 -25-14.5 506.35 506.35 0 0 0 -74-47 436.23 436.23 0 0 0 -76-30.5 490.47 490.47 0 0 0 -81-16.5 763.51 763.51 0 0 0 -90-5q-116 0-189 27-22 8-40 8-38 0-38-18 0-32 56-57l24-11a945.25 945.25 0 0 1 125.5-44q65.5-18 143.5-18 113 0 243 50 129 48 129 120zm-249-621q41 0 69.5 16t28.5 52q0 38-27.5 60.5t-98.5 27.5q-34 2-79.5 15.5t-104.5 36.5q-117 44-181 89-32 23-63 57t-67 73l-34 37q-13 13-20 25.5t-22 12.5q-28 0-28-23a93 93 0 0 1 2-18 74.7 74.7 0 0 1 8-21q8-33 29-64.5t41-59.5q96-138 250-226 156-90 297-90zm-1263-96a72.89 72.89 0 0 1 6-29 79.28 79.28 0 0 1 17-25 90.6 90.6 0 0 1 26-18 77 77 0 0 1 33-7q47 0 133 71 88 72 156 187 68 116 122 293 26 88 39.5 133.5t13.5 49.5q0 16-11 24.5t-26 8.5q-25 0-34-24l-29-78-27-78q-44-124-122-217.5t-188-163.5q-32-20-51.5-35t-27.5-23q-16-17-23-33t-7-36zm1451 1749q0 71-95 129-48 30-130.5 58t-203.5 56q-121 28-228.5 42t-205.5 14a2037.51 2037.51 0 0 1 -334.5-27.5q-165.5-27.5-317.5-85.5-152-59-201-107-52-49-52-107 0-23 6.5-41a150.56 150.56 0 0 1 17-33.5 169.56 169.56 0 0 1 25-29q14.5-13.5 30.5-27.5 77-67 149-136.5t136-143.5a1541.59 1541.59 0 0 0 117-153.5 1244 1244 0 0 0 93-165.5l25-54q26-55 47.5-84t49.5-29q30 0 45 18 17 19 33 19 15 0 45-24a145.87 145.87 0 0 1 26.5-17q12.5-6 22.5-6 20 0 32.5 8a104.28 104.28 0 0 1 21.5 18q9 10 17.5 18t21.5 8q17 0 41-27 25-26 59-26 70 0 126 126 28 62 72.5 139.5t108.5 172.5a1705.44 1705.44 0 0 0 133 174 1841.68 1841.68 0 0 0 147 150q34 30 54 51t28 32a237 237 0 0 1 27.5 44.5 108.79 108.79 0 0 1 10.5 46.5z"/></svg>