<svg viewBox="0 0 1880 1583" xmlns="http://www.w3.org/2000/svg"><path d="m1780 702q0-47-4-92.5t-11-90.5q-8-47-20-103t-29-123q-18-67-32-108t-23-56q-9-16-18-23t-16-7h-6l-76 34q24 45 45.5 104t41.5 137a1262.25 1262.25 0 0 1 30 148.5 1034.63 1034.63 0 0 1 10 141.5q0 150-63 295-63 146-188 222t-310 76q-149 0-308-57-158-57-291-163-134-107-215-233l-59-91-117 52q50 98 147 215 98 115 206 195t216 121q268 101 437 101 167 0 329-97 161-98 242.5-245.5t81.5-352.5zm-1022 776v6q70 0 130.5-4.5a1021 1021 0 0 0 113.5-14.5q-61-8-137.5-28.5t-169.5-54.5q0 20 26 41 37 30 37 55zm-205-128 4-30a862.21 862.21 0 0 1 -100-60 1000 1000 0 0 1 -97-77l-1 15q0 40 31 68 33 29 36 45l2 26 4 26q4 11 26 31 19 17 32.5 29a185 185 0 0 1 21.5 22q60 17 101 23v-14l-1-13q-2-10-10-20a222 222 0 0 0 -22-23q-27-24-27-48zm-252-4a69.77 69.77 0 0 0 -7.5-20 73.32 73.32 0 0 0 -15.5-19q-19-19-19-37v-32q0-17-10-26l-19-19q-16-20-16-72 0-22-21-48-20-26-20-58v-16l1-14q-20-25-39-50.5t-36-53.5l4 108q2 59 6 95.5t14 52.5q55 124 178 209zm402-520a49.79 49.79 0 0 0 29-9 80.58 80.58 0 0 0 22-23 109.09 109.09 0 0 0 13.5-30.5 119.72 119.72 0 0 0 4.5-31.5q0-48-30-48-13 0-27.5 8a100.16 100.16 0 0 0 -26.5 21.5 119 119 0 0 0 -19.5 30 80.25 80.25 0 0 0 -7.5 33.5q0 20 11 34.5t31 14.5zm307-15q0-28-17-60-17-31-34-31-10 0-19 7a63.18 63.18 0 0 0 -15.5 18 103.45 103.45 0 0 0 -10.5 26 119.63 119.63 0 0 0 -4 31 89 89 0 0 0 3 22.5 89.87 89.87 0 0 0 9 22 48.84 48.84 0 0 0 16 17q10 6.5 24 6.5 22 0 35-19t13-40zm232-65q45 0 45-43 0-16-9-31.5a111.54 111.54 0 0 0 -22.5-27.5 116.19 116.19 0 0 0 -30.5-19.5q-17-7.5-33-7.5-28 0-28 34a90.79 90.79 0 0 0 6.5 33.5 120.7 120.7 0 0 0 17.5 30.5 93.63 93.63 0 0 0 25 22.5 55.1 55.1 0 0 0 29 8.5zm89-326q-56 0-56 32 0 14 8.5 27a93.53 93.53 0 0 0 21.5 23 120.32 120.32 0 0 0 29.5 16.5 90.79 90.79 0 0 0 33.5 6.5 53.41 53.41 0 0 0 18.5-3.5 68.32 68.32 0 0 0 17.5-9.5 51.76 51.76 0 0 0 13-14 33.27 33.27 0 0 0 5-18 41.46 41.46 0 0 0 -8-25 72.42 72.42 0 0 0 -21-19 101.72 101.72 0 0 0 -29.5-12 137.42 137.42 0 0 0 -32.5-4zm549 279q0 497-430 717-324 167-655 167-274 0-477-110-203-109-285-298-16-37-24.5-118.5t-8.5-210.5a440.92 440.92 0 0 1 3.5-57.5 187.27 187.27 0 0 1 12.5-48 123.12 123.12 0 0 1 25.5-38.5q16.5-17 43.5-29l1494-663q21-10 48-10 107 0 158 177l26 90q33 115 51 222.5t18 209.5z"/></svg>