<svg viewBox="0 0 2474 1821" xmlns="http://www.w3.org/2000/svg"><path d="m1197 681a444.25 444.25 0 0 1 124.5 15.5 464.66 464.66 0 0 1 114 48 523.18 523.18 0 0 1 98.5 75 485.1 485.1 0 0 1 127.5 207 407.08 407.08 0 0 1 18.5 121.5 378.15 378.15 0 0 1 42-31q22-14 46-27-14-108-61.5-196.5t-128.5-160.5q-82-72-176-107.5t-205-35.5q-192 0-346 115-154 113-208 299a336.63 336.63 0 0 1 49 23.5 332.39 332.39 0 0 1 35 23.5q39-163 171-266 67-52 141.5-77t157.5-27zm0-332q204 0 386 97 181 96 294 270 115 174 133 376l18 11a225.24 225.24 0 0 1 68-60q-15-111-54.5-210t-102.5-190q-127-180-326-283-100-51-202.5-76t-213.5-27a831.45 831.45 0 0 0 -201 22.5 915.65 915.65 0 0 0 -360 175 960.7 960.7 0 0 0 -144 141 892.52 892.52 0 0 0 -109.5 168 783.71 783.71 0 0 0 -66.5 188.5q48 27 78 63a834.67 834.67 0 0 1 55-178.5q37-84.5 96-161.5 59-78 131-137.5a842.6 842.6 0 0 1 157-102.5q172-86 364-86zm646 717 45-4 40 2a655.2 655.2 0 0 0 -42.5-169.5 712.69 712.69 0 0 0 -84-153 774.06 774.06 0 0 0 -263.5-230 734.09 734.09 0 0 0 -164.5-63.5 682 682 0 0 0 -176.5-21q-129 2-242 40t-213 117q-199 159-262 405 18-3 31.5-5.5t23.5-1.5l33 3q57-207 233-341 88-66 186.5-100t209.5-34q245 0 429 160 91 81 145.5 179t71.5 217zm-1703-145 37-3a109.12 109.12 0 0 1 33 1q16 3 32 7 54-213 193-386a1017.53 1017.53 0 0 1 155.5-152.5 951.53 951.53 0 0 1 184.5-113.5q199-95 422-95 119 0 229.5 27t216.5 81q106 54 193 128.5t158 170.5q70 96 114.5 201a897.05 897.05 0 0 1 61.5 221q46-11 101-11-41-261-198-474-157-212-389-329-117-58-237.5-87t-249.5-29q-124 0-240 26.5a1147.24 1147.24 0 0 0 -228 78.5q-221 105-377 300-157 194-212 438zm2334 161q-2 41-6.5 80.5t-10.5 77.5q-29-63-83-96.5t-119-33.5a194.6 194.6 0 0 0 -96 25q-45 25-70 79-13 27-46 27-26 0-41-17-47-50-115-50-71 0-137 59l-22 27q-16 20-27.5 33.5a285.43 285.43 0 0 1 -20.5 22q-9 8.51-17 12a42 42 0 0 1 -17 3.5 94.55 94.55 0 0 1 -41-9q-19-9-42-9l-18 3q-74 29-74 149a106 106 0 0 0 9 44 104.58 104.58 0 0 0 24 34 105.68 105.68 0 0 0 34.5 21.5 114.59 114.59 0 0 0 41.5 7.5 88.08 88.08 0 0 0 33-6 85.37 85.37 0 0 1 32-6q32 0 57 41 59 98 179 98 77 0 149-38 12-8 31-8 17 0 28 8 68 46 140 46h18l16-2a781.27 781.27 0 0 1 -123 112q-32-5-82-37-61 41-160 41a361.49 361.49 0 0 1 -160.5-37.5 354 354 0 0 1 -69.5-45 326.21 326.21 0 0 1 -56-59.5l-12 1h-14q-54 0-97-16t-72.5-45q-29.51-29-45.5-70t-16-91q0-98 60-175 60-75 156-75h15l15 1 3-43a328.65 328.65 0 0 0 -28-155.5 414.9 414.9 0 0 0 -90.5-130.5q-57.49-56-133-89t-155.5-32q-79 2-146.5 27t-124.5 77q-114 107-132 252l16 19 48-5q95 0 156 76 60 77 60 175 0 103-61 162t-169 59h-12l-14-2a298.94 298.94 0 0 1 -56 61.5 337.39 337.39 0 0 1 -69.5 44.5 380.36 380.36 0 0 1 -78 27.5 360.23 360.23 0 0 1 -82.5 9.5q-83 0-161-40-81 52-167 52-66-64-104-151 47 25 103 25 68 0 137-45 11-8 27-8a73 73 0 0 1 33 8q70 38 148 38 106 0 168-78l12-20q13-21 26-32a45.11 45.11 0 0 1 30-11 74.71 74.71 0 0 1 32 7 74.71 74.71 0 0 0 32 7q47 0 78.5-33t31.5-90a231.07 231.07 0 0 0 -6-54q-6-25-18-43.5a90.65 90.65 0 0 0 -29.5-29q-17.5-10.5-39.5-10.5a87.37 87.37 0 0 0 -40.5 9.5q-18.5 9.5-41.5 9.5-29 0-80-72-11-17-29-32.5a240.56 240.56 0 0 0 -85-47 157.09 157.09 0 0 0 -47-7.5q-61 0-113 52-16 16-42 16-33 0-46-26-26-55-71-80.5a191.66 191.66 0 0 0 -96-25.5q-105 0-170 80l-4-141a186.56 186.56 0 0 1 55-28q51-266 215-480 84-109 185-193.5t224-145.5q246-122 518-122 276 0 528 127 128 64 231.5 154t188.5 207q168 232 207 523 72 24 122 71z"/></svg>