<svg viewBox="0 0 2400.09 1964" xmlns="http://www.w3.org/2000/svg"><path d="m2264 1198q0-216-241-373 18 85 27.5 156t9.5 128q0 131-43 220-42 88-158 180-116 90-270 137t-356 47a1606.09 1606.09 0 0 1 -226.5-16 1685 1685 0 0 1 -227.5-49q-228-67-346-173t-124-242l-3-59q-2-55 9-125.5t31-157.5l-37 26q-91 63-132.5 147t-41.5 182q0 177 120 310 122 134 367 213a1529.28 1529.28 0 0 0 254.5 60.5q130.5 19.5 272.5 19.5 294 0 555-75 260-76 410-229 150-151 150-327zm-1854-79q0 133 105 232 105 101 319 163 215 62 431 62 462 0 624-263 54-88 54-237 0-85-15-201.5t-47-265.5l-44 57-47 55q-31 37-49 72a347.92 347.92 0 0 0 -29 74q-5 19-11 51t-13 80q-15 100-87 100-20 0-35-7a101.63 101.63 0 0 1 -27.5-19 152.94 152.94 0 0 1 -22.5-27.5q-10-15.49-20-32.5-34-59-57-79-23-21-73-30-26-5-68-10t-103-9q-80-6-139.5-13t-98.5-16a811.77 811.77 0 0 1 -82-24.5q-44-15.5-94-35.5-100-42-163.5-83.5t-100.5-94.5l-47 179q-17 64-29 113t-19 84q-12 68-12 126zm674-411q0 18 61 29 29 5 64 7.5t74 2.5q131 0 257-44 127-45 192-104t65-118q0-34-18-34-15 0-26 17a615.79 615.79 0 0 1 -113 97.5q-62 41.5-139.5 68.5t-172 40.5q-94.5 13.5-209.5 13.5-35 0-35 24zm1316 492q2 114-41.5 215.5t-130.5 193.5q-173 182-468 269a1982.18 1982.18 0 0 1 -301 65q-154 21-319 21-161 0-309.5-22a1626.26 1626.26 0 0 1 -286.5-69q-275-94-409.5-249.5t-134.5-361.5q0-151 79-273 41-63 114.5-121.5t182.5-115.5l64-256q16-62 30-103.5t32-61.5q38-75 105-134.5t163-105.5a891.62 891.62 0 0 1 203.5-68.5q107.5-22.5 228.5-22.5a1212.89 1212.89 0 0 1 151.5 9.5 1059.22 1059.22 0 0 1 145.5 28.5 1006.81 1006.81 0 0 1 133 46q63 27 114 61 66 44 133 137 34 48 57 126t43 190l19 109q91 42 162.5 95a749.45 749.45 0 0 1 126.5 118q54 66 83 135.5a385.34 385.34 0 0 1 30 144.5z"/></svg>