<svg viewBox="0 0 1670 2047" xmlns="http://www.w3.org/2000/svg"><path d="m1481 580v-258h-213v258zm0 407v-256h-213v256zm0 408v-256h-213v256zm-357-815v-258h-212v258zm0 407v-256h-212v256zm0 408v-256h-212v256zm-355-815v-258h-214v258zm0 407v-256h-214v256zm0 408v-256h-214v256zm-356-815v-258h-213v258zm0 407v-256h-213v256zm0 408v-256h-213v256zm-263-1395h1368q66 0 108 45 44 46 44 105v1897h-581v-218q0-36-25.5-60.5t-59.5-24.5h-338q-36 0-60.5 24.5t-24.5 60.5v218h-581v-1897a144.65 144.65 0 0 1 12-58.5 149.64 149.64 0 0 1 79.5-79.5 144.65 144.65 0 0 1 58.5-12z"/></svg>