<svg viewBox="0 0 2042 2303" xmlns="http://www.w3.org/2000/svg"><path d="m1115 835q-21 1-41-41-68-141-100.5-258.5t-32.5-213.5q0-145 70-231 72-91 189-91a235.6 235.6 0 0 1 75 12 253.8 253.8 0 0 1 67 34 280.12 280.12 0 0 1 56 53 293.1 293.1 0 0 1 41 68q7 19 26 19l16-2q19-4 39-6.5a338 338 0 0 1 42-2.5q64 0 117 17t91 48.5a221.76 221.76 0 0 1 59.5 77q21.5 45.5 21.5 102.5a397 397 0 0 1 -7 74 350.74 350.74 0 0 1 -20.5 69.5 246.78 246.78 0 0 1 -33.5 58q-20 25.5-45 40.5-51 30-128 50.5t-189 37.5a761.11 761.11 0 0 0 -106 23.5q-52 15.5-105 36.5a317.48 317.48 0 0 1 -102 25zm-799 184q-142 0-229-68t-87-185q0-92 63-176 63-87 164-126l5-63a219.36 219.36 0 0 1 22-78q18-36 60-65 85-61 193-59 73 1 143 31t130 103q40 49 78 119 17 34 38 87.5t45 128.5q23 73 35.5 118t12.5 62q0 31-21 37l-110 21q-131 39-220 62.5t-140 33.5q-50 9-95 13t-87 4zm1726 143q0 112-90 167-26 16-26 46l5 55q0 67-8 96a268.21 268.21 0 0 1 -32.5 74q-22.5 36-60.5 71-75 67-150 67h-9l-10-2q-76-9-134-32t-96-62q-78-79-118-241-43-168-77-262-16-47-34.5-94.5t-41.5-96.5l-2-6q0-45 155-84 78-20 148-28t134-10q110-3 193.5 24.5t140 75q56.51 47.5 85 110.5a316.72 316.72 0 0 1 28.5 132zm-834 368q-1 63-13 116.5a347.72 347.72 0 0 1 -38 98.5q-52 90-148 146-96 57-186 57a310.77 310.77 0 0 1 -89.5-13 305 305 0 0 1 -83.5-40q-19-12-47-49a171.7 171.7 0 0 0 -27-30q-14-12-28-17-13-5-38.5-10t-62.5-8q-70-5-104-27-123-79-123-232 0-119 64.5-220.5t195.5-176.5q130-75 293-107 81-15 135-23t81-8q14 0 23 .5a47 47 0 0 1 16 3.5 41.49 41.49 0 0 1 13 9 146.49 146.49 0 0 1 14 17q8 11 25 52t46 113q27 72 44.5 127t24.5 94a585.89 585.89 0 0 1 10.5 70.5q2.5 31.5 2.5 56.5zm707 662a114.77 114.77 0 0 1 -8 43 106.87 106.87 0 0 1 -22.5 35 112.24 112.24 0 0 1 -34 24 100.19 100.19 0 0 1 -42.5 9q-100 0-198-45t-182-126q-83-82-134-182t-51-167q0-37 19-63t48-26q44 0 92 77 159 249 419 328 28 9 46.5 18t29 20a59.86 59.86 0 0 1 14.5 24.5 107.22 107.22 0 0 1 4 30.5z"/></svg>