<svg viewBox="0 0 1768 1768" xmlns="http://www.w3.org/2000/svg"><path d="m1314 887q0 115-67 224a514.09 514.09 0 0 1 -77.5 99.5 451.34 451.34 0 0 1 -101.5 76q-57 31.5-127.5 48.5t-155.5 17q-188 0-309-118a368.93 368.93 0 0 1 -93-141.5q-30-81.5-30-185.5 0-151 84-286 86-136 222.5-206t310.5-70q78 0 136 14a298.48 298.48 0 0 1 52 18 228.18 228.18 0 0 1 42 24.5q18 13.5 28 27.5t10 27q0 16-20 16l-52-5q-58-6-104-13.5t-82-7.5a434.78 434.78 0 0 0 -115.5 15.5 575.77 575.77 0 0 0 -112.5 44.5q-56 30-100 69a412.38 412.38 0 0 0 -76 90q-65 101-65 214 0 72 22 130.5t62.5 99.5q40.5 41 97.5 63.5t127 22.5q129 0 233-88 105-88 105-212 0-87-52.5-139t-144.5-53q-24 0-55 10a243.64 243.64 0 0 0 -58 27.5q-27 17.5-44.5 40t-14.5 46.5q0 27 21 45.5a71.83 71.83 0 0 0 49 18.5q23 0 46-26 22-25 49-25 14 0 28.5 7a94.86 94.86 0 0 1 26 18.5 98.49 98.49 0 0 1 19 27 73.71 73.71 0 0 1 7.5 32.5q0 57-63 94-61 37-134 37-82 0-139-41-59-40-59-138 0-143 94-228 95-86 245-86 57 0 108 17t108 50q56 32 88 106a475.73 475.73 0 0 1 23 75.5 361.14 361.14 0 0 1 8 75.5zm278-2q0-26-45-61-23-18-38-30.5t-20-20.5q-9-13-9-38 0-33 41-92t41-93q0-22-18.5-35.5t-56.5-24.5l-81-22q-35-10-50.5-35.5t-13.5-77.5l1-70q1-29-15.5-42.5t-65.5-13.5h-8l-72 4q-24 2-40.5-5t-25.5-20l-22-35q-20-42-37.5-58t-40.5-16q-27 0-55 19-100 67-145 67-14 0-33.5-11.5t-43-25a529.9 529.9 0 0 0 -49.5-25q-26-11.5-52-11.5a50.69 50.69 0 0 0 -26 7q-18 11-26.5 28a163.26 163.26 0 0 0 -13 36.5q-4.5 19.5-8 38.5a100 100 0 0 1 -13 34.5q-9.5 15.5-27.5 25t-50 8.5l-64-1q-56-1-74.5 21t-18.5 72q0 51-4 84.5t-12 52.5a80.79 80.79 0 0 1 -23 29q-15 12-36 20-55 20-78.5 34t-23.5 40a67.67 67.67 0 0 0 3.5 21.5 121 121 0 0 0 10.5 22.5q55 91 55 141 0 29-30 72-81 80-81 131 0 32 53 59 46 24 77.5 54t31.5 72l-7 58q-2 15-4 39.5t-2 58.5q0 36 60 36l152-3q56-2 91 82 33 82 83 82 31 0 88-45 55-44 80-44 32 0 100 42 67 43 107 43 25 0 34-14l44-64q20-29 43.5-44.5t53.5-15.5l107 9q22 0 37.5-5.5a54.55 54.55 0 0 0 25.5-18.5q10-13 14.5-34.5t4.5-53.5q0-25 4.5-41.5t15-27q10.5-10.5 26.5-17.5t39-12q83-21 83-61 0-20-21-71-20-51-20-69 0-16 13-33t50-52q30-30 30-54zm96 260 1 7a626.7 626.7 0 0 0 16.5 61 194.79 194.79 0 0 1 9.5 61q0 93-118 138-16 6-25.5 12.5t-12.5 10.5q-5 8-7.5 20t-4.5 25q-9 74-57 116t-122 40l-59-1q-59-1-93 55-45 75-129 75-60 0-117-40-57-38-77-38-25 0-66 37-20 17-50.5 30.5a153 153 0 0 1 -62.5 13.5q-86 0-149-81l-21-34q-29-60-108-60-140 0-213.5-60t-73.5-166q0-73 7-105-86-58-121-113t-35-117q0-85 90-179 19-20 20-28l-15-39-13-31q-41-66-41-116 0-31 11-54.5t32.5-42.5q21.5-19 53.5-35t75-33l3-22v-40q0-112 50-168t144-54l62 2q0-26 11.5-57a217.08 217.08 0 0 1 32.5-58 178.73 178.73 0 0 1 52-45q31-18 70-18 32 0 68 11t75 35l39 25a44.47 44.47 0 0 0 15.5-5 117.73 117.73 0 0 0 16.5-11q86-69 164-69a154.83 154.83 0 0 1 36.5 4 143.55 143.55 0 0 1 30.5 11 229.88 229.88 0 0 1 26.5 15.5 126.59 126.59 0 0 1 24.5 22.5 282 282 0 0 1 24.5 34q12.49 20 27.5 49l68-6h8q41 0 73.5 10a163.74 163.74 0 0 1 58 31.5q25.5 21.5 46 54t37.5 77.5q14 37 37.5 65t62.5 48l30 15q43 22 88 97 42 75 42 123 0 26-27 80-29 56-29 86 0 27 13.5 46a383.18 383.18 0 0 0 30 37 288.25 288.25 0 0 1 30 39q13.5 21 13.5 52 0 61-58 120-22 22-22 34z"/></svg>