<svg xmlns="http://www.w3.org/2000/svg" viewBox="0 0 2372 1703"><title>u1F35B</title><g id="Layer_2" data-name="Layer 2"><g id="Layer_1-2" data-name="Layer 1"><path id="u1F35B" d="M940,1182a69,69,0,0,1-17.5-2.5,84.35,84.35,0,0,1-18-7,43.21,43.21,0,0,1-14-11.5,26.65,26.65,0,0,1-5.5-17q0-9,6.5-20a177,177,0,0,1,15.5-22q9-11,18-21t13-18a44.85,44.85,0,0,0,3.5-15,54.29,54.29,0,0,1,3-15,26.11,26.11,0,0,1,9-12q6.5-5,20.5-5,13,0,20,7a49.91,49.91,0,0,1,11,17,76.9,76.9,0,0,1,5,22.5q1,12.49,1,22.5a139.8,139.8,0,0,1-4,32,113.2,113.2,0,0,1-12.5,31.5,75.87,75.87,0,0,1-22,24Q959,1182,940,1182Zm61-285q-15-1-31.5-11.5T953,859q0-9,7-20a229.42,229.42,0,0,1,16-22q9-11,18-21t13-18a50.17,50.17,0,0,0,4.5-17.5,63.9,63.9,0,0,1,2.5-15,20.78,20.78,0,0,1,8.5-11Q1029,730,1044,730q12,0,18.5,6a45,45,0,0,1,10.5,15,63,63,0,0,1,5,20q1,11,1,21a211,211,0,0,1-3,33.5,137.31,137.31,0,0,1-10.5,35,74.82,74.82,0,0,1-21,27.5q-13.5,11-34.5,11c-2.67,0-4.33-.17-5-.5A38.61,38.61,0,0,0,1001,897ZM707,967a69,69,0,0,1-17.5-2.5,74,74,0,0,1-17.5-7A51.66,51.66,0,0,1,658,946a25.23,25.23,0,0,1-6-17q0-9,7-20a229.42,229.42,0,0,1,16-22q9-11,18-21t13-18a55.47,55.47,0,0,0,4-15,62.59,62.59,0,0,1,4-15.5,29.21,29.21,0,0,1,9.5-12.5q6.5-5,20.5-5,12,0,19,7a44.31,44.31,0,0,1,10.5,17,77.33,77.33,0,0,1,4,22.5q.5,12.5.5,22.5,0,40-17,69T707,967Zm785-776a91,91,0,0,0-27-35.5,159.67,159.67,0,0,0-40-23.5,216.85,216.85,0,0,0-45-13,246.43,246.43,0,0,0-42-4q-55,0-92,29t-37,91q0,14,15.5,31t45.5,32q30,15,73.5,25.5T1442,334q36,0,48-23t12-59a213.16,213.16,0,0,0-2.5-33A122.13,122.13,0,0,0,1492,191Zm441,169q-32-29-68.5-40.5A252.93,252.93,0,0,0,1788,308q-8,0-17,.5t-19,1.5q-17,2-31,14a117.38,117.38,0,0,0-24,28.5,147,147,0,0,0-15.5,35.5q-5.51,19-5.5,35a87.55,87.55,0,0,0,11.5,43.5q11.51,20.5,32,37a159.36,159.36,0,0,0,47.5,26,173.59,173.59,0,0,0,58,9.5q15,0,38.5-3.5A169.74,169.74,0,0,0,1909,522a109.86,109.86,0,0,0,38-28.5q16-18.5,16-48.5a144.12,144.12,0,0,0-9-49Q1945,371,1933,360ZM1821,840q12,25,36.5,32.5A178.43,178.43,0,0,0,1910,880q18,0,46-1.5a252.35,252.35,0,0,0,53.5-8.5q25.5-7,44-20.5T2072,813q0-44-8.5-72.5t-26-45.5Q2020,678,1994,671.5t-61-6.5a256.41,256.41,0,0,0-40,3q-17,2-32,15.5a121.12,121.12,0,0,0-25.5,33A195.89,195.89,0,0,0,1819,758a159.67,159.67,0,0,0-6,42Q1813,825,1821,840ZM1372,529a77,77,0,0,0-19.5,38q-4.5,22-7.5,42a220,220,0,0,0,2.5,32,102,102,0,0,0,9.5,31,64.15,64.15,0,0,0,19,23q12,9,30,9a131.34,131.34,0,0,0,32-4q16-4,28-8,18-5,42.5-10a273.34,273.34,0,0,0,47-14q22.5-9,38-23t15.5-38q0-27-9-49.5t-23-38a107.91,107.91,0,0,0-32-24.5q-18-9-36-9a150.16,150.16,0,0,0-35.5,4.5Q1455,495,1439,499a99.08,99.08,0,0,1-14,5q-10,3-20.5,7t-20,8.5Q1375,524,1372,529Zm279,565q22,0,37-5a47.17,47.17,0,0,0,24-17.5q9-12.49,13-33.5t4-53a168.13,168.13,0,0,0-2-26.5,77.4,77.4,0,0,0-7-22.5q-4-7-16.5-18.5a186.17,186.17,0,0,0-31-22.5,209.8,209.8,0,0,0-41-18.5A149.21,149.21,0,0,0,1584,869q-21,0-36.5,12a99,99,0,0,0-25.5,29.5,148.47,148.47,0,0,0-15,37q-5,19.5-5,34.5,0,27,14.5,47.5a132.83,132.83,0,0,0,37,35,182.25,182.25,0,0,0,48.5,22Q1628,1094,1651,1094ZM423,436a121.66,121.66,0,0,0-11.5,30.5A174.27,174.27,0,0,1,401,498q-8,15-20.5,22.5T354,536a180.45,180.45,0,0,0-30,23,232.73,232.73,0,0,0-28,31.5,170.07,170.07,0,0,0-21,37q-8,19.5-8,37.5,0,20,6,35a80.25,80.25,0,0,1,6,30,177.83,177.83,0,0,1-6,45,174.27,174.27,0,0,0-6,44q0,32,14,49a199.44,199.44,0,0,0,30.5,30Q328,911,342,924t14,36a85.8,85.8,0,0,1-1,14,85.8,85.8,0,0,0-1,14q1,42,23.5,72t60.5,47q15,7,37.5,8t46,3.5a259.85,259.85,0,0,1,43,8Q584,1132,592,1148q13,24,30,39.5a133.06,133.06,0,0,0,36.5,24A156,156,0,0,0,699,1223a311.09,311.09,0,0,0,44,3,240.27,240.27,0,0,0,38.5-3,211,211,0,0,1,33.5-3q16,0,23,6t18,19q20,21,48.5,34.5T962,1293a188.62,188.62,0,0,0,39-4q19-4,39-7a80.66,80.66,0,0,0,23-7.5q11-5.51,22.5-11.5t22.5-10.5a60.16,60.16,0,0,1,23-4.5,77.91,77.91,0,0,1,29,6q15,6,25,6a68.55,68.55,0,0,0,42.5-14,120.76,120.76,0,0,0,31-35,163.57,163.57,0,0,0,18.5-46.5,211.94,211.94,0,0,0,6-48.5,164.73,164.73,0,0,0-1.5-24q-1.5-10-3.5-18-11-33-18-61t-11.5-56a532.63,532.63,0,0,1-6-57.5Q1241,870,1241,834a317.77,317.77,0,0,0-2.5-40.5A161.85,161.85,0,0,0,1228,754a145.14,145.14,0,0,0-27.5-47.5A192.94,192.94,0,0,1,1171,661a96.81,96.81,0,0,1-8-26.5q-2-13.5-3-27t-3-27a144.84,144.84,0,0,0-7-27.5q-12-34-27-59a390.13,390.13,0,0,0-37-51,257.49,257.49,0,0,1-33.5-48.5A181.45,181.45,0,0,1,1034,339q-2-11-5.5-30a149.67,149.67,0,0,0-12-37,102.36,102.36,0,0,0-23-31.5Q979,227,956,227q-21,0-31.5,5.5a73.43,73.43,0,0,0-18,13q-7.5,7.5-14.5,15T873,272a77.93,77.93,0,0,1-24.5,5.5q-11.5.5-22.5.5a244.92,244.92,0,0,1-28-1.5,235.62,235.62,0,0,0-27-1.5h-8a193.38,193.38,0,0,0-47,6q-24,6-48,27a108.47,108.47,0,0,0-17.5,17.5,160.49,160.49,0,0,1-16,17.5,98.18,98.18,0,0,1-18,13.5Q607,362,592,362a168,168,0,0,1-19.5-1,168,168,0,0,0-19.5-1l-10,1a158.4,158.4,0,0,0-34,8.5A192.22,192.22,0,0,0,474.5,386,206.18,206.18,0,0,0,444,408.5,85.4,85.4,0,0,0,423,436Zm1756,751q78-112,78-238a359.38,359.38,0,0,0-12-93q-7,54-21,91.5t-32.5,63.5a228.93,228.93,0,0,1-41,44.5,416.49,416.49,0,0,1-47,33.5q-24.49,15-50.5,30.5a448.18,448.18,0,0,0-52,36.5,354.94,354.94,0,0,0-30,27.5,216.76,216.76,0,0,1-28,24.5,253.69,253.69,0,0,1-42.5,24q-22.5,10-42.5,21a705.63,705.63,0,0,1-81.5,37.5A712,712,0,0,1,1691,1317a696.18,696.18,0,0,1-72,16q-36,6-72,14-40,10-80.5,21t-80.5,19q-20,4-38,8a174.6,174.6,0,0,1-38,4,732.59,732.59,0,0,1-83.5-5,326.36,326.36,0,0,1-85.5-22l-8-4a299.1,299.1,0,0,1-30.5,14,255.5,255.5,0,0,1-40.5,12l-9,3q-20,3-42.5,7a277,277,0,0,1-48.5,4q-51,0-92.5-17T788,1338q-11,1-22.5,2t-22.5,1q-23,0-54-3a274.9,274.9,0,0,1-64-14.5,265.84,265.84,0,0,1-64-33Q530,1269,509,1232a458.06,458.06,0,0,1-56-4,221.31,221.31,0,0,1-60-16q-72-30-111.5-88.5T239,990a246.08,246.08,0,0,1-27.5-22q-15.5-14-29-35a225.5,225.5,0,0,1-23-48.5Q150,857,150,821a171.36,171.36,0,0,1,1-19l2-18q-38,77-38,165,0,84,37,163.5T257,1263q68,71,164.5,130.5t215.5,103Q756,1540,895,1564t291,24q171,0,325.5-31t283-85q128.51-54,227-127T2179,1187Zm95-541q48,70,73,145.5A497.64,497.64,0,0,1,2372,949q0,108-43.5,205.5T2207,1336q-78,84-187,151.5T1779,1603q-132,48-282.5,74T1186,1703a1830.85,1830.85,0,0,1-304.5-25Q733,1653,601,1605.5T358.5,1491q-110.51-67-190-150.5T44.5,1158Q0,1059,0,949,0,830,50,728.5T194,536a350.83,350.83,0,0,1,48.5-58.5Q269,452,295,438l6-3q11-47,40-82.5A290.41,290.41,0,0,1,406.5,293,295.12,295.12,0,0,1,482,257q39-12,71-12,11,0,15,1,24-30,51.5-47.5t53.5-26A219.21,219.21,0,0,1,722.5,162q23.5-2,40.5-2h11q14,0,26,.5t28,.5l9-6a88.77,88.77,0,0,1,21-38,156.72,156.72,0,0,1,35.5-28A293.46,293.46,0,0,1,936,68.5Q958,60,978,53a426.32,426.32,0,0,1,86-21,657.92,657.92,0,0,1,89-6q16,0,29,.5t29,2.5q36-20,69.5-24.5T1338,0q51,0,90.5,11t69,28q29.51,17,50,37t32.5,37a661,661,0,0,1,85.5,35.5A647.77,647.77,0,0,1,1744,196a325.29,325.29,0,0,1,44-3,373.05,373.05,0,0,1,101,14,293.28,293.28,0,0,1,90.5,42.5q40.5,28.5,67,73.5T2077,429a346,346,0,0,0,27,22.5,121.11,121.11,0,0,1,25,25.5,96.7,96.7,0,0,0,8,13.5q4,5.5,9,12.5Q2221,569,2274,646Z"/></g></g></svg>