<svg viewBox="0 0 2326 1947" xmlns="http://www.w3.org/2000/svg"><path d="m1246 302q-80 0-131-67a235.24 235.24 0 0 1 -39-72.5q-13-39.5-13-84.5 0-78 59-78 75 0 150 60 76 60 76 137a139.47 139.47 0 0 1 -5.5 39 92.06 92.06 0 0 1 -17.5 33.5q-12 14.5-31.5 23.5t-47.5 9zm-80 416q-32 0-54-50a235.83 235.83 0 0 1 -15.5-52.5 319 319 0 0 1 -4.5-53.5 240.67 240.67 0 0 1 11-73.5q11-34.5 31.5-59.5a153.51 153.51 0 0 1 48.5-39.5 130.64 130.64 0 0 1 61-14.5q19 0 36 11.5a116.82 116.82 0 0 1 30 30 162.87 162.87 0 0 1 21 42.5 154.06 154.06 0 0 1 8 49q0 80-61 145-62 65-112 65zm-122-132q0 68-44 136-43 68-87 68-29 0-55-42-16-25-26-44a259 259 0 0 1 -16-36.5 166 166 0 0 1 -8-34.5 328.1 328.1 0 0 1 -2-38 216.59 216.59 0 0 1 9-63.5q9-29.5 26-51a129.59 129.59 0 0 1 40-34q23-12.5 52-12.5 32 0 73 45 38 44 38 107zm-257 143a212.3 212.3 0 0 1 -8.5 58q-8.5 30-24.5 64-31 67-68 67-36 0-88-64-51-64-51-149a175.79 175.79 0 0 1 8.5-55q8.5-26 23.5-45.5a121.18 121.18 0 0 1 34.5-31 80.34 80.34 0 0 1 41.5-11.5q48 0 89 47 43 46 43 120zm-192 242q0 66-39 133t-81 67q-31 0-74-61-44-64-44-140a196.39 196.39 0 0 1 9-59.5q9-28.5 25.5-50a128.22 128.22 0 0 1 38.5-34q22-12.5 49-12.5 38 0 77 45t39 112zm-264 199q0 77-50 143-51 68-91 66-24 0-49-38-12-20-21-35.5a238.76 238.76 0 0 1 -14-27.5q-6-14-9.5-34.5t-4.5-50.5q-1-37 9-67.5t28-53a129.34 129.34 0 0 1 42.5-35 116 116 0 0 1 53.5-12.5q36 0 71 42 35 44 35 103zm8-356q0 36-14.5 65.5a155.84 155.84 0 0 1 -41 51.5q-26.5 22-62.5 34t-79 12q-66 0-104-17.5t-38-49.5q0-31 36-81 37-51 82-78t100-27q50 0 86 31 35 32 35 59zm0-131q-64 0-131-37-68-39-68-81 0-30 61-75t143-45q38 0 78 16a115.5 115.5 0 0 1 32 21 144.15 144.15 0 0 1 38 57.5q5 14.5 5 25.5 0 38-45 78t-113 40zm284-215q-72 0-141-57-70-58-70-122 0-27 49-48 51-22 103-22a235.45 235.45 0 0 1 74 11.5q35 11.5 60.5 31.5a149.44 149.44 0 0 1 40.5 48.5 130.07 130.07 0 0 1 15 61.5q0 27-15 44-50 52-116 52zm422-211q0 29-9 48.5t-24 31.5a97 97 0 0 1 -34 17.5 139.47 139.47 0 0 1 -39 5.5q-74 0-132-67-57-67-57-156 0-68 61-68 94 0 165 60 69 59 69 128zm1281 247q0 15-14 32a2618.28 2618.28 0 0 0 -362.5 607.5 2722.09 2722.09 0 0 0 -121.5 350q-50 182.5-75 378.5-5 36-28.5 55.5t-58.5 19.5q-20 0-35-8a85.38 85.38 0 0 1 -25.5-20.5 91.44 91.44 0 0 1 -16-27.5 84 84 0 0 1 -5.5-29q0-23-12-119-10-94-62-222a851.31 851.31 0 0 0 -56-116 806.79 806.79 0 0 0 -69-100q-38-46-89-90.5t-117-88.5q-32-21-32-42 0-37 86-37 82 0 187 42a613.64 613.64 0 0 1 100 51.5 488.77 488.77 0 0 1 86 70.5q16-106 24-191.5t8-150.5q0-365-260-452-18-6-27.5-16.5t-9.5-28.5q0-57 50-57l21 3q169 47 253 192 42 74 66 161t19 190l-6 101a1356.73 1356.73 0 0 1 75.5-119 1196.33 1196.33 0 0 1 89.5-111q98-108 206-185 111-76 166-76 20 0 32 9 13 10 13 24z"/></svg>