<svg viewBox="0 0 1910.1 2251" xmlns="http://www.w3.org/2000/svg"><path d="m699 2114a726.18 726.18 0 0 0 92-6 785.25 785.25 0 0 0 91-17 764.45 764.45 0 0 0 85-26.5 448.64 448.64 0 0 0 74-35.5q-23-34-37-54.5t-19-30.5q-5-9-21.5-44t-42.5-95q-48-106-48-163 0-112 96-190t286-110q-42-124-166-316-48-73-77.5-121t-40.5-73q-22-51-36-115.5t-14-145.5q0-83 13-148 0-4-5-4-86 27-233 27-124 0-223-33a534.82 534.82 0 0 1 11 75q3 39 3 81a742.25 742.25 0 0 1 -6.5 100.5 678.32 678.32 0 0 1 -18.5 90.5q-23 84-116 225-54 84-91 145t-57 99a864.15 864.15 0 0 0 -58.5 153 599.47 599.47 0 0 0 -21.5 160q0 137 64 268 32 67 68.5 114.5t76.5 77.5q80 59 185 86a749.4 749.4 0 0 0 98.5 20 692.58 692.58 0 0 0 88.5 6zm-14-2021a418.46 418.46 0 0 0 -89.5 9.5 468.63 468.63 0 0 0 -83.5 26.5q-80 34-80 90 0 25 19.5 45t55.5 34q36 14 87 21.5t115 7.5q28 0 58.5-2.5a539.29 539.29 0 0 0 64.5-9.5q69-13 104-38.5t35-57.5q0-126-286-126zm1063 1612-1 26q66-37 66-107 0-30-9-48-29-59-150-102-59-21-128-32t-148-11q-162 0-285 58-123 57-123 142 0 23 17.5 47.5t46.5 40.5v-11q0-77 106-132 106-54 242-54a748.41 748.41 0 0 1 186 23q91 23 137 64t43 96zm-636 3q0 38 54 56 27 9 99 13t191 4q79 0 141-6 73-19 73-67 0-44-84-76-42-15-93-23t-111-8q-97 0-184 34-86 35-86 73zm621 161q0-16-16-16l-30 4q-95 23-231 23-119 0-200.5-6t-129.5-20l-26-4q-25 0-25 23 0 36 62 122 31 43 62.5 73t66 49a283.8 283.8 0 0 0 73.5 28q39 9 84 9 67 0 124-26 57-28 121-132 65-106 65-127zm177-242q-2 63-25.5 141.5t-71.5 174.5q-97 189-181 249-83 59-209 59-180 0-308-130a513.58 513.58 0 0 1 -88.5 45.5 890.19 890.19 0 0 1 -105.5 34.5q-111 31-222 31a761.87 761.87 0 0 1 -111.5-8.5 940.87 940.87 0 0 1 -120.5-26.5 677.85 677.85 0 0 1 -118-43.5 550.48 550.48 0 0 1 -103-64.5q-93-73-171-228-75-154-75-318a648.37 648.37 0 0 1 25-180q23-86 63-173 38-82 147-253 38-59 61.5-98t33.5-59q20-42 29.5-96t9.5-115a761.46 761.46 0 0 0 -8.5-113.5 744.69 744.69 0 0 0 -26.5-113.5l-21-64a105.33 105.33 0 0 1 -5.5-22.5q-1.5-11.5-2.5-22.5-2-51 31-94t88-73.5q55-30.5 125.5-48a597.4 597.4 0 0 1 144.5-17.5q182 0 295 62 115 61 115 170l-4 39-14 44q-22 72-35 134.5t-13 119.5q0 30 2.5 58.5a539 539 0 0 0 7.5 54.5q5 26 11.5 49a360 360 0 0 0 15.5 44q19 41 129 212 65 102 108.5 188t65.5 158h9q117 0 214 20.5t166 58.5q69 38 107 92.5t36 122.5z"/></svg>