<svg viewBox="0 0 1678 1931" xmlns="http://www.w3.org/2000/svg"><path d="m983 1538v19q0 49 28 114 59 130 208 130 116 0 200-88 83-87 83-201 0-76-38-146-39-74-102-108-18 40-36.5 69t-35.5 47q-122 125-307 164zm-720-1116-22-25q-97 124-97 294 0 74 42 164 43 91 116.5 137.5t169.5 46.5l40-10q85-20 149.5-64.5a533.26 533.26 0 0 0 113.5-105.5q97-121 97-283 0-79-40-162-38-83-101.5-131.5t-137.5-48.5a448.91 448.91 0 0 0 -113 14.5q-56 14.5-112 44.5 58 61 58 97a64.6 64.6 0 0 1 -7.5 31 74.34 74.34 0 0 1 -20.5 24 111.28 111.28 0 0 1 -29 16 90.58 90.58 0 0 1 -32 6q-19 0-36.5-11.5t-37.5-33.5zm617 1028q65 0 100-17l29-11a302.46 302.46 0 0 0 79-46q36-29 64-79 58-101 58-217 0-115-45.5-193.5t-120.5-107.5q-43 112-109 175-65 62-152 107t-187 65l-2 29q-2 29 7 63t26 72q34 78 97.5 119t155.5 41zm798 415q0 29-24 47.5t-53 18.5q-22 0-44-18t-82-88q-123 74-256 74-96 0-172-42-77-44-119-133-44-91-44-175-121 0-209-55t-134-157q-23-51-34-97t-11-88l1-15q-144 0-244-60-97-58-153-175-28-59-41-112t-13-102q0-217 130-366l-51-59-37-40q-25-26-41.5-45.5t-27-34.5q-10.5-15-15-27.5a72 72 0 0 1 -4.5-24.5 80.25 80.25 0 0 1 7.5-33.5 98 98 0 0 1 20-29 103.78 103.78 0 0 1 29.5-20.5 81.37 81.37 0 0 1 35-8q55 0 107 67l111 147q142-78 286-78 123 0 239 61a533.65 533.65 0 0 1 103 72.5 430.39 430.39 0 0 1 77.5 92 437.42 437.42 0 0 1 48.5 108 419.38 419.38 0 0 1 17 119.5q0 64-9 91 73 16 132 51.5a442.64 442.64 0 0 1 106 89.5q94 111 94 248l-7 75q124 32 201 125 80 95 80 212a319.84 319.84 0 0 1 -7.5 67 538.1 538.1 0 0 1 -21.5 73q-28 76-63 115l42 51q28 26 39 42a62.11 62.11 0 0 1 11 36z"/></svg>