<svg viewBox="0 0 2352 1904" xmlns="http://www.w3.org/2000/svg"><path d="m354 1358q0-22-11-35t-31-19.5q-20-6.49-47-8.5t-60-2q-17 0-33 1.5a88.39 88.39 0 0 0 -29 7.5 52.76 52.76 0 0 0 -21 17q-8 11-8 30a59.84 59.84 0 0 0 5 25q5 11 17.5 18.5t34 11.5q21.5 4 54.5 4 72 0 100.5-12t28.5-38zm1706 143q0-35-29-50-30-16-122-16-89 0-89 57 0 15 4.5 25.5t16.5 18q12 7.5 33.5 11t56.5 3.5q70 0 99.5-11.5t29.5-37.5zm-1422 16q0-22-10-35t-29-20q-19-7-46.5-9t-63.5-2q-91 0-91 58a59.84 59.84 0 0 0 5 25q5 11 17.5 18t34.5 10.5q22 3.49 55 3.5 67 0 97.5-11.5t30.5-37.5zm1494-142q73 0 101-13t28-38q0-22-10.5-35t-30-19.5q-19.5-6.49-48-8t-63.5-1.5q-89 0-89 57 0 15 5 25.5t17.5 18q12.49 7.5 34.5 11t55 3.5zm-334-84q0-45-108-46l-390-4-358 1-260-1q-37-1-58 14.5t-21 41.5q3 23 28.5 44t86.5 27l54 5q61 6 76 41 16 41 35.5 58.5t55.5 15.5l44-1q37-2 61.5 7t37.5 26q35 47 67 57 31 10 86 10 152 0 186-49 20-30 45-38t55-9q34-1 56-3.5t33-6.5q22-7 46-22t54-57q32-47 52-61 36-28 36-50zm-1358-321-205 76 101 76h213l-1-41a486.23 486.23 0 0 1 17.5-150.5 558.81 558.81 0 0 1 60-139 600.43 600.43 0 0 1 96-120.5 615.37 615.37 0 0 1 276-155q80.5-21 168.5-20 86 2 165 20.5a685.83 685.83 0 0 1 154 56.5q75 38 133 90.5a503 503 0 0 1 98 121.5 659.78 659.78 0 0 1 64 144q23 75 17 156l-3 37h199l102-69-205-70q-27-6-27-36 0-17 13-29l174-160-242-15a47.89 47.89 0 0 1 -26.5-12.5q-11.5-10.5-11.5-27.5 0-2 21-64.5t65-187.5l-260 78a35.89 35.89 0 0 1 -27-11.5q-11-11.5-11-29.5v-4l28-249-224 170a41.46 41.46 0 0 1 -25 8q-22 0-34-22l-128-261-115 252q-11 23-36 23a37.35 37.35 0 0 1 -26-10l-215-184 4 255q1 18-10.5 29.5t-28.5 11.5l-259-86 95 237 2 15a35.6 35.6 0 0 1 -10 25.5 40.18 40.18 0 0 1 -24 12.5l-254 29 157 167q10 10 10 27 0 27-25 36zm186 111 3 41h1087l2-20v-17q0-145-71-264-37-61-87.5-105.5t-116.5-76.5a603.67 603.67 0 0 0 -134.5-47 709.74 709.74 0 0 0 -142.5-16q-116-1-217.5 39t-175.5 110q-74 70-114 162t-33 194zm1508 41h218v561q0 91-65 155-66 66-156 66h-1908q-92 0-158-66-65-64-65-155v-561h206l-75-56q-17-13-17-32a42 42 0 0 1 6-22q6-10 20-15l217-79-170-182q-11-11-11-26 0-17 8.5-27.5t25.5-12.5l282-31q-111-276-111-281 0-20 12-30.5t29-10.5l11 2 275 93-4-288q0-15 11-27t29-12a34.65 34.65 0 0 1 24 9l241 207 127-278q11-23 36-23t35 22l145 291 260-195q10-7 24-7 17 0 28 11t11 28v4l-33 281 277-84q17 0 27.5 12.5t10.5 27.5l-1 12-92 264 282 18q17 2 27 13t10 27q0 15-12 27l-193 178 217 75q26 6 26 36 0 22-18 34z"/></svg>