<svg viewBox="0 0 2116 1762" xmlns="http://www.w3.org/2000/svg"><path d="m1901 397q11-8 25-22.5t14-29.5q0-18-14-25.5t-25-7.5q-20 0-43 11a179 179 0 0 0 -42.5 28.5 171.74 171.74 0 0 0 -32.5 39q-13 21.5-13 43.5 0 7 7 9.5a44.22 44.22 0 0 0 15 2.5 90.11 90.11 0 0 0 26.5-4.5 232.85 232.85 0 0 0 29.5-11.5 258.91 258.91 0 0 0 28.5-15.5 243.87 243.87 0 0 0 24.5-17.5zm-212 421q30-3 43-24.5t13-49.5q0-19-6-32.5a219.2 219.2 0 0 0 -13-25q-7-11.5-13-22.5a51.35 51.35 0 0 1 -6-25q0-8 .5-16t.5-16q0-20-9-36t-34-24a39.37 39.37 0 0 0 -12.5-2 40.08 40.08 0 0 1 -11.5-1.5 25.21 25.21 0 0 1 -9.5-5.5q-4.5-4-6.5-14-9-24-31-32.5a121.25 121.25 0 0 0 -44-8.5q-12 0-19.5 3a48.94 48.94 0 0 0 -12.5 7q-5 4-8.5 7a11.32 11.32 0 0 1 -7.5 3q-6 0-9.5-2t-8.5-4.5a64.24 64.24 0 0 0 -13-4.5q-8-2-22-2a56.84 56.84 0 0 0 -29.5 8 86.19 86.19 0 0 0 -23.5 20.5 99.44 99.44 0 0 0 -15.5 27q-5.5 14.5-5.5 26.5a84.08 84.08 0 0 0 -30.5 6 106.1 106.1 0 0 0 -28.5 16.5 107.61 107.61 0 0 0 -22.5 25 72.17 72.17 0 0 0 -11.5 31.5q-3 18-8 26t-11.5 10.5a41.52 41.52 0 0 1 -15 2.5 80.75 80.75 0 0 0 -17.5 2q-33 6-44.5 22.5a97.23 97.23 0 0 0 -15.5 34q-4 17.5-7 32t-19 17.5a490.25 490.25 0 0 1 -56.5 6.5 137.52 137.52 0 0 0 -52.5 13.5 104.22 104.22 0 0 0 -17.5 11.5 168.2 168.2 0 0 0 -18 16.5q-8.5 9-16 18.5t-10.5 17.5q-5 8-9 14t-13 6q-11 0-18-2.5t-15-6a107.23 107.23 0 0 0 -19-6q-11-2.5-30-2.5-20 0-35.5 8a185 185 0 0 0 -29.5 19q-7 4-12 13.5l-10 19-10.5 17q-10.5 17-12.5 7.5a48.18 48.18 0 0 1 -18.5-3.5q-8.5-3.5-17-8t-17.5-8.5a46.2 46.2 0 0 0 -19-4q-28 0-58 15.5t-48 36.5a113.15 113.15 0 0 0 -13 18.5q-6 10.5-18 10.5-10 0-16.5-6.5a106.94 106.94 0 0 0 -13.5-11.5q-29-19-55-19-27 0-52 15-11 7-20.5 20.5t-20.5 13.5q-14 0-23.5-3.5t-20.5-7.5a251.7 251.7 0 0 0 -25-7.5q-14-3.5-35-3.5-12 0-26 5a98.05 98.05 0 0 0 -26 14 104.48 104.48 0 0 0 -21 21 81.66 81.66 0 0 0 -13 25 79.84 79.84 0 0 0 -4.5 24.5q-.5 13.5-1.5 27.5 0 10-2 14.5a16.71 16.71 0 0 1 -5.5 7 28 28 0 0 1 -9.5 4 86.81 86.81 0 0 0 -13 4.5 88.9 88.9 0 0 0 -32 21.5 141.94 141.94 0 0 0 -23.5 32.5 168.88 168.88 0 0 0 -14.5 38 156.94 156.94 0 0 0 -5 38 97.82 97.82 0 0 0 7.5 38q7.5 18 25.5 33a59.2 59.2 0 0 0 11 7.5 41.71 41.71 0 0 1 8.5 5.5 19.78 19.78 0 0 1 5.5 9q2 6 2 18a191.4 191.4 0 0 1 -2 27 185.09 185.09 0 0 0 -2 26q0 21 6 32a47.66 47.66 0 0 0 16 17.5 72.28 72.28 0 0 0 22 9.5q12 3 24 7 16 5 19 12.5t5 21.5q5 32 36 51.5t72 19.5h8q8-1 18.5-6a49.56 49.56 0 0 1 21.5-5q3 0 7.5 5.5a109.92 109.92 0 0 1 9 13l9 15 9.5 11.5q40 29 97 29a79.32 79.32 0 0 0 26.5-6.5 247.61 247.61 0 0 0 23-11.5q10.5-6 19-10.5t15.5-4.5a39.63 39.63 0 0 1 18 4q8 4 17.5 9a144.43 144.43 0 0 0 21.5 9q12 4 30 4a158.55 158.55 0 0 0 48.5-7.5 134.69 134.69 0 0 0 43.5-23.5 38.89 38.89 0 0 0 9.5-11.5q3.5-6.5 7.5-12.5a47.58 47.58 0 0 1 9.5-10.5 20.64 20.64 0 0 1 13.5-4.5q21 0 35 4t34 4q10 0 25-5.5a145.25 145.25 0 0 0 29.5-15 124.81 124.81 0 0 0 25.5-22q11-12.49 14-26.5 22 0 49-1a249.72 249.72 0 0 0 52.5-7.5 162.83 162.83 0 0 0 47.5-20.5q22-14 34-40a41.52 41.52 0 0 0 5-20.5q0-11.51 7-18.5 8-8 20.5-8.5t20.5-.5q15-1 33.5-8.5a177.9 177.9 0 0 0 35-19 170 170 0 0 0 29.5-26q13-14.51 17-29.5a33.92 33.92 0 0 0 4-20 61.67 61.67 0 0 1 2-22q5-21 23.5-27t36.5-13q56-23 83-73 8-13 9.5-26a196.25 196.25 0 0 1 5.5-28 63.29 63.29 0 0 1 8-18.5q5-7.5 5-18.5a92.34 92.34 0 0 0 -2.5-21.5 101.45 101.45 0 0 1 -2.5-23.5q23 0 41.5-9a121.55 121.55 0 0 0 33-23.5 151.16 151.16 0 0 0 24.5-32 211.78 211.78 0 0 0 16-34.5 33.2 33.2 0 0 0 2-16q-1-8 4-13a30 30 0 0 1 13-8q7-2 14.5-3.5a124.2 124.2 0 0 0 15-4 34.33 34.33 0 0 0 13.5-8.5 65.93 65.93 0 0 0 16-31 161 161 0 0 0 4-35 35.57 35.57 0 0 0 -2-13 35.57 35.57 0 0 1 -2-13zm-46-565q-2 6-4.5 17t-4.5 24q-2 13-4 27a185.09 185.09 0 0 0 -2 26q0 17 4 28t15 11q14 0 29.5-16.5t29-40.5a286.59 286.59 0 0 0 22.5-51.5q9-27.49 9-50.5 0-20-8.5-34t-25.5-14q-11 0-21.5 8.5a91.25 91.25 0 0 0 -18.5 20.5 162 162 0 0 0 -13.5 24.5q-5.5 12.5-6.5 20.5zm431-9q24 14 33 36a122.92 122.92 0 0 1 9 47 160 160 0 0 1 -22.5 83 312.73 312.73 0 0 1 -57 70 582.24 582.24 0 0 1 -74.5 58.5q-40 26.5-76 48.5-25 15-49 30.5a292.92 292.92 0 0 1 -52 26.5q17 25 23.5 50.5a207.89 207.89 0 0 1 6.5 51.5 160 160 0 0 1 -13.5 65.5 131.88 131.88 0 0 1 -38.5 50.5q-6 94-85 126-15 45-43.5 78t-62.5 49q-3 15-6.5 26.5a182.87 182.87 0 0 1 -8.5 22.5 235.78 235.78 0 0 1 -18 56.5 243.1 243.1 0 0 1 -33 53 222.75 222.75 0 0 1 -47 43 179.55 179.55 0 0 1 -61 26.5q-5 38-21 60a400.23 400.23 0 0 1 -32 39 371.59 371.59 0 0 1 -51 41q-27 18-71 23l-4 10q-23 54-76 79.5t-128 25.5q-29 36-66 54.5t-70 18.5a136.53 136.53 0 0 1 -17-1q-8-1-15-2l-15-2q-24 32-66.5 49a233.63 233.63 0 0 1 -87.5 17 191.43 191.43 0 0 1 -47.5-5.5q-21.5-5.5-36.5-14.5a386.51 386.51 0 0 1 -37 18 110.57 110.57 0 0 1 -44 9 359.37 359.37 0 0 1 -45.5-3 231.47 231.47 0 0 1 -45.5-10.5 190.62 190.62 0 0 1 -41.5-20 132.93 132.93 0 0 1 -33.5-30.5q-5 0-11 .5t-9 .5q-62 0-109.5-28.5t-64.5-86.5q-40-9-68.5-44.5t-28.5-86.5a78.88 78.88 0 0 1 1.5-15.5 96.33 96.33 0 0 0 1.5-18.5 158.44 158.44 0 0 1 -44-57 169.55 169.55 0 0 1 -15-71 216.59 216.59 0 0 1 9-63.5 233.12 233.12 0 0 1 24-54 195.18 195.18 0 0 1 34-42 162 162 0 0 1 40-27.5 163.83 163.83 0 0 1 15-59 178.79 178.79 0 0 1 34.5-50 164.94 164.94 0 0 1 50-35 146.37 146.37 0 0 1 61.5-13q42 0 86 15a142.14 142.14 0 0 1 51.5-33 169.26 169.26 0 0 1 59.5-11q39 0 75 19a222.07 222.07 0 0 1 67.5-44.5 199.91 199.91 0 0 1 79.5-16.5 148.19 148.19 0 0 1 49 8 102.65 102.65 0 0 1 26.5-31 192.47 192.47 0 0 1 35-22 161.76 161.76 0 0 1 37.5-13 166.71 166.71 0 0 1 34-4q20 0 33 1a104.28 104.28 0 0 1 27 6 103 103 0 0 1 14-16.5q7-6.5 14-13.5l6-6a140.83 140.83 0 0 1 31-23.5 203.8 203.8 0 0 1 35-15.5 286.45 286.45 0 0 1 36-9.5q18-3.5 35-5.5 9-38 40-68.5t76-40.5a165.75 165.75 0 0 1 36-62.5q25-27.5 67-45.5 16-44 51.5-69.5t78.5-25.5a94.18 94.18 0 0 1 19.5 2.5 125.41 125.41 0 0 0 26.5 2.5q-1-11-1-22v-22a790.54 790.54 0 0 1 5.5-92 556.4 556.4 0 0 1 18.5-91.5 436.83 436.83 0 0 1 34.5-84.5 306.31 306.31 0 0 1 53.5-72 130.33 130.33 0 0 1 41-29 116.53 116.53 0 0 1 49-11q18 0 30 6.5a148 148 0 0 1 22 14.5 208.88 208.88 0 0 0 20.5 14.5q10.5 6.5 24.5 6.5a55.22 55.22 0 0 0 18.5-3 143 143 0 0 0 16.5-7 143 143 0 0 1 16.5-7 55.22 55.22 0 0 1 18.5-3q29 0 60.5 10a213.8 213.8 0 0 1 58 28.5 165.2 165.2 0 0 1 43.5 44 99.69 99.69 0 0 1 17 56.5q0 15-2.5 23.5a108.65 108.65 0 0 1 -5 14q-2.51 5.5-5 10t-2.5 11.5a9.83 9.83 0 0 0 5 9 48.61 48.61 0 0 0 12.5 5q7.5 2 15.5 4a44.33 44.33 0 0 1 14 6z"/></svg>