<svg viewBox="0 0 2030 2194" xmlns="http://www.w3.org/2000/svg"><path d="m1011 353q-89-140-249-185a326.3 326.3 0 0 1 49-68 317 317 0 0 1 65.5-53.5 314.29 314.29 0 0 1 165.5-46.5 307.75 307.75 0 0 1 84.5 11.5 323.48 323.48 0 0 1 75.5 32 316.43 316.43 0 0 1 64 49.5 331.24 331.24 0 0 1 50 64q-98 13-176 64.5t-129 131.5zm196 1343-6 7q-48 23-48 75l4 22 3 15q0 4-7 4-334-167-605.5-304t-485.5-247q-62-32-62-51 0-34 29-34a152.76 152.76 0 0 1 48 14l46 23 468 204 506 219q54 23 82 35.5t28 17.5zm-994-1124a344 344 0 0 1 -91.5-110q-34.5-65-34.5-143 0-131 94-225 93-94 225-94 87 0 158 41.5t113 111.5l-31-1q-89-4-164.5 28.5t-138.5 94.5q-124 121-130 297zm1817 1533q0 41-27.5 65t-68.5 24q-40 0-109-35l-560-284q-45-22-45-73 0-28 18-51t44-23l16 4 614 265q78 34 98 55 20 23 20 53zm-224-1495 1-25q5-85-26.5-157.5t-88.5-134.5q-114-124-286-139 42-70 114-112t158-42q131 0 225 94t94 225a315.5 315.5 0 0 1 -112.5 243 300.92 300.92 0 0 1 -78.5 48zm-747-185a346 346 0 0 1 56.5-80.5 379.19 379.19 0 0 1 74-61 340.74 340.74 0 0 1 87-39 344.37 344.37 0 0 1 96.5-13.5q146 0 251 105 104 106 104 249 0 117-69 208-66 91-169 126 0-100-31-183.5t-94-154.5q-63-71-138.5-109.5t-167.5-46.5zm-768 160q0-148 103-251 103-104 252-104 98 0 181 50t136 145q-191 20-312 158-122 140-122 336-105-35-172-130-66-91-66-204zm719-83q166 0 284 118t118 283q0 166-118 284t-284 118q-169 0-285-116-118-118-118-286 0-167 118-283 118-118 285-118z"/></svg>