<svg viewBox="0 0 2496.18 1686" xmlns="http://www.w3.org/2000/svg"><path d="m2280 891q45 0 73-42t28-109q0-98-43-158-44-60-81-60-18 0-18 19l1 11q21 75 21 145 0 51-5 87.5t-14 62.5l-6 22q0 22 44 22zm-227 72q55-63 80.5-131.5a442.16 442.16 0 0 0 27.5-143.5q2-87-37-166.5t-108-146q-69-66.49-163.5-118t-204.5-82.5q9 8 44 43l96 96q125 23 210 117 86 95 86 204a326.62 326.62 0 0 1 -4 48.5 486.32 486.32 0 0 1 -13 58.5q-20 63-36 63a42.46 42.46 0 0 1 -26-9q-27-14-82-24-28-5-54-8.5a285.55 285.55 0 0 0 -50-2.5l-31 1q-25 1-39 0t-20.5-4q-6.49-3-8-7.5a37 37 0 0 1 -1.5-11.5q0-45 18-76.5t44-31.5q12 0 28.5 4t38.5 14q43 18 74 18 17 0 17-13 0-12-16.5-26t-47.5-34l-23-15-18-10q-28-8-36.5-15.5t-8.5-21.5l5-24 6-23q3-10 11-27t8-31q0-16-16-16-20 0-54 30l-16 19q-34 53-52 53l-74-9q-66 0-66 22 0 13 17.5 21.5t39 18a187.8 187.8 0 0 1 39 23q17.5 13.5 17.5 36.5 0 28-18 74-19 47-33 47-9 0-18-10-63-75-119-87l-22-3q-57-7-57-36 0-24 7-52.5t22-60.5q-32-47-73-47a104.4 104.4 0 0 0 -35 6 229.44 229.44 0 0 0 -33.5 15 280.08 280.08 0 0 0 -31.5 20q-15 11-29 21-13 9-20 13.5t-7 13.5q0 6 6 17.5t16 28.5q10 17 21.5 40.5t23.5 51.5l41-2a260.51 260.51 0 0 1 99 11q48 15 82 38a173.77 173.77 0 0 1 29 25 162.67 162.67 0 0 1 21 27.5 190.87 190.87 0 0 1 12.5 24.5q4.5 11 4.5 17 0 13-22.5 20t-55.5 16q-103 28-156 77-54 48-92 128-38 81-49 157l82 5q26-122 93.5-195t174.5-108l38-12q23-5 36-19a401.72 401.72 0 0 1 42.5-39 200.57 200.57 0 0 1 43.5-26 212.35 212.35 0 0 1 50-14.5q27-4.5 62-4.5 183 0 263 160zm-398 107q0-27-21-27-25 0-76 39-26 20-41.5 40.5t-23.5 40.5l-25 49 106-13a175.29 175.29 0 0 1 31.5-54 333.79 333.79 0 0 0 35.5-50 28.74 28.74 0 0 1 8.5-12.5q5.5-4.5 5.5-12.5zm408 48q0-15-14-15-8 0-47 31l-17 13q-134 92-314 135.5t-409 43.5q-229 0-448-51t-337-143a47.64 47.64 0 0 1 -10-7.5q-6-5.51-12.5-11a127.14 127.14 0 0 0 -13.5-10q-7-4.5-13-4.5-10 0-10 15 0 8 5 21a274.66 274.66 0 0 0 12.5 27.5q7.5 14.51 16 28.5t14.5 24a779.18 779.18 0 0 0 81 111 543.34 543.34 0 0 0 97 87q52 38 118 67a1008.79 1008.79 0 0 0 141.5 49.5 1162 1162 0 0 0 158 31 1341.58 1341.58 0 0 0 169.5 10.5q115 0 208-9.5t165-29.5q145-39 252.5-121t175.5-218l7-13q10-20 17-35t7-27zm-1036-711 86 52q32-24 61.5-48t70.5-37q8-3 8-8 0-27-43-57l-27-19q-66-46-88-46-17 0-32 18l-28 30q-26 28-41 46t-15 32q0 8 48 37zm130 306-10-14q-11-12-21-33.5a532.3 532.3 0 0 1 -20-50.5q-19-64-75-88-11-5-22.5-11.5a233.25 233.25 0 0 1 -22.5-14.5q-39-30-75-30-100 0-100 123a158.79 158.79 0 0 0 2 26q2 12 5 25v6q41 30 67 88l12 41 10 41 108-20q40-9 89-52a169.64 169.64 0 0 1 26-20q13-8 27-16zm-265 462q20 5 41 9.5t45 7.5a99.92 99.92 0 0 1 8.5-28q6.5-14 15.5-31l43-77q14-20 30-39t16-43q0-11-13-11-47 0-103 65a427.55 427.55 0 0 0 -49 68.5 385.33 385.33 0 0 0 -34 78.5zm-197-57q4-87 37-154.5t87-99.5l-11-48q-11-49-33.5-75t-59.5-24l-51 3q-33 1-62-26-54-51-76-51-48 0-76.5 34t-28.5 99a303 303 0 0 0 7 65q7 32 23.5 65t44 68.5q27.5 35.5 69.5 76.5a630.9 630.9 0 0 0 55 31.5q32 16.5 75 35.5zm-211-791q-81 3-81 77a171.18 171.18 0 0 0 5.5 44.5 366 366 0 0 0 13 39.5q7.5 19 15.5 36a366.64 366.64 0 0 1 14 34 150.71 150.71 0 0 1 60-12q74 0 134 59 12 11 32 13t44 3l-5-43q0-71 37-128-11-21-29-33t-42-13q-26-2-43.5-5t-24.5-10q-20-15-35.5-27a233.48 233.48 0 0 0 -30-20 128.68 128.68 0 0 0 -30-12 113.68 113.68 0 0 0 -34.5-3zm747-205q-78 0-155 7a1197.78 1197.78 0 0 0 -153 24 1081.19 1081.19 0 0 0 -150.5 45.5 941.71 941.71 0 0 0 -146.5 71.5q20 17 39 24.5a144.27 144.27 0 0 0 38 9.5q61 4 113 56 15 15 32 15 12 0 29-33l12-26 14-23 43-49q90-101 155-101 30 0 70 16t89 51l19 13 20 14 8 3q41-37 151-103-65-7-122-11t-105-4zm220 260 30 22q84-63 175-85-29-32-48.5-52.5t-33.5-32q-14-11.5-24-16t-18-4.5q-11 0-29.5 9t-41.5 26l-19 14q-41 29-62 46t-21 26q0 11 17 11l30 6 25 14zm-1168 204 5-40q0-27-23-27-60 0-109 76-50 75-50 158a190.19 190.19 0 0 0 9.5 60.5 278.9 278.9 0 0 0 26.5 56.5q34 55 85 55a51.42 51.42 0 0 0 30-9q13-9 12-29l-5-112q-3-53 5-99.5t14-89.5zm2213 165q3 103-43.5 168t-140.5 85l-46 10q-12 3-22.5 6a57.83 57.83 0 0 0 -20 10.5q-9.49 7.5-18 20.5t-15.5 36q-103 325-316 462-215 137-594 137-530 0-802-268l-4-3q-52-50-97-130-23-42-37-74.5a585.39 585.39 0 0 1 -22-58.5q-8-28-16-46.5t-18-30a68.14 68.14 0 0 0 -23-17.5q-13-6-32-8-53-7-95.5-30a242.59 242.59 0 0 1 -72-58.5q-29.5-35.5-45.5-81.5t-16-100q0-65 21.5-131.5t56.5-116.5a339.64 339.64 0 0 1 37-44 234.38 234.38 0 0 1 46-35.5q26-15.5 60.5-28t81.5-21.5v-24q0-67 54-111a198.45 198.45 0 0 1 58-32.5q32-11.5 69-9.5l22 1q68-53 149.5-95a1150 1150 0 0 1 172.5-71.5 1236.36 1236.36 0 0 1 189.5-45 1294.82 1294.82 0 0 1 201.5-15.5q146 0 278 20.5t246.5 62q114.5 41.5 210.5 105a819.29 819.29 0 0 1 170 149.5l26 30q14 17 31 26.5t40 11.5q68 6 118.5 33.5a268.92 268.92 0 0 1 85 72q34.5 44.5 52 105.5t19.5 135z"/></svg>