<svg viewBox="0 0 2224 2073.23" xmlns="http://www.w3.org/2000/svg"><path d="m963 939.16q0-11-11-11l-12 2q-191 85-337 85-257 0-419-219-7-9-17-23.5t-21-14.5q-15 0-15 51 0 66 12 102l10 29q23 67 57 119.5a388.05 388.05 0 0 0 84 92.5q49 40 106 59t122 19q83 0 165.5-29.5t144.5-82.5q62-54 96.5-100.5t34.5-78.5zm-821-408q0 12 11 12l31-9a242.2 242.2 0 0 1 41-8.5 356.41 356.41 0 0 1 42-2.5q31 0 55.5 6.5a238.32 238.32 0 0 1 45.5 17 232.51 232.51 0 0 1 39.5 25q18.5 14.51 36.5 30.5 7 6 13 6 15 0 15-44 0-58-45-105-23-24-49.5-35t-58.5-13q-31-2-63 12a277.2 277.2 0 0 0 -57.5 33.5q-25.5 19.5-41 40.5t-15.5 34zm547 115q0 11 18 11a172.63 172.63 0 0 0 35-3.5q17-3.49 33-7.5t32-7.5a154.24 154.24 0 0 1 33-3.5 160.36 160.36 0 0 1 49 8 222.81 222.81 0 0 1 48 22 292.53 292.53 0 0 1 44 33 315.22 315.22 0 0 1 38 41q6 10 12 10 13 0 13-36 0-76-48-133-48-56-126-56a189.34 189.34 0 0 0 -46 5.5 205 205 0 0 0 -42 15.5 254.09 254.09 0 0 0 -36 23 188.46 188.46 0 0 0 -31 30q-26 34.01-26 48zm-228 856q-120 0-235-97-117-97-171-228-55-131-55-245 0-130 27-264 14-69 32-140t39-146q22-76 41-131t39-88q29-50 72.5-81t99-49q55.5-18 122-24.5t142.5-8.5q96-2 184 20.5a814.42 814.42 0 0 1 170 64.5q163 83 247 229 11 20 22.5 37.5t11.5 41.5l-3 26-20 111-21 83q-51 209-103 354.5t-109 231.5q-113 168-331 254-60 24-109.5 36.5t-91.5 12.5zm1605 138q10 0 10-16v-5q-10-47-40.5-87.5t-80.5-77.5q-51-36-103-54.5a322.84 322.84 0 0 0 -109-18.5 287.48 287.48 0 0 0 -117.5 25q-56.51 25-101.5 73-23 24-45.5 58t-45.5 80q-22 46-33.5 85.5t-11.5 73.5q0 52 24 52a15.64 15.64 0 0 0 13-6.5 48.91 48.91 0 0 1 13-11.5q15-17 30.5-34a367.1 367.1 0 0 0 29.5-37q130-176 323-176 82 0 191 47 11 8 26.5 19t27.5 11zm-790-272q90 0 143-57t53-156a270.79 270.79 0 0 0 -3.5-43.5 245 245 0 0 0 -9-38q-5.51-16.5-12.5-27t-15-10.5q-13 0-25 23-63 128-228 216-27 15-27 28 0 9 9.5 20t26 21q16.5 10 39 17t49.5 7zm424-383-23-8q-15 0-15 22 0 76 63 142t135 66q63 0 117-41 56-44 56-96 0-22-29-20l-49 1q-76 2-139.5-15.5t-115.5-50.5zm524 524q0 82-39 182-20 51-39.5 94t-40.5 80q-30 53-61 91.5t-66 64a263.36 263.36 0 0 1 -76 38.5q-41 13-90 14-39 1-107-12t-166-37q-196-50-287-133t-155-270l-48-139-45-140q121-127 198-357 17-50 41.5-135.5t55.5-210.5q146-61 307-61 147 0 244.5 30t135.5 87q38 57 76 154.5t80 236.5q82 276 82 423z"/></svg>