<svg viewBox="0 0 2010.11 1983.12" xmlns="http://www.w3.org/2000/svg"><path d="m2010.11 1011a38.4 38.4 0 0 1 -9 25 79.41 79.41 0 0 1 -23.5 19 133.11 133.11 0 0 1 -33 12.5 162.27 162.27 0 0 1 -38.5 4.5q-71 0-131-46-30-23-64.5-68t-76.5-114a410.76 410.76 0 0 0 -66.5-81.5q-38.49-36.5-90.5-66.5t-119-53.5q-67-23.5-151-41.5l-204 968q-22 108-114 206-87 95-217 152-65 28-127.5 41a717.87 717.87 0 0 1 -122.5 15q-87 2-164.5-30.5t-135-88.5a422 422 0 0 1 -91-130.5 353.42 353.42 0 0 1 -31.5-155.5 376.82 376.82 0 0 1 19.5-108.5q17.51-51.5 54.5-99.5 72-93 200-149a629.86 629.86 0 0 1 128-41.5 647.5 647.5 0 0 1 132-13.5q230 0 366 133l259-1236q6-28 28-45.5a78.16 78.16 0 0 1 50-17.5q97 0 276 113 91 56 163 121a936.79 936.79 0 0 1 129 143 614.3 614.3 0 0 1 86 166q30 89 26 192l-3 77q-2 44 9 74.5t31 48.5q56.01 51 56 76z"/></svg>