<svg viewBox="0 0 1259.87 2395" xmlns="http://www.w3.org/2000/svg"><path d="m1038.87 837q8 0 15 6a47.44 47.44 0 0 1 11.5 15 88.56 88.56 0 0 1 7 20 95.15 95.15 0 0 1 2.5 21q0 90-68 150-68 59-167 59-56 0-56-22 0-17 17.5-31t32.5-20q63-22 127-116 17-25 29-41a238.62 238.62 0 0 1 21-25q9-9 15.5-12.5a26.4 26.4 0 0 1 12.5-3.5zm-476-436q0 29-21 43.5a79.25 79.25 0 0 1 -46 14.5q-23 0-40-11.5t-17-33.5q0-25 21.5-40.5t45.5-15.5q50 0 57 43zm-141 108q0 17-12 39.5t-35 51.5l-21 26-60 103q-22 37-38 57t-32 20q-10 0-16.5-6.5a56.52 56.52 0 0 1 -11-16 69.33 69.33 0 0 1 -6-20 132.75 132.75 0 0 1 -1.5-18.5q0-23 8-51.5t23-64.5a625.56 625.56 0 0 1 32.5-67q17.49-31 38-54t42-36.5q21.5-13.5 44.5-13.5l14 1q30.99 15 31 50zm753 309q0-168-71-290a431.14 431.14 0 0 0 -87-107.5 513 513 0 0 0 -116-78q-64-31.5-139-48a724.09 724.09 0 0 0 -156-16.5q-209 0-344 132-68 67-115 158.5t-57 211.5l-3 32q-4 51 21.5 96t71.5 86q92 81 268 133a1133.53 1133.53 0 0 0 178.5 37.5 1461.61 1461.61 0 0 0 184.5 11.5q134 0 211-35 40-18 69-44.5t48-65q19-38.5 27.5-91t8.5-122.5zm85-1q0 85-13 150t-38 112q-50 94-149.5 138.5t-248.5 44.5q-53 0-113-5t-131-16l-8 105 118 5a19.48 19.48 0 0 1 13 7 21.23 21.23 0 0 1 5 14l-3 16q-15 53-15 160 0 212 88.5 379t250.5 282l8 15q0 16-12 19l-331 151-7 1-12-4q-1 0-26.5-19.5t-64-60q-38.5-40.5-83-104.5t-82.5-152.5q-38-88.5-63.5-203.5t-25.5-259a1656.08 1656.08 0 0 1 18-242q3-18 22-16l124 6 9-113q-226-48-358-159-66-56-101.5-119t-29.5-135l4-48q6-69 23.5-129.5a642.41 642.41 0 0 1 44.5-113.5 612.33 612.33 0 0 1 61.5-97.5 794.65 794.65 0 0 1 73.5-82.5q158-152 398-152a650 650 0 0 1 107 9q23-55 44.5-100t41.5-81q9-19 34-19 17 0 28.5 11.5t11.5 26.5l-6 19-75 156q111 26 198 79.5t147 130.5q60 77 91.5 176.5t31.5 217.5z"/></svg>