<svg viewBox="0 0 1836 2270" xmlns="http://www.w3.org/2000/svg"><path d="m795 949q0-59 44-100a143.15 143.15 0 0 1 48.5-31 158.63 158.63 0 0 1 56.5-10q60 0 104 41t44 100a129.7 129.7 0 0 1 -12 55 141.59 141.59 0 0 1 -32.5 45 155.37 155.37 0 0 1 -47.5 30 147.14 147.14 0 0 1 -56 11 152.29 152.29 0 0 1 -58-11 155.37 155.37 0 0 1 -47.5-30 136.16 136.16 0 0 1 -43.5-100zm922-456q-7-10-29.5-24t-62.5-30q-40-16-98.5-32t-136.5-30q-45 57-78.5 110t-56.5 101l94 29q73-10 135.5-23.5t113.5-33.5q103-37 119-67zm-259 281 85-75q-128 32-283 48t-342 16q-189 0-345-16t-284-48q77 69 183.5 158.5t245.5 202.5q92 74 203 74 70 0 135-39 56-32 131.5-91.5t175.5-146.5zm-416 1317q0-15-16-28-72-60-104-129a284.54 284.54 0 0 1 -78.5 97.5q-50.5 40.5-122.5 70.5l-55 23q38 14 91.5 21t123.5 7q35 0 64.5-2.5t51-9.5q21.5-7 33.5-19t12-31zm-566-1476q28-14 71.5-25t102.5-19q59-8 121-12t128-4q161 0 247 12 43-74 73.5-125.5t50.5-80.5q-97-10-184-14t-168-4q-110 0-205.5 5.5t-178.5 16.5q-167 21-279 57-113 36-136 71 11 16 42 33t77.5 33q46.5 16 107 30.5t130.5 25.5zm1360-122-3 28q-12 57-124 178-57 60-147 140.5t-219 181.5q-49 39-96 79.5t-94 82.5q-92 84-108 159-13 60-19.5 140t-4.5 181l2 181q1 51 38 91t113 69l50 19q73 27 110 56t37 63q0 22-26.5 45t-85 41.5q-58.5 18.49-152 30t-226.5 11.5a1078.69 1078.69 0 0 1 -142.5-9 715.19 715.19 0 0 1 -128.5-29q-119-39-119-100 0-70 201-145 66-24 105.5-78t39.5-132q0-270-27-426-5-25-25.5-54.5t-51.5-62q-31-32.5-69-66.5t-78-67l-143-119q-120-100-206-175t-137-132q-100-112-100-182 0-120 255-194 257-74 663-74 121 0 228.5 7t205.5 21q52-61 103-107t102-79q101-67 152-67 23 0 38.5 17.5t15.5 43.5a37 37 0 0 1 -6 21 64.06 64.06 0 0 1 -14.5 15.5 93.65 93.65 0 0 1 -18.5 11q-10 4.5-18 8.5a804.26 804.26 0 0 0 -223 159q171 34 262 89t91 128z"/></svg>