<svg viewBox="0 0 1856 2154" xmlns="http://www.w3.org/2000/svg"><path d="m813 1747q45 0 118-7t176-21q65-88 127.5-162.5t123.5-134.5l-2-25q-102 73-240 111t-303 38q-46 0-102-5.5t-122-17.5q-66-12-113.5-25t-78.5-27l4 196q51 37 155.5 58.5t256.5 21.5zm172 275q145-31 256-74t204-102a911.72 911.72 0 0 0 89.5-63.5 978.53 978.53 0 0 0 77.5-69.5 899.92 899.92 0 0 0 62-68q26-32 42-62.5a265.52 265.52 0 0 0 23.5-62 290.84 290.84 0 0 0 7.5-67.5q0-94-86-94-24 0-53.5 11t-66 36q-36.49 25-81.5 66.5t-100 102.5q-26 28-70 82t-105 138q-57 78-106.5 134.5t-93.5 92.5zm-385-566q-3-207-18-428t-43-461a991 991 0 0 1 -119-27.5 1116.93 1116.93 0 0 1 -120-43.5q34 172 54.5 318t26.5 268l15 307q59 43 204 67zm1061-207q43 0 79 14t61.5 40.5q25.5 26.51 40 64t14.5 85.5q0 56-14 105a406.76 406.76 0 0 1 -41.5 95.5q-27.49 46.5-68 91.5t-94.5 93q-78 69-179.5 127.5a1399.52 1399.52 0 0 1 -215.5 100.5 1479.23 1479.23 0 0 1 -234.5 65q-120.5 23-235.5 23-119-1-223-16t-194-45q-180-60-268-169.5t-88-262.5q0-228 207-362 30-20 48-33t26-21l-7-156q-3-74-16-173t-35-225q-21-126-35-203.5t-22-106.5a133.75 133.75 0 0 1 -4-26q-1-15-1-35 0-86 104-160 53-38 123.5-66.5t161.5-50.5q181-43 388-43 132 0 242 18.5t201 54.5q91 36 138 82t42 103l-2 31q-10 37-24 134t-31 255q-17 158-26.5 319t-11.5 329q101-77 195-77z"/></svg>