<svg viewBox="0 0 1680 2139.06" xmlns="http://www.w3.org/2000/svg"><path d="m1562 1653.06q0-14-9.5-39.5t-31.5-63.5q-66-117-113.5-230a1508.92 1508.92 0 0 1 -75.5-228q-11 17-23 35a432.16 432.16 0 0 1 -26 35q-13 17-58 68.5t-122 139.5q-78 88-158.5 166t-167.5 150q-87 71-169.5 128t-161.5 100q-17 10-33 20.5t-33 20.5l-38 25q196 41 376 41 135 0 252-22t219-65a987.52 987.52 0 0 0 191.5-107q89.51-64 169.5-148 12-12 12-26zm-1372-63q59-26 126.5-76t150.5-122l84-74q171-149 320-301a3562 3562 0 0 0 275-315q16-19 35-57-30-39-57-95.5t-50-131.5a1346.88 1346.88 0 0 1 -38.5-148 1291.1 1291.1 0 0 1 -20.5-146l-68-6-73 7q11 88 17 171t6 164q0 160-73 237-75 78-178 78a327.48 327.48 0 0 1 -125.5-27q-60.49-26-105.5-81-46-57-80-151-17-48-31-91t-25-81q-22-76-18-80l-9-35q-47 0-88 19l-29 14q14 37 24.5 83t18.5 100q8 55 12 106.5t4 102.5q0 78-11.5 148.5a704.53 704.53 0 0 1 -36.5 136.5q-11 28-20.5 43.5t-9.5 26.5l6 31q8 51 20 101.5a1006.53 1006.53 0 0 1 19 105.5q8 54 15 139.5t14 203.5zm1490 66q0 59-45 105-363 378-917 378a1519.47 1519.47 0 0 1 -205-14q-103-14-212-33l-48-8q-43-7-76-17.5a117 117 0 0 1 -55-36.5q-22-26-33.5-74t-11.5-131q0-94-2.5-188.5t-10-190q-7.5-95.49-21-190.5t-35.5-189q-8-34-8-64 0-32 12-55 65-115 65-294 0-112-30-277l-10-35q-29-76-29-97 0-32 30-61a240.81 240.81 0 0 1 37.5-26.5 270.17 270.17 0 0 1 47.5-21.5q28-10 49.5-15.5a207.06 207.06 0 0 1 38.5-6.5l43-3a116.32 116.32 0 0 1 29 1.5 57 57 0 0 1 24.5 11.5q11.5 9 24 24.5t29.5 39.5q45 65 167 65 47 0 87-10t69.5-27.5q29.5-17.49 47-41.5t19.5-52l-3-38q-2-26 12.5-41.5t41.5-24q27-8.49 64-12t81-6.5q20-1 127 14 28 4 40 39t21 97l7 45 33 134q30 124 77 207t124 133q25 18 25 58v48l1 45a1023 1023 0 0 0 20.5 171 1355.42 1355.42 0 0 0 46.5 169 1614.73 1614.73 0 0 0 68.5 167q39.49 83 86.5 166 56 101.01 56 163z"/></svg>