<svg viewBox="0 0 2361.97 2385" xmlns="http://www.w3.org/2000/svg"><path d="m1103 1667 264-645q-14-6-28-12.5a203.58 203.58 0 0 1 -25.5-14 84.57 84.57 0 0 1 -19-16.5 31.81 31.81 0 0 1 -7.5-21q0-35 16-90 9-30 32.5-82.5t62.5-129.5q38-78 61-122.5t30-55.5l-61-19q-66 133-122 244.5t-107 202.5q-14 26-42 26-17 0-62-12l-375 586q56 26 151 66t232 95zm-454-192 370-577-26-9q-61-18-61-35 0-96 21-138 11-22 71.5-104.5t171.5-226.5l-68-24-859 936 41 21q75 38 159 77.5t180 79.5zm697 282 233 82 145-705-32-11q-20-6-27.5-11.5t-7.5-20.5q0-23 9-56.5t23-79.5l120-383-83-25-88 244q-43 120-94 237-14 30-43 30-28 0-61-10l-265 646zm753 241 14-1344-71-19-10 49q-29 148-55 262t-49 195q-4 16-11 24.5t-28 8.5a210.55 210.55 0 0 1 -24-1.5 214.3 214.3 0 0 1 -25.5-4.5q-12.49-3-23-6.5a130.42 130.42 0 0 1 -16.5-6.5l-147 709q121 38 231.5 71.5t214.5 62.5zm263 157q0 22-1 47.5t-5 54.5q-6 60-21 87-17 26-72 33-28 3-57 5.5t-60 2.5a1099.73 1099.73 0 0 1 -148.5-10 1170.08 1170.08 0 0 1 -147.5-30q-91-24-206.5-58.5t-256.5-82.5q-404-134-727-277.5t-573-296.5q-69-43-78-189l-8-134q-4-59 8.5-90t32.5-31q7 0 31.5 13.5t69.5 34.5l56 28 850-928-164-55-132 134-171 167q-42 42-70 63.5t-43 21.5q-18 0-70-24l-305 247q-40 40-59 40-18 0-18-36 0-29 4-50t24-36l268-209q-48-22-48-40 0-45 21.5-93.5a185.53 185.53 0 0 1 64.5-78.5l279-196-57-22-3 4q-96 62-187 129t-185 130q-20 13-33.5 19.5t-24.5 6.5a55 55 0 0 1 -19.5-4 119.4 119.4 0 0 1 -21.5-11l-56-34q-20-12-30.5-20.5t-10.5-16.5v-3a308.32 308.32 0 0 1 13.5-52.5 185.62 185.62 0 0 1 22.5-43.5q25-39 95-76 35-20 87.5-47.5t122.5-65.5q-8-4-18.5-8.5t-19.5-9a140.93 140.93 0 0 1 -15-8.5q-6-4-6-9 0-11 15.5-20t28.5-9q28 0 72 22l14 7q30-14 60.5-30.5t59.5-16.5a232.74 232.74 0 0 1 55 15q14 6 21.5 13a47.67 47.67 0 0 1 11.5 16.5q4 9.49 4.5 23t.5 31.5l-2 26 67 23 82-55a60.52 60.52 0 0 1 35-11q18 0 69 20 50 18 50 57 0 14-1.5 31.5a380.21 380.21 0 0 1 -5.5 38.5l314 106 11-15q40-57 67-57 20 0 71 15 25 8 40 15t22.5 14.5a37.84 37.84 0 0 1 10 16 65.21 65.21 0 0 1 2.5 18.5 280.79 280.79 0 0 1 -2 35.5 198.58 198.58 0 0 1 -5 26.5l63 20q40-76 67-76 36 0 95 18 58 17 65 28 10 10 10 28 0 11-11 69l87 25 10-33q15-52 60-52a172.11 172.11 0 0 1 47 6.5q23 6.5 43 11.5 11 3 23.5 6.5a111.72 111.72 0 0 1 23.5 9.5 60.47 60.47 0 0 1 18 14.5 31.19 31.19 0 0 1 7 20.5l-9 76 176 45 31 6q81 14 81 48 0 23-19 23-28 0-60.5-8.5t-68.5-16.5l-15 1345 96 26 26 4q28 4 48 19 16 14 16 88z"/></svg>