<svg viewBox="0 0 1964 1990" xmlns="http://www.w3.org/2000/svg"><path d="m1726 1511q0-76-121-118-156-54-310.5-81a1806.07 1806.07 0 0 0 -311.5-27 1835.24 1835.24 0 0 0 -316.5 27 1882.25 1882.25 0 0 0 -306.5 81q-123 44-123 118 0 55 60 127 61 71 149 122a661.67 661.67 0 0 0 96 43.5q51 18.5 111 30.5 61 11 142.5 17t187.5 6q108 0 192.5-7t147.5-21q64-13 116.5-33t94.5-46a616.64 616.64 0 0 0 77-56 422.28 422.28 0 0 0 61-64q54-67 54-119zm238-281q0 146-65 290a635.49 635.49 0 0 1 -81 134.5q-49 62.5-116 117.5-132 108-315.5 163t-403.5 55q-222 0-405.5-55t-317.5-164q-66-54-114.5-117.5a717.24 717.24 0 0 1 -81-133.5 685.06 685.06 0 0 1 -64.5-290q0-116 42-217a750.85 750.85 0 0 1 50-99.5 765 765 0 0 1 67-94.5q38-47 103-109t157-139q103-86 168.5-144t94.5-87q29-31 52-61a640.54 640.54 0 0 0 41-60q34-57 61.5-97t51.5-65.5q24-25.5 46-39a127.54 127.54 0 0 1 46-17.5h5q23 4 46 18.5t47.5 40.5q24.49 26 52 65.5t60.5 94.5q66 112 220 240 143 119 236 203.5t139 136.5q91 105 134.5 210.5a572.89 572.89 0 0 1 43.5 220.5z"/></svg>