<svg viewBox="0 0 1812 2047" xmlns="http://www.w3.org/2000/svg"><path d="m506 513h-10q-28 0-28-14l15-67q3-8 9-8 3-2 7.5 8.5a259.08 259.08 0 0 1 9 25q4.5 14.5 7.5 27t2 13.5q0 11-12 15zm1109 476v-70q0-14-8.5-23t-22.5-9h-475q-14 0-22.5 9t-8.5 23v70a31.36 31.36 0 0 0 8.5 21.5q8.51 9.5 22.5 9.5h475q14 0 22.5-9.5a31.36 31.36 0 0 0 8.5-21.5zm0 292v-74a31.36 31.36 0 0 0 -8.5-21.5q-8.5-9.5-22.5-9.5h-58q-12 0-21.5 9.5t-9.5 21.5v74a30.75 30.75 0 0 0 9.5 22.5q9.49 9.49 21.5 9.5h58q14 0 22.5-9.5a32.6 32.6 0 0 0 8.5-22.5zm0 222v-73a30.83 30.83 0 0 0 -8.5-22q-8.51-9-22.5-9h-58q-12 0-21.5 9a29.15 29.15 0 0 0 -9.5 22v73q0 14 9.5 22.5a31.36 31.36 0 0 0 21.5 8.5h58q14 0 22.5-8.5t8.5-22.5zm0 223v-74a31.36 31.36 0 0 0 -8.5-21.5q-8.5-9.5-22.5-9.5h-58q-12 0-21.5 9.5t-9.5 21.5v74q0 12 9.5 21.5t21.5 9.5h58q14 0 22.5-9.5a31.36 31.36 0 0 0 8.5-21.5zm-208-445v-74a31.36 31.36 0 0 0 -8.5-21.5q-8.5-9.5-22.5-9.5h-58a30.75 30.75 0 0 0 -22.5 9.5q-9.5 9.5-9.5 21.5v74a32.45 32.45 0 0 0 32 32h58q14 0 22.5-9.5a32.6 32.6 0 0 0 8.5-22.5zm0 222v-73a30.83 30.83 0 0 0 -8.5-22q-8.51-9-22.5-9h-58a31.6 31.6 0 0 0 -22.5 9 29.15 29.15 0 0 0 -9.5 22v73q0 14 9.5 22.5a32.6 32.6 0 0 0 22.5 8.5h58q14 0 22.5-8.5t8.5-22.5zm0 223v-74a31.36 31.36 0 0 0 -8.5-21.5q-8.5-9.5-22.5-9.5h-58a30.75 30.75 0 0 0 -22.5 9.5q-9.5 9.5-9.5 21.5v74q0 12 9.5 21.5a30.75 30.75 0 0 0 22.5 9.5h58q14 0 22.5-9.5a31.36 31.36 0 0 0 8.5-21.5zm-208-445v-74q0-12-9.5-21.5a30.75 30.75 0 0 0 -22.5-9.5h-58q-14 0-22.5 9.5a31.36 31.36 0 0 0 -8.5 21.5v74a32.6 32.6 0 0 0 8.5 22.5q8.51 9.49 22.5 9.5h58a32.45 32.45 0 0 0 32-32zm0 222v-73a29.15 29.15 0 0 0 -9.5-22 31.6 31.6 0 0 0 -22.5-9h-58q-14 0-22.5 9a30.83 30.83 0 0 0 -8.5 22v73q0 14 8.5 22.5t22.5 8.5h58a32.6 32.6 0 0 0 22.5-8.5q9.5-8.5 9.5-22.5zm0 223v-74q0-12-9.5-21.5a30.75 30.75 0 0 0 -22.5-9.5h-58q-14 0-22.5 9.5a31.36 31.36 0 0 0 -8.5 21.5v74a31.36 31.36 0 0 0 8.5 21.5q8.51 9.49 22.5 9.5h58a30.75 30.75 0 0 0 22.5-9.5q9.5-9.5 9.5-21.5zm-121-1421q0-36-29-44-14-5-43.5-8t-74.5-2l-135 3-38-1a103.38 103.38 0 0 0 -25 1 43.26 43.26 0 0 0 -21 9.5q-9 7.5-14 21.5t-5 37q0 19 4.5 30a33.91 33.91 0 0 0 15 17q10.5 6 28.5 7.5t44 1.5h8q25 0 25 29l-2 14 3 135v37q0 42 19 57.5t55 15.5q42 0 52.5-24t9.5-69l-3-171q0-16 8-22t32-4l31 1q33 2 44-15t11-57zm-140 1073v-448q0-32-22-54.5t-54-22.5h-586q-32 0-54.5 22.5t-22.5 54.5v448a79 79 0 0 0 6 30.5 76 76 0 0 0 16.5 25 77.45 77.45 0 0 0 24.5 16.5 75.32 75.32 0 0 0 30 6h586q32 0 54-23t22-55zm0 367v-78a48 48 0 0 0 -14-34.5 45.48 45.48 0 0 0 -34-14.5h-643a45.48 45.48 0 0 0 -34 14.5 48 48 0 0 0 -14 34.5v78a47.8 47.8 0 0 0 48 48h643a47.8 47.8 0 0 0 48-48zm-635-1126q0 50 67 50 28 0 43-11.5t20-32.5l6-21q14-23 55-23 21 0 32 6.5t16 15.5a87.67 87.67 0 0 1 8 20.5 67.19 67.19 0 0 0 9 20.5q6 9 18 15.5t36 6.5q58 0 58-49l-4-33-8-29-31-96-17-67a388.8 388.8 0 0 0 -41-104q-26-45-81-45-91 1-127 156l-13 60q-18 78-32 117t-14 43zm855-153-1 99v28q0 70 51 70 30 0 41.5-20a130.68 130.68 0 0 0 15.5-44.5 403.63 403.63 0 0 0 5-44.5q1-20 10-20 12 0 17.5 18.5t12 41a174.62 174.62 0 0 0 17.5 41q11 18.5 34 18.5 22 0 35-19.5a199.37 199.37 0 0 0 21.5-43q8.51-23.5 14.5-43t15-19.5q11 0 11 12 0 44 10 81 9 38 47 38 55 0 55-94 0-197-11-258-11-57-50-57-42 0-74 74-55 127-74 127-11 0-18-16.5a289.74 289.74 0 0 0 -15-30.5l-15-42q-20-58-41-87t-48-29q-35 0-51 37-7 17-10 63t-5 120zm-1006-466h1508q62 0 107 45t45 105v1897h-1812v-1897q0-60 45-105t107-45z"/></svg>