<svg viewBox="0 0 1670 2213" xmlns="http://www.w3.org/2000/svg"><path d="m888 575v-23q0-15-33-15h-45q-28 0-28 22v39a380.48 380.48 0 0 1 -2 43q-2 17-8 27a32 32 0 0 1 -17 14q-11 4-29 4-26 0-42-5t-24-14a45.06 45.06 0 0 1 -10.5-21.5 134.7 134.7 0 0 1 -2.5-26.5l1-41-2-147 1-49q2-81 70-81 32 0 49.5 19.5t15.5 57.5l-1 44q-2 30 25 30h63q21 0 20-30l-1-44q-2-38 15.5-57.5t49.5-19.5q23 0 37.5 7.5t22.5 25.5q8 18 10 47.5t1 73.5l-2 123 1 41a134.7 134.7 0 0 1 -2.5 26.5 45.06 45.06 0 0 1 -10.5 21.5q-8 9-24 14t-42 5q-36 0-47-19-5-11-7-33.5t-2-58.5zm581 644v-257h-212v257zm0 450v-257h-212v257zm-232-1239q0-86-58-152-57-63-141-63h-9q-47 0-98 22l-52 34q-18 12-29 19t-17 7l-11-4-45-31a325.44 325.44 0 0 0 -34.5-22 184.6 184.6 0 0 0 -34.5-14.5 223.66 223.66 0 0 0 -39.5-8 443 443 0 0 0 -50.5-2.5q-82 0-139 62-58 61-58 153 0 46 17 97 17 52 53 86 20 19 53.5 39.5t81.5 44.5q55 26 93.5 52t60.5 49l9 14q22 37 37 37t41-37q16-23 44-45 14-12 48.5-32t89.5-46q55-27 91-55.5t57.5-60a209.54 209.54 0 0 0 30.5-67q9-35.5 9-76.5zm-124 789v-257h-213v257zm0 450v-257h-213v257zm-357-450v-257h-212v257zm0 450v-257h-212v257zm-355-450v-257h-212v257zm0 450v-257h-212v257zm1269-1154v1698h-583v-219q0-36-23.5-60.5t-59.5-24.5h-338q-36 0-60.5 24.5t-24.5 60.5v219h-581v-1698q0-28 17-56.5t40-42.5l720-402q9-5 24-9a169.78 169.78 0 0 1 35-5 145.24 145.24 0 0 1 29.5 3 85.08 85.08 0 0 1 27.5 11l720 402q23 14 40 42.5t17 56.5z"/></svg>