<svg viewBox="0 0 2392 1809" xmlns="http://www.w3.org/2000/svg"><path d="m732 1216q41 0 75.5-8t60-23.5q25.5-15.49 40-37t14.5-48.5q0-56-50-91-51-37-116-37a201 201 0 0 0 -64 10q-30 10-52 28a132 132 0 0 0 -34.5 42.5 116 116 0 0 0 -12.5 53.5 123.16 123.16 0 0 0 7 41 88.4 88.4 0 0 0 23.5 35.5q16.5 15.49 43 25t65.5 9.5zm269-111q2 42-18.5 77t-58.5 61q-74 52-186 52-97 0-160-51t-63-135q0-93 72-155 70-61 169-61 51 0 95 14t76.5 41a195.31 195.31 0 0 1 51.5 66.5q19 39.5 22 90.5zm268-12a252.89 252.89 0 0 0 -4.5-45.5 399.65 399.65 0 0 0 -12.5-49.5 303 303 0 0 0 -20-48 229.91 229.91 0 0 0 -27-41 487.8 487.8 0 0 0 -69-67.5 494.61 494.61 0 0 0 -79-51.5q-42-21-103-32.5t-144-11.5q-91 0-168.5 16t-142.5 46q-129 60-209 161t-80 202q0 102 71 180 71 77 166 89l56 7q74 9 111 29 103 54 178 54h13l14-1q105-11 211-74 106-64 172-163 67-98 67-199zm1123-846q0 82-143 138-42 17-102.5 48.5t-139.5 77.5q-158 92-263 181-104 88-149 152-23 31-35 62.5a156.22 156.22 0 0 0 -10 65.5l2 93a573.75 573.75 0 0 1 -26 190.5q-29 92.51-86 181.5-113 178-295 275t-407 97q-104 0-198.5-17.5a903.84 903.84 0 0 1 -181.5-53.5q-174-71-266-209t-92-327q0-172 65-315 45-98 155-206a650.35 650.35 0 0 1 119.5-96 810.34 810.34 0 0 1 141.5-70q154-59 311-59a990.84 990.84 0 0 1 132 9 1078.16 1078.16 0 0 1 133 26.5 980.88 980.88 0 0 1 128 43.5 839.09 839.09 0 0 1 117 60q39 24 62 24 27 0 63-54 81-127 209-247 126-118 279-219 151-99 248-99 52 0 91 27 20 14 41 39t47 61q50 73 50 120z"/></svg>