<svg viewBox="0 0 2104 2289" xmlns="http://www.w3.org/2000/svg"><path d="m228 1304q0 70 93 70 50 0 75-26t29-77l5-48-18-5q-59-18-98.5-35.5t-63.5-33.5a371.87 371.87 0 0 0 -8 37q-4 23-7 52-3 30-5 46.5t-2 19.5zm1353-224 69 45q29-11 59.5-26t62.5-32q-69-45-155.5-91t-195.5-92a1282.66 1282.66 0 0 1 -125-62 993.68 993.68 0 0 0 -126-60 1937.42 1937.42 0 0 0 200 169.5q104 76.5 211 148.5zm-151 991q0-61 87-121l22-13q53-30 53-39t-31-26l-10-6q-17-10-54.5-43t-98.5-90q-60-56-107-106t-83-95q-40 32-108 35 8 52 21 104.5t30 103.5q17 51 38 98a904.38 904.38 0 0 0 45 88 798.68 798.68 0 0 0 47 72q23 31 48.5 52.5a244.51 244.51 0 0 0 54.5 35q29 13.5 65 17.5 13 0 13-13 0-3-4-9a69.18 69.18 0 0 0 -12-13q-16-15-16-32zm-918-169q0 8 26 20 135 63 135 148 0 14-3 22.5a85.33 85.33 0 0 1 -6.5 14.5 105.19 105.19 0 0 1 -6.5 10 16.21 16.21 0 0 0 -3 10q0 7 14 7l11-1q71-28 121-104 53-79 107-230 27-75 41.5-143.5t15.5-131.5l-6-8-7-4q-39 35-75 45-74 89-148.5 160.5a1491.35 1491.35 0 0 1 -152.5 128.5l-20 13q-20 15-31.5 25t-11.5 18zm175-625 1 45v46a152.9 152.9 0 0 0 15.5 47 156.57 156.57 0 0 0 28 38.5 126.16 126.16 0 0 0 37.5 26 108 108 0 0 0 45 9.5q79 0 122-69l-7-126q-39 0-99.5-4t-142.5-13zm317-492 8-46q-15 20-29 39.5t-28 39.5l-56 81q-72 103-121 176t-72 124q45 6 103 10t131 7q0-51 12-119t26-157l12-78a342.61 342.61 0 0 1 6-38.5q4-18.5 8-38.5zm105 59 95 368q67-5 125-12t106-17l-3-6-34-47q-79-90-140-163.5t-105-130.5q-18-24-33-41.5t-26-28.5zm234 630q61 0 93.5-29.5t34.5-87.5l2-101q-54 11-111 20.5a1028.13 1028.13 0 0 1 -120 12.5l-27 1 3 121q21 32 48 47.5t77 15.5zm493-277-7-71q-95 51-137 67 9 72 15 93a26.54 26.54 0 0 0 4.5 15.5 51.39 51.39 0 0 0 11 11.5 52.4 52.4 0 0 0 13 7.5 32.56 32.56 0 0 0 11.5 2.5q37 0 63-40 26-41 26-86zm-1549-117q28 20 70 36t100 32l30-29 94-79q17-14 32.5-28t30.5-30q16-15 77-68.5t170-147.5q-38 20-74.5 38t-72.5 35q-187 83-325 165a745.18 745.18 0 0 1 -69 38q-37 18-63 38zm-187 839q0 40 30 66 40 46 153 89 114 43 203 55 29 0 52.5-12t23.5-33q0-30-22-57t-67-47q-87-40-87-73 0-26 46-50 26-14 55-33a669.64 669.64 0 0 0 56-41l120-99q48-38 79.5-68.5t48.5-53.5q-36-3-72.5-22t-57.5-53a211.62 211.62 0 0 1 -108 29q-54 0-89-22t-55-79q-17 9-32.5 16a216.68 216.68 0 0 1 -29.5 11 1685.16 1685.16 0 0 1 -106 211l-119 198q-12 20-17 36.5a108.71 108.71 0 0 0 -5 31.5zm1904 0q0-30-22-68l-64-109q-62-105-107.5-190.5t-73.5-155.5l-23-7q-30 46-63 69.5t-71 23.5q-36 0-72-17-22 45-69 68.5t-96 23.5l-38-4q28 33 67.5 69.5t91.5 79.5q72 60 123.5 98.5t85.5 56.5q44 23 44 50 0 17-25 36.5t-61 36.5a234.71 234.71 0 0 0 -33 19 169.14 169.14 0 0 0 -28.5 24.5 118.93 118.93 0 0 0 -20 29 71.61 71.61 0 0 0 -7.5 31.5 29.21 29.21 0 0 0 6.5 19 57.88 57.88 0 0 0 17.5 14 92.33 92.33 0 0 0 25 9 138 138 0 0 0 29 3q168-31 276-89t108-121zm100 0q0 184-343 277a2802.18 2802.18 0 0 1 -348.5 69.5q-175.5 23.5-360.5 23.5-165 0-310-14.5t-274-44.5q-129-30-219.5-63t-143.5-71q-52-38-78.5-82a180.85 180.85 0 0 1 -26.5-95q0-57 36-117 27-46 55.5-91t55.5-90.5q27-45.49 51.5-91a794.46 794.46 0 0 0 42.5-92.5q-93-36-93-133a179 179 0 0 1 2.5-30.5q2.5-14.5 4.5-29.5 5-48 9.5-77.5t7.5-43.5a196.12 196.12 0 0 1 20-50q25-52 101-95 20-11 47.5-27t64.5-36q38-20 74-39t72-36q36-17 73-34t75-33l183-77q54-23 83.5-34.5t35.5-11.5v-586q0-64 160-64 63 0 125.5 21t122.5 69l89 73q23 19 47.5 37.5a372.94 372.94 0 0 0 53.5 33.5q55 29 162 29a209.85 209.85 0 0 0 47-5.5 214.07 214.07 0 0 1 48-5.5q40 0 40 27l-4 15q-53 79-171 129-116 49-246 49-45 0-80.5-9.5t-66-20.5q-30.49-11-58-20.5a166.19 166.19 0 0 0 -54.5-9.5q-32 0-58.5 9.5t-56.5 20.5v216q68 14 342 144 137 65 242.5 122t180.5 110a88.73 88.73 0 0 1 25.5 30 178 178 0 0 1 15 40 254.61 254.61 0 0 1 7 46q1.5 24 1.5 46 0 61-18.5 110.5t-59.5 69.5q22 56 49 109t56.5 105q29.51 52 61.5 104.5t64 107.5q36 59 36 117z"/></svg>