<svg viewBox="0 0 1892 1948" xmlns="http://www.w3.org/2000/svg"><path d="m475 834q42 0 42 32 0 20-12 32t-32 12a69 69 0 0 1 -17.5-2.5 63.3 63.3 0 0 1 -17.5-7.5 48.74 48.74 0 0 1 -13-11.5 24.69 24.69 0 0 1 -5-15.5q0-20 17-29.5a76.58 76.58 0 0 1 38-9.5zm411-359q-15 0-31-25-15-24-15-40 0-28 34-28a61.26 61.26 0 0 1 18.5 3 65.43 65.43 0 0 1 17.5 8.5 49.29 49.29 0 0 1 13.5 14 35.09 35.09 0 0 1 5.5 19.5q0 15-11 31.5t-32 16.5zm-642 364q0 15-10 32t-30 17q-16 0-24.5-16t-8.5-36a67 67 0 0 1 8-32q8-15 25-15 20 0 30 15t10 35zm461-236q0 16-10 33.5t-30 17.5q-16 0-24.5-16.5a78.48 78.48 0 0 1 -8.5-36.5q0-46 33-46 20 0 30 15.5t10 32.5zm-203 41q20 0 33.5 13.5t13.5 30.5q0 14-11 27t-36 13a49.94 49.94 0 0 1 -34.5-13q-14.5-13-14.5-30t14.5-29q14.5-12 34.5-12zm-272-366q-13 0-23.5-12.5t-10.5-35.5q0-20 9-36t26-16q20 0 31.5 14.5t11.5 35.5q0 25-14.5 37.5t-29.5 12.5zm451 206q-20 0-36-15.5t-16-32.5q0-8 8.5-20t28.5-12q18 0 34.5 13t16.5 30q0 39-36 37zm-258-42q0-24 10.5-43t34.5-19q40 0 40 45a96.25 96.25 0 0 1 -3.5 25 87.59 87.59 0 0 1 -10 23.5 70.31 70.31 0 0 1 -15 17.5 28.49 28.49 0 0 1 -18.5 7q-14 0-26-18t-12-38zm566 1287q0 28-15.5 47t-48.5 19q-33 0-58.5-19.5t-30.5-47.5a103.14 103.14 0 0 0 -14.5-30.5 67.2 67.2 0 0 0 -25.5-21.5q-32-17-42-25.5t-10-22.5q0-14 18.5-22.5t54.5-6.5l23 2q58 9 104 47 45 38 45 81zm-208-639a33.2 33.2 0 0 0 21-7 55.5 55.5 0 0 0 15-18.5 100.36 100.36 0 0 0 9-25.5 133.29 133.29 0 0 0 3-28q0-71-96-71-28 0-28 19 0 24 32 40 23 11 26 30l2 16q2 23 5 34t11 11zm-684-745 2 130 26-7a43.91 43.91 0 0 1 33.5 14.5q13.5 14.5 13.5 31.5 0 13-11.5 26t-35.5 13l-24-6q5 104 16.5 210.5t30.5 219.5q3 20 14.5 40t34.5 42q47 44 109 57-23-34-27.5-68.5t-7.5-63.5q-15-128-29.5-253a2237.44 2237.44 0 0 1 -14.5-258q0-87 19-138t48-78q29-26 77-41 46-13 139-15 47-1 82.5-2t61.5-1l230 6 124 7q-146-100-369-100a49.94 49.94 0 0 1 -13 34.5q-13 14.5-39 14.5-33 0-33-33a67 67 0 0 1 1-11 23.59 23.59 0 0 1 5-11l-166-7q-67-2-114.5 5t-77.5 19q-57 23-81.5 80t-23.5 143zm1004 498a89.27 89.27 0 0 0 5.5 31 90.48 90.48 0 0 0 15.5 27 72.52 72.52 0 0 0 24.5 19 73.76 73.76 0 0 0 32.5 7q20 0 28.5-10.5t8.5-21.5q0-24-22-37-5-4-12.5-13.5t-17.5-26.5q-14-26-30-26-12 0-22.5 13t-10.5 38zm7 294q0-23-41-23a185.11 185.11 0 0 0 -29.5 2.5 114.65 114.65 0 0 0 -28 8 62 62 0 0 0 -20.5 14q-8 8.51-8 21.5 0 8 6 15.5t20 7.5l42-9 15 1 14-1q30-14 30-37zm3-809q-20-23-74-33.5t-145-12.5l-317-6q-61-1-104 3t-69 11q-50 13-73.5 54.5t-23.5 128.5q0 64 4 126.5t11 124.5l29 251q7 62 19.5 92.5t36.5 30.5l31-26q43-26 141.5-130.5t263.5-282.5l125-134 50-53q47-49 71-84.5t24-59.5zm682 664q1-34-15-70.5a217.29 217.29 0 0 0 -44.5-65.5q-28.5-29-68-47.5t-84.5-16.5a309.46 309.46 0 0 0 -109.5 23.5q-51.5 21.5-96.5 66.5l3 50q5 81-14 144.5t-51 108.5q-32 45-77.5 82a470.57 470.57 0 0 1 -101 62.5 528.2 528.2 0 0 1 -119 38 520.17 520.17 0 0 1 -131.5 8.5l-52-3q-153 137-153 244 0 56 28 100 29 44 86 89 61 44 137 44 72 0 151-50 40-25 85-69t102-104l330-349q67-72 108-119t56-73q31-50 31-94zm-258 492 161 197 28 32q9 10 19 20a202.74 202.74 0 0 1 18 20.5 118.79 118.79 0 0 1 13.5 22.5 61.61 61.61 0 0 1 5.5 26 44.59 44.59 0 0 1 -6.5 23 65.81 65.81 0 0 1 -17 19 97.57 97.57 0 0 1 -23 13 65.74 65.74 0 0 1 -24.5 5q-24 0-37.5-11.5t-29.5-26.5a1220.31 1220.31 0 0 1 -106.5-114.5 1533.19 1533.19 0 0 0 -104.5-115.5l-104 115q-107 118-205 178.5t-192 60.5q-102 0-176-49-76-49-125-129-48-79-48-154 0-133 133-267-142-54-209-201-92 71-164 71-92 0-184-70-91-69-106-159-51-289-51-619 0-143 37-223 37-79 115-114 77-34 242-34 38 0 75 1.5t73 3.5l143 10q100 7 189.5 31.5a690.77 690.77 0 0 1 170.5 72.5q163 95 163 209 0 92-107 199 199 61 256 243 108-76 224-76 120 0 215 87 96 87 96 208 0 69-34 127-34 59-106 140-35 40-89.5 96.5t-127.5 131.5z"/></svg>