<svg viewBox="0 0 2120 1851" xmlns="http://www.w3.org/2000/svg"><path d="m1729 1345v-1051h-59v1051zm-248-844v-256h-213v256zm0 409v-257h-213v257zm0 407v-257h-213v257zm-1 374v-219h-302v219zm-354-1190v-256h-214v256zm0 409v-257h-214v257zm0 407v-257h-214v257zm-357-816v-256h-212v256zm0 409v-257h-212v257zm0 407v-257h-212v257zm-269 374v-219h-300v219zm-300-631v257h213v-257zm0-407v257h213v-257zm0-408v256h213v-256zm1612-163h223q36 0 60.5 24t24.5 60v1381q0 36-24.5 60.5t-60.5 24.5h-223a82.51 82.51 0 0 1 -29.5-5.5 132.16 132.16 0 0 1 -26.5-13.5 90.3 90.3 0 0 1 -19.5-17q-7.5-9-7.5-17v-136h-59v408h-585v-241q0-10-18.5-18.5t-51-14.5q-32.5-6-77.5-9t-98-3q-54 0-99 3t-77.5 9q-32.5 6-50.5 14.5t-18 18.5v241h-595v-1700q0-60 44-106 42-45 108-45h1368a144.65 144.65 0 0 1 58.5 12 152.88 152.88 0 0 1 47.5 32 151.3 151.3 0 0 1 32 48 148.22 148.22 0 0 1 12 59v45h59v-61q0-9 8-18a102.75 102.75 0 0 1 20-17 115.19 115.19 0 0 1 26.5-13 87.2 87.2 0 0 1 28.5-5z"/></svg>