<svg viewBox="0 0 2042 2374" xmlns="http://www.w3.org/2000/svg"><path d="m1173 2264q172 0 309-28 138-27 198-91 60-65 78-193 10-66 15.5-165t4.5-232l-5-380 6-102 4-114-3-59-26 7q-21 1-27 12-6 10-21 113l-27 118v257l-1 179v161l-2 76q-1 55-14.5 102.5a352.17 352.17 0 0 1 -39.5 89.5q-25 40-57.5 62.5a192 192 0 0 1 -72.5 30.5l-72 13q-48 10-107 14t-131 4q-69 0-133.5-5.5a1161.66 1161.66 0 0 1 -125.5-17.5q-61-12-105-31.5t-72-45.5q-54-50-56-164-4-197-6-345t-2-251v-162q0-20 1-37.5a129.43 129.43 0 0 1 5-30.5q4-13 12.5-20.5t23.5-7.5l38 5q57 6 112 14t107 15q52 7 102.5 11.5a755.68 755.68 0 0 0 98.5 2.5l111-4-11-54q-10-50-26.5-74.5t-44.5-24.5l-34 4a615.27 615.27 0 0 1 -82 17 666.56 666.56 0 0 1 -92 6q-112 0-209-93-12-11-26-9l-47 3q-51 9-82.5 13t-45.5 4q-62 0-123-37a298.53 298.53 0 0 1 -41.5 14.5 512.65 512.65 0 0 1 -54.5 11.5q-101 18-156 69-55 50-82 132-14 42-20 101t-6 136q0 131 3.5 215t11.5 126q16 81 55.5 126t114.5 69l41 7q52 9 91.5 20t66.5 34q41 32 58.5 79.5t22.5 110.5l3 37q23 52 93 86 35 17 81 31t103 22q58 9 136.5 13t181.5 4zm758-1679q0-22-8-35.5t-25-36.5q-21-30-21-81v-21q0-9-4.5-20t-16-23q-11.51-12-30-22.5t-46.5-18.5l-65-18q-39-11-73-65-29-45-81-71a209.48 209.48 0 0 0 -110-22l-50 5q-17 3-44.5 13.5a154.49 154.49 0 0 1 -55.5 10.5q-37 0-73-24-26-17-44-26a293.33 293.33 0 0 0 -29-13q-11-3-23.5-5.5t-29.5-1.5l-54 4-20 9q-34 20-62.5 29t-51.5 9l-59-5q-63 0-91 24-35 29-68 43.5t-65 12.5l-34-1q-20-1-42 9.5t-46 30.5q-46 39-46 97a111.16 111.16 0 0 0 3 25q3 13 7 27t7 28.5a140.48 140.48 0 0 1 3 28.5 147.82 147.82 0 0 1 -3 29q-3 15-8 33-5 17-8 30.5t-3 21.5q0 60 36 106 34 46 81 46 32 0 130-18l45-3a145.9 145.9 0 0 1 68.5 12.5q32.5 14.5 61.5 40.5 46 32 75 41 30 10 84 10a216 216 0 0 0 41.5-4q20.51-4 41-9.5t42-9.5a242.55 242.55 0 0 1 44.5-4q156 0 186 225 16 119 96 119 26 0 44.5-8t31-26.5q12.49-18.49 20-48t11.5-71.5q9-95 42.5-139.5t81.5-53.5q15 0 47-17 30-16 34-30 13-47 29-65 15-19 60-33 17-5 27-26.5a102.17 102.17 0 0 0 10-43.5zm111 0a213.77 213.77 0 0 1 -7.5 56.5 176.4 176.4 0 0 1 -23 51 173.78 173.78 0 0 1 -39.5 42q-24 18.5-56 28.5-11 49-35 74 5 22 9 51.5t2 67.5l-4 115-5 102 4 377q2 170-6.5 287t-23.5 184q-30 133-105 208-38 37-96 64.5t-132.5 45.5q-74.51 18-163 26.5t-187.5 8.5q-61 0-137-4t-170-13q-92-9-165.5-30.5t-125-54.5q-51.5-33-80-78.5t-29.5-102.5q-2-29-5-50.5t-8-35.5a98.31 98.31 0 0 0 -14.5-26.5q-9.5-12.49-26-22t-42-15.5q-25.5-6-62.5-8a330.81 330.81 0 0 1 -127.5-36q-60.5-31-102.5-94-41-64-60-165-18-100-18-361 0-185 39-290 40-106 119-165.5t178-79.5l53-11q-38-63-38-136 0-39 23-114l-3-12a274.36 274.36 0 0 1 -18-97q0-98 76-173 76-74 168-74 29 0 47-2.5t25-8.5q42-34 86.5-53a203.22 203.22 0 0 1 93.5-16l45 2 20 5 15-5q15-6 32-14t38-15.5a327.71 327.71 0 0 1 46-12.5q25-5 57-5a374.37 374.37 0 0 1 74.5 7 191.65 191.65 0 0 1 63.5 25l61 39 10-3q38-11 72.5-18.5a317.24 317.24 0 0 1 67.5-7.5q86 0 161.5 37t122.5 108q10 15 33 21 51 12 91.5 32.5t69 48a192.11 192.11 0 0 1 43.5 62 182.33 182.33 0 0 1 15 73.5v15l1 12 7 8q8 7 16.5 20a157.23 157.23 0 0 1 15 30 276.14 276.14 0 0 1 11 36.5 175.13 175.13 0 0 1 4.5 39.5zm-1576 700q2-91-14.5-135.5t-48.5-44.5q-89 0-89 254 0 233 82 233 23 0 38-21 16-20 19-53 2-16 6.5-73.5t6.5-159.5zm-63-291q173 0 173 286 0 48-6 106.5a1211.82 1211.82 0 0 0 -6 123.5q0 42-13 76a190.78 190.78 0 0 1 -39 62q-51 55-116 55-46 0-81.5-19t-60-60.5q-24.5-41.5-37.5-107t-13-159.5q0-209 55-285 55-78 144-78z"/></svg>