<svg viewBox="0 0 2345.5 1864" xmlns="http://www.w3.org/2000/svg"><path d="m2216.89 1537 5-177v-37q0-112-29-112l-61-1a23.13 23.13 0 0 0 -17 7l-1 2q-27 55-52 120.5t-41 149.5q-15 84-23 132t-8 63l117 6q55 2 81.5-37t28.5-116zm-1978 153 121-4-16-104q-19-121-48.5-210t-61.5-153l-1-2q-6-7-16-7l-62 1q-30 2-30 133v20l7 173q3 77 28.5 116t78.5 37zm1563 16q0-72-50-113-13-10-13-22t8-18q42-30 42-93a92.69 92.69 0 0 0 -11-44.5 112.88 112.88 0 0 0 -30-35.5q-19-15-45.5-23.5a183.83 183.83 0 0 0 -56.5-8.5q-28 0-51.5 10.5a123.37 123.37 0 0 0 -40 28 131.8 131.8 0 0 0 -26 40.5 124.57 124.57 0 0 0 -9.5 48q0 22 8 39.5a125.33 125.33 0 0 0 23 33.5q9 9 9 17 0 15-26 40-47 42-47 100l3 5q48 13 149 13 164 0 164-17zm-941 4 1-5q0-59-45-100-27-25-27-38 0-8 7-15 33-33 33-74a141.45 141.45 0 0 0 -8.5-48.5 122.34 122.34 0 0 0 -25-41.5 124.51 124.51 0 0 0 -40.5-29q-24-11-54-11a181.2 181.2 0 0 0 -54.5 8 157.2 157.2 0 0 0 -45 22 103.89 103.89 0 0 0 -30.5 33.5 91.94 91.94 0 0 0 -12 41.5q-2 36 9.5 61t32.5 39q9 6 9 18t-12 21.5a157.24 157.24 0 0 0 -20 18.5 130.48 130.48 0 0 0 -15.5 22.5 106.71 106.71 0 0 0 -8.5 21.5 165.11 165.11 0 0 0 -4.5 23q-1.5 12-4.5 27 0 18 114 18h51q97.01 0 150-13zm469-19 2-9q0-42-36-87-26-25-26-39 0-7 8-15 39-39 39-85a116.6 116.6 0 0 0 -10.5-49 129.16 129.16 0 0 0 -29-40.5q-18.5-17.51-44.5-27.5t-57-10q-33 0-59 10t-44 27.5a119.67 119.67 0 0 0 -27.5 40.5 127.14 127.14 0 0 0 -9.5 49q0 32 19 64a114.34 114.34 0 0 0 18 18q10 8 10 18 0 14-25 39-40 43-40 92 0 30 149 30h20l17-1q59-5 90.5-8.5t35.5-16.5zm898-592q0-24-3-109.5t-11-235.5q-8-151-15-254t-16-162q-20-117-36-135-17-19-62-19h-23l-94-4q-36-2-63-2.5t-45.5 3q-18.5 3.5-27.5 12.5t-7 26q0 12 3.5 43.5t13.5 84q10 52.5 27.5 128.5t44.5 177q28 101 54.5 182.5t53.5 145.5q55 125 74 133l24-2v-5l-5-29a400 400 0 0 1 -13-103v-13l1-13-1-23q-1-14 1.5-20.5t5.5-6.5q5 0 12 13t15 42l4 15q7 25 14.5 50a378.86 378.86 0 0 0 18.5 49q21 50 37 50 6 0 14-6 4.01-2 4-12zm-1704-882q0-19-4-22-13-12-47.5-15t-91.5 0l-93 4q-20 1-36 2a238.31 238.31 0 0 0 -27 3 139.63 139.63 0 0 0 -19 6.5 19.68 19.68 0 0 0 -11 11.5q-3 6-7 22.5t-10 44.5q-14 67-25 185.5t-18 289.5l-15 350q-2 18 19 18 13 0 38-55 25-54 31-94 2-3 5.5-14.5t8-24a174.39 174.39 0 0 1 9.5-22q5-9.5 10-9.5 6 0 6 53v25l-7 63-7 33-5 34 1 5 23 2q6-3 21-24 38-77 73.5-170t67.5-202q32-109 53-195.5t34-149.5q13-63 18-102t5-53zm650 974q150 0 341 24 97 13 156.5 23t82.5 18l21 4q22 0 22-20v-541a382.84 382.84 0 0 1 -20-57q-8-30-13.5-60t-9.5-57.5q-4-27.5-8-50.5l-81 33a1331.54 1331.54 0 0 1 -240 72.5 1272 1272 0 0 1 -251 24.5q-126 0-241.5-23a1304.52 1304.52 0 0 1 -224.5-66l-104-41-4 31q-8 64-20.5 112t-27.5 82v538q0 23 23 23l21-4q24-8 82.5-18t152.5-23q186-24 343-24zm1156-612 15 591q2 86-2.5 165.5t-12.5 154.5q-7 75-17 130t-24 90q-47 116-246 134-100 10-248.5 15t-347.5 5h-137l-137-3-136 3h-138q-112 0-222.5-2t-210.5-8l-152-10q-26-2-51.5-6t-49.5-10q-50-12-91-38t-63-71q-22-46-32-119-6-38-11-88t-9-114q-3-63-5.5-120t-.5-108l15-591q2-110 13-203t33-168q46-152 194-180 30-6 107.5-10.5t203.5-8.5q250-9 581-9 389 0 615.5 5.5t289.5 16.5q105 9 169 77 64 67 85 206 11 70 16 138.5t7 135.5z"/></svg>