<svg viewBox="0 0 1910.13 2378.04" xmlns="http://www.w3.org/2000/svg"><path d="m796.13 1509 6 56 101 45a228.32 228.32 0 0 1 5.5-40.5 235.73 235.73 0 0 1 12.5-38.5l30-46q22-36 22-52t-12-24.5q-12-8.51-28-8.5-17 0-40 7a182.63 182.63 0 0 0 -45 21 138.83 138.83 0 0 0 -37 34q-15 20-15 47zm413 354a432.34 432.34 0 0 1 12 47.5 226.46 226.46 0 0 1 4 41.5q0 63-57 103a178.48 178.48 0 0 1 -60.5 29 274.61 274.61 0 0 1 -71.5 9q-46 0-89-28-43-30-43-76 0-25 32-60 30-34 30-55a149.12 149.12 0 0 0 -1.5-20 126.44 126.44 0 0 0 -6.5-25l-17-48q-6-26-89-53l3 27q0 55-50 81a219.85 219.85 0 0 1 -106 27 210.88 210.88 0 0 1 -60.5-8.5q-28.5-8.51-49.5-23.5t-33.5-34.5a77.26 77.26 0 0 1 -12.5-42.5q0-22 12-34.5a117.28 117.28 0 0 1 27-21 252.81 252.81 0 0 0 27-17.5q12-9 12-25t-7.5-33.5a308.8 308.8 0 0 1 -12.5-34.5q-39-27-76-50.5a771.31 771.31 0 0 0 -72.5-41 460.53 460.53 0 0 0 -68-27.5q-32.5-10-61.5-10-72 0-134 43-62 44-62 92 0 60 113 124 57 33 149 82.5t223 119.5l280 150 118 64q103 57 193 86t169 29q162 0 282-55 120-53 120-136 0-57-75-86-72-31-271-55a1050.71 1050.71 0 0 1 -108.5-20 928.82 928.82 0 0 1 -110.5-34zm693 195q0 92-65 165-32 36-80.5 63.5t-113.5 48.5q-128 43-271 43-96 0-199.5-33t-218.5-96l-123-67-278-149q-70-38-139.5-76.5t-142.5-75.5l-67-34q-93-48-147.5-113t-56.5-144q-2-54 27-101.5t75.5-82.5q46.5-35 105-55t115.5-20q66 1 124 24.5a942.22 942.22 0 0 1 114 55.5v-10q0-73 84-133 51-36 85.5-62.5t52.5-43.5q36-36 56-76t20-91q0-102-22-196-34 2-75 13.5t-90 33.5q-49 21-74 44t-23 49l2 32a98.43 98.43 0 0 1 -9.5 54.5 189.5 189.5 0 0 1 -33.5 47.5q-44 42-99 42-54 0-82.5-43.5t-28.5-117.5q0-77 67-171a634 634 0 0 1 76.5-87.5 612.11 612.11 0 0 1 91.5-72 563.4 563.4 0 0 1 104-52.5 552.11 552.11 0 0 1 114-30q-28-49-40.5-99a501.59 501.59 0 0 1 -14.5-103 317.82 317.82 0 0 1 25-129q26-62 70.5-109a332.42 332.42 0 0 1 105-74.5q60.5-27.5 128.5-26.5 77 2 142 24.5a356.5 356.5 0 0 1 118 68.5q52 47 78.5 104t26.5 129q0 146-98 253 113 45 202 111a892.66 892.66 0 0 1 82.5 66q37.5 34 69.5 69t61.5 81.5q29.5 46.5 64.5 100.5l19 30q48 40 63 62 30 39 30 101a158.57 158.57 0 0 1 -14 66 164.85 164.85 0 0 1 -39 54 191 191 0 0 1 -58.5 36.5q-33.5 13.5-73.5 13.5-52 0-98-46a153.34 153.34 0 0 1 -35.5-51.5q-12.5-29.51-9.5-67.5l5-83a63.32 63.32 0 0 0 -4.5-28 222.6 222.6 0 0 0 -15.5-31q-10-16-31.5-41t-53.5-57q16 57 16 132 0 144-68 274-68 128-166 176-54 26-80 57.5t-26 76.5l2 31q149 58 288 79l146 22q163 24 235.5 84.5t72.5 160.5z"/></svg>