<svg viewBox="0 0 2232 2027" xmlns="http://www.w3.org/2000/svg"><path d="m2079 1345q-28 28-56 42.5t-57 12.5l-96-7q-30-2-53.5 5t-43 25.5q-19.5 18.49-37.5 49t-39 75.5q-28 62-87 94t-142 32q-56 0-96-13-21-7-51-27.5t-71-54.5a611.5 611.5 0 0 0 -63.5-45.5q-31.5-19.5-73.5-19.5-28 0-67 9-18 5-33.5 9.5a198.88 198.88 0 0 0 -26.5 9.5q-11 5-37.5 21.5t-66.5 44.5q-85 59-156 59-94 0-147.5-64t-63.5-189q-8-116-64-143-15-7-41-13a555.62 555.62 0 0 0 -61-10q-39-5-68-11t-49-16a274.23 274.23 0 0 1 -67-51 331.31 331.31 0 0 1 -50-66q3 100 60 249 28 75 64.5 137.5a760.17 760.17 0 0 0 81.5 114.5 686.29 686.29 0 0 0 98.5 93.5 795.53 795.53 0 0 0 113.5 73.5q61 32 133.5 57a1318.16 1318.16 0 0 0 151 42 1475.25 1475.25 0 0 0 161 25.5 1603.08 1603.08 0 0 0 164.5 8.5q230 0 439-69 106-35 186-83t137-108a713.16 713.16 0 0 0 101-135.5q43-74.5 73-164.5zm-588-362v11l-2 12q36-42 60-98t24-110q0-77-53-141-52-61-126-61-26 0-52.5 10.5t-68.5 35.5q-60 38-143 38-36 0-106-32-34-17-59-24.5t-41-7.5q-68 0-119 66-49 64-49 143 0 40 21 85 10 22 32.5 55.5t57.5 78.5q-15-33-15-67 0-49 23.5-89t67.5-68q44-28 106.5-43t140.5-15q67 0 122.5 20.5t95.5 52.5q40 32 61.5 71t21.5 77zm-121-3a88.22 88.22 0 0 0 -13-46.5q-13-21.5-36-37.5t-55-25q-32-9-71-9a435.1 435.1 0 0 0 -87.5 8.5 422.93 422.93 0 0 0 -79.5 24.5q-75 32-75 81 0 54 58 87 55 33 138 33a446.6 446.6 0 0 0 81-7 293.07 293.07 0 0 0 72-23q68-30 68-86zm862 118q0 219-65 366-65 145-217 288-149 140-354 207-204 68-492 68-247 0-443.5-64.5t-350.5-204.5a874.46 874.46 0 0 1 -135.5-153 912.75 912.75 0 0 1 -96.5-180q-40-97-59-191a936.8 936.8 0 0 1 -19-186q0-163 47.5-306.5t153.5-278.5a1245.76 1245.76 0 0 1 115-128 1428.09 1428.09 0 0 1 131-112 942.71 942.71 0 0 1 155-93.5q84-40.5 184-70.5a1526.48 1526.48 0 0 1 201-44 1407.34 1407.34 0 0 1 207-15q262 0 509 122 124 61 215.5 130.5t153.5 147.5q62 78 95.5 163a630.09 630.09 0 0 1 41.5 178q8 88 15.5 177t7.5 180z"/></svg>