<svg viewBox="0 0 2274 2396" xmlns="http://www.w3.org/2000/svg"><path d="m2274 879q0 286-155 515-154 229-446 361a1598.36 1598.36 0 0 1 -300 101.5q-154 35.5-319 30.5l-47-1a170.65 170.65 0 0 1 25 24q11 13 22 27 10 13 21 26.5t19.5 25.5a147.33 147.33 0 0 1 13 21.5q4.5 9.49 2.5 13.5 0 30-65 56-65 28-124 28-22 0-33.5-23.5t-9.5-69.5l6-88-1-30q-47 53-102 82-26 14-51.5 25a303.26 303.26 0 0 1 -55 17.5 561.49 561.49 0 0 1 -64 10q-34.5 3.5-79.5 2.5l-70-2q-63-1-111 7.5t-83 23.5q-70 29-112.5 84.5t-50.5 124.5q-5 40-10.5 65t-11.5 36q-11 23-37 23-45 0-45-45 0-113 64-210 32-49 72.5-83.5a370.14 370.14 0 0 1 86.5-55.5q94-42 253-42h84q117 0 180-30 63-31 108-103-160-149-248-373t-88-508q0-261 112-479 57-110 134.5-195t180.5-148q202-124 455-124 236 0 439 117 103 59 182.5 139.5t139.5 183.5q59 103 89 212t30 227z"/></svg>