<svg viewBox="0 0 1706.03 2299" xmlns="http://www.w3.org/2000/svg"><path d="m1573 1188 7-109-40-46-127 30 66 75 70 75 24-8zm26-303 25-159-29-16-44 35-98 103 124 59zm-355 414 139-39a770 770 0 0 1 -67-76.5q-31-40.5-66-82.5l-151 37zm-300 85 134-38q-6-6-23.5-25.5t-46.5-54.5q-29-34-46-56.5t-25-33.5l-148 36zm512-754-139-79q-117 101-155 157l138 66q111-99 156-144zm-851 850 158-45q-35-36-73-81t-77-100l-157 37 30 44q34 50 63 86.5t56 58.5zm558-1017-130-73q-45 40-94 82a682.72 682.72 0 0 0 -87 89l148 71 12-14q59-65 95-104.5t56-50.5zm-468-265-174 205 148 71q47-51 93-96.5t94-87.5zm-335 1101-279-39 15 231 264 42zm90-1221h-271l-27 279 260 13zm-139 2135v-609l-140-23v608zm1193-881v-18h-9l-54 15-485 145q-50 15-179.5 52t-341.5 100l-9 6v1l-2 64q0 14 11 14a44.43 44.43 0 0 0 14-2 91.18 91.18 0 0 0 12-5l25-9q106-41 190.5-67.5t145.5-42q61-15.49 97.5-23t47.5-10.5l14-4q14 0 14 15 0 46-1 81.5t-3 62.5l-397 124-159 51q-13 5-12 14l1 24v9q0 34 7 34l34-8 218-72 469-143q77-23 152.5-50t151.5-56q14-5 22.5-7.5t13-5.5a14.81 14.81 0 0 0 6-7q1.5-4 1.5-12v-48q0-8-4-8-20 0-97 31l-34 14-148 43-147 48q3-34 4-68.5t1-70.5q0-14 34-28t100-34l168-52 62-16q15-5 29.5-9a106.27 106.27 0 0 0 27.5-12q3-1 6-24 1-13 2-22a134.57 134.57 0 0 0 1-14zm202-621-42 265-14 262q-2 27-29 35l-27 9-12 562q-2 28-28 37l-1190 416-21 2-217-39q-30-6-32-39l-8-652-34-6q-30-4-33-37l-19-310q-1-30 32-41l1212-249-1151-497a35.94 35.94 0 0 1 -17-16q-6-11-6-26v-11l1-11 34-330q5-35 39-35h350q15 0 20 5l1173 666q19 10 19 40z"/></svg>