<svg viewBox="0 0 1920.02 1739.02" xmlns="http://www.w3.org/2000/svg"><path d="m1817 791q25 0 25-8l-4-11q-35-47-35-118a352.38 352.38 0 0 1 4.5-56q4.5-28 10-56.5t10-57a368.14 368.14 0 0 0 4.5-57.5 270.17 270.17 0 0 0 -5-53 165.12 165.12 0 0 0 -17-47q-6-10-13-20.5t-13.5-21.5a145.8 145.8 0 0 1 -11-23 67.94 67.94 0 0 1 -4.5-24q0-14 16-40 15-21 15-36 0-20-37-51-17-15-31-23.5t-23-8.5q-15 0-24 9a174.06 174.06 0 0 1 -33.5 20.5q-16.5 7.5-31.5 6.5l-145-4q-38-1-69 4.5t-54 15.5q-35 15-60 24.5t-40 14.5a123.8 123.8 0 0 1 -30.5 6.5q-16.5 1.5-34.5 1.5-40 0-69-9t-41-9q-22 0-22 28 0 61 78 108t168 47a403.1 403.1 0 0 0 50-3 280.29 280.29 0 0 0 47-10l17-3q16 0 16 14a43.51 43.51 0 0 1 -1 9.5 23.9 23.9 0 0 1 -5 9.5q-35 56-35 111 0 21 6 47.5t19 56.5q24 59 57 59 30 0 74-68 26-38 43-59t32-24q0 3 3 17.5t8 35q5 20.5 11 44t11 44.5q5 21 9 36.5t6 18.5q48 112 149 112zm103-7q0 86-103 86-90 0-157-65-48 161-149 344t-234 318q-135 136-294.5 203t-337.5 69q-140 1-259-44t-205-124.5q-86-79.5-134-188.5t-47-235q2-120 39.5-223.5t125.5-190.5a506.67 506.67 0 0 1 96-75.5 584.55 584.55 0 0 1 113-52.5q121-43 384-52 72-3 127.5-13t95.5-30a616.17 616.17 0 0 0 82.5-49q41.51-29 85.5-71-81-34-128-85.5t-47-116.5q0-45 28-75.5t74-30.5a223.67 223.67 0 0 1 24.5 1.5 121.8 121.8 0 0 1 27.5 6.5 165.58 165.58 0 0 0 58 10h14l12-3 61-19q61-20 110-34t91-12l126 5q16 1 34-10 46-27 74-27 25 0 43 14 71 36 99.5 71t28.5 75q0 41-29 81 61 85 61 185 0 23-8 69t-16 115l-6 47a133.58 133.58 0 0 0 4 33.5 149 149 0 0 0 11 29.5q24 30 24 64z"/></svg>