<svg viewBox="0 0 1954 2074" xmlns="http://www.w3.org/2000/svg"><path d="m1000 222v168q19 16 19 34 0 17-12.5 30t-29.5 13q-13 0-19-6l-103 60-23-41 104-59q0-18 19-31v-168zm753 918v-258h-201v258zm0 407v-257h-201v257zm-337-407v-258h-202v258zm0 407v-257h-202v257zm-439-890q98 0 166-67 68-68 68-166 0-94-70-164t-164-70q-97 0-166 70-67 68-67 164 0 97 67 164 71 69 166 69zm101 483v-258h-201v258zm0 407v-257h-201v257zm-338-407v-258h-201v258zm0 407v-257h-201v257zm-336-407v-258h-203v258zm0 407v-257h-203v257zm1094-1007h294q64 0 114 48 48 50 48 115v1371h-705v-212q0-37-26.5-63.5t-63.5-26.5h-363q-37 0-63.5 26.5t-26.5 63.5v212h-706v-1371q0-68 48-115 49-48 115-48h294q48 0 76-16t28-60v-209q0-13 8.5-28t20.5-22l358-199q10-6 29-6 18 0 29 6l358 199q29 17 29 50v205q0 45 25.5 62.5t79.5 17.5z"/></svg>