<svg viewBox="0 0 1678 1902" xmlns="http://www.w3.org/2000/svg"><path d="m1678 164q0 21-54 81a643.88 643.88 0 0 1 -60 56.5 583.14 583.14 0 0 1 -68 48.5 632.31 632.31 0 0 1 -156.5 71q-83.5 25-161.5 25a498.56 498.56 0 0 1 -71.5-5 406.78 406.78 0 0 1 -64.5-14.5 316.57 316.57 0 0 1 -55-23q-25-13.5-41-29.5a686 686 0 0 0 -30.5 70 403.66 403.66 0 0 0 -18.5 67q-6 32-11 80.5t-3 113.5l3 63q2 31-63 31-20 0-30.5-6.5t-15.5-19.5q-5-13-6-33.5t-1-48.5q0-104 33-250a179.77 179.77 0 0 1 13.5-37 105.31 105.31 0 0 0 10.5-37q2-16 4.5-29a78 78 0 0 1 8-23 38.55 38.55 0 0 1 15.5-15.5q10-5.5 28-5.5 38 0 61 21 25-139 127-227 101-88 228-88 82 0 178 29 48 14 84.5 32.5t63.5 39.5q53 44 53 63zm-69 939q0 170-68 330-67 160-162 258-98 100-239.5 155.5t-312.5 55.5a1177.38 1177.38 0 0 1 -150-9.5 796 796 0 0 1 -146-33 804.82 804.82 0 0 1 -142-62.5q-70-39-138-99t-115.5-123.5q-47.5-63.5-77.5-132a661.16 661.16 0 0 1 -44-142 819.31 819.31 0 0 1 -14-153.5q0-128 37.5-243.5t107.5-209.5a684.45 684.45 0 0 1 77-87 513.42 513.42 0 0 1 91.5-69.5 448.59 448.59 0 0 1 107.5-46q58-16.5 126-16.5 32 0 78 4t107 14a1014 1014 0 0 0 -21 205v23l3 26-67-24q-10-4-27.5-14.5t-32.5-10.5q-20 0-20 26 0 49 80 92 79 42 176 42a283 283 0 0 0 52.5-5 451.79 451.79 0 0 0 54.5-14 223 223 0 0 0 51-23.5 316.56 316.56 0 0 0 43-32.5q39-37 39-59 0-17-22-17a50.63 50.63 0 0 0 -21 4.5q-10 4.5-21.5 10.5t-24.5 13.5a195 195 0 0 1 -29 13.5l-3-46a618.48 618.48 0 0 1 3-92q5-48 12-100l100-2q70-1 126.5 8.5t99.5 27.5q79 33 139.5 86.5a505.74 505.74 0 0 1 102 124.5q41.51 71 63 158.5t21.5 188.5z"/></svg>