<svg viewBox="0 0 1998 2240" xmlns="http://www.w3.org/2000/svg"><path d="m840 262q0-94 59-178 60-84 118-84 29 0 29 30 0 21-9 30-43 77-43 156 0 23 8 61t26 89q34 102 34 147-6 60-41 106-35 44-60 44-8 0-17-8t-9-25l5-30 7-27a191.86 191.86 0 0 0 -6-49.5 264 264 0 0 0 -15.5-43 347 347 0 0 0 -21.5-39.5q-12-19-24-39a302.13 302.13 0 0 1 -29.5-66.5 251.15 251.15 0 0 1 -10.5-73.5zm315-1q0-93 59-177 58-84 117-84 29 0 29 30a54.54 54.54 0 0 1 -2 15q-2 7-5 15-45 74-45 158 0 49 34 145 18 50 26.5 85t8.5 56q0 55-37 107t-65 52q-7 0-15.5-8.5t-8.5-25.5a119.5 119.5 0 0 1 5.5-37 106.82 106.82 0 0 0 5.5-33q0-49-14-63l-26-52q-23-38-37.5-65t-19.5-44q-10-33-10-74zm-603 1q0-93 58-178 60-84 118-84 29 0 29 30 0 20-8 30-44 76-44 156 0 50 31 141 17 48 26 82.5t11 56.5q-1 36-11 66.5a203.26 203.26 0 0 1 -27 54.5q-34 46-63 46-8 0-17-8t-9-25l6-28 6-29q0-59-41-127l-27-47q-38-65-38-137zm499 1065a118.6 118.6 0 0 1 -7.5 42 104.54 104.54 0 0 1 -21.5 35 103.21 103.21 0 0 1 -34.5 24q-20.5 9-47.5 9a152.91 152.91 0 0 1 -50.5-8.5 141 141 0 0 1 -43-23.5 115.86 115.86 0 0 1 -29.5-35.5 92.69 92.69 0 0 1 -11-44.5 96.94 96.94 0 0 1 10-44 98.38 98.38 0 0 1 28-34q18-14 42.5-22a168.2 168.2 0 0 1 52.5-8q49 0 80.5 29.5t31.5 80.5zm852 32q-105 150-347 236-244 86-545 86-245 0-458-58-107-29-193-69.5t-148-90.5q-62-50-98-107.5t-43-119.5q0 130 81 281t220 272q69 60 143 103a967.18 967.18 0 0 0 153 72q48 18 48 81 0 55 89 90 90 36 221 36 63 0 117-9.5a634.24 634.24 0 0 0 102-26.5q95-34 97-90l2-41q1-22 10.5-38.5t31.5-26.5a792.56 792.56 0 0 0 116-63.5 1209.17 1209.17 0 0 0 114-85.5 1054.16 1054.16 0 0 0 104.5-103 920.53 920.53 0 0 0 83.5-110 859.2 859.2 0 0 0 61-111.5q25-55.5 38-106.5zm-1743-218a481.08 481.08 0 0 1 43.5-40.5 398.74 398.74 0 0 1 44.5-31.5l-10-39q-57 47-78 111zm124-2q-35 17-68.5 52.5a285.19 285.19 0 0 0 -53.5 80.5 213 213 0 0 0 57 87q27-107 117-164-19-17-32-31t-20-25zm32-168-2 22q0 71 56 127 55 55 141 70 12-21 22-62-148-24-178-179zm136-69-22 10a170.82 170.82 0 0 0 5.5 42.5 127.14 127.14 0 0 0 18.5 40.5 132.73 132.73 0 0 0 32.5 33q19.5 14 48.5 21-27-100-83-147zm143 634-17 11 27 7zm-306-116 62 37q51-134 166-187-37-3-93-23-55 6-94 59-39 52-41 114zm289 37-2-20a197.72 197.72 0 0 1 4-55.5q6-28.5 15-57.5-59 15-106 60.5a276.21 276.21 0 0 0 -69 107.5l71 27a279.94 279.94 0 0 1 87-62zm-3-596-41 13q82 91 82 205 0 45-23 123l65 8q3-14 17-24 12-22 12-66a354.84 354.84 0 0 0 -29-141.5 342.83 342.83 0 0 0 -83-117.5zm163-34-74 14q81 96 97 217l44-105q-12-75-67-126zm272 776 57-1-5-32zm-82-447q-114 0-194 88-80 87-80 213 0 27 11.5 49a109 109 0 0 0 32.5 37.5q21 15.49 49.5 24.5a203.19 203.19 0 0 0 61.5 9q118 0 213-75 95-77 95-178 0-37-14.5-68a165.49 165.49 0 0 0 -39.5-53.5q-25-22.5-60-34.5t-75-12zm-40-347-57 6 24 41q0-8 33-47zm-55 282a347.5 347.5 0 0 1 95-13q14 0 28 1a202.78 202.78 0 0 1 28 4q11-29 26-59.5t36-64.5a651.44 651.44 0 0 1 39-61q19-26 36-46 34-38 97-86-33-21-74-21-94 0-172 86t-139 260zm574-314a222 222 0 0 0 -71.5 12q-35.5 12-69.5 38-69 53-130 144t-77 135q17 8 36.5 22.5t43.5 38.5q18-59 146-180 127-118 249-136l-4-10q-40-64-123-64zm-262 820 59-5q-6-90-35-151a207.26 207.26 0 0 1 -46 72q21 41 22 84zm52-251q79 93 85 236l80-15a378.39 378.39 0 0 0 -4.5-43.5 263.06 263.06 0 0 0 -12.5-46.5 411.48 411.48 0 0 0 -24.5-54q-15.49-29-39.5-66l-14 1q-43 0-70-12zm388-422q-50 0-97.5 21t-93.5 55q-23 17-47 38t-51 49q-26 27-44.5 47t-29.5 37q-11 17-16 32a100.66 100.66 0 0 0 -5 32q0 44 54 44 60 0 122-21l109-37 109-39a427.59 427.59 0 0 0 49.5-21.5 262.49 262.49 0 0 0 48.5-32.5q47-39 47-78a111.58 111.58 0 0 0 -12-51.5 121.92 121.92 0 0 0 -32.5-40q-20.5-16.5-49-25.5a203.19 203.19 0 0 0 -61.5-9zm-22 368a448.49 448.49 0 0 1 87 51.5q42 31.5 82 74.5l40-30q-24-27-47-45a209.3 209.3 0 0 0 -48-28.5 249.62 249.62 0 0 0 -53-15.5 530.69 530.69 0 0 0 -61-7zm-125 256 103-31q-30-24-56.5-38.5t-47.5-19.5h-6l-11-1q5 19 10 41.5a476 476 0 0 1 8 48.5zm182-64 45-23q-42-42-87-72a321 321 0 0 0 -43.5-22.5 287.88 287.88 0 0 0 -40.5-13.5q-19-5-50.5-7.5t-76.5-2.5l19 21 12 12a312.35 312.35 0 0 1 135 41q32 18 54 34.5t33 32.5zm205-153 19-28-41 3zm-63-133h-27l-44 27 18 4h5l139-4a105.35 105.35 0 0 1 16.5-3.5q5.51-.49 3.5-18.5l-1-19a288.17 288.17 0 0 1 -53 11 516.64 516.64 0 0 1 -57 3zm84-89-28-42-15 50zm152 79q0 162-84 334-83 174-221 297-140 125-278 185l-3 44a140.68 140.68 0 0 1 -30.5 79q-27.49 35-81.5 61-108 52-274 52a868.58 868.58 0 0 1 -99-5.5 649.83 649.83 0 0 1 -96-18.5q-95-26-140.5-69t-45.5-101v-15q-134-47-264-145-66-49-118-100a886.67 886.67 0 0 1 -92-105 1155.67 1155.67 0 0 1 -71-111 867.55 867.55 0 0 1 -54-114.5 755.85 755.85 0 0 1 -34-114.5q-12-57-12-110v-40q0-218 132-379.5t399-255.5h19q22 9 22 33 0 23-16 33-470 162-485 547 24-182 280-308 257-125 617-132 82-63 176-63 84 0 146 56a381.6 381.6 0 0 1 58-17 290.42 290.42 0 0 1 59-6 236.33 236.33 0 0 1 128.5 38 197.07 197.07 0 0 1 47.5 43.5 180.83 180.83 0 0 1 30 56.5q37 15 77 30a194.32 194.32 0 0 1 70 45q109 79 151 152-18-74-52-136.5t-87.5-116q-53.5-53.5-127.5-98t-170-83.5q-13-7-22.5-12t-9.5-18q0-40 36-40l18 3 17 7q86 33 155.5 75t125.5 91q56 48 95 103a520.53 520.53 0 0 1 62 115q47 119 47 234z"/></svg>