<svg viewBox="0 0 2292 2400" xmlns="http://www.w3.org/2000/svg"><path d="m1381 170-33 4 18 12zm-406 435-79-59q-20 80-25 170zm-7 315-101-78-1 17 1 159 4 6zm1069-396-15-27-88 98 111 80 37-40q-27-78-45-111zm-553-353-56 60 104 76 97-107a531.7 531.7 0 0 0 -70.5-17.5q-36.5-6.5-74.5-11.5zm112 1130 30 23a796.09 796.09 0 0 0 194-88l-99-76zm-149 58 40-47-117-87-98 112 76 29zm494-449 119 88a390 390 0 0 0 34.5-88.5 467.35 467.35 0 0 0 13.5-96.5l-51-36zm-872-639 129 96 116-125-69-49q-27 8-54.5 18.5t-51.5 21a459.81 459.81 0 0 0 -42.5 21q-18.5 10.5-27.5 17.5zm412 92-105-77-116 125 105 78zm52 249 116-127-106-78-117 125zm-475 792q-138-64-202-155-15 111-36 188l-4 24v7q0 6 4 6l20-5q45-17 99-33.5t119-31.5zm643-977 124-135a463.59 463.59 0 0 0 -51.5-32 659 659 0 0 0 -66.5-31l-112 121zm-507 246 119-128-105-78-121 128zm691-336-122 135 109 78 106-117a577 577 0 0 0 -41-48.5 481.55 481.55 0 0 0 -52-47.5zm-174 191-116 129 111 81 116-130zm-228 140-109-79-120 131 110 81zm-455 297-109 119a739.16 739.16 0 0 0 50.5 56.5q24.5 24.5 46.5 43.5l122-136zm114-236-107-79-123 131 107 82zm625 54 112 82 117-133-113-81zm-343 63 111 82 120-134-111-81zm294 1247a284 284 0 0 1 71 9q-33 57-91.5 92.5t-130.5 35.5q-39 0-87-16a314.36 314.36 0 0 1 47.5-49 318.18 318.18 0 0 1 57.5-38 322.89 322.89 0 0 1 64.5-25 262.87 262.87 0 0 1 68.5-9zm-639-1184 109 83 124-135-109-81zm120 396 111-126-112-84-123 135a618.22 618.22 0 0 0 59.5 40q30.5 18 64.5 35zm-484 442q0-43-34-71-35-29-70-29-37 0-96 47 55 28 82 84.5t32 121.5l30-34q26-29 41-58a131 131 0 0 0 15-61zm1000-908-119 135 114 84 119-136zm-342 63-124 137 112 84 123-138zm48 267 115 87 123-141-114-85zm-275-747-135-99a441.15 441.15 0 0 0 -52.5 68 447.1 447.1 0 0 0 -38.5 78l107 80zm546 1332q-41 48-100 74t-126 26a280.86 280.86 0 0 1 -108-21q34-51 88.5-81.5t120.5-30.5q65 0 125 33zm78-650 117 88a832.22 832.22 0 0 0 72-62 653.51 653.51 0 0 0 61-68l-130-96zm-1397 1011q0-35-7.5-65t-21-52q-13.5-22-32.5-34.5t-43-12.5l-81 82-71 75 19-1a112.07 112.07 0 0 1 57 11q27 13 53 38t40 50.5a95.08 95.08 0 0 1 12 53.5l-2 19 42-42 6-16q29-35 29-106zm179-193a258.87 258.87 0 0 0 -7.5-63q-7.5-30-21-52.5t-32.5-35.5a71.18 71.18 0 0 0 -41-13l-119 127q26 11 48 32.5t38 51.5a288 288 0 0 1 25 66 308.11 308.11 0 0 1 9 75l73-82q15-17 21.5-44t6.5-62zm1185-135q85 76 85 189a242.21 242.21 0 0 1 -11 71q-31-10-92-10-87 0-163 40.5a349.52 349.52 0 0 0 -125 111.5 258.77 258.77 0 0 1 -85-89q-32-55-32-124 0-46 18-93a312.3 312.3 0 0 0 130 28q79 0 160-35 81-37 115-89zm555-1000a646.3 646.3 0 0 1 -24 175.5q-24 85.5-75 166.5-102 162-288 263-94 51-217.5 81.5t-278.5 45.5l-206 19q-123 12-246 74-121 60-164 117 0 57-20.5 103.5t-56.5 88.5l-68 79-70 85-189 211q-45 51-90.5 77.5t-93.5 26.5q-80 0-144-62-61-60-61-139 0-45 25.5-89.5t71.5-92.5l303-322q38-39 66.5-62.5t46.5-34.5a192.25 192.25 0 0 1 36.5-17.5 165.75 165.75 0 0 1 35.5-8.5 134.14 134.14 0 0 0 27-38.5 371.34 371.34 0 0 0 18-47.5l17-56q17-60 26.5-130.5t10.5-155.5l1-255q2-226 52-392t153-276q207-221 527-221a534.48 534.48 0 0 1 73.5 5.5q39.5 5.5 85.5 13.5 45 9 90.5 21.5a913.33 913.33 0 0 1 92.5 31 827.19 827.19 0 0 1 96 45.5q49 27 101 65a863.78 863.78 0 0 1 94 79 851.57 851.57 0 0 1 75 83 684.68 684.68 0 0 1 62.5 92 1126.63 1126.63 0 0 1 54.5 110q50 121 50 241z"/></svg>