<svg viewBox="0 0 2412 1590" xmlns="http://www.w3.org/2000/svg"><path d="m2025 557q0 35-12 63.5t-32.5 48.5a153.62 153.62 0 0 1 -47.5 31.5 143.89 143.89 0 0 1 -57 11.5q-85 0-145-65-32-32-47-70a215.89 215.89 0 0 1 -15-80 160.52 160.52 0 0 1 12-62 157.8 157.8 0 0 1 33-50.5 149.53 149.53 0 0 1 49.5-33.5 156.85 156.85 0 0 1 61.5-12q86 0 142 67 29 35 43.5 72a214.51 214.51 0 0 1 14.5 79zm261-77 4-17q0-28-35-39-101-30-124-44-23-13-62-47t-104-103a432.84 432.84 0 0 0 -69.5-56.5 584.73 584.73 0 0 0 -82.5-44.5q-89-39-174-39-14 0-22.5 3a35.42 35.42 0 0 0 -13.5 8 62.76 62.76 0 0 0 -9 11.5q-4 6.5-8 12.5l-229 478-4 18q0 8 4 12.5a28.21 28.21 0 0 0 9.5 7 66.81 66.81 0 0 0 11.5 4q6 1.5 11 2.5 88 11 149 33a441.7 441.7 0 0 1 109 59q25 19 56.5 52.5t69.5 84.5a336.11 336.11 0 0 0 53.5 55 240.16 240.16 0 0 0 60.5 36q32 14 58.5 20t47.5 6q65 0 88-32l12-22zm-1226 140-2-15-230-480q-23-36-54-35l-39 3q-54 10-98 23.5t-80 32.5a455.94 455.94 0 0 0 -70 47.5q-35 28.5-71 69.5-17 18-36.5 36.5t-42.5 38.5a374.71 374.71 0 0 1 -48 32 474 474 0 0 1 -49 24 411.51 411.51 0 0 1 -45 16q-21 6-35 9-35 6-35 38l4 19 7 19 135 320 62 143q23 32 87 32 42 0 108-28a288.24 288.24 0 0 0 63.5-38.5q29.5-23.5 54.5-57.5 30-42 56-71.5t46-49.5q42-38 101-61t142-36l17-2q52-3 52-29zm1352-227-3 16-273 651q-12 26-44 26a695.48 695.48 0 0 1 -92-6 600.53 600.53 0 0 1 -92-20q-89-25-140-67-26-20-54.5-51.5t-60.5-73.5q-24-32-47.5-53.5t-45.5-33.5q-45-24-113-38t-150-14l-38 81 361 685q3 8 5 15.5a60.06 60.06 0 0 1 2 15.5 58.47 58.47 0 0 1 -5 23.5 70.45 70.45 0 0 1 -13.5 20.5 65.3 65.3 0 0 1 -20.5 14.5 61.61 61.61 0 0 1 -26 5.5q-40 0-57-37l-298-634-297 634q-9 18-23 27.5t-36 9.5q-28 0-46-20t-18-46a60.14 60.14 0 0 1 7-29l361-685-37-81q-51 0-92.5 4a717.68 717.68 0 0 0 -75.5 11q-69 15-113 46-44 29-128 136-22 28-43.5 50.5a253.24 253.24 0 0 1 -44.5 37.5q-23 15-55.5 28a582.09 582.09 0 0 1 -71.5 23 667.75 667.75 0 0 1 -83 15.5 716.17 716.17 0 0 1 -89 5.5q-31 0-44-26l-274-651-4-16q0-17 12-30t29-13q75 0 134.5-15.5t99.5-53.5l60-58q35-33 59.5-59.5t44.5-41.5q41-33 93-59a449.76 449.76 0 0 1 64-25.5q36-11.51 76-20a813.05 813.05 0 0 1 81.5-13 764.89 764.89 0 0 1 82.5-4.5q27 0 40 25l331 691 332-691q12-25 38-25a775.22 775.22 0 0 1 88.5 5q43.5 5 88.5 14a533.74 533.74 0 0 1 83.5 25.5 597.8 597.8 0 0 1 73.5 35.5q36 20 75.5 57t91.5 86l60 58q18 17 44 29.5a375.83 375.83 0 0 0 56.5 21.5 422.55 422.55 0 0 0 65 13.5 529.1 529.1 0 0 0 68.5 4.5q17 0 28.5 13a43.93 43.93 0 0 1 11.5 30zm-1824-54a156.85 156.85 0 0 1 61.5 12 150.46 150.46 0 0 1 82.5 83q12 29 12 63 0 82-60 149-59 66-145 66a148.43 148.43 0 0 1 -107-44.5 142.94 142.94 0 0 1 -31-49 169.4 169.4 0 0 1 -11-61.5q0-83 56-151 56-67 142-67z"/></svg>