<svg viewBox="0 0 2154 1917" xmlns="http://www.w3.org/2000/svg"><path d="m2083 1707q0 36-70 78-68 43-179 43a436.07 436.07 0 0 1 -56-3.5q-27-3.49-54-8t-53-8a397.38 397.38 0 0 0 -53-3.5h-18l-19 2q-47 8-108 36l-53 25q-109 49-249 49-67 0-199-34-68-18-117-26.5t-81-8.5q-30 0-72.5 5t-99.5 15q-58 10-101 15t-73 5q-201 0-305-100-19-24-19-42 0-39 52-39 30 0 65 9 22 5 40 8.5t31 3.5h21q64 0 193-21 95-14 154-21t84-7q68 0 194 35 126 36 197 36a582.12 582.12 0 0 0 131-14.5q63-14.51 124.5-31.5t123-31.5a549.22 549.22 0 0 1 126.5-14.5q36 0 71.5 3a508.34 508.34 0 0 1 70.5 11q30 7 53.5 11t42.5 3l157-10 28 3q20 6 20 28zm71-305a40.53 40.53 0 0 1 -5 20q-7 9-48 35a281.93 281.93 0 0 1 -90 37 391.77 391.77 0 0 1 -39 6.5q-15 1.5-20-.5-26 0-63.5-5.5t-87.5-15.5q-98-19-153-19-76 0-202 56-124 55-262 55-32 0-84.5-8.5t-125.5-26.5q-143-34-210-34-73 0-209 32-68 15-120.5 23t-90.5 8q-103 0-223-46-121-48-121-106 0-53 53-53 31 0 96 25 20 7 47.5 11t64.5 4q40 0 93-7t118-21q184-38 261-38 76 0 205 36 131 35 205 35a629.67 629.67 0 0 0 136.5-14.5q65.5-14.5 129.5-32.5t127.5-32.5a579.65 579.65 0 0 1 129.5-14.5q26 0 67 5.5t98 18.5q57 13 98 20.5t67 5.5l86-5q38-2 55 13.5t17 32.5zm-1682-957q-59 0-104-45t-45-108v-17l2-15a251.38 251.38 0 0 1 48-109.5q37-48.49 95.5-82t135.5-51q77-17.5 169-17.5 163 0 296 77 67 38 119.5 84.5a671.19 671.19 0 0 1 93.5 101.5q40 54 71 126.5t57 163.5l41 145q11 38 41 74.5t78 74.5l51 41q26 21 66 49.5t99 64.5q182 112 182 153 0 45-132 45-58 0-119.5-6t-131.5-6q-34 0-89 7.5t-131 23.5q-76 16-129.5 24.5t-85.5 8.5q-29 0-68.5-4t-91.5-12q-53-8-92.5-12t-68.5-4q-42 0-92 8a651.47 651.47 0 0 1 -103 8q-31 0-55-4a186.73 186.73 0 0 1 -44.5-13 161.16 161.16 0 0 1 -38.5-24 322.26 322.26 0 0 1 -37-37q-37-45-57.5-109.5a431.53 431.53 0 0 1 -20.5-131.5q0-157 100-267 100-111 249-111 75 0 141.5 14.5t128.5 60.5q44 35 61 35 20 0 30-20.5a100.1 100.1 0 0 0 10-44.5q0-45-38-127-38-79-110.5-115.5t-183.5-36.5q-76 0-117 52a189.14 189.14 0 0 1 -35 34 282.34 282.34 0 0 1 -45 28 266.67 266.67 0 0 1 -50 19 192 192 0 0 1 -50 7z"/></svg>