<svg viewBox="0 0 2362 1843" xmlns="http://www.w3.org/2000/svg"><path d="m1673 1371v-78a58 58 0 0 0 -58-58h-67v136zm0 113v-58h-125v116h67a58 58 0 0 0 58-58zm-179-113v-136h-69q-23 0-40 17a55.88 55.88 0 0 0 -17 41v78zm0 171v-116h-126v58a55.88 55.88 0 0 0 17 41q17 17 40 17zm346-411v649q0 26-17.5 43.5t-45.5 17.5h-583v-426q0-20-13.5-34t-33.5-14h-190q-20 0-33 14t-13 34v426h-242q-26 0-44-17.5t-18-43.5v-649q0-26 13.5-56t33.5-47l524-478q19-18 46-18 25 0 45 18l526 478a162.46 162.46 0 0 1 17.5 21 140.64 140.64 0 0 1 14.5 26 178.13 178.13 0 0 1 9.5 28.5 117.5 117.5 0 0 1 3.5 27.5zm522 572q0 57-38 99-39 41-93 41h-313v-587q30-15 60-15 27 0 49.5 9.5a127 127 0 0 1 39.5 26 138.66 138.66 0 0 1 28 39 147.41 147.41 0 0 1 14 47.5q3 19 32 19 50 0 86 41 37 43 37 97l-4 29q0 14 11 19 28 12 46 28t28 33.5a115.49 115.49 0 0 1 13.5 36 201.52 201.52 0 0 1 3.5 37.5zm-1494-978-268 244a167.82 167.82 0 0 0 -29 33.5 271.41 271.41 0 0 0 -22.5 41 234.44 234.44 0 0 0 -14.5 44 200.58 200.58 0 0 0 -5 43.5v710h-211l9-19 8-17q3-16 5-33a318.49 318.49 0 0 0 2-37v-142q0-62-54-88a430.81 430.81 0 0 1 -121.5-88q-53.5-55-90.5-128.5t-56.5-164q-19.5-90.5-19.5-195.5a1554.44 1554.44 0 0 1 16-226 1461.5 1461.5 0 0 1 48-214q63-209 174-349 109-140 204-140 83 0 187 125a938.33 938.33 0 0 1 161 276.5q57 152.5 78 323.5z"/></svg>