<svg viewBox="0 0 2400 2454" xmlns="http://www.w3.org/2000/svg"><path d="m2051 916a235 235 0 0 1 69.5 10q32.51 10 56.5 28a137.17 137.17 0 0 1 38 43 108.77 108.77 0 0 1 14 54q0 51-42.5 86.5t-124.5 37.5q-154 3-263 43.5t-175 116.5q-35 40-55 40-27 0-27-40 0-25 11.5-58t35-69.5q23.5-36.5 59.5-75.5t84-77q99-76 175.5-107.5t143.5-31.5zm349 802a117.18 117.18 0 0 1 -34 83 124.22 124.22 0 0 1 -37 25.5 110.34 110.34 0 0 1 -46 9.5 137.06 137.06 0 0 1 -62-15q-16-8-40-27.5t-59-46.5q-94-72-179.5-108.5t-161.5-31.5l-84 6q-43 3-43-25 0-40 86-79a394.8 394.8 0 0 1 94.5-29q50.51-9 109.5-11 106-2 190.5 19.5t144 57.5q59.51 36 90.5 81t31 91zm-215 390a152.66 152.66 0 0 1 -8 49.5 129 129 0 0 1 -23 41.5 109.45 109.45 0 0 1 -36.5 28.5q-21.5 10.5-47.5 10.5-80 0-135-105a1241 1241 0 0 0 -68.5-117.5q-35.5-53.5-75.5-95.5a475 475 0 0 0 -86.5-72 431.8 431.8 0 0 0 -102.5-48q-63-12-63-39 0-50 117-50 106 0 221 56 58 28 102.5 56.5t76.5 56.5a390.52 390.52 0 0 1 57.5 57.5 421.51 421.51 0 0 1 41 60.5q16.5 30 24.5 58.5t6 51.5zm-1554-696q-76 0-146 17.5a533.46 533.46 0 0 0 -135 54.5 250.5 250.5 0 0 1 -55 24.5 201.9 201.9 0 0 1 -59 8.5 144 144 0 0 1 -51-9 117 117 0 0 1 -41-25.5 123.92 123.92 0 0 1 -27-39q-10-22.5-10-49.5 0-87 89-140 90-52 232-52 107 0 212 35 106 34 193 98 88 64 88 108 0 25-29 25-12 0-27.5-5.5t-35.5-13.5q-42-20-91.5-28.5t-106.5-8.5zm1087 875q0 61-29.5 88.5t-71.5 27.5q-67 0-109-58-41-57-47-225a316.77 316.77 0 0 0 -24-116 139.5 139.5 0 0 1 -7.5-20 66.86 66.86 0 0 1 -2.5-18q0-29 27-29 65 0 165 126 99 126 99 224zm-689-331q36 5 36 25t-39 59q-22 22-46 99-13 42-23 70t-20 44q-17 30-42.5 48.5t-62.5 18.5a77.34 77.34 0 0 1 -35-8.5 96.81 96.81 0 0 1 -30-23.5q-13-15-20.5-37t-7.5-49q0-101 89-173 90-73 201-73zm-283-246q57 0 107 12 49 12 49 32t-23.5 34q-23.5 14-69.5 25-61 14-119 53t-117 104q-69 76-138 76-37 0-64-21t-29-66q-2-53 32-98.5t91.5-79q57.5-33.5 131-52.5a594.79 594.79 0 0 1 149.5-19zm734-587a26 26 0 0 1 -19-8q-8-8-8-22 0-24 9-56.5t27-77.5a595.93 595.93 0 0 1 38.5-83 702 702 0 0 1 47.5-73q51-70 108-107t119-37q54 0 84.5 27.5t30.5 64.5q0 45-30 77.5t-89 57.5l-58 25q-59 26-103 61a392.42 392.42 0 0 0 -76 80q-50 71-81 71zm-1072-305q0-33 12.5-61a139.41 139.41 0 0 1 35-48q22.5-20 54-31t68.5-11q186 0 314 296 12 27 24 55t22.5 57.5a490.25 490.25 0 0 1 17 59 271.48 271.48 0 0 1 6.5 58.5 45.59 45.59 0 0 1 -6 22q-6 11-19 11-12 0-24-15l-21-24-71-71a422.42 422.42 0 0 0 -64.5-53 302 302 0 0 0 -74.5-36q-148-47-191-72-40-25-61.5-58.5t-21.5-78.5zm1048 819q0 101-62 171-61 70-156 70-49 0-89.5-16.5a186.69 186.69 0 0 1 -69-48q-28.5-31.5-44.5-77t-16-103.5a318.57 318.57 0 0 1 6.5-64.5 578 578 0 0 1 17-63.5q10.5-32 25-65t31.5-69q37-83 56.5-187t17.5-233l-4-237 4-382v-332h131v327l-3 589a1992.7 1992.7 0 0 0 13.5 233.5 754 754 0 0 0 61.5 221.5q17 37 31.5 70t25.5 65a454.72 454.72 0 0 1 17 64 363 363 0 0 1 6 67zm-1069 600q42 0 70.5 28t28.5 70q0 42-28.5 70.5t-70.5 28.5a94.21 94.21 0 0 1 -37.5-7.5 98.08 98.08 0 0 1 -31-21 103.54 103.54 0 0 1 -21.5-31.5 95 95 0 0 1 -8-39 91.56 91.56 0 0 1 8-38.5 105.41 105.41 0 0 1 21.5-31 98.08 98.08 0 0 1 31-21 94.21 94.21 0 0 1 37.5-7.5zm1865 1a83.85 83.85 0 0 1 34 7 90.5 90.5 0 0 1 28 19 89 89 0 0 1 19 28.5 87.39 87.39 0 0 1 7 34.5q0 36-26 61.5t-62 25.5q-37 0-63-25.5t-26-61.5q0-37 26-63t63-26zm-1988-1684a114.91 114.91 0 0 1 -46-9.5 127 127 0 0 1 -38.5-25.5 120 120 0 0 1 -26-132 122.09 122.09 0 0 1 64.5-64.5 114.91 114.91 0 0 1 46-9.5 117.33 117.33 0 0 1 47 9.5 122.09 122.09 0 0 1 64.5 64.5 117.33 117.33 0 0 1 9.5 47 114.91 114.91 0 0 1 -9.5 46 122.09 122.09 0 0 1 -64.5 64.5 117.33 117.33 0 0 1 -47 9.5zm1951 294a119.18 119.18 0 0 1 -46.5-9 117.33 117.33 0 0 1 -38-25.5 121.09 121.09 0 0 1 -26-39 123.47 123.47 0 0 1 -9.5-48.5 118.1 118.1 0 0 1 35.5-85 128.89 128.89 0 0 1 38-25.5 113.79 113.79 0 0 1 46.5-9.5 123.47 123.47 0 0 1 48.5 9.5 125.39 125.39 0 0 1 39 25.5 110.59 110.59 0 0 1 25.5 38 122.92 122.92 0 0 1 9 47 126.69 126.69 0 0 1 -9 47.5 114.73 114.73 0 0 1 -25.5 39 121.09 121.09 0 0 1 -39 26 123.47 123.47 0 0 1 -48.5 9.5zm-2026 174q0 40-27 67t-67 27q-41 0-68-27t-27-67q0-41 27-67t68-26q40 0 67 26t27 67zm2042 208q33 0 56.5 23t23.5 56q0 33-23.5 56t-56.5 23q-32 0-54.5-23t-22.5-56q0-33 22.5-56t54.5-23zm-1020 1067q33 0 55.5 22.5t22.5 55.5q0 33-22.5 56t-55.5 23q-33 0-56-23t-23-56q0-33 23-55.5t56-22.5zm-1068-431q32 0 56 23t24 56q0 33-24 55.5t-56 22.5q-32 0-55-22.5t-23-55.5q0-33 23-56t55-23zm618-1419q-33 0-56-23t-23-56q0-32 23-55.5t56-23.5q33 0 55.5 23.5t22.5 55.5q0 33-22.5 56t-55.5 23zm1135 48q-40 0-67.5-27.5t-27.5-68.5q0-40 27.5-67t67.5-27q41 0 68 27t27 67q0 41-27 68.5t-68 27.5z"/></svg>