<svg viewBox="0 0 2028 2179" xmlns="http://www.w3.org/2000/svg"><path d="m2028 592q0 178-115 308-115 132-347 202-117 36-248.5 54.5t-280.5 18.5q-158 0-293-38t-200.5-104q-65.5-66-65.5-156 0-75 48-132t136-99q88-43 210-66 63-12 113.5-18.5t92.5-6.5q108 0 195.5 9.5t155.5 27.5q138 38 235 121a368 368 0 0 1 -60 37q-34 17-76 34-172-121-453-121-144 0-252 39-107 38-107 106 0 51 89 82 87 31 232 31 379 0 595-111 216-112 216-314 0-90-49.5-162t-135.5-129q-83-55-211-97-64-21-147.5-38t-188.5-29q-55 0-55-21 0-15 45-20 86 0 241 30 152 30 285 83 195 81 295.5 201t100.5 278zm-221 478q-10 63-38.5 128t-79.5 133a925.06 925.06 0 0 1 -111 122 765.1 765.1 0 0 1 -132 97 335.75 335.75 0 0 0 -33 20 62.11 62.11 0 0 1 -36 11q-30 0-30-24 0-12 17-26l103-91q119-101 184-296 94-37 156-74zm-346 730 16-3a45.71 45.71 0 0 1 25.5 7.5 81.2 81.2 0 0 1 20 18.5 82.21 82.21 0 0 1 13 24.5 83.48 83.48 0 0 1 4.5 26.5q0 36-18 51.5t-71 15.5a398.8 398.8 0 0 0 -57.5 4q-27.49 4-55.5 10-66 13-115 33t-84 50a469.44 469.44 0 0 1 -87 61.5 600.12 600.12 0 0 1 -100.5 44 697.51 697.51 0 0 1 -219.5 35.5q-157 0-281.5-66t-227.5-194a945 945 0 0 1 -92-137q-41-74-71-160-60-169-60-324v-34q0-82 20-82 9 0 18 11 20 25 69.5 44.5t115.5 19.5q35 0 70.5-3.5t70.5-7.5q35-4 71-7.5t72-3.5q191 0 357 70 82 35 148.5 84.5t114 110.5a499.5 499.5 0 0 1 105.5 284q2 40 13.5 60t37.5 20q126-29 150-47z"/></svg>