<svg viewBox="0 0 1860 2080" xmlns="http://www.w3.org/2000/svg"><path d="m1710 732q0-13-25-35-26-24-49-24-18 0-74 85l-1 4-3 10q-14 49-25.5 97.5t-26.5 96.5a244.8 244.8 0 0 0 44 6.5q24 1.5 50 1.5 18-32 33.5-62.5t29.5-61.5q15-31 25-52t15-34a146.77 146.77 0 0 0 6.5-20 29.89 29.89 0 0 0 .5-12zm-526-323-1 17q51 12 80.5 48t29.5 87l8-8q26-124 40.5-214.5t16.5-149.5q2-33-10-42t-32-9q-56 0-74 55-9 28-18 65.5t-22 85.5zm567-123 3-15q0-4-7.5-10a98.57 98.57 0 0 0 -19-11.5 137.77 137.77 0 0 0 -25-9 101.92 101.92 0 0 0 -25.5-3.5h-3q-12 0-22 14t-23 41l-10 20q-27 60-54 122t-51 131a115.82 115.82 0 0 1 36 36q36-36 86-36l30 3 3-8q23-68 46-135.5a972 972 0 0 0 36-138.5zm-809 311 14-34-3-185 2-74q1-59-4-95.5t-7-52.5q-3-16-5.5-25.5t-7.5-14.5q-5-5-14-6.5t-25-1.5q-32 0-48 15.5t-18 46.5l-3 34q-4 52-8 103.5t-4 104.5q39 5 64 27a111 111 0 0 1 23.5 25 209.49 209.49 0 0 1 16.5 29q13 31 27 104zm-494-417q0 59 5 131t15 159l26-2q38-2 68 14.5t53 45.5l4-12-20-157q-11-81-20-135.5t-20-82.5q-5-13-8.5-21t-15.5-8a302.5 302.5 0 0 0 -37 2q-16 2-27.5 9t-17 20.5q-5.5 13.5-5.5 36.5zm-166 670 60 122 9-2h9q-12-74-27.5-154a871.25 871.25 0 0 1 -15.5-166v-19l2-19-33-59-48-82q-32-56-63-56a105.55 105.55 0 0 0 -46 10q-21 10-21 25l7 29q16 69 61.5 159.5t105.5 211.5zm354 288q-16-143-38.5-261t-45.5-215l-6-28q-15-58-52-58-21 0-34.5 2t-21 9.5q-7.5 7.5-10.5 22t-3 39.5a697.6 697.6 0 0 0 4.5 80q4.5 39 11.5 77t14 77q7 39 13 80a149 149 0 0 1 43 6q30 11 50 85 14 53 75 84zm546-556 2-24q0-31-49-31l-29 4q-26 11-56 77-14 32-32.5 92.5t-42.5 150.5q8 78 12 161a1439.89 1439.89 0 0 0 16 158l23-1 48-163q14-51 32-104.5t33-113.5q16-60 27-111.5t16-94.5zm280 131 3-36q1-10-6.5-19a65.66 65.66 0 0 0 -19.5-15.5 125.8 125.8 0 0 0 -26.5-10.5 106.77 106.77 0 0 0 -28.5-4q-9 0-10 5t-9 13q-45 69-83 197-11 32-117 324l59-8q58-16 88-40 32-26 54-109 6-24 22-34l55-193zm-568 461-9-98-27-311q-3-34-8-67.5t-12-67.5q-6-33-11-55t-10.5-35q-5.5-13-12-18t-16.5-5q-36 0-55 20.5t-19 71.5v64l5 102v21l2 22q2 45 7.5 99.5t9.5 121.5q5 57 7.5 89.5t2.5 40.5q24 3 59.5 4t86.5 1zm966-903v12l-1 13v3a677.39 677.39 0 0 1 -17 86q-11 41-24.5 80.5t-28 77.5q-14.5 38-27.5 77 56 41 56 111 0 21-9 50t-23.5 63.5q-14.5 34.5-33.5 73t-39 77.5q25 21 25 38l-9 47q-17 78-38.5 156t-39.5 156q-43 189-81.5 323t-59.5 221l-10 40q-12 52-26 78t-34 26q-17 0-35-9l-33-9a3384.29 3384.29 0 0 0 -426-27q-100 0-201.5 6.5t-205.5 20.5a115.3 115.3 0 0 0 -33.5 10 84.69 84.69 0 0 1 -35.5 8q-18 0-30.5-26.5t-26.5-77.5l-11-40q-22-81-51-180t-58-222q-29-123-47.5-197t-26.5-100q-8-27-19.5-78t-26.5-126q0-37 54-49l-60-126q-78-164-122.5-263.5t-44.5-144.5a124.84 124.84 0 0 1 13.5-57.5 139.19 139.19 0 0 1 37-45.5q23.5-19 55.5-29.5t69-10.5q48 0 87 29.5t73 86.5l22 37q-15-133-15-242v-10l-2-15v-16q0-173 196-173 64 0 104 58 40 59 64 268l13-148q8-98 51.5-140t123.5-42q126 0 152 107l1 3q18 78 18 191v130l11-4 15-81 37-139 15-49q38-128 175-128 70 0 110 39.5t40 104.5v21q0 51-11 125t-31 176q65-174 102-241 25-61 60.5-93.5t83.5-32.5h7q37 0 86 19 49 20 73 49t24 74z"/></svg>