<svg viewBox="0 0 2290 2307" xmlns="http://www.w3.org/2000/svg"><path d="m2052 384-83 30a182.82 182.82 0 0 0 -41 21 197.07 197.07 0 0 0 -33 28 143.3 143.3 0 0 0 -22 30q-8 15-8 28 0 20 20 34l22-16q25-19 61-57t84-98zm238-64q0 37-34 64-38 29-69.5 73.5t-63.5 85.5q-20 24-38.5 46a266.25 266.25 0 0 0 -32.5 49 286 286 0 0 1 -30.5 49q-16.5 21-48.5 21l-25-3-975 1269q84 84 84 161 0 45-29 68.5t-75 23.5q-73 0-140-45l-85 109q-13 16-33 16t-30-12.5a44.34 44.34 0 0 1 -10-28.5 40 40 0 0 1 8-24l84-111q-85-83-85-161 0-45 29.5-68t74.5-23q73 0 141 45l969-1257a85.76 85.76 0 0 1 -9-16.5 68.47 68.47 0 0 1 -5-20.5q-38-5-57.5-29.5t-19.5-71.5q0-69 47-115.5t147-78.5q38-13 66.5-25t46.5-25l28-15q20-35 66-35 25 0 44 7a100.74 100.74 0 0 1 32.5 19 81.52 81.52 0 0 1 20.5 27.5 75.77 75.77 0 0 1 7 31.5zm-706-107q0 19 12 29 47-19 97.5-50.5t105.5-77.5q-22 3-44.5 4.5t-44 5a272.18 272.18 0 0 0 -42.5 10.5 160.54 160.54 0 0 0 -40 20q-44 32-44 59zm38 192-1243 1005q23 38 35.5 74.5t12.5 70.5q0 45-23.5 73t-68.5 28q-78 0-160-82l-108 88a45.91 45.91 0 0 1 -14 7 45 45 0 0 1 -12 2 39.52 39.52 0 0 1 -29-12 39.52 39.52 0 0 1 -12-29q0-19 16-33l107-86q-49-74-49-143 0-46 24-74.5t69-28.5q76 0 160 81l1234-998-6-27 2-11q-30-11-49-45a93.53 93.53 0 0 1 -7-36q0-68 54-119 29-25 78-38t119-23l81-11 27-10 32-7q0-4 6-7.5a85.33 85.33 0 0 1 14.5-6.5 141.6 141.6 0 0 1 18-5 81.84 81.84 0 0 1 16.5-2q40 0 69 30 32 30 32 61 0 49-51 71a338 338 0 0 0 -42 24q-21 14-43 31l-128 104q-12 10-23 20t-21 21q-17 20-32.5 36.5t-38.5 16.5a97.5 97.5 0 0 1 -20.5-2.5 261.38 261.38 0 0 1 -26.5-7.5z"/></svg>