<svg viewBox="0 0 1794 2061" xmlns="http://www.w3.org/2000/svg"><path d="m1479 1325v-183a137.49 137.49 0 0 0 -10-52.5 126.32 126.32 0 0 0 -70.5-70.5 137.49 137.49 0 0 0 -52.5-10 131.2 131.2 0 0 0 -51 10 123.41 123.41 0 0 0 -41.5 28 138.59 138.59 0 0 0 -28 42.5 131.83 131.83 0 0 0 -10.5 52.5v183zm-365-904v-34q0-14-8.5-23.5t-24.5-9.5h-368q-16 0-25 9.5t-9 23.5v34q0 33 34 33h368q33 0 33-33zm0 164v-33q0-34-33-34h-368q-16 0-25 9.5t-9 24.5v33a34.65 34.65 0 0 0 9 24q9 10 25 10h100q34 0 34 33v100q0 16 9.5 25t23.5 9h34q14 0 23.5-9t9.5-25v-100q0-33 34-33h100q16 0 24.5-10a35.83 35.83 0 0 0 8.5-24zm-85 740v-183a137.49 137.49 0 0 0 -10-52.5 126.32 126.32 0 0 0 -70.5-70.5 137.49 137.49 0 0 0 -52.5-10 131.2 131.2 0 0 0 -51 10 133 133 0 0 0 -42 27.5 128.38 128.38 0 0 0 -28.5 42q-10.5 24.5-10.5 53.5v183zm-450 0v-183a131.83 131.83 0 0 0 -10.5-52.5 138.59 138.59 0 0 0 -28-42.5 123.41 123.41 0 0 0 -41.5-28 131.2 131.2 0 0 0 -51-10q-29 0-53 10a127.49 127.49 0 0 0 -70 70.5 137.49 137.49 0 0 0 -10 52.5v183zm1215-639v715l-2 6v654h-623v-396q0-38-26.5-64.5t-64.5-26.5h-362q-38 0-64.5 26.5t-26.5 64.5v396h-623v-651l-2-9v-715a127.33 127.33 0 0 1 5-34 174.14 174.14 0 0 1 14-35 185.3 185.3 0 0 1 21-31.5 137.94 137.94 0 0 1 26-24.5l766-544q25-17 64-17 40 0 66 17l766 544a137.94 137.94 0 0 1 26 24.5 185.3 185.3 0 0 1 21 31.5 174.14 174.14 0 0 1 14 35 127.33 127.33 0 0 1 5 34z"/></svg>