<svg viewBox="0 0 1866 2117" xmlns="http://www.w3.org/2000/svg"><path d="m1187 678-142 1h-30l-27-1q-3 11-5.5 31.5t-.5 51.5l4 89q18 0 43.5-8.5t59.5-23.5a212.14 212.14 0 0 0 32.5-19q15.49-11 37.5-11 23 0 23 18 0 45-81 97-80 54-190 54a351.61 351.61 0 0 1 -91.5-12.5 548.58 548.58 0 0 1 -94.5-35.5q-94-46-94-103 0-29 23-29 14 0 36 11 20 11 36 19a237.67 237.67 0 0 0 31 13q14 5 40.5 12t64.5 17q-6-25-6-74a643.92 643.92 0 0 1 9-108q-69-8-132-18a802.15 802.15 0 0 0 -126-10q-62 0-114.5 16a409.71 409.71 0 0 0 -97.5 44 451.34 451.34 0 0 0 -83 66.5 750.6 750.6 0 0 0 -71 83.5q-132 182-132 428 0 146 50.5 274t166.5 239q231 219 596 219 179 0 321-59t230-159q88-99 148-246 60-145 60-313 0-95-19.5-178t-57-150.5q-37.5-67.5-92.5-117t-126-78.5q-76-31-199-30zm679-494q0 24-62 91-59 65-140 117a723.34 723.34 0 0 1 -172.5 77.5q-91.5 27.5-179.5 27.5-90 0-166-27-73-28-93-54-5 5-24 51a405 405 0 0 0 -28 86l-2 15 46 1 142-1q148-1 241 38 89 38 156.5 98a552.28 552.28 0 0 1 113 139.5q45.49 79.5 68.5 176t23 207.5a974.61 974.61 0 0 1 -17.5 185.5 944.25 944.25 0 0 1 -53.5 178.5q-36 88-80.5 160a739 739 0 0 1 -101.5 130q-111 116-270 176t-344 60q-301 0-509-129-208-128-310.5-303.5t-102.5-405.5q0-141 40.5-268a800.9 800.9 0 0 1 119.5-234 847.56 847.56 0 0 1 87-98.5 562 562 0 0 1 102-78.5 497.8 497.8 0 0 1 119.5-51.5q64.5-18.5 138.5-18.5a968.11 968.11 0 0 1 136 9.5q67 9.5 137 18.5a516.91 516.91 0 0 1 11-54 560.33 560.33 0 0 1 17-54l11-42 6-29q9-50 61-50 43 0 65 22 29-149 139-249 113-102 255-102a565.21 565.21 0 0 1 106 10.5 855.71 855.71 0 0 1 114 30.5q59 20 101.5 44t68.5 52q9 11 20 22t11 25z"/></svg>