<svg viewBox="0 0 2318 2364" xmlns="http://www.w3.org/2000/svg"><path d="m1274 863v-4q-56 34-111 34-74 0-123-27v93q45 22 109 22 80 0 124-27v-51zm-620 479a66.33 66.33 0 0 0 12.5 39.5q12.5 17.51 35 29.5t54 18a366.44 366.44 0 0 0 68.5 6 294.13 294.13 0 0 0 65-7q31-7 54.5-19.5t37.5-30q14-17.51 15-37.5a69.51 69.51 0 0 0 -2.5-25q-3.5-12-20.5-12l-30 11q-60 33-110 33-72 0-123-28l-16-7-17-4q-23 0-23 33zm829 151q67 0 121-28 53-27 53-67 0-37-25-37l-30 11q-59 33-108 33a274.4 274.4 0 0 1 -63.5-7 255.43 255.43 0 0 1 -55.5-20q-21-11-37-11-24 0-24 31 0 11 6 29a89.27 89.27 0 0 0 25.5 29.5 145.7 145.7 0 0 0 38.5 20.5 254.46 254.46 0 0 0 47.5 12 331.44 331.44 0 0 0 51.5 4zm184 700v-343q-52 25-177 46v356a836.63 836.63 0 0 0 90.5-24.5 821.43 821.43 0 0 0 86.5-34.5zm-846 63v-357l-12-2q-54-6-99-19.5t-82-27.5v343q81 41 193 63zm296 29v-360q-59-3-113-4.5a718.25 718.25 0 0 1 -105-10.5v360q89 12 218 15zm295-18v-359q-144 15-217 15v362q52-2 106-6.5t111-11.5zm-256-2185a87 87 0 0 0 -50.5 15.5q-22.5 15.5-42.5 46.5-38 61-38 142 0 47 10.5 86.5t28.5 68q18 28.5 41.5 44.5t50.5 16q53 0 92-63a258.12 258.12 0 0 0 30-68q10-36 10-79 0-42-10-78a258.12 258.12 0 0 0 -30-68q-39-63-92-63zm330 580q-59 0-96 64-35 63-35 145 0 90 39 150 40 60 92 60 24 0 47-15.5t42-43.5q19-28 30.5-66.5t11.5-84.5q0-85-39-147t-92-62zm-659-126q-57 0-96 63-37 61-37 147 0 45 11.5 83.5t30 66.5q18.5 28 42.5 43.5t49 15.5q23 0 46-15t42-42q19-27 30.5-63.5t11.5-79.5q0-94-40-157-39-62-90-62zm653 1115-1-9q-26-36-58.5-61a287.22 287.22 0 0 0 -73-40.5q-40.5-15.49-90-22.5t-109.5-8q-100-1-169 17t-111.5 40.5q-42.5 22.5-61.5 42t-19 21.5l-4 12q0 12 11 18l329 194q7 6 18 6 15 0 21-6l306-182q12-7 12-22zm-965-655v668q-27 19-44 50l-7-7q-160-127-358-187-8 0-23.5-3t-38.5-11q-44-14-44-30 0-26 41-46 82-53 189-80l20-2.5 12-12.5q0-17-44-64t-152-127q-21-16-21-33 0-30 92-30a662.14 662.14 0 0 1 95.5 6.5 745.38 745.38 0 0 1 85.5 17.5l19 6q14 0 14-19 0-23-20-60l-30-61q-11-23-18.5-37t-7.5-21q0-22 32-22 23 0 50 7.5a293.43 293.43 0 0 1 54.5 21.5 413.93 413.93 0 0 1 54.5 33.5 356.45 356.45 0 0 1 49 42.5zm1803 480q0 17-58 32-219 52-431 217-6-23-31-46v-675a327.26 327.26 0 0 1 49-47 346.28 346.28 0 0 1 55.5-35.5 315.86 315.86 0 0 1 56.5-22.5q28-8 52-8 32 0 32 22 0 13-10 31l-46 88a281.25 281.25 0 0 0 -14.5 31.5 80 80 0 0 0 -5.5 28.5q0 19 14 19l19-6a745.38 745.38 0 0 1 85.5-17.5 662.14 662.14 0 0 1 95.5-6.5q92 0 92 30 0 19-20 33-28 19-59 44t-66 57q-70 61-70 90 0 9 49 22 75 22 125 45t73 49q13 16 13 25zm-617-605v858q44 20 44 60v426q0 22-17 33-87 55-245 86-158 30-335 30-231 0-414-48-184-48-184-101v-426q0-47 62-67v-976q0-122 60-206 61-84 155-84 69 0 116 46v-211q0-113 60-202t153-89q91 0 152 88 62 86 62 203v336q56-47 116-47 89 0 152 86 63 87 63 205z"/></svg>