<svg viewBox="0 0 1712 2377" xmlns="http://www.w3.org/2000/svg"><path d="m900 903q0-44-60-53l-28-4q-25-6-57-47-29-38-50-38-13 0-22.5 18t-9.5 46q0 59 39 102 39 42 95 42 11 0 21-1a51.28 51.28 0 0 0 18-5q20-4 37-21t17-39zm119 80q30 0 65-41 34-41 34-122 0-119-64-204-65-85-166-85-75 0-122 23.5t-47 65.5q0 16 13.5 29.5t39.5 13.5q73 0 134 38t61 76a240.07 240.07 0 0 0 7 57.5 240.07 240.07 0 0 1 7 57.5q0 91 38 91zm-142-654q0 67 89 90l41 16q78 32 119 80t51 104q16 95 52 95 20 0 35.5-14t26.5-38.5q11-24.5 17-59t6-76.5q0-83-17-121a647.33 647.33 0 0 0 -33.5-65.5q-20.5-35.5-48.5-79.5-56-87-118-87-34 0-72 19l-45 22q-103 50-103 115zm-19 1059q0-89-63-98-79-9-139-28t-104-48l-144-95q-98-63-118-68a97.47 97.47 0 0 0 -15.5-4 76.22 76.22 0 0 0 -11.5-1q-22 0-49 46-14 23-20 44a148.89 148.89 0 0 0 -6 41q0 28 21.5 44.5t65.5 26.5q47 11 82.5 33t58.5 53q30 40 56.5 66t50.5 37q45 22 131 22 46 0 83.5-2.5t64.5-10.5q27-8 41.5-21.5t14.5-36.5zm644-293q0-97-35-182t-85-85q-14 0-17.5 12.5a86 86 0 0 1 -11.5 24.5q-42 112-124.5 187t-206.5 104q-60 15-60 47 0 54 73 100 37 24 72.5 35a237.33 237.33 0 0 0 70.5 11q57 0 173-45 115-45 136-113a305.51 305.51 0 0 0 11.5-49 326 326 0 0 0 3.5-47zm-1221-583-4 88v11q0 105 67 227 67 121 157 177 19 12 36.5 23a381.45 381.45 0 0 0 36 20 185.83 185.83 0 0 0 84.5 19q39 0 39-16 0-21-16.5-44t-53.5-59q-14-14-30-37.5t-36-59.5q-37-71-37-133 0-30 16.5-68.5t42.5-91.5l26-52 8-24 4-25q0-37-29-56t-103-19q-107 0-156 30t-52 90zm1431 289q0 77-70 162 55 159 55 260v20l-2 20q-2 42-58 93t-162 111q-210 118-425 118 13 40 26 101t27 145q27 167 27 272 0 40-3 72.5t-8 58.5l-6 45q-15 98-92 98-33 0-56-15t-23-44q0-20 5-34 6-33 10-66t6-66q-78 88-130 88-14 0-23-21l-8-8q-15-18-64-18a100 100 0 0 0 -37.5 7q-17.5 7-42.5 7-13 0-31-29-18-27-44-27l-38 4-36-1-57 5q-13 0-21.5-8t-23.5-37l-17-19q-26-19-90-25-67-6-93-16l4-34q0-20-9-35.5t-29-23.5l-48-18q-33-12-57-20t-39-14q-15-6-22-11t-7-11q0-22 66-22h19q25 0 41-6t26.5-16a80.12 80.12 0 0 0 17-23.5q6.5-13.5 12.5-29.5l32 7 28 4q66 0 76-67l7-22q47 8 78 12t45 4a342.43 342.43 0 0 1 34.5-3.5q13.5-.49 23-5t17-15.5q7.5-11 15.5-33a467.41 467.41 0 0 0 74 15q48 6 100 24l23 4q4 0 11.5-7.5t22.5-7.5q20 0 82 50 60 47 92 82a851 851 0 0 0 -22.5-110.5q-14.5-52.5-30.5-111.5a776.84 776.84 0 0 1 -80 18 403.55 403.55 0 0 1 -86 5l-94-4a457.74 457.74 0 0 1 -71-9 194.5 194.5 0 0 1 -61-24q-28-17-65-48.5t-85-79.5q-39-37-92-58-23-9-53-25.5t-66-36.5l-35-21q-35-20-52.5-43.5t-17.5-53.5a293.7 293.7 0 0 1 10-77 475.67 475.67 0 0 0 14-78q8-69 37-147 32-82 71-121-16-54-34-114a419 419 0 0 1 -18-121q0-75 23-140.5t69-125.5q26-33 121-64a529.59 529.59 0 0 1 96-23 720.43 720.43 0 0 1 102-7 614.78 614.78 0 0 1 97 7.5q47 7.5 96 11.5 31-44 83-78t133-68q82-35 137-59.5t87-24.5q22 0 47 17 11 8 46 44t95 101q60 65 98 111.5t55 74.5a435.87 435.87 0 0 1 29.5 53 313.11 313.11 0 0 1 18 49 302.28 302.28 0 0 1 9 49.5q2.5 25.5 2.5 54.5l49 57q52 59 79.5 105.5t27.5 84.5z"/></svg>