<svg viewBox="0 0 1804 2332" xmlns="http://www.w3.org/2000/svg"><path d="m1726 1347q34-1 56 13.5t22 35.5q0 17-21.5 37t-59.5 49l-26 19q-48 35-92 102t-98 159l-56 96q-47 79-92.5 135.5t-84.5 95.5q-134 134-313 188-90 27-153.5 41t-101.5 14q-79 0-79-57 0-14 4.5-33t11.5-45q9-30 21-61a430.76 430.76 0 0 1 30.5-62.5 460.62 460.62 0 0 1 44.5-62.5q26-31 62-63 18-100 28.5-189.5t8.5-168.5l-4-172a344 344 0 0 1 -66 17.5 530.21 530.21 0 0 1 -70 6.5q-106 3-198.5-39.5t-160.5-116q-68-73.5-105.5-171t-34.5-205.5l7-220q2-63-5.5-114t-22-90q-14.5-39-34-67t-42.5-45q-32-23-51.5-39t-31-28.5q-11.5-12.5-15.5-22a52.22 52.22 0 0 1 -4-20.5q0-75 143-75 60 0 113 11.5a485.88 485.88 0 0 1 99 32.5q93 44 116 118-83 176-83 369 0 156 50 272-12-61-12-131 0-60 8-132.5t25-157.5q33-170 86-300 52-128 103-188.5t98-60.5q69 0 155.5 96.5t186.5 273.5l30 53q71 125 111.5 227t50.5 183l1-39a590.9 590.9 0 0 0 -7.5-117 762.38 762.38 0 0 0 -27.5-112 840.63 840.63 0 0 0 -44.5-109q-26.5-54-58.5-107l-58-94q0-123 89-200t201-77q61 0 96.5 16t35.5 41l-6 19q-6 10-20.5 25.5t-38.5 37.5q-54 50-71 94-16 42-16 111 0 48 12.5 113.5t36.5 153.5q48 171 48 283 0 108-31.5 202.5t-90.5 164.5a430.45 430.45 0 0 1 -142 110.5q-83 40.5-185 40.5h-18l-17-1v35q0 139-3 241t-8 171q37-15 60-45t48-66q28-41 53-69.5t48-48a273.4 273.4 0 0 1 46-32 371.83 371.83 0 0 1 47-21.5l70-26a133.42 133.42 0 0 0 31.5-16 252.83 252.83 0 0 0 28.5-23l55-52a317.88 317.88 0 0 1 65.5-48.5 505.34 505.34 0 0 1 75-34.5 528.5 528.5 0 0 1 75.5-21.5q37-7.5 66-7.5z"/></svg>