<svg viewBox="0 0 2180 2229" xmlns="http://www.w3.org/2000/svg"><path d="m892 117q37 0 37 120 0 51-7 120.5t-21 159.5q-27 179-114 274.5t-221 95.5h-25l-24-3q-45 169-96.5 406t-112.5 547q-21 107-38 173.5t-28 95.5q-22 57-54 90t-83 33q-53 0-79-38t-26-100q0-24 6-60.5t20-87.5q13-51 27-98.5t30-91.5q59-167 133-392t165-513q-53-24-90.5-53.5t-61-66a267.88 267.88 0 0 1 -34.5-80q-11-43.5-11-94.5 0-101 41-213a955.92 955.92 0 0 1 51-112.5 989.85 989.85 0 0 1 71-113.5q81-115 116-115 20 0 20 21 0 20-15.5 51t-33.5 73q-18 42-33.5 94.5t-15.5 116.5q0 45 20 64t45 19q26 0 49-24 24-27 56-122 6-17 15-43t23-60q29-69 47-104t38-35q33 0 30 37l-1 18q-5 68-19.5 126t-27.5 109q-8 32-10.5 55a358 358 0 0 0 -2.5 37q0 68 61 68 24 0 47-25t38-78l11-37q36-121 56.5-182.5t31.5-61.5zm1288 2001a117.82 117.82 0 0 1 -6 36.5 98.43 98.43 0 0 1 -17.5 32.5 89.12 89.12 0 0 1 -29.5 23q-18 9-42 9-67 0-117-50-49-49-90-167-20-60-37-121.5t-33-126.5l-60-250q-13-54-32.5-82t-50.5-28q-30 0-78 18-50 18-80 18-85 0-151.5-75t-104.5-228q-7-29-12.5-57t-10.5-57q-5-29-10-80t-10-126q-6-74-12-137.5t-10.5-119q-4.5-55.5-7-105t-2.5-96.5q0-182 32-249 31-66 91-66 75 0 143 171 37 96 72.5 192t70.5 191q35 95 71 190t76 189q40 97 79 192t75 191q63 167 110 282t79 182q54 115 79.5 190.5t25.5 113.5z"/></svg>