<svg viewBox="0 0 2352 2374" xmlns="http://www.w3.org/2000/svg"><path d="m313 2056v85q0 19 12.5 32t32.5 13h53q20 0 33.5-13a42.68 42.68 0 0 0 13.5-32v-85q0-20-13.5-33.5t-33.5-13.5h-53q-20 0-32.5 13.5t-12.5 33.5zm145-177v-85q0-20-13.5-32.5t-33.5-12.5h-53q-20 0-32.5 12.5t-12.5 32.5v85q0 20 12.5 33.5t32.5 13.5h53q20 0 33.5-13.5t13.5-33.5zm158 130h-53q-20 0-33 13.5t-13 33.5v85q0 19 13 32t33 13h53q20 0 33-13t13-32v-85q0-20-13-33.5t-33-13.5zm46-130v-85q0-20-13-32.5t-33-12.5h-53q-20 0-33 12.5t-13 32.5v85q0 20 13 33.5t33 13.5h53q20 0 33-13.5t13-33.5zm58-85v85q0 20 13.5 33.5t33.5 13.5h53q20 0 33.5-15t13.5-32v-85q0-20-13.5-32.5t-33.5-12.5h-53q-20 0-33.5 12.5t-13.5 32.5zm304 215h-53q-20 0-32.5 13.5t-12.5 33.5v85q0 19 12.5 32t32.5 13h53q20 0 33.5-13a42.68 42.68 0 0 0 13.5-32v-85q0-20-13.5-33.5t-33.5-13.5zm891-115v-119q0-7-13.5-17.5t-33.5-10.5h-53q-20 0-33.5 13t-13.5 33v85q0 20 13.5 33t33.5 13h53q20 0 33.5-11t13.5-19zm50-357v86q0 20 12.5 33t32.5 13h55q20 0 32.5-11t12.5-18v-119q0-8-12-18.5t-33-10.5h-55q-20 0-32.5 14t-12.5 31zm-358-282v87q0 17 14 31t31 14h55q17 0 31-14t14-31v-87q0-20-12.5-32.5t-32.5-12.5h-55q-20 0-32.5 12.5t-12.5 32.5zm503 103v-119q0-8-12.5-18.5t-32.5-10.5h-55q-20 0-32.5 12.5t-12.5 32.5v87q0 17 14.5 31t30.5 14h55a50.47 50.47 0 0 0 31-10.5q14-10.5 14-18.5zm123-170 2 1186h-2051v-725q0-66 49-117 50-50 118-50h465q68 0 118 50 49 49 49 117v95h476v-556q0-68 49-117 52-50 118-50h442q34 0 63 13a177.35 177.35 0 0 1 53 37q49 49 49 117zm59 381v-51h60v51zm-892 0h-373a195.25 195.25 0 0 0 -12-27q-7-13-14-24h399zm-1400 0v-51h168a249.65 249.65 0 0 0 -16.5 26 212.6 212.6 0 0 0 -11.5 25zm1400-273v69h-1400v-69zm892 69v-69h60v69zm-2292-292h1432a214.38 214.38 0 0 0 -20 44 258.13 258.13 0 0 0 -10 45h-1402zm2352 89h-61a206.83 206.83 0 0 0 -9-45 189 189 0 0 0 -21-44h91zm-2352-203v-107h2352v107zm0-203v-127h2352v127zm0-204v-145h2352v145zm2-368h2348l2 39v125h-2352v-125zm219-184h1910a218.22 218.22 0 0 1 67.5 10.5 212.45 212.45 0 0 1 59.5 30 234.74 234.74 0 0 1 48 46.5 223.28 223.28 0 0 1 33 59h-2326a223.28 223.28 0 0 1 33-59 234.74 234.74 0 0 1 48-46.5 212.45 212.45 0 0 1 59.5-30 218.22 218.22 0 0 1 67.5-10.5z"/></svg>