<svg viewBox="0 0 2192 2239.04" xmlns="http://www.w3.org/2000/svg"><path d="m2192 864q0 74-60 158a405.62 405.62 0 0 1 -67.5 74 439.43 439.43 0 0 1 -82.5 56 431.93 431.93 0 0 1 -92.5 35.5 389.34 389.34 0 0 1 -97.5 12.5q-47 0-88-11.5a318.18 318.18 0 0 1 -79-34.5q-73-41-115-41a108.6 108.6 0 0 0 -30 4 94.43 94.43 0 0 0 -25 11q-23 15-78 100-55 87-89 170a803.58 803.58 0 0 0 -28 80.5 552.4 552.4 0 0 0 -16 73.5q-9 71-9 191v42l5 90q6 99 48 121 85 43 85 117a94.46 94.46 0 0 1 -14.5 50.5q-14.51 23.49-40 40t-60 26q-34.5 9.5-74.5 9.5-124 0-179-67-28-33-44-104.5t-27-182.5l-19-200q-11-111-81-111-36 0-97 35-30 17-61.5 33t-63.5 29a414.83 414.83 0 0 1 -65.5 20.5 312.58 312.58 0 0 1 -68.5 7.5q-84 0-191-70l-22-18q-26-20-44-31t-31-11a150.92 150.92 0 0 0 -44 7 167.65 167.65 0 0 1 -49 7q-27 0-46-9t-30-23.5a94.68 94.68 0 0 1 -16-33.5 156.74 156.74 0 0 1 -5-40q0-80 69-146 71-67 154-67a95.64 95.64 0 0 1 53 15.5q24 15.49 35 36.5 17 31 55 57t73 26q85 0 210-167 56-74 130-190 76-117 76-191 0-86-67-102-35-8-63.5-12a373.32 373.32 0 0 0 -51.5-4 320 320 0 0 0 -36.5 2 105.45 105.45 0 0 0 -31 8 47.29 47.29 0 0 0 -21 17.5q-7.5 11.5-6.5 29.5l2 22q2 30-7.5 55.5a124.65 124.65 0 0 1 -27.5 44q-18 18.5-44 29t-57 10.5q-31 0-57-11.5a133.35 133.35 0 0 1 -44.5-31.5 146.86 146.86 0 0 1 -29-47 155.87 155.87 0 0 1 -10.5-57q0-161 123-257 124-96 329-96a669.91 669.91 0 0 1 120.5 10.5q57.5 10.5 114.5 25.5l26 7q24 6 38.5 8.5t17.5 2.5q20 0 31-17.5t9-52.5l-7-99a289.78 289.78 0 0 1 19-128.5 318.13 318.13 0 0 1 69.5-108q45.5-46.5 108.5-73.5t135-26q152 1 256 98t104 244a414.09 414.09 0 0 1 -9 85 350.21 350.21 0 0 1 -30 85q-21 42-55 81t-85 72q-41 26-41 53a59.87 59.87 0 0 0 4 21.5 115.41 115.41 0 0 0 12 22.5l32 49q14 21 35.5 42t53.5 41q65 40 113 40 51 0 77-42 9-16 9-60 0-38 15-58 8-10 22.5-20a212.15 212.15 0 0 1 30.5-17.5 241.29 241.29 0 0 1 32.5-12.5q16.5-5 29.5-5 53 0 102 44 47 44 47 101z"/></svg>