<svg viewBox="0 0 2050 2239" xmlns="http://www.w3.org/2000/svg"><path d="m478 1745v-86q0-20-12.5-32.5t-32.5-12.5h-54q-20 0-33 12.5t-13 32.5v86q0 20 13 33t33 13h54q20 0 32.5-13t12.5-33zm-204 0v-86q0-20-12.5-32.5t-32.5-12.5h-55q-20 0-32.5 12.5t-12.5 32.5v86q0 20 12.5 33t32.5 13h55q20 0 32.5-13t12.5-33zm1294-539v-84q0-20-12.5-33.5t-32.5-13.5h-53q-20 0-33.5 13.5t-13.5 33.5v84q0 20 13.5 33.5t33.5 13.5h53q20 0 32.5-13.5t12.5-33.5zm-885 539v-86q0-20-14.5-32.5t-32.5-12.5h-53q-20 0-33 12.5t-13 32.5v86q0 20 13 33t33 13h53q18 0 32.5-13t14.5-33zm1244-240v-119q0-8-13-18.5t-33-10.5h-53q-20 0-33 13t-13 33v85q0 20 13 32.5t33 12.5h53q20 0 33-10.5t13-17.5zm-1040 500v-85q0-20-13.5-33t-33.5-13h-53q-20 0-32.5 13t-12.5 33v85q0 20 12.5 33.5t32.5 13.5h53q20 0 33.5-13.5t13.5-33.5zm-409 0v-85q0-20-12.5-33t-32.5-13h-54q-20 0-33 13t-13 33v85q0 20 13 33.5t33 13.5h54q20 0 32.5-13.5t12.5-33.5zm1253-245v-119q0-7-12.5-17.5t-32.5-10.5h-55q-20 0-32.5 12.5t-12.5 32.5v85q0 20 12.5 33t32.5 13h55q20 0 32.5-10.5t12.5-18.5zm-1457 245v-85q0-20-12.5-33t-32.5-13h-55q-20 0-32.5 13t-12.5 33v85q0 20 12.5 33.5t32.5 13.5h55q20 0 32.5-13.5t12.5-33.5zm1653-782v-118q0-7-13-18.5t-33-11.5h-53q-20 0-33 13.5t-13 33.5v84q0 20 13 33.5t33 13.5h53q20 0 33-11.5t13-18.5zm-511-1028-5-9q0-8 11-10l65-9q21-5 32-25l26-59q3-8 9-8 5 0 10 8l30 58q6 18 32 22l67 8q9 1 9 8l-4 10-48 45q-12 12-12 31l1 7 14 66v5q0 8-7 8l-8-2-59-32-20-4a47.28 47.28 0 0 0 -11 1 22.34 22.34 0 0 0 -7 3q-60 38-66 38-8 0-8-10l11-70v-7q0-19-12-30zm-313 373-5-10q0-7 9-8l67-11q24-4 30-25l28-59q2-8 8-8t11 8l28 58q11 20 33 23l66 7q11 2 11 9l-6 10q-29 29-46 45t-12 33v4l15 66v5q0 10-9 10l-67-36-17-4q-15 0-21 6-63 37-66 37-8 0-8-9l2-5 11-67v-6q0-21-14-30zm-126 298q0 33-66 54-32 11-71 15.5t-84 5.5a516.84 516.84 0 0 1 -130-14.5 537.61 537.61 0 0 1 -226-116 464 464 0 0 1 -82.5-93 439.93 439.93 0 0 1 -53.5-110.5 361.42 361.42 0 0 1 -17-123q2-112 35.5-199.5t102.5-153.5q137-131 371-131 138 0 138 39 0 14-63 57-38 26-63.5 45t-37.5 30q-115 108-115 280 0 142 75 241 74 99 193 119 94 15 94 55zm465 20h442q68 0 116 50 50 48 50 117v1186h-2050v-725q0-69 48-117 50-50 119-50h465q70 0 118 50 49 49 49 117v96h476v-557q0-69 48-117 50-50 119-50z"/></svg>