<svg viewBox="0 0 2332 2199" xmlns="http://www.w3.org/2000/svg"><path d="m729 1048h12a116.12 116.12 0 0 1 44 8.5 183 183 0 0 1 42 24.5q43 31 43 71 0 26-9.5 45.5a94.57 94.57 0 0 1 -25.5 32.5 103.83 103.83 0 0 1 -36 19 141.91 141.91 0 0 1 -41 6q-53 0-87.5-29.5t-34.5-78.5q0-43 33-70 35-29 60-29zm1409 156 10 2a50.74 50.74 0 0 0 23-5.5 81.6 81.6 0 0 0 19.5-13.5 61.36 61.36 0 0 0 13.5-18.5 47.53 47.53 0 0 0 5-20.5q0-28-15-53.5t-29-46.5l-89-131q-14-21-27-32.5t-29-11.5q-26 0-58 19-32 20-32 39 0 10 10 19 103 85 154 187a140.71 140.71 0 0 1 7.5 18.5 217.06 217.06 0 0 0 8 20.5 71 71 0 0 0 11 17.5q6.5 7.5 17.5 10.5zm-129 30q0-33-18-80.5t-54-90.5a471.6 471.6 0 0 0 -40.5-41.5 383 383 0 0 0 -48.5-37.5 610.63 610.63 0 0 0 -53.5-32 313.72 313.72 0 0 0 -56.5-23 445.25 445.25 0 0 0 -65-14q-35-5-78-5-115 0-167 19a207.23 207.23 0 0 0 -47.5 24.5 303.65 303.65 0 0 0 -42.5 35.5q-40 40-40 82a91.21 91.21 0 0 0 4 27 176.82 176.82 0 0 0 11 27l41 82q15 29 29 44.5t29 15.5l16-4q66-27 134-27 101 0 171 54l18 19q30 43 65 43 17 0 40-8t54-22q30-13 49-23.5t30-20q11-9.49 15.5-20t4.5-24.5zm-268 159q0-10-8-18.5a84.71 84.71 0 0 0 -20.5-15.5 114.15 114.15 0 0 0 -29-11 137.42 137.42 0 0 0 -32.5-4q-20 0-45 16-26 17-37 17-15 0-15-9l5-11 6-13q0-24-45-24-72 0-72 55a20.35 20.35 0 0 0 6 15l12 21q24 39 40 60.5t30 21.5q20 0 48-13t70-32l23-11q24-11 44-21.5t20-22.5zm-399 109q0-6-2.5-16.5a118.67 118.67 0 0 0 -7.5-21.5 135.51 135.51 0 0 0 -11.5-20.5q-6.5-9.5-14.5-13.5a43.19 43.19 0 0 0 -14-4 61.6 61.6 0 0 1 -14.5-3.5 36.79 36.79 0 0 1 -11.5-7q-5-4.5-5-14.5l8-71q0-62-63-93-41-15-41-34 0-13 10-26a76.63 76.63 0 0 0 14-45 146.41 146.41 0 0 0 -6.5-42.5 314.32 314.32 0 0 0 -17.5-44.5q-22-44-57-49-45-6-45-23a93.46 93.46 0 0 1 5.5-31.5q5.5-15.5 5.5-35.5 0-48-19.5-79.5t-51.5-36.5q-26-5-44-18.5t-18-24.5a36.51 36.51 0 0 1 2-12.5q2-5.5 5-12a81.81 81.81 0 0 0 5-14.5 84.3 84.3 0 0 0 2-20 127 127 0 0 0 -5-36 90.36 90.36 0 0 0 -14.5-29.5 71.58 71.58 0 0 0 -22-19.5 48.42 48.42 0 0 0 -27.5-6l-31 2q-16 2-24.5-10t-17.5-26a123.14 123.14 0 0 0 -23.5-26.5q-14.5-12.5-41.5-12.5-75 0-111 54-25 37-52 37a102 102 0 0 1 -20-2q-10-2-21-5a87.78 87.78 0 0 0 -22.5-5q-11.5-1-25.5-1-21 0-43.5 9.5t-45.5 26.5q-4 3-11 13.5a273.07 273.07 0 0 0 -16 28.5q-14 29-33 29a113 113 0 0 1 -20-2q-11-2-22-5t-21.5-5a100.68 100.68 0 0 0 -18.5-2q-41 0-75 36-33 35-33 74 0 34 18.5 82t52.5 112l33 62q78 146 156.5 305t170.5 327l22 52 38 61q21 45 41 45l7-1q26-9 51-19.5a494.21 494.21 0 0 0 50-24.5q64-34 132.5-67t144.5-63q35-14 86-39t120-63q62-35 62-72zm-303-1093a99.06 99.06 0 0 0 -30.5 5 120 120 0 0 0 -28 13 87.21 87.21 0 0 0 -21 18.5q-8.5 10.5-8.5 21.5 0 7 7.5 26.5t24.5 48.5q34 59 51 59t42-26q44-29 95-29a100.77 100.77 0 0 1 29 4.5q15 4.5 35 12.5 38 16 38 35 0 12-24 18-13 3-21 5a56.39 56.39 0 0 1 -13 2q-43 6-70 12t-42.5 12.5q-15.49 6.5-21 13.5a23.83 23.83 0 0 0 -5.5 15q0 23 28 59 14 18 25.5 26t20.5 8q5 0 15-2.5t24-9.5a733.24 733.24 0 0 0 135.5-59.5q64.5-36.5 134.5-72.5a214.23 214.23 0 0 0 18.5-13q7.5-6 7.5-26a73.83 73.83 0 0 0 -4.5-24q-4.5-13-12.5-31-17-34-37.5-47.5t-53.5-18.5q-52-6-58-45-8-45-25.5-71t-55.5-26q-37 0-53.5 15.5t-24 34.5a237.85 237.85 0 0 0 -11 34.5q-3.5 15.5-15.5 15.5l-15-3q-36-11-80-11zm407-86q0 50 20 99 21 46 52 46 37 0 51-65 7-33 11.5-58.5t4.5-45.5a119.27 119.27 0 0 0 -3.5-29 77.1 77.1 0 0 0 -11-25 56.14 56.14 0 0 0 -19-17.5q-11.5-6.5-26.5-6.5-33 0-56 28t-23 74zm365 105a97.47 97.47 0 0 0 -5-31 78.1 78.1 0 0 0 -15.5-27q-10.5-12-27-19t-38.5-7q-63 0-108 86-45 84-45 113 0 31 30 31a112.89 112.89 0 0 0 35-5.5 212.82 212.82 0 0 0 34-14.5l65-34q37-20 56-42t19-50zm74 221h-10q-26 0-36.5 11.5a88.36 88.36 0 0 0 -16.5 26 238.11 238.11 0 0 1 -12.5 26q-6.5 11.5-24.5 11.5-24 0-63-41-33-34-70-34-46 0-46 53l5 45q0 8-1 11t-12 3a123.89 123.89 0 0 1 -30-4 284.37 284.37 0 0 1 -36-12q-39-16-63-16-33 0-55.5 16.5t-22.5 48.5q0 26 13 47t29 21l24-4q60-22 150-22l69 7 53 8q11 2 30.5 8.5t47.5 17.5l25 7q19 0 65-44 47-44 47-87 0-35-21-70-19-34-38-34zm447 517a243.34 243.34 0 0 1 -2 30 307.14 307.14 0 0 1 -7 36l-65 216q-10 32-41.5 60.5t-73.5 47.5l-1441 630q-29 13-67 13-33 0-55-9t-36-20.5q-14-11.51-21-23t-10-16.5l-464-905q-49-98-49-210v-246q0-70 41-120 4-8 50.5-38t124.5-65q169-74 464-192t717-283l119-46a426.2 426.2 0 0 1 56.5-18.5 216 216 0 0 1 51.5-6.5 143.67 143.67 0 0 1 33 4 157.05 157.05 0 0 1 32.5 11.5 126.55 126.55 0 0 1 29 19.5 115.52 115.52 0 0 1 22.5 27l568 1007q23 40 23 97z"/></svg>