<svg viewBox="0 0 2038 2276" xmlns="http://www.w3.org/2000/svg"><path d="m213 470 162 47 54-108-54-111a322.13 322.13 0 0 0 -102 72q-44 46-60 100zm-78-1q0-20 16-57.5t44-72.5q15-18 29-32a269.49 269.49 0 0 1 31-26.5q17-12.5 39-25.5t52-28l29-6q48 0 69 43l55 109a46.35 46.35 0 0 1 6.5 17.5 118.53 118.53 0 0 1 1.5 18.5q0 19-8 34l-55 109q-11 23-28.5 33t-40.5 10l-21-3-163-48q-26-8-41-28.5a76.78 76.78 0 0 1 -15-46.5zm1275-393a265.33 265.33 0 0 0 -44.5 4q-23.5 4-49.5 11l56 161 137-52v-109q-8 0-32.5-7.5t-66.5-7.5zm-167 41-4-26q0-91 171-91 62 0 107 15 29 3 48.5 25t19.5 51v109q0 54-49 72l-137 52-27 4q-25 0-44.5-14t-28.5-38zm438 418 218-39q-55-102-114-161zm14 76-14 2q-32 0-54-23t-22-55q0-21 8-36l104-200q21-41 68-41a115.49 115.49 0 0 1 19 1.5q9 1.5 19.5 8t23.5 19.5q13 13 31 36 19 23 35.5 47t31.5 50q16 26 23 45t7 31q0 29-17.5 50.5t-45.5 26.5zm-762 415 1-11 11-12q30-35 47.5-53.5t25.5-18.5a19.26 19.26 0 0 1 17 9l29 28q21 21 32 33.5t11 20.5q0 3-5 9a146.08 146.08 0 0 1 -12.5 13l-15 14-13.5 13a53.72 53.72 0 0 1 -6.5 9.5 148.61 148.61 0 0 1 -10 11 56.67 56.67 0 0 1 -11.5 9q-6 3.49-10 3.5-17 0-26-11-33-39-64-67zm-287-149q0 28 15 48.5t43 20.5a58.33 58.33 0 0 0 25.5-6 70.7 70.7 0 0 0 22-16.5 85.72 85.72 0 0 0 15.5-25 81.6 81.6 0 0 0 6-31.5q0-28-15.5-49.5t-43.5-21.5a56.68 56.68 0 0 0 -26.5 6.5 65.36 65.36 0 0 0 -21.5 18 98.72 98.72 0 0 0 -14.5 26 85.2 85.2 0 0 0 -5.5 30.5zm223 134-5 16a23.13 23.13 0 0 0 7 17l73 87 16 22q17 23 31 37t29 15q19 1 27.5-11a242.41 242.41 0 0 1 18.5-23l58-67q50-56 50-78 0-13-19-39t-54-69l-30-37a128.13 128.13 0 0 1 -10.5-15 156.11 156.11 0 0 0 -12-17 86.06 86.06 0 0 0 -13.5-13.5 25.18 25.18 0 0 0 -16-5.5q-13 0-52 51l-82 105q-13 13-16 25zm403-144q0 34 21 56.5t47 22.5q25 0 41.5-20t16.5-48q0-36-21-59t-47-23q-24 0-41 20.5t-17 50.5zm317 792-284-182-286 163-311-163-224 163-267-176a431.84 431.84 0 0 0 -13 65 547.32 547.32 0 0 0 -4 66 483.3 483.3 0 0 0 17.5 130 512.34 512.34 0 0 0 50.5 120 558.22 558.22 0 0 0 81 107 645.35 645.35 0 0 0 108 90q122 82 272 118a1319.74 1319.74 0 0 0 147 26.5 1160.18 1160.18 0 0 0 138 8.5 1240.5 1240.5 0 0 0 131-7 1124.73 1124.73 0 0 0 130-21.5 1163.4 1163.4 0 0 0 124.5-35.5 899.61 899.61 0 0 0 113.5-48q54-27 96.5-59a732.09 732.09 0 0 0 77.5-67 505.72 505.72 0 0 0 109-172 538.83 538.83 0 0 0 28-105.5 501.19 501.19 0 0 0 5-114.5l-7-99zm31-128 151-126a75.67 75.67 0 0 1 51-19q42 0 66 37 22 36 22 143 0 165-65 298t-193 228q-126 93-301 139a1398.77 1398.77 0 0 1 -172 34 1270.6 1270.6 0 0 1 -165 11q-244 0-452-86t-325-242q-118-157-118-353 0-211 98-211 14 0 24 3.5a82.38 82.38 0 0 1 20 10.5l145 94a558.11 558.11 0 0 1 -17.5-68.5q-6.5-34.5-11.5-69.5-155-41-266-187-57-74-84-152a485.8 485.8 0 0 1 -27-160q0-122 82-122 33 0 65 17.5t59 34.5q45 26 101 49t125 40l12 1q19-49 38.5-93a854.29 854.29 0 0 1 41.5-82 700.91 700.91 0 0 1 53.5-78.5 891.82 891.82 0 0 1 73.5-82.5q43-43 85-72a441.78 441.78 0 0 1 87-47 447.76 447.76 0 0 1 93-26q48-8 103-8 134 0 227 42 46 21 93.5 60t92 95.5q44.5 56.5 85.5 130t74 163.5q73-18 133.5-40.5t108.5-51.5q28-17 60-34.5t64-17.5q81 0 81 122 0 101-50 210-51 111-136.5 186t-189.5 103q-12 105-42 177z"/></svg>