<svg viewBox="0 0 2508.07 2042" xmlns="http://www.w3.org/2000/svg"><path d="m2385.07 1471a70.25 70.25 0 0 0 -6.5-30 80.15 80.15 0 0 0 -17.5-24.5 83.5 83.5 0 0 0 -25-16.5 72.89 72.89 0 0 0 -29-6 82.77 82.77 0 0 0 -31 6l-331 118q14 48 20 132 18-4 50.5-13l70.5-19.5q38-10.5 77.5-21.5t73-20.5q33.51-9.49 56.5-16t28-7.5a150.16 150.16 0 0 0 21-13 133 133 0 0 0 20.5-18.5 109 109 0 0 0 16-23 56.56 56.56 0 0 0 6.5-26.5zm-2019-1219q-74 0-74 86v14l3 14q1 6 10 28.5t22 54.5q13 32 29 70t31 74.5q15 36.5 28 67t20 48.5a579 579 0 0 1 117-66l-109-335q-10-29-31-42.5a83.37 83.37 0 0 0 -46-13.5zm205-109q-34 0-53.5 24.5t-19.5 66.5l1 15q1 8 10 43.5t27 100.5q18 65 35.5 122t34.5 108q32-10 121-22l-75-390q-6-33-29.5-50.5t-51.5-17.5zm1694 1022a92.33 92.33 0 0 0 -40 9l-355 181q22 27 57 109 22-7 70-25.5t123-48.5q75-29 118-47.5t52-23.5q53-32 53-80 0-30-23-52t-55-22zm-1027 383q0 79 32 147.5t91 123.5q59 55 120 76 31 11 82.5 16t124.5 5a221.48 221.48 0 0 0 45-5 511.67 511.67 0 0 0 52-14q57-20 101-32t75-18l91-16 228-41a110.44 110.44 0 0 0 51.5-30q21.51-22 21.5-48a79 79 0 0 0 -6-30.5 83.42 83.42 0 0 0 -17-26 80.4 80.4 0 0 0 -25.5-18 76.12 76.12 0 0 0 -31.5-6.5l-22 3-194 48-94 22a62.17 62.17 0 0 1 -2 13.5q-2 8.51-5 17.5a60.9 60.9 0 0 1 -7.5 15.5q-4.5 6.49-10.5 6.5-13 0-14-12-24-219-135-420-14-20-14-33 0-10 11-10 17 0 49 33 22-11 60.5-32t85.5-47.5q47-26.51 97-57t94-60.5q23-16 34-36t11-40a61 61 0 0 0 -7-28.5 90.34 90.34 0 0 0 -18-24 91.89 91.89 0 0 0 -25-17 66 66 0 0 0 -28-6.5 87.53 87.53 0 0 0 -23.5 3.5q-12.5 3.5-26.5 13.5l-314 210-111 70q-35 22-59 36t-39.5 24q-15.49 10-22.5 17t-7 15q0 9 7 19 26 41 26 92 0 21-15 21-19 0-26-31-9-34-44-79a243.16 243.16 0 0 1 -27.5-47 112.53 112.53 0 0 1 -9.5-50l1-113-1-61a118.63 118.63 0 0 0 -9.5-35 132.74 132.74 0 0 0 -18.5-30.5 92.41 92.41 0 0 0 -24.5-21.5 55.08 55.08 0 0 0 -28.5-8 100.76 100.76 0 0 0 -33 5.5 84.3 84.3 0 0 0 -28.5 16.5 83.12 83.12 0 0 0 -20 26.5q-7.5 15.49-7.5 35.5l7 247-3 10q-17 58-30 106t-13 90zm-1039-1125q-40 0-58 23.5t-18 51.5a143.32 143.32 0 0 0 2 24.5 92.86 92.86 0 0 0 7 22.5l127 245q28 54 52 106a699.35 699.35 0 0 1 39 106q13 50 52 96l42 50q38 45 73.5 75t73.5 43a634.26 634.26 0 0 0 76 19 423.9 423.9 0 0 0 77 7q54 0 101.5-15a341.49 341.49 0 0 0 90-44q42.51-29 80.5-71t74-96l5-8 118-86q34-25 57.5-42t34.5-28q22-22 22-55 0-34-21.5-57t-55.5-23a153.67 153.67 0 0 0 -32 3 109.32 109.32 0 0 0 -27.5 10 176.67 176.67 0 0 0 -27.5 18q-14 11-33 26l-84 67a113 113 0 0 1 -44 23.5 190.54 190.54 0 0 1 -50 6.5h-29a204.71 204.71 0 0 0 -36.5 3 95.5 95.5 0 0 0 -30.5 11q-18 8-25 8-5 0-12-4.5t-7-11.5q0-24 78-51l19-4q20-1 26.5-8.5t6.5-24.5q0-65-23-168-3-80-10.5-197t-21.5-272q-6-78-83-78-33 0-53.5 24.5t-20.5 69.5q0 19 12 127 7 55 16.5 119.5t20.5 140.5a92.85 92.85 0 0 1 18 2 157.31 157.31 0 0 1 19 5 60.9 60.9 0 0 1 15.5 7.5q6.51 4.5 6.5 10.5 0 13-38 19a1071.52 1071.52 0 0 0 -188 42 889.86 889.86 0 0 0 -173 77 156.43 156.43 0 0 0 -14.5 8.5q-8.49 5.5-16.5 10.5a145 145 0 0 1 -15.5 8.5q-7.5 3.5-13.5 3.5-14 0-14-11 0-18 29-46l-121-270q-21-49-74-49zm2251 1186a281.69 281.69 0 0 1 20 51.5 193.6 193.6 0 0 1 7 51.5q0 66-44 120t-117 77q-27 8-110.5 23t-225.5 38q-1 0-42.5 9.5t-107.5 33.5q-38 14-89.5 21.5t-118.5 7.5q-166 0-272-59-108-60-173-166t-65-258q0-119 49-238l-4-130q-86 118-194.5 182t-226.5 64q-105 0-202-45-96-46-187-156-47-57-75-106t-40-93a786.16 786.16 0 0 0 -28.5-80.5 797.15 797.15 0 0 0 -43.5-88.5l-22-40-62-116q-26-48-41-80t-20-47a302.21 302.21 0 0 1 -10.5-38.5q-4.5-21.5-4.5-48.5-1-39 11.5-72.5a193.47 193.47 0 0 1 35-59.5 190 190 0 0 1 54-43q31.5-17 70.5-23 6-39 22.5-71t42-54a184.67 184.67 0 0 1 59-34 210.48 210.48 0 0 1 71.5-12h17l13 1q24-51 69.5-80.5t104.5-29.5q56 0 107 27 52-47 128-47 45 0 81 14a186.42 186.42 0 0 1 62.5 39.5 196.1 196.1 0 0 1 42.5 60.5q16 35 20 77l9 116 17 267 1 7q2 31 6 67.5t10 78.5q82-61 115-71a263.54 263.54 0 0 1 38-9.5 250 250 0 0 1 43-3.5q45 0 80 16t64 46q57 62 57 142a217 217 0 0 1 -8 58q14 5 29 16a336.23 336.23 0 0 1 31 26 173.24 173.24 0 0 1 29 35.5 337.88 337.88 0 0 1 22 42.5q9 24 13 59.5t4 86.5l67-35 129-88 254-169a232.44 232.44 0 0 1 55-26.5q29-9.5 63-9.5 79 0 141 60 60 60 60 140v12a222.21 222.21 0 0 1 91 72.5q36 48.49 36 111.5a193.8 193.8 0 0 1 -21 87q62 62 62 144 0 78-58 139z"/></svg>