<svg viewBox="0 0 1950 1752" xmlns="http://www.w3.org/2000/svg"><path d="m813 441-153-19a42.07 42.07 0 0 0 -12 1.5q-5 1.5-8 8t-4 18.5q-1 12 0 33l5 74q2 31 68.5 46.5t203.5 15.5q35 0 35-29 0-53-4-82.5t-12-39.5q-8-9-37.5-14.5t-81.5-12.5zm196 88-5 58q-1 16 9 24t27 8q56 0 100-2.5t78-7.5q70-11 83-28 15-19 15-94 0-22-.5-34.5t-2.5-19.5q-2-7-6.5-9t-13.5-2l-245 31q-25 8-31 24t-8 52zm608-188-46 4q-16 2-42.5 9.5t-64.5 18.5q-75 22-81 32-5 10-7 28t-2 46q0 45 2 65.5t11 20.5l11-2q46-12 81-28a383.51 383.51 0 0 0 62.5-35.5 337.47 337.47 0 0 0 49-42 445.46 445.46 0 0 0 39.5-47.5 212.48 212.48 0 0 0 17-26.5q6-11.5 6-20.5 0-22-36-22zm-1065 222 11 2q6 0 8.5-3.5t3.5-14q1-10.5 1-28.5v-47q0-43-8-67-6-9-81-31-38-11-64.5-18.5t-43.5-10.5l-46-4q-34 0-34 21l1 12q0 14 20 36 38 52 94.5 92.5t137.5 60.5zm1008 152q0-63-56-63l-30 2-247 55-78 15q-46 9-64 30-17 20-31 99-8 38-12.5 75t-8.5 72q-13 142-24 184-11 39-33 39-24 0-31.5-26.5t-12.5-76.5q-9-94-17.5-159t-16.5-104q-17-82-34-103-10-11-26-18a218.9 218.9 0 0 0 -37-12l-78-15-245-55-30-2q-28 0-42 15t-14 60q0 13 21 89 10 32 19.5 71t17.5 86q27 162 54 269.5t56 161.5q57 108 158 158.5t258 50.5q165 0 268-58t161-180q22-46 51-176 14-65 25-121.5t19-104.5q6-40 15.5-81.5t22.5-86.5q22-76 22-90zm390-241q0 46-28 94a276.59 276.59 0 0 1 -30.5 43.5q-17.5 20.5-43.5 40.5t-61.5 39.5q-35.5 19.5-83.5 39.5-52 166-82 287.5t-41 202.5q-16 125-68.5 223.5t-132.5 167q-80 68.5-183 104.5t-220 36q-114 0-217.5-36.5t-185-104.5q-81.5-68-135-166.5t-68.5-223.5q-10-84-40.5-206t-81.5-284q-59-22-105-51t-78-62q-32-33-48.5-69.5t-16.5-74.5q0-98 82-166 83-68 221-68 73 0 154 22 234 61 517 61 143 0 272-14.5t247-46.5a630.62 630.62 0 0 1 79-16.5 550.44 550.44 0 0 1 77-5.5q137 0 219 68 41 35 61.5 75.5t20.5 90.5zm-1415-417q0-12 11.5-22.5t30.5-18a235.51 235.51 0 0 1 43-12 265.29 265.29 0 0 1 49-4.5q37 0 72 3t69 7q34 4 67 7t67 3q20 0 40-2t40-5q38-5 81-8t94-3q44 0 78.5 3t59.5 11q6 3 15.5 7a116 116 0 0 1 18 9.5 78.44 78.44 0 0 1 15 12.5 22.87 22.87 0 0 1 6.5 16q0 31-76 30l-60-2q-46 0-148 26-51 14-87.5 20t-62.5 6q-61 0-170-24l-85-19-84-14a224.69 224.69 0 0 0 -37-3q-19 0-34-8-13-6-13-16z"/></svg>