<svg viewBox="0 0 2318.12 1689.06" xmlns="http://www.w3.org/2000/svg"><path d="m338.12 1031q31 0 108-68a98.32 98.32 0 0 1 15-12 131.15 131.15 0 0 0 17-13.5 96.09 96.09 0 0 0 13.5-15.5 31 31 0 0 0 5.5-18q0-22-21-22-16 0-37 10t-49 26l-22 12q-32 18-46 18-41 0-88-44-18-18-34-18-22 0-22 21 0 25 29 49a296.36 296.36 0 0 0 29.5 27.5 286.11 286.11 0 0 0 34 24 210.47 210.47 0 0 0 35 17q17.51 6.5 32.5 6.5zm-209-318q0 34 22 60.5t56 26.5a74.83 74.83 0 0 0 32-7.5 102 102 0 0 0 29-20.5 93.73 93.73 0 0 0 20.5-31.5 106.78 106.78 0 0 0 7.5-40.5 94.75 94.75 0 0 0 -21-60.5q-21-26.5-57-26.5a75.06 75.06 0 0 0 -34 8 98.82 98.82 0 0 0 -48 53 106.61 106.61 0 0 0 -7 39zm383-7q0 22 7 40a97 97 0 0 0 19 31 84.54 84.54 0 0 0 27.5 20 78 78 0 0 0 32.5 7q36 0 58-26.5t22-62.5a100.38 100.38 0 0 0 -7.5-39 104.42 104.42 0 0 0 -19.5-31 89.3 89.3 0 0 0 -28-20.5 74.83 74.83 0 0 0 -32-7.5l-13 1q-30 3-48 29.5a101.89 101.89 0 0 0 -18 58.5zm513 602q0 85-18 86l-112 4h-8q-138 0-244.5-8.5t-182.5-25.5q-76-18-138.5-42.5t-113.5-59.5q-100-68-153-170.5t-55-243.5q-2-105 29.5-189.5t88.5-144q57-59.5 136-90.5t172-29q79 2 149.5 25.5t134.5 71.5q128 96 200 267 72 170 100 327 0 4 2.5 27.5t5 56q2.5 32.51 5 70t2.5 68.5zm1293-693q0 18-33 84-32 64-51 64-14 0-23-24a108.94 108.94 0 0 0 -9-26q-6-12-14-25-16-26-13-32 0-5 57-34l21-11q37-17 44-17 21 0 21 21zm-884 1003q-3 18-11.5 29.5t-30.5 19.5q-22 8-60.5 13t-99.5 8q-57 3-93.5-2.5t-53.5-13.5q-33-16-33-84 0-35 9-76.5t23-91.5l9-33q15-29 99-29 129 0 164 14 32 12 42 67a914.78 914.78 0 0 0 22.5 89 305.11 305.11 0 0 1 13.5 90zm-167-357-165-3q-3-139-35-269 27 37 59 60.5a291.86 291.86 0 0 0 66.5 37 328.86 328.86 0 0 0 71 19 492.08 492.08 0 0 0 73.5 5.5q118 0 315-43 100-22 181-51.5t144.5-64.5q63.5-35 111.5-75t81-82q22 72 22 113 0 36-19.5 63.5t-57.5 50.5l-41 24q-54 33-114 63a1118.15 1118.15 0 0 1 -128 54q-67 23-132 41.5t-129 31.5q-64 14-139.5 20.5t-164.5 4.5zm372-760 152 5a706.45 706.45 0 0 1 52.5 78q24.5 42 47.5 90t41 92a828.51 828.51 0 0 1 30 86q-119 72-295 119a1403.59 1403.59 0 0 1 -171.5 34 1552.53 1552.53 0 0 1 -164.5 13v-67l6-431q72-10 147.5-16a1317.88 1317.88 0 0 1 154.5-3zm-336-70a803.91 803.91 0 0 0 -71-44.5q-40-22.5-88-46.5-49-24-128-59t-191-81l-19-125q79-38 169.5-56.5t193.5-18.5a967.09 967.09 0 0 1 112.5 6.5q55.5 6.5 112.5 17.5 111 24 245 81 136 58 215 131-6 72-64 176l-145-5a1628.94 1628.94 0 0 0 -178 5.5q-85 7.5-164 18.5zm-630-52q35-33 63-56.5t50-39.5q17 8 48.5 20.5t71.5 29.5q40 17 85.5 37t91 42q45.5 22 87 45a857 857 0 0 1 74.5 46l-6 445v56q-59-19-97-70a714.66 714.66 0 0 0 -54.5-64 655.9 655.9 0 0 0 -68.5-62q-12-6-34-67-42-112-122-207.5a644.84 644.84 0 0 0 -189-154.5zm47-259 14 89q-30 19-68 51.5t-86 79.5q-23-7-47.5-12a411.19 411.19 0 0 0 -49.5-7 1052.53 1052.53 0 0 1 113-112 938.59 938.59 0 0 1 124-89zm1414 560q-34 62-93 115-62-185-171-338a658.9 658.9 0 0 0 35-68 446.05 446.05 0 0 0 24-69q131 152 205 360zm-1544 877q0 37-53 57.5t-156 20.5q-59 0-95.5-5.5t-49.5-16.5q-26-22-26-92 0-29 4.5-67.5t15.5-88.5q137 71 349 94 5 32 8 56a344.08 344.08 0 0 1 3 42zm1607-185q0 23-10 39.5t-31 23.5a864.11 864.11 0 0 1 -103 26q-49 9-94 7-37-2-64-6t-45-15q-18-11-26.5-32.5t-7.5-58.5l1-63q0-10 2-15.5a19.81 19.81 0 0 1 5.5-8.5 34.51 34.51 0 0 1 10-5.5q6.5-2.51 16.5-5.5a920.86 920.86 0 0 0 111-41q54-24 105-45 9-4 21-9.5a55.13 55.13 0 0 1 23-5.5l17 4q11 10 23 34.5t23 66.5q11 43 17 69.5t6 40.5z"/></svg>