<svg viewBox="0 0 2046 2209" xmlns="http://www.w3.org/2000/svg"><path d="m1407 537h-292v152h240q16 0 16 17v142q0 16-16 16h-240v267q0 18-16 18h-186q-17 0-17-18v-752q0-17 17-17h494q16 0 16 17v141q0 17-16 17zm128-175h494q17 0 17 17v141q0 17-17 17h-291v152h238q18 0 18 17v142q0 16-18 16h-238v267q0 18-18 18h-185q-17 0-17-18v-752q0-17 17-17zm-1132 211q-39 0-71 13a162.26 162.26 0 0 0 -55.5 37q-23.51 24-36 57.5t-12.5 74.5q0 41 12.5 74.5t36 57.5a168.41 168.41 0 0 0 55.5 37.5q32 13.5 71 13.5 38 0 70-13.5a168.41 168.41 0 0 0 55.5-37.5q23.5-24 36.5-57.5t13-74.5q0-40-13-73.5t-36.5-57.5a168.41 168.41 0 0 0 -55.5-37.5q-32-13.5-70-13.5zm402 182q0 175-116 297-116 120-286 120-175 0-289-117t-114-300q0-179 114-298t289-119q169 0 286 117 116 119 116 300zm-151-528v96a464.73 464.73 0 0 0 -187-63v-93q0-70 48-118 49-49 119-49h836q68 0 117 49a175.27 175.27 0 0 1 37 53.5q13 29.5 13 64.5v105h-188v-45q0-28-19.5-47.5t-47.5-19.5h-662q-28 0-47 19.5t-19 47.5zm788 1254v-61q0-14-9-23.5t-25-9.5h-135q-14 0-23 9.5t-9 23.5v61q0 16 9 25.5t23 9.5h135q16 0 25-9.5t9-25.5zm0 232v-62q0-34-34-34h-135q-14 0-23 9t-9 25v62q0 15 9 24.5t23 9.5h135q16 0 25-9.5t9-24.5zm0 231v-62q0-14-9-23.5t-25-9.5h-135q-14 0-23 9.5t-9 23.5v62q0 14 9 23.5t23 9.5h135q16 0 25-9.5t9-23.5zm-290-463v-61a32.45 32.45 0 0 0 -33-33h-135q-16 0-25 9.5t-9 23.5v61q0 16 9 25.5t25 9.5h135a31.93 31.93 0 0 0 23.5-9.5q9.5-9.5 9.5-25.5zm0 232v-62q0-16-9.5-25t-23.5-9h-135q-34 0-34 34v62q0 15 9 24.5t25 9.5h135a31.93 31.93 0 0 0 23.5-9.5q9.5-9.5 9.5-24.5zm0 231v-62a32.45 32.45 0 0 0 -33-33h-135q-16 0-25 9.5t-9 23.5v62q0 14 9 23.5t25 9.5h135a32.45 32.45 0 0 0 33-33zm-290-463v-61a32.45 32.45 0 0 0 -33-33h-135a32.45 32.45 0 0 0 -33 33v61q0 16 9.5 25.5a31.93 31.93 0 0 0 23.5 9.5h135a31.93 31.93 0 0 0 23.5-9.5q9.5-9.5 9.5-25.5zm0 232v-62q0-16-9.5-25t-23.5-9h-135q-14 0-23.5 9t-9.5 25v62q0 15 9.5 24.5a31.93 31.93 0 0 0 23.5 9.5h135a31.93 31.93 0 0 0 23.5-9.5q9.5-9.5 9.5-24.5zm0 231v-62a32.45 32.45 0 0 0 -33-33h-135a32.45 32.45 0 0 0 -33 33v62a32.45 32.45 0 0 0 33 33h135a32.45 32.45 0 0 0 33-33zm-142-691h662q23 0 47-19h208v808q0 68-50 118-49 49-117 49h-836q-70 0-119-49-48-48-48-118v-792q103-12 187-63 2 28 20 47t46 19z"/></svg>