<svg viewBox="0 0 1933 2110" xmlns="http://www.w3.org/2000/svg"><path d="m1933 1448q0 189-124 340-60 75-148 133t-203 103q-229 86-501 86-127 0-317-32-95-16-176.5-41.5t-150.5-59.5q-137-67-226-200-45-66-66-136a495 495 0 0 1 -21-143q0-60 13-113.5a366.28 366.28 0 0 1 40-99.5q56-95 113-95 30 0 48 46 45 110 163 187t262.5 113q144.5 36 313.5 36 303 0 501-104 198-105 262-294 3-9 6.5-19a75.39 75.39 0 0 1 9-18 55.89 55.89 0 0 1 13-13.5q7.5-5.51 19.5-5.5 24 0 50 24.5t57 73.5a415.26 415.26 0 0 1 46 107q16 58 16 125zm-1680-457q0-108 47-197 49-91 104-91 39 0 40 43 5 75 79 135 38 30 88.5 54.5t115.5 42.5q129 36 255 36 84 0 161-18.5t143-53a552.55 552.55 0 0 0 120-84.5 531 531 0 0 0 93-114q14-23 35-23 51 0 85 78 34 75 34 177 0 226-198 357-200 131-514 131-302 0-496-127-192-128-192-346zm749-108a1021.18 1021.18 0 0 1 -136-13 714.19 714.19 0 0 1 -132-35q-129-49-196.5-130t-67.5-181q0-125 69-241 69-114 201-198 132-85 221-85 48 0 48 39t-49 94q-51 57-51 94 0 39 21 58a116.3 116.3 0 0 0 22.5 17.5q12.5 7.5 30.5 12.5a335.71 335.71 0 0 0 43.5 8.5q25.5 3.5 61.5 5.5 129 6 191 34 60 28 99 83t40 133a248.19 248.19 0 0 1 -27 117.5q-28 55.5-81.5 97.5t-131 66.5q-77.5 24.5-176.5 22.5z"/></svg>