<svg viewBox="0 0 2210 1886" xmlns="http://www.w3.org/2000/svg"><path d="m1442 1426h105l53 92-53 91h-105l-54-91zm499-1015-53-92 53-91h105l54 91-54 92zm-991 1176 52 92-52 92h-106l-52-92 52-92zm208-1269h-105l-53-92 53-91h105l54 91zm-946 473-54 92h-105l-53-92 53-92h105zm-48-154h-107l-52-92 52-92h107l52 92zm127 388-53 92h-106l-53-92 53-92h106zm477 401 54 92-54 91h-105l-53-91 53-92zm617-1189h-105l-53-92 53-91h105l54 91zm-1116 174h-105l-54-92 54-91h105l54 91zm1705 522h105l53 92-53 92h-105l-54-92zm-921 769h105l54 92-54 92h-105l-53-92zm-361-1518h-107l-53-92 53-92h107l52 92zm239 53h-106l-54-92 54-91h106l52 91zm695-53h-106l-54-92 54-92h106l54 92zm531 515 53 92-53 92h-105l-54-92 48-92zm-897 888h106l54 92-54 92h-106l-54-92zm733-1042 53-92h107l53 92-53 92h-107zm-1599 594 52 91-52 93h-107l-53-93 53-91zm1422 0h107l53 91-53 93h-107l-52-93zm43-885h-107l-53-92 53-93h107l52 93zm-225 1038h107l53 91-53 94h-107l-52-94zm-1176-1038h-107l-52-92 52-93h107l53 93zm118 1038 53 91-53 94h-107l-53-94 53-91zm-319-598q0-186 119-316 118-129 294-129 91 0 172 27t141 69l85 59a184.12 184.12 0 0 0 20.5 8 64.35 64.35 0 0 0 19.5 3 61.26 61.26 0 0 0 18.5-3 184.12 184.12 0 0 0 20.5-8l85-59a546.58 546.58 0 0 1 143-69.5q77-24.5 173-26.5a342.72 342.72 0 0 1 159.5 34.5 424.49 424.49 0 0 1 131.5 98.5q56 62 88 143.5a429.71 429.71 0 0 1 30 168.5q-1 61-11 115a484.84 484.84 0 0 1 -31 103q-42 97-119 181-38 42-99.5 91.5t-146.5 108.5q-111 75-184.5 130t-111.5 92l-79 78q-23 23-39 36t-28 14q-13-1-29-14t-38-36l-18-19q-60-64-112.5-106t-90.5-68l-154-108q-88-61-151-112t-101-93q-77-86-117-181t-40-212z"/></svg>