<svg viewBox="0 0 2080 2006" xmlns="http://www.w3.org/2000/svg"><path d="m1511 553-434 592-434-592h270v-553h324v553zm-130 1275-4-140 6-232q2-35-37-38l-93-9q-18-2-36.5-3.5t-36.5-1.5q-32 0-47 22-62 97-103 123-41 27-97 27-20 0-72.5-5t-139.5-15q-88-10-143.5-17.5t-79.5-15.5q-23-7-40-17.5a139.49 139.49 0 0 1 -30.5-25.5q-13.5-15-25-37t-23.5-54q-32-91-82-108-28-10-54.5-10.5a243 243 0 0 1 -54.5-7.5l-52-4q-17-2-25.5 17t-8.5 72v38l-6 194 1 77v18q0 32 17 49 10 10 531 81 262 35 423.5 54.5t225.5 27.5l44 5q22 0 34-10.5t10-31.5zm699-974v469q0 33-14 59-7 12-42 52t-100 108q-65 68-132.5 136.5t-139.5 139.5q-72 71-115.5 112t-58.5 52q-32 24-70 24l-269-37q-183-25-358-45t-347-47q-172-26-267.5-44t-115.5-26q-41-17-44-47-3-45-5-82.5t-2-69.5q0-103 7-202t7-202q0-46 47-81l83-63q105-78 228.5-155t263.5-162l292 397-74-6q-27-1-47 14l-284 222q-21 12-21 20a63.72 63.72 0 0 0 9 14.5q6 7.5 23 15t48.5 14.5q31.5 7 86.5 11a1186.29 1186.29 0 0 1 119 16 648.16 648.16 0 0 0 119 11h21q26 0 57.5-26.5t66.5-77.5q17-24 33-39a148.25 148.25 0 0 1 33.5-24 120.54 120.54 0 0 1 37.5-12 305.27 305.27 0 0 1 45-3q16 0 36.5 1.5a443.09 443.09 0 0 1 47.5 6.5q27 5 50 7.5a398.46 398.46 0 0 0 43 2.5q37 0 60-15a164.85 164.85 0 0 0 25-19q12-11 26-25 27-29 27-35 0-5-11-7l-301-37 49-66q144 16 228 23t110 7h14q4 0 22-13t47-36q29-23 69-56t88-74l61-52q40-32 40-42 0-11-21-14t-45-5l-194-21-197-22 66-87 425 49q114 14 114 93z"/></svg>