<svg viewBox="0 0 2322 2336" xmlns="http://www.w3.org/2000/svg"><path d="m2322 756q0 12-4 19t-16 11q-12 4-33.5 7.5t-55.5 7.5q-69 10-137 14t-116 4q-53 0-53-22 0-24 67-57 30-15 51.5-28.5t37.5-22.5l93-56q35-21 59.5-33.5t41.5-12.5q12 0 26 21 7 12 12 22a125.44 125.44 0 0 1 8 20q5 16 19 106zm-552-284-8 1q-11 0-18-11t-6-34l6-105 7-104q7-110 16.5-164.5t35.5-54.5a181.72 181.72 0 0 1 40 4.5 333 333 0 0 1 39.5 11.5l39 14 38.5 11q52 12 52 42 0 22-17 43-66 90-195 306a79.39 79.39 0 0 0 -13.5 22q-5.5 13-16.5 18zm-1199 1152q21 0 21 17 0 8-7.5 18.5a138.92 138.92 0 0 1 -17.5 20q-10 9.49-18.5 17t-11.5 10.5q-57 47-99 82.5t-68 61.5l-56 41a140.44 140.44 0 0 0 -18.5 15q-9.5 9-20 17.5a118.5 118.5 0 0 1 -21.5 14 50.74 50.74 0 0 1 -23 5.5q-31 0-53.5-30.5t-45.5-90.5l-22-59q0-31 28-42 32-11 64.5-20t65.5-17l216-51a382.7 382.7 0 0 1 87-10zm206 254q6 0 9 2.5t5 9q2 6.49 2.5 18.5t.5 33q0 38-3.5 83t-9.5 99l-18 159q0 54-37 54l-26-4-23-5q-85-20-127.5-42.5t-42.5-50.5q0-38 64-119l21-26q80-102 122.5-156.5t62.5-54.5zm-654-944q0 15 7.5 32a135.16 135.16 0 0 0 20 32 140.42 140.42 0 0 0 28.5 26 97.78 97.78 0 0 0 33 15l466 108q0-94 18-175l-435-132a107.34 107.34 0 0 0 -36-6q-43 0-74 34-28 34-28 66zm41-302a78.53 78.53 0 0 0 6.5 30.5 150.11 150.11 0 0 0 17 30 164.15 164.15 0 0 0 24 26.5 102.55 102.55 0 0 0 27.5 18q11 5 57.5 22.5t131.5 47.5q85 30 156.5 53.5t131.5 40.5a516.89 516.89 0 0 1 28.5-71q17.5-36 38.5-74l-470-212q-25-11-47-11a93.42 93.42 0 0 0 -39.5 8.5 111.3 111.3 0 0 0 -32.5 22.5 107.39 107.39 0 0 0 -22 31.5 86.88 86.88 0 0 0 -8 36.5zm1168-367q-53 0-79 34.5t-26 87.5q0 8 .5 16.5t1.5 17.5q2 8 12.5 34.5t27.5 73.5l29 81q8 24 13 42.5t5 33.5q0 18-4 31.5a132.68 132.68 0 0 1 -10.5 25.5 146.3 146.3 0 0 1 -15 22.5q-8.5 10.5-16.5 22.5 38 3 82 20.5t92 51.5q2 2 50 39t123 103v-15q0-102-59-246l-43-154-53-165q-32-98-55-127-24-30-75-30zm-570 1148q13-42 49-70a285 285 0 0 1 -16.5-52 250.4 250.4 0 0 1 -5.5-52q0-45 21-89t68-72v-10q0-34 15-68.5a218.83 218.83 0 0 1 40.5-62 201 201 0 0 1 59-44 150.43 150.43 0 0 1 71.5-15.5q45-74 134-89a85.61 85.61 0 0 1 11-27q8-13 8-26 0-14-14-25-7-6-31.5-19.5t-67.5-36.5q-43-22-69-35t-35-16q-105-69-234-147.5t-286-168.5q-35-19-65-19-34 0-68 32-31 30-31 68 0 25 15 50t48 49q19 14 65.5 40t121.5 64l260 131q6-6 12.5-13.5a149.17 149.17 0 0 1 14.5-14.5 97.72 97.72 0 0 1 17-12 38.58 38.58 0 0 1 19-5q13 0 13 15 0 8-13 41a1500.67 1500.67 0 0 0 -96.5 221q-40.5 117-47.5 251l-1 27q-4 70-25 70-19 0-34-67l-123-23-255-51-24-3q-23 0-42 9a105.57 105.57 0 0 0 -32.5 23.5 113 113 0 0 0 -21.5 33.5 102.11 102.11 0 0 0 -8 40q0 32 26 60.5t75 40.5q38 9 108.5 19t174.5 22q86 10 135 16.5t64 9.5zm1369 237a738.2 738.2 0 0 0 -47-260 580.35 580.35 0 0 0 -58.5-119q-35.51-55-86.5-102-101-93-183-93-64 0-64 47a66.17 66.17 0 0 0 3 19 57.92 57.92 0 0 0 10 19q41 42 78 86.5t72 95.5q71 101 71 119a33.64 33.64 0 0 1 -9.5 24 31.1 31.1 0 0 1 -23.5 10q-19 0-29-17-31-52-75-106.5t-92-118.5l-8-11-70-75q-47-51-90-89.5t-76-64.5q-33-26-53-40t-23-17q-40-28-75-41t-64-13q-32 0-54 13.5t-22 33.5a37.52 37.52 0 0 0 7 22l43 43q72 72 139.5 145.5t130.5 151.5q7 8 15.5 17.5t16 19a141.57 141.57 0 0 1 13 19.5q5.51 10 5.5 18 0 13-10.5 22t-22.5 9q-19 0-26-12-81-100-169.5-196.5t-184.5-192.5q-20-20-54-20a56.35 56.35 0 0 0 -24.5 6 81.56 81.56 0 0 0 -22.5 16 94.91 94.91 0 0 0 -16.5 22 51.83 51.83 0 0 0 -6.5 25 77.2 77.2 0 0 0 3.5 22.5 192.38 192.38 0 0 0 9.5 24.5q7 11 41 53.5t94 116.5q121 146 164 188 50 50 50 67a33.37 33.37 0 0 1 -9 23q-9 10-26 10-14 0-23-9-42-45-90-99t-103-119q-54-65-86.5-105.5t-43.5-57.5q-13-8-19-8-9 0-17.5 6a78.69 78.69 0 0 0 -28 37.5 74.73 74.73 0 0 0 -4.5 25.5 145.53 145.53 0 0 0 26 84q39 81 80.5 149.5t92.5 120.5l62 61q40 40 40 52 0 16-10.5 25.5a35.39 35.39 0 0 1 -24.5 9.5q-23 0-98-81-38-42-77.5-97t-79.5-126q-6-10-18-10-37 0-37 76 0 98 75 203 38 54 82 106.5t91.5 99a1225.43 1225.43 0 0 0 97.5 86 805.5 805.5 0 0 0 101 68.5q35 20 62.5 34a449.26 449.26 0 0 0 49.5 22q45 16 98.5 26t115.5 10h35q82 0 173-47 92-47 160-121a473.47 473.47 0 0 0 97-167q30-94 30-175zm118 0q0 99-39 216a587.54 587.54 0 0 1 -48.5 109.5 520.33 520.33 0 0 1 -71.5 96.5 704.8 704.8 0 0 1 -197 148q-113 57-216 57h-40a795.66 795.66 0 0 1 -139.5-12 683.68 683.68 0 0 1 -132-37.5 848.84 848.84 0 0 1 -128-64q-63.5-38.5-128.5-92.5a1224.13 1224.13 0 0 1 -125-118q-59-64-116-139-109-148-120-279l-148-22q-153-23-240.5-33t-109.5-15q-83-19-138-81-56-62-56-139 0-67 41-130a268.74 268.74 0 0 1 -69.5-79 196.66 196.66 0 0 1 -27.5-101 194.43 194.43 0 0 1 6.5-49 232.65 232.65 0 0 1 45.5-89.5 256.65 256.65 0 0 1 34-34.5q-45-64-45-130 0-68 45-130 46-64 115-81-3-15-5-28.5a169 169 0 0 1 -2-24.5q0-93 70-156 70-65 151-65 67 0 125 35l386 231q92 55 142.5 84t59.5 29q6 0 6-5l-2-8q-7-22-13-38t-9-27a132.28 132.28 0 0 1 -4-25.5q-1-14.5-1-34.5 0-56 16-101.5t45.5-77.5q29.51-32 71.5-49.5t94-17.5q78 0 135.5 45.5t86.5 122.5l15 40q26 67 45.5 125.5t34.5 111.5q29 98 49 170t31 118l11 84h15q93 0 191 65a533.43 533.43 0 0 1 90.5 75 661.38 661.38 0 0 1 75.5 95 771.21 771.21 0 0 1 102 231q18 65 26.5 120.5t8.5 104.5z"/></svg>