<svg viewBox="0 0 2024 2193" xmlns="http://www.w3.org/2000/svg"><path d="m931 207q8 5 53 17.5t128 36.5l377 111q-65 11-125.5 27a991.71 991.71 0 0 0 -117.5 39 313.08 313.08 0 0 0 -55-43.5 582.48 582.48 0 0 0 -71-37.5 771.57 771.57 0 0 0 -73.5-28 454.74 454.74 0 0 0 -65.5-16q-8-23-20-49t-30-57zm62 521-17 1q-50 5-93.5-7a406.57 406.57 0 0 1 -81.5-32q-74-39-74-99 0-33 22.5-67.5a295.1 295.1 0 0 1 55-62.5 339.21 339.21 0 0 1 68-46q35.5-18 62.5-18a156.18 156.18 0 0 1 54 9.5q26 9.5 52 17.5a267 267 0 0 1 39 16 235.56 235.56 0 0 1 36 22 147.45 147.45 0 0 1 26.5 25q10.5 13 10.5 25 0 22-14 48l-24 45q-31 56-59.5 88t-62.5 35zm-888 11q0-18 44-29 43-10 124-12l249-6 75 2 57-3a47.07 47.07 0 0 1 18 1.5 184.21 184.21 0 0 1 19 6.5q80 57 80 88l-8 11a1281 1281 0 0 0 -141 115q-67 63-139 123l-24 19q-35 29-57 44.5t-33 15.5q-23 0-22-37l4-90q2-26-1-47a271.28 271.28 0 0 0 -8-38q-24-79-167-122-70-21-70-42zm755 98-4-19q0-27 26-27l22 2q33 13 98 13 45 0 66-14 8-4 23-4 28 0 47 13.5t40 28.5q124 90 235 204 108 113 108 143 0 13-15.5 21t-46.5 6l-97-4q-43-2-73 2.5t-47 12.5q-32 13-84 81-38 50-63 56-26 0-43-40l-128-301zm-681-468q0-130 92-249 91-120 231-120 90 0 178 49 89 51 161 136 73 85 73 123 0 17-17 31.5t-49 31.5l-30 16-29 23q-36 29-56.5 46t-29.5 17q-24 0-47-22-73-66-133.5-97.5t-106.5-31.5q-35 0-61 17.5t-26 58.5q0 52 36.5 87.5t111.5 46.5l47 7q45 7 79 14t57 24l-2 24q0 17-3.5 26t-10 13.5a30.3 30.3 0 0 1 -16 5q-9.5.5-22.5.5a820.66 820.66 0 0 1 -111-7.5 686.28 686.28 0 0 1 -110-24.5q-108-32-157-94.5t-49-150.5zm1495 47q94 0 174 29 41 14 72.5 36.5t52.5 50a211.75 211.75 0 0 1 32 59 188.72 188.72 0 0 1 11 62.5q0 67-61 149a456.57 456.57 0 0 1 -69.5 72 954.85 954.85 0 0 1 -86.5 64 268.44 268.44 0 0 1 -72 35.5q-39 12.5-87 12.5-130 0-296-90a43.68 43.68 0 0 0 -8-5.5 124.43 124.43 0 0 1 -12-8 97.91 97.91 0 0 1 -10.5-9q-4.5-4.5-4.5-8.5 0-9 11-9l137 32q19 5 36 8a201 201 0 0 0 35 3 113.25 113.25 0 0 0 36-6 112 112 0 0 0 32.5-17 83.22 83.22 0 0 0 23-26.5 70.5 70.5 0 0 0 8.5-34.5q0-20-8.5-35t-24.5-28q-32-24-107-36-38-7-73.5-11a416.43 416.43 0 0 0 -70.5-2l-106 4q-59 9-76 9-24 0-24-28l1-15q7-71 47.5-118.5t105.5-72.5q32-13 76.5-24t101.5-22q57-10 108-15t96-5zm350 410-56 494q-10 90-17 141t-10 62q-3 11-7 22.5a155.29 155.29 0 0 1 -12 25.5q-8 12-58 73t-145 171q-94 110-163 189t-116 130q-55 59-134 59-12 0-23-.5a100.6 100.6 0 0 1 -22-3.5q-11-2-20.5-4.5t-34.5-10.5q-11-4-118-40t-311-108q-204-71-318-112t-141-52q-54-23-82-47.5t-45-62.5l-184-673q-7-21-7-52a176.43 176.43 0 0 1 15-72q15-34 39-56l11-12 39-39q26 14 54 27.5t59 27.5l-67 64-5 7q-10 8-15 16t-9 16l147 53-2 30q0 31 6 53l-138-48 169 619q9 17 24 24 8 5 26.5 12.5t45.5 17q27 9.49 60 21.5t70 25a88.68 88.68 0 0 1 -4.5-18q-1.5-10-3.5-23l-32-230q-13-97-25.5-180t-26.5-153l-34-11 37-17q48-22 208-178 46-45 84.5-76.5t70.5-52.5a1132.36 1132.36 0 0 0 50.5 147.5q30.5 72.5 50.5 137.5l-74 98a670.48 670.48 0 0 0 64.5 22.5 429.17 429.17 0 0 1 60.5 22.5q28 67 46 99l-193-67 26 559-3 26 393 137a404.91 404.91 0 0 0 66 18l-2-14v-12l7-488q1-54-27-63l-126-46a116.73 116.73 0 0 0 14-14.5q7-8.51 14-17.5t14-17a67.87 67.87 0 0 1 15-13q87 34 107 34 23 0 44-21 11-11 34.5-37.5t61.5-71.5h26q26 0 47.5-2a359.11 359.11 0 0 0 36.5-5l-83 92q-22 23-41 47t-37 47q-19 26-20 81l-7 213q-2 72-10 145a1358.53 1358.53 0 0 0 -8 148q17-17 67.5-75t137.5-158q0-189 2-324t6-217q66-15 66-67a96.94 96.94 0 0 0 -10-44q-10-20-26-49l61-72q86-6 175-45l-28 405-4 66s-.67 22-2 66l24-29a24.82 24.82 0 0 0 6-11q2-7 4-18 5-24 60-512 46-32 80-68.5a319.36 319.36 0 0 0 55-80.5z"/></svg>