<svg viewBox="0 0 2300 2061" xmlns="http://www.w3.org/2000/svg"><path d="m1562 759a64.6 64.6 0 0 0 31-7.5 69.31 69.31 0 0 0 23.5-20.5 98.6 98.6 0 0 0 14.5-29 113.82 113.82 0 0 0 -2.5-74 108.08 108.08 0 0 0 -19.5-32.5 87.73 87.73 0 0 0 -27.5-21 71.61 71.61 0 0 0 -31.5-7.5q-34 0-54.5 26t-20.5 61q0 23 7.5 42a115.1 115.1 0 0 0 19.5 33 91.13 91.13 0 0 0 27.5 22 70 70 0 0 0 32.5 8zm-238 93q0-39-61-78-62-40-110-40-47 0-109 41t-62 74q0 14 9 27.5t30 30.5l68 53q47 37 67 30 10 0 19-7l86-53q63-38 63-78zm-578-93a74.33 74.33 0 0 0 34.5-8.5 90.41 90.41 0 0 0 28.5-23 117.38 117.38 0 0 0 19-32.5 101.17 101.17 0 0 0 7-37q0-36-20.5-63.5t-55.5-27.5a68 68 0 0 0 -31.5 8 94.69 94.69 0 0 0 -27.5 21.5 108.08 108.08 0 0 0 -19.5 32.5 110.66 110.66 0 0 0 -7.5 41q0 36 20 62.5t53 26.5zm1554 524q0 59-62 90t-187 26l-77-3 3-16 7-93q2-26-1.5-47.5t-5.5-40.5l-3-24q-4-33-16-59.5t-32-26.5q-28 0-27 30l3 102q2 91-28.5 170.5t-90.5 148.5q-60 69-141.5 121t-187.5 86l3 20-1 33q-2 38 21 70t68 59q60 36 60 75 0 28-33.5 42.5t-96.5 14.5q-23-2-46.5-5.5a96.57 96.57 0 0 1 -41.5-16q-18-12.49-28.5-37t-8.5-68.5l3-63-1-57v-22l3-19q-59 11-110.5 16.5a919.1 919.1 0 0 1 -97.5 5.5q-93 0-196-22l3 19v22l-2 28v29l3 63q2 41-6 64.5t-24.5 36.5q-16.5 13-40.5 18a527.83 527.83 0 0 1 -53 8q-63 0-97.5-14.5t-34.5-42.5q0-14 8.5-29t27.5-29l45-32q21-15 34.5-28.5a156.79 156.79 0 0 0 22-27 84.9 84.9 0 0 0 11.5-27.5 115.46 115.46 0 0 0 2-31l-2-33 3-20q-204-65-328-208-63-73-95-154t-30-171l3-88q1-37-26-37-38 0-48 71-5 36-8 65a510.54 510.54 0 0 0 -3 52q0 70 11 119l-78 3q-125 5-187-26t-62-90q0-59 73-123a1466.35 1466.35 0 0 0 118.5-118 1405.91 1405.91 0 0 0 102-128 1301 1301 0 0 0 83-134 1096.21 1096.21 0 0 0 61.5-135q27-73 53.5-132.5t51.5-107.5a708.09 708.09 0 0 1 58.5-95 973.17 973.17 0 0 1 75.5-91q44-47 81-79.5t68-52.5q63-41 142-64t185-23q161 0 273 50 113 53 220 182 54 66 108.5 168t107.5 245q22 59 55.5 124t84.5 138a1434.46 1434.46 0 0 0 106 135 1324.9 1324.9 0 0 0 119 118q73 64 73 123z"/></svg>