<svg viewBox="0 0 2036 2109" xmlns="http://www.w3.org/2000/svg"><path d="m1767 992q-71 0-99 6.5t-28 27.5v32l-8 290-18 312q-2 23 13 31 8 3 33 9.5t70 15.5q8-40 14.5-129t11.5-229q5-142 8-233t3-133zm-989 850q0-50-23.5-80t-61.5-30l-15 2-260 42q-53 9-75.5 42a126.76 126.76 0 0 0 -22.5 73q0 26 11 47a101.18 101.18 0 0 0 30 35 142.54 142.54 0 0 0 44 21.5 183.51 183.51 0 0 0 53 7.5q17 0 54.5-7.5t98.5-24.5q120-31 144-58 23-28 23-70zm-594-255v11q5 47 43.5 74.5t89.5 27.5q17 0 60-6t112-19q138-25 174-41 35-16 50.5-45.5t15.5-57.5q0-45-24.5-73.5t-66.5-28.5h-8l-330 26q-52 4-84 38t-32 94zm-48-695q0 45 33 72t78 32q100 11 174 18t126 7q71 0 105-32.5t34-81.5a84.76 84.76 0 0 0 -7.5-35.5 110.76 110.76 0 0 0 -19.5-29.5 117.43 117.43 0 0 0 -27.5-22 98.81 98.81 0 0 0 -31.5-12q-261-57-328-57-38 0-64 11.5t-42 32.5a168.49 168.49 0 0 0 -30 97zm-19 351q0 52 33.5 80.5t84.5 28.5q49 0 106.5-1.5t124.5-6.5q132-9 168-23 34-14 50-45.5t16-61.5a86 86 0 0 0 -9-39 114.56 114.56 0 0 0 -23-31.5 112.26 112.26 0 0 0 -31.5-21.5q-17.5-8-33.5-8l-348-11q-35-1-61 10t-43 30.5a129.85 129.85 0 0 0 -25.5 45.5 172.54 172.54 0 0 0 -8.5 54zm1413-85-1-48-12 1h-14q-43 0-74.5-7t-55.5-22a169.31 169.31 0 0 1 -43-39q-19-24-38-58a894 894 0 0 0 -61-93q-33-44-67-83.5t-66.5-76.5q-32.51-37-60-73a515.55 515.55 0 0 1 -46.5-72 257.24 257.24 0 0 1 -26-75l-26-146q-11-59-23-99t-28.5-64q-16.5-24-38.5-34.5t-53-10.5q-78 0-117 47t-39 150q0 108 23 194a894.29 894.29 0 0 0 30 88.5 955 955 0 0 0 44.5 95.5q26.5 50 62.5 105t83 117q5 51 12.5 94a496.21 496.21 0 0 0 21 81 441.58 441.58 0 0 0 33 72 413.78 413.78 0 0 0 48.5 67q15 17 22 30.5t7 22.5q0 29-26 29-23 0-52.5-15a514.76 514.76 0 0 1 -56-33q-26.5-18-45-33l-18.5-15q-7 0-17 34-12 44-29 56 7 0 37 58 16 29 23 50.5t7 36.5q0 36-17 82a416.84 416.84 0 0 1 -17 38.5q-8 15.49-16 24.5a117.81 117.81 0 0 1 30.5 22.5 203 203 0 0 1 25.5 31 193.28 193.28 0 0 1 18 33.5q7 17 7 32a135.24 135.24 0 0 1 -3 26q-3 15-8 36t-8 34.5q-3 13.5-3 21.5 0 33 52 33 59 0 143-51 85-51 153-138 106-106 196-119l4-1 99-9q3-23 6.5-72.5t8.5-126.5q5-78 8-135t1-95zm416-383 63 1h27l-2 1149q-47 0-95.5-1.5t-100.5-5.5q-101-6-123-26-12-7-12-65-36-5-69.5-10t-64.5-12q-62-13-73-29a53.93 53.93 0 0 1 -7-17 83 83 0 0 1 -2-18l4-28q-57 3-112.5 27.5t-93.5 67.5q-113 125-213 177-101 53-191 69l-117 20q-85 15-147 25t-104 10q-68 0-124-15.5t-96-45q-40-29.5-61.5-71.5t-21.5-96l7-61q0-24-23-33-53-22-87-73t-34-121q0-41 28-123l4-22q0-14-16.5-31t-36-41q-19.5-24-36-57t-16.5-79q0-91 62-162 9-7 9-19 0-14-13-27-40-48-42-137-2-56 19-102.5t55.5-80a255.42 255.42 0 0 1 77.5-52q43-18.5 86-18.5 56 0 121.5 6t141.5 21l27 6q7 0 7-7l-7-34a878.55 878.55 0 0 1 -30-129.5 889.68 889.68 0 0 1 -10-134.5q0-210 69-290 68-80 198-80 88 0 149 43 59 41 95 116 17 38 33.5 99.5t30.5 149.5q4 26 24 67.5t58 100.5q75 115 123 169 42 48 72 91.5t50 83.5q19 37 36 51t42 12l39-3-1-6q2-52 33-67 15-7 46-11.5t77-3.5l78 2q0-57 15-81 16-25 49-31 18-4 49-6.5t77-.5z"/></svg>