<svg viewBox="0 0 2178 2304" xmlns="http://www.w3.org/2000/svg"><path d="m2178 2093q0 62-11 98t-34 57q-12 11-31.5 21a258.45 258.45 0 0 1 -45 17.5 477.62 477.62 0 0 1 -55 12.5 374.28 374.28 0 0 1 -62.5 5q-98 0-204-41-105-41-159-93-27-26-48-68t-38-99q-12-41-23-41-12 0-13 10a155.45 155.45 0 0 1 -4 22q-3 12-14.5 22t-44.5 10q-44 0-72.5-18.5t-28.5-47.5q0-37-5.5-84t-16.5-104q-11-58-17-102t-6-76q0-34 7-90t20-137a909.3 909.3 0 0 0 11-92q3-45 3-90 0-57-6-130.5t-20-165.5q-14-91-24.5-163t-20.5-127q-13-70-29-142a819.72 819.72 0 0 1 -19-144l-22 143q-18 117-33.5 201.5t-23.5 138.5l-32 201q-11 66-16.5 116.5t-5.5 85.5a460.74 460.74 0 0 0 8.5 90.5 416 416 0 0 0 23.5 78.5q14 35 23.5 59.5t15 43.5a285.24 285.24 0 0 1 8 35 206.58 206.58 0 0 1 2.5 32q0 61-36 167-18 56-27.5 97.5t-9.5 69.5v67q0 20-25 33t-61 13q-34 0-48.5-7t-15.5-27q-2-51-6.5-80.5t-7.5-38.5q-6-18-17-18-23 0-55 64-32 62-115 154-84 91-183.5 138.5t-211.5 47.5q-131 0-212-50-84-49-84-132 0-63 59-100l131-82a867 867 0 0 0 101.5-74 716.38 716.38 0 0 0 90.5-92q84-102 126-224 41-125 41-334a2937 2937 0 0 0 -14.5-293.5q-14.5-144.5-31.5-291.5-5-47-12-95.5t-14-96.5q-7-48-11.5-96t-4.5-95q0-61 41-96 42-36 145-51 53-7 98-11t85-4q93 0 176 18 42 9 67.5 15t34.5 11q19 10 30 22 10 12 18 49 4 19 7 33a213.53 213.53 0 0 1 4 25q10-87 25-104 12-18 47-32 17-7 45.5-13.5t64.5-11.5q36-5 76.5-8.5t82.5-3.5q51 0 98.5 4.5t94.5 12.5q94 16 134.5 50.5t40.5 88.5q0 48-4.5 97t-12.5 99q-9 56-21.5 153t-27.5 238q-16 141-23 253.5t-7 197.5q0 165 18.5 295.5t54.5 229q36 98.51 89 167t121 110.5l37 18q44 17 61 34t17 45z"/></svg>