<svg viewBox="0 0 1874 2460" xmlns="http://www.w3.org/2000/svg"><path d="m1710 616q0-31-11.5-57a148.93 148.93 0 0 0 -31-45.5 141.79 141.79 0 0 0 -45.5-30.5 137.28 137.28 0 0 0 -54-11 158.06 158.06 0 0 0 -37.5 4.5 179.22 179.22 0 0 0 -33.5 11.5q-15 7-24 16.5t-9 19.5q0 14 13 29t37 38l18 17q18 16 53 78 29 47 47 47 24 0 51-35a129.39 129.39 0 0 0 20-38 138.14 138.14 0 0 0 7-44zm-320 394q0 23 17.5 43.5t45.5 20.5q28 0 46.5-18t18.5-46q0-28-18.5-47t-46.5-19q-28 0-45.5 19t-17.5 47zm-136 49q0-39-11.5-72.5t-31-57.5a147.72 147.72 0 0 0 -46-38 121.25 121.25 0 0 0 -57.5-14q-74 0-116 79-32 84-32 136 0 41 12 70.5t33 49a128.62 128.62 0 0 0 49.5 28.5 203.19 203.19 0 0 0 61.5 9q138 0 138-190zm-466-34a75.41 75.41 0 0 0 24-4 77.45 77.45 0 0 0 22.5-12 65.81 65.81 0 0 0 17-19 48.24 48.24 0 0 0 6.5-25 76.81 76.81 0 0 0 -18-50q-18-22-48-22-26 0-45 19t-19 47q0 24 17 45t43 21zm-130-357q16 0 53-43l32-37 30-30q28-20 45-32t23-18q13-15 13-26 0-21-40-44t-75-23q-31 0-57.5 11.5a143.12 143.12 0 0 0 -46 31.5 147.7 147.7 0 0 0 -30.5 46 137.28 137.28 0 0 0 -11 54 168.55 168.55 0 0 0 5 41 128 128 0 0 0 14 35 94.08 94.08 0 0 0 20.5 24.5q11.5 9.5 24.5 9.5zm1216-66a351.57 351.57 0 0 1 -6.5 66 460.78 460.78 0 0 1 -17.5 65.5 394.22 394.22 0 0 1 -26 59q-15 27.5-31 47.5l-22 27a46.15 46.15 0 0 0 -8 10.5 36.47 36.47 0 0 0 -4 11.5l-1 15 3 61q7 173-70.5 289t-224.5 174l-86 24q-49 12-49 24 0 13 28.5 20.5t87.5 4.5l56-3q48 113 48 253 0 197-143 329-145 131-351 131-128 0-199-62-47-39-70-39l-14 2q-51 22-78 22-40 0-131-53-45-27-82.5-54t-64.5-54q-27-27-42-52t-15-47a61.59 61.59 0 0 1 6-26 81.11 81.11 0 0 1 16.5-23.5 96.64 96.64 0 0 1 24-17.5 59.1 59.1 0 0 1 27.5-7 68.15 68.15 0 0 1 25.5 5q12.5 5 24.5 10.5t24.5 10.5a68.15 68.15 0 0 0 25.5 5q25 0 33-15 38-76 65-103 29-29 78-37 25-4 44.5-6t33.5-2h8q9 0 9-10 0-11-21-24t-57-21l1-20q2-18-7-29t-26-15q-96-25-160-57t-103.5-67q-39.5-35-57.5-72t-21-72q0-41 27.5-67.5a131.49 131.49 0 0 1 65.5-34.5q9 34 32.5 69.5t57.5 68a581.56 581.56 0 0 0 77 61.5 554.93 554.93 0 0 0 90.5 49.5 565.62 565.62 0 0 0 97.5 32 367.53 367.53 0 0 0 98 9.5q33 0 33-9 0-15-96-38-67-25-114.5-51.5t-76.5-54.5q-77-71-117-149.5t-35-164.5l8-145q2-38-6.5-66.5t-22.5-50.5a422 422 0 0 1 -46-193q0-88 34-150 34-65 104-108a279.26 279.26 0 0 1 71.5-32.5 268.16 268.16 0 0 1 74.5-10.5q45 0 93 16t102 50a288.8 288.8 0 0 0 66 32.5 223.14 223.14 0 0 0 72 11.5h9l30-2h32q33 0 75.5 5t95.5 15l38 2a188.9 188.9 0 0 0 57-4.5 238.19 238.19 0 0 0 51-18.5 499.19 499.19 0 0 1 80-29.5 302.58 302.58 0 0 1 79-10.5q109 0 197 83 86 80 86 206zm-1089 1595 52 40-1 29v28l1 33q1 20-12 32-137 101-357 101-59 0-114.5-5.5a1038.23 1038.23 0 0 1 -108.5-16.5q-105-21-174-60-68-39-68-67v-58l-3-347v-1342l4-222 5-81 3-97q2-66 110-115 110-49 286-49 44 0 90 4.5t96 12.5q98 17 167 57 71 41 72 79l1 32q-62-21-123-21-140 0-254 106-112 103-112 276 0 65 14 123a450.48 450.48 0 0 0 43 111 171.38 171.38 0 0 1 14.5 34q5.5 18 3.5 40l-8 146a232.9 232.9 0 0 0 2 53.5 457.32 457.32 0 0 0 10 46.5 205.58 205.58 0 0 0 -61 25.5 215.12 215.12 0 0 0 -48.5 41 172.08 172.08 0 0 0 -31.5 52.5 167.85 167.85 0 0 0 -11 60q0 108 101 203a479.7 479.7 0 0 0 115 80q64 32 141 52-70 37-115 125-23-11-42.5-15.5a221 221 0 0 0 -36.5-5.5q-35-1-63.5 14a172.77 172.77 0 0 0 -49 38 177.49 177.49 0 0 0 -32 51q-11.5 28-11.5 52-1 112 163 228 161 115 254 115 34 0 89-19z"/></svg>