<svg viewBox="0 0 2316 2206" xmlns="http://www.w3.org/2000/svg"><path d="m1566 289q0-15-46-27l-255-65-31-4q-20 0-23 14l-10 25q-18 46-37.5 98.5t-39.5 111.5q-20 59-32 96.5t-18 52.5q-12 30-16.5 48.5t-4.5 21.5q0 16 36 32 17 7 52.5 18t88.5 28q106 33 131 33 20 0 34-16.5t25-47.5l124-356q5-11 13.5-30t8.5-33zm352 699q0-172-78-325-79-157-218-260l-65 194-70 194q-28 75-88 77-14 0-65-13 31 57 31 118 0 104-76 177-77 72-178 72-100 0-173-68-69-67-69-167a235.45 235.45 0 0 1 11.5-74 249 249 0 0 1 31.5-64 260 260 0 0 1 47.5-52 246.24 246.24 0 0 1 59.5-37q-64-23-64-77 0-17 8-42.5t21-60.5l57-164 53-163a758.62 758.62 0 0 0 -189.5 40q-91.5 32-178.5 86-173 110-270 281-98 172-98 370 0 197 100 370 101 173 275 272t386 99q217 0 402-108 188-110 292-291 52-91 78.5-186t26.5-198zm398-481q0 45-29 114l-461 1442q-24 77-65.5 110t-102.5 33q-40 0-89-12.5t-109-35.5l-1113-420-76-28q-38-13-74.5-26t-72.5-30q-35-16-59-31t-38.5-31q-14.5-16-20.5-34.5t-6-41.5q0-29 12.5-71.5t35.5-99.5q48-122 95.5-242.5t98.5-241.5q73-174 137-334t118-309a893.25 893.25 0 0 1 34-83 579.79 579.79 0 0 1 39-70q44-65 121-65 12 0 25 1t36 6l279 55q129 25 370 87t599 165q33 9 58 18t45 14l53 17q45 14 75.5 28t49 31q18.49 17 27 37.5t8.5 47.5z"/></svg>