<svg viewBox="0 0 2328 1455" xmlns="http://www.w3.org/2000/svg"><path d="m2074 727v-69q0-113-2.5-190.5t-7.5-120.5q-15 0-33 1t-38 3q-19 2-30 4t-16.5 6.5a19.78 19.78 0 0 0 -7 11.5 82.48 82.48 0 0 0 -1.5 17l3 30q6 65 9 140.5t1 162.5l-6 331q0 26 22 33 22 6 104 6zm-229-14-5-185-32 3a159.64 159.64 0 0 1 -50.5-4 294.41 294.41 0 0 1 -47.5-16q-23-11-44.5-24a378.35 378.35 0 0 1 -43.5-31q-20-17-48-47t-64-72q-32-37-64-63.5a338.22 338.22 0 0 0 -68-44 380.54 380.54 0 0 0 -77.5-27.5q-41.5-10-91.5-14l-112-10a136 136 0 0 1 -35-7q-18-6-37.5-12t-38.5-11a145.27 145.27 0 0 0 -37-5q-41 0-66 28t-25 69q0 23 6 41 8 15 28.5 31t55.5 30a354.07 354.07 0 0 0 76 22.5 640.52 640.52 0 0 0 88 9.5q88 1 108 8 18 6 18 23 0 24-82 37a658.73 658.73 0 0 1 -84.5 10.5q-42.5 2.5-88.5 3.5l-626 14q-65 2-109 7.5t-68 16.5q-47 23-47 89a89.38 89.38 0 0 0 7.5 35.5 93 93 0 0 0 22.5 31.5q15 14 38.5 23t55.5 10l469 19q31 2 58 5t47 8.5q20 5.5 31.5 12t11.5 15.5q0 25-42 34-80 19-80 98 0 54 41.5 87t114.5 33q37 0 37 23 0 18-12 26a243.06 243.06 0 0 1 -26 15 134.38 134.38 0 0 0 -26 17q-12 10-12 32a67.26 67.26 0 0 0 10 35.5 95.32 95.32 0 0 0 27 28.5 130.75 130.75 0 0 0 39.5 18.5 166.82 166.82 0 0 0 46.5 6.5q21 0 38-5.5a109.81 109.81 0 0 1 34-5.5q15 0 15 16 0 20-26 32-27 14-27 33 0 12 11 23.5t28.5 20a166.36 166.36 0 0 0 39.5 13 156.11 156.11 0 0 0 45 2.5l17-1q149-13 272-81.5t219-189.5q41-52 83.5-79t99.5-35q2-29 4.5-86t-.5-141zm-1106 406 4-41 5-20q-16-5-36-21a226.84 226.84 0 0 1 -38-39.5 231.38 231.38 0 0 1 -30-52.5 158 158 0 0 1 -12-61l3-27-47-6-212-9q-99-5-164-17t-107-38a190.16 190.16 0 0 1 -40-31 223 223 0 0 1 -56.5-96 219.31 219.31 0 0 1 -8.5-62q0-104 53-171 53-65 168-80 60-8 154.5-13.5t227.5-3.5l148 1q-6-8-13.5-18.5a171.1 171.1 0 0 1 -14.5-25 185.64 185.64 0 0 1 -12-33.5q-5-19-5-43 0-49 16.5-88a185.75 185.75 0 0 1 47-66.5q30.5-27.49 74-42t97.5-14.5a333.28 333.28 0 0 1 118 21l68 14 103 17q69 12 125.5 25t98.5 34q43 22 89 61t97 98q68 79 189 101l-4-59q-2-14 2-24.5a49.05 49.05 0 0 1 11-17.5q8-8 30-13.5t58-11.5q37-5 66-8.5a426.46 426.46 0 0 1 50-3.5q0-53 15-68 22-22 156-22h78l37 1v1185h-31q-41 0-119-6-77-6-100-30-12-12-17-36.5t-5-60.5q-32 0-63.5-1t-63.5-4q-31-3-50.5-8.5t-31-15.5q-11.51-10-16-26t-4.5-41l-24 6q-20 5-39 19.5t-42 37.5q-41 43-85 81.5t-93 74.5a640.9 640.9 0 0 1 -98.5 60.5 765.64 765.64 0 0 1 -104 42.5 679.54 679.54 0 0 1 -103 25 612 612 0 0 1 -95.5 8q-101 0-155-39t-74-121a193.72 193.72 0 0 1 -46-9 152 152 0 0 1 -39.5-20 219.71 219.71 0 0 1 -36.5-33 504 504 0 0 1 -37-47q-16-22-16-67z"/></svg>