<svg viewBox="0 0 1902 1861" xmlns="http://www.w3.org/2000/svg"><path d="m846 1344q0-16 16-16a75.77 75.77 0 0 1 31.5 7q15.5 7 35.5 7 17 0 28.5-2.5a104.85 104.85 0 0 0 19.5-6q8-3.49 14-6a30.93 30.93 0 0 1 12-2.5q19 0 19 11t-7.5 21q-7.5 10-20.5 17.5a126.07 126.07 0 0 1 -29 12 117.72 117.72 0 0 1 -32 4.5 116 116 0 0 1 -32.5-4.5 139.38 139.38 0 0 1 -27.5-11 70.17 70.17 0 0 1 -19.5-15q-7.5-8.5-7.5-16.5zm-760-205q0 51 25 83t70 32l12-1q-4-31-6-64t-2-68v-41l3-39-7-7q-53 8-74 36t-21 69zm1701 0q0-54-30.5-81t-84.5-27l3 74a572.54 572.54 0 0 1 -1 76q-3 36-8 69l26 3q47 0 71-31.5t24-82.5zm-705 305q21 0 21 22 0 24-48 60a147.84 147.84 0 0 1 -51 26q-28 8-61 8-56 0-115-28-60-28-60-66 0-23 19-23l15 4q74 44 137 44 47 0 106-32 13-7 22-11t15-4zm200-360a89.1 89.1 0 0 1 39.5 9 103.58 103.58 0 0 1 32 24 116.36 116.36 0 0 1 21.5 35 114.77 114.77 0 0 1 8 43 118.68 118.68 0 0 1 -8 43.5 114.8 114.8 0 0 1 -21.5 35.5 97.23 97.23 0 0 1 -32 23.5 96 96 0 0 1 -79 0 97.23 97.23 0 0 1 -32-23.5 107.72 107.72 0 0 1 -21-35.5 125.63 125.63 0 0 1 -7.5-43.5 121.47 121.47 0 0 1 7.5-43 108.91 108.91 0 0 1 21-35 103.58 103.58 0 0 1 32-24 89.1 89.1 0 0 1 39.5-9zm-709 0a92.33 92.33 0 0 1 40 9 101.8 101.8 0 0 1 32.5 24 116.36 116.36 0 0 1 21.5 35 114.77 114.77 0 0 1 8 43 118.68 118.68 0 0 1 -8 43.5 114.8 114.8 0 0 1 -21.5 35.5 95.8 95.8 0 0 1 -32.5 23.5 96.82 96.82 0 0 1 -40 8.5 91.16 91.16 0 0 1 -38.5-8.5 102.79 102.79 0 0 1 -32.5-23.5 110 110 0 0 1 -22-35.5 118.68 118.68 0 0 1 -8-43.5 114.77 114.77 0 0 1 8-43 111.38 111.38 0 0 1 22-35 109.76 109.76 0 0 1 32.5-24 87 87 0 0 1 38.5-9zm1011 37q0-217-43-217-8 0-18.5 4t-24.5 11q-29 15-44 15-26 0-69-32-44-30-65-30a67.94 67.94 0 0 0 -24 4.5 192.34 192.34 0 0 0 -24 11q-12 6.5-23.5 13.5a127.06 127.06 0 0 1 -22.5 11q-20 8-41.5 15.5a134.15 134.15 0 0 1 -44.5 7.5q-25 0-45.5-10a413.65 413.65 0 0 1 -39.5-22q-19-12-37-22a77.08 77.08 0 0 0 -38-10q-28 0-81 31-52 32-83 32-23 0-58.5-12.5t-86.5-38.5l-10-1a49 49 0 0 0 -14.5 4 133.65 133.65 0 0 0 -14.5 8l-67 43q-20 15-44 15-11 0-26.5-5.5a321.32 321.32 0 0 1 -35.5-15.5q-38-19-61-19-40 0-91 88l-29 38-3 83q-3 101 18 180t59 136q75 114 235 185a822.22 822.22 0 0 0 166 52.5 885.19 885.19 0 0 0 177 17.5q142 0 266.5-40t218.5-118q91-75 131-172 38-94 38-241zm318 628q0 29-59 60-58 32-145 32a411.26 411.26 0 0 1 -102-12.5 369.78 369.78 0 0 1 -90-35.5 304.81 304.81 0 0 1 -72-55.5 223.26 223.26 0 0 1 -47-73.5q-194 118-457 118-217 0-404-90a253.53 253.53 0 0 1 -48.5 70.5 285.36 285.36 0 0 1 -70.5 53q-40 21.5-88 33.5a415.06 415.06 0 0 1 -101 12q-85 0-147-31-58-31-58-60 0-20 32-33 35-15 35-97a310.46 310.46 0 0 1 9.5-76.5 252.84 252.84 0 0 1 28.5-69 222.2 222.2 0 0 1 47.5-55.5 193 193 0 0 1 65.5-36q-7-17-12.5-33.5t-10.5-33.5l-27-3-33-5q-148-43-148-188a234.3 234.3 0 0 1 9.5-67 188.47 188.47 0 0 1 27.5-57 172.26 172.26 0 0 1 44-42.5q26-17.5 59-23.5l-3-9q-17-59-29-116a581.36 581.36 0 0 1 -12-120q0-193 109-352 110-160 312-256 203-97 423-97 224 0 416 86 96 43 172.5 103.5t130 136a587.85 587.85 0 0 1 81.5 164.5q28 89 28 189 0 172-55 267 73 6 118 63 43 57 43 131 0 58-24 100-25 43-78 70-52 26-95 26l-26-3-13 40q169 22 198 218l1 28q1 27 3.5 45t7.5 29.5q5 11.51 13 17.5a70.12 70.12 0 0 0 20 10q21 6 21 28z"/></svg>