<svg viewBox="0 0 2262 1309" xmlns="http://www.w3.org/2000/svg"><path d="m627 747v96q49-13 49-48 0-26-49-48zm-138-215v-83q-48 6-48 43 0 25 48 40zm-238 356-4-8 2-9 73-95 9-5q4 0 16 6.5t32 16.5q20 10 47.5 20.5a583.6 583.6 0 0 0 62.5 19.5v-138l-25-11q-61-27-103.5-45t-64.5-38q-43-39-43-99 0-41 17-74.5t48-58.5q31-25 74.5-39.5t96.5-17.5v-50q0-14 13-14h111q14 0 14 14v67q101 24 178 65l5 7-1 10-60 91-9 6-5-2-108-39v113q66 27 111 52t72.5 50.5q27.5 25.5 39.5 52.5a138.79 138.79 0 0 1 12 57q0 41-16 74.5t-51 62.5q-68 56-168 66v44q0 13-14 13h-111q-13 0-13-13v-52q-137-27-238-100zm1893 303v-1073h-2025v1073zm-2085-1191h2144q25 0 42 17.5t17 41.5v1191q0 24-17 41.5t-42 17.5h-2144q-23 0-41-17.5t-18-41.5v-1191q0-24 18-41.5t41-17.5z"/></svg>