<svg viewBox="0 0 2165.78 1772" xmlns="http://www.w3.org/2000/svg"><path d="m1098.78 1324-18 122-71-40 41 71-122 18 122 18-41 71 71-41 19 121 16-121 73 41-42-73 124-16-124-19 42-72-73 42zm-241-909-18 122-71-40 41 72-122 17 122 18-41 71 71-41 19 122 17-122 72 41-42-72 124-17-124-19 42-71-72 41zm1157 329q0-30-20-30-9 0-18.5 7.5a78.41 78.41 0 0 0 -17 19 105.65 105.65 0 0 0 -12 25.5 85.32 85.32 0 0 0 -4.5 26q0 27 20 27a35.32 35.32 0 0 0 21.5-7 66.31 66.31 0 0 0 16.5-18 86.41 86.41 0 0 0 10.5-24 99.78 99.78 0 0 0 3.5-26zm-438-166-17 122-71-40 41 71-122 18 122 18-41 71 71-41 19 122 16-122 73 41-43-72 125-17-125-19 43-71-73 41zm351 297q0-18-14-18-15 0-31 15l-69 62q-51 47-102 90-26 22-51.5 45t-48.5 47q-24 23-38.5 38.5t-20.5 25.5q-11 17-11 34 2 11 15 11 35 0 129-64a822.41 822.41 0 0 0 89-70 778.16 778.16 0 0 0 79-83q74-91 74-133zm-85-637-30-211q201 72 306 304l-212-31 84-146zm-1364 834q0-9-18-33-95-122-133-190a1145.68 1145.68 0 0 1 -65.5-143q-27.51-73-38.5-163-4-36-8-54t-24-18q-43 0-43 125 0 94 44 200 44 105 131 199 89 97 133 98 21.99 0 22-21zm391-182-29 200-120-69 70 119-201 32 201 27-69 121 119-70 31 202 28-201 121 69-70-121 204-30-204-29 68-120-119 70zm-509-780 81 141-241 34 240 35-80 139 140-81 34 247 36-247 141 80-83-140 237-35-237-33 81-141-141 82-27-191a606 606 0 0 1 104.5 9 785 785 0 0 1 104.5 26q106 35 174 86 20 16 41.5 30.5t44.5 29.5q46 31 73 31a87.94 87.94 0 0 0 26-4 98.54 98.54 0 0 0 24-11l56-37q54-36 93-62.5t65-37.5q54-24 125-42a579.76 579.76 0 0 1 143-18q112 0 184 23l-30 216-147-85 86 148-249 35 247 36-83 148 146-85 36 249h4l34-249 148 85-85-148 218-31q41 93 41 223 0 215-126 406-71 107-188 204-57 47-152.5 116.5t-232.5 162.5q-51 34-98.5 71t-92.5 78q-44 40-70 66.5t-36 40.5q-24 32-46 47t-40 15q-36 0-81-54-23-28-58.5-63.5t-85.5-79.5q-49-43-121.5-96t-169.5-118q-190-128-296-223-53-48-94-97.5a846 846 0 0 1 -73-102.5 811 811 0 0 1 -53.5-104 565.86 565.86 0 0 1 -32.5-103q-11-52-16-93t-1-73q0-130 35-211 154-354 491-354l-27 191z"/></svg>