<svg viewBox="0 0 1954 2312" xmlns="http://www.w3.org/2000/svg"><path d="m846 1616q8 26 30 33.5a147.92 147.92 0 0 0 48 7.5q44 0 101.5-11a677.67 677.67 0 0 0 116-33.5 629.92 629.92 0 0 0 112-56.5q53.51-34 90.5-79 30-36 52-84.5t22-98.5q0-20-5-46t-18-37q-11-10-27.5-12.5t-24.5-2.5q-17 0-21.5 12t-7.5 36q-7 52-37 99a391.39 391.39 0 0 1 -74.5 85.5 529.91 529.91 0 0 1 -98 67q-53.5 28.5-106.5 43.5a332.85 332.85 0 0 1 -56 11q-28 3-57 8-20 3-30.5 11.5t-10.5 29.5a71 71 0 0 0 .5 7.5q.5 4.5 1.5 9.5zm612 582a162.33 162.33 0 0 0 38.5-4.5q18.5-4.5 18.5-18.5 0-10-11-23l-340-385q-14-15-28.5-29t-31.5-14q-8 0-30.5 3.5l-54.5 8.5a117.21 117.21 0 0 1 -14.5 1h-14.5q-19 0-23 2-11 2-11 12 0 11 19.5 36t45 53.5q25.5 28.5 50 54t34.5 37.5q37 44 74.5 91a786.42 786.42 0 0 0 79.5 86 420.08 420.08 0 0 0 90.5 64.5q48.5 25.5 108.5 24.5zm-1021-1643a182.79 182.79 0 0 0 50.5-7 141.69 141.69 0 0 0 43.5-20.5 103 103 0 0 0 30.5-34q11.5-20.5 11.5-48.5 0-33-13.5-71a402.12 402.12 0 0 0 -36.5-75.5 456 456 0 0 0 -54.5-71.5 479.38 479.38 0 0 0 -67.5-60.5 335 335 0 0 0 -75-42q-39-15.5-77-15.5-31 0-55 11a115.09 115.09 0 0 0 -40.5 30.5q-16.5 19.5-25 46t-8.5 57.5q0 65 27.5 120.5t72 95.5a333.76 333.76 0 0 0 101.5 62.5q57 22.5 116 22.5zm360 855q16 32 45.5 44a151.78 151.78 0 0 0 62.5 11q53-1 106-22t95-53q21-15 43.5-32.5a299.68 299.68 0 0 0 41-38.5 214.17 214.17 0 0 0 31-46q12.49-25 12.5-55a133.72 133.72 0 0 0 -7-41.5 275.88 275.88 0 0 0 -18-42.5q-11-21-24.5-42t-26.5-40q-25-37-49-75t-49-74q-12-18-26-40t-28.5-41.5a203.63 203.63 0 0 0 -29.5-32.5q-15-13-30-13-10 0-16.5 13a170.4 170.4 0 0 0 -11.5 31.5q-5 18.5-10.5 39.5a191.51 191.51 0 0 1 -13.5 37q-21 43-47 73t-68 52a717.11 717.11 0 0 1 -70 32.5q-34 13.5-80 13.5-8 0-14.5-.5t-14.5-.5q-25 0-35.5 12t-10.5 21q0 12 10 25t20 24q51 62 100 119t97 119q5 7 8.5 11.5a99.51 99.51 0 0 1 7.5 11.5zm1055 247q18 27 36 52a468.07 468.07 0 0 1 32.5 52 337.71 337.71 0 0 1 24 56.5q9.5 29.5 9.5 64.5 0 5-.5 10.5t-.5 10.5q-8 88-52.5 163a483.64 483.64 0 0 1 -111.5 129.5 529.72 529.72 0 0 1 -150 85.5q-83 31-167 31-60 0-110-16.5a418.72 418.72 0 0 1 -94-44.5 547.89 547.89 0 0 1 -83-65q-39-37-74.5-77.5t-70-82q-34.5-41.5-69.5-79.5-57-62-107-126t-101-130q-13-17-18-33.5a125.64 125.64 0 0 1 -5-36.5q0-11 .5-23t.5-23q0-29-8.5-52.5a211.29 211.29 0 0 0 -21.5-43.5 321.79 321.79 0 0 0 -30-39q-17-19-33-39l-131-162q-26-32-52.5-67.5t-43.5-70.5a101.82 101.82 0 0 1 -9.5-30.5q-2.5-16.5-5-33.5a264 264 0 0 0 -7-33 84.67 84.67 0 0 0 -14.5-29q-10-12-36-46t-59-77.5l-67.5-89q-34.5-45.5-60.5-81.5-32-43-61-87a747.67 747.67 0 0 1 -51.5-91.5 557.15 557.15 0 0 1 -36-100q-13.5-52.5-13.5-112.5a502.4 502.4 0 0 1 10.5-100.5q10.5-51.5 35-93.5a207.57 207.57 0 0 1 65-69q40.5-27 101.5-27a381.43 381.43 0 0 1 82 9q41 9 71 22a571.87 571.87 0 0 1 149.5 96.5 1082.93 1082.93 0 0 1 123 130q56.5 70.5 106.5 146.5t100 147l41 59 5 8q13 14 31 16.5a115 115 0 0 1 33 9.5 181.11 181.11 0 0 1 43.5 21 278.6 278.6 0 0 1 36.5 29 702.28 702.28 0 0 1 68.5 72.5q31.5 38.5 61 79.5t58 82.5q28.5 41.5 58.5 81.5a399.37 399.37 0 0 1 25.5 34.5q11.5 17.5 31.5 28.5a162 162 0 0 0 36.5 12 162 162 0 0 1 36.5 12q25 11 46 32.5t39 41.5q49 58 96.5 112a1474.27 1474.27 0 0 1 92.5 117q45 63 86.5 129.5t81.5 127.5z"/></svg>