<svg viewBox="0 0 1296 2401" xmlns="http://www.w3.org/2000/svg"><path d="m251 733 3 132q66-66 167-107-38-3-80.5-9t-89.5-16zm668 1445 30-45q-109 67-306 67-189 0-306-66 55 86 128 124t179 38q94 0 164-28.5t111-89.5zm-791-1653q0 41 45 63 149 76 470 76 108 0 199-8.5t166-26.5q150-34 150-104a62.56 62.56 0 0 0 -7.5-30 96.71 96.71 0 0 0 -20-25.5 142 142 0 0 0 -28-20 105.79 105.79 0 0 0 -31.5-11.5l-29 11q-48 26-152.5 44.5t-252.5 18.5q-68 0-129-5t-111.5-13.5q-50.5-8.5-89-20t-61.5-24.5l-29-11q-31 0-60 29-29 26-29 58zm877 980 10-263q-66 88-151 137l-100 56q-57 32-104 62t-83 60a883.82 883.82 0 0 0 -68.5 63.5 843.1 843.1 0 0 0 -60.5 69.5q-28 35-48 65t-34 55q94 44 237 44h41q41-56 78.5-95.5t72-67.5q34.5-28 64.5-49t56.5-41a504.36 504.36 0 0 0 49-42q22.5-22 40.5-54zm120 350a89.77 89.77 0 0 0 -4-25.5 96.27 96.27 0 0 0 -11-24.5 70.45 70.45 0 0 0 -16-18q-9-7-19-7-16 0-24.5 11.5t-15.5 21.5q-21 31-59 56t-89.5 42q-51.5 17-114.5 26.5t-135 9.5q-234 0-357-93l-40-45q-24-29-39-29a30.5 30.5 0 0 0 -20 7.5 79.23 79.23 0 0 0 -16 18.5 96.27 96.27 0 0 0 -11 24.5 89.77 89.77 0 0 0 -4 25.5q0 28 11.5 56.5t35.5 56.5q46 55 164 97 58 21 126.5 31t148.5 10q130 0 247-33 59-16 104.5-40.5t76-53.5q30.49-29 46-61t15.5-64zm-815-1512q0 14 4.5 23.5t15.5 16.5q11 7 28.5 13t44.5 13a739.45 739.45 0 0 0 116 19.5q61 5.5 124 5.5 35 0 72-.5t73.5-4.5a672.63 672.63 0 0 0 72.5-12 396.49 396.49 0 0 0 69-22l16-6 14.5-8.5q14.5-8.5 10.5-14t4-23.5q0-36-51-105t-121-95.5q-70-26.5-160-26.5a504.44 504.44 0 0 0 -100 9.5q-47 9.5-80 25.5a328.51 328.51 0 0 0 -30 16 145.22 145.22 0 0 0 -28 22 306.57 306.57 0 0 0 -29.5 29.5 490.75 490.75 0 0 0 -32.5 41.5q-33 47-33 83zm717 563 5-174-23 5q-49 57-135 104-42 23-104 50t-145 60q-145 57-234 123t-126 129l7 288q49-93 138-161 45-34 114-73t165-83l119-55a412 412 0 0 0 62.5-35.5 547.7 547.7 0 0 0 61-48.5 436.59 436.59 0 0 0 54-59.5 375.68 375.68 0 0 0 41.5-69.5zm160-233-37 1026q75 54 75 164 0 135-130 238l-12 40q-22 71-96 140-73 68-153 94-81 26-196 26a575.28 575.28 0 0 1 -171-26q-40-13-80-37t-78-60a454.25 454.25 0 0 1 -66.5-79 525.23 525.23 0 0 1 -48.5-92l-47-38q-42-35-69.5-90.5a261.26 261.26 0 0 1 -27.5-117.5q0-107 75-160l-27-1028q-98-59-98-157 0-33 9.5-59.5a138.62 138.62 0 0 1 29.5-48q20-21.5 50-39.5t72-36q29-13 34-33 20-73 61-129.5a368.7 368.7 0 0 1 99-94q58-37.5 131-57t159-19.5q67 0 125 14.5a393.21 393.21 0 0 1 108.5 45q50.5 30.5 94.5 78t84 112.5l30 50q8 14 18 22a89 89 0 0 0 19 12 381.26 381.26 0 0 1 68.5 36 298.42 298.42 0 0 1 54.5 46q23 25 36 53t13 56q0 46-28 80t-81 68z"/></svg>