<svg viewBox="0 0 2326 2266" xmlns="http://www.w3.org/2000/svg"><path d="m1155 1831q-21 0-37.5-5a108.92 108.92 0 0 1 -28-12.5q-11.5-7.5-17.5-15.5t-6-15q0-14 19-14a21.14 21.14 0 0 1 11.5 3.5 115 115 0 0 0 13 7 170.76 170.76 0 0 0 18 7q10.5 3.49 27.5 3.5 30 0 57-18l13-3q19 0 19 14 0 15-24.5 31.5t-64.5 16.5zm476-335q0 33-47 64a195.52 195.52 0 0 1 -48.5 23q-25.5 8-55.5 8-59 0-105-31-45-30-45-64 0-12 9-19a31.78 31.78 0 0 1 20-7q12 0 21.5 9.5t22 20.5a156.6 156.6 0 0 0 30.5 20.5q18 9.49 47 9.5 30 0 48.5-9.5a166.22 166.22 0 0 0 31.5-20.5q13-11 22.5-20.5t21.5-9.5q8 0 17.5 6t9.5 20zm-635 0q0 33-46 64-48 31-104 31-59 0-106-31-45-30-45-64 0-12 9-19a31.78 31.78 0 0 1 20-7q12 0 22 9.5t22.5 20.5a156.6 156.6 0 0 0 30.5 20.5q18 9.49 47 9.5t47-9.5a156.6 156.6 0 0 0 30.5-20.5q12.5-11 22-20.5t21.5-9.5a36.07 36.07 0 0 1 19.5 6q9.5 6 9.5 20zm1070-1173a127.32 127.32 0 0 0 40.5-6.5 123.94 123.94 0 0 0 35-18 87.44 87.44 0 0 0 24.5-27.5 70.18 70.18 0 0 0 9-35q0-30-21.5-50t-47.5-20a119.8 119.8 0 0 0 -39 6.5 99.54 99.54 0 0 0 -33 18.5 87.79 87.79 0 0 0 -22.5 30.5q-8.5 18.5-8.5 42.5 0 28 17.5 43.5t45.5 15.5zm-8 302q-24 0-39.5 16.5t-15.5 42.5q0 42 26.5 70.5t66.5 28.5a101.37 101.37 0 0 0 28-4 79.15 79.15 0 0 0 25.5-12.5 64.17 64.17 0 0 0 18.5-21.5q7-13 7-31 0-38-31.5-63.5t-85.5-25.5zm-757 1244q9 0 15 8.5t6 16.5q0 38-50 67-47 28-116 28-35 0-65-8t-52.5-21q-22.5-13-35-30t-12.5-35q0-26 20-26 10 0 30 12 49 45 114 45 66 0 116-45 16-12 30-12zm952-1869q28 0 50.5 18.5t22.5 50.5q0 60-41 83-30 17-30 74v27q0 68-58 113a215.94 215.94 0 0 1 -64.5 33.5q-35.5 11.5-77.5 9.5l-62-2q-20-2-33.5 7.5t-33.5 35.5l-17 24q12 15 21 27.5a266.53 266.53 0 0 0 17.5 22 73 73 0 0 0 17 14.5q8.51 5 20.5 4l66-4q46-3 85 12a259.68 259.68 0 0 1 71 41q63 54 63 133 0 63-51 112-50 48-111 48-122 0-194-160-55-123-133-163-224 127-383 166-39 13-106 13-50 0-50-8 0-13 15-18 100-62 196-118t194-122l-123-77-171-103q-54-32-82.5-50.5t-28.5-25.5q0-10 51-10 192 0 488 179 11-2 50-36 39-36 72-107 20-43 36.5-71.5t27.5-42.5q24-29 53-47.5t71-15.5l95 7q19 2 22.5-9.5a138.77 138.77 0 0 0 5-26 76.26 76.26 0 0 1 7.5-26.5q6-12 32-12zm-507 1506q0-65-6-149t-17-190a216.44 216.44 0 0 1 -30 21 285 285 0 0 1 -35 17.5 272.63 272.63 0 0 1 -35 12q-17 4.5-29 4.5a57.64 57.64 0 0 1 -19-3.5 74.19 74.19 0 0 1 -19-10 60.17 60.17 0 0 1 -15-15.5 33.69 33.69 0 0 1 -6-19v-40l-3-23.5q-3-23.51-10.5-11.5t-21.5-3a170.54 170.54 0 0 0 -45.5 6.5 350.36 350.36 0 0 0 -46.5 16.5q-23 10-45.5 22t-42.5 22q-48 25-103.5 47.5t-120.5 44.5q-128 42-171 42-49 0-49-30 0-26 49-68l36-39q12-13 12-27 0-21-30-21-49 0-86 24-99 58-167 87.5t-110 29.5q-7 66-10 128.5t-3 124.5q0 146 18 249t60 165a426.77 426.77 0 0 0 93 98.5q55 42.5 124 74.5a664.7 664.7 0 0 0 142 47.5 725.37 725.37 0 0 0 151 15.5 677.59 677.59 0 0 0 234.5-41.5 698.35 698.35 0 0 0 207.5-119.5q20-17 41-42t45-59q63-130 63-388zm565 389q0 36-59 36-105 0-224-81a193.57 193.57 0 0 1 -20.5-15.5q-12.5-10.5-23.5-10.5-18 0-18 26 0 14 41 82t41 83q0 35-83 35-50 0-117-14-62-15-99-34-38 57-106.5 105.5t-150.5 84a933.73 933.73 0 0 1 -170.5 55q-88.5 19.5-166.5 19.5-81 0-169.5-20a959.52 959.52 0 0 1 -169.5-55q-81-35-148.5-83t-106.5-105q-35 18-100 33-65 14-113 14-85 0-85-35 0-11 41-79t41-85q0-27-18-27-5 0-15 6.5t-27 19.5q-58 42-114.5 61.5t-111.5 19.5q-59 0-59-36 0-19 21-48 74-100 124-242 26-70 50.5-163t49.5-209q51-243 130-395a976.51 976.51 0 0 1 89.5-143.5 816.72 816.72 0 0 1 110.5-119.5q121-110 279-167a1248.37 1248.37 0 0 1 154-46q75-17 148-11l95 6a621.13 621.13 0 0 1 61.5 24q28.5 13 49.5 27.5t33 30.5q12 16 12 32a47.27 47.27 0 0 1 -6.5 23.5q-6.49 11.5-22.5 26t-44 32q-28 17.5-71 40.5-121 63-121 136 0 50 42 80t108 30q160 0 403-119 42-21 67-21 42 0 69 74 42 122 157 181a1541.93 1541.93 0 0 1 63 208q67 302 102 414a893.38 893.38 0 0 0 42 108.5 924.16 924.16 0 0 0 54 99.5l19 30q20 32 31.5 51t11.5 30z"/></svg>