<svg viewBox="0 0 2100 1957.44" xmlns="http://www.w3.org/2000/svg"><path d="m1047 1466a102.51 102.51 0 0 1 -34.5-5.5 113.89 113.89 0 0 1 -27-13.5q-11.5-8-17.5-17t-6-17q0-14 16-14 8 0 12 6 25 27 57 27t57-27a12.55 12.55 0 0 1 11-6q16 0 16 14 0 8-6 17t-17 17a104.07 104.07 0 0 1 -26.5 13.5 102.51 102.51 0 0 1 -34.5 5.5zm132 32q13 0 13 13a73.46 73.46 0 0 1 -11 39 98.79 98.79 0 0 1 -29.5 30.5q-18.49 12.49-44 20a192.29 192.29 0 0 1 -54.5 7.5 195.6 195.6 0 0 1 -53-7q-25-7-44-20t-30-30.5a69.27 69.27 0 0 1 -11-37.5q0-15 13-15l13 2q58 33 112 33a213 213 0 0 0 103-26q13-9 23-9zm710 361 2-36-3-52-63 10-66 5q-62 5-104.5 11t-53.5 25q23 23 59.5 35.5t87.5 9.5l51-3h11zm-1580 5 49 3q52 3 88.5-9.5t59.5-35.5q-14-24-122-33l-94-8-71-8-3 61 2 25 79 5zm282-1654a47.22 47.22 0 0 0 3.5 19q3.5 8 7 15l7 14s1.17 5 3.5 15 1.17 15.17-3.5 15.5-7 5.5-7 15.5-2.33 15.5-7 16.5-5.83 7.17-3.5 18.5q0 26 18 43.5t46 17.5a54.12 54.12 0 0 0 19-3 103.2 103.2 0 0 0 15-7q7-4 13.5-7a34.19 34.19 0 0 1 14.5-3l16 3q34 17 48 17 16 0 28-6a59.66 59.66 0 0 0 19.5-15 68.39 68.39 0 0 0 11.5-19.5 57.29 57.29 0 0 0 4-20.5q0-12-3.5-20.5a175.79 175.79 0 0 0 -7.5-16q-4-7.5-7.5-14.5a33.14 33.14 0 0 1 -3.5-15q0-8 7-20l-3-22q0-35 10-52l-4-7q-14-23-52-23-26 0-38 9-14 10-25 10l-12-4q-32-17-51-17-28 0-45.5 17.5t-17.5 45.5zm4 1457q-72-66-111-123l-180-7q-59-2-88 16.5t-29 53.5q0 45 60.5 65.5t191.5 30.5q47 3 80.5 18.5t56.5 41.5q2-4 7-27.5t12-68.5zm695-1390a37.7 37.7 0 0 1 -3 15 136.36 136.36 0 0 1 -7 14 103.2 103.2 0 0 0 -7 15 50.94 50.94 0 0 0 -3 18q0 30 19.5 46.5t41.5 16.5q27 0 38-10a42.46 42.46 0 0 1 26-9 36.32 36.32 0 0 1 15.5 3.5q7.5 3.5 14.5 7.5a156.49 156.49 0 0 0 15 7.5 44.5 44.5 0 0 0 18 3.5 59.54 59.54 0 0 0 27-6 68.06 68.06 0 0 0 20.5-15.5 68.89 68.89 0 0 0 13-21 64 64 0 0 0 4.5-23.5q0-15-18-47l-4-13 5-19q15-27 15-48 0-25-17.5-43.5t-45.5-18.5a44.5 44.5 0 0 0 -18 3.5q-8 3.5-15.5 7t-14.5 7a33.14 33.14 0 0 1 -15 3.5 27.32 27.32 0 0 1 -14-3.5q-6-3.5-13-7t-15.5-7q-8.5-3.5-20.5-3.5-42 0-57 37l6 38-2 22q11 11 11 30zm623 1330q0-34-29.5-52t-88.5-16l-179 5a616.55 616.55 0 0 1 -104 116l8 54 11 49a145 145 0 0 1 41-33.5 203 203 0 0 1 50.5-19 436.34 436.34 0 0 1 59.5-9.5q32-3 69-5 75-5 118.5-28t43.5-61zm-1013-1382q0 29 13 41a93.79 93.79 0 0 0 29.5 18.5q16.5 6.5 30.5 13t16 24.5q2 25 21.5 41.5t42.5 16.5a63.24 63.24 0 0 0 43.5-16.5 64 64 0 0 0 21.5-41.5q3-28 31-31 25-2 41.5-21.5t16.5-44.5q0-24-16.5-41t-41.5-22q-17-3-23.5-17t-12.5-29.5a85.66 85.66 0 0 0 -18.5-28.5q-12.5-13-41.5-13-52 0-64 56-4 18-31 31l-22 10q-36 16-36 54zm-596 1222q32 1 63.5 1.5t60.5 3.5h47l44-2 2-33q8-88 18.5-168t18.5-154q10-90 24-172t31.5-159.5q17.5-77.5 37.5-150.5t41-144l-33 5q-51 0-89-28.5t-49-77.5q-67 58-137 203-34 72-66.5 157.5t-65 188.5q-32.5 103-65.5 225t-68 267q-14 57-21.5 93t-7.5 52a140.38 140.38 0 0 0 2 23q2 12 5 25a133 133 0 0 1 15-62q15-29 42.5-50t66-32.5q38.5-11.5 83.5-10.5zm1699 155q3-13 5-25a152.24 152.24 0 0 0 2-25 319.36 319.36 0 0 0 -6.5-66.5q-6.5-30.5-17.5-54.5-51-208-89-348.5t-64-216.5q-25-76-53-147t-58.5-133.5a1227.42 1227.42 0 0 0 -63.5-115q-33-52.5-67-91.5-14 44-50 71t-83 27q-32 0-52-11l11 32q26 106 54.5 216.5t48.5 235.5l23 150 30 295q2 14 3.5 27.5a277.37 277.37 0 0 0 4.5 27.5l39 2 175-5q46-1 84.5 9.5t66 31.5q27.49 21 42.5 50t15 64zm-489-76q-14-6-17-30-21-112-33-284a54.35 54.35 0 0 1 -15 19 93.9 93.9 0 0 1 -17.5 11 72.64 72.64 0 0 1 -15.5 5.5 55.15 55.15 0 0 1 -10 1.5 122.82 122.82 0 0 1 -6.5 40 118.19 118.19 0 0 1 -18 34 81.29 81.29 0 0 1 -28.5 23.5q-17 8.51-38 8.5a80.33 80.33 0 0 1 -35.5-8 96.57 96.57 0 0 1 -29-21.5 98.39 98.39 0 0 1 -19.5-31.5 106.61 106.61 0 0 1 -7-39 110.59 110.59 0 0 1 7-39.5 96 96 0 0 1 48.5-53.5 80.33 80.33 0 0 1 35.5-8l17 3a48.18 48.18 0 0 0 18.5-3.5 96.36 96.36 0 0 0 15.5-8q7-4.5 13.5-8a28.13 28.13 0 0 1 13.5-3.5q16 0 16 15a22.7 22.7 0 0 1 -4.5 14 47.38 47.38 0 0 1 -10 10q-5.51 4-10 7t-4.5 6q7 7 20 7l50-10 11 4q-5-67-17.5-150.5t-33.5-184.5l-24-37q-55-81-66-81-10 0-31 15-197 145-475 247-103 37-161 65l-10 89-5 38 10-5 48 10q21 0 21-7l-14-13q-13-9-13-26 0-13 16-13a23.67 23.67 0 0 1 12 3.5q6 3.49 13.5 8a136 136 0 0 0 15.5 8 44.5 44.5 0 0 0 18 3.5l18-3a80.33 80.33 0 0 1 35.5 8 96 96 0 0 1 48.5 53.5 110.59 110.59 0 0 1 7 39.5 106.61 106.61 0 0 1 -7 39 98.39 98.39 0 0 1 -19.5 31.5 96.57 96.57 0 0 1 -29 21.5 80.33 80.33 0 0 1 -35.5 8q-38 0-64.5-29t-26.5-77q-31 0-56-35a470.47 470.47 0 0 0 -5.5 47.5q-1.5 23.5-3.5 45.5l-14 128q-8 75-29 91l23 25a633.43 633.43 0 0 0 47.5 46.5 537.5 537.5 0 0 0 61.5 46.5q67 44 165 67 94 22 164 22 82 0 174-22a652.38 652.38 0 0 0 87-26.5 437 437 0 0 0 75-37.5 483.12 483.12 0 0 0 67.5-51.5q32.5-29.5 65.5-69.5zm586 28q0 127-119 187l-4 3 4 86q2 36-2.5 58.5t-11.5 31.5q-26 35-153 35h-10l-56 2q-40 2-74-5a378.79 378.79 0 0 1 -62-18h-13q-73-16-115-68t-53-144a602.15 602.15 0 0 1 -88 44 740.5 740.5 0 0 1 -96.5 31.5 843.65 843.65 0 0 1 -101 19 802.94 802.94 0 0 1 -100.5 6.5 700.64 700.64 0 0 1 -94-6.5 793.32 793.32 0 0 1 -95.5-19 849.36 849.36 0 0 1 -93.5-30.5 640.75 640.75 0 0 1 -86-41q-9 51-23.5 86.5t-35 60a158.77 158.77 0 0 1 -48 39 257.6 257.6 0 0 1 -61.5 22.5h-10a408.14 408.14 0 0 1 -63.5 18q-34.5 7-74.5 5l-58-2h-8q-57 0-91-6.5t-48-14.5q-28-16-28-68v-32l3-87q-67-33-98.5-78t-31.5-114q0-14 1-28.5t3-28.5q3-15 23.5-99.5t60.5-240.5q78-309 160-502 82-192 141-275 59-84 134-131-6-16-6-38a138 138 0 0 1 10.5-54 140.41 140.41 0 0 1 29-44 129.32 129.32 0 0 1 44-29.5 141.73 141.73 0 0 1 54.5-10.5q30 0 63 15 31-15 62-15 53 0 101 43a169.9 169.9 0 0 1 20.5-13 166.14 166.14 0 0 1 20.5-9q16-42 51-68.5t80-26.5q46 0 82 26.5t50 68.5a202 202 0 0 1 25.5 11 83.2 83.2 0 0 1 20.5 15q45-45 103-45a121.56 121.56 0 0 1 30.5 4 176.15 176.15 0 0 1 30.5 11q26-13 63-13 53 0 96 41 43 40 43 95a117.74 117.74 0 0 1 -2 21q-2 11-5 22 74 54 143.5 163.5t136.5 283.5q34 87 62.5 178t53.5 189q26 98 40 155t18 75q5 23 11 43.5t13 40.5l6 22 7 29a412.92 412.92 0 0 1 14 57.5 361.8 361.8 0 0 1 5 60.5z"/></svg>