<svg viewBox="0 0 1838 1540" xmlns="http://www.w3.org/2000/svg"><path d="m1246 592q194 0 194 261 0 260-194 260-98 0-147-62t-49-198q0-261 196-261zm-668 0q99 0 147.5 61.5t48.5 199.5q0 139-48.5 199.5t-147.5 60.5q-95 0-144.5-60t-49.5-200q0-137 47.5-199t146.5-62zm1098 322q0-112-37-212a424.46 424.46 0 0 0 -49-95.5 589.57 589.57 0 0 0 -70.5-85 668.42 668.42 0 0 0 -86-72.5 702.77 702.77 0 0 0 -97.5-58l-160-78q-26-13-61-35t-81-54q-32-22-63.5-42.5t-52.5-20.5a101.18 101.18 0 0 0 -16 1 38.62 38.62 0 0 0 -11 3.5 59.2 59.2 0 0 0 -11 7.5q-6 5-16 13a1276.32 1276.32 0 0 1 -148.5 105.5 1312.46 1312.46 0 0 1 -171.5 87.5q-90 38-159.5 94a601.55 601.55 0 0 0 -120.5 131q-52 75-77.5 156.5a564.26 564.26 0 0 0 -25.5 169.5q0 141 71 231t257 153q94 32 201.5 47.5t229.5 15.5q191 0 370-39 176-39 246-88 67-49 103.5-135t36.5-201zm162 2q0 146-48.5 262.5t-142.5 190.5q-93 72-301 122-205 49-426 49-142 0-268-19t-238-60q-111-40-190-92.5t-128.5-118a444 444 0 0 1 -72.5-144q-23-78.5-23-170.5 0-232 130-423 66-97 153.5-167.5t197.5-117.5a1012.18 1012.18 0 0 0 140-69.5 1173.23 1173.23 0 0 0 134-93.5q20-16 37.5-28a243.72 243.72 0 0 1 36-20.5 170.69 170.69 0 0 1 39.5-12.5q21-4 48-4 34 0 72.5 11.5t76.5 37.5l92 63q23 15 45 29.5a378.08 378.08 0 0 0 45 25.5q123 55 212 108t148 104q118 103 174.5 240t56.5 297z"/></svg>