<svg viewBox="0 0 2316 1552" xmlns="http://www.w3.org/2000/svg"><path d="m482 1203v-43q0-23-24-23h-95q-24 0-24 23v43q0 23 24 23h95q24 0 24-23zm-204 0v-43q0-23-24-23h-95q-24 0-24 23v43q0 23 24 23h95q24 0 24-23zm407 0v-43q0-23-23-23h-96q-23 0-23 23v43q0 23 23 23h96q23 0 23-23zm-203 163v-44q0-9-7-16a23.13 23.13 0 0 0 -17-7h-95a23.13 23.13 0 0 0 -17 7q-7 7-7 16v44q0 9 7 16a23.13 23.13 0 0 0 17 7h95a23.13 23.13 0 0 0 17-7q7-7 7-16zm-204 0v-44q0-9-7-16a23.13 23.13 0 0 0 -17-7h-95a23.13 23.13 0 0 0 -17 7q-7 7-7 16v44q0 9 7 16a23.13 23.13 0 0 0 17 7h95a23.13 23.13 0 0 0 17-7q7-7 7-16zm407 0v-44q0-9-7-16t-16-7h-96q-23 0-23 23v44q0 23 23 23h96q9 0 16-7t7-16zm-203-325v-43q0-24-24-24h-95q-24 0-24 24v43a23.9 23.9 0 0 0 24 24h95a23.9 23.9 0 0 0 24-24zm-204 0v-43q0-24-24-24h-95q-24 0-24 24v43a23.9 23.9 0 0 0 24 24h95a23.9 23.9 0 0 0 24-24zm407 0v-43q0-24-23-24h-96q-23 0-23 24v43q0 24 23 24h96q9 0 16-7a23.13 23.13 0 0 0 7-17zm1029-670q120 0 215 97 94 95 94 222a210.53 210.53 0 0 1 -7 53q-7 27-23 55-30 56-63 56-26 0-26-27 0-16 7-34a96.21 96.21 0 0 0 7-35q0-45-45-87-46-44-89-44-30 0-30 56 0 153-82 347-65 150-222 150-98 0-165-55-69-55-69-141 0-37 13-68a149.21 149.21 0 0 1 37-53q24-22 57.5-34.5t74.5-12.5q53 0 98.5 19t87.5 57q18 17 29 17l9-4q26-15 44-100 19-85 19-186 0-39-4-84t-11-97l-2-22q0-45 46-45zm-1025 462v-673q0-20-13-33.5t-33-13.5h-465q-20 0-33.5 13.5t-13.5 33.5v673q0 20 13.5 33.5t33.5 13.5h465q20 0 33-13.5t13-33.5zm1098 48 246 248q62-76 91.5-162t31.5-183a499.28 499.28 0 0 0 -18.5-142.5 543 543 0 0 0 -56-131 569.75 569.75 0 0 0 -87.5-112.5 561.44 561.44 0 0 0 -112-87 547.77 547.77 0 0 0 -130-55.5 494.34 494.34 0 0 0 -142-18.5q-98 2-184 31.5t-162 91.5l357 356q-5 34-11 61.5t-11 50.5q-85-64-180-71l-270-267q-43 68-63.5 141.5a623.9 623.9 0 0 0 -22.5 152.5 466.24 466.24 0 0 0 18 142.5 570.47 570.47 0 0 0 56 131 556.22 556.22 0 0 0 330.5 255 499.28 499.28 0 0 0 142.5 18.5 633.84 633.84 0 0 0 152-22q73-20 142-65l-182-181q16-44 32.5-84.5t32.5-97.5zm-1671-881h587a113.79 113.79 0 0 1 46.5 9.5 122.44 122.44 0 0 1 37.5 25.5 115.55 115.55 0 0 1 25 37.5 114.16 114.16 0 0 1 9 44.5v1317a114.16 114.16 0 0 1 -9 44.5 121.4 121.4 0 0 1 -25 38 118.29 118.29 0 0 1 -37.5 26 113.79 113.79 0 0 1 -46.5 9.5h-587a113 113 0 0 1 -45-9 117 117 0 0 1 -37-25 115.55 115.55 0 0 1 -25-37.5 119.18 119.18 0 0 1 -9-46.5v-1317a116.54 116.54 0 0 1 71-108 113 113 0 0 1 45-9zm1494 77q192 0 354 96 166 96 258 260 94 165 94 351 0 187-94 352-93 162-258 258-82 49-170 72.5t-184 23.5q-190 0-354-94-165-94-259-259-94-163-94-353 0-189 96-354 96-166 258-259 165-94 353-94z"/></svg>