<svg viewBox="0 0 2232 2216" xmlns="http://www.w3.org/2000/svg"><path d="m234 137q0-51 104-51a67 67 0 0 1 42.5 14.5q18.5 14.5 33.5 41.5l38 70q26 48 41 73t26 25q11 0 28.5-24t43.5-70l40-68q27-62 77-62 105 0 105 51a49.31 49.31 0 0 1 -1.5 12l-3.5 14q-5 12-32.5 63.5t-80.5 124.5l17 2h16q75 0 75 53 0 14-4 24t-15.5 16.5q-11.5 6.5-32.5 9.5t-56 2l-68-1-11 40h49l37 1h21q80 0 80 52a61.52 61.52 0 0 1 -4 23q-4 10-15.5 17t-33 10.5q-21.5 3.5-55.5 2.5l-82-1v97q0 75-20 97-21 21-71 21-26 0-44-4t-29-15.5q-11-11.5-15.5-32.5t-4.5-54v-53l1-56h-82q-74 0-88-10-15-12-15-38 0-19 5.5-30a43 43 0 0 1 14.5-17 48 48 0 0 1 21-7.5 201.49 201.49 0 0 1 25-1.5h116q0-12-12-41h-67q-30 0-50-1t-32-6q-12-5-16.5-14t-4.5-26q0-18 5-29.5t13.5-17.5a48.33 48.33 0 0 1 19.5-8 134.64 134.64 0 0 1 24-2l44 1-33-61-25-41q-15-25-26-42.5t-18.5-30.5a151.31 151.31 0 0 1 -11-22.5 56 56 0 0 1 -3.5-19.5zm-135 1981h2083q21 0 35.5 14t14.5 35q0 20-14.5 34.5t-35.5 14.5h-2132q-20 0-35-14.5t-15-34.5v-2118q0-20 15-34.5t35-14.5q20 0 34.5 14.5t14.5 34.5v1642l235-241q20-20 49-21 25 0 44 17l212 176 434-1316a63.79 63.79 0 0 1 25.5-33.5 70.85 70.85 0 0 1 40.5-12.5q40 0 60 35l308 560 180-517a84.23 84.23 0 0 1 9.5-19 60.84 60.84 0 0 1 15.5-15l392-274q19-12 39-12 26 0 47.5 19t21.5 49q0 37-30 58l-373 259-223 642q-17 45-66 45-40 0-59-34l-306-557-417 1263a74.5 74.5 0 0 1 -24.5 34q-17.5 14-41.5 14-14 0-24-4.5a94.07 94.07 0 0 1 -20-12.5l-240-201-289 294z"/></svg>