<svg viewBox="0 0 2132 1710" xmlns="http://www.w3.org/2000/svg"><path d="m608 311h-115a59.5 59.5 0 0 0 -8 30q0 28 18 44t44 16q28 0 47-19.5t19-47.5zm1524 741q0 49-38 105-39 58-82 58-16 0-16-10l9-33a136.15 136.15 0 0 0 -3.5-31q-3.49-15-8-30t-8-29.5a129.76 129.76 0 0 1 -3.5-30.5q0-63 51-76a188.09 188.09 0 0 0 -13.5-70 225.9 225.9 0 0 0 -37.5-62.5q-24-28.5-58-50.5a284 284 0 0 0 -75-34q14 48 20 90t6 77q0 46-9 116t-21 167l-12 100q-8 63-12.5 101t-9.5 52q-11 27-47 27-29 0-46-5t-17-25a136.15 136.15 0 0 1 3.5-31q3.49-15 7.5-30t7.5-29.5a129.76 129.76 0 0 0 3.5-30.5q0-48-1-83.5t-4-60.5q-13-44-42-62.5t-69-30.5l-15 92a429.91 429.91 0 0 0 -5.5 47.5q-1.5 24.5-2.5 47.5l-2 29-9 64q-4 24-20.5 35.5t-50.5 11.5q-47 0-47-34a127.27 127.27 0 0 1 2.5-26 133.28 133.28 0 0 1 7.5-24q10-25 14.5-59a582.87 582.87 0 0 0 4.5-76q0-103-45-151-83 20-108 109-14 45-25.5 137.5t-2.5 232.5l6 85q3 53-21.5 71t-64.5 18q-59 0-59-56 0-25 16-52 15-24 15-47l-5-42q0-49-40-120a624.74 624.74 0 0 0 -42.5-65 326.79 326.79 0 0 0 -49.5-53l-2 140 4 83q1 28-4.5 45.5t-17 27.5a61.1 61.1 0 0 1 -28 13.5 176.47 176.47 0 0 1 -36.5 3.5q-59 0-59-53 0-27 16-53 15-25 15-50 0-56-16-130-6-27-44-101l-63-22q-50-17-98.5-47.5t-96.5-79.5a939 939 0 0 1 -89-103 494.47 494.47 0 0 1 -66-121l-12-33q-15-39-29.5-63t-31.5-32q-41 21-78.5 31t-71.5 10q-91 0-171-56-79-55-79-138 0-58 34-96 17-20 55-48.5t98-68.5q51-35 78-106 17-42 31-63a138.08 138.08 0 0 1 35-36q-22-26-22-52 0-29 18.5-53t48.5-24q46 0 68 71a356.71 356.71 0 0 1 47.5-10.5 322.49 322.49 0 0 1 47.5-3.5q68 0 124 32 31-51 74-51a93.46 93.46 0 0 1 31.5 5.5 90.91 90.91 0 0 1 48.5 40.5 59.5 59.5 0 0 1 8 30q0 49-58 76a452.17 452.17 0 0 1 35 84.5 237.69 237.69 0 0 1 9 89.5l-6 63a174.68 174.68 0 0 0 67 60 309.88 309.88 0 0 0 44.5 18.5 133.6 133.6 0 0 0 40.5 6.5q23 0 41.5-23t36.5-68l14-34q54-135 130.5-197.5t159.5-62.5q79 0 146 61.5t136 182.5q22 38 55 80.5t80 90.5q35 36 49 79l20 56q138 56 201 126.5t63 160.5v14q43 22 43 74z"/></svg>