<svg viewBox="0 0 2042 2218" xmlns="http://www.w3.org/2000/svg"><path d="m81 1213q0 20 8 44 11-48 58-118-66 5-66 74zm1487-525q0-14-22.5-30t-67.5-39l-200-102q-37-20-74-43.5a210.7 210.7 0 0 0 -79-30.5h-4q-15 0-51 44-34 41-34 60 0 14 36 30 35 16 56.5 31t42.5 22l137 64q82 39 128.5 60t60.5 21q25 0 48-39 23-43 23-48zm-645-126q0-34 68-119 34-43 64-65.5t56-23.5q17-1 40 7t55 22q30 14 61 28.5t60 29.5q31 16 93.5 49.5t157.5 86.5q101 56 101 97 0 18-10 31l-50 78q-34 52-58 79.5t-46 27.5q-24 0-40-11l-35-16a186.8 186.8 0 0 1 -35.5-14q-17.51-9-36.5-19l-71-40q-100-56-166.5-85.5t-95.5-46.5q-58-34-85-55t-27-41zm-526 417-98 127q42 54 42 103 0 17-14.5 27.5t-34.5 10.5q-39 0-45-37l-10-23a451.47 451.47 0 0 0 -29 44q-12 21-17 38 49 10 359 189 156 89 305.5 178t295.5 183q25 16 43 24.5t31 8.5q19 0 42-41l591-1060q26-47 38.5-73.5t12.5-33.5q0-56-136-140-68-42-142.5-84.5t-158.5-87.5q-83-45-160.5-84.5t-152.5-75.5l-4-1-45-21 4 27q0 17-14.5 27a54.36 54.36 0 0 1 -31.5 10q-40 0-47-39l-7-17-87 108q15 20 28.5 49.5t13.5 53.5q0 17-14.5 26a58.64 58.64 0 0 1 -31.5 9q-41 0-47-38l-10-24-87 116q34 55 34 90 0 17-15.5 27.5t-32.5 10.5q-20 0-30.5-9t-15.5-29l-3-9-89 123q38 51 38 94 0 16-12.5 25.5a67.27 67.27 0 0 1 -29.5 12.5q-26 0-37-10.5t-21-39.5l-105 146q32 46 32 85 0 17-15.5 27.5t-32.5 10.5a56.77 56.77 0 0 1 -30-8.5q-14-8.5-17-25.5zm1609-372v5q17 41 26.5 93t9.5 117a425.39 425.39 0 0 1 -16 116.5q-16 56.5-47 111.5l-600 1075q-51 93-130 93-27 0-58.5-12.5t-69.5-36.5q-264-167-460.5-279.5t-326.5-181.5l-137-72q-58-31-85-97t-27-163q-37-33-61-79.5t-24-95.5q0-67 48-118 48-49 110-49a158 158 0 0 1 61 12l104-137-26-2q-68 0-71 82l-4 17-41-1-22 4q-16 0-16-34 0-71 48-122 46-50 113-50 44 0 81 20l98-137h-12q-66 0-66 62 0 40-13 40l-25-6-15-3q-33-1-33-30 0-69 48-117 48-50 111-50a154.33 154.33 0 0 1 34.5 4 254.25 254.25 0 0 1 35.5 11l89-120-15-1q-54 0-66 49l-7 29-5 1q-12 0-39-10l-23 3q-12 0-12-16 0-65 48-112 46-48 108-48 38 0 76 19l74-97q-12 2-22.5 4.5a50.11 50.11 0 0 0 -19 9q-8.5 6.5-15.5 18.5t-14 32l-41-11a140.92 140.92 0 0 0 -21.5-2.5q-11.5-.5-11.5-12.5l6-23a130.33 130.33 0 0 1 22-50 167.24 167.24 0 0 1 36.5-37 165.46 165.46 0 0 1 43.5-23 136.55 136.55 0 0 1 45-8 168.07 168.07 0 0 1 63 12l81-99h-7q-25 0-46.5 18t-24.5 46l-21-8-20-5q-34 0-34-15 0-10 7-21a152.77 152.77 0 0 1 20-48 150.78 150.78 0 0 1 33.5-37.5 159.38 159.38 0 0 1 43.5-24.5 138.5 138.5 0 0 1 49-9q56 0 107 38l19-3q42 0 77.5 15t67.5 30l4 2q154 72 279 140t228 128l76 44q42 24 79 50a617.83 617.83 0 0 1 66 53q29 27 48.5 55t26.5 55z"/></svg>