<svg viewBox="0 0 2418 2209" xmlns="http://www.w3.org/2000/svg"><path d="m552 687 593 433-593 435v-271h-552v-324h552zm1680 499v-959q0-28-19.5-47.5t-47.5-19.5h-662q-28 0-47.5 19.5t-19.5 47.5v959q0 28 19.5 47t47.5 19h662q28 0 47.5-19t19.5-47zm-8 295v-61a32.45 32.45 0 0 0 -33-33h-135a32.45 32.45 0 0 0 -33 33v61q0 16 9.5 25.5a31.93 31.93 0 0 0 23.5 9.5h135a31.93 31.93 0 0 0 23.5-9.5q9.5-9.5 9.5-25.5zm0 232v-62a32.45 32.45 0 0 0 -33-33h-135a32.45 32.45 0 0 0 -33 33v62q0 15 9.5 24.5a31.93 31.93 0 0 0 23.5 9.5h135a31.93 31.93 0 0 0 23.5-9.5q9.5-9.5 9.5-24.5zm0 231v-62a32.45 32.45 0 0 0 -33-33h-135a32.45 32.45 0 0 0 -33 33v62a32.45 32.45 0 0 0 33 33h135a32.45 32.45 0 0 0 33-33zm-289-463v-61q0-14-9-23.5t-25-9.5h-135a32.45 32.45 0 0 0 -33 33v61q0 16 9.5 25.5a31.93 31.93 0 0 0 23.5 9.5h135q16 0 25-9.5t9-25.5zm0 232v-62q0-14-9-23.5t-25-9.5h-135a32.45 32.45 0 0 0 -33 33v62q0 15 9.5 24.5a31.93 31.93 0 0 0 23.5 9.5h135q16 0 25-9.5t9-24.5zm0 231v-62q0-14-9-23.5t-25-9.5h-135a32.45 32.45 0 0 0 -33 33v62a32.45 32.45 0 0 0 33 33h135q16 0 25-9.5t9-23.5zm-290-463v-61q0-14-9-23.5t-25-9.5h-135a32.45 32.45 0 0 0 -33 33v61q0 16 9.5 25.5a31.93 31.93 0 0 0 23.5 9.5h135q16 0 25-9.5t9-25.5zm0 232v-62q0-14-9-23.5t-25-9.5h-135a32.45 32.45 0 0 0 -33 33v62q0 15 9.5 24.5a31.93 31.93 0 0 0 23.5 9.5h135q16 0 25-9.5t9-24.5zm0 231v-62q0-14-9-23.5t-25-9.5h-135a32.45 32.45 0 0 0 -33 33v62a32.45 32.45 0 0 0 33 33h135q16 0 25-9.5t9-23.5zm-229-1944h837q67 0 116 49t49 118v1875q0 69-49 118t-116 49h-837q-71 0-119-49-48-48-48-118v-1875q0-70 48-118 48-49 119-49z"/></svg>