<svg viewBox="0 0 2024 1998" xmlns="http://www.w3.org/2000/svg"><path d="m1662 1340 24 2q36 0 56-24t24-65q-6 7-14 17a123.56 123.56 0 0 1 -20 19.5 184.8 184.8 0 0 1 -28 18q-16 8.51-37 11.5-5 5-5 21zm-1388-134-4 32q1 47 22 75.5t63 28.5h9l-5-48q-61-29-85-88zm661 228q0-14 13-14l66 11a100 100 0 0 0 24-2.5q10-2.51 17.5-5t14.5-5a44.22 44.22 0 0 1 15-2.5q13 0 13 13a28.49 28.49 0 0 1 -7 18.5 64.94 64.94 0 0 1 -18.5 15 99.63 99.63 0 0 1 -26.5 10 136.15 136.15 0 0 1 -31 3.5 104.9 104.9 0 0 1 -29-4 135.83 135.83 0 0 1 -25.5-10 68.11 68.11 0 0 1 -18.5-13.5q-7-7.5-7-14.5zm-385 393q0 17-53 17-32 0-51-13l-8-13-9-8-26-5q-86-6-88-51 0-21-19-31-59-31-59-69 0-15 17-28.5a59.58 59.58 0 0 1 38-13.5 110 110 0 0 0 12 2q8 1 8 9a13.79 13.79 0 0 1 -6 11.5 14.75 14.75 0 0 0 -6 12.5q0 35 56 46 10 1 10 8l-7 20a29.8 29.8 0 0 0 7 19.5 56 56 0 0 0 17.5 14 99.19 99.19 0 0 0 23 8.5 104.74 104.74 0 0 0 24.5 3l25-2q8 0 8 11l-1 11 1 6q8 21 49 24 37 1 37 11zm1238-171q0 36-57 67-19 10-22 31-6 42-77 51-24 0-33 5t-21 21q-10 13-51 13h-12q-8-1-23-4t-18-12q0-8 13.5-9.5t30-3.5a116.08 116.08 0 0 0 30-7.5q13.5-5.5 13.5-21.5l-1-11q0-11 9-11l24 2a115.56 115.56 0 0 0 22.5-2.5 107.91 107.91 0 0 0 23.5-7.5 47 47 0 0 0 18-14 33.2 33.2 0 0 0 7-21l-6-20q0-4 33-15 33-10 33-36 0-11-6-15.5a13.79 13.79 0 0 1 -6-11.5q0-8 7-9t15-2q7 0 16.5 3.5a77.69 77.69 0 0 1 18 9.5 55.92 55.92 0 0 1 14 14 29.46 29.46 0 0 1 5.5 17zm-763-36q-55 0-108-26-53-25-53-60a25.37 25.37 0 0 1 5-15q5-7 12-7l15 4q74 40 117 40 53 0 121-39l18-5q10 0 14.5 8t4.5 13q0 24-43 56-45 31-103 31zm312-205q-40 0-66.5-29.5t-26.5-71.5q0-45 26.5-74t66.5-29a83.55 83.55 0 0 1 36 8 94.73 94.73 0 0 1 29.5 21.5 96.14 96.14 0 0 1 19.5 32.5 117.61 117.61 0 0 1 7 41 110.59 110.59 0 0 1 -7 39.5 97.23 97.23 0 0 1 -19.5 32 94.73 94.73 0 0 1 -29.5 21.5 83.55 83.55 0 0 1 -36 8zm-651-204q38 0 65.5 29t27.5 74a104.11 104.11 0 0 1 -7.5 39.5 99.41 99.41 0 0 1 -20.5 32 103.19 103.19 0 0 1 -29.5 21.5 80.33 80.33 0 0 1 -35.5 8 83.55 83.55 0 0 1 -36-8 94.73 94.73 0 0 1 -29.5-21.5 105.66 105.66 0 0 1 -27.5-71.5 110.66 110.66 0 0 1 7.5-41 102.81 102.81 0 0 1 20-32.5 94.73 94.73 0 0 1 29.5-21.5 83.55 83.55 0 0 1 36-8zm53-953q0-28 77-51 76-22 197-22 119 0 194 22 78 23 78 51 0 31-81 52-82 20-191 20-59 0-107.5-4.5t-88.5-15.5q-78-22-78-52zm1119 1481q0-26-33-53l32 1q71 3 71-37 0-35-63-61-62-26-149-26-72 0-149 23-114 138-274 193l-3 5q-13 22-13 51 0 67 71 67a172.54 172.54 0 0 0 54-8.5 172.54 172.54 0 0 1 54-8.5 155.71 155.71 0 0 1 40.5 5.5 171.18 171.18 0 0 0 44.5 5.5q34 0 55-10.5t45-30.5l13-6 26 4q47 0 67-14.5t21-28.5l1-19 23-3q33-4 49.5-14.5t16.5-34.5zm-1550-176q-86 0-149 24-62 24-62 63 0 40 70 37l32-1q-33 27-33 53 0 43 63 49l26 3 3 19q0 14 20.5 28.5t65.5 14.5l27-4 12 6a359.28 359.28 0 0 0 45.5 29.5q21.5 11.5 54.5 11.5 24 0 43.5-5.5a156 156 0 0 1 42.5-5.5 168 168 0 0 1 53.5 8.5 168 168 0 0 0 53.5 8.5q71 0 71-66a142.48 142.48 0 0 0 -2.5-27 68.09 68.09 0 0 0 -10.5-25l-6-8q-165-59-271-190a683.44 683.44 0 0 0 -76-17 455.54 455.54 0 0 0 -73-6zm229-1290q0 73 138 124 70 26 154 39t184 13q98 0 181.5-12.5t153.5-38.5q139-51 139-125 0-73-141-125-70-26-152.5-39t-180.5-13q-199 0-338 52-138 51-138 125zm476 1461a754.88 754.88 0 0 0 130-11 708.39 708.39 0 0 0 118.5-31 534.43 534.43 0 0 0 102-49q46.5-29 80.5-64 34-36 57.5-68.5a343.64 343.64 0 0 0 38-66.5 368 368 0 0 0 22-70.5 605 605 0 0 0 10.5-79.5q-4-2-11.5-8.5a90.57 90.57 0 0 1 -15-17.5 121.73 121.73 0 0 1 -13-25.5 91 91 0 0 1 -5.5-32.5l3-24q-77-24-101-87-72 0-106-12-35-13-79-58l-32 18q-85 61-188 61-75 0-131.5-25t-86.5-70l-1-2q-20 3-35.5 5a218.21 218.21 0 0 1 -27.5 2 179.86 179.86 0 0 1 -69-14l-8 2-13 20q-15 28-28 48.5a308.52 308.52 0 0 1 -24 33.5q-21 26-74 52l1 15v17q0 89-72 112 7 128 75 222 68 95 200 152 133 56 283 56zm-766-799q0 72 38 113l41.5 46.5q16.5 18.5 25.5 46.5a110.85 110.85 0 0 0 25 48 85 85 0 0 0 20 16.5 44.59 44.59 0 0 0 23 6.5h7q5 0 4-19l-2-41-5-19q0-20 16-33.5t54-30.5l30-19q18-14 51-80l16-26q-19-19-19-43a53.89 53.89 0 0 1 5.5-23.5q5.5-11.5 16.5-11.5 13 0 37 17 22 14 52.5 22.5t70.5 8.5h14l15-1h9l9 1 11-3a106.11 106.11 0 0 1 16.5-44q13.5-21 39.5-21a52 52 0 0 1 19 3.5q9 3.5 17.5 7.5t17 7.5a48.18 48.18 0 0 0 18.5 3.5q13 0 29.5-11a64.43 64.43 0 0 1 36.5-11q14 0 14 20 0 24-16.5 36t-41.5 12l-64-8q-14 0-14 11 0 7 5 18.5t17 26.5q23 29 56 40t63 11q70 0 134-44 26-18 48-27.5t42-9.5q31 0 61 29 16 16 28.5 24.5a108.34 108.34 0 0 0 23.5 12.5 74.77 74.77 0 0 0 22.5 4.5q11.51.5 27.5.5 81 0 105-30a67.56 67.56 0 0 1 25-19q22 0 22 22 0 46-51 72 1 13 6.5 21a52.2 52.2 0 0 0 13.5 13.5 65.43 65.43 0 0 0 17.5 8.5q9.49 3 18.5 6l18 6q52 15 52 48 0 17-8 29a46 46 0 0 0 -8 26q0 7 7.5 13a25.82 25.82 0 0 0 16.5 6q28 0 52-41 26-40 26-73 0-23-6-51.5a273.64 273.64 0 0 1 -6-56.5q0-27 18-81a461.12 461.12 0 0 0 12-46.5q4-20.5 4-33.5a351.92 351.92 0 0 0 -6-65 285.4 285.4 0 0 0 -18-60 206.83 206.83 0 0 0 -29.5-49.5q-17.5-21.5-39.5-32.5a278.85 278.85 0 0 1 -31.5-17.5 216.82 216.82 0 0 1 -31.5-24.5 197.07 197.07 0 0 1 -28-33 200.31 200.31 0 0 1 -22-43q-16-32-28-54t-23-33q-77 54-201 84.5t-276 30.5a1313.52 1313.52 0 0 1 -152-8.5q-73-8.5-136.5-24.5t-115-38.5q-51.5-22.5-86.5-51.5-50 26-74.5 65t-36.5 102q-11 58-55 104l-31 32q-79 83-79 210zm1777 717q0 35-20.5 65.5a135.48 135.48 0 0 1 -52.5 46.5q-7 83-109 113-49 71-166 71-64 44-135 44a289.82 289.82 0 0 1 -41-3q-21-3-44-8-17 0-44.5 8.5t-63.5 8.5q-36 0-66.5-11a152.5 152.5 0 0 1 -53-32 146.07 146.07 0 0 1 -35-50.5q-12.5-29.5-12.5-66.5l3-28a613.39 613.39 0 0 1 -84 14q-42 4-87 4-39 0-82-4a819.53 819.53 0 0 1 -91-14l2 14v14q0 37-12.5 66.5a149.4 149.4 0 0 1 -34.5 50.5 147.4 147.4 0 0 1 -52.5 32q-30.5 11-66.5 11t-63.5-8.5q-27.5-8.5-44.5-8.5-23 5-44 8a289.82 289.82 0 0 1 -41 3q-74 0-135-44-117 0-166-71-91-18-109-113a130.1 130.1 0 0 1 -53-46.5q-20-30.5-20-65.5 0-47 36-91 18-21 46-39.5a323.3 323.3 0 0 1 63.5-32 382.59 382.59 0 0 1 77-20 347.42 347.42 0 0 1 85.5-2.5l86 7-16-56h-11q-39 0-85-24-47-23-68-64t-21-92q0-67 33-112-75-74-75-191 0-83 31-164 23-58 77-115 25-27 41-53.5a201.26 201.26 0 0 0 23-53.5 596.73 596.73 0 0 1 20-61 292.92 292.92 0 0 1 26.5-52 263.44 263.44 0 0 1 37.5-45.5q22-21.5 53-42.5-19-36-19-75 0-122 163-197 161-76 409-76t409 76q161 75 161 197 0 44-24 87 13 17 27.5 42.5t30.5 57.5q28 53 41 63l25 19q30 17 50.5 32.5t31.5 27.5q21 23 40 60a238.31 238.31 0 0 1 15.5 40.5q6.5 22.5 11.5 46.5t7.5 47.5a404.3 404.3 0 0 1 2.5 42.5 260.16 260.16 0 0 1 -4 43.5 413.39 413.39 0 0 1 -13 52.5q-8 26-12 42t-4 22a206.63 206.63 0 0 0 7 54q7 26 7 62v13l-2 12q23 44 23 98 0 89-54 134-28 23-58 35.5a142.55 142.55 0 0 1 -64 10.5l-21-2-17 58 86-7q66-5 121 11t99 42q88 53 88 132z"/></svg>