<svg viewBox="0 0 1990 1963" xmlns="http://www.w3.org/2000/svg"><path d="m1581 533q29 0 95-129 65-132 65-166 0-20-15-34.5t-37-14.5l-27 4-27 8q-45 14-90.5 31.5t-93.5 39.5l-15 7q-52 23-52 37t49 38q75 38 129 159 9 20 19 20zm-276 501q50 0 85-38 37-40 37-86 0-38-25.5-62.5t-62.5-24.5q-46 0-85 39-37 37-37 85 0 38 25 62.5t63 24.5zm-193 743q45 0 74-13t29-34q0-13-13-13l-13 4q-24 12-40.5 14a315.14 315.14 0 0 1 -37.5 2q-88 0-88-68 138-6 138-107 0-48-50-79-50-30-114-30a214.15 214.15 0 0 0 -61.5 8.5q-28.5 8.5-49.5 24.5a119.36 119.36 0 0 0 -33 38q-12 22-12 49 0 42 37 69.5t103 27.5q0 41-21.5 54t-63.5 13q-39 0-69-17l-17-3q-21 0-21 18 0 12 9.5 21a79 79 0 0 0 23.5 15 158.81 158.81 0 0 0 31.5 9.5 175.91 175.91 0 0 0 34.5 3.5q17 0 41.5-6t55.5-20l20-4a55.15 55.15 0 0 1 10 1.5q7 1.5 18 6.5a155.36 155.36 0 0 0 34.5 11q19.5 4 44.5 4zm-430-743q36 0 62-23.5t26-63.5a116.12 116.12 0 0 0 -9.5-45.5 133.47 133.47 0 0 0 -26-40 126.55 126.55 0 0 0 -39-28 111 111 0 0 0 -47.5-10.5q-38 0-62.5 25t-24.5 63q0 50 37 86 36 37 84 37zm-63-718q0-14-51-37l-16-7q-41-18-79.5-33.5t-70.5-26.5q-32-11-55.5-17t-33.5-6q-22 0-37 13.5t-15 35.5q0 9 5.5 25t15.5 39q16 39 34 78t39 77q44 76 67 76 11 0 20-20 52-119 128-159 49-24 49-38zm1371 904q0 13-8.5 27t-25.5 14a59.82 59.82 0 0 1 -23-5 261.92 261.92 0 0 1 -24-11.5q-12-6.49-22.5-12.5a109.92 109.92 0 0 0 -19.5-9l-22-3q-20 0-20 18 0 15 27 56 27 42 27 68 0 16-12.5 29.5t-36.5 13.5q-19 0-53-22t-54-22q-12 0-12 18a80 80 0 0 0 4 24.5q4 12.49 9 25t9 25a83 83 0 0 1 4 25.5q0 29-15 41t-26 12q-18 0-48-18-38-22-72-32t-63-10q-80 0-97 83l-13 62a140.47 140.47 0 0 1 -9 31q-6 14-13 28l-28 60q-21 44-38.5 75.5t-34.5 51.5q-34 39-93 58l-55 23a284.74 284.74 0 0 1 -45.5 13.5q-25.5 5.5-57.5 5.5-168 0-223-45-32-26-60-53t-53-55q-23-28-37-48t-17-34l-11-32q-37-69-47-131a113.76 113.76 0 0 0 -11-35.5 80.11 80.11 0 0 0 -22-26.5q-14-11-36.5-17t-54.5-6q-61 0-104.5 20.5a480.51 480.51 0 0 0 -83.5 50.5q-23 18-42 18-13 0-28-14t-15-46a121.56 121.56 0 0 1 4-30.5q4-15.49 9-31t9-30.5a112.28 112.28 0 0 0 4-29q0-14-5-23-32 11-59.5 23t-59.5 10l-19-1-2-17q-1-12 4-25.5a194.94 194.94 0 0 1 12.5-27 254.84 254.84 0 0 1 17-26.5q9.5-13 18.5-25 20-24 30-40t10-27l-1-9a431.88 431.88 0 0 1 -50.5-3 314.43 314.43 0 0 1 -52.5-11q-53-15-53-37 0-29 79-101 25-23 51.5-52.5t55.5-65.5q59-74 86-137t27-105q0-15-19-41-189-273-189-486 0-161 129-161 112 0 298 90l214 103q144-43 269-43a866.32 866.32 0 0 1 270 43l214-104q183-89 299-89 127 0 127 153 0 100-33.5 210.5t-115.5 224.5l-25 34q-24 34-37 61.5t-13 52.5q0 61 60 145l30 42 46 71q18 27 37.5 51a416.94 416.94 0 0 0 42.5 45q87 86 87 130z"/></svg>