<svg viewBox="0 0 1984 1788.62" xmlns="http://www.w3.org/2000/svg"><path d="m667 1392.59q0-47 32-90 32-44 69-44 18 0 18 18 0 10-9 19-24 21-37 47a196.63 196.63 0 0 0 -18 56q-8 52-29 52-26 0-26-58zm638 0q0 58-28 58-17 0-19-17-17-76-30-98a249.94 249.94 0 0 0 -14.5-20.5 212.2 212.2 0 0 0 -16.5-18.5q-11-8-11-20 0-18 19-18 14 0 31.5 10t32.5 28a171.3 171.3 0 0 1 25.5 42.5q10.5 24.51 10.5 53.5zm-321-115a135.21 135.21 0 0 1 -75-22q-34-22-34-47 0-20 21-20 8 0 15 7 36 37 73 37 39 0 76-37 7-7 15-7 20 0 20 20 0 12-9.5 24.5t-25.5 22a181.57 181.57 0 0 1 -35.5 16 127 127 0 0 1 -40.5 6.5zm-893-235q0 54 26 88.5t74 34.5l15-1q-7-38-11.5-74.5a407.23 407.23 0 0 1 -2.5-72.5l5-87q-106 17.01-106 112zm1673 119 28 3q48 0 74.5-34t26.5-88q0-53-30.5-82.5t-87.5-29.5l3 87q1 70.01-14 144zm-600 174a24.66 24.66 0 0 1 16.5 6.5q7.5 6.51 7.5 17.5 0 31-57 70-56 38-129 38-88 0-147-37-61-37-61-71 0-26 24-26l19 6a408.78 408.78 0 0 0 75.5 34.5 281 281 0 0 0 73.5 14.5 201.83 201.83 0 0 0 67-7.5q34-9.49 70-29.5a228.38 228.38 0 0 1 23.5-12 45.57 45.57 0 0 1 17.5-4zm173-420a84.82 84.82 0 0 1 37.5 8.5 98.38 98.38 0 0 1 30.5 23 110.55 110.55 0 0 1 28 74.5 114.59 114.59 0 0 1 -7.5 41.5 108.82 108.82 0 0 1 -20.5 34 98.07 98.07 0 0 1 -30.5 23 87 87 0 0 1 -75 0 104.22 104.22 0 0 1 -52-57 114.59 114.59 0 0 1 -7.5-41.5 110.7 110.7 0 0 1 7.5-41 105.62 105.62 0 0 1 21-33.5 104.47 104.47 0 0 1 31-23 84.82 84.82 0 0 1 37.5-8.5zm-610 106a114.59 114.59 0 0 1 -7.5 41.5 108.82 108.82 0 0 1 -20.5 34 96.4 96.4 0 0 1 -31 23 87.88 87.88 0 0 1 -38 8.5 84.68 84.68 0 0 1 -37.5-8.5 98.07 98.07 0 0 1 -30.5-23 108.82 108.82 0 0 1 -20.5-34 114.59 114.59 0 0 1 -7.5-41.5 110.55 110.55 0 0 1 28-74.5 98.38 98.38 0 0 1 30.5-23 84.82 84.82 0 0 1 37.5-8.5 88 88 0 0 1 38 8.5 96.69 96.69 0 0 1 31 23 110.55 110.55 0 0 1 28 74.5zm237-926h-19a788.18 788.18 0 0 0 -168.5 18 916.54 916.54 0 0 0 -164.5 53q-80 36-144.5 81.5t-109.5 104a451.84 451.84 0 0 0 -69.5 130q-24.5 71.51-24.5 159.5 0 89 6 108 155-202 461-269 182-40 323.5-83.5t237.5-97.5q21-11 33.5-17t29.5-6q67 0 90 63 69 177 131.5 299.5t119.5 194.5a676.26 676.26 0 0 0 16.5-84.5 657.16 657.16 0 0 0 5.5-84.5q-1-65-11.5-115.5t-27.5-87.5q-36-78-99.5-142.5t-157.5-117.5q-186-106-396-106h-18l-18 2h-10zm16 1597q103 2 196-21t172.5-66a645.51 645.51 0 0 0 250.5-241q44-75 65.5-162.5t17.5-182.5l-3-62q-35-31-72-81t-75-119q-39-69-68-128.5t-49.5-108q-20.51-48.5-35-85.5t-24.5-62q-69 47-219 96.5t-384 103.5q-340 78-457 318l-7 128a572.48 572.48 0 0 0 9.5 141.5 622.57 622.57 0 0 0 41.5 133 684 684 0 0 0 68.5 120.5 663.84 663.84 0 0 0 91.5 104q101 95 231 134a840.44 840.44 0 0 0 127.5 29 1120.72 1120.72 0 0 0 122.5 11zm1004-649q0 61-27 107-27 47-83 74-59 27-103 27l-27-2q-38 129-112 232.5a708.19 708.19 0 0 1 -178 174.5 724.92 724.92 0 0 1 -109 60.5 663.19 663.19 0 0 1 -122 40.5 974.78 974.78 0 0 1 -124.5 23q-60.49 7-118.5 8-131 1-251.5-34t-220-103.5q-99.5-68.49-172.5-169t-109-231.5l-17 1q-21 2-46.5-5.5a359.32 359.32 0 0 1 -54.5-21.5q-58-27-83.5-75t-25.5-107q0-87 47.5-140.5t139.5-66.5q-21-102-21-188 0-200 104-340 53-70 126-125.5t167-97.5a1094.73 1094.73 0 0 1 189-65 696 696 0 0 1 193-19l39 1 42-1a721.61 721.61 0 0 1 199 19.5q97 23.51 192 68.5 190 90 293 234t103 337a816.17 816.17 0 0 1 -4.5 85 765.62 765.62 0 0 1 -15.5 91q95 8 143 65.5t48 142.5z"/></svg>