<svg viewBox="0 0 2452 1693" xmlns="http://www.w3.org/2000/svg"><path d="m1874 883q0 15 15 26.5t42 20q27 8.5 63.5 13a642.87 642.87 0 0 0 78.5 4.5q110 0 110-70 0-40-30-59t-70-19q-55 0-133 30-76 30-76 54zm148 489q23 0 34-17.5t11-40.5q0-52-56-92-54-38-128-38-41 0-41 38 0 47 63 99 64 51 117 51zm6-984q-60 0-127 49-66 47-66 102 0 28 36 28 39 0 131-39 93-39 93-83 0-22-17.5-39.5t-49.5-17.5zm-1723 452q32 0 52-26t20-60q0-34-22.5-58t-52.5-24q-36 0-56.5 26.5t-20.5 62.5q0 36 25 57.5t55 21.5zm2147-5a201 201 0 0 1 -3 35l-6 34s-1.83 11.33-5.5 34-4.17 34.33-1.5 35l7 134q3 67-23 143t-74 164q-12 21-22.5 55.5t-20.5 80.5q-29 143-183 143-91 0-224-50a755 755 0 0 1 -127.5-60.5q-61.5-36.5-118.5-89.5t-109.5-124.5q-52.5-71.5-100.5-167.5l-27-54q-32-63-60.5-94.5t-57.5-31.5q-15 0-41 7t-62 23q66 39 66 99 0 25-8 42.5t-20.5 28a75 75 0 0 1 -29.5 15 136.18 136.18 0 0 1 -35 4.5q-55 0-113-30-60-31-88-70-45 9-78.5 15t-55.5 10q33 39 33 101 0 73-27.5 113.5t-78.5 40.5q-58 0-109-58-26-30-39-61a270.17 270.17 0 0 1 -18-63l-13-78q-119-17-221.5-57.5t-187.5-104.5q-86-65-127.5-131.5t-41.5-135.5q0-64 87-112l40-22q49-27 96-49.5a763.2 763.2 0 0 1 97-38.5l52-16q38-12 83-22.5t100-14.5a464.47 464.47 0 0 1 30.5-115q22.5-55 62.5-107a613.15 613.15 0 0 1 92-94q51-42 116-74t116.5-49q51.5-17 90.5-17a179.69 179.69 0 0 1 46.5 6 205.44 205.44 0 0 1 41 15.5 110.44 110.44 0 0 1 31 23q12.5 13.5 17.5 28.5 10 33 39 66 72 84 72 127a97.82 97.82 0 0 1 -7.5 38q-7.5 18-7.5 40 0 13 7 27 27 50 27 111 0 67-69 103l12 1q14 0 32-12.5t43-36.5q51-49 113-101t135-110q145-115 251-157a587.4 587.4 0 0 1 221-43q83 0 172 43 87 42 138 110t51 154a537.62 537.62 0 0 1 -7.5 89.5 514.69 514.69 0 0 0 -7.5 85.5q0 50 12 93 27 101 27 134z"/></svg>