<svg viewBox="0 0 1994 2014" xmlns="http://www.w3.org/2000/svg"><path d="m1517 1294q-27 0-43 13 0 39 6 69l5 54q51 13 81 49l20-20 17-16a596.63 596.63 0 0 0 -45-80q-15-22-25.5-38.5t-15.5-30.5zm-486 320-13-72-139 8-68-4-1 71q42 20 68 52t37 74q22-80 116-129zm-457-603a547.41 547.41 0 0 0 90-7 372.91 372.91 0 0 0 79-22q37-15 56-34.5t17-43.5l-4-57a291.33 291.33 0 0 1 10.5-102.5q14.5-51.5 34.5-105.5l18-48-9-3h-14l-48 2 4 26a76 76 0 0 1 -5.5 28 79.56 79.56 0 0 1 -15 24.5 75.52 75.52 0 0 1 -22.5 17 61.8 61.8 0 0 1 -28 6.5q-28 0-45.5-20t-17.5-49a82.77 82.77 0 0 1 10-39q-19 0-58.5-5.5t-101.5-16.5a74.75 74.75 0 0 1 -5.5 28.5 87.09 87.09 0 0 1 -14.5 24 73.62 73.62 0 0 1 -21 17 53.78 53.78 0 0 1 -26 6.5q-25 0-43-18.5t-18-46.5q0-19 13-39l-22-14h-10q-6 2-12 15-3 6-9.5 26.5t-17.5 54.5q-22 65-28 123 38-22 69-22 51 0 95 29 44 27 44 68 0 38-32.5 60t-80.5 22a167.19 167.19 0 0 1 -70-15q33 61 95.5 95.5t143.5 34.5zm1300-421q49 0 85 39 35 40 35 83a82.45 82.45 0 0 1 -7.5 34.5 106.6 106.6 0 0 1 -20.5 30 97.46 97.46 0 0 1 -31 21.5 95 95 0 0 1 -39 8l-13-1q-14 38-30.5 66.5a381.59 381.59 0 0 1 -34.5 50.5 326 326 0 0 1 -20 228.5q-32 67.5-94 108.5 6 18 21 78 7 29 11.5 51t6.5 36q59 20 93.5 59t34.5 90a147.82 147.82 0 0 1 -3 29 140.62 140.62 0 0 1 -11 32q-13 32-45 54-17 11-28.5 18t-19.5 8q-26 73-79 73-45 0-45-32 0-10 15-30-62-10-89-38-37 27-53 34-5 12-11 25.5a119.63 119.63 0 0 1 -14 24 67.68 67.68 0 0 1 -20 17.5q-12 7-28 7-41 0-41-33 0-16 14-30-40-6-63-20a80.31 80.31 0 0 1 -20.5-19.5 134.66 134.66 0 0 1 -16.5-29 198.25 198.25 0 0 1 -11-34.5 165.29 165.29 0 0 1 -4-36q0-76 62-137l-13-28q-29 23-67.5 41t-86.5 33l-56 18 12 85q65 14 103 66t38 134q0 88-106 121-24 88-94 88-48 0-51-48c0-.67.83-3.33 2.5-8s4.17-10.67 7.5-18q-112-12-134-108-8 54-40.5 78t-85.5 29q-33 73-92 73-57 0-57-47 0-20 14-35-115-34-115-141 0-73 43-119t109-62v-83q-79-15-137.5-45t-97.5-72q-39-42-58-94t-19-110l9-73q0-5-12-5l-30 4-36 6q-67 0-119-22.5t-94-65.5l-33-34q-64-67-64-151 0-138 152-290 76-76 76-84 0-16-9-26-35-41-35-115 0-160 141-253 143-95 305-95a1051.67 1051.67 0 0 1 163.5 12.5q79.5 12.5 140.5 38.5 60 25 138 89 38 32 69.5 62.5a396.82 396.82 0 0 1 54.5 65 383.73 383.73 0 0 1 38.5 74.5q15.49 40 22.5 89a726.73 726.73 0 0 1 -9 114.5 726.73 726.73 0 0 0 -9 114.5q0 106 41 218 25 69 25 96 0 93-78 160-76 67-186 67-153 0-210-173-3-10-5-10-4 0-4 8 0 125 58.5 195.5t168.5 70.5q140 0 233-87 93-88 93-220v-20l-2-20-19-78q-11-43-22-74.5t-16-53.5q-5-22-8-41.5a173.25 173.25 0 0 1 -2-36.5l7-99q47 4 96 29t85 59l46 60q14 17 23 26.5t17 9.5h23a186.12 186.12 0 0 1 53 8 253.67 253.67 0 0 1 52 22 213.36 213.36 0 0 1 45 33.5 189.79 189.79 0 0 1 33 42.5q16-15 22-31.5a167.12 167.12 0 0 1 17-33.5q-63-31-63-86a107 107 0 0 1 9-43.5 110.85 110.85 0 0 1 24.5-35.5 114 114 0 0 1 36-23.5 109.86 109.86 0 0 1 42.5-8.5z"/></svg>