<svg viewBox="0 0 1844 1782" xmlns="http://www.w3.org/2000/svg"><path d="m1209 654a65.11 65.11 0 0 1 31 8 81.81 81.81 0 0 1 26 22 120.32 120.32 0 0 1 18 33 117.61 117.61 0 0 1 7 41q0 34-18 59.5t-50 25.5q-14 0-28.5-8a100.16 100.16 0 0 1 -26.5-21.5 108.08 108.08 0 0 1 -19.5-32.5q-7.5-19-7.5-42 0-36 19.5-60.5t48.5-24.5zm-56-421 108 38v-8l6-97q3-68-25-68-12 0-26 17-7 9-23 38t-40 80zm-569 512v13q0 36 18.5 62.5t50.5 26.5a60.64 60.64 0 0 0 29-7.5 82.47 82.47 0 0 0 25-21 114.58 114.58 0 0 0 25-72.5q0-36-18.5-62.5t-50.5-26.5q-16-2-30.5 8a102.56 102.56 0 0 0 -25 24.5 150.11 150.11 0 0 0 -17 30q-6.5 15.5-6.5 25.5zm-20-571 6 99a160.72 160.72 0 0 1 48.5-24q26.5-8 55.5-17-18-37-30-61.5t-21-39.5q-9-15-16.5-21.5a24.66 24.66 0 0 0 -16.5-6.5q-14 0-21.5 17.5t-4.5 53.5zm131 1127q-36 0-55 29t-19 71q0 89 93 149 93 62 222 62 127 0 212-56 83-56 83-141 0-43-27-81-28-37-54-37-11 0-21.5 9t-10.5 20q0 16 8.5 33.5t10.5 49.5q1 25-16 50t-46 44.5q-29 19.5-67.5 31.5a252.29 252.29 0 0 1 -81.5 11q-49-1-89-12.5t-69-31.5q-29-20-45-48.5t-16-63.5q0-24 18-56 0-3-2.5-8.5a63.31 63.31 0 0 0 -6.5-11 42.81 42.81 0 0 0 -9.5-9.5 19.26 19.26 0 0 0 -11.5-4zm1051-933q0-37-26.5-58t-77.5-21h-20l-17 3a163 163 0 0 0 -63.5 23.5q-29.5 18.5-60.5 38.5a494.36 494.36 0 0 1 -65.5 35.5q-34.5 15.5-78.5 15.5-35 0-54-11-169-94-391-94 82 95 82 245 0 126-53 230-54 100-132 139-25 13-67.5 23.5t-105.5 20.5q-68 10-121 38a484 484 0 0 0 -52.5 34.5q-27.5 20.5-59.5 49.5a477.27 477.27 0 0 0 -22.5 50.5 547.24 547.24 0 0 0 -18 56 500.13 500.13 0 0 0 -11.5 56.5 368.8 368.8 0 0 0 -4 52q0 148 131 249 133 101 359 128-118-27-193-104-77-75-77-169a201.31 201.31 0 0 1 4-38.5q4-20.51 11-44.5-50-9-50-43 0-26 29-42t79-16q42 0 78 13a83.63 83.63 0 0 1 36 8.5 115.46 115.46 0 0 1 32.5 23 111.11 111.11 0 0 1 23 33.5 96.82 96.82 0 0 1 8.5 40q0 22-13 45l-4 5-1 7a54.4 54.4 0 0 0 11.5 34q11.5 15 31 25.5t46.5 16.5a262.17 262.17 0 0 0 57 6q47 0 82-13t55-45q-37-19-37-73a103.07 103.07 0 0 1 12.5-50 124.42 124.42 0 0 1 35-40q22.5-17 53.5-26.5t67-9.5q51 0 81 16.5t30 39.5q0 23-29 37 16 28 23 54a199.13 199.13 0 0 1 7 52q0 111-98 188-96 75-245 81h29q224 0 366-101 144-102 144-253 0-81-41-199a865.94 865.94 0 0 1 -28-107q-11-56-8-121l5-85 9-154a146.55 146.55 0 0 0 -2.5-43.5q-4.5-21.5-8.5-43.5l-3-15q0-58 148-72 90-8 131.5-37t41.5-84zm-104-177q43 0 80 11.5t64 33.5q27 22 42.5 55.5t15.5 76.5q0 84-47.5 137.5t-145.5 70.5l-119 21 6 67v16l-2 18q-5 73-9 124.5t-4 80.5q0 58 8 106.5a558 558 0 0 0 22 89.5q25 69 36.5 127t11.5 103q0 191-173 323-171 130-443 130-334 0-545-133-210-133-210-354a442.17 442.17 0 0 1 6.5-77.5 531.7 531.7 0 0 1 17.5-70.5q52-152 63-216 6-31 10-63a419.74 419.74 0 0 0 3-65l-2-46q-2-51 .5-90t5.5-66l-140-25q-99-17-146.5-70.5t-47.5-137.5q0-81 53-129t149-48q49 0 85.5 14a416.46 416.46 0 0 1 67 32.5q30.5 18.5 58.5 37a236.35 236.35 0 0 0 60 28.5q-3-41-5-72.5t-2-54.5q0-170 124-170 48 0 86 38 37 39 97 167a567.74 567.74 0 0 1 62.5-7q33.5-2 72.5-2a880.8 880.8 0 0 1 147 12l39-86q30-65 68-96.5t80-31.5q61 0 93 42t29 125l-6 138a210.25 210.25 0 0 0 62.5-26.5q29.51-18.5 62.5-38a500.71 500.71 0 0 1 71-34.5q38-15 88-15z"/></svg>