<svg viewBox="0 0 2280 2265" xmlns="http://www.w3.org/2000/svg"><path d="m1691 1170q0-27-81-45-149-34-149-137 0-32 23-89a439.78 439.78 0 0 0 16.5-44.5q5.5-18.5 5.5-27.5 0-19-15-19-17 0-30 13-22 22-88 56-63 33-113 33a135.4 135.4 0 0 1 -81.5-26.5q-36.5-26.5-56.5-82.5l-11-30q-13-34-25-51.5t-27-17.5q-26 0-36 58l-11 63q-12 69-41 101.5t-86 32.5a186 186 0 0 1 -36.5-3.5q-17.5-3.5-35.5-8t-36.5-8.5a186.41 186.41 0 0 0 -39.5-4 61.8 61.8 0 0 0 -28 6.5q-13 6.5-13 17.5 0 25 62 78 38 32 61 55t32 36q17 26 17 61 0 30-19 68-18 38-89 126-37 37-37 63 0 24 39 24 19 0 42-6 55-17 94.5-26.5t64.5-9.5q37 0 66 18 28 17 49 90 8 29 17 49.5t29 20.5q19 0 29-17l34-53q35-54 70.5-81t77.5-27q59 0 142 49 70 41 103 41 19 0 19-20a30.64 30.64 0 0 0 -8-21q-43-47-69.5-77t-36.5-46q-19-32-19-59a64.91 64.91 0 0 1 10.5-35.5q10.5-16.5 30-29.5t46.5-21q27-8 60-10 78-3 78-27zm589 190q0 19-32.5 27t-98.5 10l-107 3q-26 1-52.5 4t-52.5 8l-29 6q-67 12-67 49 0 31 29 69.5t85 87.5l49 44 160 146q41 38 63.5 61.5t22.5 40.5q0 26-42 26-50 0-153-43-59-24-143-52.5t-193-64.5q-62-21-87-21-42 0-70 37-29 39-44 107-13 67-15 89-3 83-39 83-28 0-70-48l-70-76q-17-18-34-37.5t-36-39.5q-19-20-31.5-31.5t-21.5-17q-9-5.51-16.5-6.5a116.68 116.68 0 0 0 -15.5-1q-35 0-64 28.5t-56 84.5l-115 237q-23 46-43 70.5t-44 24.5q-28 0-41.5-45.5t-19.5-136.5l-9-162q-3-52-7-86.5t-15-50.5a69.34 69.34 0 0 0 -28-24q-17-8-43-8a171.18 171.18 0 0 0 -26 2 264.7 264.7 0 0 0 -28 6q-26 6-90 24-32 10-132 36t-271 71q-29 8-50 8-35 0-35-26 0-41 96-127 20-17 57.5-55.5t95.5-99.5q57-60 91.5-101t47.5-61q26-40 26-70 0-57-86-64l-71-7q-87-8-129.5-23t-42.5-43q0-10 8.5-21a125.52 125.52 0 0 1 21-21 272.91 272.91 0 0 1 28-19.5q15.5-9.5 29.5-16.5l49-24q52-26 78-53.5t26-60.5q0-38-28-82-15-23-49.5-61.5t-91.5-94.5q-42-41-70-72t-47-53l-23-27q-33-39-50.5-65.5t-17.5-43.5q0-18 14-28.5a50.47 50.47 0 0 1 31-10.5l11 2 331 116a406.54 406.54 0 0 1 48.5 19q23.5 11 51.5 11 29 0 27-29l-4-58q-2-29 6.5-43.5t23.5-14.5q17 0 38 15l80 52a106.19 106.19 0 0 0 19.5 11 49.71 49.71 0 0 0 19.5 4q41 0 41-61a341.88 341.88 0 0 0 -2.5-41.5 334.11 334.11 0 0 0 -7.5-40.5l-20-81-13-90-13-92q-7-30-11-54.5a278 278 0 0 1 -4-44.5q0-48 28-48 20 0 37 17a434.61 434.61 0 0 1 30 33l243 299q38 47 70.5 71t61.5 24q52 0 110-73 58-71 102-176 34-84 80-84 20 0 31 16.5t9 48.5l-7 139q-3 62 11 92.5t37 30.5q30 0 78-42l161-141q35-30 68.5-59t68.5-57q35-28 55.5-44t28.5-19q16-7 30-7 33 0 33 31t-70 169q-61 118-98 192.5t-51 108.5q-26 62-26 78 0 20 32.5 29.5t97.5 11.5l80 2q67 3 67 37a39.58 39.58 0 0 1 -6.5 22 81.5 81.5 0 0 1 -16 18 135.07 135.07 0 0 1 -20 14q-10.5 6-19.5 12-92 58-92 105 0 26 22 39.5t76 18.5q14 1 45.5 8t80.5 19q98 24 95 45 0 16-30.5 30t-88.5 37l-67 26q-22 8-42.5 17a299.55 299.55 0 0 0 -36 18.5q-15.49 9.49-25 19t-9.5 18.5q0 35 80 54l87 22q71 18 126 43 56 24 56 46z"/></svg>