<svg viewBox="0 0 2186.05 2099" xmlns="http://www.w3.org/2000/svg"><path d="m2087 1681q0 41-15.5 74.5a167.47 167.47 0 0 1 -43.5 57.5q-28 24-66.5 37t-83.5 13a324 324 0 0 1 -57-5q-28-5-56-11t-56.5-10.5a301 301 0 0 0 -57.5-3.5l-51 1q-24 0-24-23v-17q0-47-15-134-8-42-12.5-75.5t-4.5-56.5q0-88 52-148 54-60 128-60 53 0 98 43 22 22 35.5 44.5a120 120 0 0 1 16.5 48.5q7 60 30 66 18 5 36.5 9t36 9.5a197.38 197.38 0 0 1 33.5 14 115 115 0 0 1 30 23.5l6 6q41 40 41 97zm-760 35a452.94 452.94 0 0 1 -4 60q-4 30-8.5 60t-8 60a328.86 328.86 0 0 0 -1.5 60l4 70q1 21-27 21h-15l-41 3-69 11q-60 10-96.5 20t-52.5 13q-14 2-28.5 3.5a277 277 0 0 1 -28.5 1.5q-100 0-166-57-66-58-66-144a136.41 136.41 0 0 1 12.5-58q12.5-27 35.5-51a310.22 310.22 0 0 1 47-39 135.76 135.76 0 0 1 52-21q40-8 55.5-15.5t18.5-23.5q9-51 17-80.5t14-40.5a144.45 144.45 0 0 1 14-21l16-20q48-54 118-54 85 0 146 67 62 68 62 175zm-610-182q0 23-39 26-63 6-147 40-108 44-167 63a335.76 335.76 0 0 1 -55.5 12.5 401.26 401.26 0 0 1 -52.5 3.5q-112 0-184-68-72-69-72-159 0-53 40-113a184.15 184.15 0 0 1 33.5-39 275.63 275.63 0 0 1 39.5-28.5 391.1 391.1 0 0 1 44-22.5q23-10 47-21 20-9 20-49v-33q0-93 55-164 56-73 152-73 76 0 145 51 34 25 56.5 56.5t35.5 72.5q13 41 18.5 92.5t5.5 117.5v48a579.93 579.93 0 0 0 5 78.5 471.9 471.9 0 0 0 14 67.5 148.89 148.89 0 0 1 6 41zm1469-641q-2 54-21 98.5t-61 79.5q-82 68-205 68a494.87 494.87 0 0 1 -70-5q-35-5-71-10.5t-72-9.5a433.25 433.25 0 0 0 -72-2l-83 4q-28 2-28-36v-16q0-68-34-211-24-102-24-161 0-123 69-199 72-78 170-78 70 0 131 58 60 56 77 130l11 49a28.58 28.58 0 0 0 5 13.5q4 5.5 14 10t27 7.5q17 3 44 5 32 2 67 21a275 275 0 0 1 63.5 47.5 237.5 237.5 0 0 1 46 64.5q17.5 36 16.5 72zm-1858-404q0-121 78-193a306.61 306.61 0 0 1 90.5-56.5q50.5-20.5 113.5-15.5l52 4 52 8a42.85 42.85 0 0 0 18.5-4q8.5-4 18-13.5t20.5-27q11-17.5 25-44.5 30-54 96-101 67-46 139-46 70 0 139 45 66 45 98.5 111t32.5 143a397 397 0 0 1 -7 74 507.91 507.91 0 0 1 -20 74q-14 37-41 90t-69 125q-17 29-31 58a498.34 498.34 0 0 0 -24 59l-20 66q-7 21-14.5 32.5t-19.5 11.5a44.43 44.43 0 0 1 -14-2q-6-2-14-5l-24-10a599.53 599.53 0 0 0 -99-28.5q-49-9.5-97-14.5-75-8-134-19t-104-26q-45-15-78-33.5t-57-40.5a340.18 340.18 0 0 1 -77.5-104.5q-28.5-59.5-28.5-116.5z"/></svg>