<svg viewBox="0 0 2082.03 1648" xmlns="http://www.w3.org/2000/svg"><path d="m769 464 190-235h-190zm-474-235 192 235v-235zm741 595h125q32 0 55 22.5t23 55.5v668a75.32 75.32 0 0 1 -6 30 77.45 77.45 0 0 1 -16.5 24.5 82.81 82.81 0 0 1 -25 17 73.75 73.75 0 0 1 -30.5 6.5h-125a73.82 73.82 0 0 1 -30.5-6.5 82.93 82.93 0 0 1 -25-17 77.45 77.45 0 0 1 -16.5-24.5 75.32 75.32 0 0 1 -6-30v-668q0-33 23-55.5t55-22.5zm421-357h126q33 0 55.5 22.5t22.5 54.5v1026q0 32-22.5 55t-55.5 23h-126q-32 0-55-23t-23-55v-1026a70.4 70.4 0 0 1 6.5-30 85 85 0 0 1 17-24.5 77.45 77.45 0 0 1 24.5-16.5 75.39 75.39 0 0 1 30-6zm423-467h125q32 0 54.5 23t22.5 55v1492a75.32 75.32 0 0 1 -6 30 77.45 77.45 0 0 1 -16.5 24.5 84.68 84.68 0 0 1 -24.5 17 70.4 70.4 0 0 1 -30 6.5h-125q-33 0-56.5-23t-23.5-55v-1492q0-32 23.5-55t56.5-23zm-1817 0h1129q26 0 45 18.5t19 44.5v103l-2 10v9q0 44-27 77l-458 565v743q0 32-23 55t-55 23h-126q-32 0-55-23t-23-55v-743l-458-565q-30-38-29-75l1-31v-93q0-26 18-44.5t44-18.5z"/></svg>