<svg viewBox="0 0 2262 1872" xmlns="http://www.w3.org/2000/svg"><path d="m1740 100 417 417q-22-145-137-273-114-129-280-144zm424 534-532-534q-34 3-68 9a626.34 626.34 0 0 0 -68 16l650 648q8-23 12-58t6-81zm-1033 1139 19-15-1045-1045 8 48q16 97 114.5 227t286.5 293q59 51 233 165 76 51 134 95t98 82l78 75 36 40q11 12 20 21.5t18 13.5zm186-1561 748 749q17-26 30.5-52t24.5-52l-703-703q-46 20-100 58zm-172 95 804 804a733.63 733.63 0 0 0 73-85l-769-769a151.54 151.54 0 0 0 -20.5 15 154.84 154.84 0 0 1 -23.5 16.5 172.51 172.51 0 0 1 -28.5 13q-15.5 5.5-35.5 5.5zm-470-203 1132 1133q56-44 86-71l-963-965q-51-34-114-58.5t-141-38.5zm563 1565 45-45-1166-1165q-6 23-11 57t-8 82l1104 1103zm-814-1548 1228 1228 93-66-1186-1184q-73 0-135 22zm-275 260 1193 1192 87-71-1220-1220q-32 44-60 99zm111-158 1232 1234 95-64-1238-1238a430.65 430.65 0 0 0 -89 68zm1428-223q78 0 149.5 20.5t138.5 61.5q133 81 210 225 76 143 76 308a813.05 813.05 0 0 1 -8.5 120 689.06 689.06 0 0 1 -26 111 747.79 747.79 0 0 1 -44 106.5 932.1 932.1 0 0 1 -63.5 106.5 895.87 895.87 0 0 1 -83 103.5 1313.63 1313.63 0 0 1 -100 96.5q-55 46-152 115.5t-238 164.5q-53 36-102.5 74.5a1227.61 1227.61 0 0 0 -94.5 81.5l-78 74-25 27q-31 35-59 55.5t-54 20.5h-6q-29 0-58-21t-59-59q-14-17-43-45t-74-68q-44-41-88.5-75t-90.5-65q-139-93-234.5-162t-152.5-117a988 988 0 0 1 -102.5-97 1002.25 1002.25 0 0 1 -83.5-105q-38-55-64.5-107.5a758.21 758.21 0 0 1 -44-106 642.48 642.48 0 0 1 -25.5-110 853.24 853.24 0 0 1 -8-119.5q0-165 80-311 40-73 93.5-130t116.5-95.5a534.52 534.52 0 0 1 280-78.5 874 874 0 0 1 135 10 692.92 692.92 0 0 1 241.5 85 942 942 0 0 1 114.5 78q53 41 70 41 16 0 129-84 39-29 88-53a717.74 717.74 0 0 1 104-41 830.86 830.86 0 0 1 114.5-26.5 769.91 769.91 0 0 1 121.5-9.5z"/></svg>