<svg viewBox="0 0 1454 2328" xmlns="http://www.w3.org/2000/svg"><path d="m796 254h-68l-367 3q0 38 1.5 62t6 38.5q4.5 14.5 12 20t20.5 5.5l331-6q87-2 162 1t140 9l30 3q28 0 34-17 4-8 5-22t2-34q3-39 3-53-43-5-120.5-7.5t-191.5-2.5zm-666 907-1 17a168.76 168.76 0 0 0 2 45 152.47 152.47 0 0 0 12.5 39.5q8.5 17.51 20 28.5t23.5 11q19 0 33-27 13-26 33-26 15 0 15 15a109.81 109.81 0 0 1 -5.5 34q-5.5 17-5.5 38a165.23 165.23 0 0 0 6.5 47 139.48 139.48 0 0 0 18 39 90.05 90.05 0 0 0 28 27 69 69 0 0 0 36.5 10q22 0 32-12a134.38 134.38 0 0 0 17-26 243.06 243.06 0 0 1 15-26q8-12 26-12 24 0 24 37 0 71 32.5 113.5t87.5 42.5q79 0 97-80 10-42 34-42 9 0 16 11.5t12.5 32a321.74 321.74 0 0 1 8.5 47.5q3 27 4 57l19 469q1 32 10 55.5t23 38.5a93 93 0 0 0 31.5 22.5 89.38 89.38 0 0 0 35.5 7.5q65 0 88-47 23-49 26-177l14-626q1-49 3.5-92a761.19 761.19 0 0 1 9.5-84q15-79 37-79 20 0 23 19 4 10 5.5 36t3.5 71a363.74 363.74 0 0 0 2.5 41q2.51 22 6.5 44.5a412.3 412.3 0 0 0 10.5 44.5 326 326 0 0 0 14.5 40q16 36 37 60t63 24q40 0 68.5-25t28.5-66a145.27 145.27 0 0 0 -5-37q-5-19-11.5-38.5l-12.5-37.5s-2.33-11.67-7-35l-9-112q-5-51-15-92.5a380.54 380.54 0 0 0 -27.5-77.5 351.1 351.1 0 0 0 -43.5-68q-26-32-63-63-45-38-75-66t-47-49a431.61 431.61 0 0 1 -56-86q-22-45-17-97l3-32-185-5q-85-3-141-.5t-86 4.5q-7 57-33 98.5t-80 84.5q-121 97-190 219.5t-81 271.5zm-130 24q0-35 6-78.5t20-95.5q26-103 92.5-203t172.5-202q11-10 20.5-20a182.35 182.35 0 0 0 17.5-21.5 132.48 132.48 0 0 0 14-26.5 250.36 250.36 0 0 0 11-37q-50 0-67-20-8-10-13.5-31.5a399.63 399.63 0 0 1 -9-50q-3.5-28.5-5-61.5t-1.5-66q-75 0-97-22-24-24-30-98-3-39-4-69t-1-52v-31h1184l2 37v78q0 134-22 156-17 15-68 15 0 12-2 31.5t-5 47.5q-3 28-8 52t-10 45q-11 44-55 41l-59-4q22 122 102 189 113 96 157 183 22 44 35 100.5t25 126.5l18 103 14 68a353.92 353.92 0 0 1 20 118q0 54-14.5 97.5t-42 74a185.75 185.75 0 0 1 -66.5 47q-39 16.5-88 16.5-24 0-42.5-5a189.59 189.59 0 0 1 -33-12 198.52 198.52 0 0 1 -25.5-14.5q-11-7.5-19-13.5l1 148q2 140-3 235.5t-13 151.5q-16 112-82.5 164t-169.5 52q-90 0-154-64a233 233 0 0 1 -37.5-49q-15.5-27-26-64t-16.5-85.5q-6-48.49-9-113.5-12-251-15-259l-28 3a152.55 152.55 0 0 1 -61-12.5 246.06 246.06 0 0 1 -52.5-30.5 226.84 226.84 0 0 1 -39.5-38q-16-20-20-35l-21 5-41 4q-45 0-67-16-53-36-78-72.5t-30-86.5q-82-20-121-75t-39-154z"/></svg>