<svg viewBox="0 0 1608 2223" xmlns="http://www.w3.org/2000/svg"><path d="m525 1220q40 0 64.5-29.5t24.5-70.5a120.35 120.35 0 0 0 -9-46 124.48 124.48 0 0 0 -24.5-38.5 122.86 122.86 0 0 0 -36-26.5 95.78 95.78 0 0 0 -42.5-10 78.48 78.48 0 0 0 -36.5 8.5 85.39 85.39 0 0 0 -27.5 22 99.89 99.89 0 0 0 -17 31 111.76 111.76 0 0 0 -6 36.5 126.69 126.69 0 0 0 9 47.5 128 128 0 0 0 24 39 118.63 118.63 0 0 0 35 26.5 92.66 92.66 0 0 0 42 10zm1083-165q0 243-130 454-65 106-150 182t-193 127q-109 52-109 130a442.18 442.18 0 0 0 7.5 78.5 457.7 457.7 0 0 1 7.5 81.5 202.55 202.55 0 0 1 -4.5 43.5 173.66 173.66 0 0 1 -12 36.5q-7.5 16-18.5 25.5t-23 9.5q-22 0-55-27-15-14-30.5-36.5t-31.5-56.5q-33-69-33-98 0-32-11.5-46t-39.5-14l-93 11q-179 0-179-53 0-46 64-73a363.41 363.41 0 0 1 68.5-20 405.21 405.21 0 0 1 76.5-7q26 0 56.5 7a261.25 261.25 0 0 0 58.5 7q76 0 138-55 64-55 107-159 44-105 44-186 0-54-23.5-85.5t-65.5-31.5q-20 0-74 15-6 23-6 53a334 334 0 0 0 4.5 55q4.5 27 9.5 52.5t9.5 50.5a276.31 276.31 0 0 1 4.5 49q0 53-48 56-26 1-61-16t-69-51.5q-34-34.5-61.5-87t-39.5-124.5l-2-9q-163 10-255 74-92 63-173 170-26 35-48 57.5t-41.5 36q-19.5 13.5-38 19a130.79 130.79 0 0 1 -37.5 5.5q-100 0-100-126a429.65 429.65 0 0 1 5-62q5-34 14-76 18-82 18-137 0-64-22-167-11-53-17-93t-6-70q0-172 110-339a788.1 788.1 0 0 1 129.5-150q73.5-66 167.5-114 187-97 398-97h36q60-83 152-144 93-62 205-96 114-34 198-34 156 0 156 97a113.24 113.24 0 0 1 -13 53q-27 49-49 95t-39 92.5a845.07 845.07 0 0 0 -46 193.5q45 45 82.5 102.5a695.26 695.26 0 0 1 64 124.5 825.15 825.15 0 0 1 41.5 142 788.58 788.58 0 0 1 15 155z"/></svg>