<svg viewBox="0 0 2054 2385.84" xmlns="http://www.w3.org/2000/svg"><path d="m914 460q32 0 53-26.5t21-62.5q0-37-21-62.5t-53-25.5q-30 0-51 25.5t-21 62.5q0 36 21 62.5t51 26.5zm188 1695q292 0 513-117-78-62-131-134.5a694.17 694.17 0 0 1 -86-156.5q-38-97-61.5-183t-31.5-164q-18-202-105-414l-1-5q-5-12-13-28a318.37 318.37 0 0 0 -20-34q-25-36-25-58 0-14 6-23a47.9 47.9 0 0 1 15-14.5 86.38 86.38 0 0 1 21-9 207.5 207.5 0 0 1 24-5.5 271.07 271.07 0 0 0 72-27.5 218.41 218.41 0 0 0 57-45.5 196.89 196.89 0 0 0 37-61q13-34 13-73 0-58-11-94-10-35-49-77t-71-42q-29 0-49.5 20.5t-35.5 78.5q-10 36-17 60.5t-12 35.5q-5 11-18 29.5t-36 44.5q-47 51-74 67l-50 34q-39 28-92.5 43.5t-125.5 15.5q-66 0-124-15.5a411.74 411.74 0 0 1 -110-47.5l-36 106q-12 35-25 99t-27 160q-14 97-20 181.5t-6 160.5q0 437 235 575l11 8 56 32a625.22 625.22 0 0 0 82 36.5q45 16.5 102 24.5 57 9 111 13t108 4zm952-549q0 29-18 57.5t-58 51q-40 22.5-105 36.5t-160 14h-40l-11-2q0 25 5 41.5a64.58 64.58 0 0 0 16 27.5q11 11 29.5 17.5t45.5 11.5q137 0 137 83a85.37 85.37 0 0 1 -6 32q-6 15-21 30.5t-42 32.5q-27 17-69 36l-21 10a1009.74 1009.74 0 0 1 -154.5 80.5q-82.5 34.5-177.5 57.5-14 30-59 79-45 51-74 70.5t-37 10.5q-10 0-27-16-19-17-27-17-6 0-15 4.5t-19.5 9.5q-10.5 5-22 9.5a66.63 66.63 0 0 1 -24.5 4.5q-38 0-38-43l-46 3q-35 2-35-22 0-23 61-60l-139-11-25 27q-52 58-91 58-11 0-26-18t-29-18q-7 0-16 4.5t-19.5 10a198.55 198.55 0 0 1 -22.5 10 67.94 67.94 0 0 1 -24 4.5q-40 0-40-42h-8l-40 1q-34 1-34-22 0-12 14-26 12-14 102-70l-64-38q-86-51-144.5-129.5t-92.5-182.5a618.47 618.47 0 0 1 -81 18.5 536 536 0 0 1 -84 6.5q-81 0-129-22t-48-65q0-38 33-82 151-199 194-395l26-116q43-193 124-329 23-60 36-103.5t11-71.5l-4-74q-26 0-59.5 3t-74.5 14l-26 7-28 4q-40 0-40-26 0-17 10-37.5t32-43.5q22-23 57.5-48t87.5-50l65-32q52-145 124-217 73-73 171-114t209-41q109 0 205.5 40t183.5 130q87 90 146 223 30 67 60 167t58 235q23 115 44 197t38 130q17 48 36.5 92a727.79 727.79 0 0 0 42.5 82 776.24 776.24 0 0 0 47.5 70 462.39 462.39 0 0 0 52.5 58q56 52 86 62 106 47 106 120z"/></svg>