<svg viewBox="0 0 1881 2223.07" xmlns="http://www.w3.org/2000/svg"><path d="m1603 119-130 10h-8l-10-2q0-31 45-57 49-28 92-34a70.25 70.25 0 0 0 21.5-11.5 99.09 99.09 0 0 1 20.5-12.5 159.78 159.78 0 0 1 30-9.5 127.51 127.51 0 0 1 24-2.5q20 0 26 11l12 23 19 14q27 35 27 96 0 16-8 16-7 0-20-14-19-13-54-22t-87-5zm-432 178q0-22 47-66 25-22 63-34.5t91-17.5q52-5 92-7t69-2q99 0 156 17a241.23 241.23 0 0 1 50.5 22.5q22.5 13.5 38 30t23.5 33.5q8 17 8 33 0 37-12 37l-16-5q-30-17-87-26.5t-140-7.5l-321 7h-21q-41 0-41-14zm-152 228-111 6q-25 1-25-17 0-23 10.5-41.5t30.5-34.5l22-18q43-34 111-48 70-14 346-14 273 0 354 26 81 27 81 98a57.45 57.45 0 0 1 -15.5 40q-15.5 17-47.5 16l-304-9h-50zm862 316q0 58-13.5 100.5t-38.5 70.5a283.54 283.54 0 0 1 -62 50q-35 21-82.5 35.5t-109 23q-61.5 8.5-139.5 12.5a945.76 945.76 0 0 0 -117 14q-61 11-129 29-133 37-245 98-109 58-162 101a423.74 423.74 0 0 0 -45.5 42 515.5 515.5 0 0 0 -37.5 45 307.37 307.37 0 0 0 -28 45 281.41 281.41 0 0 0 -18 45.5 260.53 260.53 0 0 0 -9.5 50q-2.5 26.5-2.5 59.5 0 128 78 199.5t218 71.5q180 0 310-135 132-136 169-362l1-56v-57q0-65 17-88 15-23 80-23 24 0 42 4a138.6 138.6 0 0 1 32 11q26 14 40 80t15 176q1 162-47.5 298.5t-140 235.5q-91.5 99-223 153.5t-296.5 52.5q-122-2-236.5-28.5t-224.5-82.5q-219-110-348-298-128-188-128-387 0-165 87-327 88-162 242-289a1223.77 1223.77 0 0 1 161-110.5 1051.62 1051.62 0 0 1 174-79.5q43-15 105-23.5t144-6.5l534 8q84 2 145 7t101 16q83 24 134 72 54 48 54 147z"/></svg>