<svg viewBox="0 0 1994 1864" xmlns="http://www.w3.org/2000/svg"><path d="m256 560q0-32 22.5-53.5t58.5-21.5a190.92 190.92 0 0 1 30.5 2.5q15.5 2.5 31.5 6.5l79 21q85 22 128 49.5t43 67.5q0 77-77 77a196.9 196.9 0 0 1 -37.5-4q-20.5-4-45.5-11l-69-18q-81-21-122.5-49.5t-41.5-66.5zm419 320q0 28-15.5 49t-44.5 21a101 101 0 0 1 -25.5-3q-11.5-3-22.5-6t-21.5-6a81.57 81.57 0 0 0 -22.5-3q-17 0-23 22.5t-6 70.5q0 39-4 64.5t-12.5 40.5q-8.5 15-21 20.5t-29.5 5.5q-40 0-61.5-28.5t-18.5-87.5l5-119q1-44-29-55l-41-15q-40-14-60-33t-20-46a67.14 67.14 0 0 1 6.5-29.5 76.06 76.06 0 0 1 17.5-23.5 88.89 88.89 0 0 1 25-16 70.58 70.58 0 0 1 28-6 166.71 166.71 0 0 1 37.5 4.5 413.89 413.89 0 0 1 42.5 12.5l87 33 59 18q85 26 127.5 52.5t42.5 62.5zm1022-312q34 0 49 27t15 100q0 56-4.5 94t-14.5 64q-10 26-25.5 42a125.26 125.26 0 0 1 -36.5 26q-17 8-39 18.5t-44 10.5q-21 0-33.5-13t-19-32.5a298.32 298.32 0 0 1 -10.5-42q-4-22.5-8.5-42t-11.5-32.5q-7-13-21-13-22 0-130 35-54 18-105.5 36.5t-102.5 38.5q-48 20-62 20-27 0-33-30.5t-6-83.5q0-71 74-87l39-10 244-63q128-33 199-48t87-15zm-902 590v-122l6-201q3-110-9-198.5t-34-155.5q-22-71-83-130-30-30-59.5-49.5t-56.5-28.5q-28-10-64.5-15a717.36 717.36 0 0 0 -80.5-6q-113-1-174 47-59 46-91 138.5t-34 220.5l-5 381q0 31 3.5 51.5t11.5 34.5a64.85 64.85 0 0 0 21 22.5 167.93 167.93 0 0 0 31 15.5q65 26 128 53t126 55q298 134 331 134 19 0 29-30.5t8-92.5zm1086-257q0-137-11.5-259.5t-37.5-230.5a500.27 500.27 0 0 0 -26-81 447.79 447.79 0 0 0 -36-69q-20-31-43-53.5t-47-34.5q-176-85-401-85-203 0-615 81a37 37 0 0 1 -11 3q-7 1-13.5 2.5a42.15 42.15 0 0 0 -11 4c-3 1.67-4.5 3.83-4.5 6.5q0 9 44 29a324.34 324.34 0 0 1 72 45.5 395.31 395.31 0 0 1 60 62.5 500.18 500.18 0 0 1 48 75.5 552.65 552.65 0 0 1 35 83.5q14 41 21.5 138t5.5 253l-5 496q-1 55 35 55 16 0 114-41.5t283-125.5q57-26 117.5-55t121.5-61l148-78 122-64q18-10 26.5-34.5t8.5-62.5zm113-65q0 129-18 175-9 24-23.5 39a98 98 0 0 1 -34.5 23l-58 26-288 142-288 141q-30 9-36 19-7 11-5 60l4 295v30l-2 19q0 9-9 19.5t-25 19q-16 8.51-38.5 14.5t-50.5 6q-53 0-89.5-13.5t-45.5-33.5a141.62 141.62 0 0 1 -5-20.5 149.78 149.78 0 0 1 -2-25.5l1-122q1-111-16-111a144.74 144.74 0 0 0 -39.5 5.5 152.09 152.09 0 0 1 -41.5 5.5 210.52 210.52 0 0 1 -75-14q-32-11-87.5-30.5t-134.5-51.5q-78-31-162-67t-176-76q-92-42-140-65.5t-55-30.5q-16-11-25.5-32a428.46 428.46 0 0 1 -17.5-46q-3-12-5.5-36.5t-3.5-60.5q-2-38-2-68.5v-56.5q0-116 8-213t23-178a622.26 622.26 0 0 1 30-110.5 575.79 575.79 0 0 1 52-104.5q64-104 168-141 9-3 25-7.5t42.5-11.5q26.5-7 65.5-17t94-23q55-13 146.5-29.5t221.5-37.5q130-20 235-30.5t189-10.5q423 0 558 188 136 187 136 648z"/></svg>