<svg viewBox="0 0 2438 1556" xmlns="http://www.w3.org/2000/svg"><path d="m1805 1135q0-125-129-187-128-63-322-63-127 0-185 38.5t-58 125.5q0 96 57 183a304.12 304.12 0 0 0 70.5 75.5 397.16 397.16 0 0 0 92.5 52 513.71 513.71 0 0 0 109 30 741.88 741.88 0 0 0 120 9.5q77 0 127-33 25-16 46.5-42a326.42 326.42 0 0 0 37.5-56.5 305 305 0 0 0 25-65 266.8 266.8 0 0 0 9-67.5zm-1074-182q0-48-28-113-28-67-67-98-73-54-152-78l-42-10.5-45-10.5q-47-10-66-7-92 0-115 39-13 23-13 98 0 73 21 139t66 125q88 117 238 117 45 0 82.5-14t64.5-40q27-26 41.5-63t14.5-84zm1707-362q0 54-22 83t-60 29a46 46 0 0 1 -26-8 76 76 0 0 1 -21-21.5 109.75 109.75 0 0 1 -14-31 132.34 132.34 0 0 1 -5-36.5v-20q0-30-15-30-12 0-37 33a615.41 615.41 0 0 0 -41.5 62.5q-19.5 33.5-38 69.5t-36.5 72.5q-18 36.5-37 70.5-9 17-21.5 36t-12.5 37l7 42a127.33 127.33 0 0 1 -5 34 159.43 159.43 0 0 1 -16 37l-19 33-15 34-11 47q-18 131-79 215-61 81-156 130a448.23 448.23 0 0 1 -96 35.5 406.51 406.51 0 0 1 -95 11.5 674.41 674.41 0 0 1 -236.5-42.5 768.42 768.42 0 0 1 -211.5-119.5q-51-41-87-101.5t-53-147.5l-4-39q-5-42-19-62.5t-42-20.5q-42 0-61 71l-13 34q-100 196-330 196-133 0-237-80t-167-228a879.89 879.89 0 0 1 -47.5-152 633.15 633.15 0 0 1 -13.5-157l1-38q1-25-22-70-23-44-23-70 0-85 160-134 29-17 58.5-31.5t59.5-27.5q81-34 153-69t135-72q90-53 165.5-90t137.5-60q123-45 234-45a733.93 733.93 0 0 1 186 24q91 24 136.5 69.5t45.5 108.5q0 51-28.5 84.5t-70.5 33.5q-29 0-53-12t-38-39l-28-49q-23-42-56.5-60t-92.5-18q-110 0-249 81-70 40-161 98.5t-203 136.5q-18 12-18 18 0 23 80 43l31 9q64 17 110 44t80 56l102 84q30 33 120 33 41 0 70-11 53-19 127-29t171-10q82 0 171 8.5t183 41.5l66 23a309.69 309.69 0 0 1 44.5 19.5q21.5 11.5 41.5 11.5t44-23.5q24-23.5 56-68.5l25-36 127-152q27-32 55-61a591.49 591.49 0 0 1 55.5-51q27.49-22 52.5-35t46-13q49 0 78 74 29 73 29 158z"/></svg>