<svg viewBox="0 0 1682 2199" xmlns="http://www.w3.org/2000/svg"><path d="m662 775v-229q-133 22-133 116 0 23 9 39.5t26 29.5q17 13 41.5 23.5a595.85 595.85 0 0 0 56.5 20.5zm377 588v260q59-13 97.5-47.5t38.5-84.5q0-68-136-128zm643 126q0 127-89 261-88 132-228 206t-326 88v118a36.39 36.39 0 0 1 -10.5 26q-10.5 11-27.5 11h-302q-16 0-26.5-11a36.39 36.39 0 0 1 -10.5-26v-143a1383.15 1383.15 0 0 1 -175.5-41.5q-86.5-26.5-173.5-61.5-87-36-161.5-79a1479.64 1479.64 0 0 1 -139.5-91q-12-6-12-26 0-11 5-17l201-262q9-11 24-11a43.51 43.51 0 0 1 9.5 1 15 15 0 0 1 7.5 4q24 16 67.5 37.5t106.5 47.5q126 53 241 80v-378l-158-59q-107-40-182-74.5t-120-64.5q-90-62-137.5-140.5t-47.5-185.5q0-132 84-257 85-128 225.5-193.5t335.5-73.5v-135a39.38 39.38 0 0 1 10.5-27.5q10.5-11.5 26.5-11.5h302q17 0 27.5 11.5a39.38 39.38 0 0 1 10.5 27.5v182q67 17 134 38.5t134 45.5q69 25 123 48.5t96 46.5q15 11 15 26l-4 18-167 251q-8 14-26 14l-11-3q-60-26-133-52.5t-161-54.5v310q164 63 281 121.5t186 116.5q91 75 133.5 161.5t42.5 180.5z"/></svg>