<svg xmlns="http://www.w3.org/2000/svg" viewBox="0 0 2262 1872"><title>u1F49B</title><g id="Layer_2" data-name="Layer 2"><g id="Layer_1-2" data-name="Layer 1"><path id="u1F49B" d="M392,556q26,0,44.5,18.5T455,619q0,28-18.5,46T392,683q-28,0-46-18t-18-46q0-26,18-44.5T392,556Zm0-367q26,0,44.5,18.5T455,252q0,28-18.5,46T392,316q-28,0-46-18t-18-46q0-26,18-44.5T392,189Zm0,733q26,0,44.5,18.5T455,987q0,26-18.5,44.5T392,1050q-28,0-46-18.5T328,987q0-28,18-46.5T392,922Zm1467,0q28,0,46,18.5t18,44.5q0,28-18,46.5t-46,18.5q-26,0-44.5-18.5T1796,985q0-26,18.5-44.5T1859,922Zm0-365q28,0,46,18.5t18,44.5q0,28-18,46t-46,18q-26,0-44.5-18T1796,620q0-26,18.5-44.5T1859,557Zm0-367q28,0,46,18.5t18,46.5q0,26-18,44.5T1859,318q-26,0-44.5-18.5T1796,255q0-28,18.5-46.5T1859,190ZM1127,1290q28,0,45.5,18.5T1190,1355q0,28-18.5,46t-45.5,18q-28,0-46.5-18t-18.5-46q0-28,19-46.5T1127,1290Zm0-368q28,0,45.5,18.5T1190,987q0,28-18.5,46t-45.5,18q-28,0-46.5-18T1061,987q0-28,19-46.5T1127,922ZM759,1290q26,0,44.5,17.5T822,1353q0,28-18.5,45.5T759,1416q-28,0-46-17.5T695,1353q0-28,18-45.5T759,1290Zm733,0q28,0,46,17.5t18,45.5q0,28-18,45.5t-46,17.5q-26,0-44.5-17.5T1429,1353q0-28,18.5-45.5T1492,1290ZM759,557q26,0,44.5,18.5T822,620q0,28-18.5,46T759,684q-28,0-46-18t-18-46q0-26,18-44.5T759,557Zm918,183q26,0,44.5,18.5T1740,803q0,28-18.5,46.5T1677,868q-28,0-46-18.5T1613,803q0-26,18-44.5T1677,740ZM576,740q26,0,44.5,18.5T639,803q0,28-18.5,46.5T576,868q-28,0-46.5-18.5T511,803q0-26,18.5-44.5T576,740Zm1467,0q26,0,44.5,18.5T2106,803q0,28-18.5,46.5T2043,868q-27,0-45.5-18.5T1979,803q0-26,18.5-44.5T2043,740ZM1677,374q26,0,44.5,18.5T1740,437q0,28-18.5,46T1677,501q-28,0-46-18t-18-46q0-26,18-44.5T1677,374Zm366,0q26,0,44.5,18.5T2106,437q0,28-18.5,46T2043,501q-27,0-45.5-18T1979,437q0-26,18.5-44.5T2043,374ZM576,374q26,0,44.5,18.5T639,437q0,28-18.5,46T576,501q-28,0-46.5-18T511,437q0-26,18.5-44.5T576,374ZM759,190q26,0,44.5,18.5T822,255q0,26-18.5,44.5T759,318q-28,0-46-18.5T695,255q0-28,18-46.5T759,190Zm550,550q28,0,46,18.5t18,44.5q0,28-18,46.5T1309,868q-26,0-44.5-18.5T1246,803q0-26,18.5-44.5T1309,740ZM208,740q28,0,46,18.5T272,803q0,28-18,46.5T208,868q-26,0-44.5-18.5T145,803q0-26,18.5-44.5T208,740Zm0-366q28,0,46,18.5T272,437q0,28-18,46t-46,18q-26,0-44.5-18T145,437q0-26,18.5-44.5T208,374Zm368,733q26,0,44.5,18t18.5,46q0,26-18.5,44.5T576,1234q-28,0-46.5-18.5T511,1171q0-28,18.5-46T576,1107Zm733-733q28,0,46,18.5t18,44.5q0,28-18,46t-46,18q-26,0-44.5-18T1246,437q0-26,18.5-44.5T1309,374Zm183,183q28,0,46,18.5t18,44.5q0,28-18,46t-46,18q-26,0-44.5-18T1429,620q0-26,18.5-44.5T1492,557Zm185,550q26,0,44.5,18t18.5,46q0,26-18.5,44.5T1677,1234q-28,0-46-18.5t-18-44.5q0-28,18-46T1677,1107Zm-368,0q28,0,46,18t18,46q0,26-18,44.5t-46,18.5q-26,0-44.5-18.5T1246,1171q0-28,18.5-46T1309,1107Zm183-917q28,0,46,18.5t18,46.5q0,26-18,44.5T1492,318q-26,0-44.5-18.5T1429,255q0-28,18.5-46.5T1492,190ZM759,922q26,0,44.5,18.5T822,987q0,28-18.5,46T759,1051q-28,0-46-18t-18-46q0-28,18-46.5T759,922ZM942,374q28,0,46.5,18.5T1007,437q0,28-18.5,46T942,501q-28,0-46-18t-18-46q0-26,18-44.5T942,374Zm0,366q28,0,46.5,18.5T1007,803q0,28-18.5,46.5T942,868q-28,0-46-18.5T878,803q0-26,18-44.5T942,740Zm550,182q28,0,46,18.5t18,46.5q0,28-18,46t-46,18q-26,0-44.5-18T1429,987q0-28,18.5-46.5T1492,922ZM942,1107q28,0,46.5,18t18.5,46q0,26-18.5,44.5T942,1234q-28,0-46-18.5T878,1171q0-28,18-46T942,1107Zm185-551q28,0,45.5,18t17.5,46q0,28-18.5,46T1126,684q-28,0-46.5-18T1061,620q0-28,19-46T1127,556Zm1035,65q0-65-7-114t-23-84q-129-302-400-323-20,33-55,33-40,0-55-31-184,20-306,112-26,20-52.5,38.5T1208,288a112.31,112.31,0,0,0-12,7.5q-8,5.5-18,11a132.62,132.62,0,0,1-22,9.5,78.42,78.42,0,0,1-25,4q-17,0-36-9a381.79,381.79,0,0,1-41-23L949,215a654.33,654.33,0,0,0-147.5-77Q723,109,630,102q-19,31-54,31-36,0-55-31-134,13-231,93.5T130,423q-15,35-23.5,83T98,616q0,150,59,278,60,128,176,240,59,57,151,125.5T703,1412q45,30,89,61.5t86,64.5q0-28,18-46t46-18q28,0,46.5,18t18.5,46q0,23-16,40.5a72.53,72.53,0,0,1-39,22.5l13,11,99,93a60.93,60.93,0,0,1,22-34.5q17-13.5,41-13.5,25,0,42.5,17t20.5,40l119-113q-26,0-44.5-17.5T1246,1538q0-28,18.5-46t44.5-18q28,0,46,18t18,46l-1,11q46-38,92-72t94-66q225-150,342-252a841,841,0,0,0,107-111,750.28,750.28,0,0,0,82.5-127.5A677.89,677.89,0,0,0,2143,778Q2162,703,2162,621ZM1688,0q156,0,290,84,133,83,209,225,75,143,75,306a853.24,853.24,0,0,1-8,119.5A661.27,661.27,0,0,1,2229,844a675.42,675.42,0,0,1-44,105,1102.88,1102.88,0,0,1-64,107,949.17,949.17,0,0,1-82.5,105.5A1011,1011,0,0,1,1937,1259q-56,46-154,115.5T1544,1538a1399.56,1399.56,0,0,0-195,159q-45,43-70,68t-30,33q-57,74-115,74h-6q-29,0-59-20t-58-58q-10-14-36.5-40T903,1687q-45-40-91.5-76.5T715,1541q-134-90-228-158.5T335,1266a1256.93,1256.93,0,0,1-107-101.5A939,939,0,0,1,142,1058q-38-55-65-107.5a685.29,685.29,0,0,1-44-106,675.09,675.09,0,0,1-25-110A853.24,853.24,0,0,1,0,615,638.93,638.93,0,0,1,18.5,460.5Q37,386,75,314,153,168,283,85,415,0,570,0A861.38,861.38,0,0,1,699.5,9.5,678.5,678.5,0,0,1,822,40,754,754,0,0,1,941,94q59,33,120,80,53,41,70,41,6,0,25-10l56-38q55-38,99-65.5T1391,59A776.16,776.16,0,0,1,1688,0Z"/></g></g></svg>