<svg viewBox="0 0 1966 1544" xmlns="http://www.w3.org/2000/svg"><path d="m984 946q-32 0-56.5-17t-24.5-42q0-16 18.5-28.5t63.5-12.5q78 0 78 40 0 24-21.5 42t-57.5 18zm364 158q0 40-61 87a315.92 315.92 0 0 1 -60.5 38 380.81 380.81 0 0 1 -68 24.5 500.24 500.24 0 0 1 -79.5 13.5q-43 4-97 4a725.58 725.58 0 0 1 -131.5-11.5 508.81 508.81 0 0 1 -119.5-37.5q-114-49-114-111 0-27 28-47.5t79-34.5q51-14 123-21.5t160-7.5q341 0 341 104zm-122-266a80.85 80.85 0 0 1 -37.5-9 98.07 98.07 0 0 1 -30.5-24.5 117.77 117.77 0 0 1 -20.5-36.5 132.81 132.81 0 0 1 -7.5-45q0-49 27.5-81.5t68.5-32.5q40 0 68 32.5t28 81.5a132.81 132.81 0 0 1 -7.5 45 117.77 117.77 0 0 1 -20.5 36.5 98.07 98.07 0 0 1 -30.5 24.5 80.85 80.85 0 0 1 -37.5 9zm-486 0a77.86 77.86 0 0 1 -37-9 100.22 100.22 0 0 1 -30-24.5 110.47 110.47 0 0 1 -20-36.5 141.32 141.32 0 0 1 -7-45q0-49 27-81.5t67-32.5q41 0 68.5 32.5t27.5 81.5a132.81 132.81 0 0 1 -7.5 45 117.77 117.77 0 0 1 -20.5 36.5 98.07 98.07 0 0 1 -30.5 24.5 80.85 80.85 0 0 1 -37.5 9zm1018 157 14 1a75.37 75.37 0 0 0 41-12q19-12 32.5-33t21-50a246.86 246.86 0 0 0 7.5-62q0-109-112-127l7 130q2 48-2 85.5t-9 67.5zm-244 68a191.7 191.7 0 0 0 -2.5-41.5 248.69 248.69 0 0 0 -10.5-40.5q-23-62-23-145 0-41 24-164l4-50q4-45-14.5-91a321 321 0 0 0 -48.5-83 313.16 313.16 0 0 0 -30.5-32 146.07 146.07 0 0 0 -35.5-23.5q-20-9.5-46-14.5t-61-5q-51 0-141 50-93 51-143 51a180.39 180.39 0 0 1 -74-16q-36-16-71.5-34.5t-71.5-34.5a180.39 180.39 0 0 0 -74-16q-35 0-60 4.5t-44.5 14a151.08 151.08 0 0 0 -35.5 24 345.21 345.21 0 0 0 -32 33.5 287 287 0 0 0 -46.5 81.5 261.21 261.21 0 0 0 -16.5 91.5l5 50q7 65 16 105.5t7 60.5l-4 64a595 595 0 0 1 -19.5 79 263.85 263.85 0 0 0 -12.5 81q0 143 143 238 73 49 166.5 72t209.5 25q127 2 227-24t170-72q70-46 107.5-107.5t38.5-130.5zm-1320-67 14-1a942.58 942.58 0 0 1 -12-153q0-41 1.5-73a385.17 385.17 0 0 1 6.5-57q-112 18-112 127v10l1 12q7 62 32 98.5t69 36.5zm1772-157q0 123-63 192-32 34-69.5 52t-82.5 15l-18-2q-34 114-109 198t-176.5 139q-101.5 55-222.5 82.5a1157.26 1157.26 0 0 1 -248 28.5q-149 0-305-46a740.64 740.64 0 0 1 -147.5-59 639.81 639.81 0 0 1 -126.5-88 603.36 603.36 0 0 1 -99.5-114.5q-42.5-63.5-67.5-140.5l-17 2-35-5q-179-45-179-254 0-53 15-98.5t42-78a178 178 0 0 1 65-49.5q38-17 85-13l17 1q47-179 152-317a719.88 719.88 0 0 1 121-123.5 699.35 699.35 0 0 1 144-89 767 767 0 0 1 161-53.5 823.43 823.43 0 0 1 173-18q190 0 342 67 155 69 266 210a831.61 831.61 0 0 1 96 152q39 80 63 172l16-1a127.28 127.28 0 0 1 56 6.5 315.22 315.22 0 0 1 53 24.5q54 32 76.5 87.5t22.5 120.5z"/></svg>