<svg viewBox="0 0 2036 2037" xmlns="http://www.w3.org/2000/svg"><path d="m333 1610 251-249q-72-78-127.5-151.5t-93-139.5q-37.5-66-57-122.5t-19.5-99.5q0-51 26-76l70-70q25-26 76-26 133 0 353 163l432-434q-134-179-134-264 0-25 14-38l89-89q14-14 38-14 33 0 81 21.5t114 63.5q128 83 269 223t231 276q90 137 90 201 0 25-13 39l-89 88q-14 14-38 14-85 0-264-134l-433 432q163 222 163 355 0 49-26 75l-71 70a91.93 91.93 0 0 1 -32.5 19.5q-18.5 6.5-44.5 6.5-87 0-224-77-69-38-140.5-93.5t-148.5-126.5l-249 250-395 334-31-30z"/></svg>