<svg viewBox="0 0 1830 1695.09" xmlns="http://www.w3.org/2000/svg"><path d="m923 1253q-31 0-57.5-9.5t-46-25.5a119.22 119.22 0 0 1 -30.5-37 93.63 93.63 0 0 1 -11-44 95.6 95.6 0 0 1 11-45 119.22 119.22 0 0 1 30.5-37q19.5-16 46-25t57.5-9q31 0 57 9.5a154.65 154.65 0 0 1 45.5 25.5 119.22 119.22 0 0 1 30.5 37 93.63 93.63 0 0 1 11 44 95.6 95.6 0 0 1 -11 45 119.22 119.22 0 0 1 -30.5 37q-19.5 16-46 25a174.54 174.54 0 0 1 -56.5 9zm182 44q16 0 24 10a35.8 35.8 0 0 1 8 23q0 13-6 19-2 2-14 16.5t-37.5 32q-25.5 17.51-64 31.5t-92.5 14q-54 0-92.5-14t-63.5-31.5q-25-17.51-38-32t-14-16.5q-5-5-5-19a34.46 34.46 0 0 1 8.5-23q8.5-10 24.5-10 17 0 27 14l11 11q20 23 58 38.5t84 15.5q19 0 37-1.5a128.32 128.32 0 0 0 36-8.5 213.84 213.84 0 0 0 37.5-19.5q19.5-12.5 42.5-35.5 10-14 29-14zm145-342a95 95 0 0 0 65.5-26 91.65 91.65 0 0 0 20-28.5 82.45 82.45 0 0 0 7.5-34.5 84.76 84.76 0 0 0 -7.5-35.5 91.65 91.65 0 0 0 -20-28.5 95 95 0 0 0 -65.5-26 89.88 89.88 0 0 0 -35.5 7 95.09 95.09 0 0 0 -29 19 85.19 85.19 0 0 0 -19.5 28.5 89.88 89.88 0 0 0 -7 35.5q0 37 26.5 63t64.5 26zm192 335q-50 0-93.5-20t-83.5-58q-41-39-128-150-45-57-67-107t-22-93q0-91 67-148t163-57q100 0 198 74t140.5 152q42.49 78 42.5 166 0 53-15 97t-42.5 76q-27.49 32-68 50t-91.5 18zm-850-335a95 95 0 0 0 65.5-26 85.19 85.19 0 0 0 19.5-28.5 87.39 87.39 0 0 0 7-34.5q0-38-27-64t-65-26a89.88 89.88 0 0 0 -35.5 7 95.09 95.09 0 0 0 -29 19 91.65 91.65 0 0 0 -20 28.5 84.76 84.76 0 0 0 -7.5 35.5 82.45 82.45 0 0 0 7.5 34.5 91.65 91.65 0 0 0 20 28.5 95.09 95.09 0 0 0 29 19 89.88 89.88 0 0 0 35.5 7zm-185 319q-86 0-146-63-59-63-59-166 0-142 121-256 123-115 242-115 86 0 152 55 32 27 50 61.5t14 79.5l-3 33a319.37 319.37 0 0 1 -33 77q-10 17-38 55.5t-75 97.5q-34 42-63.5 70.5t-55.5 42.5q-50 28-106 28zm515 320a1197.89 1197.89 0 0 0 153.5-10 1333.42 1333.42 0 0 0 156.5-30q159-39 266-122 108-83 162-204.5t54-286.5q0-340-215-573-215-231-574-231-115 0-216.5 25.5a722.32 722.32 0 0 0 -191.5 78.5q-180 106-278 288-98 184-98 407 0 162 51.5 284t152.5 203q98 80 258 126a1152.29 1152.29 0 0 0 319 45zm815-1056v15q77 180 77 381 0 102-16 188t-49.5 158a571.37 571.37 0 0 1 -84.5 131.5q-51 59.5-121 108.5-138 96-307 135a1416.17 1416.17 0 0 1 -161.5 29.5 1432.25 1432.25 0 0 1 -152.5 10.5q-68 1-144.5-9.5t-164.5-30.5q-88-20-165.5-55.5a821.38 821.38 0 0 1 -146.5-86.5q-139-101-201-246.5t-59-325.5q2-92 14.5-174a785.94 785.94 0 0 1 40.5-157q5-10 5-26a110.32 110.32 0 0 0 -4-29.5 79.71 79.71 0 0 0 -14-27.5q-83-116-83-241t86-201q88-78 198-78a315.56 315.56 0 0 1 87.5 12.5q43.5 12.5 90.5 36.5a288.71 288.71 0 0 0 59 24 221 221 0 0 0 59 8l41-5q145-46 308-46a947 947 0 0 1 135 9.5 1183.88 1183.88 0 0 1 131 26.5q25 6 57 6a235.08 235.08 0 0 0 116-30q44-25 88.5-37a342.4 342.4 0 0 1 89.5-12q78 0 149 41 70 42 102.5 101t32.5 137q0 114-68 218-8 11-15 19.5t-10 21.5z"/></svg>