<svg viewBox="0 0 2206 2134" xmlns="http://www.w3.org/2000/svg"><path d="m961 324 78-154q-78 32-150.5 69.5t-141.5 79.5zm282 1434a66.56 66.56 0 0 1 -13.5 41q-13.5 18-41.5 18l-18-3-436-101-76-17q-115-25-173.5-52.5t-58.5-59.5q0-25 23-35.5a114.29 114.29 0 0 1 48-10.5q31 0 99.5 15.5t174.5 47.5q138 41 241 65.5t174 32.5q29 3 43 20.5t14 38.5zm496-984q0 48-45 48l-52-5-52-7q-58-8-112-16.5t-105-17.5l-193-35q-44-8-83.5-17t-75.5-18l-227-58q-18-4-32.5-7.5a140.66 140.66 0 0 1 -24.5-8 36.41 36.41 0 0 1 -15.5-12.5q-5.5-8-5.5-22 0-17 12.5-33t33.5-16q26 0 57 10a294.08 294.08 0 0 0 60 13l12 1q99 21 198.5 43t199.5 41.5q100 19.5 200.5 35.5t200.5 25q25 2 37 19a62.84 62.84 0 0 1 12 37zm-72 252q0 23-15.5 43t-43.5 20l-13-1-461-91a4646.83 4646.83 0 0 1 -456-113q-32-11-32-40 0-17 12.5-30.5t32.5-13.5h10q116 24 232 45.5t231.5 42.5q115.5 21 230.5 42.5t231 46.5q41 9 41 49zm-184 503q0 22-14.5 42t-42.5 20l-12-1-263-51q-67-13-131-28t-130-29l-96-21q-56-12-98.5-17t-69.5-10q-29-6-52-12a267.83 267.83 0 0 1 -41-14q-19-7-29-13t-15-11.5a22.91 22.91 0 0 1 -6-12 95.43 95.43 0 0 1 -1-14.5q0-20 13.5-37.5t37.5-17.5q45 0 105 7.5t135 21.5q77 14 184 38.5t247 58.5q63 15 122 28.5t116 25.5q41 7 41 47zm67-249a68.55 68.55 0 0 1 -14 42.5q-14 18.49-40 18.5l-18-3q-136-40-442-95-146-26-254.5-51t-183.5-51q-31-11-31-47 0-17 9-29.5t29-12.5h6q172 20 306.5 39.5t236.5 39.5q101 20 189 43t166 49q41 14 41 57zm513-964q-38-8-73.5-17.5t-68.5-20.5q-23-8-83-23t-158-38q-98-23-178-40.5t-146-26.5q-48-6-88.5-12.5a648.78 648.78 0 0 1 -72.5-15.5l-147 290q-8 15-20 23.5t-32 7.5l-405-12q-40 43-69 109-29 65-72 201-21 69-38 130t-30 115q-35 146-65 258.5t-57 194.5q-26 83-56.5 155.5t-64.5 135.5a566.58 566.58 0 0 0 60 17q31 7 61 15l122 29q78 18 142.5 31.5t117.5 24.5l269 53 143 30q121 26 217 48t171 30l78 8 6-2q10-18 20-46.5t26-67.5q40-101 89.5-256t106.5-370q50-192 91.5-336.5t75.5-245.5q34-101 65.5-194.5t62.5-181.5zm143-48a30.93 30.93 0 0 1 -2.5 12 98.44 98.44 0 0 0 -4.5 14l-152 435q-29 85-76 251t-116 418q-54 201-98.5 336.5t-76.5 210.5q-10 31-21.5 57.5t-23.5 49.5q-12 23-23.5 38.5a106.42 106.42 0 0 1 -25.5 25 99.91 99.91 0 0 1 -31.5 14q-17.5 4.5-42.5 4.5a346.74 346.74 0 0 1 -43-2.5 338.67 338.67 0 0 1 -40-7.5q-67-8-165-29t-232-50l-142-30q-317-67-514-107.5t-272-64.5q-104-20-104-88 0-28 25-64l3-6q32-64 63-133a1568.66 1568.66 0 0 0 57-147q26-78 56.5-190.5t65.5-261.5q18-77 42-160.5t56-176.5q64-187 139-266 7-15 17-24 4-3 48.5-35t124.5-80q80-48 192-103.5t252-104.5l14-3h15q32 0 68 12l9 2 48 9q85 10 200 31t263 59l123 32q92 23 159 41t112 23q24 3 39 19.5t15 39.5z"/></svg>