<svg viewBox="0 0 1500 2355" xmlns="http://www.w3.org/2000/svg"><path d="m848 1987a79.88 79.88 0 0 1 38.5 10q18.5 10 18.5 33 0 16-14 28t-34 12a117.74 117.74 0 0 1 -21-2 81.73 81.73 0 0 1 -20.5-6.5 41 41 0 0 1 -15.5-12.5q-6-8-6-20 0-17 14-29.5t40-12.5zm1-145a71.77 71.77 0 0 1 38 11q18 11 18 32 0 20-17.5 30.5a73.44 73.44 0 0 1 -38.5 10.5 69.27 69.27 0 0 1 -37.5-11q-17.5-11-17.5-31 0-17 14.5-29.5t40.5-12.5zm0 288q20 0 38 12t18 33q0 16-14 28t-34 12a117.74 117.74 0 0 1 -21-2 81.73 81.73 0 0 1 -20.5-6.5 41 41 0 0 1 -15.5-12.5q-6-8-6-20 0-20 16-32t39-12zm-85-766q0 30-20 46a70.15 70.15 0 0 1 -45 16q-28 0-47.5-16t-19.5-44q0-24 17-43t50-19q65 0 65 60zm222 62q-23 0-44.5-15.5t-21.5-44.5q0-26 17.5-44t49.5-18q32 0 49.5 18.5t17.5 43.5q0 21-17.5 40.5t-50.5 19.5zm-469-73q0 123 91 204 93 81 234 81 140 0 232-80 94-80 94-205v-19l-3-18a254.61 254.61 0 0 0 -56.5-38 392.55 392.55 0 0 0 -65.5-25q-34-9-95-13t-151-4q-192 0-276 69a130.36 130.36 0 0 0 -3 20.5q-1 12.5-1 27.5zm788 857q38 0 64.5-20.5t26.5-61.5q0-59-30-134-28-76-65-128l-88-19q-101-21-101-96-34 14-60.5 23t-43.5 14q-34 9-59 16t-33 3q-38 0-38-49v-11l-18 2h-34l-19-2v11q0 49-39 49-9 0-33.5-4.5t-63.5-15.5q-77-21-97-36 0 76-104 98l-86 17a638.11 638.11 0 0 0 -40 66.5 582.74 582.74 0 0 0 -30.5 68.5 453 453 0 0 0 -19 66q-6.5 32-6.5 59 0 41 26.5 62.5t66.5 21.5q29 0 36-13 8-15 20-86 26-146 85-146 17 0 17 20 0 13-4 31.5t-8.5 40.5q-4.5 22-8 47a368 368 0 0 0 -3.5 51q0 37 13.5 56.5t37.5 30.5q12 6 30.5 8.5t43.5 4.5q26 1 72 1h195l80-1 50 1q74 2 103-24t29-78a350 350 0 0 0 -3.5-49.5q-3.49-24.49-8-46.5t-8-40.5a177.89 177.89 0 0 1 -3.5-32.5q0-20 18-20 59 0 85 146 7 40 11.5 62.5t8.5 27.5q9 9 36 9zm195-69q0 62-23 103-22 39-108 59-42 9-86.5 16t-92.5 12l-137 14q-47 5-99.5 7.5t-111.5 2.5q-44 0-96-2t-113-8q-211-19-271-33-29-7-65.5-14.5t-62.5-27.5q-35 8-65 8-130 0-164-36-5-5-5-146 0-54 .5-114t3.5-127q2-68 5.5-110.5t7.5-60.5l11-30q14-37 23-59.5t10-33.5q5-39 6.5-115.5t1.5-193.5v-71q0-59 46-59 28 0 43 13t13 39l-4 56a672.84 672.84 0 0 0 -1.5 94q2.5 49 3.5 103 2 55 3.5 93.5t4.5 59.5q7 41 54 130 13 26 18.5 72t5.5 113l47-75-4-22q0-52 49-86a169.37 169.37 0 0 1 53.5-26q28.5-8 62.5-8 41 0 56 6a117.82 117.82 0 0 1 3-27.5 85.31 85.31 0 0 1 8-21.5q-63-57-97-127t-27-155l3-33q-41-24-59-43-41-45-60-197-17-124-29.5-265.5t-10.5-306.5q2-197 64-297a405.19 405.19 0 0 1 80-90.5q47-39.5 111-66.5t146.5-40.5q82.5-13.5 186.5-13.5 207 0 337 56 128 55 189 159 29 52 44.5 124.5t15.5 168.5q0 129-7 247.5t-21 228.5l-11 93q-12 104-38 163t-71 74l3 39q5 85-28.5 155t-96.5 127q11 19 11 49 19-6 56-6 59 0 112 35 54 35 54 86l-3 21 34 54 29 54q28 51 40.5 104a473.42 473.42 0 0 1 12.5 109z"/></svg>