<svg viewBox="0 0 1920.01 1718.08" xmlns="http://www.w3.org/2000/svg"><path d="m140 325q0-52 35-108 38-56 107-106 70-51 104-51 27 0 52 34t25 69q0 37-47 105-26 38-46.5 85.5t-29.5 104.5l-3 17q-1 34-25 34-30 0-63-19a137.34 137.34 0 0 1 -46-26.5 182.7 182.7 0 0 1 -34-39.5 185.64 185.64 0 0 1 -21.5-47.5 181.67 181.67 0 0 1 -7.5-51.5zm1305-160q0-35 25-69 25-36 52-36 32 0 101 49 69 50 107 105.5t38 109.5a181.43 181.43 0 0 1 -29 99.5q-29 45.5-79 66.5-20 8-35.5 13.5t-27.5 5.5q-28-6-28-36l-1-15q-15-65-34-112t-41-77q-48-64-48-104zm-397 987q-45 0-45-104 0-103 45-103 48 0 48 103 0 104-48 104zm-156-104q0 104-46 104-47 0-47-104 0-103 47-103 46 0 46 103zm513-96a81.78 81.78 0 0 0 39.5-10 118.42 118.42 0 0 0 55.5-65.5 140.55 140.55 0 0 0 8-47.5 136.31 136.31 0 0 0 -8-47 130.66 130.66 0 0 0 -21.5-38.5 104.35 104.35 0 0 0 -32.5-26.5 86.64 86.64 0 0 0 -41-10 85.32 85.32 0 0 0 -39.5 9.5 105.73 105.73 0 0 0 -32.5 26 123.79 123.79 0 0 0 -22 39 143.84 143.84 0 0 0 -8 48.5 140.79 140.79 0 0 0 8 47.5 123.79 123.79 0 0 0 22 39 105.73 105.73 0 0 0 32.5 26 85.32 85.32 0 0 0 39.5 9.5zm-332 405 14-42a630.71 630.71 0 0 1 -70 10q-35 3-71 3-75 0-133-13a206.93 206.93 0 0 0 17 52 178.48 178.48 0 0 0 32 46q20 22 43 32a114.53 114.53 0 0 0 46 10q79 0 122-98zm-660-528a140.79 140.79 0 0 0 8 47.5 129.56 129.56 0 0 0 21.5 39 104.47 104.47 0 0 0 32.5 26.5 86.7 86.7 0 0 0 41 10 85.29 85.29 0 0 0 39.5-9.5 105.5 105.5 0 0 0 32.5-26 131.17 131.17 0 0 0 22.5-39 133.19 133.19 0 0 0 8.5-47.5 140.55 140.55 0 0 0 -8-47.5 129.35 129.35 0 0 0 -21.5-39 104.35 104.35 0 0 0 -32.5-26.5 86.64 86.64 0 0 0 -41-10 89.14 89.14 0 0 0 -39.5 9 104.86 104.86 0 0 0 -33 25.5 118.73 118.73 0 0 0 -22.5 39 143.84 143.84 0 0 0 -8 48.5zm527 5q-123 0-200 67-76 67-76 176 0 82 74.5 128.5t207.5 46.5q75 0 128.5-11.5t87.5-34.5q34-23 49.5-56.5t15.5-78.5q0-53-20-94.5t-60-75.5q-82-67-207-67zm854-351q63 139 94.5 264.5t31.5 237.5q0 226-117 397-57 84-140.5 147t-190 104.5q-106.5 41.5-235.5 62.5t-278 22q-223 2-401-46t-302.5-141q-124.5-93-190.5-227.5t-65-306.5a987.59 987.59 0 0 1 8.5-107.5q7.5-57.5 23.5-126.5a1314.19 1314.19 0 0 1 37.5-136.5q22.5-67.5 51.5-136.5 26 35 83 67 55 30 108 30 50 0 77-31t27-76v-5q27-105 70-169 56-80 56-142a161 161 0 0 0 -4-35q-4-18-14-40 201-89 427-89 238 0 435 83-21 46-20 84 0 26 14.5 60.5t42.5 77.5a469 469 0 0 1 41.5 80.5q17.5 43.5 26.5 94.5 4 45 31 76t75 31q24 0 51.5-8a305.65 305.65 0 0 0 105-55 247.13 247.13 0 0 0 40.5-41z"/></svg>