<svg viewBox="0 0 2470 1524" xmlns="http://www.w3.org/2000/svg"><path d="m2470 1108v14q0 44-54 44-56 0-56-48l8-48q0-30-30-74t-41-44q-4 0-4 8l3 55 4 51 8 39 6 41a311.22 311.22 0 0 1 -2.5 37.5q-2.5 20.5-7.5 43.5a392.75 392.75 0 0 0 -7 50q-2 26-2 54v29l2 27q1 17 30 43 26 22 26 39 0 24-25 37.5t-58 13.5q-45 0-66.5-27t-18.5-65l8-109v-26q0-31-1-49t-2.5-28q-1.5-10-5-13a11.32 11.32 0 0 0 -7.5-3q-11 0-15 13.5t-2 57.5l6 123q1 37-4 61t-16 38.5a59.45 59.45 0 0 1 -27.5 20.5q-16.5 6-37.5 6-34 0-58-14.5t-24-36.5q0-16 9.5-23.5t21-16a84.05 84.05 0 0 0 20.5-22.5q9-14 8-44l-6-125-8-51-4-41a244.88 244.88 0 0 1 7.5-58.5 442.91 442.91 0 0 0 10.5-58.5 176 176 0 0 1 -19 31.5q-11 14.51-34 13.5-21-1-44.5-17t-46.5-45.5q-23-29.5-44-72.5t-39-99q-18-57-30.5-88t-23.5-31q-16 0-16 30 0 26 7.5 61t29.5 77l22 41q21 39 33.5 63.5t14.5 35.5q0 26-22.5 42t-62.5 29q-7 2-12 3.5t-9 7q-4 5.51-7.5 15.5t-7.5 29q-4 18-7.5 39t-6 42q-2.51 21-4 41t-1.5 36q0 57 14 67 9 8 18 15a148.42 148.42 0 0 1 17 15.5 74 74 0 0 1 13 19q5 10.5 5 24.5 0 28-18 41.5t-46 13.5q-58 0-76.5-23.5t-16.5-68.5l8-193q3-84-25-84-11 0-18 21t-5 63l8 193q2 45-16.5 68.5t-76.5 23.5q-64 0-64-53 0-18 5-28.5a51.17 51.17 0 0 1 12.5-17q7.5-6.49 16-12.5a77.6 77.6 0 0 0 16-15.5q7.5-9.49 12.5-25t5-41.5a510.54 510.54 0 0 0 -3-52q-3-29-8-63-10-67-20-86-5-9-22.5-14.5t-36.5-13a123.57 123.57 0 0 1 -34-20q-15-12.49-15-34.5 0-27 46-101 20-32 40-91 20-60 20-90t-16-30q-10 0-20.5 26.5t-24.5 67q-14 40.5-32.5 87.5a485.36 485.36 0 0 1 -44.5 87q-9 48-33.5 68.5t-52.5 20.5q-30 0-54-20t-24-50a301.9 301.9 0 0 1 7.5-69 297.28 297.28 0 0 0 7.5-68 218.66 218.66 0 0 0 -5-47.5 189.24 189.24 0 0 0 -13-39.5q-8-17-17-27t-17-10q-26 0-26 26l4 37q7 60 14.5 97t7.5 57q0 35-7.5 62.5a195.57 195.57 0 0 1 -21.5 50.5q-10 17-13.5 56t-3.5 100q0 117 24 135 45 35 45 71 0 66-85 66-66 0-100.5-29t-30.5-87l11-182q2-39-5-58.5t-20-19.5q-12 0-19 19.5t-5 58.5l9 184q2 33-8 55t-28 35q-18 13-42.5 18.5a239.09 239.09 0 0 1 -52.5 5.5q-85 0-85-66 0-35 45-71 25-20 25-137 0-129-16-154-30-46-30-117 0-20 7.5-58t13.5-95l5-35q0-25-26-25-8 0-17 9.5t-16.5 26.5a211.84 211.84 0 0 0 -12.5 39.5 223.59 223.59 0 0 0 -5 48.5 317.41 317.41 0 0 0 7 68 322.37 322.37 0 0 1 7 69 58.73 58.73 0 0 1 -6.5 27.5 74 74 0 0 1 -17.5 22 78 78 0 0 1 -25 14.5 85.65 85.65 0 0 1 -29 5q-18 0-31.5-6.5a80.54 80.54 0 0 1 -24.5-18.5h-6l-20 12q-40 32-69 32 17 48 25.5 77.5t8.5 38.5q0 18-30 32-14 6-26.5 10t-23.5 7l-11 112q0 26 8 37a76.84 76.84 0 0 0 18 18 134.28 134.28 0 0 1 18 15q8 8 8 29 0 14-6.5 24a50.32 50.32 0 0 1 -16.5 16 80.41 80.41 0 0 1 -22 9 91.27 91.27 0 0 1 -22 3q-36 0-54.5-24.5t-18.5-90.5v-133l-14 2v131q0 115-72 115a91.27 91.27 0 0 1 -22-3 80.41 80.41 0 0 1 -22-9 58.05 58.05 0 0 1 -17-15.5q-7-9.49-7-23.5a49.29 49.29 0 0 1 6-24q6-11 20-19 27-19 26-50l-9-116q-16-4-32.5-9.5a289.17 289.17 0 0 1 -29.5-11.5q-13-6-21-13.5t-8-17.5q0-8 6-30.5t20-61.5a47 47 0 0 0 -11.5 11.5 103 103 0 0 0 -7.5 12.5q-23 42-70 42-22 0-38-14t-16-31q0-40 65-64l20-21q18-25 33.5-50t30.5-49.5q15-24.5 31.5-50t37.5-52.5q-22-6-44-36l-12 7-13 5q-8 0-11.5-8t-11.5-8a15.64 15.64 0 0 0 -12 5.5q-5 5.5-10 5.5-6 0-10.5-8.5a89.2 89.2 0 0 1 -7.5-21.5 222.5 222.5 0 0 1 -4.5-28.5q-1.5-15.5-1.5-29.5 0-66 34-125 35-62 88.5-91.5t104.5-29.5q100 0 164 79 64 81 64 167a262.65 262.65 0 0 1 -1.5 28 157.63 157.63 0 0 1 -6.5 30q-8 30-16 30-5 0-10-5.5a15.64 15.64 0 0 0 -12-5.5q-8 0-11.5 8t-11.5 8l-13-5-11-7q-10 16-45 37a146.71 146.71 0 0 1 29 32q12 18 20 32a113.58 113.58 0 0 1 9 18l8 20 7.5 17.5q7.5 17.5 7.5 9.5 7-41 48-46 1-103 68-236 34-67 76-118.5t94-86.5q41-29 41-41t-17-25q-91-72-91-189 0-106 67-174 68-68 173-68 98 0 170 66 71 65 71 171 0 122-90 194-18 15-18 25 0 11 11 19l30 22q82 60 133 142.5a805.88 805.88 0 0 1 81 174.5q28-81 52.5-135.5t45.5-83.5q43-58 104-85 17-8 27.5-12t10.5-21q0-5-10-14t-32-21q-35 41-104 41-59 0-59-29 0-9 15-26 27-27 26-76l-1-67q-1-62 15-109.5t45-80a185.08 185.08 0 0 1 70-49q41-16.5 91-16.5 52 0 94 17.5t71 50q29 32.5 44 80t14 107.5l-1 67q-1 49 26 76 14 14 14 26 0 29-59 29-70 0-103-41-17 11-30 19.5t-13 15.5q0 17 10.5 21.5t30.5 11.5q52 19 95 76 22 27 52.5 94.5t68.5 174.5q9 27 20 38l17-1q21-1 38 16l15-24a267.58 267.58 0 0 1 23-33q13-16 33-32-105-61-105-173 0-38 13.5-70.5t39.5-62.5a201.08 201.08 0 0 1 62-47q35-17 80-17h13q42 0 77.5 15.5a197.62 197.62 0 0 1 63.5 44.5q56 58 56 137a178.29 178.29 0 0 1 -7.5 50.5 215.63 215.63 0 0 1 -21 48.5 208.36 208.36 0 0 1 -32.5 42 164.38 164.38 0 0 1 -43 31l8 10 8 7q17 14 37.5 32a495.84 495.84 0 0 1 43.5 44q43 48 63 96l19 67a185.12 185.12 0 0 1 9 20.5q3 8.5 5 13.5z"/></svg>