<svg viewBox="0 0 2108 2109" xmlns="http://www.w3.org/2000/svg"><path d="m1777 1292q0 49-77 49-42 0-63-8.5t-21-40.5q0-33 21-42t63-9q77 0 77 51zm0 161q0 50-85 50-38 0-57-9t-19-41q0-32 21-41t63-9q77 0 77 50zm-464-161q0 49-76 49-45 0-66-8.5t-21-40.5q0-33 22.5-42t64.5-9q76 0 76 51zm233 0q0 49-77 49-45 0-65.5-8.5t-20.5-40.5q0-33 22-42t64-9q77 0 77 51zm0 161q0 50-85 50-40 0-59-9t-19-41q0-32 22-41t64-9q77 0 77 50zm-233 0q0 50-85 50-40 0-59-9t-19-41q0-32 22.5-41t64.5-9q76 0 76 50zm464-324q0 51-77 51-41 0-62.5-9t-21.5-42q0-20 11.5-34.5t34.5-14.5h37q14 0 25.5 1a127.42 127.42 0 0 1 22.5 4q30 15 30 44zm-231 0q0 51-77 51-42 0-64-9t-22-42q0-20 11.5-34.5t35.5-14.5h36q14 0 26 1a107.92 107.92 0 0 1 22 4q32 15 32 44zm-233 0q0 51-76 51-42 0-64.5-9t-22.5-42q0-20 12-34.5t35-14.5h37q14 0 25.5 1a127.42 127.42 0 0 1 22.5 4q31 16 31 44zm-373-678-10 1q-17 0-26-11.5a41.8 41.8 0 0 1 -9-26.5q0-18 17-28t52-8l100 5 101-9h16l17 3q28 4 63 7.5t80 3.5a895.2 895.2 0 0 0 100-5.5 851.08 851.08 0 0 1 95-5.5q34 0 34 37 0 23-16.5 35t-48.5 10l-93-4a152.35 152.35 0 0 0 -32.5 1.5q-16.5 2.5-32.5 5.5t-32.5 5a132.85 132.85 0 0 1 -32.5 0l-84-7-86 3a214.12 214.12 0 0 1 -31-2.5q-17-2.5-36-5.5t-39-5a267.29 267.29 0 0 0 -40-1zm39-154q-15 0-26.5-12t-11.5-27q0-13 11-24.5t29.5-19.5q18.5-8 42.5-12a245.57 245.57 0 0 1 50-3l128 7 41-3a43.09 43.09 0 0 1 17 1.5q9 2.5 18.5 6t19 6a54.48 54.48 0 0 0 19.5 1.5l67-6a260.39 260.39 0 0 1 39 1q21 2 42.5 5t43.5 5.5a257.28 257.28 0 0 0 42 1.5l26-2q41-1 41 43 0 15-10 29.5t-31 14.5a324.67 324.67 0 0 1 -77-9 324.67 324.67 0 0 0 -77-9l-108 9a140.74 140.74 0 0 1 -32-3.5l-30-7-31.5-7q-31.5-7-35.5-3.5a696.43 696.43 0 0 0 -107.5 8.5q-54.5 8.5-99.5 8.5zm-34 342-46 6q-18 0-28.5-13t-10.5-28q0-22 28.5-34.5t77.5-12.5a188.62 188.62 0 0 1 53.5 7.5 185.09 185.09 0 0 0 52.5 7.5 391.54 391.54 0 0 0 65.5-5.5 397.52 397.52 0 0 1 66.5-5.5h27l134-7a209 209 0 0 1 58 6 177.42 177.42 0 0 0 56 5l22-1q35-2 35 37 0 28-21.5 41t-82.5 11l-190-8a301.54 301.54 0 0 0 -74.5 5.5 409.59 409.59 0 0 1 -78.5 7.5q-40 0-74-9.5a259 259 0 0 0 -70-9.5zm97 641v56q0 51-3.5 84t-11 52.5q-7.5 19.5-19.5 27.5t-29 8l-153 4q-90 2-140.5-.5t-61.5-7.5q-22-8-31.5-31t-9.5-74q0-23 5-64t15-101q15-86 45-110 32-25 201-25h37l83 7q20 2 34 10.5t22.5 28q8.5 19.5 12.5 52.5t4 83zm-558-292q0-89-102-89-107 0-162 132-19 45-35 105.5t-28 137.5q-23 152-34 243t-9 137q2 63 27 94.5t79 31.5q151 0 151-146a240.83 240.83 0 0 0 -3-36.5 199.25 199.25 0 0 0 -11-40.5 182.9 182.9 0 0 1 -11-38.5 221.89 221.89 0 0 1 -3-35.5 1027.92 1027.92 0 0 1 5.5-110q5.5-51 13.5-96l9-47q20-117 68-162 45-43 45-80zm236-312v82q0 54 16 80 18 27 56 33 20 3 79.5 4t158.5 1h104l293-1q197-2 216-7 22-6 20-40l-2-113q-5-191 33.5-335t112.5-241q7-9 19.5-18.5t12.5-20.5q0-8-22-8l-197 4-557-5q-48-1-79.5 2.5t-45.5 8.5q-13 5-31.5 22.5t-41.5 49.5a707.94 707.94 0 0 0 -44 66 749.8 749.8 0 0 0 -66 147.5 763.36 763.36 0 0 0 -20 75.5q-8 38-11.5 91t-3.5 122zm1285 978q0-69-16.5-175.5t-54.5-252.5l-20-81q-25-97-85-141.5t-172-42.5l-754 7-292-4q-36-2-41 21-12 59-29 101t-40 65q-11 11-20 32t-15 53q-5 32-11 64t-12 66q-12 68-9 90l5 57 8 58 9 127v41l-2 19-9 33q0 28 35.5 36.5t94.5 7.5l666-8 394 4q78 1 136-4t96-14q39-9 65-21t42.5-30q16.5-18 23.5-44t7-64zm103 9q0 176-43.5 280.5t-146.5 140.5q-12 3-30.5 6t-39.5 5.5q-21 2.51-43 4.5t-40 3q-129 5-263.5 5.5t-275.5.5h-215q-334 0-522-4t-233-11q-23-4-46.5-18t-45-36.5a324.23 324.23 0 0 1 -40-52 329 329 0 0 1 -30.5-62.5q-2-8-3.5-23.5t-5.5-20.5l-4-2q-81-76-81-205 0-23 6-89t20-177q27-219 71-354 22-67 52.5-116.5t65.5-81.5q35-32 73.5-47.5a208.56 208.56 0 0 1 78.5-15.5q77 0 134 45 7 6 13 12a128.31 128.31 0 0 0 12.5 11 53.7 53.7 0 0 0 15 8q8.5 3 22.5 3 20 0 32.5-3t19-9.5q6.5-6.5 8.5-17t1-25.5l-4-116q-5-135 19-249t69-208q89-189 187-223 63-21 189-21l172 2 364-2q206 0 278 6 36 3 58.5 5.5t30.5 5.5q17 4 28 14t11 26q0 21-17 34l-33 23q-105 74-156 215.5t-51 350.5q0 137 6 167t24 33q77 14 121 59 21 22 44.5 71.5t46.5 126.5q49 157 71 308 12 78 18.5 132t6.5 86z"/></svg>