<svg viewBox="0 0 2090 2275" xmlns="http://www.w3.org/2000/svg"><path d="m1624 1657 28 1q75 4 113-19.5t38-66.5q0-19-8-45-38 35-80.5 67.5t-90.5 62.5zm-600 381q165 0 165-95 0-26-13-61-198 69-344 69h-18l-17-2-82 41q77 18 128.5 28t79.5 13q28 4 53 5.5t48 1.5zm244-797-283-238q29 63 29 135a414.09 414.09 0 0 1 -9 85q11 9 40 40.5t74 83.5q92 107 160 199l12 16q37-99 37-271v-11q-50-22-60-39zm-746 146q60 0 103-46 42-46 42-113 0-72-53-128-51-56-122-56-29 0-53.5 11.5a138 138 0 0 0 -43 31.5 145.59 145.59 0 0 0 -29 47.5 162.57 162.57 0 0 0 -10.5 58.5q0 77 49 135 49 59 117 59zm820 252 34 56 11-7q23-11 61.5-32.5t93.5-54.5q54-34 96.5-66t74.5-64q63-63 97-134.5t34-149.5a80.4 80.4 0 0 1 -23.5-3.5 212.87 212.87 0 0 1 -22-8q-10.5-4.5-20-8.5t-16.5-4h-8l-129 50-163 67a150.32 150.32 0 0 1 -24.5 8.5 239.87 239.87 0 0 1 -28.5 5.5l1 43q2 73-12.5 140.5a820.39 820.39 0 0 1 -40.5 132.5 172.9 172.9 0 0 1 -15 29zm680-583q0-7-8-15t-15-16q-18-16-110-102t-258-243q-10 11-26 18l-57 19 3 34a144.16 144.16 0 0 1 -3.5 46.5 166.66 166.66 0 0 1 -15 40q-9.49 17.5-22.5 28t-27 10.5q-71 0-71-57 0-13 6.5-28a142.65 142.65 0 0 0 9.5-32l-112 39 5 42a195 195 0 0 1 -5.5 46.5 176.29 176.29 0 0 1 -15 40.5q-9.49 18-22 28.5t-26.5 10.5q-70 0-70-55 0-17 8-34.5a89.19 89.19 0 0 0 8-37.5l-213 75 163 138 165 137q15 12 32.5 25t46.5 13q30 0 48-9l33-17 220-89a367.61 367.61 0 0 1 38-13 130.66 130.66 0 0 1 35-5q20 0 59 15 40 17 61 17 13 0 18-6l48-23q32-15 50-24t20-17zm-1335-709q0 8 5 20.5t14 30.5l191 405 21 49 4 8 250-87a55.06 55.06 0 0 0 -23-14 238.34 238.34 0 0 1 -26-9 74.34 74.34 0 0 1 -21-13 58.44 58.44 0 0 1 -14.5-20.5q-5.5-12.5-5.5-32.5 0-49 53-49a141.45 141.45 0 0 1 48.5 8.5 209 209 0 0 1 44 22 192.94 192.94 0 0 1 36.5 31 189 189 0 0 1 26 35.5l120-43q-19-19-37-23-29-7-44.5-21.5t-15.5-50.5q0-50 53-50a149.35 149.35 0 0 1 45.5 7.5 185.69 185.69 0 0 1 45 21.5 208.45 208.45 0 0 1 39.5 33.5 165.21 165.21 0 0 1 29 43.5l55-19-33-62q-14-27-37.5-65.5t-53.5-90q-30-51.49-65.5-116t-73.5-144.5l-12-26q-27-57-53-57a63.49 63.49 0 0 0 -17 2.5q-9 2.5-22 5.5-44 9-70.5 15t-37.5 14q-19 13-19 56a45.48 45.48 0 0 1 -14.5 34q-14.5 14-27.5 18l-296 86q-30 9-45.5 19.5t-15.5 26.5zm-35 106-28-67q-248 56-397 242-149 185-149 446 0 218 105 405 105 186 279 291 174 104 370 104 175 0 298-87-30-51-81.5-117t-122.5-154l-71-88q-83 42-161.5 63.5a590.37 590.37 0 0 1 -156.5 21.5q-126 0-212-101-84-100-84-236 0-124 72-202t177-126q107-49 198-49a318.43 318.43 0 0 1 76.5 9 234.38 234.38 0 0 1 68.5 29zm1438 602a73.11 73.11 0 0 1 -15 45q-15 20-55 40l-63 31q0 77-13 126 108 179 108 301 0 72-43 142-41 68-100 99.5t-154 31.5a1481.47 1481.47 0 0 1 -151-8q-78-8-164-24a398.77 398.77 0 0 1 16.5 66 424.79 424.79 0 0 1 5.5 68q0 80-44 153-22 38-48.5 65.5a259 259 0 0 1 -60.5 46.5q-34 19-77 28t-97 9q-128 0-265.5-22t-304.5-67q-83-22-143.5-43t-99.5-43.5q-39-22.5-58-47.5t-19-55q0-43 30-76.5t90-62.5l55-26q-195-120-308-323-112-203-112-441a859.07 859.07 0 0 1 46-279q46-135 132-239 84-104 214-179a1450.42 1450.42 0 0 1 144-72q78-34 172-66t171-57.5q77-25.5 137-42.5 0-41 24.5-68.5t74.5-38.5l90-19a141.62 141.62 0 0 1 20.5-5 156.45 156.45 0 0 1 26.5-2q34 0 57.5 17t41.5 50l292 531 406 380q20 19 30.5 37.5a78.75 78.75 0 0 1 10.5 39.5z"/></svg>