<svg viewBox="0 0 2174 2158" xmlns="http://www.w3.org/2000/svg"><path d="m1746 1364v-493a107 107 0 0 0 -9-43.5 115 115 0 0 0 -24-35.5 116.81 116.81 0 0 0 -35-24 103.56 103.56 0 0 0 -43-9h-1095a103.56 103.56 0 0 0 -43 9 116.81 116.81 0 0 0 -35 24 108.23 108.23 0 0 0 -23.5 35.5 112.4 112.4 0 0 0 -8.5 43.5v493a109.26 109.26 0 0 0 110 110h1095a109.25 109.25 0 0 0 78-32 116.81 116.81 0 0 0 24-35 103.56 103.56 0 0 0 9-43zm428-130q0 119-20 219t-58.5 184.5a720.34 720.34 0 0 1 -95 154.5 927.53 927.53 0 0 1 -128.5 130 890.36 890.36 0 0 1 -157.5 103q-85.5 44-186 73.5t-217.5 44.5q-117 15-253 15-296 0-539-109-123-55-219.5-133t-163-179q-66.5-101-101.5-224.5t-35-269.5a1457.35 1457.35 0 0 1 35-316q35-158 98-314 62-155 159-314 48-79 90.5-138.5t80.5-100.5q36-41 75-41 40 0 65 37.5t48 127.5q21 84 53.5 125.5t83.5 41.5q72 0 127-127 60-135 95-179 34-45 69-45t65 24q14 12 31 38t36 68l31 71q70 157 140 157 40 0 76.5-52t79.5-164q45-116 109-116 36 0 66 34 48 56 101.5 136.5t113.5 188.5q60 107 105.5 211a1875.5 1875.5 0 0 1 77 208 1468.93 1468.93 0 0 1 63.5 430z"/></svg>