<svg viewBox="0 0 2254 2097" xmlns="http://www.w3.org/2000/svg"><path d="m1429 959h-10q-58 0-64-78-4-46-13-62t-30-16q-23 0-40.5 11.5t-29.5 32.5q-12 21-18.5 50a288.09 288.09 0 0 0 -6.5 63q0 96 75 158 74 61 178 61 113 0 187-70 77-71 77-177 0-86-50-159-48-74-112-74a116.63 116.63 0 0 0 -45.5 9 131.44 131.44 0 0 0 -38 24 123.43 123.43 0 0 0 -26.5 34 94.61 94.61 0 0 0 -11 40q-1 22 21 50t22 50q0 23-19.5 38t-45.5 15zm-412-144q-30 0-50.5 25.5t-20.5 60.5q0 41 21 67t54 26q30 0 51-25t21-62q0-40-21.5-66t-54.5-26zm-484 45q0 32 17.5 56t49.5 24a72.46 72.46 0 0 0 31-7 86.24 86.24 0 0 0 27-20 95.94 95.94 0 0 0 19-31.5 113.46 113.46 0 0 0 7-40.5q0-32-18-55.5t-50-23.5a62 62 0 0 0 -31 8.5 98.38 98.38 0 0 0 -26.5 22 110.85 110.85 0 0 0 -18.5 31 97.32 97.32 0 0 0 -7 36.5zm228 416 18-2q-12-19-12-73 0-14 13-20l32-6q79-13 79-56 0-25-22-25-14 0-41 15-28 17-57 17-44 0-74-41-14-18-33-18t-19 22a62 62 0 0 0 3.5 21.5 50.09 50.09 0 0 0 12 18 222.6 222.6 0 0 0 21.5 18.5q13 10 31 24l4 10v8l-2 43q-2 21 7 32.5t39 11.5zm-672-513q0 45 13 82.5t37 64.5a166.43 166.43 0 0 0 58 42q34 15 76 15 65 0 115-44t50-113a72.39 72.39 0 0 0 -2.5-18.5 105 105 0 0 0 -6.5-18 67.65 67.65 0 0 0 -8.5-14q-4.5-5.5-8.5-5.5l-18 15q-30 39-73 39-26 0-43.5-18t-17.5-46q0-21 11-35a239.55 239.55 0 0 1 -23-38.5 312.37 312.37 0 0 1 -18.5-47.5 330.56 330.56 0 0 1 -11-51 239.11 239.11 0 0 1 -1.5-51l1-19-6 5q-57 45-90 111.5t-33 144.5zm2077 309q0-38-18.5-68t-51.5-41q-25-8-42.5-20t-17.5-40q0-19 16-45 10-23 14-38.5t4-24.5q0-88-91-134-38-13-58-34t-20-43l19-79 4-34q0-69-74-129-37-30-74-46t-75-16l-55 7q-23 0-43.5-15.5t-35.5-47.5q-16-33-77-59-59-24-120-24-44 0-77 13.5t-70 35.5q-6 6-20 6-29 0-41-26-17-38-58-60.5t-98-22.5q-44 0-79 12.5t-78 48.5q-14 19-37 19l-19-6q-35-17-60-26.5t-40-8.5q-25 0-53.5 11a200 200 0 0 0 -52 29.5 147.62 147.62 0 0 0 -38 44.5q-14.5 26-11.5 57 7 0 16 4.5a110.86 110.86 0 0 1 17 10.5 77 77 0 0 1 14 13.5q6 7.5 6 13.5 0 22-46 26-47 5-86 23t-71 51q-65 67-65 152 0 63 41 118a98.64 98.64 0 0 1 48-12q25 0 52 15-3-10-5-17a45 45 0 0 1 -2-12q0-36 9.5-57t25.5-21q16 0 26 41 9 41 73 41 50 0 109-30l16-12a344.16 344.16 0 0 1 25.5-28q10.5-10 18.5-7 14 0 31 51l7 15q27 33 85 33 36 0 89-22a124.16 124.16 0 0 0 32.5-20 53.66 53.66 0 0 1 35.5-13q21 0 21 23l-7 35q0 54 60 54 73 0 155-52 15-9 24-9 17 0 17 19l-4 20h13q34 0 60 18a202.09 202.09 0 0 1 35.5-53 222.3 222.3 0 0 1 47-38.5 215.78 215.78 0 0 1 54-23.5 208.43 208.43 0 0 1 56.5-8q101 0 175 99 76 98 76 223 0 72-27.5 133a332.77 332.77 0 0 1 -75 106q-47.51 45-112 70.5t-138.5 25.5a402.33 402.33 0 0 1 -85.5-9 377.28 377.28 0 0 1 -77.5-25.5 330 330 0 0 1 -64.5-38.5 227.38 227.38 0 0 1 -47.5-49q-144 190-374 190-121 0-215-44-47-22-80.5-54a288 288 0 0 1 -54.5-70.5 296.74 296.74 0 0 1 -30-81 341.23 341.23 0 0 1 -7-86.5q-68 56-170 56l25 39q33 33 33 61 0 11-12 42-20 35-20 81 0 95 83 149 13-37 38-37 9 0 12.5 11.5t5.5 34.5l2 70a209.5 209.5 0 0 0 13 62q11 29 37 52 53 48 123 48l13-2q-6-6-6-35 0-17 9-18 16 0 62 59 41 52 108.5 80t145.5 28q114 0 185-62l57-66q11-12 22.5-27t28.5-15q16 0 16 30a107.07 107.07 0 0 1 -8 40l27 7a401.36 401.36 0 0 0 41.5 7.5q25.5 3.49 61.5 3.5a421.77 421.77 0 0 0 68.5-5.5 402.91 402.91 0 0 0 62-15 291.73 291.73 0 0 0 51.5-22.5q23-13 38-27l25-32 23-24a98.32 98.32 0 0 0 12-15q6-9 12-17.5a60.16 60.16 0 0 1 13.5-14 27.26 27.26 0 0 1 16.5-5.5q13 1 13 18 0 31-22 62 18 10 33 14a112.28 112.28 0 0 0 29 4h7q89 0 137-67l21-44q0-7 17-46 16-37 27-37t16.5 14.5q5.5 14.5 5.5 26.5 46-11 77-56 33-50 33-100a70 70 0 0 0 -1-12.5 38.86 38.86 0 0 0 -3.5-10.5q-2.51-5-6.5-11.5t-10-16.5l-5-6a37.52 37.52 0 0 1 -7-22q0-39 68-62 48-24 48-96zm88 2q0 59-25.5 104.5t-70.5 67.5a173.72 173.72 0 0 1 13 66q0 86-57 161v19l29 154q8 40 17.5 79.5a347.47 347.47 0 0 1 9.5 81.5q0 36-28.5 56.5t-65.5 20.5a108.79 108.79 0 0 1 -46.5-10.5q-22.5-10.5-45-35.5t-45-67.5q-22.5-42.5-47.5-105.5-61 42-143 42l-21-3-13 66q-24 115-115 115-42 0-62-17.5t-30-59.5l-10-39q-34 9-67.5 14.5a298 298 0 0 1 -66.5 3.5l-83-6-1 16v20l2 116q1 47-8 78t-25.5 50.5q-16.5 19.5-38.5 27.5a136.55 136.55 0 0 1 -47 8q-42 0-79.5-31t-52.5-84l-21-120q-20 3-38.5 5a331.46 331.46 0 0 1 -35.5 2q-122 0-226-59-20 49-46.5 87.5t-56.5 65.5q-30 27-62.5 41.5t-65.5 14.5q-41 0-70.5-23.5t-29.5-63.5q0-21 17.5-61t40.5-104l20-56q-112-75-113-199-70-38-106-101t-36-135q0-60 27-116-50-62-64-124-81-32-123-105t-42-172q0-122 73-232 74-111 189-145a306.35 306.35 0 0 1 82-82.5 247 247 0 0 1 107-41.5q0-48 32-102 34-57 91-88t120-31q53 0 112 31a296.8 296.8 0 0 1 40-25.5q20-10.5 25-13.5 62-29 135-29 140 0 211 92 64-39 154-39 103 0 177 39.5t106 105.5l10-1q16-6 37-6a274.46 274.46 0 0 1 108 22q52 22 103 65 99 84 99 187a316 316 0 0 1 -4 46.5q-4 26.5-12 60.5 163 80 163 219 0 42-21 91 117 59 117 192z"/></svg>