<svg viewBox="0 0 2232 2217" xmlns="http://www.w3.org/2000/svg"><path d="m99 2119h2083q20 0 35 14.5t15 34.5q0 20-15 34.5t-35 14.5h-2132q-21 0-35.5-14.5t-14.5-34.5v-2119q0-20 14.5-34.5t35.5-14.5q20 0 34.5 14.5t14.5 34.5v62l290 288 190-146q17-14 41-14 47 0 64 44l508 1295 217-403q20-36 57-36 48 0 67 40l214 464 408 340q25 22 25 54 0 28-21 48t-49 20q-24 0-44-16l-417-351a59.76 59.76 0 0 1 -19-24l-164-353-223 413q-20 36-58 36-51 0-67-43l-529-1349-165 126a63.62 63.62 0 0 1 -42 15q-26 0-48-20l-235-236z"/></svg>