<svg viewBox="0 0 2196 1690" xmlns="http://www.w3.org/2000/svg"><path d="m519 510q28 0 44-21t16-49q0-28-17-48t-45-20q-23 0-41.5 19t-18.5 49q0 26 17 48t45 22zm-349 102 82 9 18-2q-53-132-76-132a18.58 18.58 0 0 0 -12 4q-3 1-17 14t-38 36l-13 14q-19 19-30 29.5t-13 15.5l54 7h16zm2026-56a110.62 110.62 0 0 1 -18 61q-17 27-44 49-28 23-123 67-21 10-49.5 25.5t-63.5 37.5q-132 81-212 132.5t-110 76.5q11 6 25 19 34 25 34 55 0 33-20 57.5t-46 34.5l-5 6q-17 21-30.5 35.5t-24.5 21.5l-57 34q-28 28-76.5 42t-103.5 15a418.92 418.92 0 0 1 -110.5-13 528.23 528.23 0 0 1 -109-41 595.53 595.53 0 0 1 -101.5-65 542.34 542.34 0 0 1 -152-190 452.18 452.18 0 0 1 -38-118q-11-24-19-24t-12.5 11a60.16 60.16 0 0 0 -4.5 23q0 51 33 130a726.55 726.55 0 0 0 39.5 79 533.77 533.77 0 0 0 52.5 75q60 74 132.5 120.5t154.5 63.5l-41 16q16 80 16 116a242.73 242.73 0 0 1 -7.5 61q-7.5 29-15.5 57-4 14-8 26a58.61 58.61 0 0 1 -11.5 20.5q-7.5 8.51-21 13t-35.5 4.5q-62 0-62-28 0-19 16-39 20-23 37-78 18-52 18-98v-15l-1-14a532.56 532.56 0 0 1 -53.5 12.5q-25.5 4.5-49.5 6.5-5 31-8 52.5t-3 35.5q0 61-59.5 97.5t-161.5 36.5q-41 0-41-25 0-20 12-33.5t56-23.5q33-7 56.5-17.5t39.5-26a93.15 93.15 0 0 0 23.5-37.5q7.5-22 7.5-53-141 0-264.5-38.5t-210.5-112.5q-43-37-72.5-76.5a301.87 301.87 0 0 1 -44.5-83.5q-16-44-28.5-115.5t-23.5-172.5a399.41 399.41 0 0 0 -13-66q-9-31-21-62l-15-37-37-2q-50-4-80-22.5t-30-54.5q0-43 59-92 24-19 48-49 2-129 56-228 56-101 172-166 119-65 237-65 156 0 278 101a538.79 538.79 0 0 1 103 117q43 66 68 151 16 57 94 130 80 74 131 74 22 0 46-25t60-79q11-17 29.5-38.5t44.5-47.5a633.5 633.5 0 0 1 50-45.5 230.1 230.1 0 0 1 46.5-29.5 195.22 195.22 0 0 1 49-15.5 326.23 326.23 0 0 1 56.5-4.5 437.39 437.39 0 0 1 70 5.5q34 5.5 66 13.5 16 5 53.5 15.5t97.5 27.5q61 17 110 39a534.52 534.52 0 0 1 90 51q81 57 81 116z"/></svg>