<svg viewBox="0 0 1968 2253" xmlns="http://www.w3.org/2000/svg"><path d="m1485 960-31-26q-3 6-6 18.5t-5 26.5q-2 14-4.5 27.5t-3.5 20.5l1 6 19 5q5-6 12-25.5t18-52.5zm351 97q0-65-31-99.5t-86-34.5q-87 0-115 96-2 8-10 33t-25 51.5q-17 26.51-44.5 47t-69.5 20.5q-35 0-63.5-11.5t-48.5-31.5a132.88 132.88 0 0 1 -30.5-48q-10.5-28-10.5-61a339.22 339.22 0 0 1 10.5-83.5q10.5-41.5 30.5-74t49-52q29-19.5 66-17.5t85 45q44 41 94 41 43 0 78-35 34-36 36-77 1-32-24.5-70.5t-69-72q-43.5-33.5-100-55.5a306.8 306.8 0 0 0 -117.5-21q-91 2-160 50t-109 133l-13 52a322.54 322.54 0 0 1 -10.5 36 82.3 82.3 0 0 1 -14.5 25.5 76.2 76.2 0 0 1 -22 17.5q-13 7-33 12-118 31-222 68a1880.58 1880.58 0 0 0 -196 82 267.83 267.83 0 0 0 -24.5 14q-12.5 8-24.5 14.5t-22.5 11.5q-10.5 5-19.5 5-19 0-19-12 0-17 37-53-72-75-128.5-180a1370.46 1370.46 0 0 1 -94.5-220q-33-98-117-98-52 0-83.5 31.5t-31.5 88.5q0 31 10 73t31 95a1031.78 1031.78 0 0 0 49 105.5q28 52.5 62 106.5t68.5 99q34.5 45 69.5 83a835 835 0 0 0 51 85.5 992.82 992.82 0 0 0 150 174 946.2 946.2 0 0 0 96 77.5q57 40 85.5 78t31.5 74l5 85 229 6q86 3 155.5 0t123.5-6v-110q0-26 26-58.5t72-60.5l62-29a457.85 457.85 0 0 0 93-57 786.4 786.4 0 0 0 82-75q152-160 152-314zm-1137 931q1 0 24 2t65 4.5q42 2.51 101.5 4t133.5.5l428-5q0-37-1.5-61.5t-5.5-38.5q-4-14-11.5-19.5t-20.5-5.5l-277 4q-100 2-188-3t-168-8l-35-2q-19-1-27.5 9t-11.5 27q-3 17-3 41a462.89 462.89 0 0 1 -3 51zm-211-1604v25q0 144 40 287t113 264q111-72 207-105-96-190-120-506-6-70-39.5-102t-81.5-32q-57 0-88 44t-31 125zm367 189q0 140 59 259l102-26q25-11 41-27a115 115 0 0 0 24.5-35.5 144.36 144.36 0 0 0 11-42 304.68 304.68 0 0 0 1.5-46.5l-4-94 5-55q4-15 22.5-60t53.5-120a388.28 388.28 0 0 0 16-43 132.3 132.3 0 0 0 6-38 110.57 110.57 0 0 0 -9-44 115.25 115.25 0 0 0 -24.5-36.5 118.72 118.72 0 0 0 -35.5-24.5 101.19 101.19 0 0 0 -42-9q-67 0-122 84-55 83-80 175t-25 183zm1016 267q97 73 97 217 0 101-49 208-48 104-150 208-52 53-106 91a691.49 691.49 0 0 1 -111 64q-56 26-71 41v81q54 6 65 69 9 65 9 160 45 0 69.5 8t38.5 28q13 19 19 86 3 33 5 61.5t2 54.5v36h-1194l-1-103q-1-31 .5-56.5t3.5-47.5q2-21 4.5-36t7.5-22q10-16 74-22 7-88 18-144 9-55 28-66a107.17 107.17 0 0 1 19-7.5 47.07 47.07 0 0 1 18-1.5l40 3-3-61-15-17-33-32q-48-26-96-68t-99-99q-101-113-148-210a1545.9 1545.9 0 0 1 -120-155.5 1607 1607 0 0 1 -102-174.5q-91-183-91-308 0-112 71-182 73-70 178-70a233.84 233.84 0 0 1 106 25q0-72 17.5-130.5t50.5-100q33-41.5 79.5-63.5t104.5-22q66 0 120.5 30t88.5 85q105-197 264-197 53 0 96 18.5t78 53.5q71 72 71 173a236.49 236.49 0 0 1 -5.5 51 377 377 0 0 1 -15 50.5q-9.49 25.5-22 52.5t-26.5 58q89-43 186-43 180 0 312 114 129 113 129 239 0 39-12 73z"/></svg>