<svg viewBox="0 0 2176 2111.06" xmlns="http://www.w3.org/2000/svg"><path d="m1088 1375q102 0 179-75 78-76 78-180 0-105-76-181-77-77-181-77-109 0-183 75-74 74-74 182 0 106 74 181t183 75zm648-911q116 0 217 60t161 168a517.62 517.62 0 0 1 46 110.5 425.39 425.39 0 0 1 16 116.5q0 151-102 270-101 117-266 164 62 78 91.5 153t31.5 148a396.74 396.74 0 0 1 -15 115.5 466.17 466.17 0 0 1 -46 108 499.19 499.19 0 0 1 -162.5 169 426.18 426.18 0 0 1 -105.5 48.5 371.79 371.79 0 0 1 -115 16q-125-3-224.5-60t-174.5-175a596.58 596.58 0 0 1 -74.5 95 466.81 466.81 0 0 1 -92 74 460.93 460.93 0 0 1 -108.5 48.5q-58 17.5-124 17.5-115 0-218-62a476.92 476.92 0 0 1 -93.5-72.5 465 465 0 0 1 -71-91 442.81 442.81 0 0 1 -45.5-105.5 416.43 416.43 0 0 1 -16-115q0-160 122-312-179-47-274-167-93-120-93-267 0-118 59-223a462.24 462.24 0 0 1 162-170 426.57 426.57 0 0 1 104-46 402.37 402.37 0 0 1 113-16q96 0 204 42l-1-20v-21q0-202 130-334 129-131 317-131t317 134q129 134 129 330v20l-1 22q108-42 203-42z"/></svg>