<svg viewBox="0 0 1982.03 2261" xmlns="http://www.w3.org/2000/svg"><path d="m863 673q17 0 25.5 13.5a52.61 52.61 0 0 1 8.5 28.5q0 14-19.5 33.5t-56.5 48.5l-26 21-118 123-55 48-57 45-17 19q-35 51-58 51-35 0-35-37 0-23 18-47t52-53l32-27 74-77a794 794 0 0 1 67-61.5q36-29.5 68-61.5 22-22 37.5-35.5t27-20.5q11.51-7 19-9a53.1 53.1 0 0 1 13.5-2zm-461 276q-15 0-25-14t-13-28q0-11 18-33.5t50-58.5l116-130q20-22 42-42.5t44-38.5q22-18 41.5-33.5t33.5-26.5q29-23 45.5-29t29.5-6q31 6 31 30 0 28-67 82-38 32-74 65a947 947 0 0 0 -68 69q-32 36-76.5 81t-101.5 100q-12 13-26 13zm1457 790q0-28-12-57a524.15 524.15 0 0 1 -19-53q-43-139-84.5-275.5t-85-269q-43.5-132.5-91-261t-101.5-251.5q-9-21-15-38a249.46 249.46 0 0 0 -11.5-28q-5.51-11-11.5-17t-16-6q-13 0-51 20a1149.66 1149.66 0 0 0 53 173.5q33 83.5 67 168.5 47 117 99.5 270.5t111.5 348.5q10 33 10 60 0 45-22.5 74.5t-73.5 51.5l-48 26q-56 30-118 68t-135 77q-72 38-194.5 105.5t-300.5 167.5q155-55 704-201 79-21 156-46t155-56q34-15 34-52zm-1090 253 160-92 161-89q96-53 189.5-104t191.5-102l36-20q42-21 63.5-40.5t21.5-41.5q0-20-9-41l-17-38-142-397-220-621q-25-50-58-50-8 0-39 17-33 19-46 28l333 752q16 36 24.5 66t8.5 53q0 31-14 62.5t-44 62.5q-195 198-345.5 345t-254.5 250zm-576-1175 390 1195 203-201q182-180 293.5-290.5t159.5-154.5q55-49 55-114l-4-37q-2-16-30.5-88.5t-81.5-204.5q-54-132-107-258.5t-107-250.5q-54-124-84.5-192t-39.5-82q-14-20-30-20-18 0-67 50t-133 145q-42 48-99 115t-129 155q-73 88-119.5 146t-69.5 87zm1789 926q0 40-16 72-15 29-43 49-27 21-100 44l-228 75-231 73-233 63-232 61-69 21q-94 28-165.5 44t-125.5 16a238 238 0 0 1 -110.5-26.5q-51.5-26.5-79.5-86.5-42-90-95.5-250t-120.5-392q-67-232-100.5-362.5t-32.5-162.5q1-44 14.5-79.5a226.92 226.92 0 0 1 37.5-64.5l108-130 259-312q108-131 171.5-204.5t83.5-92.5q32-30 54.5-49t39-30q16.5-11 29-15a83 83 0 0 1 25.5-4q31 0 58 22.5t47 70.5l61 142q10 23 19 35.5t22 12.5q19 0 39-15 56-41 125-41 53 0 70 26 8 14 16.5 27a120.44 120.44 0 0 1 13.5 28q10 30 17 48t12.5 27.5q5.51 9.5 10 12a21.24 21.24 0 0 0 10.5 2.5l26-6q49-20 78-20 30 0 54 31.5t50 92.5l60 143q81 191 129 336l88 262 72 195q82 222 82 311z"/></svg>