<svg viewBox="0 0 2128 2296.17" xmlns="http://www.w3.org/2000/svg"><path d="m449 155q0-49-135-49-51 0-111 6-19 6-29 18-11 11-20 73-8 44-14.5 94.5t-12.5 103q-6 52.5-12 104t-11 96.5q0 30 28 33 32-4 58.5-5.5t47.5-1.5h18l18 1q11-104 22.5-172.5t25.5-102.5q27-68 108-161 19-22 19-37zm505 443q0-48-51-63a670.55 670.55 0 0 0 -73.5-17.5q-36.5-6.5-72.5-11.5l-148-16a692.66 692.66 0 0 1 -133-27l-32-7q-22 0-33 35t-19 104l-6 48q-6 53-12 103.5t-10 101.5l-7 104v17l2 15q37 20 91.5 34t127.5 22q151 16 228 52l36-211q8-48 32.5-104t68.5-122q11-41 11-57zm1014 1499 45-595q2-29-7.5-50.5t-26.5-32.5l-59-8q-69-10-127-22t-106-29q-53 0-61 77l-5 38q-5 51-13 100.5t-15.5 99.5q-7.5 50-12.5 101t-5 104q0 95 31 146 29 36 62.5 59.5t82.5 40.5q51 18 92.5 31t58.5 10q60 0 66-70zm-368-1000q0-24-46-31l-121-19q-74-12-135-23t-110-23.5q-49-12.5-87-28t-66-35.5a105.86 105.86 0 0 1 -23-11q-9-6-18-6-28 0-50 106-11 54-17 119t-13 143q-4 43-6.5 70.5t-2.5 38.5q0 58 25 94a234.74 234.74 0 0 0 62 61q18 12 44 23t64 22q38 11 89.5 22.5t120.5 23.5a658.82 658.82 0 0 1 142 41q11-70 22.5-140t26.5-142q15-71 25.5-115.5t15.5-63.5q2-27 32-71 26-40 26-55zm528 348q0 36-2.5 73.5t-6.5 78.5l-27 325-10 152q-2 38-5.5 76.5t-9.5 76.5a66.64 66.64 0 0 1 -10.5 28 82.91 82.91 0 0 1 -22 22.5 104.28 104.28 0 0 1 -30 14.5 99.1 99.1 0 0 1 -34.5 4l-37-3-34-5q-115-19-216.5-66.5t-195.5-122.5l-20-17q-17-14-26-46-5-17-8.5-49.5t.5-83.5l7-104-17-8q-26-8-54.5-16t-63.5-16q-115-25-197-48t-131-46q-98-45-149.5-111t-51.5-154q0-49 3-97a941.36 941.36 0 0 1 11-96q-35-34-174-55l-141-22q-231-36-231-176 0-32 4-85.5t14-130.5l-65-5a332.6 332.6 0 0 0 -68 3q-34 5-68 11l-15 3q-46 0-46-90 0-57 13.5-155t33.5-242l14-99q4-29 12-63.5t19-51.5q10-17 44-26a366.72 366.72 0 0 1 40-9q23-4 53-7t54-5q24-2 44-2 206 0 234 136 5 44 8 105.5t3 140.5q22 5 64.5 10t108.5 9q325 21 325 192 0 46 3 102t8 125q59 71 256 101 115 17 188.5 30t105.5 22q64 18 85 38t32.5 50.5q11.5 30.5 9.5 85.5l-2 110q26 8 72.5 17t115.5 20q63 10 102 19.5t54 17.5q28 11 28 114z"/></svg>