<svg viewBox="0 0 2042 2147" xmlns="http://www.w3.org/2000/svg"><path d="m308 181q0 70-26 70-22 0-54-52-33-52-33-88 0-23 13.5-43t39.5-20q25 0 42.5 31.5t17.5 101.5zm-169 160a301.57 301.57 0 0 1 -52.5-4.5q-25.5-4.5-44.5-14t-30.5-23.5a49 49 0 0 1 -11.5-32q0-23 19-38t39-15q43 0 97 38 55 37 55 60 0 29-71 29zm258-62q-20 0-20-24 0-49 38-103 39-56 77-56 17 0 34.5 12t18.5 29q1 27-17 52a217.13 217.13 0 0 1 -43 44.5 275.65 275.65 0 0 1 -50 31.5q-25 12-38 14zm-354 223q0-36 52-67 54-31 97-31 26 0 26 18 0 24-36 64-17 20-29.5 33t-22.5 18q-20 15-42 15-20 0-32.5-15a53 53 0 0 1 -12.5-35zm480 80q0 20-13 33t-35 13q-34 0-64-48a180.79 180.79 0 0 1 -32-104q0-30 20-30 10 0 30.5 13.5a299.94 299.94 0 0 1 41.5 33.5 241.37 241.37 0 0 1 36.5 44q15.5 24 15.5 45zm-233-117q35 0 35 115 0 104-56 104-28 0-43.5-19.5t-15.5-48.5q0-42 29-96 28-55 51-55zm22-171q28 0 46.5 18.5t18.5 46.5q0 28-18.5 46t-46.5 18q-28 0-46-18t-18-46q0-28 18-46.5t46-18.5zm1207 530q0-45-66.5-71t-185.5-26a672.57 672.57 0 0 0 -168.5 21q-81.5 21-159.5 66-156 89-246 240-91 151-91 325 0 104 43 196 44 93 86 93 15 0 26-7.5a53.72 53.72 0 0 0 17.5-20 102.38 102.38 0 0 0 9.5-28.5 173.29 173.29 0 0 0 3-32l-1-56q-3-112 33-212.5t106-190.5q139-178 366-234l50-7q90-12 134-24t44-32zm523 558q0 204-104 382a782.45 782.45 0 0 1 -122.5 158q-70.5 70-161.5 122-179 103-387 103t-386-102q-90-51-161-119.5t-123-157.5q-104-177-104-386 0-205 104-382 106-180 283-280a956.87 956.87 0 0 1 187-80.5q96-29.5 200-22.5l108 8a36.44 36.44 0 0 0 22-3 100.88 100.88 0 0 0 22-14l40-32q38-31 71.5-47.5t60.5-16.5a210.28 210.28 0 0 1 43.5 5 529.52 529.52 0 0 1 51.5 14q50-72 50-161 0-117-84-197-84-81-207-81-49 0-102 13.5a655.82 655.82 0 0 0 -106.5 37.5 824.81 824.81 0 0 0 -106 57.5 986.27 986.27 0 0 0 -99.5 72.5 1130 1130 0 0 1 -107.5 77.5 929.08 929.08 0 0 1 -111.5 60.5q-113 50-204 50h-14l-13-1q-150-15-150-66 0-26 15-35.5t29-9.5a153.53 153.53 0 0 1 17 1 73.14 73.14 0 0 1 19 5q39 13 98 13 80 0 163-42 42-22 100.5-63.5t134.5-102.5a815 815 0 0 1 102-67 775.33 775.33 0 0 1 110-50.5 730.75 730.75 0 0 1 113-31.5 580.65 580.65 0 0 1 110-11q169 0 282 108 114 111 114 267 0 105-59 205 54 41 79.5 84t25.5 102l-11 98q0 35 14.5 57.5t33.5 51.5q62 96 91.5 198a755.48 755.48 0 0 1 29.5 211z"/></svg>