<svg viewBox="0 0 1716.1 1901.1" xmlns="http://www.w3.org/2000/svg"><path d="m461.1 1901a400.77 400.77 0 0 1 -176-36 497.14 497.14 0 0 1 -148-102 489.65 489.65 0 0 1 -101.5-148 402.59 402.59 0 0 1 -35.5-175q2-97 34.5-177.5t100.5-148.5l1025-1025q45-44 96.5-66.5t111.5-22.5q135 0 242 110 106 107 106 246 0 124-83 207l-860 860q-49 49-118 49-82 0-148-67t-66-149q0-70 47-117l703-705 95 94-705 704q-8 8-8 23 0 14 7 29a107.66 107.66 0 0 0 18.5 27.5 102.34 102.34 0 0 0 26 20.5 60.48 60.48 0 0 0 29.5 8q15 0 26-11l859-861q45-45 45-111 0-82-69-153-68-70-149-70-65 0-113 48l-1025 1025q-96 96-96 233 0 134 96 231 97 97 233 97 135 0 231-96l888-888 93 95-887 886q-68 68-148.5 101t-176.5 35z"/></svg>