<svg viewBox="0 0 2188 2370" xmlns="http://www.w3.org/2000/svg"><path d="m1764 102q0-16 15-16 11 0 27.5 11.5t39.5 32.5q46 45 72 97.5t26 114.5q0 49-27 136-27 86-52 86-14 0-14-21l2-9q8-60 14.5-97.5t6.5-54.5q0-107-54-197-13-20-22-33.5t-14-18.5q-20-20-20-31zm-277 53a17.05 17.05 0 0 1 6.5-13.5 21.88 21.88 0 0 1 14.5-5.5q20 0 47 12.5t64 36.5q146 97 146 275a564.3 564.3 0 0 1 -4 66 493.74 493.74 0 0 1 -14 71q-18 72-38 72-15 0-14-16l6-66q-5-133-21-189a303.32 303.32 0 0 0 -21.5-54.5 336.1 336.1 0 0 0 -34.5-53.5q-21-27-51.5-55.5t-72.5-61.5q-13-13-13-18zm-1090 1658h12q32 0 32 19 0 13-32 19-15 3-30 5a220.08 220.08 0 0 1 -29 2 492.66 492.66 0 0 1 -85-7 306.66 306.66 0 0 1 -75-23q-68-30-130-118-60-85-60-132 0-13 11-13 13 0 25 15 39 55 79 96t84 69a425.36 425.36 0 0 0 93 44.5 537.45 537.45 0 0 0 105 23.5zm202-103q0 14-22.5 22.5t-67.5 6.5q-65-2-115-14.5t-86-34.5q-72-43-126-132a538.9 538.9 0 0 1 -43-91 531.3 531.3 0 0 1 -25-97l-2-9q0-16 16-16 11 0 16 12l8 21q36 68 73 119t76 85q76 66 207 95 16 4 33 7.5t30.5 7q13.5 3.49 21.5 8t6 10.5zm1452-764q0-45-36-81-35-37-74-37a127.5 127.5 0 0 0 -36.5 5.5 201.9 201.9 0 0 0 -35 14 191.94 191.94 0 0 0 -30 19 109.12 109.12 0 0 0 -21.5 21.5l-52 74-90 135a197.45 197.45 0 0 1 -53.5 53 249.41 249.41 0 0 1 -69.5 32q-29 9-58 19.5t-61 40.5q-24 24-41 24-11 0-18-7t-7-15q0-34 86-97l20-11q19-11 29-20t10-20c0-3.33-.17-6.67-.5-10s-.83-6.67-1.5-10q-3-10-50-109-45-96-60-117l-11-26q-16-38-41.5-106t-63.5-166q-38-98-72.5-182t-64.5-154q-34-79-104-79-54 0-85 30t-31 81q0 36 16 78 9 22 33 75.5t64 139.5q41 85 75.5 155.5t63.5 124.5a152.21 152.21 0 0 1 26-4q14-1 31-1 36 0 36 16 0 12-11.5 21.5t-34.5 19.5a1483.16 1483.16 0 0 0 -237.5 136q-112.5 79-208.5 190l-17 20q-43 51-55 51-21 0-21-21 0-30 21-65-60-62-121-130.5t-127-143.5l-41-46q-34-40-87-40a118.68 118.68 0 0 0 -43.5 8 121.38 121.38 0 0 0 -36 21.5 106.64 106.64 0 0 0 -25 32 87.37 87.37 0 0 0 -9.5 40.5q0 54 40 103 13 18 135 140 63 62 112.5 108.5t86.5 79.5a774.62 774.62 0 0 1 66.5 69q32.5 38 65.5 83l39 52q42 59 87 90a498.7 498.7 0 0 0 53.5 34q30.5 17 68.5 35 18 8 30.5 26.5t22.5 44.5q10 27 15.5 47t5.5 34l12 1h12l292 10q78 2 136.5-.5t98.5-5.5q0-48 4.5-85t12.5-64q15-54 60-97 21-20 40.5-50.5a555.7 555.7 0 0 0 36.5-67.5q17-37 31.5-78a688.09 688.09 0 0 0 23.5-82l11-48 63-87 141-194q29-40 29-78zm-703 1168 368-4q0-41-2-66.5t-5-36.5q-6-23-32-23l-335 5q-94 2-176.5-2.5t-156.5-9.5q-27-1-33 14a359.55 359.55 0 0 0 -8 47.5q-3 27.49-3 65.5 52 5 147.5 8.5t235.5 1.5zm-972-1497q0 50 25 88 13 19 71 86.5t159 188.5l118 139q38-46 71-82.5t63-62.5l-178-242-122-169q-36-51-93-51a122.74 122.74 0 0 0 -42.5 7.5 120 120 0 0 0 -36.5 21 99.69 99.69 0 0 0 -25.5 33q-9.5 19.5-9.5 43.5zm239-238q0 37 17 77 5 10 38.5 63.5t99.5 151.5q66 97 110.5 160t67.5 93q14-10 53-31t105-53l-278-506q-35-63-104-63-47 0-78 29.5t-31 78.5zm1121 1487q62 0 73 65 5 32 8 73t3 92q46 0 70.5 8t37.5 28q13 20 19.5 83.5t6.5 154.5h-1193l-1-43v-78l1-26q2-40 4.5-72t10.5-45q6-14 34-19 28-6 40-6l3-22q7-60 11.5-97.5t8.5-52.5q9-32 36-43l-10-28q-144-52-248-197-46-66-84-110t-67-72l-196-189q-66-63-103.5-102t-48.5-53q-71-84-71-189a218.46 218.46 0 0 1 11.5-69.5q11.5-34.5 35.5-66.5 46-63 124-91a277.25 277.25 0 0 1 -12-82q0-96 65-164 67-69 173-78 1-104 74-172 72-69 173-69a308.08 308.08 0 0 1 44.5 3 178.36 178.36 0 0 1 40.5 11 226.85 226.85 0 0 1 37.5-61.5 237.81 237.81 0 0 1 54.5-47 251.7 251.7 0 0 1 67-29.5 278.8 278.8 0 0 1 75-10q78 0 138 42t92 120l111 268 141 360q21 39 41.5 79.5t40.5 82.5l105-151a307.38 307.38 0 0 1 47.5-45.5 319.06 319.06 0 0 1 56.5-35 324.28 324.28 0 0 1 61.5-22.5 253.27 253.27 0 0 1 62.5-8q51 0 93.5 19.5t79.5 58.5q36 38 55 82.5t19 95.5a233.2 233.2 0 0 1 -15 83.5q-15 39.49-43 77.5l-184 256a1039.34 1039.34 0 0 1 -32 110q-19 54-41.5 102.5a672.27 672.27 0 0 1 -49 88.5q-26.51 40-54.5 67a89.09 89.09 0 0 0 -17 23 106.22 106.22 0 0 0 -9 28 330.73 330.73 0 0 0 -4.5 36.5q-1.5 20.5-2.5 47.5z"/></svg>