<svg viewBox="0 0 1992 2089" xmlns="http://www.w3.org/2000/svg"><path d="m1419 244q0-58-15.5-92t-44.5-34q-14 0-40 20l-40 32q-92 56-210 80-21 5-28.5 11t-10.5 26q0 36 56 97 56 62 129 62 71 0 137-51 67-51 67-151zm-428 333q32 0 54-22t22-54q0-32-22-55t-54-23q-32 0-54.5 23t-22.5 55q0 32 22.5 54t54.5 22zm0 396q32 0 54-22.5t22-54.5q0-32-22-54.5t-54-22.5q-32 0-54.5 22.5t-22.5 54.5q0 32 22.5 54.5t54.5 22.5zm0 395q32 0 54-22.5t22-54.5q0-32-22-55t-54-23a70.4 70.4 0 0 0 -30 6.5 84.82 84.82 0 0 0 -24.5 17 77.45 77.45 0 0 0 -16.5 24.5 75.32 75.32 0 0 0 -6 30q0 32 22.5 54.5t54.5 22.5zm0 395q32 0 54-22t22-54q0-32-22-54.5t-54-22.5q-32 0-54.5 22.5t-22.5 54.5q0 32 22.5 54t54.5 22zm-43-1473q0-20-8.5-27.5t-28.5-12.5q-136-28-209-80a210.62 210.62 0 0 1 -20-16q-10-9-20-17a128.34 128.34 0 0 0 -20.5-13.5 44 44 0 0 0 -20.5-5.5q-29 0-44.5 34.5t-15.5 92.5q0 88 60 145 61 56 144 56 41 0 81-23 39-22 71-67 31-44 31-66zm1044 356q0 19-44 34l-16 8q-30 15-68 32t-87 32q-23 8-47.5 18.5a127 127 0 0 1 -50.5 10.5q-39 0-46-27a417.15 417.15 0 0 0 -11-62.5 604 604 0 0 0 -20-63.5q-24-66-41-66-11 0-16 15.5t-5 24.5a432.43 432.43 0 0 0 8 59 290.42 290.42 0 0 1 6 59q0 24-9 61t-29 85q-20 48-29 85t-9 63q0 37 19 99t54 150l99 245 37 86 19 31q13 21 22 36t14.5 26a113.19 113.19 0 0 1 8 20 70.53 70.53 0 0 1 2.5 19 141.47 141.47 0 0 1 -11.5 56q-11.51 27-34.5 53-44 51-162 119-120 69-258 102a1212.56 1212.56 0 0 1 -283 33q-152 0-293.5-32.5a973.22 973.22 0 0 1 -268.5-105.5q-63-36-104.5-66.5t-61.5-54.5q-38-45-38-102 0-40 47-103l19-31 38-88 99-243q35-88 53.5-150.5t18.5-100.5q0-23-9-60t-29-85q-39-91-39-141a291.68 291.68 0 0 1 7-63.5 291.68 291.68 0 0 0 7-63.5q0-9-5-23t-14-14q-8 0-18 14.5t-20 40.5a633.28 633.28 0 0 0 -19.5 61q-9.5 35-16.5 76-5 27-44 27a108.84 108.84 0 0 1 -25.5-3 162.26 162.26 0 0 1 -24.5-8l-49-18q-49-17-87.5-32t-66.5-32l-16-8q-21-11-32.5-18.5t-11.5-17.5q0-10 7-22 8-15 13-35.5t3-47.5l-2-77q-2-42 15-88.5t49-99.5q73-124 332-136a217.13 217.13 0 0 0 44.5-6.5 219 219 0 0 0 43.5-16.5l63-33a622.88 622.88 0 0 1 79-35 794.16 794.16 0 0 1 80-24q40-9 104.5-16t156.5-7h15q87 0 151 7.5t107 17.5a592.47 592.47 0 0 1 162 57l63 33a175.44 175.44 0 0 0 43.5 16 348.9 348.9 0 0 0 45.5 7l90 8q84 8 142.5 39t92.5 82q35 51 53.5 100a252.59 252.59 0 0 1 16.5 100l-3 75q-1 51 18 82 7 12 7 22z"/></svg>