<svg viewBox="0 0 2084 1457" xmlns="http://www.w3.org/2000/svg"><path d="m1853 778h19q9 0 9-5 0-6-6-15t-15.5-20.5a206.32 206.32 0 0 0 -22.5-23q-13-11.5-28-22.5-9-8-26.5-21t-42.5-32q-51-37-204-153-78-59-159-118.5t-169-121.5q-175-123-243-139l-12-2 850 676zm-767 154 41-4-892-708q-45 21-45 47l2 12q4 8 132 114 64 52 118.5 95.5t101.5 79.5l133 102 284 217q32 24 63.5 34.5t61.5 10.5zm630-139-867-688q-42 3-75 7t-56 8l881 699zm-197 46-887-705-124 21 897 710zm-194 45-900-714-118 26 902 715zm647 96q0-38-30-64.5t-79-26.5q-38 0-111 15t-183 44q-86 23-160.5 41.5t-140.5 32.5l-134 29q16 77 16 130a433.22 433.22 0 0 1 -8 85 401.77 401.77 0 0 1 -23 76q32-5 283-72 127-35 216.5-60.5t144.5-42.5q54-17 89-31t49-25q29-22 50-56.5a140.72 140.72 0 0 0 21-74.5zm-933 220a558 558 0 0 0 -5-77.5 476.76 476.76 0 0 0 -14-66.5q-17-6-124.5-82.5t-306.5-225.5q-198-149-308-233t-135-106q-4 70-44 198l-4 21q0 22 14.5 44.5t59.5 59.5q20 20 80.5 68.5t165.5 124.5l386 280q90 66 139.5 97.5t60.5 32.5q35-85 35-135zm1045-207q0 47-13.5 82.5a206.47 206.47 0 0 1 -37.5 63 240.27 240.27 0 0 1 -57 47.5 518.76 518.76 0 0 1 -72 36q-63 24-188.5 63.5t-317.5 93.5l-143 40q-58 16-104.5 27t-82.5 11q-69 0-129-27.5t-130-81.5l-236-184q-54-41-129.5-99t-175.5-136q-100-78-150.5-119t-53.5-45q-64-73-64-134a162.65 162.65 0 0 1 1.5-22 78.89 78.89 0 0 1 6.5-22q5-11 13.5-43.5t21.5-86.5q14-55 21-87.5t7-46.5q0-16-9.5-39.5t-9.5-45.5q0-40 28.5-75t85.5-55q76-26 176-45.5t225-33.5q125-14 203.5-21.5t110.5-7.5q34 0 64.5 3a330.58 330.58 0 0 1 58.5 11 336.89 336.89 0 0 1 58.5 21q30.5 14 67.5 35 35 21 127.5 86t241.5 175q149 110 265.5 204t202.5 172q56 53 85 111 8 15 13 36t10 49q9 54 9 90z"/></svg>