<svg viewBox="0 0 2232 2216" xmlns="http://www.w3.org/2000/svg"><path d="m99 2118h2083q21 0 35.5 14t14.5 35q0 20-14.5 34.5t-35.5 14.5h-2132q-21 0-35.5-14.5t-14.5-34.5v-2118q0-20 14.5-34.5t35.5-14.5q20 0 34.5 14.5t14.5 34.5v1642l235-241q21-21 48-21 25 0 45 17l211 176 435-1316q15-46 59-46 45 0 65 35l310 560 179-517a73.14 73.14 0 0 1 26-34l391-273a70.54 70.54 0 0 1 40-12q28 0 48 19.5t20 48.5q0 37-29 57l-373 261-224 640q-16 47-59 47-46 0-66-36l-306-557-416 1263a74.5 74.5 0 0 1 -24.5 34q-17.5 14-41.5 14-14 0-24-4.5a94.07 94.07 0 0 1 -20-12.5l-240-201-289 294z"/></svg>