<svg viewBox="0 0 1933 1629.2" xmlns="http://www.w3.org/2000/svg"><path d="m1696 481q0-20-40-68t-115-111q-76-64-101-64-17 0-16 26l9 183a102.34 102.34 0 0 0 3.5 19.5 23.34 23.34 0 0 0 10.5 13.5q12 6 76 12a1199.57 1199.57 0 0 1 125 18h8a63 63 0 0 0 20-3 25.56 25.56 0 0 0 14-11 20.35 20.35 0 0 0 6-15zm-690-58q1 16 5.5 24.5t11.5 12q7 3.5 17.5 4.5t24.5 1l252 10q16 0 26-3t14.5-11.5q4.5-8.5 6-24t1.5-39.5q0-120-6-156-6-37-26-46-17-7-132-21-57-8-98-11t-67-3q-22 0-26 33-2 15-3 72.5t-1 157.5zm-30 667q131 0 283-12 76-7 128-17t83.5-23q31.5-13 45-29t13.5-35q0-46-89-84a571.8 571.8 0 0 0 -87.5-27.5 400.08 400.08 0 0 0 -87.5-9.5 541.39 541.39 0 0 0 -73.5 5q-36.49 5-72.5 10.5t-71.5 10.5a512.57 512.57 0 0 1 -71.5 5q-21 0-56-4t-83-11q-49-8-84.5-12t-58.5-4a434.86 434.86 0 0 0 -90 9.5 612.55 612.55 0 0 0 -90 26.5q-90 35-90 85 0 42 60 67 58 25 215 37 153 12 277 12zm-730-607q0 27 39 27h10l161-20a103.58 103.58 0 0 1 14.5-3.5 59.91 59.91 0 0 0 16.5-5.5 39.79 39.79 0 0 0 14-12q6-8 7-22l10-171v-12q0-24-15-26-19 0-68 40l-69 53a489.9 489.9 0 0 0 -49.5 44 422.1 422.1 0 0 0 -38 44q-15.5 21-24 38t-8.5 26zm689-60-3-212q0-51-26-51-17 0-50 3t-84 8q-51 5-90.5 10a571.19 571.19 0 0 0 -70.5 13q-25 7-29.5 53t-4.5 137q0 26 1 44t6 28.5q5 10.5 14.5 14.5t26.5 4l253-10q28-1 43-7t14-35zm32-423q288 0 513 96 226 96 339.5 266.5t113.5 404.5q0 75-28.5 139.5t-88.5 117.5q-115 106-335 162-217 55-490 55-313 0-543-56-227-56-337.5-163t-110.5-255q0-233 113-405 114-171 338-266 223-96 516-96zm500 1446q3 29-33 61.5t-97.5 60q-61.5 27.49-142 45.5t-167.5 16q-62-1-120-7.5a771.88 771.88 0 0 1 -114-21.5q-110-29-168.5-65t-58.5-71q0-30 27.5-48t72.5-18q43 0 93 11 103 23 260 23 149 0 251-29a427.31 427.31 0 0 1 106-13q40 0 65.5 14t25.5 42z"/></svg>