<svg viewBox="0 0 2084 1457" xmlns="http://www.w3.org/2000/svg"><path d="m965 107-57-4q-62 2-150 12.5t-203 30.5q-229 39-298 65-67 25-67 54l4 15 811-158zm883 617-874 169q58 39 112 39 9 0 27.5-2.5t46.5-7.5q28-5 50.5-10t40.5-10q34-10 99.5-25t163.5-37q99-23 159.5-36t83.5-17a530.66 530.66 0 0 1 98-9h17q10 0 10-6 0-14-34-48zm-687-511-64-41-843 165 105 84 861-167zm-625 349 874-171-115-83-867 169zm180 140 880-173-112-83-877 171zm182 138 883-171-111-85-882 173zm1074 140q0-38-30-64.5t-79-26.5q-39 0-112 15t-182 44l-110 29-212 49-113 25q16 77 16 130a422.56 422.56 0 0 1 -8 83 454.63 454.63 0 0 1 -23 78q14-2 82-19.5t193-50.5q124-32 212.5-58t145.5-43q113-35 133-49l24-18 3-4q24-20 42-53t18-67zm-933 220a558 558 0 0 0 -5-77.5 476.76 476.76 0 0 0 -14-66.5q-17-6-124.5-82.5t-306.5-225.5q-198-149-308-233t-135-106q-4 70-44 198l-4 21q0 22 14.5 44.5t59.5 59.5q20 20 80.5 68.5t165.5 124.5l386 280q90 66 139.5 97.5t60.5 32.5l12-37q10-29 16.5-52.5a170.54 170.54 0 0 0 6.5-45.5zm1045-205q0 87-47.5 140t-132.5 87q-63 25-188.5 64t-317.5 93l-143 40q-58 16-104.5 27t-82.5 11a305.69 305.69 0 0 1 -66.5-7 329.71 329.71 0 0 1 -62-20.5 465.75 465.75 0 0 1 -62.5-34q-32-20.5-68-47.5l-120-94q-308-238-464-360.5t-161-128.5q-64-73-64-134a162.65 162.65 0 0 1 1.5-22 78.89 78.89 0 0 1 6.5-22q5-11 13.5-43.5t21.5-86.5q14-55 21-87.5t7-46.5a68.49 68.49 0 0 0 -3-18.5q-3-10.5-6.5-22t-6.5-23a85.43 85.43 0 0 1 -3-21.5q0-40 28.5-75t85.5-55q76-26 176-45.5t225-33.5q125-14 203.5-21.5t110.5-7.5q34 0 64.5 3a330.58 330.58 0 0 1 58.5 11 336.89 336.89 0 0 1 58.5 21q30.5 14 67.5 35 35 21 127.5 86t241.5 175q149 110 265.5 204t202.5 172a486.12 486.12 0 0 1 47.5 52.5 310.81 310.81 0 0 1 35.5 58.5q15 31 25 88 5 29 7 51t2 38z"/></svg>