<svg viewBox="0 0 2146 1838" xmlns="http://www.w3.org/2000/svg"><path d="m1259 459q0 22 12 35t32 13a55.29 55.29 0 0 0 17.5-2.5 62.79 62.79 0 0 0 16-8.5 208.3 208.3 0 0 0 19.5-16q11-10 26-25l22-22 16-12q19-14 29-26.5a44.34 44.34 0 0 0 10-28.5q0-19-32-16l-16 1a291.31 291.31 0 0 0 -51.5 15 324.6 324.6 0 0 0 -51.5 26q-49 31-49 67zm-409 2q0-19-12-37t-35-32.5q-23-14.5-55.5-23.5t-73.5-9q-129 0-208 80-80 79-80 200v9a341.24 341.24 0 0 0 24 126q21 60 57 60 28 0 49-55l30-78q12-30 26-51a158.75 158.75 0 0 1 33.5-36.5 188.12 188.12 0 0 1 44.5-26q25-10.5 58-18.5 65-17 87-32 26-16 40.5-37.5t14.5-38.5zm662-238q172 0 292 131 120 132 120 313 0 168-88 307-87 138-318 294-80 54-157.5 106a1017.9 1017.9 0 0 0 -141.5 114l-79 77q-40 50-67 50-29 0-66-50l-49-48q-47-45-90-80.5t-82-63.5q-141-98-230-162.5t-126-98.5q-73-69-119-138-46-71-66.5-143.5t-22.5-163.5a423.36 423.36 0 0 1 30.5-169q32.5-81 89-142.5a432.36 432.36 0 0 1 132.5-98 347.93 347.93 0 0 1 161-34.5q95 2 172 25.5a508.81 508.81 0 0 1 142 68.5l86 60a71.65 71.65 0 0 0 37 10 86.67 86.67 0 0 0 41-10l86-60q63-45 140-69.5t173-24.5zm516 440q0-147-71-275a518.1 518.1 0 0 0 -85-113.5 530.14 530.14 0 0 0 -110-85.5 524.09 524.09 0 0 0 -129-53.5 550 550 0 0 0 -143-18.5q-112 0-242 52-17 8-41.5 21t-54.5 33q-44 28-79 28t-66-20a675.34 675.34 0 0 0 -86-48 759.51 759.51 0 0 0 -90.5-35.5 665.32 665.32 0 0 0 -89-22 566.73 566.73 0 0 0 -80.5-8.5q-112-2-211.5 40t-174 116q-74.5 74-117 174.5t-41.5 214.5q1 104 25.5 189t67 156a740.9 740.9 0 0 0 98.5 130 1237 1237 0 0 0 119 110q63 51 130 97t131 90.5q64 44.51 122 90t103 96.5l15 13q42 50 73.5 68.5t66.5 18.5h12q39 0 73.5-22.5t64.5-62.5q57-57 106-99t91-72l145-103q98-69 170-128.5t119-110.5q93-103 136-214.5t43-245.5zm-540-663q180 0 335 89 154 88 238 242a699.14 699.14 0 0 1 63.5 160q21.5 83 21.5 175 0 175-63 316a896.18 896.18 0 0 1 -75 133 876 876 0 0 1 -99 120q-56 57-135.5 119t-183.5 133q-92 63-160.5 117.5t-117.5 102.5q-46 62-102 96.5t-123 34.5h-28q-63 0-117.5-33.5t-102.5-92.5q-108-108-209-175-146-96-245.5-173t-154.5-136q-110-119-170-261t-60-302q0-177 84-332 84-154 231-243 147-90 318-90 244 0 440 134a726.43 726.43 0 0 1 93.5-55 782.33 782.33 0 0 1 104-42.5 769.36 769.36 0 0 1 108.5-27 639.81 639.81 0 0 1 109-9.5z"/></svg>