<svg viewBox="0 0 1994 2059" xmlns="http://www.w3.org/2000/svg"><path d="m1004 1599q-25 0-45.5-7t-34.5-17.5q-14-10.5-22-22.5t-8-22a20.51 20.51 0 0 1 20-20q10 0 32 22 23 23 58 23 33 0 59-23 23-22 33-22a17.61 17.61 0 0 1 13.5 6 20.06 20.06 0 0 1 5.5 14q0 12-9.5 24.5t-25.5 22a182.16 182.16 0 0 1 -35.5 16 127.32 127.32 0 0 1 -40.5 6.5zm-896-283q0 54 25.5 88t74.5 34l15-2a506.7 506.7 0 0 1 -11-72q-3-37-3-75v-21l1-18-12-43q-90 14-90 109zm1667 118 28 2q48 0 74-33t26-87q0-104-114-112l-4 11 3 35v36q0 38-3 75a661.88 661.88 0 0 1 -10 73zm-663 251 30-2q33 0 33 24 0 16-13.5 29t-37 22q-23.51 9-54.5 14a415.05 415.05 0 0 1 -66 5 459.84 459.84 0 0 1 -66-4.5q-31-4.5-54-13.5t-36.5-22q-13.5-13-13.5-30 0-12 8-19t25-5l130 9h14q20 0 45-2t56-5zm-467-435a87.88 87.88 0 0 1 38 8.5 102.36 102.36 0 0 1 31.5 23 104.25 104.25 0 0 1 21 34 118.57 118.57 0 0 1 0 83 104.25 104.25 0 0 1 -21 34 102.36 102.36 0 0 1 -31.5 23 87.88 87.88 0 0 1 -38 8.5 84.68 84.68 0 0 1 -37.5-8.5 92.46 92.46 0 0 1 -30-23 117.05 117.05 0 0 1 0-151 92.46 92.46 0 0 1 30-23 84.68 84.68 0 0 1 37.5-8.5zm197-340-65 280q55 9 149 15l59-290a184.89 184.89 0 0 1 -52-7zm-171 260 69-256q-75 7-148.5 9.5a1436.24 1436.24 0 0 0 -151.5 13.5l-45 127a1083.35 1083.35 0 0 0 134.5 62 1225 1225 0 0 0 141.5 44zm322-641q-66 0-112 43-47 43-47 104t47 104q45 42 112 42 65 0 111-42 48-45 48-104 0-60-50-104-48-43-109-43zm-896 115q0 66 40 118 0-23 23-34 18-14 124-49 106-36 227-64.5t255-43.5q32-58 90-96.5t137-38.5q153 0 227 136 66 7 128 18.5t122 25.5q120 27 225 63 105 35 138 53 60-70 60-138 0-110-137-234-136-126-336-194-202-70-419-70-231 0-435 75-205 76-336 204-133 129-133 269zm897 1319q280-2 457-143 181-146 230-399-8-14-11-34a814.07 814.07 0 0 0 -26.5-108.5 1120.48 1120.48 0 0 0 -43.5-114.5q-108 55-247 86 38 4 65.5 33t27.5 74a114.59 114.59 0 0 1 -7.5 41.5 104.22 104.22 0 0 1 -52 57 87 87 0 0 1 -75 0 98.22 98.22 0 0 1 -30.5-23 108.94 108.94 0 0 1 -20.5-34 114.59 114.59 0 0 1 -7.5-41.5q0-70 59-97-78 14-152.5 20t-146.5 6q-366 0-622-133-26 55-41.5 106.5t-26.5 99.5l-10 42q17 127 76.5 233t156.5 184a580.71 580.71 0 0 0 103 67 608.59 608.59 0 0 0 118 45q63 18 119.5 26a673.45 673.45 0 0 0 107.5 7zm1000-646q0 58-27 106-28 48-84 74a352.2 352.2 0 0 1 -53 20 177.8 177.8 0 0 1 -48 7l-27-3q-38 128-111.5 232t-181.5 175a761.73 761.73 0 0 1 -234 101q-128 30-234 30-101 0-231-32-127-31-231-102a728.78 728.78 0 0 1 -180.5-177q-74.5-104-108.5-225l-16 1q-20 2-45-5.5a370.1 370.1 0 0 1 -54-21.5q-57-28-84.5-73.5t-27.5-104.5q0-42 12-78t34-63a178.27 178.27 0 0 1 51.5-43.5 158.25 158.25 0 0 1 64.5-19.5q-5-33-9-66.5t-5-67.5l-15-19q-12-15-12-32v-39a266.08 266.08 0 0 1 -59-48.5 289.36 289.36 0 0 1 -43-61 314.14 314.14 0 0 1 -26-67.5 280.1 280.1 0 0 1 -9-70q0-134 79-244.5t224-205.5q148-95 327.5-144.5t370.5-49.5q254 0 475 84 221 83 366 225 148 144 148 283a267.82 267.82 0 0 1 -10 72 287.89 287.89 0 0 1 -29 68.5 328.19 328.19 0 0 1 -45 60 278.82 278.82 0 0 1 -57 46.5v91q0 17-28 55-2 42-5 73t-6 53q49 6 84 24t57 45.5a183.23 183.23 0 0 1 32.5 62.5 256.18 256.18 0 0 1 10.5 74z"/></svg>