<svg viewBox="0 0 1984 1800.03" xmlns="http://www.w3.org/2000/svg"><path d="m1358 1124a97.84 97.84 0 0 1 41.5 9 104.59 104.59 0 0 1 34 25 122.14 122.14 0 0 1 23 37.5 125.25 125.25 0 0 1 8.5 46.5 124.2 124.2 0 0 1 -31.5 83 111.1 111.1 0 0 1 -34 25.5 93.56 93.56 0 0 1 -41.5 9.5 95.79 95.79 0 0 1 -42.5-9.5 105.15 105.15 0 0 1 -33.5-25.5 127.84 127.84 0 0 1 -22.5-37.5 122.54 122.54 0 0 1 -8.5-45.5 125.25 125.25 0 0 1 8.5-46.5 127.84 127.84 0 0 1 22.5-37.5 99.34 99.34 0 0 1 76-34zm-751 0a97.84 97.84 0 0 1 41.5 9 104.59 104.59 0 0 1 34 25 122.14 122.14 0 0 1 23 37.5 125.25 125.25 0 0 1 8.5 46.5 124.2 124.2 0 0 1 -31.5 83 111.1 111.1 0 0 1 -34 25.5 95.39 95.39 0 0 1 -83 0 111.1 111.1 0 0 1 -34-25.5 124.2 124.2 0 0 1 -31.5-83 125.25 125.25 0 0 1 8.5-46.5 122.14 122.14 0 0 1 23-37.5 104.59 104.59 0 0 1 34-25 97.84 97.84 0 0 1 41.5-9zm538 348q8 0 14.5 7a22.87 22.87 0 0 1 6.5 16q0 28-52 64-50 37-114 37a303 303 0 0 1 -65-7 256.78 256.78 0 0 1 -63-23q-60-30-60-70 0-8 6.5-17t15.5-9l16 6 15 8a340.28 340.28 0 0 0 64.5 27.5 222.3 222.3 0 0 0 64.5 9.5q53 0 114-34a146.78 146.78 0 0 0 17-9q10-6 20-6zm-251-89q0-5 5.5-11.5a17.05 17.05 0 0 1 13.5-6.5l15 1q18 5 32.5 8a140.48 140.48 0 0 0 28.5 3q28 0 48-8t31-8q15 0 15 15 0 22-33 38a134.25 134.25 0 0 1 -31 13 112.28 112.28 0 0 1 -29 4 138.44 138.44 0 0 1 -68-17.5q-13-7.5-20.5-15.5t-7.5-15zm870-145 28 3q48 0 74.5-33.5t26.5-87.5q0-54-33-83.5t-90-29.5l4 94a400.94 400.94 0 0 1 -1.5 66q-3.5 34-8.5 71zm-1673-118q0 54 26 88t74 34l12-1q-4-33-6-68t-2-72v-46l3-47q-54 5-80.5 34.5t-26.5 77.5zm893 584a1009.12 1009.12 0 0 0 149.5-11 840.77 840.77 0 0 0 140-33 790 790 0 0 0 124.5-53 562 562 0 0 0 105-72q96-83 134-181 20-51 30.5-113t10.5-140q0-177-42-315-144-224-303-224-31 0-57.5 10a318.89 318.89 0 0 0 -51.5 25q-25 15-50 33a561.29 561.29 0 0 1 -51.5 33 319.78 319.78 0 0 1 -56.5 25q-30 10-65 10a132.14 132.14 0 0 1 -25-2.5 140.67 140.67 0 0 1 -23.5-6.5 58.89 58.89 0 0 1 -17.5-10q-7-6-7-14 0-9 28-34 27-27 27-50 0-30-34-30-30 0-56 17t-51.5 37a622.37 622.37 0 0 1 -52.5 37q-27 17-60 17-58 0-58-24 0-11 18-29t18-27a20.06 20.06 0 0 0 -5.5-14 46.1 46.1 0 0 0 -13.5-10 71.93 71.93 0 0 0 -17.5-6 89.9 89.9 0 0 0 -18.5-2q-59 0-119.5 35t-123.5 103l-65 69q-53 153-53 347 0 217 81 335 41 60 103 108.5t147 86.5q167 73 362 73zm1000-584q0 60-25 107-27 47-84 74a352.2 352.2 0 0 1 -53 20 177.8 177.8 0 0 1 -48 7l-26-3a514 514 0 0 1 -102 199.5q-73 88.5-176 150t-228 94q-125 32.5-258 31.5a1079.91 1079.91 0 0 1 -248-31q-123-30-227.5-89t-181-147q-76.5-88-107.5-205-89 0-155-53-65-52-65-155 0-46 15-84.5t42-66q27-27.5 65-42.5t85-15q19-140 72-256 37-115 101-202.5a649.67 649.67 0 0 1 153.5-150q89.5-62.51 204-100t253.5-53.5q39-5 67-9t45-11q35-13 56.5-35t21.5-58q0-37 24-37 33 0 86 48 60 54 60 124 0 50 51 77a523.54 523.54 0 0 1 74.5 49.5q37.5 29.5 77.5 67.5 39 39 73 89t63 113q58 125 58 229v15l-2 15 16 85q55 0 96.5 15.5t69.5 43a175.53 175.53 0 0 1 42 65.5q14 38 14 84z"/></svg>