<svg viewBox="0 0 1172 2209" xmlns="http://www.w3.org/2000/svg"><path d="m984 1186v-960q0-28-19.5-47t-48.5-19h-661q-28 0-47.5 19t-19.5 47v960q0 28 19.5 47t47.5 19h661q29 0 48.5-19t19.5-47zm-7 295v-61a34.65 34.65 0 0 0 -9-24q-9-10-25-10h-135a31.1 31.1 0 0 0 -23.5 10 33.64 33.64 0 0 0 -9.5 24v61q0 16 9.5 25.5a31.93 31.93 0 0 0 23.5 9.5h135q16 0 25-9.5t9-25.5zm0 232v-62q0-14-9-23.5t-25-9.5h-135a32.45 32.45 0 0 0 -33 33v62a30.75 30.75 0 0 0 9.5 22.5 31.93 31.93 0 0 0 23.5 9.5h135q16 0 25-9.5a31.6 31.6 0 0 0 9-22.5zm0 231v-62q0-15-9-24.5t-25-9.5h-135a31.93 31.93 0 0 0 -23.5 9.5q-9.5 9.5-9.5 24.5v62a32.45 32.45 0 0 0 33 33h135q16 0 25-9.5t9-23.5zm-290-463v-61a33.64 33.64 0 0 0 -9.5-24 31.1 31.1 0 0 0 -23.5-10h-135q-16 0-25 10a34.65 34.65 0 0 0 -9 24v61q0 16 9 25.5t25 9.5h135a31.93 31.93 0 0 0 23.5-9.5q9.5-9.5 9.5-25.5zm0 232v-62a32.45 32.45 0 0 0 -33-33h-135q-16 0-25 9.5t-9 23.5v62a31.6 31.6 0 0 0 9 22.5q9 9.49 25 9.5h135a31.93 31.93 0 0 0 23.5-9.5 30.75 30.75 0 0 0 9.5-22.5zm0 231v-62q0-15-9.5-24.5a31.93 31.93 0 0 0 -23.5-9.5h-135q-16 0-25 9.5t-9 24.5v62q0 14 9 23.5t25 9.5h135a32.45 32.45 0 0 0 33-33zm-290-463v-61a34.65 34.65 0 0 0 -9-24q-9-10-25-10h-135a31.1 31.1 0 0 0 -23.5 10 33.64 33.64 0 0 0 -9.5 24v61q0 16 9.5 25.5a31.93 31.93 0 0 0 23.5 9.5h135q16 0 25-9.5t9-25.5zm0 232v-62q0-14-9-23.5t-25-9.5h-135a32.45 32.45 0 0 0 -33 33v62a30.75 30.75 0 0 0 9.5 22.5 31.93 31.93 0 0 0 23.5 9.5h135q16 0 25-9.5a31.6 31.6 0 0 0 9-22.5zm0 231v-62q0-15-9-24.5t-25-9.5h-135a31.93 31.93 0 0 0 -23.5 9.5q-9.5 9.5-9.5 24.5v62a32.45 32.45 0 0 0 33 33h135q16 0 25-9.5t9-23.5zm-230-1944h838q68 0 117 49a177.35 177.35 0 0 1 37 53q13 29 13 63v1877q0 70-50 118-51 49-117 49h-838q-68 0-117-49-50-50-50-118v-1877q0-66 48-116 49-49 119-49z"/></svg>