<svg viewBox="0 0 1984 2057" xmlns="http://www.w3.org/2000/svg"><path d="m984 1582a127.32 127.32 0 0 1 -40.5-6.5 153.82 153.82 0 0 1 -35-16.5q-15.5-10-24.5-23t-9-25q0-19 21-19a20.35 20.35 0 0 1 15 6q36 37 73 37 39 0 76-37a20.35 20.35 0 0 1 15-6q20 0 20 19 0 12-9 24.5t-24.5 23a140 140 0 0 1 -35.5 17 135.1 135.1 0 0 1 -42 6.5zm226 78q0 37-63 81-63 43-143 43-93 0-160-38-70-39-70-83a40.42 40.42 0 0 1 6.5-21.5q6.5-10.5 19.5-10.5 7 0 16 4.5t22 12.5q43 24 83.5 35t78.5 11q32 0 71.5-14.5t88.5-41.5a43.79 43.79 0 0 1 24-7l11 3q15 11 15 26zm127-415a84.68 84.68 0 0 1 37.5 8.5 98.22 98.22 0 0 1 30.5 23 108.94 108.94 0 0 1 20.5 34 114.59 114.59 0 0 1 7.5 41.5q0 45-27.5 75t-68.5 30a89.19 89.19 0 0 1 -37.5-8 97.21 97.21 0 0 1 -31-22.5 105.51 105.51 0 0 1 -21-33.5 110.66 110.66 0 0 1 -7.5-41 114.59 114.59 0 0 1 7.5-41.5 104.22 104.22 0 0 1 52-57 84.68 84.68 0 0 1 37.5-8.5zm-707 0a87.88 87.88 0 0 1 38 8.5 96.55 96.55 0 0 1 31 23 108.94 108.94 0 0 1 20.5 34 114.59 114.59 0 0 1 7.5 41.5q0 45-28 75t-69 30a89.19 89.19 0 0 1 -37.5-8 91.79 91.79 0 0 1 -30.5-22.5 110.55 110.55 0 0 1 -28-74.5 114.59 114.59 0 0 1 7.5-41.5 108.94 108.94 0 0 1 20.5-34 98.22 98.22 0 0 1 30.5-23 84.68 84.68 0 0 1 37.5-8.5zm1134 184 15 2h14q48 0 74-33t26-87q0-103-119-114l4 88a433.25 433.25 0 0 1 -2 72 677.36 677.36 0 0 1 -12 72zm85-411-12-13q-32-29-42-51.5a308.73 308.73 0 0 1 -17-50.5q-20-79-43.5-152.5t-49.5-142.5q-51-139-144.5-223.5t-223.5-132.5v627a45.48 45.48 0 0 1 -14.5 34 48 48 0 0 1 -34.5 14 47.8 47.8 0 0 1 -48-48v-719q0-27-19-44.5t-44-17.5h-349q-28 0-45.5 17.5t-17.5 44.5v719a47.8 47.8 0 0 1 -48 48 48 48 0 0 1 -34.5-14 45.48 45.48 0 0 1 -14.5-34v-627q-269 101-357 324-66 165-100 310-4 16-8.5 30a243.89 243.89 0 0 1 -11 28 173.4 173.4 0 0 1 -17 28.5q-10.5 14.5-26.5 32.5l-12 13q45 20 128.5 36.5t206.5 29.5q123 13 255.5 19t275.5 6q309 0 524.5-23t342.5-68zm-170 316a725.29 725.29 0 0 0 -55.5-84.5 493.68 493.68 0 0 0 -64.5-69.5q-236 30-577 30-338 0-576-30a527.5 527.5 0 0 0 -61 63.5q-29 35.5-55 82.5 7 141 62.5 262.5t158.5 210.5a561.33 561.33 0 0 0 108.5 75.5 649.93 649.93 0 0 0 122.5 49.5 1203.75 1203.75 0 0 0 125 27.5 711.66 711.66 0 0 0 113 9.5 746.25 746.25 0 0 0 87.5-5.5q46.5-5.5 100.5-16.5a731.29 731.29 0 0 0 102.5-28.5 597 597 0 0 0 92.5-42.5 556.06 556.06 0 0 0 123-92.5 607.23 607.23 0 0 0 96.5-124.5 714 714 0 0 0 65.5-149q25-80 31-168zm-1588-23q0 54 26 88t74 34l15-2q-7-36-11.5-72a418.7 418.7 0 0 1 -2.5-74l5-88q-58 8-82 37.5t-24 76.5zm1774-192a170.33 170.33 0 0 1 54 33 180.53 180.53 0 0 1 37 46.5 220.22 220.22 0 0 1 21 54.5 246.24 246.24 0 0 1 7 58q0 60-25 107-27 47-83 74a457.1 457.1 0 0 1 -53 21q-25 8-48 6l-31-3q-38 128-110.5 230t-178.5 175a745.77 745.77 0 0 1 -111.5 62.5 655.71 655.71 0 0 1 -123.5 41.5q-131 32-240 32-108 0-238-33-129-33-232-106-104-72-175-172.5t-108-227.5l-18 1q-23 2-48.5-5.5a360.37 360.37 0 0 1 -54.5-21.5q-57-28-81.5-75t-24.5-106a235.94 235.94 0 0 1 26.5-109.5q26.5-51.5 85.5-77.5-63-18-85-39t-22-57q0-52 53-96a45 45 0 0 0 13-12q2-3 8-18.5t15-43.5l45-146q28-90 54-160t58-119q65-100 166-173t232-115a153.55 153.55 0 0 1 17-57.5 161.89 161.89 0 0 1 36-46 168.27 168.27 0 0 1 49.5-30.5 150.91 150.91 0 0 1 56.5-11h349a147.14 147.14 0 0 1 56 11 170.16 170.16 0 0 1 49 30.5 161.89 161.89 0 0 1 36 46 168.2 168.2 0 0 1 18 57.5q104 35 187.5 86.5a679.22 679.22 0 0 1 148.5 123.5q129 141 219 503 3 14 5.5 24a137.18 137.18 0 0 0 5.5 17.5 68.38 68.38 0 0 0 8.5 15q5.5 7.5 16.5 17.5 25 24 38.5 48t13.5 48q0 18-4.5 31a55.32 55.32 0 0 1 -15.5 23q-11 10-29 18.5t-45 18.5z"/></svg>