<svg viewBox="0 0 2094 2173" xmlns="http://www.w3.org/2000/svg"><path d="m377 595a90.64 90.64 0 0 0 7.5 37 99.41 99.41 0 0 0 19 29 84.56 84.56 0 0 0 25.5 18.5 66 66 0 0 0 28 6.5q29 0 46-23.5a87.49 87.49 0 0 0 17-52.5q0-21-7-38a97.35 97.35 0 0 0 -18-29 78.64 78.64 0 0 0 -25-18.5 66 66 0 0 0 -28-6.5q-30 0-47.5 22t-17.5 55zm393-208a77 77 0 0 0 7.5 33 100 100 0 0 0 20 28.5 106.08 106.08 0 0 0 29 20.5 80.33 80.33 0 0 0 35.5 8q32 0 48-19a66.26 66.26 0 0 0 16-44 77 77 0 0 0 -7.5-33 107.43 107.43 0 0 0 -20-29 91.91 91.91 0 0 0 -29.5-20.5 88.18 88.18 0 0 0 -36-7.5q-30 0-46.5 19a65.09 65.09 0 0 0 -16.5 44zm503 1089 106 201q77-50 145-141 66-89 94-179l-14 1h-13q-75 0-133-44-29-22-43-50t-14-61q0-73 74-138 74-67 154-67h11a752 752 0 0 0 -34-129q-23-64-62-127l-27-43a232.37 232.37 0 0 1 -39.5 49.5 242.16 242.16 0 0 1 -52 38 291.45 291.45 0 0 1 -60.5 24.5 235.43 235.43 0 0 1 -64 9q-39 0-70.5-12a164.66 164.66 0 0 1 -54.5-33.5 149.9 149.9 0 0 1 -48-111.5q0-63 37-116 38-55 95-70-68-31-114-31h-5l-6 5-5 8q-45 66-122.5 128t-195.5 119l10 12q5 7 29.5 46t67.5 111a201.55 201.55 0 0 1 79-16q88 0 160 64 72 63 72 151a175.3 175.3 0 0 1 -28 96q-28 44-65 72zm-317 299 26 2h25q167 0 305-63l-244-438q-47 15-91 15-50 0-90.5-14.5t-70-41a181.91 181.91 0 0 1 -45.5-63q-16-36.5-16-81.5 0-107 100-182-8-14-20.5-34t-26-43q-13.5-23-27-49a467 467 0 0 1 -23.5-53q-280 107-418 107h-23q-3 1-7 5-1 2-6.5 18t-15.5 48q-9 31-14 55.5t-3 41.5l1 21q79-72 170-72a139.75 139.75 0 0 1 58.5 12.5 143.9 143.9 0 0 1 47.5 34.5q20 22 32 52.5t12 67.5q0 96-72 171-72 77-160 77l-39-4q42 98 112.5 174.5t168.5 133.5q8-82 83-145 76-66 167-66a150.71 150.71 0 0 1 60 12 138.88 138.88 0 0 1 48.5 34.5q20.5 22.5 32 53.5t11.5 70q0 78-48 143zm1138-540q0 23-17 40t-40 17q-28 0-44-20-88-110-228-137 0 229-107 408-53 89-123 154.5a683.23 683.23 0 0 1 -153 108.5q-83 43-178 64.5t-197 21.5q-148 0-292-44v16q0 109 67 225 3 8 5 15a47.67 47.67 0 0 1 2 13q0 24-15.5 40t-41.5 16q-18 0-30-7t-20-21q-39-72-62-141.5t-18-139.5l4-60a834.52 834.52 0 0 1 -165.5-105.5q-76.5-62.5-142.5-143.5a508.36 508.36 0 0 0 -24.5 79q-9.5 42-6.5 89l4 70q2 23-12.5 38.5t-38.5 19.5h-7q-29 0-44.5-28.5t-15.5-99.5q0-165 78-282-79-164-79-326 0-53 5-108a1008 1008 0 0 1 17-113l-115-39q-34-11-37-48l-22-227v-6a54.73 54.73 0 0 1 16-39.5q16-16.5 40-16.5 22 0 38.5 13.5t18.5 37.5l18 190 81 29 14-20-5-39q0-172 156-304a168.83 168.83 0 0 0 -25.5-17 156.38 156.38 0 0 0 -31.5-13q-53-16-53-48 0-15 12-26.5a40.38 40.38 0 0 1 29-11.5q28 0 76 23 24 11 41.5 19t28.5 13l4 1a713.28 713.28 0 0 1 93-52.5 913.35 913.35 0 0 1 99-39.5l-3-61q-3-58 11.5-86.5t40.5-28.5q18 0 28 14t9 42l-2 45 6 51a528.71 528.71 0 0 1 116-13q147 0 242 76l24-89-150-122q-20-17-20-44 0-25 16.5-41a54.73 54.73 0 0 1 39.5-16q22 0 37 12l178 145q22 18 22 44l-37 139q96 23 202 86 53 32 102.5 83t97.5 123q27-6 64-6a488.55 488.55 0 0 1 137.5 20q68.5 20 140.5 58 29 15 29 52 0 26-18 41t-38 15a44.43 44.43 0 0 1 -14-2q-6-2-14-5-116-64-224-64l15 29a547 547 0 0 1 46 119.5 998.34 998.34 0 0 1 24 129.5q195 27 323 179 13 14 13 37z"/></svg>