<svg viewBox="0 0 1416 1904" xmlns="http://www.w3.org/2000/svg"><path d="m1163 1327q40 0 57.5 29.5t17.5 70.5q0 149-51.5 247.5t-139.5 136.5l-66 29q-68 29-118.5 46.5t-86.5 17.5l-60-5-125-17q-76-10-133.5-26.5t-96.5-44.5q-77-55-106-111a399.45 399.45 0 0 1 -25.5-59.5 657.72 657.72 0 0 1 -20.5-75.5q-17-84-24-132.5t-4-59.5q0-21 8-32.5t23-10.5a53.75 53.75 0 0 1 30.5 9q13.5 9 24.5 25t22 72q8 50 30.5 75t55.5 40q34 16 77 22.5t103 6.5q92-1 169-6.5t141-10.5l56-4q70-4 114-25.5t55-78.5q14-70 29-99t44-29zm-92-252q36 0 66-12t51.5-33a141.41 141.41 0 0 0 33-50.5q11.5-29.5 11.5-64.5 0-83-63-139-65-57-163-57-90 0-129 38t-39 95q0 85 64 153 64 70 168 70zm-260 126q0-74-22-119l-9-29q-4-18-13.5-30.5a111.92 111.92 0 0 0 -20.5-21 70.25 70.25 0 0 0 -22.5-12 71.52 71.52 0 0 0 -20.5-3.5q-47 0-87 73-39 72-39 149 0 26 20 37.5t60 14.5l59 4q48 3 71.5-12t23.5-51zm-238-349q0-57-39-95t-129-38q-51 0-93 15.5t-71.5 42a184.47 184.47 0 0 0 -45.5 62q-16 35.5-16 76.5 0 35 11.5 64a151.22 151.22 0 0 0 32.5 50.5q21 21.49 51 33.5t67 12q103 0 167-70 65-71 65-153zm832 59q-15 110-52 183l-26 52q-15 31-32 53.5a200.62 200.62 0 0 1 -37 38 163 163 0 0 1 -45 24.5q-25 9-58 13-65 8-88 61-19 46-67 82a260.74 260.74 0 0 1 -52.5 31.5q-29.5 13.5-69.5 23t-91.5 14q-51.5 4.5-118.5 4.5-55 0-94.5-2.5t-64.5-8.5q-49-12-73-30-11-9-25-30.5t-33-55.5q-36-62-122-75-36-6-60.5-13.5t-38.5-14.5q-34-18-61-60.5t-46.5-94.5a698.29 698.29 0 0 1 -30.5-106q-11-54-11-95 0-59 55-134 19-26 36-51.5a480.82 480.82 0 0 0 30-51.5 285.4 285.4 0 0 0 20.5-54 227.12 227.12 0 0 0 7.5-59q0-28-15-28-7 0-13 17-44 116-59 137l-70 79q3-377 183-568.5t524-191.5q173 0 305.5 49t222 145.5q89.5 96.5 135.5 239.5t46 332l-36-44-38-41q-10-11-20-34.5t-22-58.5q-22-61-30-61-15 0-15 28 0 63 26.5 113.5t68.5 104.5q55 71 55 138z"/></svg>