<svg viewBox="0 0 2116 1770" xmlns="http://www.w3.org/2000/svg"><path d="m771 1237q68 0 133-37 66-37 66-85 0-24-13-41.5t-36-17.5q-23 0-35 30-11 29-39.5 46t-57.5 17a46.2 46.2 0 0 1 -19-4q-9-4-18.5-9a207.42 207.42 0 0 0 -19.5-9 56 56 0 0 0 -21-4q-12 0-26.5 10.5t-14.5 30.5q0 15 9.5 28.5a87.68 87.68 0 0 0 24 23 139.65 139.65 0 0 0 32.5 15.5 110.4 110.4 0 0 0 35 6zm-132-234a117.43 117.43 0 0 0 -7.5-42.5 114.58 114.58 0 0 0 -20-34 89.59 89.59 0 0 0 -29-22.5 78.18 78.18 0 0 0 -34.5-8q-32 0-54 25t-22 65a129.18 129.18 0 0 0 7 43 105.83 105.83 0 0 0 19.5 34.5 91.38 91.38 0 0 0 28.5 22.5 75.06 75.06 0 0 0 34 8l11-1q29-4 48-29t19-61zm246-141a114.77 114.77 0 0 0 8 43 122.13 122.13 0 0 0 21 35 101.38 101.38 0 0 0 30.5 24 78.8 78.8 0 0 0 36.5 9q18 0 32-8a69.5 69.5 0 0 0 23-21 110.07 110.07 0 0 0 14-28 94.47 94.47 0 0 0 5-30 123.16 123.16 0 0 0 -7-41 111.91 111.91 0 0 0 -19.5-35 104.3 104.3 0 0 0 -29.5-24.5 74.62 74.62 0 0 0 -37-9.5q-33 0-55 25t-22 61zm910 654a432.12 432.12 0 0 0 94-52q0-75-17.5-142.5t-50.5-124.5a431.28 431.28 0 0 0 -80.5-101 396.54 396.54 0 0 0 -107.5-71q-49 21-80 45 32 20 101 95a570.6 570.6 0 0 1 105 169.5 519.55 519.55 0 0 1 27 91.5 468.18 468.18 0 0 1 9 90zm-383-87-9-1a155.72 155.72 0 0 0 36 53 215.36 215.36 0 0 0 53 37 288.37 288.37 0 0 0 65 23 363.58 363.58 0 0 0 71 9v-34q0-93-41-178-43-86-103-127l8 9q37 31 37 43t-28 16q-29 4-29 14 0 9 9 17.5a27.19 27.19 0 0 1 9 20.5q0 22-25 22h-19q-18 0-18 12 0 11 7 21.5t7 19.5q0 23-30 23zm332-1240h-8q-55 0-106 26t-99 72q-49 47-90 119.5t-77 172.5q-36 99-52 188t-23 170l-5 45 2 10q11-11 20-11 14 0 14 18l-1 12q0 22 12 22 8 0 42-25l13-4q12 0 15 22v20l1 17q20-6 45-23l11-6q112-71 189-126t119-93q86-78 135.5-165.5t49.5-191.5q0-111-61-190-60-79-146-79zm-758 228v18l2 19q173 79 255 259 69-307 218-465a454.44 454.44 0 0 0 -47.5-68.5 339.66 339.66 0 0 0 -57.5-54.5 256 256 0 0 0 -65.5-35.5 208.37 208.37 0 0 0 -71.5-12.5q-101 0-167 99t-66 241zm1052 809v-13q0-43-16-80a201.51 201.51 0 0 0 -45.5-65.5q-29.51-28.5-69.5-47t-88-24.5a368 368 0 0 1 66 56 459.93 459.93 0 0 1 56.5 74.5 499.05 499.05 0 0 1 43.5 91 575.15 575.15 0 0 1 27 105.5q14-30 20-54.5t6-42.5zm44-145a285.68 285.68 0 0 1 34 136q0 97-64 191a500 500 0 0 1 -75 85q-43 39-98 69a572.27 572.27 0 0 1 -109 47 428.57 428.57 0 0 1 -112 19q-81 2-143-17.5t-109-55.5v26l-1 128q0 23-3.5 35t-9.5 17.5a25.24 25.24 0 0 1 -14.5 6.5 178.28 178.28 0 0 1 -20.5 1q-20 0-30-12.5t-8-37.5l4-61v-73l1-98q-12 0-22 15-10 16-18 16-3 0-6.5-3.5a69.64 69.64 0 0 1 -6.5-7.5 69.64 69.64 0 0 0 -6.5-7.5 10.51 10.51 0 0 0 -7.5-3.5l1 35v104q0 54-1.5 85.5t-6.5 38.5q-5 11-41 11-23 0-31.5-12t-6.5-36l3-63v-72l2-93q-11 3-19 13t-19 10q-19 0-19-36-16 20-33 38.5a416.45 416.45 0 0 1 -37 35.5q-36 33-48 40-28 17-46 26.5t-26 9.5q-16 0-28-12.5t-12-27.5q0-29 41-49 34-17 62-48t56-59l-14 1q-22 0-22-11 0-7 9-19.5t9-23.5l-1-7-39 41q-45 48-87 74t-84 24l-57-2-64 4q-59 3-59-43 0-21 13.5-33t39.5-11l112 6a86.88 86.88 0 0 0 36-5.5 126.76 126.76 0 0 0 32-18 237.15 237.15 0 0 0 29-26.5q14-15 28-32-99 35-226 35-216 0-346-114-131-115-131-315 0-123 49-234 49-112 131-179-1-3-14-16.5t-36-39.5q-47-50-86-69.5a183.11 183.11 0 0 0 -83-19.5l-46 4q-18 2-41.5 10.5t-44.5 8.5q-14 0-24.5-5.5a53.55 53.55 0 0 1 -17-13.5 63.21 63.21 0 0 1 -10-17 47.06 47.06 0 0 1 -3.5-17q0-35 47-61t139-26q146 0 253 125l63 74a554.31 554.31 0 0 1 88-36 866.23 866.23 0 0 1 91-23l7-1q-27-115-51-155a170.27 170.27 0 0 0 -63.5-66q-40.5-24-93.5-34-78-13-78-63 0-54 79-54 21 0 46.5 6a373.73 373.73 0 0 1 52 16.5 301.18 301.18 0 0 1 51.5 26.5 347.66 347.66 0 0 1 46 35 385.42 385.42 0 0 1 38.5 42.5 301.21 301.21 0 0 1 31.5 50.5q14 28 28 74.5t28 113.5q30 1 56 4.5t49 8.5q0-87 21.5-165t61.5-136.5q40-58.5 97-93t129-34.5a282.64 282.64 0 0 1 88 14 343.73 343.73 0 0 1 82 39.5 406.31 406.31 0 0 1 73 61.5 464.84 464.84 0 0 1 60 79q52-42 108-62.5a332 332 0 0 1 115-20.5q119 0 202 102 82 101 82 245 0 122-61 233.5t-200 224.5l18-1q63-5 118.5 16a418.66 418.66 0 0 1 104.5 58l33-3h41q17 0 17 23 0 22-6 37a201.07 201.07 0 0 0 -10 35z"/></svg>