<svg viewBox="0 0 2092 2253" xmlns="http://www.w3.org/2000/svg"><path d="m553 1665q28 0 45.5-24.5t17.5-56.5q0-36-22-59.5t-51-23.5q-29 0-48.5 23t-19.5 55q0 40 23 63t55 23zm-461-717q0 93 60 166 60 72 157 72 70 0 121-63 50-65 50-144 0-100-64-169t-149-69q-72 0-125 61a181.86 181.86 0 0 0 -38 66q-12 37-12 80zm1803 508v-462l-647-146v461zm-1573-154q-134 0-227-101-95-101-95-239 0-175 108-267 109-92 289-115 131 0 227 101t96 238q0 83-24.5 150t-71.5 112q-45 43-138 83-91 38-164 38zm1328 472v-186l-573-128q-25-6-25-33v-770q0-11 8-22t24-11l8 1 558 126v-453q0-23-17-44.5t-40-26.5l-355-79-20-2q-37-1-73 14l-574 238 239 53q65 16 105 70 41 55 41 114v1448l683-284q11-6 11-25zm442-897v771q0 11-9.5 21.5a30.43 30.43 0 0 1 -23.5 10.5h-7l-287-66v160q0 49-25 83t-67 51l-797 331q-34 14-58 14l-34-4-384-86q-61-14-104-66-44-52-44-116v-606l57 5q130 0 242-59 58-30 103.5-71a429.08 429.08 0 0 0 125.5-198 439.44 439.44 0 0 0 18-119q1-87-31.5-165.5t-87-138a412.73 412.73 0 0 0 -126-94q-71.5-34.5-147.5-33.5a489.69 489.69 0 0 0 -73.5 8 513.07 513.07 0 0 0 -80.5 22v-29q0-44 21.5-79a125.21 125.21 0 0 1 59.5-51l768-318a325 325 0 0 1 54.5-17.5 206.73 206.73 0 0 1 59.5-4.5l48 3 100 23q134-59 213-59 85 0 160 48a298 298 0 0 1 68 56.5 423.19 423.19 0 0 1 54 76.5q46 83 46 164 0 55-7.5 98.5a346.5 346.5 0 0 1 -24 81 304.31 304.31 0 0 1 -43 70q-26.5 32.5-64.5 64.5v118l301 68q26 6 26 32z"/></svg>