<svg viewBox="0 0 1862 2217" xmlns="http://www.w3.org/2000/svg"><path d="m930 856q-40 0-67.5-24.5t-27.5-58.5q0-34 27.5-59t67.5-25a103.86 103.86 0 0 1 38 7 102.16 102.16 0 0 1 31 18.5 85.39 85.39 0 0 1 20.5 27 71.61 71.61 0 0 1 7.5 31.5q0 34-28 58.5t-69 24.5zm-431 1099q0-117-120-117-24 0-22 30l1 24-1 97q0 28 1.5 44.5t7 24.5q5.5 8 16 10.5t28.5 2.5q42 0 65.5-32.5t23.5-83.5zm1076 0q0-117-119-117-17 0-21 13l-1 20v21l-2 97q0 68 10 75 12 7 45 7 40 0 64-32.5t24-83.5zm-932-1140-506 71a658.11 658.11 0 0 0 15 67 407.31 407.31 0 0 0 23 62l479-155zm1060-242-503 130q10 17 13 44l519-45q-6-60-29-129zm-978 200q0 72 60 124 61 52 145 52 85 0 145-52 61-52 61-124 0-75-62-126-63-52-144-52-85 0-145 53t-60 125zm442 1000q0 32-11 71l-44 149q-41 140-78 182-38 42-93 42-51 0-84.5-35t-56.5-104l-37-117-35-117-10.5-35-4.5-35q0-56 93-56 28 0 48 23 19 24 37 115 26 134 49 134 8 0 19-23l16-79q2-11 4.5-21t5.5-20l22-73q16-53 59-53 54 0 77.5 16t23.5 36zm568 182q0 59-20 108t-56.5 83q-36.49 34-89 51.5t-117.5 14.5l-89-4q-27-1-46.5-5.5t-32.5-14a54.36 54.36 0 0 1 -19-25.5q-6-16-5-41l1-43-4-180q-1-56 2-91.5t8-52.5q10-34 34.5-45t69.5-11q127 0 205 23a216.6 216.6 0 0 1 67 33 202.25 202.25 0 0 1 50 52.5 253 253 0 0 1 31 68 281.2 281.2 0 0 1 11 79.5zm-1076 1q0 60-20 108.5t-56.5 82.5q-36.5 34-89 51t-117.5 14l-89-4q-50-2-77-19.5t-25-66.5l1-50-4-173q-2-65 .5-102t9.5-56q7-19 18-25t27-9a147 147 0 0 1 26.5-6 240 240 0 0 1 32.5-2q214 0 288 68 75 68 75 189zm271-487q294 0 517-163 224-163 275-406l-506-79q-14 94-94 155a267.65 267.65 0 0 1 -88 47q-48 15-104 15a314.72 314.72 0 0 1 -66.5-7 359.74 359.74 0 0 1 -63.5-20l-213 391q168 67 343 67zm0-1393q-199 0-376 81-88 40-160 96a775.07 775.07 0 0 0 -129 127q-57 71-90 148a606.54 606.54 0 0 0 -44 161l518 52q18-87 98-143 82-58 183-58a326.63 326.63 0 0 1 68 7 356.38 356.38 0 0 1 64 20l258-404q-183-87-390-87zm0 1534q-251 0-469-110-217-109-339-296-122-188-122-399 0-216 125-402t342-295a969.76 969.76 0 0 1 223-81.5q115-26.5 240-26.5t241 26.5a966.17 966.17 0 0 1 224 81.5q109 54 193.5 127a830.82 830.82 0 0 1 147.5 167q126 186 126 403 0 212-120 396-121 183-338 297-217 112-474 112z"/></svg>