<svg viewBox="0 0 1428 2177" xmlns="http://www.w3.org/2000/svg"><path d="m1428 619q0 38-3 74t-8 71q-5 34-12 66.5t-17 64.5q-9 32-29.5 87t-53.5 135q-35 85-63 152.5t-46 120.5q-19 53-37.5 119t-35.5 147q-51 231-209 377-158 144-367 144-85 0-155.5-23a549.19 549.19 0 0 1 -131.5-63 520.64 520.64 0 0 1 -58-45 651.68 651.68 0 0 1 -56-57q-56-64-65-95a116.86 116.86 0 0 1 -5-14 62.72 62.72 0 0 1 -2-17q0-27 18.5-47.5t48.5-20.5q44 0 63 38 0 2 9.5 18.5t28.5 39.5q19 23 47.5 49t66.5 48.5q38 22.5 86 37t106 14.5q161 0 281-116 121-116 160-297 14-69 29.5-129t32.5-111q17-51 44.5-120t63.5-159l39-98q43-107 67.5-204t24.5-189q0-67-15.5-128a504.75 504.75 0 0 0 -44.5-115q-60-109-167-173-107-63-229-63h-38q-179 0-315 80a508.81 508.81 0 0 0 -121.5 97q-53.5 58-96 132.5t-74 163.5q-31.5 89-54.5 190-5 24-23.5 39t-41.5 15q-30 0-50-19.5t-20-47.5l1-15q0-11 10-47.5t30-97.5q40-124 88.5-220t105.5-159q81-88 155-135 77-49 178.5-81.5t233.5-32.5h41a505.82 505.82 0 0 1 140.5 20q69.5 20 139.5 58a624.44 624.44 0 0 1 126 92 553.55 553.55 0 0 1 96 120.5q40 67.5 61.5 149.5t21.5 179zm-1129 887q0-70 11.5-121t32.5-85q69-108 69-200a221.2 221.2 0 0 0 -4-42.5 158 158 0 0 0 -14-40.5q-34-69-43-100a261.31 261.31 0 0 1 -6-33 318.49 318.49 0 0 1 -2-37q0-113 76-241 77-131 175-192.5t206-61.5q70 0 127 26t98 75.5q41 49.5 63.5 122t22.5 164.5q0 36-34 36-37 0-40-36-9-97-77-173-67-76-147-76-100 0-173 81-72 80-72 183 0 58 38 80l42 19q28 12 70 53a438.81 438.81 0 0 1 34 37.5q13 16.5 20 30.5a104.9 104.9 0 0 1 9.5 27 142.48 142.48 0 0 1 2.5 27q0 17-10.5 33t-28.5 16q-18 0-30-22l-20-37q-33-35-69-35-42 0-42 33l6 23q23 67 23 101 0 77-55 153a608 608 0 0 0 -53.5 90q-21.5 45-21.5 99 0 136 123 136a231.29 231.29 0 0 0 36-3q19-3 39-8 21-13 34-23t26-10q18 0 31 15a51.78 51.78 0 0 1 13 35q0 38-86 91-86 52-178 52-103 0-162.5-65.5t-59.5-196.5z"/></svg>