<svg viewBox="0 0 2266 2017" xmlns="http://www.w3.org/2000/svg"><path d="m746 417-34 7q-21 0-32-14t-11-34q0-44 41-55 254-68 625-112h7q21 0 32 12.5a43.22 43.22 0 0 1 11 29.5q0 32-29.5 43t-99.5 20l-93 13q-88 11-192 32.5t-225 57.5zm56 239h-7q-20 0-31-14a49 49 0 0 1 -11-31q0-38 37-44 85-13 169.5-29t168.5-32.5q84-16.5 168.5-32t170.5-27.5h7q20 0 29 12.5a47.53 47.53 0 0 1 9 28.5q0 35-34 42-171 34-337.5 68t-338.5 59zm15 301q-28 2-42.5-15.5t-14.5-39.5q0-42 43-46 48-5 125-22.5t187-40.5l104-22 147-23q38-6 74-14t71-19l15-3q20 0 34 15t14 35q0 24-28 35a705.46 705.46 0 0 1 -77 23.5q-39 9.5-79 17t-79.5 14.5q-39.49 7-78.5 16-52 12-103.5 26.5t-103 27q-51.5 12.5-103.5 22.5a792.14 792.14 0 0 1 -105 13zm51 324-13 2q-21 0-33-15.5a56.41 56.41 0 0 1 -12-35.5q0-31 23-43t65-21l577-122 63-18q19-5 31-8.5t18-3.5q24 0 38 17.5t14 37.5q0 29-30 39-54 19-121 33.5t-146 31.5q-186 39-304 67t-170 39zm1280 212a291.14 291.14 0 0 0 -4-48 236.92 236.92 0 0 0 -14-49 363.23 363.23 0 0 0 -27-53 626.25 626.25 0 0 0 -42-60l-886 176q96 108 96 277 0 15-1.5 34t-5.5 42q-6 44-12 48l784-182a224.44 224.44 0 0 0 81.5-78.5q30.5-49.5 30.5-106.5zm-1082 407q28 0 51-32t32-83q-62 27-101 27-25 0-38.5-18.5t-13.5-38.5q0-41 41-52l111-30a239.88 239.88 0 0 0 -33-97q-20 5-57.5 13.5t-94.5 16.5l-20 2q-25 0-38-17t-13-37q0-48 86-62l44-7q-44-14-44-56 0-22 13.5-38a62.76 62.76 0 0 1 33.5-21l718-143q-14-59-30-137.5t-33-177.5q-9-54-26.5-141t-43.5-206q-51-237-75-295-37-85-95.5-119.5t-150.5-34.5q-17 0-39.5 2t-49.5 6q-49 7-349 63l-258 48.5q-109 20.5-181 36.5 89 71 141 186 26 57 43.5 138t31.5 187l33 234q28 201 64.5 361t90.5 281q105 241 250 241zm1200-407q0 49-13 90t-32.5 73.5q-19.5 32.5-42.5 56.5a511.17 511.17 0 0 1 -43 40.5q-20 16.5-34 24.5t-16 8l-975 227-44 4q-178 0-307-211.5t-192-626.5l-41-270q-22-140-33.5-220.5t-18.5-103.5l-379 82-13 2q-38 0-60-52t-22-143q0-60 19-108.5t48-84.5q33-38 81-64 51-27 67-27 33-8 138-29t283-55q180-34 311.5-57.5t218.5-39.5q55-9 120-9 86 0 152 22.5t114 66q48 43.5 80.5 107.5t50.5 148l59 273q15 70 29 138t25 137q20 108 35.5 185.5t26.5 125.5l209-42h11q36 0 84 55a343.93 343.93 0 0 1 43 61 511.27 511.27 0 0 1 32.5 70 473.43 473.43 0 0 1 21 73.5 369.52 369.52 0 0 1 7.5 72.5z"/></svg>