<svg viewBox="0 0 2500 1590" xmlns="http://www.w3.org/2000/svg"><path d="m1097 840q0 33-12.5 67a209.71 209.71 0 0 1 -33.5 60q-20 25-45 38t-74 13q-45 0-74-22-14-11-28.5-29a339.54 339.54 0 0 1 -28.5-42q-29-48-29-77 0-21 38-43a47 47 0 0 0 14-18q6-12 15-70l52-4q43-4 80 7t66 31q60 39 60 89zm1188-231q0-11-13-22.5t-35-11.5q-28 0-47.5 10t-19.5 27q0 17 21 22t61 5q33 0 33-30zm-12 130q0-17-22-25.5t-54-8.5q-42 0-42 26a22.87 22.87 0 0 0 6.5 16 55.14 55.14 0 0 0 17 12 98.33 98.33 0 0 0 23 7.5 124.47 124.47 0 0 0 24.5 2.5q47 0 47-30zm-128-239q0 23 24 23a78.88 78.88 0 0 0 15.5-1.5q7.5-1.5 21.5-5.5a139.62 139.62 0 0 1 15.5-5.5q8.5-2.5 18.5-4.5 19-6 16-28 0-30-38-30-21 0-47 19-26 18-26 33zm-82 162-2-53-76-1q-11-1-29 4t-43 13a276.66 276.66 0 0 1 -42 11 187.8 187.8 0 0 1 -48 2l-76-6a136.24 136.24 0 0 1 -38.5-7.5q-18.49-6.5-36.5-13t-35.5-12a120.91 120.91 0 0 0 -36.5-5.5q-28 0-74 15a397.1 397.1 0 0 1 -43 12q-19 4-33 4-38 0-106-20-66-19-108-19-41 0-100 22-63 23-99 23a217.89 217.89 0 0 1 -38.5-3.5q-19.5-3.5-39.5-7.5t-40-7.5a226.34 226.34 0 0 0 -39-3.5q-45 0-75 12-29 11-54.5 21.5t-57.5 10.5q-18 0-43.5-5.5t-58.5-15.5q-66-19-104-19-30 0-63 12 0 196-160 266l-1 28 4 50q10 115 76.5 207.5t172.5 165.5q213 147 531 147 118 0 218.5-21t187.5-62q115-53 196-143 40-45 79.5-115.5t77.5-167.5q17-43 33-77a495.38 495.38 0 0 1 33-60q16-26 31-43t31-26.5a98.08 98.08 0 0 1 35.5-12.5q19.5-3 45.5-2l28 2 13-33a172.94 172.94 0 0 0 6.5-28.5q2.5-16.5.5-37.5zm-1885 147q24 0 48-10.5t44.5-31.5q20.5-21 34.5-53t18-75q0-132-75-138l-49 4h-6l-45-3q-23-2-34.5 10t-11.5 34q0 21 9 32.5a57.31 57.31 0 0 0 23 17.5 124.77 124.77 0 0 0 30 8.5q16 2.5 30 4a112.17 112.17 0 0 1 23 4.5q9 3 9 11 0 10-6 20.5a76.22 76.22 0 0 1 -15.5 19 119.1 119.1 0 0 1 -21 15 106.59 106.59 0 0 1 -21.5 9.5q-55 15-55 58 0 15 7 26.5a70 70 0 0 0 17.5 19.5 85.66 85.66 0 0 0 23 12.5 69.54 69.54 0 0 0 23.5 4.5zm371-504a84.68 84.68 0 0 0 -37.5 8.5 98.22 98.22 0 0 0 -30.5 23 107.72 107.72 0 0 0 -20.5 34.5 118.6 118.6 0 0 0 -7.5 42 121.47 121.47 0 0 0 7.5 43 114 114 0 0 0 20.5 35 94.91 94.91 0 0 0 30.5 23.5 87 87 0 0 0 75 0 94.91 94.91 0 0 0 30.5-23.5 114 114 0 0 0 20.5-35 121.47 121.47 0 0 0 7.5-43 118.6 118.6 0 0 0 -7.5-42 107.72 107.72 0 0 0 -20.5-34.5 98.22 98.22 0 0 0 -30.5-23 84.68 84.68 0 0 0 -37.5-8.5zm1951 277a483.23 483.23 0 0 1 -15 120.5q-15 58.5-45.5 103.5a235.43 235.43 0 0 1 -76.5 72q-46 27-108 25a601.46 601.46 0 0 1 -61.5-5.5 525.83 525.83 0 0 1 -68.5-14.5q-74-21-110-21h-17l-17 3q-34 36-81 152-74 188-155 288-80 99-187 162-104 61-231.5 92t-279.5 31q-131 0-245-23.5t-216-69.5q-103-47-180.5-110t-132.5-142q-111-157-111-336-34-4-61.5-16.5a171.78 171.78 0 0 1 -50.5-35.5q-46-47-46-110 0-53 33-97-37-45-37-107v-7q0-31 11.5-56a125.37 125.37 0 0 1 31.5-42.5 142 142 0 0 1 47-27 173.59 173.59 0 0 1 58-9.5h14l13 1q89-188 271-295 184-107 396-107 316 0 584 118 45-24 92-44a247.84 247.84 0 0 1 98-20q37 0 67.5 9.5t53 27a126 126 0 0 1 35 41.5q12.49 24 12.5 53 0 63-41 86 262 129 298 129a53.44 53.44 0 0 0 20-4 127.82 127.82 0 0 0 21-11q19-12 38-22.5a271.08 271.08 0 0 1 40-18 259.77 259.77 0 0 1 45.5-11.5 332.45 332.45 0 0 1 53.5-4 223.28 223.28 0 0 1 75.5 13 229.11 229.11 0 0 1 67 37.5 265.33 265.33 0 0 1 54 59.5 312.42 312.42 0 0 1 37.5 78q4 11 5 27.5t2 37.5z"/></svg>