<svg viewBox="0 0 2232 1796" xmlns="http://www.w3.org/2000/svg"><path d="m576 455q0-20-187-20a116.8 116.8 0 0 0 -33 5q-13 1-103 67-86 63-86 78 0 6 108 6h89q11 0 21.5-1a72.35 72.35 0 0 0 18.5-4q16-6 94-66 78-58 78-65zm739 621 456-77q-28-62-28-123 0-64 23-112l-452-29q-5 40-8 81t-3 85q0 78 12 175zm-1000 313q16 0 30-1t24-5a31.29 31.29 0 0 0 15.5-13q5.5-9 4.5-25l-1-31v-304l1-189v-93q0-18-8-24-3-3-62-6-29-1-54.5-2t-49.5-1q-45 0-70 3t-31 8q-6 5-9 18a270.39 270.39 0 0 0 -5 33q-1 20-2 88t-2 186q-2 297 14 339 8 19 205 19zm1406 243q113 0 208-98 99-101 154-268a1247.51 1247.51 0 0 0 41.5-176.5q14.5-90.5 14.5-188.5a1211.28 1211.28 0 0 0 -11.5-167.5 1163.07 1163.07 0 0 0 -33-158 905.45 905.45 0 0 0 -53.5-142.5q-32-67-73-121-16-18-59-20-47-1-100.5 23.5t-104.5 71.5q-51 47-96 114.5t-75 151.5l318 38q22 3 42 17.5t34.5 39q14.51 24.5 23 57t8.5 71.5a273.7 273.7 0 0 1 -7.5 65.5q-7.5 30.5-20.5 54.5t-30 40.5q-17 16.5-36 22.5l-449 158-2 52q-3 51 6 95a435.69 435.69 0 0 0 25 82q116 186 276 186zm-545-731a1476.29 1476.29 0 0 1 14.5-210q14.5-101 41.5-191.5t65-168q38-77.5 86-139.5-69 36-143.5 79t-149 90q-74.51 47-147 94.5t-137 91q-64.5 43.5-119 81t-93.5 63.5q-29 29-48.5 57.5a278.38 278.38 0 0 0 -31 59 290.48 290.48 0 0 0 -16 63.5 534.58 534.58 0 0 0 -4.5 72 351.45 351.45 0 0 0 8.5 77 365.83 365.83 0 0 0 24 72 291 291 0 0 0 37.5 61.5 252.63 252.63 0 0 0 48 46.5l424 197q184 86 213 86 33 0 33-32l-3-20q-103-233-103-530zm1056 0q0 229-70 437-68 202-188 325-59 60-122 90.5a375.18 375.18 0 0 1 -132 36.5l-64 5q-49 4-104.5-8t-118-36.5q-62.51-24.49-132-59t-147.5-74.5q-78-39-149-78.5t-136-77.5q-65-38-114-66.5t-84-50.5l-147 108q-8 6-16.5 13a124 124 0 0 1 -19.5 13 144.55 144.55 0 0 1 -25 10.5q-14 4.5-32 4.5h-194q-72 0-114-2t-56-5q-27-6-42-20-14-14-19-35-2-9-4-145.5t-2-404.5v-95q0-46 6-102 3-27 6-45.5t8-26.5q7-18 54-60 48-43 138-108 46-33 74.5-51t40.5-23q26-10 65-10 44 0 128 6 42 2 72 4t47 4q49 1 76.5 25t27.5 62v18q109-75 208.5-139t191.5-119q92-56 167-97t134-69q116-55 224-55 142 0 272 106 65 53 118 133t93 188a1306.66 1306.66 0 0 1 60.5 227q20.5 118 20.5 247z"/></svg>