<svg viewBox="0 0 2080 1612" xmlns="http://www.w3.org/2000/svg"><path d="m17 277q-17 0-17-55a236.39 236.39 0 0 1 28-112 256.59 256.59 0 0 1 33.5-47.5 169.65 169.65 0 0 1 43.5-34.5q25-14 57.5-21t75.5-7q48 0 48 22 0 12-41 26-124 42-173 148-37 81-55 81zm2063 901q0 109-73 185-75 75-187 90h-5q-34 0-34-11 0-10 31-26 97-52 185-175l15-27q30-70 51-70 17 0 17 34zm-506 227q-19 0-19-13 0-11 18-25 185-116 294-248 21-24 57-93 32-60 44-60 21 0 21 51 0 24-8.5 55a365.33 365.33 0 0 1 -25 64.5 475.21 475.21 0 0 1 -41 67.5 412.11 412.11 0 0 1 -57.5 64 431.15 431.15 0 0 1 -70 55 766.89 766.89 0 0 1 -80 44q-82 38-133 38zm-1481-874q-8 0-13.5-14t-5.5-34q0-112 39-198 38-86 130-141 91-55 167-55 28 0 49.5 7t21.5 19q0 13-9 16.5t-21 8.5q-137 51-218.5 133.5t-109.5 200.5q-14 57-30 57zm961 1081q-15 0-28-9.5t-39-41.5l-48-48q-26-26-52-48.5t-49-41.5q-24-20-80-60t-147-103q-85-59-147.5-108t-101.5-92q-78-85-118-181t-42-217q-1-85 31.5-166.5t88.5-144.5a430.67 430.67 0 0 1 131.5-100.5q75.5-37.5 161.5-35.5a774.84 774.84 0 0 1 81.5 6 454.94 454.94 0 0 1 74.5 16 511.83 511.83 0 0 1 71.5 28 626.4 626.4 0 0 1 73.5 42l75 49q42 26 65 26a68.48 68.48 0 0 0 38-11l96-63q70-46 145.5-68.5a600.06 600.06 0 0 1 157.5-24.5 344.15 344.15 0 0 1 158.5 34 429.73 429.73 0 0 1 132.5 98q57 62 90.5 143.5a431.2 431.2 0 0 1 32.5 170.5 702 702 0 0 1 -7.5 91.5 552.44 552.44 0 0 1 -18.5 81 466.43 466.43 0 0 1 -30.5 74.5 737.64 737.64 0 0 1 -42.5 72 791.21 791.21 0 0 1 -63.5 82 755.35 755.35 0 0 1 -75.5 74q-82 68-314 224a1117.55 1117.55 0 0 0 -96.5 72q-45.49 38-87.5 80l-50 49q-41 51-67 51z"/></svg>