<svg viewBox="0 0 2214 2213" xmlns="http://www.w3.org/2000/svg"><path d="m790 1704 317-318q40 38 57 70.5t28 55.5l-297 297q-114 114-283 114a436.72 436.72 0 0 1 -110-14q-52-15-52-37 0-19 59-19a441.66 441.66 0 0 0 148-48.5q70-37.5 133-100.5zm1038-1482q0-27-66-45-63-18-135-18-193 0-330 137l-433 434q76 12 179 72l380-380q88-88 185-133t158-45q62 0 62-22zm-1219 1835q187 0 320-133l415-416q-10-39-31.5-85t-56.5-100a1040.27 1040.27 0 0 0 -78.5-105.5q-43.5-51.5-95.5-102.5t-103-92.5a1080.77 1080.77 0 0 0 -103-74.5q-52-32-94.5-51.5t-76.5-27.5l-415 416q-132 134-132 320 0 191 132 319 67 65 146 98.5t173 34.5zm1605-1409q0 125-48 244t-142 214l-531 531q-39 37-92 37l-361 361q-87 87-197 132.5t-234 45.5q-163 0-302-83-141-82-225-225-82-144-82-301 0-126 45-233t134-197l353-354q0-53 36-89l540-542q92-92 209.5-140.5t249.5-48.5q172 0 324 88 148 87 235 238 88 152 88 322z"/></svg>