<svg viewBox="0 0 1904 1814" xmlns="http://www.w3.org/2000/svg"><path d="m1127 1339q34 0 34 33 0 21-34 49-33 29-77.5 46t-101.5 17a281.49 281.49 0 0 1 -74-9.5q-35-9.49-62.5-23.5t-46-30.5q-18.5-16.5-25.5-30.5a87.4 87.4 0 0 1 -5-9.5 23.2 23.2 0 0 1 -2-9.5q0-13 10.5-22.5t23.5-9.5q17 0 28 14 25 30 65.5 47t87.5 17q92 0 153-64 13-14 26-14zm-179-74q-71 0-122-39-50-40-50-99 0-57 50-97a199.54 199.54 0 0 1 56-30.5q30-10.5 66-10.5t66 10.5a199.54 199.54 0 0 1 56 30.5q50 40 50 97 0 59-50 99-51 39-122 39zm528-150a85.29 85.29 0 0 0 39.5-9.5 100.06 100.06 0 0 0 32-26 129.35 129.35 0 0 0 21.5-39 140.79 140.79 0 0 0 8-47.5 133.65 133.65 0 0 0 -8-46 130.66 130.66 0 0 0 -21.5-38.5 100.06 100.06 0 0 0 -32-26 86.87 86.87 0 0 0 -79 0 100.06 100.06 0 0 0 -32 26 130.66 130.66 0 0 0 -21.5 38.5 133.65 133.65 0 0 0 -8 46 140.79 140.79 0 0 0 8 47.5 129.35 129.35 0 0 0 21.5 39 100.06 100.06 0 0 0 32 26 85.29 85.29 0 0 0 39.5 9.5zm-528 450q183 0 272.5-75t89.5-219q0-167-106-285-108-119-256-119-152 0-259 119-105 119-105 285 0 294 364 294zm-530-450a88.35 88.35 0 0 0 40-9.5 98.33 98.33 0 0 0 32.5-26 129.35 129.35 0 0 0 21.5-39 140.79 140.79 0 0 0 8-47.5 133.65 133.65 0 0 0 -8-46 130.66 130.66 0 0 0 -21.5-38.5 98.33 98.33 0 0 0 -32.5-26 88.35 88.35 0 0 0 -40-9.5 85.29 85.29 0 0 0 -39.5 9.5 100.06 100.06 0 0 0 -32 26 130.66 130.66 0 0 0 -21.5 38.5 133.65 133.65 0 0 0 -8 46 140.79 140.79 0 0 0 8 47.5 129.35 129.35 0 0 0 21.5 39 100.06 100.06 0 0 0 32 26 85.29 85.29 0 0 0 39.5 9.5zm-155-685q20 0 53-50 39-58 60-78l22-16q59-45 59-68t-41-43q-43-20-78-20-58 0-106 43-45 44-45 110a158.15 158.15 0 0 0 6.5 45 160 160 0 0 0 17 39q10.5 17 24 27.5t28.5 10.5zm1292-275a158.6 158.6 0 0 0 -39.5 5 169.45 169.45 0 0 0 -39.5 16q-38 23-38 42 0 25 58 68 33 23 52 53 18 26 31 43.5t22.5 28q9.49 10.5 16.5 15a25.72 25.72 0 0 0 14 4.5q15 0 28.5-10.5t24-28a158 158 0 0 0 16.5-39 164.77 164.77 0 0 0 6-44.5q0-63-45-108t-107-45zm349 853q0 206-65.5 352t-199.5 249a868.41 868.41 0 0 1 -146 89.5q-79 38.51-173 64.5a1401.31 1401.31 0 0 1 -187 38.5 1410.32 1410.32 0 0 1 -188 12.5q-182 0-366-52-94-26-174-65.5a859.39 859.39 0 0 1 -147-91.5q-132-104-195-250.5t-63-349.5q0-236 93-436a418.09 418.09 0 0 1 -35-57.5 561.16 561.16 0 0 1 -28-65 446 446 0 0 1 -18.5-68 364.43 364.43 0 0 1 -6.5-67.5q0-135 89-219 88-84 201-84 86 0 182 54a251.43 251.43 0 0 0 122 31h15q161-55 338-55a1088.24 1088.24 0 0 1 159 11.5 961.52 961.52 0 0 1 153 35.5l18 1a164.72 164.72 0 0 0 59-7 316.42 316.42 0 0 0 61-26q98-53 182-53 55 0 107.5 22.5a310.89 310.89 0 0 1 94 62.5q41.51 40 66 95t22.5 120a465.73 465.73 0 0 1 -20.5 123q-18.5 60-56.5 117 107 213 107 468z"/></svg>