<svg viewBox="0 0 2358.29 2283" xmlns="http://www.w3.org/2000/svg"><path d="m901.29 1346-526-406-3 19q0 23 14 44.5t41 44.5l17 15q20 16 51.5 42t78.5 62q47 35 132 98.5t212 155.5q248 182 295 212 45 29 64 32 18-45 26.5-79t8.5-55q0-22-2-46.5t-5-53.5q-42 14-79 20a438.15 438.15 0 0 1 -70 6q-57 0-112-23-28-11-63.5-33t-79.5-55zm-172-932 157-15 115-13 157-32q6-1 14.5-2.5a80.87 80.87 0 0 0 16-4.5 49.12 49.12 0 0 0 12.5-7 12.33 12.33 0 0 0 5-10q0-14-46-54-23-19-38.5-30.5t-23.5-15.5q-15-9-45-11l-72 4-122 14q-59 6-108.5 11.5a756.63 756.63 0 0 0 -91.5 15.5q-81 18-81 41 0 24 51 67 48.99 42 100 42zm358 1344 36-4 57-11-97-65-236-183q-252-195-379-295t-130-104q-32-37-48-70-100 30-100 66l3 12q3 7 39 39t107 89q71 58 163 129.5t205 158.5q114 87 177 134t77 57q66.99 47 126 47zm1159-448q0-40-30.5-65t-78.5-25a474.42 474.42 0 0 0 -50 3 548.44 548.44 0 0 0 -63 11q-34 7-77.5 18t-97.5 26l-439 121a332.85 332.85 0 0 1 11 56 534.82 534.82 0 0 1 3 57q0 81-32 160 15-2 88.5-20.5t207.5-53.5q135-36 225-62t137-42q97-33 126-55 32-23 51-55t19-74zm-274 496q0-41-29-66t-76-25q-88 0-295 58-72 20-142.5 38t-143.5 34q-73 17-111 24.5t-41 7.5q18 68 18 127 0 91-33 163 14-2 76-17.5t173-45.5q110-30 187-50.5t122-34.5l137-42q24-8 40-14.5a239.25 239.25 0 0 0 25-11.5 91.27 91.27 0 0 0 20-14q10-9 21-21a260.28 260.28 0 0 0 21-23.5 155.57 155.57 0 0 0 15.5-24 117.33 117.33 0 0 0 10-27.5 278.94 278.94 0 0 0 5.5-35zm-763-465q53-12 146-36t230-62q137-38 227.5-65t136.5-44a186.76 186.76 0 0 0 80.5-62 184.76 184.76 0 0 0 24.5-45 138.5 138.5 0 0 0 9-49q0-40-30.5-64.5t-75.5-24.5q-44 0-117.5 14.5t-178.5 43.5l-111 30q-91 24-208 49-58 12-87 18.5t-31 6.5q8 40 12.5 70.5t4.5 53.5a480.29 480.29 0 0 1 -3.5 58.5q-3.51 28.5-8.5 51a303 303 0 0 1 -10.5 37.5q-5.51 15-9.5 19zm-1016-734-3 21q0 44 72 104 53 51 438 329l333 241a229.56 229.56 0 0 0 30.5 19 214.41 214.41 0 0 0 30.5 13 578.79 578.79 0 0 0 26.5-72.5q9.49-33.49 9.5-61.5 0-70-18-145-12-3-115-74-52-36-102.5-74t-101.5-77l-557-422q-2 35-12.5 85t-30.5 114zm764 1531 48 22q18-47 26-80.5t8-53.5q0-100-19-145-13-5-116-78.5t-295-217.5q-194-144-309-231.5t-154-119.5q-4 71-44 200l-2 20q0 47 72 104 14 14 49.5 41.5t91.5 69.5l120 90q38 28 109 80.5t179 130.5q107 77 166 119t70 49zm1401-813q0 47-15.5 88t-55.5 75a334.51 334.51 0 0 1 -89 56q-24 11-66 26.5t-102 35.5a300.65 300.65 0 0 1 41 92.5q13 50.51 15 109.5a224.11 224.11 0 0 1 -9.5 71 232.45 232.45 0 0 1 -32.5 66.5q-22 31.5-57 57.5t-83 45q-71 27-178 61t-271 80l-246 68q-42 11-77 18.5t-65 7.5a310.27 310.27 0 0 1 -58-5.5 272.91 272.91 0 0 1 -59.5-19 537.59 537.59 0 0 1 -64.5-34.5q-34-21-74-52l-36-27q-48-37-147-112t-248-192q-149-116-227.5-178.5t-88.5-71.5q-15-13-28-34a277.34 277.34 0 0 1 -21.5-42 283.25 283.25 0 0 1 -12.5-37q-4-16-1-21a98.79 98.79 0 0 1 2.5-22q2.49-11 5.5-22 33-113 49-179.5t16-88.5q-22-47-22-82 0-44 26-70a279.39 279.39 0 0 1 30-26 248 248 0 0 1 38-23q22-11 57.5-22t83.5-23l7-24q-38-29-66.5-51t-48.5-39q-40-33-64-73t-24-80a105.58 105.58 0 0 1 2.5-22.5 171.92 171.92 0 0 1 6.5-22.5q22-76 42-164 21-88 21-106-21-45-21-80 0-41 28-74.5t87-54.5q76-26 176-45.5t225-33.5q125-14 203-21.5t110-7.5q64 0 118 12 26 6 55.5 19t61.5 30q33 19 119.5 79.5t229.5 165.5q143 106 243.5 183.5t160.5 128.5q120 104 150 147a317.91 317.91 0 0 1 45.5 93q15.49 51 20.5 123 53 46 86 82t48 60q29 47 40 115 9 68 9 87z"/></svg>