<svg viewBox="0 0 2156 2281" xmlns="http://www.w3.org/2000/svg"><path d="m1108 1501h60q0-30-17-53.5t-43-32.5zm-120 0h61v-86q-28 9-44.5 32.5t-16.5 53.5zm180 140v-81h-60v81zm-180-81v81h61v-81zm239-65v174q0 13-9 21.5t-20 8.5h-239q-14 0-22-8.5t-8-21.5v-169a146.38 146.38 0 0 1 11.5-58 149.24 149.24 0 0 1 32-47.5 156.31 156.31 0 0 1 47.5-32.5 141.17 141.17 0 0 1 58-12 147.14 147.14 0 0 1 56 11 150.7 150.7 0 0 1 47.5 30.5 152.61 152.61 0 0 1 33 46 133.11 133.11 0 0 1 12.5 57.5zm-1127-424q0-30 10.5-55a125.23 125.23 0 0 1 29.5-43 135.28 135.28 0 0 1 45-28q26-10 57-10l34 4 32 5q13 0 19-9 60-100 141-100 53 0 94 45 41 44 41 105a200.85 200.85 0 0 1 -4 40.5 214.28 214.28 0 0 1 -13.5 41.5 420 420 0 0 1 -25 48q-15.5 26-37.5 59a437.07 437.07 0 0 0 -24 38 172.53 172.53 0 0 0 -15 35q-12 42-26 42l-13-4-37-17-59-16-59-12q-52-11-88-28.5t-58.5-39.5q-22.5-22-33-48a140.38 140.38 0 0 1 -10.5-53zm1440-835q0-64 43-107 43-45 96-45a135.12 135.12 0 0 1 58.5 13q27.49 13 49.5 43l13 19q16 28 23 37t18 9l56-6a145.48 145.48 0 0 1 55 10.5 142 142 0 0 1 45 28.5 134.38 134.38 0 0 1 30 42 121 121 0 0 1 11 51q0 63-50 113-51 49-193 64-59 6-103 24l-24 7q-13 0-25-41a310.69 310.69 0 0 0 -34-79q-17-28-30-51.5a389.23 389.23 0 0 1 -21.5-45 268.38 268.38 0 0 1 -13-42.5 209.54 209.54 0 0 1 -4.5-44zm-1139 1391v554h340v-727zm1349 554v-554l-341-173v727zm406-1159q0 47-18.5 85.5t-55.5 73.5q-36 34-90 51.5t-126 15.5l-137-4h-30l-31 3-35 6-35 6q-23 0-23-36v-13l-5-20q-5-27-17-70t-33-102q-33-91-33-156 0-96 59-163 60-67 142-67 56 0 111 44 27 22 43.5 43.5a137.93 137.93 0 0 1 23.5 45.5q20 73 45 74 120 5 182.5 52t62.5 131zm-2156-637q0-86 57-141 58-55 143-55a135.87 135.87 0 0 1 46 7.5 129.85 129.85 0 0 0 44 7.5q26 0 60-61 19-33 67-62 49-30 99-30a159.54 159.54 0 0 1 53.5 9 185 185 0 0 1 48.5 26q48 35 66.5 82t18.5 92a285.58 285.58 0 0 1 -6 58 249.83 249.83 0 0 1 -20 58q-13 29-34.5 66t-52.5 84a514.49 514.49 0 0 0 -33 54 395 395 0 0 0 -21 47q-20 60-35 60a59.67 59.67 0 0 1 -19-3 106.6 106.6 0 0 1 -18-8l-37-18-81-23-82-18q-69-15-119-39.5t-82.5-55q-32.5-30.5-47.5-66t-15-71.5zm1227 1591v205h84v-955h-470v955h88v-200q0-63 44-107 43-43 105-43a147.14 147.14 0 0 1 56 11 155.37 155.37 0 0 1 47.5 30 144.84 144.84 0 0 1 33 46 136.41 136.41 0 0 1 12.5 58zm747-419v101q0 24-16 37.5t-33 13.5l-23-6-52-26v553q0 22-14.5 36.5t-36.5 14.5h-1447a49.94 49.94 0 0 1 -36-14.5q-15-14.5-15-36.5v-553q-32 16-52.5 26t-21.5 6q-20 0-34.5-15a49.94 49.94 0 0 1 -14.5-36v-101q0-30 26-44l537-283v-53l5-22 255-557v-315h-153v-149h153v-134h148v134h155v149h-155v315l256 557 4 22v53l538 283q27 15 27 44z"/></svg>