<svg viewBox="0 0 1990 1821" xmlns="http://www.w3.org/2000/svg"><path d="m1088 1631q33 0 33-34 0-16-10.5-29.5t-30.5-27.5q-41-27-77-27-41 0-80 30-40 30-40 64 0 26 33 26 22 0 42-20 21-21 41-21 15 0 44 20 30 19 45 19zm231-508-254 134q0 33 12 60a130.15 130.15 0 0 0 33 45.5 155.22 155.22 0 0 0 49.5 29q28.5 10.5 61.5 10.5 39 0 72.5-11.5t58-31.5a150.39 150.39 0 0 0 38.5-46.5 121.25 121.25 0 0 0 14-57.5q0-76-85-132zm-732 129a129.31 129.31 0 0 0 14 59.5 146.74 146.74 0 0 0 38.5 47.5q24.5 20 58 31.5a218.63 218.63 0 0 0 71.5 11.5q35 0 64-10.5t50-29.5a129.78 129.78 0 0 0 32.5-46q11.5-27 11.5-59l-255-134q-85 52-85 129zm-477-664 12-5q31-14 50.5-23t30.5-9q17 0 26 8t9 16q0 10-5 15-7 7-74 56-50 36-60 108 8 71 29.5 130t53.5 91l-1-12q0-49 25-83 13-18 37.5-41.5t60.5-53.5q52-43 52-74l-4-17-4-22q0-25 22-25a27.18 27.18 0 0 1 17.5 6 46.91 46.91 0 0 1 12.5 16 110.24 110.24 0 0 1 8 21.5 92.73 92.73 0 0 1 3 23.5q0 36-16 55.5a301.47 301.47 0 0 1 -37 37.5q-106 90-106 160 0 85 171 121l17-24a209.56 209.56 0 0 1 44.5-46.5 304.43 304.43 0 0 1 57.5-35 335.78 335.78 0 0 1 64.5-22.5 281.64 281.64 0 0 1 65.5-8 120.41 120.41 0 0 1 -44.5-53.5 170.83 170.83 0 0 1 -14.5-68.5q0-76 44-76 36 0 34 35l-1 28a140.56 140.56 0 0 0 4 41 110.38 110.38 0 0 0 15.5 35.5 99.66 99.66 0 0 0 25.5 26 79.7 79.7 0 0 0 33 13.5l37 6a369.24 369.24 0 0 0 47-14.5 156.89 156.89 0 0 0 40-22.5 128.73 128.73 0 0 0 31-35.5q13-21.5 19-53.5a154.16 154.16 0 0 0 -21.5-42.5 249 249 0 0 0 -30.5-34.5q-21-13-21-26 0-15 18-15a46.2 46.2 0 0 1 19 4 137.68 137.68 0 0 1 17 9 95.07 95.07 0 0 1 13.5 10q5.5 5 7.5 6l3-22v-74l-16-31q-8-15-23.5-28.5a178 178 0 0 0 -36-24 224.89 224.89 0 0 0 -45-17 192.36 192.36 0 0 0 -49.5-6.5q-29 0-83 28-55 28-92 28-56 0-89-35-11-12-23.5-24.5t-32.5-12.5l-56 11q-23 0-23-23 0-14 7-23.5a54.36 54.36 0 0 1 18-15.5 82 82 0 0 1 24.5-8.5 150.44 150.44 0 0 1 27.5-2.5q40 0 86 28a278.76 278.76 0 0 0 40 20q18 7 32 7 29 0 85-22 54-22 88-22a312.45 312.45 0 0 1 89 13q44 13 72 39v-113q-10-112-105-136a235.73 235.73 0 0 0 -25.5-3q-14.5-1-14.5-9 0-11 13-18a58.12 58.12 0 0 1 28-7q64 0 104 37v-83q-72-72-141-77-20 4-36.5 7a88.27 88.27 0 0 0 -31 12q-14.5 9-28 27.5t-27.5 54.5l-5 21q-6 21-13.5 32.5t-19.5 11.5q-10 0-16.5-9.5t-6.5-24.5q0-64 42-125-183 32-330 145 84 0 119 26 36 27 36 38 0 17-19 17l-14-4q-44-21-72-21a212.28 212.28 0 0 0 -50.5 6.5 240.62 240.62 0 0 0 -100 52 195.19 195.19 0 0 0 -38.5 45.5q-21 32-30 38-18 35-32 69.5a511.46 511.46 0 0 0 -23 71.5zm1547-339q-147-113-330-145 21 32 31 63.5a202.56 202.56 0 0 1 10 61.5q0 34-23 34-26 0-31-44a117.65 117.65 0 0 0 -4.5-16.5 163.43 163.43 0 0 0 -9-21.5q-5.51-11-11.5-22a157.32 157.32 0 0 0 -12-19 97.2 97.2 0 0 0 -11-14.5 36.17 36.17 0 0 0 -14-9.5q-6-4-22.5-9t-44.5-10q-69 5-141 77v83q40-37 104-37 16 0 28 7t12 18q0 8-14 8-59 4-94.5 40.5t-35.5 99.5v113q28-25 71.5-38.5a297 297 0 0 1 88.5-13.5q33 0 89 22 54 22 85 22 14 0 32.5-7a306.28 306.28 0 0 0 41.5-20q48-28 83-28 78 0 78 50 0 23-23 23l-56-11q-20 0-32.5 12.5t-23.5 24.5q-33 35-90 35-18 0-40-7t-49-21q-55-28-86-28a205.42 205.42 0 0 0 -50 6 226.35 226.35 0 0 0 -44.5 16 135.43 135.43 0 0 0 -35 24q-14.5 14-21.5 30l-18 31v74l3 22q29-29 57-29 17 0 17 15 0 12-19 26-23 15-54 78 7 32 20 53.5a128.73 128.73 0 0 0 31 35.5 156.89 156.89 0 0 0 40 22.5 279.1 279.1 0 0 0 48 13.5l20-5q49-3 71-38t22-85v-22q0-35 33-35 45 0 45 75 0 40-15 67t-44 56a269.67 269.67 0 0 1 57 6.5 358.83 358.83 0 0 1 58.5 18 318.85 318.85 0 0 1 54 28 243.52 243.52 0 0 1 44.5 36.5l35 47q171-37 171-121 0-70-105-160-23-19-38-38t-15-55a110.11 110.11 0 0 1 2.5-23.5 79.32 79.32 0 0 1 8-21.5 52.57 52.57 0 0 1 13-16 27.18 27.18 0 0 1 17.5-6q20 0 20 25l-4 22-4 17 7 20a201.22 201.22 0 0 0 46.5 54.5q28.5 23.5 55.5 48a277.73 277.73 0 0 1 46.5 54.5q19.5 30 19.5 75v12a271.36 271.36 0 0 0 35-50 320.65 320.65 0 0 0 23-54 476.78 476.78 0 0 0 14.5-57q5.51-29 9.5-60 0-68-60-110-20-13-36.5-25t-28-21q-11.51-9-15.5-15t2-8q0-8 9.5-16t25.5-8a98.65 98.65 0 0 1 24.5 3.5 190.14 190.14 0 0 1 26.5 9 201.85 201.85 0 0 1 24 12q11 6.5 17 12.5-13-68-53-141-12-9-44-58-22-35-75-59-55-25-101-25a123.2 123.2 0 0 0 -59 15q-19 10-28 10-17 0-17-17 0-12 34-38 33-26 120-26zm333 438q0 191-43 314a631.8 631.8 0 0 1 -55.5 118.5q-33.5 55.5-82.5 106.5-97 100-216 134-25 7-50.5 28t-53.5 55q-57 71-85 89a136.42 136.42 0 0 1 -28.5 15q-15.49 6-33.5 11-52 15-67 80a405.77 405.77 0 0 1 -13 45.5q-7 19.5-15 32.5-15 23-70 57-27 17-50 26.5a294.13 294.13 0 0 1 -44 14.5 229.64 229.64 0 0 1 -42.5 6q-21.49 1-45.5 1-50 0-87-8t-63-22q-43-24-71-47t-39-46l-19-60q-10-32-26-52t-42-28l-46-18q-38-22-99-98-55-67-106-82a469.49 469.49 0 0 1 -112.5-51.5q-53.5-33.5-102.5-84.5t-83-106.5a634.52 634.52 0 0 1 -56-116.5q-43-119-43-318 0-168 107-326 106-157 286-257 181-100 372-100 132 0 230 88 98-88 231-88 189 0 368 96 180 95 287 256 109 160 109 335z"/></svg>