<svg viewBox="0 0 1752 1749" xmlns="http://www.w3.org/2000/svg"><path d="m876 946q-36 0-63-25t-27-65a87.39 87.39 0 0 1 7-34.5 85.19 85.19 0 0 1 19.5-28.5 103 103 0 0 1 29-19.5 82.45 82.45 0 0 1 34.5-7.5 87.19 87.19 0 0 1 36.5 7.5 91.7 91.7 0 0 1 47 48 80.81 80.81 0 0 1 6.5 31.5q0 42-24 67.5t-66 25.5zm0 668q181 0 339-79 158-80 266-223a795.9 795.9 0 0 0 87.5-150q34.5-78 51.5-166l-476-88q-14 105-92 172-75 66-176 66-64 0-122-30l-201 425q152 73 323 73zm-269-711-477 78q5 35 13.5 69.5a484.64 484.64 0 0 0 22.5 68.5l450-166zm269-803q-187 0-353 87-167 88-271 241-104 152-127 338l486 56q18-94 93-156 74-62 172-62 67 0 123 29l244-439q-170-94-367-94zm-193 756q0 38 14 71t42 63q55 59 137 59t137-58q56-58 56-135 0-76-58-134-56-57-135-57t-137 57q-56 56-56 134zm460-27 487-50a606.17 606.17 0 0 0 -28-140l-472 142zm-267-829q233 0 436 117 205 118 322 320 59 103 88.5 211t29.5 226q0 232-118 438-117 203-320 320-204 117-438 117-236 0-438-116-203-117-320-320-118-204-118-439 0-232 117-435 118-206 320-322 202-117 439-117z"/></svg>