<svg viewBox="0 0 2028 484.21" xmlns="http://www.w3.org/2000/svg"><path d="m1563 206v-8q0-26-20-43.5t-46-17.5q-26 0-46 21t-20 46q0 23 17 40t42 17a78.7 78.7 0 0 0 27.5-5 77.31 77.31 0 0 0 23.5-13.5 79.76 79.76 0 0 0 16-18q6-9.5 6-18.5zm465 128a69.49 69.49 0 0 1 -8.5 33q-8.51 16-21.5 16-17 0-30.5-14.5a177.76 177.76 0 0 1 -24.5-34l-22-39-23-28.5q-17-12-26.5-18.5t-17.5-6.5q-29 0-27 56 0 32-19 65.5t-51 61a267.09 267.09 0 0 1 -73.5 44.5 202 202 0 0 1 -86.5 15 285.68 285.68 0 0 1 -68.5-10 230.34 230.34 0 0 1 -60-26 176.71 176.71 0 0 1 -48-44q-20.5-27-31.5-64-18-58-44-58-25 0-53 32-30 35-48 35-29 0-29-28 0-51 59-138 59-88 147-135.5t196-47.5a436 436 0 0 1 151.5 27q73.5 27 134.5 80a407 407 0 0 1 93 116.5q16 30.5 24 59t8 51.5zm-1636-137q0-25-20-42.5t-46-17.5a59.28 59.28 0 0 0 -25 5.5 67.35 67.35 0 0 0 -21 15 78.77 78.77 0 0 0 -14.5 21.5 59.28 59.28 0 0 0 -5.5 25q0 25 18 41a61.23 61.23 0 0 0 42 16 78.14 78.14 0 0 0 50-17.5q22-17.5 22-46.5zm421 120q0 32-30 32-18 0-45-35-26-32-56-32-28 0-43 58-9 36-29 63a181.22 181.22 0 0 1 -48 45 217.18 217.18 0 0 1 -61.5 27 266.69 266.69 0 0 1 -69.5 9q-91 0-158-55-35-28-52-60.5a181.32 181.32 0 0 1 -20-70.5q-3-56-28-56-15 0-44 25-5 3-15.5 19.5t-28.5 45.5q-29 51-55 51-13 0-21.5-15a63.86 63.86 0 0 1 -8.5-32q0-75 58-157 58-83 153-130 100-49 198-49 81 0 148.5 25t124.5 76q53 49 93 119 38 71 38 97z"/></svg>