<svg viewBox="0 0 2314 1793" xmlns="http://www.w3.org/2000/svg"><path d="m543 822a59.72 59.72 0 0 0 29.5-7.5 73.41 73.41 0 0 0 23-20 91.93 91.93 0 0 0 14.5-28.5 106.88 106.88 0 0 0 5-32q0-29-17.5-50.5t-45.5-21.5q-28 0-49.5 24.5t-21.5 61.5q0 32 17.5 53t44.5 21zm585 15q28 0 44.5-23.5a87.71 87.71 0 0 0 16.5-51.5q0-37-22-61.5t-50-24.5q-28 0-45 22t-17 51a98.93 98.93 0 0 0 6 35 90.07 90.07 0 0 0 16.5 28 76.82 76.82 0 0 0 23.5 18.5 59.72 59.72 0 0 0 27 6.5zm-732 402q-5-36-8.5-78.5a734.07 734.07 0 0 1 -1.5-90.5l2-43q52 51 114 78 59 27 59 36 0 12-10 27.5t-30.5 29.5q-20.5 14-51.5 25.5t-73 15.5zm1198 96 6 96-2 23v10q0 52-15 75-7 10-20 18.5a127.09 127.09 0 0 1 -29.5 14 220.89 220.89 0 0 1 -35.5 8.5 243.29 243.29 0 0 1 -38 3l-52-2-4-105q-2-30 1-53.5t7-43.5q54 0 116-18 61-18 66-26zm-821 208 7 113q3 54-43 82.5t-125 28.5q-85 0-152-39-29-17-29-88 199-21 342-97zm1512-505q29 0 29 34 0 49-44 82t-100 33q-70 0-105-42l-10-8-3 5 2 12-2 26v26l4 186q2 66-9 108.5t-32 65.5q-39 44-135 44-46 0-77.5-5.5t-50.5-20.5q-19-15-27.5-40t-7.5-64l2-78a246.65 246.65 0 0 0 -7-60q-7-28-21-49a112.17 112.17 0 0 0 -34-33.5 88.62 88.62 0 0 0 -44-13.5q-17-1-38 10l-36 17-78 24-30 2q-30 3-50 9.5t-32 22q-12 15.49-17 42.5t-6 71q-1 33 1 65t5 62.5q3 30.49 5.5 61.5t2.5 62q0 49-41.5 73.5t-139.5 24.5q-76 0-117.5-22.5t-43.5-67.5l-3-49 3-103q2-59-10.5-98.5t-35.5-62.5q16-20 44-77 47-69 98-122t110-85q90-48 147.5-121t82.5-175q62 35 159 35 110 0 190-72 79-72 79-175 0-89-80-226-23-38-72-190a573.41 573.41 0 0 0 -26.5-65.5 473.56 473.56 0 0 0 -37.5-64.5q86 11 163.5 57.5t143.5 121.5q66 76 110 171 45 96 45 245 0 31-1.5 60t-3.5 58q-2 29-3.5 58.5t-1.5 62.5q0 92 28.5 142.5t77.5 50.5q22 0 45-20 22-21 36-21zm-1428-60q0 133 97 213-10 91-92 186-80 95-232 144-153 49-330 49-100 0-134-12-33-12-49.5-40t-16.5-82q0-102 55-109a440.83 440.83 0 0 1 61-6q32-1 65 0 100 2 168-15t110-44.5q42-27.49 60.5-60.5t21.5-62q0-58-81-93a404.57 404.57 0 0 1 -89.5-52.5 346.44 346.44 0 0 1 -69.5-72 329.06 329.06 0 0 1 -45-89q-16-48.5-16-104.5 0-65-29-65a82.29 82.29 0 0 0 -20.5 3 78.83 78.83 0 0 0 -22.5 10q-51 30-112 30-70 0-113-33.5t-43-85.5a77.16 77.16 0 0 1 4-25.5q4-11.5 9-22.5l19-43q29-63 43.5-120.5t23.5-108.5q10-54 21-91.5t27-60.5a277.74 277.74 0 0 1 144-105.5 201 201 0 0 1 61-9.5 295.37 295.37 0 0 1 60 6 446.76 446.76 0 0 1 57.5 16q28.5 10 56.5 21.5t56 21.5a31.08 31.08 0 0 0 13 5 98.38 98.38 0 0 0 14 1q23 0 49-12 64-29 123.5-43.5t113.5-14.5q63 0 102.5 13t68.5 28q29 15 54.5 28t61.5 13q41 0 118-27 74-26 118-26 87 0 141.5 48.5t83.5 148.5q20 66 35.5 109.5t29.5 65.5q23 39 37.5 68.5t22.5 49.5a236.63 236.63 0 0 1 12 39 188.62 188.62 0 0 1 4 39q0 69-56 120-53 49-135 49-76 0-133-31-22-13-45-13-16 0-25.5 5a39.23 39.23 0 0 0 -15 13.5 69.09 69.09 0 0 0 -8.5 19.5q-3 11-6 24-17 68-57 134-42 66-111 105-72 40-110 40-87 0-191-100-7-7-16-7a15.66 15.66 0 0 0 -13 6.5 23.22 23.22 0 0 0 -5 14.5z"/></svg>