<svg viewBox="0 0 2020 1845.55" xmlns="http://www.w3.org/2000/svg"><path d="m1003 1346.55a127 127 0 0 1 -40.5-6.5 165.08 165.08 0 0 1 -35.5-16.5q-16-10-25.5-22.5t-9.5-25.5q0-19 20-19 9 0 16 7t16.5 15.5a110.28 110.28 0 0 0 23 15.5q13.5 7 35.5 7 36 0 59-23 22-22 31-22a20.88 20.88 0 0 1 14.5 6q6.49 6 6.5 14 0 12-9.5 24.5t-25.5 22.5a165.08 165.08 0 0 1 -35.5 16.5 127 127 0 0 1 -40.5 6.5zm357-390a90.27 90.27 0 0 1 39 8.5 98.78 98.78 0 0 1 31.5 23.5 110.19 110.19 0 0 1 21 34.5 114.63 114.63 0 0 1 7.5 41.5 121.43 121.43 0 0 1 -7.5 43 108.81 108.81 0 0 1 -21 35 98.63 98.63 0 0 1 -31.5 23.5 90.12 90.12 0 0 1 -39 8.5 86.9 86.9 0 0 1 -38.5-8.5 94.77 94.77 0 0 1 -30.5-23.5 113.83 113.83 0 0 1 -20.5-35 121.43 121.43 0 0 1 -7.5-43 115.77 115.77 0 0 1 28-76 94.91 94.91 0 0 1 30.5-23.5 87 87 0 0 1 38.5-8.5zm-718 0a90.27 90.27 0 0 1 39 8.5 98.78 98.78 0 0 1 31.5 23.5 110.19 110.19 0 0 1 21 34.5 114.63 114.63 0 0 1 7.5 41.5 121.43 121.43 0 0 1 -7.5 43 108.81 108.81 0 0 1 -21 35 98.63 98.63 0 0 1 -31.5 23.5 90.12 90.12 0 0 1 -39 8.5 84.68 84.68 0 0 1 -37.5-8.5 100.4 100.4 0 0 1 -31-23.5 116.24 116.24 0 0 1 -21.5-35 114.73 114.73 0 0 1 -8-43 108.35 108.35 0 0 1 8-41.5 118 118 0 0 1 21.5-34.5 100.56 100.56 0 0 1 31-23.5 84.82 84.82 0 0 1 37.5-8.5zm569 472q0 32-60 71-58 38-131 38-82 0-145-32-66-34-66-77 0-9 6.5-17.5t18.5-8.5l19 6 16 8a648.73 648.73 0 0 0 70 29.5q33 11.51 64 11.5a263.64 263.64 0 0 0 79-12.5q40-12.49 81-35.5 12-7 22-7l11 3q8 5 11.5 10t3.5 13zm586-222 27 3q50 0 75.5-34t25.5-89q0-54-31.5-84.5t-88.5-30.5l4 89a410.35 410.35 0 0 1 -2 69.5q-4 36.51-10 76.5zm-1704-120q0 55 26.5 90t76.5 35l15-2q-7-40-12-78a415 415 0 0 1 -3-76l4-83q-53 5-80 34t-27 80zm905 661q209 0 372-86a674 674 0 0 0 147.5-106.5 617.81 617.81 0 0 0 110-140 640.47 640.47 0 0 0 66.5-167q22-89.49 18-186.5l-4-95q-38-75-96-147t-129-150l-37-41q-43-48-66.5-70t-43.5-22a46.44 46.44 0 0 0 -29 10l-84 48q-76 44-135.5 73.5t-107.5 43.5q-48 14-78 21t-44 7q-50 0-50-28 0-16 45-60l41-41q46-39 46-67 0-11-13-11-17 0-38 11.5t-50 32.5l-274 200q-65 48-131.5 102.5a1145.47 1145.47 0 0 1 -134.5 95.5l-6 83a584 584 0 0 0 8.5 147 638.11 638.11 0 0 0 42 137.5 671.27 671.27 0 0 0 70.5 124 709.74 709.74 0 0 0 95 107.5q106 97 242 135 69 20 130.5 29.5t116.5 9.5zm1022-661q0 61-28 109-28 50-86 76-60 27-104 27l-27-3q-42 137-116 241.5t-177 173.5a657.47 657.47 0 0 1 -110.5 59 892.39 892.39 0 0 1 -126.5 42q-132 34-247 34-168 0-323-59-158-59-275-188-118-131-168-301l-18 1q-22 2-47-5.5a369 369 0 0 1 -54-21.5q-60-28-86.5-75.5t-26.5-109.5q0-86 46.5-141.5t131.5-67.5a692.24 692.24 0 0 1 -15.5-80 536.19 536.19 0 0 1 -4.5-84q3-231 109-379 106-149 298-241 98-47 196.5-72a695.51 695.51 0 0 1 199.5-21l37 1 37-1a689.12 689.12 0 0 1 204 22.5q100 26.5 199 74.5 197 96 299.5 248.5t102.5 378.5q0 40-3 77.5a660.13 660.13 0 0 1 -10 73.5q91 8 142 64t51 147z"/></svg>