<svg viewBox="0 0 2172 2164" xmlns="http://www.w3.org/2000/svg"><path d="m1592 607v-71q-41 9-41 33t41 38zm118 182v81q41-11 41-40 0-15-10.5-23t-30.5-18zm298 476v-179a483.26 483.26 0 0 1 -60.5 49.5 560.86 560.86 0 0 1 -68.5 40.5 536.37 536.37 0 0 1 129 89zm-81 565 2 11q-1 8-16 24t-40.5 32q-25.5 16-59 27.5a184.42 184.42 0 0 1 -70.5 9.5q-48-2-114-19-68-18-115-18-34 0-51.5 8.5t-29.5 8.5q-8 0-10-7l-46-108v-8l6-4q81-27 108-88h-90q-10 0-10-10v-84q0-10 10-10h97a543.61 543.61 0 0 0 -13-67 228.51 228.51 0 0 1 -8-59q0-35 12.5-65a153.61 153.61 0 0 1 34.5-51.5q22-21.49 53-34t69-12.5a144.74 144.74 0 0 1 39.5 5.5 154.16 154.16 0 0 1 36.5 15.5 249.28 249.28 0 0 1 62 50q27 33 27 43l-3 8-79 71-8 3-7-5q-24-50-56-50-11 0-18 4.5a37 37 0 0 0 -11 10.5 37.71 37.71 0 0 0 -5.5 12.5 47.7 47.7 0 0 0 -1.5 9.5l3 11q5 14 9 39t7 61h102q9 0 9 10v84q0 10-9 10h-107q-6 44-23 74 48 14 79.5 21.5t48.5 7.5q66 0 112-47l9-3 5 3zm-1689-1608-3-6q0-14 14-14h122q7 0 10 6l133 191 134-191a12.55 12.55 0 0 1 11-6h121q13 0 13 13l-2 7-141 210h106q10 0 10 11v66q0 11-10 11h-164v41h164q10 0 10 11v67q0 9-10 9h-164v114q0 12-14 12h-128q-12 0-12-12v-114h-166q-11 0-11-9v-67q0-11 11-11h166v-41h-166q-11 0-11-11v-66q0-11 11-11h108zm691 1203 49 113-1 8q-86 72-207 72-53 0-99-14a290.17 290.17 0 0 1 -83-40 282.38 282.38 0 0 1 -64-62 265 265 0 0 1 -41-81h-93q-9 0-9-8v-62q0-8 9-8h78l-2-20 2-19h-78q-9 0-9-9v-63q0-8 9-8h93a265 265 0 0 1 41-81 273.41 273.41 0 0 1 64-61.5q37-25.5 83-39t99-13.5q123 0 200 60l1 8-57 115-4 3-6-2a205.3 205.3 0 0 0 -59.5-30.5q-32.5-10.5-73.5-10.5-76 0-120 52h98q10 0 10 8v63q0 9-10 9h-132l-2 19 2 20h132q10 0 10 8v62q0 8-10 8h-98q44 52 120 52a193.7 193.7 0 0 0 38-4 355.34 355.34 0 0 0 40-10.5 274.4 274.4 0 0 0 38-15.5 187 187 0 0 0 32-20l6-2zm979-596q0 69-57 118-59 48-141 54v36q0 12-12 12h-94q-12 0-12-12v-44q-31-6-56.5-13a417.91 417.91 0 0 1 -47.5-16 307.67 307.67 0 0 1 -45-22q-24-14-52-34l-4-5 3-7 61-82 6-3 7 2q75 38 128 50v-116l-48-19q-43-17-72-33t-46-33q-17-17-24.5-36t-7.5-42q0-69 52-112t146-51v-42q0-11 12-11h94q12 0 12 11v56a570.43 570.43 0 0 1 71 22q37 14 79 34l6 7-2 7-52 78-6 4-5-2-91-32v95q54 23 89 41t52 32q33 28 45 53t12 55zm-257 1217q165 0 285-117 119-117 119-285 0-169-119-286-120-117-285-117-168 0-285 117t-117 286q0 169 116 285 117 117 286 117zm0-934q82-2 152.5-30.5t130.5-88.5q121-120 121-284 0-165-118-285-117-119-286-119-167 0-285 118-59 59-87 129.5t-30 156.5a360 360 0 0 0 13 103.5 406.74 406.74 0 0 0 104.5 179 442.8 442.8 0 0 0 82.5 65 385.55 385.55 0 0 0 96 42 361.21 361.21 0 0 0 106 13.5zm-1343 584h825l-2-27v-25q0-151 79-276 81-128 214-192-130-63-207-182h-909zm-191-1578v759h1042a705.7 705.7 0 0 1 -20.5-90.5 638.14 638.14 0 0 1 -7.5-77.5 443.56 443.56 0 0 1 17-135.5 521.6 521.6 0 0 1 54-125 550.41 550.41 0 0 1 83.5-107 557.32 557.32 0 0 1 106.5-83.5 500.13 500.13 0 0 1 124-53.5 472.23 472.23 0 0 1 135-17.5q43 2 84 8a459.5 459.5 0 0 1 82 20v-97zm2009 804v507q46 101 46 215 0 138-70 259-67 117-190 190a487.76 487.76 0 0 1 -125.5 53.5 522.54 522.54 0 0 1 -135.5 17.5q-169 0-302-96-136-96-189-254h-911q-25 0-42-17.5t-17-41.5v-761h-131q-25 0-42-17a55.88 55.88 0 0 1 -17-41v-877q0-25 17-42t42-17h1818q23 0 41 17t18 42v213q115 78 175.5 193t60.5 244q0 114-46 213z"/></svg>