<svg viewBox="0 0 2146 1912" xmlns="http://www.w3.org/2000/svg"><path d="m2086 1640q0 37-27 64-28 28-69 41-20 8-62 15.5t-106 14.5q-53 6-93 24.5a267.4 267.4 0 0 0 -71 47.5q-37 34-72.5 49.5t-68.5 15.5q-63 0-97-57a281.3 281.3 0 0 1 -26.5-60 214 214 0 0 1 -9.5-63q0-113 104-221 105-108 255-108a358 358 0 0 1 164 39 560 560 0 0 1 69.5 43 400 400 0 0 1 57.5 51q52 57 52 104zm-539-551q2-78 29.5-117t85.5-39q58 0 101 59 44 59 44 132 0 33-8.5 61t-24 48.5q-15.5 20.5-36.5 31.5a97.65 97.65 0 0 1 -46 11q-28 3-54.5-11t-47-39.5q-20.5-25.5-32.5-60.5t-11-76zm599 67q0 35-9.5 65t-26.5 52a126.82 126.82 0 0 1 -40 34.5 103.07 103.07 0 0 1 -50 12.5q-33 0-59-13a138 138 0 0 1 -45-36q-19-23-29-54.5a221.76 221.76 0 0 1 -10-67.5q0-87 32-130.5t91-43.5q60 0 102 56 44 56 44 125zm-767 245q-69 0-123-63t-54-140a140 140 0 0 1 9-50.5 132.85 132.85 0 0 1 24.5-41 116.36 116.36 0 0 1 37.5-28 110 110 0 0 1 48-10.5q18 0 37 8a355 355 0 0 1 55 40.5 288.43 288.43 0 0 1 43 48 229 229 0 0 1 28 52.5 154.48 154.48 0 0 1 10 54 137.24 137.24 0 0 1 -9 49.5 139.4 139.4 0 0 1 -24.5 41.5 116.46 116.46 0 0 1 -36.5 28.5 99.24 99.24 0 0 1 -45 10.5zm-91 138a155.8 155.8 0 0 1 -8 50.5 117.65 117.65 0 0 1 -23 40.5 112.91 112.91 0 0 1 -35.5 27q-20.51 10-45.5 10-71 0-126-61-54-61-54-137a134.5 134.5 0 0 1 9-48.5 145.49 145.49 0 0 1 24-41.5 114.67 114.67 0 0 1 35-28.5 91.14 91.14 0 0 1 43-10.5q30 0 77 33 47 32 75.5 76.5t28.5 89.5zm-259-810q0 59-42 95t-120 31l-41-3-30-4h-19q-50 0-91.5 18.5a888.38 888.38 0 0 0 -87.5 45.5q-45 26-83.5 38.5t-72.5 12.5q-49 0-78-31.5t-29-86.5q0-67 46-165a391.34 391.34 0 0 1 58-87.5 362.92 362.92 0 0 1 76-65.5 367.15 367.15 0 0 1 90.5-42 338.15 338.15 0 0 1 100.5-15 346.86 346.86 0 0 1 83.5 10 450.94 450.94 0 0 1 81.5 29q81 38 119.5 94.5t38.5 125.5zm-604-315q-62 0-113-61t-51-140a177.77 177.77 0 0 1 8-53.5q8-25.5 23.5-44a116 116 0 0 1 37.5-29.5q22-11 49-11 54 0 106 73 52 70 52 136a137.24 137.24 0 0 1 -9 49.5 139.4 139.4 0 0 1 -24.5 41.5 118.37 118.37 0 0 1 -36 28.5 92.11 92.11 0 0 1 -42.5 10.5zm-134 88q0 55-37 93-37 40-83 40-67 0-119-62t-52-138a150.86 150.86 0 0 1 9.5-54 138.42 138.42 0 0 1 26-43.5 119.4 119.4 0 0 1 39-29 113.27 113.27 0 0 1 48.5-10.5q50 0 109 68t59 136zm320-323q0-81 33-130t90-49q61 0 103 53 41 53 41 125 0 63-36 115-34 50-91 50a133.71 133.71 0 0 1 -53.5-11 127.56 127.56 0 0 1 -44.5-32q-19-21-30.5-51.5t-11.5-69.5zm322 115q0-39 9-73t25-59q16-25 38.5-39.5a89.5 89.5 0 0 1 49.5-14.5q31 0 57 13.5a138.35 138.35 0 0 1 45 37.5q19 24 29.5 56t10.5 69q0 67-37 118-37 49-92 49-51 0-93-42t-42-115z"/></svg>