<svg viewBox="0 0 2068 2321" xmlns="http://www.w3.org/2000/svg"><path d="m485 563q-23 0-40 20t-17 49q0 29 17 49.5t40 20.5q24 0 41-20.5t17-49.5q0-29-17-49t-41-20zm-391 152a61.54 61.54 0 0 0 15.5 9q9.5 4 22.5 9l43 14q62 34 98 34 21 0 20-43l-6-109q-30 0-103 30-35 15-58 28.5t-32 27.5zm1881 203q0-18-15.5-33t-45.5-29a314.85 314.85 0 0 0 -62.5-21.5 299.31 299.31 0 0 0 -67.5-7.5q-157 0-218 114-40 76-46 113a257.49 257.49 0 0 1 -7.5 31.5 120.46 120.46 0 0 1 -12.5 27.5q10 0 29.5 3t50.5 8q63 10 90 35.5t27 67.5a110.13 110.13 0 0 1 -5 33 101 101 0 0 0 -5 30l2 8q24 19 24 68l-3 26a40.22 40.22 0 0 1 -7 13.5q-5 6.49-10 13.5t-8.5 13a23.67 23.67 0 0 0 -3.5 12q0 11 4 17t4 22q0 56-86 124-8 7-10.5 22a69 69 0 0 1 -9.5 26q-65 77-252 77-156 0-266-55.5t-164-158.5q-6-9-14-26.5t-19-45.5q-9-28-14-48.5t-5-33.5q0-21 13-21 5 0 16 23 42 140 148 212t267 72q62 0 104-5.5t68-14q26-8.51 37-19.5t11-23a9 9 0 0 0 -3.5-7q-3.49-3-7.5-6.5t-7.5-7a11.59 11.59 0 0 1 -3.5-8.5q0-8 9-13a115.86 115.86 0 0 1 22-9q13-4 29-8a124.71 124.71 0 0 0 29-11 76.2 76.2 0 0 0 22-17.5q9-10.5 9-27.5t-27-23q-27-6-27-19 0-8 10-13.5t22.5-12.5a89.45 89.45 0 0 0 22.5-18q10-11 10-29 0-15-10.5-21a87 87 0 0 0 -23-9q-12.49-3-23-6t-10.5-14q0-8 9-11.5t20-8a69.67 69.67 0 0 0 20-12.5q9-8 9-25 0-40-32-54-16-7-47-12t-77-7q-81-6-121-33l-20-19q-76-54-134-149-30-49-64.5-120t-76.5-166q-64-146-147.5-221t-201.5-80q-45-2-84 10a272.92 272.92 0 0 0 -73 35q82 22 130.5 74.5t48.5 119.5q0 70-48 134-23 32-48 52.5a342.38 342.38 0 0 1 -48 33.5l-35 21q-48 36-48 187 0 103-47.5 167t-133.5 78q15 157 69.5 269.5t146.5 185.5q92 73 219.5 108t288.5 36q102 2 195.5-13a1112.34 1112.34 0 0 0 179.5-44q87-29 151-65.5t102-85.5l44-56q28-36 51.5-63.5t47.5-42.5q56-36 77-62a121.15 121.15 0 0 0 26-59q6-34 6-41v-14q0-8-6.5-24.5t-6.5-46.5q0-20 19-50l2-11a82 82 0 0 0 -4-24 176.82 176.82 0 0 0 -11-27l-17-9q-23-14-34.5-23t-11.5-18q0-21 37-21l38 5 5-5q14-17 14-37 0-21-14.5-31a133.42 133.42 0 0 0 -31.5-16q-17-6-31.5-12t-14.5-18q0-30 52-30 23 0 52 13l13-7q16-26 16-45zm93 1q0 54-41 107l-4 4 3 33a102.23 102.23 0 0 1 -6.5 45.5 216.15 216.15 0 0 1 -22.5 43.5l-1 2q13 30 13 69 0 33-13 59l-6 8a166.35 166.35 0 0 1 13 65l-6 55a200.81 200.81 0 0 1 -10 49.5 225.09 225.09 0 0 1 -20 43.5q-22 38-101 99-22 17-40.5 34a286.82 286.82 0 0 0 -32.5 35l-64 83q-30 38-77 72.5t-107.5 63q-60.49 28.5-134 51t-157.5 36.5q27 87 27 147 0 54-26 92a214.69 214.69 0 0 1 -32 36.5q-19 17.51-47 33.5t-53.5 24.5a158.87 158.87 0 0 1 -50.5 8.5q-24 0-39.5-15t-15.5-39q0-35 71-65 70-31 70-92a153 153 0 0 0 -12-59 380.07 380.07 0 0 1 -19-59l-92 3q0 62-3.5 106t-11 75q-7.5 31-19.5 51.5a143.82 143.82 0 0 1 -29 35.5q-34 29-78.5 44.5t-86.5 15.5q-22 0-38.5-1.5t-27.5-7.5a37.8 37.8 0 0 1 -16.5-18q-5.5-12-5.5-32 0-55 85-67 38-4 60-19 22-13 31-44 5-14 9.5-50t6.5-95q-150-15-273-61.5t-212.5-130.5q-89.5-84-144-208t-67.5-294a198.65 198.65 0 0 1 -59.5-34 224.36 224.36 0 0 1 -45.5-51.5 253.7 253.7 0 0 1 -40-137.5 304.5 304.5 0 0 1 25.5-122 332 332 0 0 1 70.5-104l-29-14q-135-34-135-113 0-44 44-85 43-42 131-69 43-13 73.5-20t49.5-7l19-56q-24-23-44-45.5a302.21 302.21 0 0 1 -34-46 220.83 220.83 0 0 1 -22-50.5q-8-27-8-59a277.51 277.51 0 0 1 7.5-64.5 205.59 205.59 0 0 1 22.5-57 151.15 151.15 0 0 1 36.5-42.5 109.49 109.49 0 0 1 49.5-22 225 225 0 0 0 49.5-15.5 292.53 292.53 0 0 0 45.5-25.5q73-52 141-52 57 0 102 26a172.37 172.37 0 0 0 24.5 10 58.67 58.67 0 0 0 26.5 2l79-7q26-2 52.5 9t54.5 31a84.35 84.35 0 0 1 16.5 14.5q7.5 8.5 14.5 16.5t14.5 15.5a90.16 90.16 0 0 0 17.5 13.5l53 30q42 23 58 57.5t16 91.5q0 18-1.5 34t-3.5 33a181.13 181.13 0 0 1 -8 29.5q-5 13.5-11.5 27t-14 28.5a277.85 277.85 0 0 0 -14.5 36q25 35 57 97t73 153q31 70 56 119.5t48 78.5q22 30 43 53.5a450.66 450.66 0 0 0 40 40q19 16.5 34.5 25.5t25.5 9q9-4 14-36 9-57 57-141 48-83 118-122t181-41q104-1 195 51 89 50 89 134z"/></svg>