<svg viewBox="0 0 2412 1308" xmlns="http://www.w3.org/2000/svg"><path d="m323 597a64 64 0 0 1 23.5 4.5 70.47 70.47 0 0 1 21.5 13.5 68.42 68.42 0 0 1 16 21.5 62.71 62.71 0 0 1 6 27.5 85.31 85.31 0 0 1 -17 52q-17 23-45 23-24 0-45.5-17.5t-21.5-49.5q0-30 17-52.5t45-22.5zm1694 79 2-18q-103-74-175-74a388.81 388.81 0 0 0 -69 6.5q-36 6.5-92 6.5-91 0-163-66-70-64-149-64-17 0-40.5 5.5t-52.5 18.5a363.63 363.63 0 0 1 -56 19.5 206.18 206.18 0 0 1 -50 6.5q-53 0-90-14a535.33 535.33 0 0 1 -68-31q-31-17-61.5-31t-72.5-14q-32 0-54 5.5a246.79 246.79 0 0 0 -41 14q-19 8.5-37 18a359.16 359.16 0 0 1 -40.5 18q-22.5 8.5-52.5 14t-72 5.5a279.57 279.57 0 0 1 -46-4 387.33 387.33 0 0 1 -50-12 442.63 442.63 0 0 0 -51-13q-22-4-38-4a154.16 154.16 0 0 0 -43.5 6 115.08 115.08 0 0 0 -38.5 20 891.57 891.57 0 0 0 -85.5 76.5q-37.5 38.5-63.5 78.5l-47 71q23 0 52 6t65 20q71 27 71 60 0 26-32 26l-24-5q-26-11-41-16t-19-6a23.77 23.77 0 0 0 -8.5-2h-8.5q-19 0-30 14l1 10-1 8q46 65 159 127a1081.64 1081.64 0 0 0 112 55q55 23 109 40 32-61 32-159 0-155-44-281a220 220 0 0 0 -15-28.5q-10-16.5-10-28.5 0-19 21-19 20 0 32 10.5t21 27.5q5 10 13.5 30.5t19.5 53.5q23 66 21 68l16-10q55-26 106-39t99-13q46 0 77 10a29.78 29.78 0 0 0 11 2.5 60.31 60.31 0 0 1 13.5 2.5 22.52 22.52 0 0 1 11 7.5q4.5 5.5 4.5 17.5 0 33-6 59a165.14 165.14 0 0 1 -20 49 264.31 264.31 0 0 1 -18.5 27 420.43 420.43 0 0 1 -27.5 32q-15 17-25.5 27.5t-18.5 15.5a49 49 0 0 1 -14.5 6.5 64.61 64.61 0 0 1 -14.5 1.5 243.69 243.69 0 0 1 -42-3.5q-20-3.5-40-9t-41.5-12.5q-21.5-7-45.5-15v23q0 85-37 168 196 46 375 46 452 0 853-334 17-14 34.5-26t34.5-25l60-42a210.59 210.59 0 0 1 25.5-14.5q13.5-6.5 31.5-7.5zm395 197q0 32-19.5 51t-51.5 19q-60 0-211-107-36-26-61.5-41t-39.5-18l-71 49q-65 45-118.5 89a1219.24 1219.24 0 0 1 -110.5 81l-23 60q-16 55-36.5 76t-60.5 21q-32 0-67.5-8.5t-65.5-15.5q-36 17-88 34.5t-124 33.5a1435.65 1435.65 0 0 1 -142 25 974.69 974.69 0 0 1 -147 7l-54-2q3 4 9 11.5a160.1 160.1 0 0 1 11.5 16.5 138.77 138.77 0 0 1 9.5 18.5q4 9.49 4 16.5 0 18-27 18-29 0-60.5-9a400 400 0 0 1 -62-23.5 535.7 535.7 0 0 1 -60-33.5 542.15 542.15 0 0 1 -53.5-39q-131-22-233-58t-183-81q-121-67-179-123.5t-56-97.5l2-22q-26-25-34.5-40t-8.5-35q0-17 12-41t33-58q111-171 269.5-278.5t369.5-152.5q22-28 43.5-51t42.5-43q22-20 46.5-40.5t50.5-40.5q55-41 88-41 31 0 29 41l-6 88a159.66 159.66 0 0 0 2 36.5 193.93 193.93 0 0 0 8 30.5q88 5 193 24t230 51l32-29q41-44 68.5-63.5t52.5-19.5q47 0 83 79l17 36a248.09 248.09 0 0 0 30.5 49.5 228.25 228.25 0 0 1 30.5 51.5q34 14 90.5 43.5t144.5 61.5l16 6q5 0 12.5-10t21.5-29l9-13 169-223q46-63 97-63 29 0 46.5 21t17.5 53q0 42-29 134a963.7 963.7 0 0 0 -27.5 112.5 597.5 597.5 0 0 0 -9.5 104.5q0 25 19 63l17 32 15 38a150.17 150.17 0 0 0 16.5 31.5q10.5 15.5 21.5 31.5 40 53 40 104z"/></svg>