<svg viewBox="0 0 2100.29 2318" xmlns="http://www.w3.org/2000/svg"><path d="m1105 650q0-14-67-41-67-26-111-26l-15 1q0 11 9 44 8 34 48 32l110-6q26-1 26-4zm-524 620q10 0 10-19l-1-32 4-156-3-49 4-47q0-20-8-23.5a47.22 47.22 0 0 0 -19-3.5 506.58 506.58 0 0 0 -103 11q-53 11-103 19-24 5-50.5 10t-55.5 11q-58 12-71 26 0 7 43 38l115 81 29 18 103 54 58 37q19 11 30.5 18t17.5 7zm899 732q0-28-50-60t-154-62v74q0 15-12.5 27.5t-34.5 22q-22 9.49-51.5 15a346.27 346.27 0 0 1 -63.5 5.5q-91 0-150-26-60-28-60-66v-73q-98 14-150 42t-54 53q-1 25 38.5 52t103.5 49.5q64 22.5 144.5 36.5a828.75 828.75 0 0 0 162.5 12 952.86 952.86 0 0 0 127-10q60-9 105.5-23t72-31.5q26.5-17.5 26.5-37.5zm-829-1050 8 55 11 185q4 60 9.5 90t18.5 30q11 0 22-15a538.34 538.34 0 0 0 73-103.5 1255.33 1255.33 0 0 1 66-108.5q32-45 65-94a596.89 596.89 0 0 1 73-89 900.7 900.7 0 0 0 50-82 497.82 497.82 0 0 1 51-77 121.34 121.34 0 0 1 13-15q8-8 8-16 0-14-22-14h-16l-107-4a81.15 81.15 0 0 0 -24.5 1.5q-10.5 2.5-16.5 6.5l3 85q1 23-4.5 38a62.07 62.07 0 0 1 -16.5 25q-11 10-29 16.5a410.56 410.56 0 0 1 -43 12.5l-145 31q-47 1-47 42zm-481-17 39-6 36-8 105-16 12-3q42-9 82.5-16t82.5-13q41-5 99-17t136-25q54-9 80.5-26t26.5-48q0-61-7-111.5t-17-76.5q-5-13-18.5-23a134.53 134.53 0 0 0 -31.5-17 197.26 197.26 0 0 0 -38.5-10.5 235.07 235.07 0 0 0 -39.5-3.5q-28 0-46.5 16t-38.5 32l-3 2q-20 17-85 69t-182 130l-8 5-60 43-81 56q-32 22-49.5 35t-17.5 23q0 9 24 9zm1332-557h22q47 0 179-34 133-36 133-58 0-12-59-27l-118-30-101-24-152-31q-156-32-266-50t-178-18q-22 0-74 6t-133 17q-81 11-129 20t-64 14q-29 11-29 19t32 14l242 52 356 74q117 24 201 40t138 16zm-105 1198-2-34v-33q0-56 2.5-110.5t4.5-109q2-54.49 3.5-110t.5-113.5l-8-349v-45q0-49-6-83t-17-57q-11-23-28-36.5a137.82 137.82 0 0 0 -39-21.5q-51-18-120-36.5t-159-37.5l-143-30-142-35q-37-9-75-19.5t-75.5-19.5q-37.5-9-74-15.5a413.13 413.13 0 0 0 -72.5-6.5q-20 0-34 7t-23 22.5q-9 15.5-15 39.5t-10 57q-5 16-4 149l1 97q15-11 33-22.5t41-25.5v-19l4-63q4-51 21.5-74.5t62.5-23.5q42 0 101.5 12t139.5 34l79 22 129 27q61 14 106 23.5t73 19.5q57 20 81 60t24 115v76q0 61-27.5 94t-81.5 28l-74-5-14 23q-33 57-71.5 112.5t-73.5 110.5l-74 118q-76 120-135 120-28 0-67-13.5t-89-42.5l-138-81-51-26q0 41 2 76.5t6 68.5a51 51 0 0 0 19 33 421.05 421.05 0 0 0 42 29q22 11 119 48 95 35 262 80 170 46 279.5 67.5t154.5 29.5q21 10 66 10 46 0 67-26.5t19-84.5zm699-811v26l1 88v87l-5 278 1 89q2 125-42 184-16 21-32 33-9 8-38 25.5t-80 44.5q-50 27-95 46.5t-86 35.5l-184 70a630.56 630.56 0 0 1 -80.5 23.5 311.09 311.09 0 0 1 -88.5 6.5l-91-6v3q134 32 208 83.5t74 117.5v136q0 83-116 132-117 50-293 50a1181.56 1181.56 0 0 1 -174-12.5q-84-12.5-152-35.5-64-22-116-56-49-33-70-76-20-43-20-165v-19q0-66 76-111t211-62v-64q-37-9-115.5-31.5t-201.5-57.5q-244-69-278-104-24-13-40-49-16-38-16-64 0-61-1-120t-4-118l-93-56q-20-12-43-27a361.29 361.29 0 0 1 -46-36q-47-43-56-59a54.14 54.14 0 0 1 -8-17.5 80.9 80.9 0 0 1 -2-18.5q0-23 19.5-48t57.5-54l165-126-1-101q-2-106 3-177.5t8-108.5q4-57 20-100.5t44.5-75.5q28.5-32 69.5-53t97-34q63-15 125-29.5t122.5-26q60.5-11.5 121.5-18.5a1077.34 1077.34 0 0 1 123-7q98 0 345 47 124 23 240 50.5t227 58.5l83 24q70 19 116 52.5t69 79.5q23 47 35 111t10 146z"/></svg>