<svg viewBox="0 0 2310 2416" xmlns="http://www.w3.org/2000/svg"><path d="m1984 2186a87.88 87.88 0 0 0 38-8.5 106.66 106.66 0 0 0 31.5-22.5 110.08 110.08 0 0 0 21.5-32 92.59 92.59 0 0 0 8-38q0-17-5-27-4-12-56-70-26-30-47.5-52t-38.5-37q-32 36-67.5 73.5t-77.5 79.5q11 11 32.5 30t53.5 45q32 26 51.5 39t26.5 15q10 5 29 5zm-1306-1317-124-132q-53 77-53 145 0 94 42.5 151t120.5 59a309.15 309.15 0 0 0 131.5-25 368.81 368.81 0 0 0 112-73.5 358.51 358.51 0 0 0 77.5-109q29-62.5 28-133.5-2-84-49-131t-130-47a255.42 255.42 0 0 0 -69 9.5 381.84 381.84 0 0 0 -68 26.5l111 117a105.62 105.62 0 0 1 13.5 22 61.61 61.61 0 0 1 5.5 26 95.79 95.79 0 0 1 -9.5 42.5 115.24 115.24 0 0 1 -25 34 117.14 117.14 0 0 1 -36.5 23 113.57 113.57 0 0 1 -43 8.5q-19 0-35-13zm792 837q0 11-10 23t-26 23.5a232.08 232.08 0 0 1 -36 21 265.48 265.48 0 0 1 -41 15.5l155 132q8 6 19.5 13.5t28.5 12.5q200-32 279-204-2-17-10-40.5t-28-49.5l-85-113q-103-137-191-251t-162-205q-75-92-126-154t-82-93a144.32 144.32 0 0 1 -11.5-15.5q-5.5-8.5-13.5-8.5-5 0-9 6-27 153-130 259-52 53-112 82t-130 34q-33 3-33 15 0 5 14 17.5t38 36.5l27 27 32 3q45 4 82-12.5a222.32 222.32 0 0 0 67-46.5q10-10 20-10 11 0 20 9a29.92 29.92 0 0 1 9 22q0 11-13 24.5t-39 31.5q-49 33-115 38 8 9 17 18.5a202 202 0 0 0 19.5 18 118.5 118.5 0 0 0 21.5 14 52.84 52.84 0 0 0 24 5.5q87 0 145-59 10-8 21-8 14 0 22 9a30.64 30.64 0 0 1 8 21q0 22-45 52-43 30-111 41l64 56q96 0 153-57 8-8 21-8 12 0 21 9.5t9 20.5q0 17-42 47-41 31-100 43l67 59q86-9 135-58 9-9 21-9 11 0 20.5 9.5t9.5 20.5q0 8-10 20.5t-27.5 25a303.4 303.4 0 0 1 -40.5 24 219.32 219.32 0 0 1 -49 17.5l71 61q66-7 116-57 10-8 21-8 12 0 21 9t9 20zm840 335q0 127-121 252-119 123-241 123-33 0-60.5-10t-47-27a114.63 114.63 0 0 1 -30-41 105.87 105.87 0 0 1 -8.5-51l3-49q-3-10-30-33l-62-48q-106 90-164 118-28 14-54.5 20a237.21 237.21 0 0 1 -52.5 6q-57 0-93.5-30.5t-36.5-87.5q0-40 18-74t37-64q29-45 29-57 0-13-6-19-270-224-449.5-376t-271.5-237q-183-170-239-257-55-88-55-173 0-152 96-278-11-13-17-21a82.48 82.48 0 0 1 -9-14.5 38.41 38.41 0 0 1 -3.5-13.5q-.5-7-.5-18a97.4 97.4 0 0 1 12-38l-442-476a38.29 38.29 0 0 1 -11-27q0-16 11.5-28t27.5-12q17 0 30 14l442 476a140.66 140.66 0 0 1 23-6.5 91.22 91.22 0 0 1 14-1.5q25 0 42 13l31 32q110-56 229-56 67 0 115.5 14t86.5 42q38 26 132 134 46 53 96 114.5t105 132.5q55 71 167 220t282 375q6 9 21 9l54-32q26-15 46-26.5a360.55 360.55 0 0 1 37.5-19 241.32 241.32 0 0 1 32.5-11.5 123.64 123.64 0 0 1 32-4q27 0 48 10.5a105.76 105.76 0 0 1 35.5 28.5 126.88 126.88 0 0 1 22 41.5 161.86 161.86 0 0 1 7.5 49.5 204.81 204.81 0 0 1 -7 52.5 399.82 399.82 0 0 1 -20 56.5q-14 30-39.5 69.5t-64.5 90.5l48 49q25 28 34 28l64-7a111 111 0 0 1 47.5 10.5 115.79 115.79 0 0 1 39.5 30.5q17 20 27.5 48.5t10.5 63.5z"/></svg>