<svg viewBox="0 0 1982 2313" xmlns="http://www.w3.org/2000/svg"><path d="m610 1896q0 20-21 39t-61 43l-71 42-64 33q-41 21-62 32t-21 16q0 5 6 6t9 4l40 16q51 21 75.5 41t24.5 44q0 25-25 64-22 37-58 37a103.58 103.58 0 0 1 -27-3.5 144.23 144.23 0 0 1 -27-10.5l-139-64q-63-29-103-45t-56-27q-16-11-23-23.5t-7-24.5q0-33 56-73 32-23 89.5-55.5t143.5-72.5q12-6 12-13 0-4-25-13-135-52-135-100a105.11 105.11 0 0 1 7-37.5 140.51 140.51 0 0 1 18-33.5 88.72 88.72 0 0 1 26-24q15-9 31-9 27 0 55 14l52 26 166 69q57 23 85.5 48t28.5 55zm739-550q0 31-30.5 55.5t-88.5 51.5l-102 46-87 34q-119 47-119 54 0 6 20 15l50 27q60 33 90.5 62t30.5 56q0 15-8 35.5t-26 46.5q-34 49-80 49-19 0-45.5-12.5t-64.5-33.5l-35-21q-65-37-129-69.5a1059.77 1059.77 0 0 1 -122-72.5 221 221 0 0 1 -35.5-21 198.06 198.06 0 0 1 -29-25.5 133.85 133.85 0 0 1 -20-27.5q-7.5-14-8.5-27-1-25 20.5-48t53-42.5a514.32 514.32 0 0 1 67.5-35q36-15.49 63-24.5 26-12 66.5-28.5t94.5-36.5q58-20 63-33 0-6-52-33-44-23-72.5-42t-45-34.5q-16.5-15.49-23-30a69.4 69.4 0 0 1 -6.5-28.5q0-31 35-81 36-51 80-51 20 0 47.5 12t62.5 34l36 21 209 117q46 25 75 43.5t40 35.5q25 34 25 63zm633-941q0 40-39 73.5t-113 71.5l-63 33-63 32-194 89q-38 18-58 27t-20 14q0 9 10 13 154 68 204 109 50 42 50 84 0 43-42 110-44 69-107 69-25 0-60-14.5t-85-40.5l-388-197q-132-66-132-133 0-71 104-127 81-43 172.5-88t195.5-91q81-37 81-51t-149-84q-36-17-60-32t-39-29.5q-15-14.5-21.5-30a88.42 88.42 0 0 1 -6.5-34.5q0-35 30-88t59-71.5q29-18.5 61-18.5 26 0 61.5 14.5t83.5 40.5l47 24 179 86q84 41 141.5 73t92.5 56q68 48 68 111z"/></svg>