<svg viewBox="0 0 1942.13 1933" xmlns="http://www.w3.org/2000/svg"><path d="m676.13 441q0-60 47-110 48-51 100-51a89.39 89.39 0 0 1 44.5 11.5 116.36 116.36 0 0 1 35.5 31 150.59 150.59 0 0 1 23.5 45.5 175.79 175.79 0 0 1 8.5 55q0 67-25 117-23 51-49 51-15 0-33-22-35-34-90-48-61.99-14-62-80zm398 209q0-60 71-111 73-52 145-52a180.33 180.33 0 0 1 63.5 11 157.34 157.34 0 0 1 51.5 31 138 138 0 0 1 34 47.5q12 27.5 12 60.5 0 50-33 89-34 40-77 40a78.59 78.59 0 0 1 -29-5.5 137.51 137.51 0 0 1 -26-13.5l-47-33q-39-21-110-33-54.99-9-55-31zm361 596a87.39 87.39 0 0 1 34.5 7 107.49 107.49 0 0 1 29.5 18.5 89.44 89.44 0 0 1 20.5 26 63.57 63.57 0 0 1 7.5 29.5q0 23-20 23-10 0-16.5-3t-12.5-6.5q-6-3.49-12.5-6.5t-16.5-3q-25 0-52.5 18t-60.5 53l-24 25q-49 52-110 52-30 0-54-14a127.66 127.66 0 0 1 -40.5-37.5q-16.5-23.51-25-55a254.54 254.54 0 0 1 -8.5-66.5q0-128 92-231 93-102 212-102a190.17 190.17 0 0 1 52.5 7 197.68 197.68 0 0 1 46.5 20q45 28 45 66 0 20-19 20l-20-5a225.1 225.1 0 0 0 -40.5-17.5 136.63 136.63 0 0 0 -41.5-6.5q-93 0-165 76-73 75-73 175a168.28 168.28 0 0 0 2.5 28.5 146.38 146.38 0 0 0 7 26.5q4.5 12 11.5 19.5t15 7.5q22-1 38-14.5a286.54 286.54 0 0 0 33-33.5q88-96 165-96zm-228-358q0 74-96 126a422.16 422.16 0 0 1 -206 52q-114 0-195-84-79-83-79-199 0-63 25.5-99.5t67.5-36.5q46 0 75 48 19 31 37.5 51.5t38 32.5a127.05 127.05 0 0 0 42 16.5q22.5 4.5 49.5 2.5l108-9a150.72 150.72 0 0 1 52.5 5q24.51 7 42.5 20.5a96.43 96.43 0 0 1 28 32.5 86.67 86.67 0 0 1 10 41zm383 669q0-92 66-229 59-121 96.5-211.5t56.5-156.5q37-127 37-245 0-161-85-307a583.17 583.17 0 0 0 -100.5-129.5q-58.5-56.5-133.5-99.5-147-83-319-83-181 0-354 82-342 162-431 542 4 4 9.5 13t11 19.5a192.57 192.57 0 0 1 9.5 21 55 55 0 0 1 4 19.5q0 17-19 17-11 0-26-17-35-30-94-30-91 0-157 81-66 80-66 160 0 36 9.5 58.5t24.5 22.5q9 0 22-7.5t27-24.5l28-30q24-26 51.5-38a144.72 144.72 0 0 1 58.5-12q38 0 64.5 22.5t24.5 64.5l-1 32q6 115 74 258a765.35 765.35 0 0 0 83 137 831.25 831.25 0 0 0 110 118q124 110 286.5 171t343.5 61q59 0 122-5.5t132-16.5q69-11 124.5-23.5t98.5-26.5q-91-10-139.5-65.5t-48.5-142.5zm96-2q0 29 7 50t22 34.5q15 13.5 38.5 21.5t56.5 12h24q44 0 68.5 19.5t24.5 55.5q0 83-208 134a1686.68 1686.68 0 0 1 -208 38.5 1742.07 1742.07 0 0 1 -208 12.5 1096.08 1096.08 0 0 1 -197-17.5 1068.13 1068.13 0 0 1 -185-51 1039.44 1039.44 0 0 1 -169-81.5 963.13 963.13 0 0 1 -148-109q-138-123-214-283-38-81-60-154.5t-22-142.5v-12l2-12q-24 7-52 38-65 73-128 73-57 0-92-48t-38-128q-2-65 26-125.5a376.51 376.51 0 0 1 74.5-107.5 385.3 385.3 0 0 1 104.5-75.5q58-28.5 117-28.5h15q56-205 175-348 120-144 308-231 190-89 387-89 201 0 369 96 169 95 267 261 49 84 74 172t25 184q0 132-44 279-22 73-61 166.5t-95 210.5q-56 116-56 186z"/></svg>