<svg viewBox="0 0 2284.19 2207" xmlns="http://www.w3.org/2000/svg"><path d="m1356.17 753q0-5 13.5-47t42.5-123q28-81 47-130.5t27-69.5q8-20 13-30.5t25-10.5a112.58 112.58 0 0 1 23 2.5q12 2.5 25 5.5l48 14q60 17 96 25t47 13l6 6 1 12a163.83 163.83 0 0 1 -3.5 19.5 188.35 188.35 0 0 1 -7.5 23.5l-16 46-103 281-8 20q-13 34-40 34-12 0-58-13t-128-39q-50.01-15-50-39zm431 435q0-18-12.5-28.5t-37.5-17.5l-24-6-1144-357-34-6q-20 0-34 21t-30 61l-110 268-61 152q-32 77-48.5 126.5t-16.5 78.5q0 42 44.5 74.5t133.5 62.5l77 26 406 151q102 38 202.5 76.5t203.5 79.5q46 18 82 26.5t62 8.5q53 0 81-29t43-76l182-565q35-108 35-127zm-974-527q0 17 19 26 16 7 398 129 68 21 164 51t227 55l29 6q39 0 59-65l8-28 94-249 36-106q11-32 18.5-51.5t7.5-28.5q0-31-36-45-63-26-127-46.5t-129-34.5q-65-15-127.5-32.5t-122.5-34q-60-16.5-116.5-30.5t-109.5-22a300.38 300.38 0 0 0 -59-6q-27 0-45 19t-32 55l-63 166-70 194q-23.01 61-23 78zm1470-74q0 11-5.5 32t-14.5 54q-31 112-70.5 240.5t-87.5 276.5l-279 875a354.41 354.41 0 0 1 -24 56 178 178 0 0 1 -34 45 147.84 147.84 0 0 1 -47.5 30q-27.51 11-63.5 11-39 0-88-13t-109-36l-1113-419-76-27q-92-33-145.5-57t-81-45q-27.51-21-35.5-43t-9-51a163.67 163.67 0 0 1 4-44 314.86 314.86 0 0 1 14-45l30-81 234-580q60-150 114-286t101-261a688.66 688.66 0 0 1 32.5-77.5q18.5-37.5 39.5-71.5 44-70 123-70 9 0 19.5 1t21.5 3q11 2 69 13t164 31q105 20 218.5 47.5t238.5 60.5q125 34 268 73t308 86q57 16 95.5 30t60.5 25q42 23 58 53 36 67 55.5 104t14.5 60z"/></svg>