<svg viewBox="0 0 1808 2039" xmlns="http://www.w3.org/2000/svg"><path d="m440 525q0-14 23.5-44t69.5-79l35-38q88-94 161-175t140-148q40-41 70-41 26 0 26 27-3 28-45.5 103t-121.5 199l-131 206-7 5q-16 16-80 16-21 0-41.5-1t-40.5-4q-58 0-58-26zm846-525q25 0 25 24 0 19-10 39-4 9-19.5 36.5t-41.5 73.5q-27 47-51 85.5t-45 70.5l-131 206-7 5q-16 16-79 16-29 0-55-2.5a414.18 414.18 0 0 1 -45-6.5q-19-4-30-9.5t-11-12.5q0-10 8-25a591.84 591.84 0 0 1 38.5-47.5q23.5-26.5 53.5-58.5l292-318q70-76 108-76zm346 0q26 0 25 24-2 29-44 104.5t-123 200.5l-131 206-7 5q-16 16-79 16-141 0-141-30 0-6 9-26 10-13 33-39t59-66l175-196 96-101q49-52 77-75t51-23zm-1632 699h1808v251l-903 449-905-449zm0 395 905 450 903-450v945h-1808z"/></svg>