<svg viewBox="0 0 1848 1904" xmlns="http://www.w3.org/2000/svg"><path d="m1205 1569q155 0 276-85-48 0-96-19t-95-59q-47-39-84.5-96t-63.5-127.5q-26-70.5-40.5-152t-15.5-170.5q-2-102 24-190t67-152.5q41-64.5 93-101.5t103-36q41 1 76 14t67 40q60 51 95 155a756 756 0 0 1 26.5 107.5 684.06 684.06 0 0 1 9.5 115.5q0 63-12.5 119.5a555.47 555.47 0 0 1 -36.5 109.5q-48 104-121 104-72 0-116-71-45-72-45-171 0-68 22-122a85.77 85.77 0 0 1 7.5-18.5 151.32 151.32 0 0 1 13-20.5 83.72 83.72 0 0 1 16-16.5q8.5-6.5 16.5-6.5 17 0 17 20l-5 21a441.7 441.7 0 0 0 -11 55.5 472.94 472.94 0 0 0 -4 63.5q0 86 20.5 128.5t57.5 42.5q45 0 70-67t25-191q0-134-52-230-53-96-136-96-44 0-94 56-48 55-76.5 142.5t-28.5 194.5q0 141 42 268 21 63 50 113.5t64 85.5q35 35 73.5 54t79.5 19q70 0 131-67 62-67 106-205a1016.62 1016.62 0 0 0 32-139.5 923.37 923.37 0 0 0 11-142.5q0-213-86-390-86-176-232-265-149-90-316-90a552.88 552.88 0 0 0 -167 25.5q-81 25.5-147 74.5l4 57q2 32-3 58.5a250.41 250.41 0 0 1 -14 48.5 195.75 195.75 0 0 1 -41 62.5q-26 26.5-54 51t-54.5 51a191.52 191.52 0 0 0 -41.5 62.5l-32 78a375.62 375.62 0 0 1 91 41.5 275.26 275.26 0 0 1 73 67.5q31 41 50 97t24 130l6 111q12 184 52 270 42 87 128.5 135t201.5 48zm-637-605q0-49-47-49-21 0-63 16-42 17-65 17-40 0-74-17-46-16-54-16-20 0-29.5 13.5t-9.5 28.5q0 56 49 93a146.57 146.57 0 0 0 53 28.5 219.31 219.31 0 0 0 62 8.5q70 0 123-41 55-42 55-82zm-452-711a161.86 161.86 0 0 0 7.5 49.5 138.88 138.88 0 0 0 21 41.5 106.18 106.18 0 0 0 31.5 28.5 76.06 76.06 0 0 0 39 10.5q34 0 57-31.5t23-76.5a166.66 166.66 0 0 0 -7.5-50q-7.5-24-20-42a97.4 97.4 0 0 0 -30-28.5 71.67 71.67 0 0 0 -37.5-10.5q-36 0-60 31t-24 78zm233 341 1 56 75-4h25l8-77q0-27-12.5-60.5t-31.5-77.5l-19-45-28 79a282.87 282.87 0 0 0 -15 58q-5 32-3 71zm253-445a107.58 107.58 0 0 0 -43 13 115 115 0 0 0 -35 30 146.41 146.41 0 0 0 -23.5 44 163.44 163.44 0 0 0 -8.5 53 156.5 156.5 0 0 0 6.5 45.5q6.5 21.5 18 37a96 96 0 0 0 27 25 63 63 0 0 0 33.5 9.5 90.64 90.64 0 0 0 41-10 108.43 108.43 0 0 0 35-28q15-18 24.5-43t9.5-56q0-48-24-82.5t-61-37.5zm1246 696q0 168-48 318a816.11 816.11 0 0 1 -59 143 856 856 0 0 1 -84 129q-48 60-94 104t-92 72a477.31 477.31 0 0 1 -68 66.5 884 884 0 0 1 -87 61.5 1180.64 1180.64 0 0 1 -107.5 57q-59.51 28-130.5 55-142 53-260 53-213 0-386-119t-279-313q-105-195-105-401a569.73 569.73 0 0 1 10.5-109 525.21 525.21 0 0 1 30.5-102 406 406 0 0 1 50.5-88.5 321.26 321.26 0 0 1 71.5-69.5l-18-77q-3-14-13-34-9-20-20.5-40t-21.5-35q-44-66-72.5-110.5t-40.5-70.5a223.69 223.69 0 0 1 -19-55 290.42 290.42 0 0 1 -6-59q0-93 59-155 60-66 146-66 43 0 76.5 12.5t58 34.5a212.59 212.59 0 0 1 41.5 51 286.53 286.53 0 0 1 27 62q32-65 88.5-101.5t134.5-36.5q107 0 157 93a644.92 644.92 0 0 1 75.5-40.5 705 705 0 0 1 84-32 616.25 616.25 0 0 1 89-20.5 594 594 0 0 1 90.5-7q135 0 272 57a651.11 651.11 0 0 1 240 173 718.18 718.18 0 0 1 90 126 881.4 881.4 0 0 1 65.5 145.5 954.19 954.19 0 0 1 40 159.5 1051 1051 0 0 1 13.5 169z"/></svg>