<svg viewBox="0 0 2328 1455" xmlns="http://www.w3.org/2000/svg"><path d="m254 658v69l3 366q37 0 61.5-1.5t39-5.5q14.5-4 20-11.5t5.5-20.5l-6-331q-1-87 3.5-162t7.5-141l2-30q1-27-17-34-8-3-22-4t-34-3q-20-1-33-1.5t-20-.5q-5 43-7.5 120.5t-2.5 190.5zm907 667 17 1a154.62 154.62 0 0 0 44.5-2.5 165.62 165.62 0 0 0 40-13q17.51-8.51 28.5-20t11-23.5q0-20-26-33-27-13-27-32 0-16 15-16a109.81 109.81 0 0 1 34 5.5q17 5.51 38 5.5a166.82 166.82 0 0 0 46.5-6.5 130.75 130.75 0 0 0 39.5-18.5 95.32 95.32 0 0 0 27-28.5 67.26 67.26 0 0 0 10-35.5q0-22-12-32a134.38 134.38 0 0 0 -26-17 243.06 243.06 0 0 1 -26-15q-12-8-12-26 0-23 37-23 71 0 113.5-33t42.5-87q0-79-80-98-42-9-42-34 0-9 11.5-15.5t32-12a321.74 321.74 0 0 1 47.5-8.5q27-3 58-5l468-19q32-1 55.5-10t38.5-23a93 93 0 0 0 22.5-31.5 89.38 89.38 0 0 0 7.5-35.5q0-64-47-87-49-23-177-26l-626-14q-49-1-92-3.5a629.63 629.63 0 0 1 -84-10.5q-79-13-79-37 0-18 18-23 19-6 108-8a363.74 363.74 0 0 0 41-2.5q22-2.5 44.5-7t43.5-10.5a297.09 297.09 0 0 0 39-14q37-16 61.5-37t24.5-63q0-41-24.5-69t-66.5-28a145.27 145.27 0 0 0 -37 5q-19 5-38.5 11t-38 12a141 141 0 0 1 -34.5 7l-111 10a758.73 758.73 0 0 0 -93 14.5 358.45 358.45 0 0 0 -78 27 338.22 338.22 0 0 0 -68 44q-32 26.5-63 63.5-38 45-66 75t-49 47a457.6 457.6 0 0 1 -86 55q-45 22-97 17l-32-3-5 185q-3 84-.5 141t4.5 86q57 8 98.5 34t84.5 80q97 121 219.5 189.5t271.5 81.5zm24 130q-35 0-78.5-6t-95.5-20q-103-27-203-93.5t-202-172.5q-11-10-20.5-19.5a148.49 148.49 0 0 0 -47.5-32q-15-6.49-37-11.5 0 49-21 67-20 17-81 24-29 3-61 4t-66 1q0 75-22 97-24 24-100 30-75 6-119 6h-31v-1185l37-1h78q134 0 156 22 15 15 15 68 12 0 31.5 2t47.5 5a509.7 509.7 0 0 1 51.5 8q23.5 5 44.5 10 45 11 42 54l-4 59q121-22 189-101 48-57 94-96.5t89-60.5q44-22 100.5-35t126.5-26l103-17 68-14q55-21 118-21 54 0 97.5 14.5t74 42a185.75 185.75 0 0 1 47 66.5q16.5 39 16.5 88 0 24-5 43a185.64 185.64 0 0 1 -12 33.5 171.1 171.1 0 0 1 -14.5 25q-7.5 10.5-13.5 18.5l148-1q140-2 235.5 3.5t151.5 13.5q111 15 163.5 81.5t52.5 169.5q0 89-64 155a233 233 0 0 1 -49 37.5q-27 15.5-64 26t-85.5 16.5q-48.49 6-113.5 9-127 6-191 9.5t-68 5.5l3 27a156.16 156.16 0 0 1 -12.5 61.5 241.68 241.68 0 0 1 -30.5 53 226.84 226.84 0 0 1 -38 39.5q-20 16-35 20l5 20 4 41q0 45-16 67a461.35 461.35 0 0 1 -35.5 45.5 214.84 214.84 0 0 1 -36 32.5 162 162 0 0 1 -40 20.5 220.94 220.94 0 0 1 -47.5 10.5q-20 82-75 121t-154 39z"/></svg>