<svg viewBox="0 0 1836 1814" xmlns="http://www.w3.org/2000/svg"><path d="m1575 568q0 65-66 65-42 0-67.5-11.5t-25.5-31.5v-7h46a159.31 159.31 0 0 0 22.5-1.5 47 47 0 0 0 18.5-6.5 33.48 33.48 0 0 0 12.5-14.5q4.5-9.5 4.5-25.5l-4-32-4-24q0-14 11-14a20.35 20.35 0 0 1 15 6q15 11 26 39.5a158.66 158.66 0 0 1 11 57.5zm-1136 27q0 13-10.5 21.5t-27.5 8.5a129.85 129.85 0 0 1 -44-7.5 157.08 157.08 0 0 1 -38-19.5 95.32 95.32 0 0 1 -27-28.5 65.57 65.57 0 0 1 -10-34.5 97.82 97.82 0 0 1 7.5-38 126.63 126.63 0 0 1 18.5-31.5 100.44 100.44 0 0 1 23.5-21.5q12.5-8 22.5-8h3q12 0 12 15a81 81 0 0 1 -2.5 18.5q-2.5 10.5-6 21t-6 19q-2.5 8.5-2.5 13.5 0 20 13.5 30a117.48 117.48 0 0 0 30 16q16.5 6 30 11t13.5 15zm23-100a82.51 82.51 0 0 1 8.5-36.5 113.84 113.84 0 0 1 22-31 103.54 103.54 0 0 1 31.5-21.5 90.26 90.26 0 0 1 37-8q40 0 64 24t24 60a95.76 95.76 0 0 1 -8.5 40.5 104.81 104.81 0 0 1 -22.5 32 102.45 102.45 0 0 1 -32 21 95.32 95.32 0 0 1 -37 7.5q-36 0-61.5-25.5t-25.5-62.5zm831 88a96.82 96.82 0 0 1 -40-8.5 104.86 104.86 0 0 1 -33-23 120.94 120.94 0 0 1 -22.5-32.5 85.69 85.69 0 0 1 -8.5-37q0-32 22-57.5t63-25.5a101.53 101.53 0 0 1 38.5 7.5 107.09 107.09 0 0 1 33 21 105.57 105.57 0 0 1 23.5 32.5 94.55 94.55 0 0 1 9 41q0 36-24 59t-61 23zm-1019-142q-25 0-50-43a187.73 187.73 0 0 1 -24-93q0-59 32.5-96.5t91.5-37.5a174.45 174.45 0 0 1 84 21q39 20 39 52 0 27-57 67-35 24-78 99-18 31-38 31zm1102-184q0-32 40-55 41-23 85-23 60 0 93.5 38.5t33.5 95.5q0 40-22 88-23 48-49 48-19 0-47-40l-23-36-26-32-23-20q-62-36-62-64zm-444 1190q90 0 137-31t47-88q0-42-15.5-77.5t-45.5-67.5q-61-61-156-61-92 0-155 59t-63 143q0 47 24 69 11 11 33.5 20t56.5 18a442.1 442.1 0 0 0 68 12.5 674.48 674.48 0 0 0 69 3.5zm273-280q0 17 4.5 41t12.5 56q15 63 15 99 0 88-95 139t-243 51q-126 0-237-50-108-48-108-164 0-28 17-90 16-60 16-96 0-53-29-82-96-23-145.5-78.5t-49.5-130.5q0-38 14-61.5t36-23.5q20 0 26 45 9 64 84 106t171 42q71 0 110.5-29.5t35.5-86.5l-1-22q-48-8-96-32t-85.5-52.5q-37.5-28.5-60.5-56.5t-21-45q0-25 41-25l37 4 142 33a553.56 553.56 0 0 0 56 11 395 395 0 0 0 56 4q22 0 52.5-4t71.5-14q40-9 70.5-13t52.5-4q9 0 18.5.5a92.16 92.16 0 0 1 17.5 2.5 33.5 33.5 0 0 1 13 6q5 4 5 12 0 19-26 52-26 37-89 72a550.65 550.65 0 0 1 -129 50l-5 30q0 80 76 96 38 8 78 13a819.83 819.83 0 0 0 82 6q32 1 58.5-4.5a252.34 252.34 0 0 0 49.5-15.5q23-10 37.5-22a104.19 104.19 0 0 0 23-26 120 120 0 0 0 13-30 210.58 210.58 0 0 0 6.5-35q6-42 24-42 17 0 28 19t11 44q0 96-58 155.5t-162 71.5l-9 12q-13 26-13 62zm528 29q-58 64-150 104-88 38-178 38-56 0-56-32 0-23 66-34 49-8 119-42 70-36 119-82.5t67-100.5l-6-28q-46 73-150 122-102 46-199 46-48 0-48-20 0-19 44-32 77-20 169-91 93-73 146-188l-12-63q-20 20-33 26l-34 21-31 29q-19 23-32 37.5t-23 22.5q-10 8-17.5 11a38.94 38.94 0 0 1 -14.5 3q-11 0-11-14 0-9 8-22 25-40 25-81a148.35 148.35 0 0 0 -5.5-40.5 174.57 174.57 0 0 0 -15.5-37.5l-8-15-7-13q0-11 15-11 17 0 44 30t48 30q10 0 18.5-10t14.5-26a201.54 201.54 0 0 0 9.5-36 232 232 0 0 0 3.5-40q0-16-7.5-43.5t-15.5-69.5l-5-27q0-14 16-14 9 0 25 14a262.07 262.07 0 0 1 12.5-29q7.5-15 17.5-31 34-57 34-115 0-84-57-144-57-58-145-58a230 230 0 0 0 -56 7q-28 7-57 23-28 15-47 24t-29 13q-10 2-21 5a49.22 49.22 0 0 1 -22 1l-32-2-6-2a257.62 257.62 0 0 1 -30.5-6q-15.49-4-29.5-9-20-7-61-16t-102-19q-18 6-18 37l40 8 79 16q97 21 97 59 0 19-39 19h-8l-177-24-5 38q0 4 5 6a53.2 53.2 0 0 0 12.5 3q7.5 1 16 2a74 74 0 0 1 14.5 3l30 8q42 11 62.5 22.5t20.5 26.5q0 18-33 18a311.26 311.26 0 0 1 -70.5-8q-34.5-8-68.5-13-17 62-52 71l-7 2q-44 0-60-80l-58 7q-37 10-45 10-12 0-26.5-9t-14.5-20q0-17 37.5-30t97.5-18l-2-42a727.72 727.72 0 0 0 -75.5 12 370.67 370.67 0 0 1 -77.5 8q-47 0-47-16 0-12 16-23 18-11 91-34 70-23 90-20-8-41-31-41-43 5-79.5 12.5t-68.5 16.5q-44 12-63 12-39 0-88-37a319.59 319.59 0 0 0 -39-24 443 443 0 0 0 -42.5-19.5 303.65 303.65 0 0 0 -43-13.5 179.3 179.3 0 0 0 -40.5-5q-92 0-147 60-56 59-56 142 0 74 39 131 33 51 35 91 18-25 32-25 8 0 8 11 0 22-11 57-12 27-12 63a159.41 159.41 0 0 0 6 44 190.15 190.15 0 0 0 14.5 37q8.5 16 18.5 25t19 9l13-5q31-30 48-30 11 0 11 9 0 11-10 22-29 27-29 86 0 76 26 114 7 8 7 22 0 7-7 7-23 0-52-32-27-30-35-61-10-34-21-42-47-30-74-86l-2 9q4 136 57.5 217t155.5 120q83 33 83 65 0 30-39 30-103 0-182.5-43t-121.5-117v35q0 32 12 64.5t37 62.5q25 30 64 56.5t92 45.5q95 35 95 59 0 9-25.5 17.5t-61.5 8.5q-49 0-104-20 8 11 29 26.5t55 32.5a638 638 0 0 0 67.5 31q33.5 13 66.5 23 122 35 170 116 16 28 45.5 51.5t67.5 40q38 16.5 83.5 25.5a486 486 0 0 0 94.5 9q100 0 183.5-38t133.5-109q29-40 80.5-67.5t141.5-48.5q63-15 115-39.5t91-57q39-32.51 63.5-72.5a242.93 242.93 0 0 0 32.5-85zm103-39q0 142-105 245-53 52-108 84.5a433.17 433.17 0 0 1 -114 47.5q-59 14-98 26t-59 20q-40 15-62 45-66 90-169.5 139.5t-228.5 49.5a619.41 619.41 0 0 1 -118.5-11q-56.5-11-105-33.5a407.85 407.85 0 0 1 -88-55 304.88 304.88 0 0 1 -66.5-76.5 111.18 111.18 0 0 0 -22.5-26.5 163 163 0 0 0 -28.5-19 231.39 231.39 0 0 0 -35.5-15q-19.5-6.5-43.5-15.5l-46-16q-80-28-143-73.5t-106.5-104.5a441.54 441.54 0 0 1 -66-130.5q-22.5-71.5-22.5-151.5a505.21 505.21 0 0 1 4.5-64q4.5-35 11.5-77l16-85q11-66 26.5-142t41.5-163l3-20q0-18-21-48-55-82-55-185 0-128 87-214 87-88 217-88 59 0 116 23t117 63l20 14 33-10a963.41 963.41 0 0 1 134.5-28.5 1022.34 1022.34 0 0 1 140.5-9.5 992.76 992.76 0 0 1 158.5 13 1123.07 1123.07 0 0 1 164.5 40 156.75 156.75 0 0 0 24 6.5 137.11 137.11 0 0 0 26 2.5q11 0 22-7 101-67 204-67 131 0 218 87 86 88 86 216 0 20-1.5 38.5a189.75 189.75 0 0 1 -7 37.5 320.31 320.31 0 0 1 -14.5 39.5 352.13 352.13 0 0 1 -24 44.5q-30 53-30 73a90.74 90.74 0 0 0 2.5 20q2.51 11 5.5 22l14 48 26 133 26 124q8 38 16 69.5t14 59.5q6 28 10 53.5a331.44 331.44 0 0 1 4 51.5z"/></svg>