<svg viewBox="0 0 1874 1793.03" xmlns="http://www.w3.org/2000/svg"><path d="m845 1355q0-15 15-15a92.18 92.18 0 0 1 33 6.5 102.83 102.83 0 0 0 37 6.5 155.4 155.4 0 0 0 29.5-3 108.57 108.57 0 0 0 30.5-11l13-3q19 0 19 11t-8 21a73.33 73.33 0 0 1 -21 17.5 128.57 128.57 0 0 1 -28.5 12 112.4 112.4 0 0 1 -31.5 4.5q-46 0-75-25-13-12-13-22zm-759-205q0 51 24.5 83t71.5 32h9q-6-79-6-131v-45l2-45q-101 8-101 106zm1580 112 25 3q46 0 71-31t25-84q0-54-30.5-80t-84.5-26l2 90a475.12 475.12 0 0 1 -.5 65.5q-2.5 31.5-7.5 62.5zm-584 193q8 0 14.5 7t6.5 15q0 17-35 51-56 45-126 45-60 0-117-27-58-28-58-67a30 30 0 0 1 5-16q5-8 15-8l16 4 14 9q30 18 58 26.5a185.55 185.55 0 0 0 54 8.5q51 0 116-33a178.85 178.85 0 0 0 17.5-9q10.5-6 19.5-6zm200-359a86 86 0 0 1 39 9 105.49 105.49 0 0 1 31.5 24 116.36 116.36 0 0 1 21.5 35 112.08 112.08 0 0 1 8 42 118.68 118.68 0 0 1 -8 43.5 121.38 121.38 0 0 1 -21.5 36 101.91 101.91 0 0 1 -31.5 24.5 86 86 0 0 1 -39 9 89.1 89.1 0 0 1 -39.5-9 100.14 100.14 0 0 1 -32-24.5 121.38 121.38 0 0 1 -21.5-36 118.68 118.68 0 0 1 -8-43.5 112.08 112.08 0 0 1 8-42 116.36 116.36 0 0 1 21.5-35 103.58 103.58 0 0 1 32-24 89.1 89.1 0 0 1 39.5-9zm-709 0a86 86 0 0 1 39 9 112.82 112.82 0 0 1 62 101 118.68 118.68 0 0 1 -8 43.5 116 116 0 0 1 -22 36 107.91 107.91 0 0 1 -32 24.5 89 89 0 0 1 -78 0 107.91 107.91 0 0 1 -32-24.5 116 116 0 0 1 -22-36 118.68 118.68 0 0 1 -8-43.5 112.31 112.31 0 0 1 62-101 86 86 0 0 1 39-9zm357 607q181 0 333-64 151-65 235-181 86-118 86-326 0-51-4-100t-12-95q-24-35-49-61t-51-43l-13-8-10-4q-9 0-10 30-2 31-19 31-8 0-21.5-7t-18.5-12a356.65 356.65 0 0 0 -51.5-34.5 358.26 358.26 0 0 1 -50.5-33.5q-12-9-24.5-19.5a240.29 240.29 0 0 0 -25-18.5 201.54 201.54 0 0 0 -24.5-13.5q-12-5.5-22-5.5-16 0-44 11t-71 29q-16 7-30 13t-29 11.5a277.88 277.88 0 0 1 -32 9.5 405.54 405.54 0 0 1 -40 7q-33 0-31-23l3-37q1-26-16-26a54.38 54.38 0 0 0 -26 7q-97 48-156.5 72.5t-83.5 24.5q-28 0-28-16l11-43q0-14-17-14t-40 15.5q-23 15.5-57 41.5l-30 23q-62 48-106.5 86.5t-72.5 70.5q-3 39-5 72t-2 59q0 204 76 318 75 110 234 182 157 71 345 71zm944-551q0 58-25 99-24 43-79 70-27 14-51 21a127.36 127.36 0 0 1 -47 5l-22-1q-25 102-92.5 184.5t-164.5 141q-97 58.5-216 90.5t-247 31q-135-1-252-31a771.26 771.26 0 0 1 -218-93q-201-126-252-322-85 0-147-50-61-52-61-147 0-85 49.5-138t136.5-57q-45-109-45-262 0-99 26.5-186a624.06 624.06 0 0 1 78.5-165q106-157 297-249 192-93 408-93 221 0 409 90 187 91 278 240t91 343q0 61-13 131t-39 151q45 0 81.5 14t62 40q25.5 26 39.5 62t14 81z"/></svg>