<svg viewBox="0 0 1924 2009.6" xmlns="http://www.w3.org/2000/svg"><path d="m961 1399.6q-22 0-39.5-6t-29.5-15q-12-9-18-19.5t-6-19.5q0-16 17-16 10 0 15 5 30 33 61 33 32 0 65-33a16.37 16.37 0 0 1 12-5q16 0 16 17 0 8-6.5 18.5t-19 19.5a116.58 116.58 0 0 1 -29.5 15q-17 6-38 6zm-146 73q0-8 7-13.5t18-5.5a80.25 80.25 0 0 1 30 6q43 21 109 21a190.45 190.45 0 0 0 35.5-3.5q18.49-3.49 35.5-8.5 32-11 52-11 21 0 21 15a27.6 27.6 0 0 1 -5 15.5 114.93 114.93 0 0 1 -11.5 14.5 148.93 148.93 0 0 1 -13 12.5q-6.49 5.51-10.5 9.5-43 34-104 34-70 0-118-30-46-30.99-46-56zm453-236a87.88 87.88 0 0 1 -38-8.5 100 100 0 0 1 -31-22.5 102.79 102.79 0 0 1 -20.5-33.5 114.59 114.59 0 0 1 -7.5-41.5 118.68 118.68 0 0 1 7.5-42 114 114 0 0 1 20.5-35 99.47 99.47 0 0 1 31-24 84.72 84.72 0 0 1 76 0 105.49 105.49 0 0 1 31.5 24 108.91 108.91 0 0 1 21 35 118.68 118.68 0 0 1 7.5 42 114.59 114.59 0 0 1 -7.5 41.5 98.58 98.58 0 0 1 -21 33.5 106.3 106.3 0 0 1 -31.5 22.5 87.88 87.88 0 0 1 -38 8.5zm-628 0a87.88 87.88 0 0 1 -38-8.5 100 100 0 0 1 -31-22.5 102.79 102.79 0 0 1 -20.5-33.5 114.59 114.59 0 0 1 -7.5-41.5 118.68 118.68 0 0 1 7.5-42 114 114 0 0 1 20.5-35 99.47 99.47 0 0 1 31-24 83.88 83.88 0 0 1 38-9 82.94 82.94 0 0 1 38.5 9 107.69 107.69 0 0 1 31 24 108.91 108.91 0 0 1 21 35 118.68 118.68 0 0 1 7.5 42q0 45-28 75.5t-70 30.5zm-233-160q0 108 10.5 217.5t32.5 224.5q219 220 522 220 150 0 279.5-57.5t225.5-163.5q23-123 35-233.5t10-212.5l-1-60q-22-14-57.5-45.5t-86.5-82.5q-51-51-87-99.5a912.38 912.38 0 0 1 -62-94.5q-3-6-7.5-13.5t-9.5-14.5a64 64 0 0 0 -11-12q-6-5-12-5-10 0-27 17a548.9 548.9 0 0 1 -95 68.5q-53 30.51-118 52.5-64 22-149 42.5t-191 43.5l-194 44q-3 34-5 75t-2 89zm1517 20q0 278-83 482-42 103-98.5 182t-131.5 136q-148 113-209 113-36 0-34-45 0-34 15-70 12-32 26.5-85t31.5-128q-203 155-469 155-138 0-259.5-40t-229.5-119l38 150q4 16 10 33t11.5 34.5q5.5 17.51 9.5 35a154.33 154.33 0 0 1 4 34.5q0 45-34 45-65 0-212-116-149-117-229.5-316.5t-80.5-479.5q0-127 16.5-243t50.5-222q34-107 83-189.5t108-147.5a1016.68 1016.68 0 0 1 132-118q72-54 164-95t182.5-63.5a642.51 642.51 0 0 1 183.5-18.5l37 1h36q174 0 345 69 169 67 287 187l33 27a640.67 640.67 0 0 1 77.5 94.5 885.07 885.07 0 0 1 65.5 115.5 1181.14 1181.14 0 0 1 53 128.5 1152.74 1152.74 0 0 1 38.5 140.5 1443.38 1443.38 0 0 1 23.5 156.5q8 82.5 8 176.5z"/></svg>