<svg viewBox="0 0 2188.05 2021" xmlns="http://www.w3.org/2000/svg"><path d="m1492 1679h-1182q-14 0-23.5 9t-9.5 25a32.45 32.45 0 0 0 33 33h1182q16 0 25-9.5t9-23.5q0-34-34-34zm-1213 228h1246q14 0 23.5-8.5t9.5-24.5q0-15-9.5-24.5a31.93 31.93 0 0 0 -23.5-9.5h-1246q-16 0-25.5 9.5t-9.5 24.5q0 33 35 33zm1909-13a122.31 122.31 0 0 1 -8.5 39 93.23 93.23 0 0 1 -23.5 34q-16 15-40.5 24t-58.5 9q-89 0-178-68-45-34-67.5-68t-19.5-68l1-16q-94-27-94-111a159.06 159.06 0 0 1 3.5-34q3.49-16 8-30.5t8.5-27a77.17 77.17 0 0 0 4-23.5q0-69-163-69-12 0-21-9t-9-23q0-30 47-30 99 0 154 34t55 97a135.42 135.42 0 0 1 -4 33q-4 16-9 31.5t-9 29q-4 13.5-4 23.5 0 41 66 54 34-30 89-30 57 0 107.5 16.5t87.5 44q37 27.49 58 63.5t20 75zm-1953-311h1324q14 0 25.5 9.5a40.9 40.9 0 0 1 14.5 23.5l76 372v7q0 26-27 26h-1503q-28 0-28-26l2-7 75-372q2-14 13.5-23.5t27.5-9.5zm-32-588h1371q32 0 53.5-21.5t21.5-53.5v-702q0-32-21.5-53.5t-53.5-21.5h-1371q-32 0-53.5 21.5t-21.5 53.5v702q0 32 21.5 53.5t53.5 21.5zm583 370v-116h-688q-42 0-70-28.5t-28-69.5v-1052q0-41 28-70t70-29h1583a89.19 89.19 0 0 1 37.5 8 105.41 105.41 0 0 1 31 21.5 103.54 103.54 0 0 1 21.5 31.5 92.59 92.59 0 0 1 8 38v1052a92.59 92.59 0 0 1 -8 38 103.54 103.54 0 0 1 -21.5 31.5 98.08 98.08 0 0 1 -31 21 94.21 94.21 0 0 1 -37.5 7.5h-690v116h259q30 0 51 19t21 47v66h-867v-66q0-28 21.5-47t51.5-19z"/></svg>