<svg viewBox="0 0 2204 2057" xmlns="http://www.w3.org/2000/svg"><path d="m2204 1347a72 72 0 0 1 -8 33.5 92.15 92.15 0 0 1 -21 27 91.07 91.07 0 0 1 -29.5 17.5 97.37 97.37 0 0 1 -33.5 6q-48 0-104-80a584.79 584.79 0 0 1 -50-93q-22-51-41-113-24-77-40.5-119t-33.5-42q-21 0-21 40 0 37 11 84.5t40 102.5l30 59q21 42 35.5 67t19.5 36q9 23 9 36 0 15-5 26.5t-18 22q-13 10.5-36 21t-58 22.5q-20 6-28 14-3 4-8 17t-10 35q-5 22-9.5 49t-9.5 62q-5 34-6.5 62t-1.5 51q0 75 19 90l25 20q46 36 46 83 0 36-25.5 54.5t-63.5 18.5q-69 0-98-28t-26-97l11-265q2-57-7-85.5t-25-28.5q-17 0-26.5 29t-7.5 86l13 267q3 67-28 94.5t-97 27.5q-40 0-64.5-18.5t-24.5-55.5q0-53 47-82 16-11 25-22a71.36 71.36 0 0 0 13-23.5 103.93 103.93 0 0 0 4.5-28.5q.49-16 .5-36 0-28-3-65t-10-84q-8-47-14.5-77.5t-14.5-44.5q-7-10-31-18t-50-19a185.74 185.74 0 0 1 -46.5-28q-20.51-17-20.5-46 0-32 65-139a460.57 460.57 0 0 0 30.5-60q13.5-32 25.5-67 24-75 24-118 0-41-20-41-17 0-34 42t-40 119a1019.59 1019.59 0 0 1 -41.5 111.5 624.24 624.24 0 0 1 -50.5 92.5q-54 82-104 82-33 0-61-23-87-1-133-96l-52-169q-43-141-77-141-20 0-20 30l5 48q9 78 19 128.5t10 76.5q0 45-9 83a232 232 0 0 1 -29 70q-5 8-9.5 29t-8.5 57q-4 36-5.5 73t-1.5 72q0 171 34 197 62 46 62 96 0 86-119 86-94 0-138.5-37.5t-39.5-115.5l8-123q3-39 5-75t2-69q0-120-33-120-34 0-34 119 0 32 3 67.5t5 74.5l7 122q9 157-178 157-117 0-117-86 0-50 61-96 34-25 34-199 0-38-2-74t-6-70q-8-71-16-85-40-62-40-156 0-26 10-75.5t19-125.5l5-48q0-20-4.5-25.5t-18.5-5.5q-17 0-44 72a612.58 612.58 0 0 0 -20.5 68q-7.5 32-5.5 61l9 144a67.65 67.65 0 0 1 -8 36.5 93.63 93.63 0 0 1 -24 28.5 121.68 121.68 0 0 1 -75 26q-58 0-90-46.5t-32-124.5q0-96 48-234 49-140 117-237.5t159-143.5q26-13 41-20t15-23q0-15-23-33-124-96-124-251 0-140 93-233 92-92 236-92 69 0 127 22.5t106 66.5q96 89 96 229 0 52-11 91t-27.5 68q-16.5 29-35.5 49.5t-35.5 35.5q-16.5 15-27.5 26t-11 21q0 14 15 22 99 50 146 100a606.85 606.85 0 0 1 46 54.5 813.51 813.51 0 0 1 46 68.5q23 38 40 73.5a386.16 386.16 0 0 1 26 70.5l23 90a332.33 332.33 0 0 0 15 44.5 221.49 221.49 0 0 0 23 41.5l47 56a123.47 123.47 0 0 0 20-27 303.19 303.19 0 0 0 17-36q45-125 80.5-210t64.5-132q58-93 150-128 12-5 22.5-8.5a78.1 78.1 0 0 0 17.5-8 33 33 0 0 0 11-11.5q4-7 4-19 0-9-17-20t-43-26q-24 29-63.5 41.5t-76.5 12.5q-33 0-56-9t-23-29q0-16 19-35 17-18 27-44t9-60l-3-96q-2-81 18.5-144.5t60.5-108q40-44.5 97-68t127-23.5q68 0 125 23.5t97 68q40 44.51 61.5 108t19.5 144.5l-3 94q-2 68 37 106 19 24 19 35 0 20-24 29t-57 9a256.52 256.52 0 0 1 -38-3 210 210 0 0 1 -38.5-9.5 158.18 158.18 0 0 1 -34.5-17 132 132 0 0 1 -28-24.5q-26 15-43 26t-17 20q0 12 4 19a31.69 31.69 0 0 0 11.5 11.5 94.69 94.69 0 0 0 17.5 8q10 3.5 23 8.5 90 34 149 131 59 98 145 339 15 43 38.5 64.5t61.5 38.5q20 8 32.5 30.5t12.5 46.5z"/></svg>