<svg viewBox="0 0 2180 1903.65" xmlns="http://www.w3.org/2000/svg"><path d="m1215 86.55a116.24 116.24 0 0 0 -37 6 100.28 100.28 0 0 0 -32.5 18 88.64 88.64 0 0 0 -23 29q-8.51 17-8.5 39a79.14 79.14 0 0 0 7.5 34 87.4 87.4 0 0 0 20 27.5 91.34 91.34 0 0 0 29.5 18 100 100 0 0 0 36 6.5q40 0 70.5-24.5t30.5-72.5q0-40-28.5-60.5t-64.5-20.5zm-376 89q0 41 29.5 66t74.5 25q30 0 55.5-10t25.5-27l-3-13-4-16a124.24 124.24 0 0 1 5.5-37.5q5.51-17.51 5.5-25.5a36 36 0 0 0 -7-21 66.56 66.56 0 0 0 -18.5-17.5 103.42 103.42 0 0 0 -26-12 102.32 102.32 0 0 0 -30.5-4.5 121.81 121.81 0 0 0 -41.5 7 106.47 106.47 0 0 0 -34 19.5 94.12 94.12 0 0 0 -23 29.5 81.5 81.5 0 0 0 -8.5 37zm1131 643q26 0 26-34a100.61 100.61 0 0 0 -5-32 178.56 178.56 0 0 0 -14-31q-21-37-37-62.5t-30-41.5a670 670 0 0 0 -96.5-93.5 770.94 770.94 0 0 0 -108.5-71.5q-57-31-128-52t-157-35q-85-13-165-19.5t-155-6.5q-229 0-384 32-78 15-145 40.5a875 875 0 0 0 -126 59.5q-117 68-189 165-72 99-72 148 0 34 31 34 10 0 28-18 57-75 103-125t84-78q39-28 91-51.5t121-40q69-16.5 156.5-25.5t196.5-9h190q168 0 285 20.5t198.5 58q81.49 37.5 137 90.5a787.57 787.57 0 0 1 100.5 117q44 60.99 64 61zm210 568q0 133-66 235t-189 169q-120 65-300 91.5t-425 20.5l-109-3-111 3q-75 2-158-2t-175-12q-182-15-287-51a588.72 588.72 0 0 1 -100-44.5 642.66 642.66 0 0 1 -90-61.5q-86-70-128-154.5t-42-191.5q0-66 14-142.5t48-162.5l19-50q20-49 31.5-83t11.5-54l-5-26q-26-72-26-98 0-68 91-185a932.26 932.26 0 0 1 95.5-106 757.42 757.42 0 0 1 111-87.5 676.69 676.69 0 0 1 128-64.5q68.5-26 146.5-37l30-4q66-9 66-29 0-11-7.5-31a113.27 113.27 0 0 1 -7.5-40 187.74 187.74 0 0 1 58-135.5q27-25.5 64-39t80-10.5l33 3q21 5 78 33l18 5 18-4q10-6 52-16 22-6 40-9.5a177.9 177.9 0 0 1 34-3.5q76 0 128 58 51 56 51 124a144.39 144.39 0 0 1 -1.5 23 80.15 80.15 0 0 1 -4 15.5q-2.51 6.49-4 11.5a42.07 42.07 0 0 0 -1.5 12q0 16 44 22 40 5 88.5 16.5t105.5 31.5a851.7 851.7 0 0 1 207 105 778.67 778.67 0 0 1 91 77.5q44 43.5 86 100.5 84 112 76 165 0 30-15 69-17 40-17 53 0 25 23 82 32 79 52.5 141t29.5 107q10 45 15 85.5a641.35 641.35 0 0 1 5 78.5z"/></svg>