<svg viewBox="0 0 1521.33 2006" xmlns="http://www.w3.org/2000/svg"><path d="m1383.67 1478 38-798q3-53-6-94t-31-69q-10-13-26.5-26.5t-37.5-27.5q-42-27-248-132a75.06 75.06 0 0 0 -34-8q-27 0-44.5 14a194.62 194.62 0 0 0 -31 31q-13.5 17-25.5 31t-27 14a49.71 49.71 0 0 1 -19.5-4 105.54 105.54 0 0 1 -19.5-11l-35-24-370-236q-65-41-94-41-51 0-67 78l339 215 494 311q60 45 104 119 23 37 35.5 72.5a370.22 370.22 0 0 1 17.5 70.5q19 128 41 255.5t47 259.5zm-1137-283 1115 712q-9-46-30.5-164.5t-55.5-312.5q-34-195-53-307.5t-24-146.5a249.18 249.18 0 0 0 -15.5-59 366.24 366.24 0 0 0 -29.5-58q-19-29-37-49t-37-31l-231-147-611-386q-31-19-54.5-29t-40.5-10q-44 0-44 60v14l2 5zm1274-513-30 588q-14 270-23 430t-9 213a77.47 77.47 0 0 1 -8.5 35 109.13 109.13 0 0 1 -22 30 102.52 102.52 0 0 1 -31 20.5 89.79 89.79 0 0 1 -88.5-9.5l-1115-712a105.77 105.77 0 0 1 -29-28q-11-16-15-39l-146-907-3-35q-3-33 7.5-61.5a151.55 151.55 0 0 1 30-50 143.36 143.36 0 0 1 46.5-34 136.41 136.41 0 0 1 58-12.5q33 0 74 15 16-54 57-89.5t99-35.5q31 0 67.5 14.5t80.5 41.5l375 238q63-69 143-69 38 0 107 32 182 88 248 136 67 48 99.5 115t27.5 174z"/></svg>