<svg viewBox="0 0 2354 2139" xmlns="http://www.w3.org/2000/svg"><path d="m1093 1538q0 94-82 167-83 72-178 72a321.23 321.23 0 0 1 -94-14q-46-14-91-43-88-58-168-182-41-63-82.5-151t-88.5-203q-20-51-38.5-113.5t-33.5-138.5q-16-76-23.5-135.5t-7.5-103.5q0-111 47-184 48-74 141-116a448.94 448.94 0 0 1 96.5-32 501.36 501.36 0 0 1 101.5-10h28q124 0 218 95 95 97 95 227 0 50-16 94t-34.5 86.5q-18.5 42.5-34.5 86t-16 92.5a298.79 298.79 0 0 0 17 99.5q17 48.49 55 93.5l60 68q63 72 96 131.5t33 113.5zm-1025-1239q53 0 96 41 41 39 41 89 0 18-7 32a88.1 88.1 0 0 1 -18 24.5 78 78 0 0 1 -53 21.5q-45 0-86-41-41-42-41-92 0-32 19.5-53.5t48.5-21.5zm193 46q-43 0-78-44-34-43-34-93 0-36 22.5-61.5t56.5-25.5q44 0 80 41 35 40 35 90a100 100 0 0 1 -6.5 36 90.54 90.54 0 0 1 -44.5 49.5 68.51 68.51 0 0 1 -31 7.5zm85-220a136 136 0 0 1 9-50q9-23 23.5-39a106.22 106.22 0 0 1 33.5-25 90.19 90.19 0 0 1 39-9q47 0 76.5 36t29.5 91a170 170 0 0 1 -7.5 51 160.2 160.2 0 0 1 -20.5 43q-13 19-29.5 30a62.82 62.82 0 0 1 -35.5 11q-41 0-80-39-38-39-38-100zm339 144q-21 0-36-10a90.35 90.35 0 0 1 -25.5-26 115.59 115.59 0 0 1 -15.5-37 189.58 189.58 0 0 1 -5-44q0-33 8.5-60.5t24.5-48a116.13 116.13 0 0 1 38-32 102 102 0 0 1 48-11.5q52 0 75.5 31t23.5 73q0 63-41 115-39 50-95 50zm504-29q0 90-67 154-68 65-151 65-63 0-100.5-46t-37.5-124q0-67 49-138 51-74 130-74 74 0 125 47 52 47 52 116zm573 703q75-1 142.5 22.5t118 68.5q50.51 45 79.5 108.5t28 141.5q-3 128-74.5 269.5t-230.5 304.5q-80 81-145 136.5t-119 85.5q-106 59-211 59-93 0-157-59-65-60-65-152 0-78 34-133t99-97l86-55 45-31q45-31 66.5-62.5t21.5-67.5q0-28-15-96-7-33-11-57t-4-40a398.18 398.18 0 0 1 23.5-135.5q23.5-65.5 63.5-112.5 41-46 93.5-71t131.5-27zm527 100a66 66 0 0 1 45.5 17.5q19.5 17.5 19.5 49.5 0 42-29 68t-73 26q-25 0-47-14.5t-22-42.5q0-31 36-67 34-37 70-37zm-76-194q33 0 47.5 18t14.5 42q0 44-36 83-35 39-79 39-68 0-68-59 0-43 38-82 20-21 41-31t42-10zm-87-78q0 49-33 94-32 44-73 44a62 62 0 0 1 -31-8.5 94.52 94.52 0 0 1 -26.5-22.5 113 113 0 0 1 -18.5-33 114.71 114.71 0 0 1 -7-40 133.65 133.65 0 0 1 8-46 118.53 118.53 0 0 1 22-38 102.19 102.19 0 0 1 34.5-25.5 104.59 104.59 0 0 1 44.5-9.5q36 0 58 23.5t22 61.5zm-408-31a152.27 152.27 0 0 1 7-45.5 210.31 210.31 0 0 1 20-44.5q27-44 69-44a63.79 63.79 0 0 1 32.5 9 92.53 92.53 0 0 1 27.5 25 140.36 140.36 0 0 1 27 83 146 146 0 0 1 -7 45.5 135.42 135.42 0 0 1 -19 38 91.66 91.66 0 0 1 -28.5 26 70 70 0 0 1 -35.5 9.5q-42 0-67.5-29.5t-25.5-72.5zm-357 11q0-68 44-117 43-49 102-49 69 0 119 62 52 64 52 137 0 66-45 114-43 46-101 46-64 0-118-57-53-57-53-136z"/></svg>