<svg viewBox="0 0 1734.1 2050" xmlns="http://www.w3.org/2000/svg"><path d="m1346 1894q98 0 163-58 67-58 67-149 0-103-100-172-100-70-225-70-173 0-372 120-198 122-198 185 0 30 70 29l37-2a380.84 380.84 0 0 1 84.5 5.5q42.5 7.5 86.5 19.5 141 40 219.5 61.5t96.5 24.5a431.38 431.38 0 0 0 71 6zm-1069-905q0 35 35 35 45 0 131-52 29-18 59.5-33t63.5-29q67-27 320-93 92-24 158-46.5t106-45.5a459.52 459.52 0 0 0 74.5-49.5 320 320 0 0 0 57.5-61 267.17 267.17 0 0 0 37-73.5q13-40 13-89 0-119-87-196-87-75-237-75-127 0-250 68t-226 196q-105 129-179 300-76 168-76 244zm974 299q97-1 185.5 29t155.5 83.5q67 53.51 105.5 126.5t36.5 157q-2 80-28.5 144.5t-83.5 117.5q-113 104-276 104-67 0-122-13-29-7-85-22t-141-38q-79-22-150.5-34.5t-136.5-9.5l-152 9q-73 4-111.5-28.5t-38.5-86.5q0-65 46-123 24-31 61-67.5t90-79.5a1104.59 1104.59 0 0 1 111.5-79.5q58.5-36.5 122.5-70.5 109-58 210.5-88t200.5-31zm-1117 53q-61 0-97.5-41.5t-36.5-110.5q0-80 76-287 39-106 84.5-197t94.5-172l39-63q140-230 321.5-350t391.5-120q221 0 365 126 142 127 142 329 0 190-131 324-50 51-107 86-29 17-58.5 31.5t-61.5 28.5q-32 14-82.5 29t-120.5 33q-92 23-160.5 43.5t-117.5 39.5q-48 19-85 36.5t-66 34.5q-29 18-65 40.5t-80 52.5q-155 107-245 107z"/></svg>