<svg viewBox="0 0 1654 2318" xmlns="http://www.w3.org/2000/svg"><path d="m945 918 416 138q15-205 69-498l-448-117q-17 157-26 275t-11 202zm709-711v22l-53 287-10 25q-38 216-57.5 371t-19.5 252q0 119 30 317.5t79 480.5l8 48 1 15q0 32-22 55t-56 23q-29 0-49.5-17.5t-27.5-45.5q-7-33-22.5-116.5t-37.5-220.5q-22-137-35.5-244t-18.5-186l-386 128 44 338 5 44v11q0 32-21 55.5t-57 23.5q-29 0-51.5-19a74.14 74.14 0 0 1 -26.5-48l-4-34-41-319-38 12 15 772a81.37 81.37 0 0 1 -22.5 57 80.32 80.32 0 0 1 -24.5 17.5 70.4 70.4 0 0 1 -30 6.5q-34 0-57-22.5t-24-54.5l-15-778-472-184v716q0 33-23 56t-56 23q-32 0-55-23t-23-56v-831q0-24 16-46t44-29l728-178q2-57 5.5-117.5t8.5-125.5q5-65 12.5-144.5t18.5-174.5q11-96 19-162.5t15-106.5q13-80 80-80h8l637 138q29 7 45.5 28t16.5 41z"/></svg>