<svg viewBox="0 0 2268 1322" xmlns="http://www.w3.org/2000/svg"><path d="m1782 1045h259q49-76 68.5-152t19.5-164q0-122-40-210-24 233-99 361t-208 165zm-1638-316q0 198 88 316h388v-76l-20 3h-19a231.1 231.1 0 0 1 -110.5-27.5q-51.5-27.5-99-83.5t-93.5-140.5q-46-84.5-95-199.5-39 87-39 208zm476-281h-388l-24 28q67 158 133 260 0-102 68-173 68-73 172-73l39 4zm1046 396 33 4a114.59 114.59 0 0 0 48-10 121.53 121.53 0 0 0 37.5-26 114.38 114.38 0 0 0 24-37 116.12 116.12 0 0 0 8.5-44 111.38 111.38 0 0 0 -9.5-45.5 121.18 121.18 0 0 0 -63-63 111.38 111.38 0 0 0 -45.5-9.5l-33 6zm-1046-1v-222q-21-8-39-8a110.57 110.57 0 0 0 -44 9 123 123 0 0 0 -37.5 25 118.29 118.29 0 0 0 -26 37.5 113.79 113.79 0 0 0 -9.5 46.5 116.38 116.38 0 0 0 117 117zm188 202h650q33 0 55.5-23t22.5-55v-441q0-32-23-55t-55-23h-650a75.32 75.32 0 0 0 -30 6 77.45 77.45 0 0 0 -24.5 16.5 82.81 82.81 0 0 0 -17 25 73.79 73.79 0 0 0 -6.5 30.5v441a73.79 73.79 0 0 0 6.5 30.5 82.81 82.81 0 0 0 17 25 77.45 77.45 0 0 0 24.5 16.5 75.32 75.32 0 0 0 30 6zm1233-597h-182q62 35 105 94.5t55 133.5q11-48 19-102.5t13-114.5q-4-10-10-11zm-1908-448h2001a126.72 126.72 0 0 1 52.5 11 141.26 141.26 0 0 1 42.5 29 134.18 134.18 0 0 1 28.5 42.5 129.37 129.37 0 0 1 10.5 51.5v1054a125.85 125.85 0 0 1 -10.5 51 142 142 0 0 1 -28.5 42.5 136.88 136.88 0 0 1 -42.5 29.5 126.72 126.72 0 0 1 -52.5 11h-2001q-29 0-53-10.5a135.72 135.72 0 0 1 -42-28.5 127.63 127.63 0 0 1 -28-42.5 137.49 137.49 0 0 1 -10-52.5v-1054a137.49 137.49 0 0 1 10-52.5 127.63 127.63 0 0 1 28-42.5 135.72 135.72 0 0 1 42-28.5q24-10.5 53-10.5z"/></svg>