<svg viewBox="0 0 1954.06 2350" xmlns="http://www.w3.org/2000/svg"><path d="m361 1542q-26-2-26-30l3-13q18-53 126-82l46-18q48-18 87.5-36a618.61 618.61 0 0 1 75.5-29 505.85 505.85 0 0 0 51.5-19.5q23.5-10.5 51.5-10.5 20 0 31 11a36.71 36.71 0 0 1 11 27q0 28-27 40t-56.5 22q-29.5 10-60 20.5t-61.5 22a474 474 0 0 0 -59 26.5 171.82 171.82 0 0 1 -43 16.5 357.44 357.44 0 0 0 -44 13.5 243.78 243.78 0 0 0 -27 11.5l-26 13-26 10.5q-26 10.5-27 4zm-116-684-7 2q-8 0-14-6.5t-6-13.5q0-12 12-18 12-4 61-24.5t126.5-50.5q77.51-30 179-67.5t217-77.5q115.5-40 241.5-79.5t252-73.5h5q19 0 19 17t-13 21q-107 29-222.5 67.5t-242 83.5q-126.5 45-264 95.5t-286.5 103.5zm96 451q-20 0-30.5-13.5t-10.5-28.5q0-26 27-43.5t81-30.5a158.21 158.21 0 0 0 30.5-11q14.5-7 28.5-15t29.5-15.5a122.8 122.8 0 0 1 33.5-10.5q21-5 51.5-14.5t68.5-25.5q38-16 67.5-26t51.5-14h7q20 0 33 14.5t13 31.5q0 20-21 30-57 26-122.5 51.5t-140.5 49.5l-58 25q-30 13-56.5 23.5a319.73 319.73 0 0 1 -49.5 15.5q-19 7-33 7zm22 427q0-8 6-21t18-13q32-14 64-26.5t64-23.5q47-16 90.5-34.5t85.5-38.5q48-25 88-36.5t71-11.5q17 0 27 13.5t10 28.5q0 26-21 36-42 21-123.5 50.5t-199.5 79.5l-108 45-22 4q-20 0-35-15t-15-37zm116-1137h-10q-24-3-37-19.5t-13-36.5q0-20 12-34.5t37-14.5q24 0 56-22 34-23 54-25a105.38 105.38 0 0 0 34-7.5q16-6.5 32-14t31.5-15a228.5 228.5 0 0 1 31.5-12.5l107-33 106-34 17-3q22 0 35 17.5t13 37.5q0 37-35 51l-136 52q-98 37-113 34-28 6-110 45-71 34-112 34zm1007 1030 15-3q20 0 32 15a54.39 54.39 0 0 1 12 35q0 34-33 43-65 20-128.5 35.5t-128.5 29.5q-162 33-292.5 66.5t-231.5 68.5q-273 96-277 96a30.31 30.31 0 0 1 -24.5-11.5 40.43 40.43 0 0 1 -9.5-26.5q0-21 18-30a1315.65 1315.65 0 0 1 142.5-69.5q75.5-31.5 163.5-59.5t206.5-58.5q118.5-30.5 271.5-64.5 67-15 133-31t131-35zm-1177-532q-15 0-32-13.5t-17-28.5q0-35 60-67a447 447 0 0 1 68.5-30q37.5-13 79.5-27l64-20 66-29q70-30 121.5-50t87.5-28q28-14 54.5-29.5a152 152 0 0 1 58.5-19.5q32-5 69.5-8.5a224.17 224.17 0 0 0 69.5-17.5 719.33 719.33 0 0 1 115-37q57-13 115-29l9-1q20 0 31 13.5t11 28.5q0 30-74 62a685.1 685.1 0 0 1 -83.5 26.5q-45.5 11.5-100.5 21.5-40 7-88.5 23.5t-108.5 37.5l-264 95-150 65q-68 30-107.5 46t-54.5 16zm1400-780-173 43 282 1303q-12-326-24.5-549t-24.5-349q-12-128-27.5-239t-32.5-209zm-1126 1915q182-3 449-30 135-13 334-39.5t467-65.5l-5-160-70 11q-368 58-661.5 127.5t-513.5 156.5zm758-1372q42 0 65.5 37t38.5 112l12 63q26 134 42.5 208.5t16.5 91.5q0 50-51 78-48 27-273 89a317.26 317.26 0 0 1 -44.5 9.5 268.52 268.52 0 0 1 -33.5 2.5q-63 0-78-41-62-168-84.5-281.5t-22.5-164.5q0-38 13.5-62a100.09 100.09 0 0 1 37.5-38q12-7 49.5-20.5t100.5-33.5q128-40 211-50zm-973 1337q78-39 170-76t201-72q110-35 232.5-67t262.5-61q140-30 264-52t235-36l-368-1709q-223 32-414.5 79t-349 103q-157.5 56-279 118t-203.5 124q14 199 37.5 419t57.5 464q66 485 154 766zm1546-1034 40 983q1 24-13.5 39.5t-36.5 19.5q-35 7-131 21t-254 37q-158 22-301.5 38t-269.5 27q-126 11-232.5 16.5t-188.5 5.5q-35 0-68-1.5t-65-3.5q-31-3-50.5-5.5t-32-7q-12.5-4.5-19.5-11.5t-13-19q-28-84-54-182t-49.5-212.5q-23.5-114.5-45.5-247.5t-42-287q-20-153-36.5-293t-28.5-269q-11-129-17-201t-6-89q0-25 19-44 4-4 41-31t110-68.5q73-41.5 184-92.5t263.5-102.5q152.5-51.5 348-99t438.5-82.5l9-1q21 0 35.5 13a64 64 0 0 1 19.5 33l44 199q53-11 108.5-25.5t115.5-33.5l17-1q20-2 36.5 11.5a61.71 61.71 0 0 1 21.5 33.5q15 57 29.5 151.5t29.5 228.5q16 133 27 270.5t17 282.5z"/></svg>