<svg viewBox="0 0 2100 1985" xmlns="http://www.w3.org/2000/svg"><path d="m956 216q-32 1-52 24t-20 55q0 35 21 58t53 23a61.8 61.8 0 0 0 28-6.5 80.31 80.31 0 0 0 23.5-18 88.36 88.36 0 0 0 16.5-26 79 79 0 0 0 6-30.5q0-37-23-58.5t-53-20.5zm1095 1074q19 0 34 48a348.61 348.61 0 0 1 11 49.5 371.31 371.31 0 0 1 4 55.5q0 108-47 219-46 110-116 165t-157 55q-92 0-164-54-38-28-60-62.5a250.7 250.7 0 0 1 -32-74.5q-14-58-14-86 0-54-4.5-79t-25.5-25q-37 0-82 79l-22 32q-313 372-676 373-101 0-193.5-27.5t-162.5-77.5q-70-50-111-119t-39-152q2-81 43-175t123-203l261-346q12-16 24-35.5t21.5-38a288.21 288.21 0 0 0 15.5-35.5q6-17 6-29 0-24-14.5-41t-38-28.5a331.85 331.85 0 0 0 -52.5-20q-29-8.5-57.5-15.5t-54-15q-25.5-8-41.5-18a388.12 388.12 0 0 1 -32 37.5q-17 17.5-34.5 34.5t-34.5 35a439.33 439.33 0 0 0 -32 38q-42 57-96 93t-107 37a209 209 0 0 1 -28.5-2 185.14 185.14 0 0 1 -26.5-5.5q-12-3.5-19.5-9t-7.5-11.5q0-26 54-26 39 0 83-27t44-59q0-10-11.5-16.5t-35.5-7.5a367.54 367.54 0 0 1 -57.5-8q-26.51-6-46-15.5t-31-21q-11.5-11.5-11.5-24.5 0-20 19-20 15 0 34 8a340.48 340.48 0 0 0 46.5 14.5 170.48 170.48 0 0 0 46.5 4.5q18-1 34.5-3a182.34 182.34 0 0 0 32.5-7 233.35 233.35 0 0 0 62-27q14-9 33-28t42-47q-48-59-48-114a334.14 334.14 0 0 1 8.5-73 373.12 373.12 0 0 1 26.5-76.5 455.38 455.38 0 0 1 45-75.5 413.47 413.47 0 0 1 64-69q75-66 176.5-102t212.5-36q210 0 350 137 141 138 141 340 0 387-485 851-65 64-65 110 0 28 13 39t26 11q19 0 44.5-13t59.5-42.5q34-29.51 78-76.5t100-115q122-148 228-220.5t196-72.5q84 0 159 57a360.51 360.51 0 0 1 66.5 68.5q29.51 39.49 50.5 92t33 119.5q12 67 16 151a422.05 422.05 0 0 0 4.5 51q3.49 22 16.5 22 21 0 65-62 21-31 38.5-59a386.82 386.82 0 0 0 28.5-54q18-44 52-44z"/></svg>