<svg viewBox="0 0 2236 2129" xmlns="http://www.w3.org/2000/svg"><path d="m2144 404q0-24-40-24h-128l-278 324h1l95 6q28 2 48-3t31-13q6-1 47-41 20-20 33.5-34.5t20.5-23.5l66-69 89-93a111.07 111.07 0 0 0 11-14.5 27.09 27.09 0 0 0 4-14.5zm-587 48 14 73 16 76 270-331-18-98q-8-41-15.5-61.5t-18.5-20.5q-11 0-40 37l-67 87-55 77q-20 28-36 50t-27 40.5a200.91 200.91 0 0 0 -17 35.5 104.4 104.4 0 0 0 -6 35zm441-162h106q57 0 94.5 31t37.5 83q0 43-36 85-17 21-53.5 61t-96.5 99l-87 85a241.22 241.22 0 0 1 -74 51q-41 18-95 16l-175-7-294 335q-22 25-50 25-21 0-42-14t-21-38q0-22 14.5-40t26.5-34l263-331q-8-34-17-69t-16.5-68q-7.5-33-12.5-63t-5-54q0-28 10-57.5t32-59.5l180-250q55-76 118-76 45 0 72.5 25.5t38.5 73.5l30 147q35 11 52 44zm-15 558a500.85 500.85 0 0 1 16 79.5 732.68 732.68 0 0 1 5 87.5q0 197-116 372a809.43 809.43 0 0 1 -98 119 1294.16 1294.16 0 0 1 -115 102q-61 48-126.5 91.5t-130 87.5q-64.5 44-127 91a1178 1178 0 0 0 -117.5 101l-93 92q-46 58-78 58-17 0-35-15t-44-43l-21-22q-54-57-94-92t-62-52q-44-36-265-190-104-72-178-132t-119-110q-89-98-137-211.5t-48-252.5q0-133 66-256a558.46 558.46 0 0 1 78-110.5 477.38 477.38 0 0 1 99-83.5 469.44 469.44 0 0 1 115.5-52.5 440.31 440.31 0 0 1 127.5-18.5 667.26 667.26 0 0 1 102.5 8 713.38 713.38 0 0 1 99 22.5 594.81 594.81 0 0 1 90 35.5 559 559 0 0 1 77.5 46q18 13 37 27.5t40 28.5q41 28 71 28 27 0 47-13l101-70a737.94 737.94 0 0 1 105.5-58q57.5-26 131.5-41l27 113a481 481 0 0 0 -54.5 13 520.86 520.86 0 0 0 -52.5 19q-26 9-56.5 27.5t-67.5 45.5q-73 53-108 67-34 14-73 14-61 0-109-31l-55-36q-51-32-86.5-55.5t-61.5-34.5a506.75 506.75 0 0 0 -102-29 620.45 620.45 0 0 0 -106-9q-151 0-258 121-107 122-107 286 0 118 44 215a561.87 561.87 0 0 0 51.5 92.5 696.23 696.23 0 0 0 70.5 86.5q40 43 111 98t174 127q103 70 168 118t95 73q60 50 171 159l56-55a1553.78 1553.78 0 0 1 193-161q101-71 201-140 95-65 161.5-118t106.5-98q81-90 123.5-186t42.5-212q0-77-18-133a189.64 189.64 0 0 0 24.5-1.5q11.51-1.5 25-4.5a202.59 202.59 0 0 0 29-9q15.5-6 35.5-16z"/></svg>