<svg viewBox="0 0 2278 1830" xmlns="http://www.w3.org/2000/svg"><path d="m163 145q0 17-14.5 30.5a48.91 48.91 0 0 1 -34.5 13.5 42.31 42.31 0 0 1 -31-13q-13-13-13-30 0-20 12-32.5a38.75 38.75 0 0 1 29-12.5q23 0 37.5 14t14.5 30zm1051 328q0 17-15.5 30.5t-32.5 13.5q-20 0-32.5-12.5t-12.5-32.5q0-20 11.5-31.5t29.5-11.5q23 0 37.5 14.5t14.5 29.5zm-9-176a49.94 49.94 0 0 1 14.5-36q14.51-15 37.5-15 28 0 44.5 18t16.5 35q0 20-16.5 35.5t-42.5 15.5a53.67 53.67 0 0 1 -38-15q-16-15-16-38zm-1049 91q0 22-17 37a58.51 58.51 0 0 1 -40 15q-24 0-39.5-16.5t-15.5-36.5q0-22 14.5-36.5t36.5-14.5q29 0 45 17.5t16 34.5zm1023-290q-20 0-38-14t-18-38q0-20 14.5-33t36.5-13q23 0 40 14t17 38q0 20-13.5 33t-38.5 13zm-915 491a61.59 61.59 0 0 1 -39.5-14q-17.5-14-17.5-38 0-20 14.5-33t35.5-13q24 0 41.5 14t17.5 38q0 20-14 33t-38 13zm6-336a77 77 0 0 1 11.5-41.5 103.43 103.43 0 0 1 31-31.5q19.5-13 46-20a220.36 220.36 0 0 1 56.5-7q60 0 119.5 30.5t108.5 99.5l7 10q18 32 29 32 8 0 16-21a345.79 345.79 0 0 1 37.5-81 298.63 298.63 0 0 1 54-64 229.9 229.9 0 0 1 68.5-42 218.57 218.57 0 0 1 81-15q46 0 74 17t28 46q0 25-11.5 31t-31.5 6h-28a69.52 69.52 0 0 0 -13.5 1.5 85.51 85.51 0 0 0 -15 4.5 41.49 41.49 0 0 0 -12.5 7.5 14.79 14.79 0 0 0 -5 11.5q0 19 33 19h22q40 0 67 19t27 51a45.71 45.71 0 0 1 -7.5 25.5 80.76 80.76 0 0 1 -43.5 33 85.32 85.32 0 0 1 -26 4.5l-17-3-26-10a189.65 189.65 0 0 0 -45.5-16 223.24 223.24 0 0 0 -46.5-5q-24 0-53 13-32 14-32 22 0 3 6 9t19 6l52-8q26 0 60 25 34 24 34 50 0 16-16 32.5t-37 16.5l-70-9q-100 0-119 123-4 23-6.5 45a338.45 338.45 0 0 1 -6.5 39q-4 17-10.5 28t-17.5 11q-8 0-12.5-4.5t-7.5-17.5q-3-13-6-35.5t-8-57.5l-9-59q-7-29-13-56.5t-28-51.5q-18-19-46.5-24.5t-55.5-8.5q-27-3-47-11t-20-32q0-45 52-45l35 4 46 9q15 0 15-18 0-21-21.5-34t-50.5-13q-26 0-104 23l-31 5q-33 0-56-19t-23-49zm2008 587q0 33-15.5 60.5t-44.5 50.5a248.77 248.77 0 0 1 -65 36q-35 13-78 13h-28q-47 0-47 37 0 20 23 72 11 26 17.5 42t6.5 24q0 20-13.5 37t-36.5 30q-23 13-54 20a298.92 298.92 0 0 1 -66 7 218.66 218.66 0 0 1 -47.5-5q-22.5-5-39-13.5t-26.5-20.5q-10-12-10-26a60.14 60.14 0 0 1 7-29q23-51 35.5-84.5t12.5-53.5q0-33-56-66-49-28-74.5-70.5t-25.5-82.5a188.47 188.47 0 0 1 3.5-36q3.49-18 8-35t7.5-32.5a155.4 155.4 0 0 0 3-29.5l-2-27q0-18 18-18l22 4q82 25 144 108l15 32q13 44 26.5 63t30.5 19q8 0 18-5.5t26-13.5q55-30 120-29l97 3 70-7 8 1q10 9 10 25zm-1387 513a87.39 87.39 0 0 0 34.5-7 90.77 90.77 0 0 0 29-19.5 96.19 96.19 0 0 0 20-29.5 88.18 88.18 0 0 0 7.5-36q0-25-8.5-45a106.27 106.27 0 0 0 -22.5-34 107.39 107.39 0 0 0 -31.5-22 86.88 86.88 0 0 0 -36.5-8q-36 0-60 27t-24 67a108.31 108.31 0 0 0 8 41.5 116.75 116.75 0 0 0 21 34 102.52 102.52 0 0 0 29.5 23 72.4 72.4 0 0 0 33.5 8.5zm-675-3q38 0 69-34 30-34 30-80 0-35-20-59t-55-24a81.82 81.82 0 0 0 -37 9 101.91 101.91 0 0 0 -31.5 24.5 132.62 132.62 0 0 0 -22 35.5 106.2 106.2 0 0 0 -8.5 42 85.79 85.79 0 0 0 6.5 33.5 100.29 100.29 0 0 0 17 27.5 74.91 74.91 0 0 0 24 18.5 62.83 62.83 0 0 0 27.5 6.5zm1468-5q0 99-167 224-166 124-400 192.5t-520 68.5q-62 0-123.5-5t-119.5-15q-58-10-110-24a884.08 884.08 0 0 1 -95-31q-42-17-71.5-35t-45.5-38q-32-38-32-168 0-205 93-373 94-170 249.5-257.5t371.5-87.5a1040.41 1040.41 0 0 1 257 32.5q128 32.5 259 97.5 259 128 425 341 29 35 29 78z"/></svg>