<svg viewBox="0 0 2390 1971" xmlns="http://www.w3.org/2000/svg"><path d="m1499 1258q0-4-7-9a67.46 67.46 0 0 0 -17-8.5 195 195 0 0 0 -21-6 90.74 90.74 0 0 0 -20-2.5q-64 0-140 46-38 23-119 83t-206 160q-93 75-93 140a74.18 74.18 0 0 0 3.5 21.5 99.17 99.17 0 0 0 9 21 62.16 62.16 0 0 0 13 16 24.66 24.66 0 0 0 16.5 6.5 22.33 22.33 0 0 0 13.5-4q5.5-4 13.5-11l158-137 134-110 104-85 104-80 13-8q20-11 30.5-18.5t10.5-14.5zm-685 48q-120 0-211-57t-108-149q-11-60-54-58l-25 2q-16 1-27-5a72.93 72.93 0 0 1 -19.5-15.5 156.2 156.2 0 0 1 -16-21.5q-7.5-12-14.5-23-39-58-73.5-117.5t-65.5-120.5l-126-243-23-44q-24-45-37.5-80t-13.5-64q0-53 42-53 23 0 32 18 26 54 53 105.5t55 102.5q28 51 67.5 123.5t84.5 173.5l26 58q12 38 34 60.5t45 22.5a104.4 104.4 0 0 0 35-6 95.72 95.72 0 0 0 30.5-17.5 98.38 98.38 0 0 0 22-26.5 65.74 65.74 0 0 0 8.5-33q0-17-6.5-36.5a293.57 293.57 0 0 0 -18.5-42.5q-63-122-142.5-274.5t-181.5-335.5a632.29 632.29 0 0 1 -29-59.5q-11-26.5-11-49.5 0-40 37-40a46.39 46.39 0 0 1 21 4.5 53.58 53.58 0 0 1 15.5 11.5 149.5 149.5 0 0 1 12.5 15.5q6 8.5 12 16.5 38 52 71 107t63 112l260 498q16 31 25 56.5t9 47.5q0 16-4 27.5t-8.5 21.5q-4.5 10-8.5 18.5a42.85 42.85 0 0 0 -4 18.5q0 28 43 49 42 21 117 44a573.18 573.18 0 0 0 75 16.5 611.82 611.82 0 0 0 73 6.5 343.12 343.12 0 0 0 77-6.5 392 392 0 0 1 78-7.5q38 0 38 29 0 36-56 100-55 62-127 91a400.45 400.45 0 0 1 -151 29zm1576 33q0 19-8 40-5 16-28 42-20 26-182 160-163 137-281 214-60 38-123 70.5a1063 1063 0 0 1 -128.5 56 889.37 889.37 0 0 1 -133.5 36.5 732.94 732.94 0 0 1 -138 13 698.78 698.78 0 0 1 -164-19q-81-19-90-41l-51 3a219.4 219.4 0 0 1 -98.5-19q-47.5-21-93.5-62-90-81-90-179 0-47 34-96.5t102-106.5l106-89q103-85 190-140t162-78q98-125 251.5-240.5t364.5-226.5l272-144a99.59 99.59 0 0 0 17-10q10-7 20-7 20 0 30.5 25.5t10.5 63.5q0 16-30 31-25 11-97 48t-193 100q-121 63-217.5 120.5t-170.5 110.5q-12 6-69 56-55 49-55 63 83 36 121 88t38 139q0 95-65 208a788.22 788.22 0 0 1 -72.5 107.5 482.45 482.45 0 0 1 -94.5 89.5l-30 22q-34 25-53 38.5t-19 21.5q0 11 30 11 91-2 215-48 63-23 141.5-71t175.5-120l244-184 41-37q59-53 100-80.5t67-27.5q42 0 42 48z"/></svg>