<svg viewBox="0 0 2296 2232" xmlns="http://www.w3.org/2000/svg"><path d="m2019 167a83.55 83.55 0 0 1 36 8 119.5 119.5 0 0 1 30.5 20.5 96.57 96.57 0 0 1 21.5 29 76.12 76.12 0 0 1 8 33.5q0 34-33 34a85.84 85.84 0 0 1 -37-8 101 101 0 0 1 -30-21.5 94 94 0 0 1 -20-31.5 101.17 101.17 0 0 1 -7-37q0-27 31-27zm-1183 1043 23-6q20 0 35 14.5t15 34.5q0 15-7.5 26a67 67 0 0 1 -19 18.5 94.94 94.94 0 0 1 -25 11.5 127.62 127.62 0 0 1 -26.5 5q-25 2-73 22-47 21-74 21-17 0-37.5-6.5t-37.5-6.5a141.5 141.5 0 0 0 -40.5 5.5q-18.5 5.5-41.5 5.5-20 0-32.5-11t-12.5-31q0-21 35-45 36-26 81-26a138.58 138.58 0 0 1 40 6q20 6 45 6 14 0 50-19 18-9 30.5-14t20.5-5h23q18 0 29-6zm293 9q40-5 89.5-20.5t110.5-38.5l-28-77-80-16q-16-3-16-15l-15-93-71-17a792.58 792.58 0 0 0 -30.5 92.5q-13.5 50.5-22.5 112.5 3 24 20.5 44a93.32 93.32 0 0 0 42.5 28zm-261-321 16-2q20 0 32.5 15a53 53 0 0 1 12.5 35 47.83 47.83 0 0 1 -8.5 27.5q-8.5 12.5-23.5 21.5a128.79 128.79 0 0 1 -34.5 14 140.6 140.6 0 0 1 -41.5 4l-31-1q-21-1-43 12-40 26-107 25l-61-1q-30-1-54.5 4.5a232.5 232.5 0 0 0 -44.5 14.5q-16 7-24 7-24 0-39.5-19t-15.5-39q0-27 26-40 12-6 24-13t25-13.5a202.79 202.79 0 0 1 26.5-11 86.44 86.44 0 0 1 27.5-4.5 224 224 0 0 1 55.5 7 220.09 220.09 0 0 0 54.5 7q30 0 83-29a134.43 134.43 0 0 1 23.5-11 53.17 53.17 0 0 1 22.5-3l41 3a99.12 99.12 0 0 0 28-2q14-3 30-8zm1180-393q0-5-8-9l-70-30-630 605 23 70q17-11 97.5-85.5t227.5-211.5l346-323q14-10 14-16zm155-196q0-82-77-156-76-74-163-74-69 0-69 77a273.27 273.27 0 0 0 7.5 63.5 219.89 219.89 0 0 0 24.5 60.5q33 58 95 89 29 16 55 23t46 7q42 0 61.5-25t19.5-65zm-1132 242h7q20 0 30 13a46.38 46.38 0 0 1 10 29 60.18 60.18 0 0 1 -11.5 36q-11.5 16-35.5 19l-229 32a204.25 204.25 0 0 0 -37.5 8l-39 12-37.5 10.5q-37.5 10.5-34 3.5l-56-3-30 4q-42 16-81.5 29.5t-77.5 13.5q-41 0-81-24-39-21-39-58a53.79 53.79 0 0 1 13.5-36.5q13.5-15.5 33.5-15.5 11 0 40 19 14 8 24.5 13.5t18.5 5.5q9 0 24-5.5t37-15.5q22-10 37-15.5a174.86 174.86 0 0 1 25-7.5l46-4q91 0 138-18a220 220 0 0 1 70-11h25a429.33 429.33 0 0 0 103.5-13q52.5-13 106.5-21zm63 354 67 15 624-632-5-26q-7-32-10.5-47.5t-7.5-15.5q-14 0-40 28l-42 46q-77 84-142.5 150.5t-118 118q-52.5 51.5-91 88.5t-60.5 61q-45 48-74 81t-45 51a702.3 702.3 0 0 0 -55 82zm706-576-611 620 12 82 70 14 625-599a246.21 246.21 0 0 1 -56.5-51.5 300.39 300.39 0 0 1 -39.5-65.5zm326 1557q0 23-138 71-69 24-158 45.5t-198 42.5l-161 31-222 50q-211 47-379 76.5t-297 29.5h-14q-79 0-112-42-72-93-115-197.5a1651.39 1651.39 0 0 1 -71.5-214.5q-28.5-110-51-222t-53.5-220q-65-224-110.5-449t-83.5-454l-2-8q0-34 32-42a373.77 373.77 0 0 1 55.5-11.5q27.5-3.5 53.5-5.5l110-7 135-12 134-15 252-23q109-10 198.5-24.5t161.5-34.5l138-37 35-5q21 0 33 12 8 11 17 29.5t20 44.5q21 51 21 59 0 11-22 37-23 26-39 26-11 0-17.5-16t-12.5-35a239.7 239.7 0 0 0 -14-35q-8-16-24-16l-40 9q-117 24-232 41.5t-233 31.5l-236 29-222 17-146 15-26 2-26 6-3 31a249.6 249.6 0 0 0 5 39q4 19 9 39l19 77q19 75 34.5 150.5t31.5 150.5q16 75 33 150t39 149q14 48 26 96t22 97q20 100 38.5 181.5t36.5 144.5q18 63 38.5 115t42.5 96q42 85 74 114 29 29 79 29 37 0 90-6.5t125-19.5q164-29 308.5-54t271.5-54l242-56 93-18q112-21 168-39.5t56-38.5q0-11-9-26-18-27-46-76.5t-68-121.5q-80-145-180-461l-6-27q0-14 16-41 18-29 29-29 20 0 111 238 29 75 58 141.5t61 125.5q32 59 83 132t119 164q13 17 13 29zm130-1557q0 36-13 63-12 28-61 85-24 28-84 87.5t-158 150.5q-98 91-176 162t-138 124q-60 53-117 103.5t-114 99.5q-26 16-45.5 27t-34.5 16q-15 5-34.5 9.5t-42.5 9.5l-112 25q-43 10-81 21t-66 11q-21 0-30-16.5t-9-31.5q0-11 4-45t12-91q8-56 15.5-100t16-79q8.51-35 18-62a381.66 381.66 0 0 1 21.5-50q13-23 32-50.5t45-61.5q26-35 109-124.5t223-236.5q281-294 344-334a245.48 245.48 0 0 1 66.5-31 248.4 248.4 0 0 1 69.5-10q79 0 159 49 77 47 129 131t52 149z"/></svg>