<svg viewBox="0 0 2338 2050" xmlns="http://www.w3.org/2000/svg"><path d="m524 1195-349 5-107-3-42 2q-12 0-19-10.5t-7-21.5q0-27 23-30 96-10 191.5-22.5t190.5-22q95-9.49 190.5-14t191.5-.5l110 6 39 3q44 3 65.5 16t21.5 42q0 58-97 55l-61-1h-59zm1688 2q0 23 14 44a198.78 198.78 0 0 1 17.5 33 182.89 182.89 0 0 1 10 34 270.63 270.63 0 0 1 4.5 38q1 20 2 44a324.25 324.25 0 0 1 -15.5 112 401 401 0 0 1 -47 98.5q-29.5 44.5-67.5 75.5t-77 43q-35 11-58.5 19.5t-38.5 17q-15 8.51-24 17.5a98.73 98.73 0 0 0 -15 19l-56 91q-53 84-142 125.5t-196 41.5q-130 0-203-50-28-18-48-30a353.56 353.56 0 0 0 -35.5-19 129.53 129.53 0 0 0 -28.5-9.5 142.48 142.48 0 0 0 -27-2.5 266.69 266.69 0 0 0 -69.5 9 266.69 266.69 0 0 1 -69.5 9 522 522 0 0 1 -168.5-28q-37.5-13-67-31.5t-48.5-40.5a245.75 245.75 0 0 1 -33.5-51 427 427 0 0 1 -24.5-60 414.8 414.8 0 0 1 -15-62.5 386.53 386.53 0 0 1 -5-60.5 291.68 291.68 0 0 1 7-63.5 398.15 398.15 0 0 1 20-63.5l-633-85q-22-6-22-30a18.35 18.35 0 0 1 5.5-13.5q5.5-5.5 19.5-8.5t38-4.5q24-1.5 60-1.5 41 0 222.5 8.5t508.5 26.5q167 9 167 76 0 62-104 62-18 0-58.5-5t-104.5-14q-8 20-15 41a141.32 141.32 0 0 0 -7 45q0 88 89 150t204 62a371.67 371.67 0 0 0 63-5 292.16 292.16 0 0 0 53-14 155.06 155.06 0 0 1 24.5-8.5q10.5-2.51 16.5-2.5 25 0 36 17 58 92 223 92 117 0 209-60 93-61 108-151 14-86 55-86l41 6q80 0 139-63 60-64 60-147 0-92-60-164-18-22-18-49 0-31 25-47 67-40 99-106.5a320 320 0 0 0 32-140.5q0-84-38-156-39-76-107-116-68-42-198-66-16-3-29-6a93.41 93.41 0 0 1 -22.5-8 41 41 0 0 1 -15-13q-5.51-8-5.5-22a61.18 61.18 0 0 1 8.5-31.5q8.5-14.5 8.5-23.5l-8-48q-10-55-42.5-97t-80.5-74q-96-63-223-63-66 0-119.5 15t-93 43.5a219.9 219.9 0 0 0 -63 69.5q-23.5 41-28.5 94-5 57-37 57l-46-5-44-4q-109 0-182 65-71 65-71 162 0 61 30 116l119-4a151.73 151.73 0 0 1 44.5 4.5 262.51 262.51 0 0 1 43.5 15.5q42 21 42 51 0 52-115 53-34 1-123 7t-235 15q-146 10-268.5 22t-225.5 29h-6a37.52 37.52 0 0 1 -22-7q-10-7-10-18 0-28 97-54l35-10q91-25 217-48.5t291-43.5q-45-63-45-147 0-121 75-203.5t227-126.5q28-8 47.5-23t31.5-39l19-35q52-97 162-150t264-53q168 0 284 70 58 35 96.5 69t61.5 68.5q23 34.5 32.5 69.5a270 270 0 0 1 9.5 71q0 25 7.5 41a79.39 79.39 0 0 0 19.5 26.5 76.64 76.64 0 0 0 28 15.5 265.67 265.67 0 0 0 33 8q101 18 213 136 111 116 111 287 0 67-18 125-8 23-25 55t-47 72q-17 23-26.5 43t-9.5 40z"/></svg>