<svg viewBox="0 0 1742 1578" xmlns="http://www.w3.org/2000/svg"><path d="m1386 0q148 0 252 116t104 282q0 112-50 197-24 42-52.5 62.5t-60.5 20.5q-36 0-65-34t-57-100l-22-52q-17-40-57-72.5t-112-72.5q-63-35-92-71.5t-29-81.5q0-43 17.5-79a176.6 176.6 0 0 1 49.5-61.5q32-25.5 76.5-39.5t97.5-14zm-1224 678q-64 0-112-82-50-83-50-200 0-165 103-280 104-116 253-116 57 0 101.5 15t75 41a175.35 175.35 0 0 1 46.5 61q16 35 16 76 0 93-120 158-39 21-67.5 39a476.15 476.15 0 0 0 -48.5 34.5q-20 16.5-33 33a161.8 161.8 0 0 0 -21 34.5l-22 52q-28 66-56.5 100t-64.5 34zm1078 346a76.35 76.35 0 0 0 35.5-8.5 98.88 98.88 0 0 0 29.5-23.5 115.38 115.38 0 0 0 20.5-34.5 117.43 117.43 0 0 0 7.5-42.5 121.81 121.81 0 0 0 -7-41.5 106.85 106.85 0 0 0 -19.5-34 94.24 94.24 0 0 0 -29.5-23 81.53 81.53 0 0 0 -37-8.5q-41 0-68 30.5t-27 74.5q0 47 27 79t68 32zm-184 353 3-13q0-13-8-20.5a26.84 26.84 0 0 0 -19-7.5q-10 0-24 8-17 13-42 13-31 0-60-22-6-10-6-37 129-15 129-105a86.53 86.53 0 0 0 -12.5-45q-12.5-21-34.5-36t-51.5-23.5a224.59 224.59 0 0 0 -62.5-8.5q-37 0-66.5 9.5t-50 26a115.39 115.39 0 0 0 -31.5 38.5 103.71 103.71 0 0 0 -11 47q0 40 33 69t95 29v10q0 46-60 46-21 0-36-8.5a63.86 63.86 0 0 0 -32-8.5q-29 0-29 28 0 24 25.5 39t63.5 15a240.27 240.27 0 0 0 38.5-3 182.9 182.9 0 0 0 38.5-11q13-10 27-10l16 7a213.15 213.15 0 0 0 35 11 174.6 174.6 0 0 0 38 4q39 0 68-16a82.23 82.23 0 0 1 15.5-12.5 24.11 24.11 0 0 0 10.5-12.5zm-555-353a81.53 81.53 0 0 0 37-8.5 100.28 100.28 0 0 0 30-23 101.92 101.92 0 0 0 20-34 124.86 124.86 0 0 0 7-42.5 114.59 114.59 0 0 0 -7.5-41.5 121.66 121.66 0 0 0 -20-34.5 91.2 91.2 0 0 0 -29.5-23.5 79.37 79.37 0 0 0 -36-8.5 81.53 81.53 0 0 0 -37 8.5 104.46 104.46 0 0 0 -30 22.5 95.68 95.68 0 0 0 -20 34 131 131 0 0 0 0 84.5 113.13 113.13 0 0 0 19.5 34.5 91.2 91.2 0 0 0 29.5 23.5 81.53 81.53 0 0 0 37 8.5zm1078-268 18-1q0 123-23 230.5a962.81 962.81 0 0 1 -68 204.5q-88 189-261 290a681 681 0 0 1 -181 74q-96 24-202 24-216 0-386-97-169-97-260-290-90-192-90-439l36 4a162.71 162.71 0 0 0 57-10q27-10 52-33t48-61q23-38 45-94a339.22 339.22 0 0 1 17-38 206.37 206.37 0 0 1 20-31q12-14 35.5-29t58.5-34q91-48 135.5-103.5t44.5-129.5a228.14 228.14 0 0 0 -10-67.5q-10-32.5-30-67.5a843.84 843.84 0 0 1 231-32 791.38 791.38 0 0 1 118.5 9 783.4 783.4 0 0 1 119.5 28q-37 60-37 130t36.5 121q36.5 51 111.5 96 61 29 98 54t53 62l26 62a528.67 528.67 0 0 0 35.5 70q19.5 32 42.5 54.5a168.21 168.21 0 0 0 50.5 34.5 116 116 0 0 0 58.5 9z"/></svg>