<svg xmlns="http://www.w3.org/2000/svg" viewBox="0 0 2100 1838"><title>u1F475</title><g id="Layer_2" data-name="Layer 2"><g id="Layer_1-2" data-name="Layer 1"><path id="u1F475" d="M1301,1336q24,20,38,50a145.11,145.11,0,0,1,14,62q0,9-1,19a87.55,87.55,0,0,1-4,19,36.35,36.35,0,0,1-8.5,14.5,18.35,18.35,0,0,1-13.5,5.5q-17,0-19-17-4-16-7-32a300.39,300.39,0,0,0-7.5-31,151.94,151.94,0,0,0-31.5-57,132.5,132.5,0,0,0-17-16q-10-8-10-22,0-5,6-10a19.92,19.92,0,0,1,13-5q11,0,24.5,6A107.11,107.11,0,0,1,1301,1336Zm-442-20a20.64,20.64,0,0,1,13.5,4.5A14.19,14.19,0,0,1,878,1332q0,11-10,20a204.33,204.33,0,0,0-17,17q-24,29-33,63-2,10-4,22.5t-5,24a61.47,61.47,0,0,1-8.5,19.5,17.74,17.74,0,0,1-15.5,8,16.12,16.12,0,0,1-13-6,45.84,45.84,0,0,1-8-15,112.9,112.9,0,0,1-4.5-19,122.59,122.59,0,0,1-1.5-18q0-22,9-45a193.54,193.54,0,0,1,23-42.5,128.62,128.62,0,0,1,32.5-32Q841,1316,859,1316Zm186,11a128.58,128.58,0,0,1-44.5-7.5,153.7,153.7,0,0,1-35.5-18q-15-10.5-23-22.5t-8-22a17.05,17.05,0,0,1,6.5-13.5A23.19,23.19,0,0,1,956,1238q8,0,15,7t16,15a110.17,110.17,0,0,0,22.5,15q13.5,7,35.5,7t35.5-7a125,125,0,0,0,23-15q9.49-8,16.5-15t16-7a20.06,20.06,0,0,1,14,5.5,17.61,17.61,0,0,1,6,13.5q0,10-8,22t-22.5,22.5q-14.51,10.5-35,18T1045,1327Zm123,74a52.49,52.49,0,0,1,12.5-9,32.51,32.51,0,0,1,15.5-4q13,0,13,18,0,28-14,48a119.66,119.66,0,0,1-36,33.5,192.33,192.33,0,0,1-48.5,21,219.43,219.43,0,0,1-50.5,8.5h-14.5l-15.5-2q-14-1-37-9a320,320,0,0,1-45.5-20,171.4,171.4,0,0,1-39-28q-16.5-16-16.5-34,0-13,8-19a30.77,30.77,0,0,1,19-6q10,0,13,2,32,11,59.5,20.5t60.5,9.5a243.34,243.34,0,0,0,30-2q16-2,31.5-5.5a222.24,222.24,0,0,0,30-9A90.22,90.22,0,0,0,1168,1401ZM789,1071a114.59,114.59,0,0,1-7.5,41.5,108.94,108.94,0,0,1-20.5,34,96.55,96.55,0,0,1-31,23,87.88,87.88,0,0,1-38,8.5,84.68,84.68,0,0,1-37.5-8.5,104.22,104.22,0,0,1-52-57A114.59,114.59,0,0,1,595,1071a110.66,110.66,0,0,1,7.5-41,105.51,105.51,0,0,1,21-33.5,97.21,97.21,0,0,1,31-22.5,89.19,89.19,0,0,1,37.5-8q41,0,69,30T789,1071Zm609-105q41,0,69,30t28,75a114.59,114.59,0,0,1-7.5,41.5,108.94,108.94,0,0,1-20.5,34,96.55,96.55,0,0,1-31,23,87.88,87.88,0,0,1-38,8.5,84.68,84.68,0,0,1-37.5-8.5,104.22,104.22,0,0,1-52-57,114.59,114.59,0,0,1-7.5-41.5,110.66,110.66,0,0,1,7.5-41,105.51,105.51,0,0,1,21-33.5,97.21,97.21,0,0,1,31-22.5A89.19,89.19,0,0,1,1398,966Zm401,373q17,0,38.5-8.5T1874,1317q25-7,48-24.5a189.47,189.47,0,0,0,40.5-42.5,227.54,227.54,0,0,0,28-54.5A179.15,179.15,0,0,0,2001,1135a325,325,0,0,0-11-85.5,374.29,374.29,0,0,0-32-79.5q-8-16-22.5-33.5T1907,893q-6-12-14.5-26.5t-16-30.5q-7.5-16-13-31t-5.5-28q0-24-1.5-39.5T1855,706q0-5,.5-10.5t.5-10.5q0-16-1-36a172.51,172.51,0,0,0-8-42.5,238.17,238.17,0,0,0-21-47q-14-24.5-39-50.5-7-5-19-12t-26.5-17a293.24,293.24,0,0,1-29.5-23.5,165.9,165.9,0,0,1-27-31.5,201.06,201.06,0,0,1-18-34.5q-7-17.5-12.5-33t-9.5-29a113,113,0,0,0-9-22.5q-30-51-71.5-86.5A384.69,384.69,0,0,0,1472,161a583.72,583.72,0,0,0-110-36.5A943.16,943.16,0,0,0,1237,105a180.59,180.59,0,0,0-29-1.5,131.37,131.37,0,0,1-29-2.5h-13q-10-1-18-1h-15a300.38,300.38,0,0,0-41.5,3,345.26,345.26,0,0,1-47.5,3,334.38,334.38,0,0,1-47-3,289.82,289.82,0,0,0-41-3H940.5L923,101H910a131.37,131.37,0,0,1-29,2.5,180.59,180.59,0,0,0-29,1.5q-137,15-240,61T453,306q-11,20-19.5,52T402,425a152.93,152.93,0,0,1-22.5,26.5A263.24,263.24,0,0,1,357,470q-11,8-20.5,14A142,142,0,0,0,320,496q-17,23-29.5,38.5t-21.5,29A205.71,205.71,0,0,0,253.5,591,277.4,277.4,0,0,0,241,624q-4,14-5.5,37.5t-4.5,53q-3,29.5-8.5,62A326.54,326.54,0,0,1,205,840a371.09,371.09,0,0,1-32,63q-18,28-34.5,59t-28,69.5Q99,1070,99,1127q0,25,.5,50a349.21,349.21,0,0,0,4.5,49.5,283.85,283.85,0,0,0,12,47.5,174.74,174.74,0,0,0,22,43q8,12,22,23.5a285.25,285.25,0,0,0,30,21.5,162.28,162.28,0,0,0,33.5,16q17.5,6,32.5,6a116,116,0,0,0,32.5-4.5Q304,1375,315,1375q10-4,20.5-21t19.5-44a391.27,391.27,0,0,0,14.5-61,457.2,457.2,0,0,0,5.5-73q0-54,3.5-107.5T397,957q35-136,161-198,25-12,45-21.5T638,719a261,261,0,0,0,26.5-18A89.58,89.58,0,0,0,684,680q10-14,18.5-34.5t20-44.5a520.06,520.06,0,0,1,27-49A267,267,0,0,1,788,504q32-32,71.5-47T944,442a280,280,0,0,1,44,3.5q22,3.5,42.5,8t38.5,8a170.1,170.1,0,0,0,32,3.5q17,0,44-9t53-17l3-6a230.8,230.8,0,0,1,15.5-26,162.51,162.51,0,0,1,22-26,103,103,0,0,1,29-19.5Q1284,354,1305,354q30,0,49.5,12a102.71,102.71,0,0,1,32.5,32,151.92,151.92,0,0,1,19.5,45,368.41,368.41,0,0,1,9.5,52q2,22,6.5,34.5t10.5,20a79.9,79.9,0,0,0,13,13,105.53,105.53,0,0,1,14,13.5q30,34,57,57t51,43.5a561.56,561.56,0,0,1,45.5,43.5q21.49,23,40.5,57,20,35,27.5,70a605.06,605.06,0,0,1,10.5,64l2,13q1,12,1.5,22.5t.5,21.5q0,45-6,82t-13,70l-1,7q-4,20-5.5,35.5T1669,1194q0,9,3.5,24.5a332.3,332.3,0,0,0,9,32Q1687,1267,1692,1281t8,18q4,4,12,10.5a121.81,121.81,0,0,0,20.5,13,169.44,169.44,0,0,0,29,11.5Q1778,1339,1799,1339Zm-758,404q37,0,74-3.5t70-9q33-5.51,60-12t44-11.5q128-38,222.5-116T1664,1398q-20-12-32-26a142.62,142.62,0,0,1-19.5-29,253.82,253.82,0,0,1-13-31q-5.51-16-11.5-33a310.14,310.14,0,0,1-12.5-40.5q-4.5-19.5-4.5-44.5a391.63,391.63,0,0,1,4-56.5q4-27.49,9-55t9-56a420,420,0,0,0,4-58.5q0-12-1-30t-4-38a320,320,0,0,0-8.5-39.5A141.45,141.45,0,0,0,1569,826q-27-46-64.5-77.5T1427,684a297.44,297.44,0,0,1-35.5-35.5A418.12,418.12,0,0,0,1358,613q-16-16-23.5-35a253.38,253.38,0,0,1-12-40q-4.5-21-7.5-42a239.67,239.67,0,0,0-10-42,132,132,0,0,0-18,24.5,236.91,236.91,0,0,1-15,23.5,79,79,0,0,1-21,19.5q-13,8.5-36,14.5-29,11-55.5,19t-58.5,8a240.73,240.73,0,0,1-40.5-3.5Q1040,556,1020,552t-39-7.5a204.39,204.39,0,0,0-37-3.5q-44,0-70.5,21A184.75,184.75,0,0,0,829,613.5,555.4,555.4,0,0,0,796.5,678Q782,712,763,738a224.7,224.7,0,0,1-34.5,38,261,261,0,0,1-39,28Q669,816,647,826.5L602,848q-51,25-76.5,62.5a243.29,243.29,0,0,0-36,83.5,505.33,505.33,0,0,0-12,98q-1.5,52-4,104A789.53,789.53,0,0,1,462,1298a271.08,271.08,0,0,1-35,93q62,118,155,198t224,118q14,4,38.5,10t56,12q31.5,6,67.5,10A659.72,659.72,0,0,0,1041,1743ZM2044,922q29,52,42.5,102t13.5,111a291.69,291.69,0,0,1-11.5,81,302.18,302.18,0,0,1-83,137,270.2,270.2,0,0,1-65.5,46,134,134,0,0,1-39,13,153.45,153.45,0,0,0-39,12q-29,13-63,13-11,0-22.5-1a127.42,127.42,0,0,1-22.5-4q-72,143-185.5,235.5T1315,1799q-17,5-45.5,11.5t-65,12.5q-36.49,6-78.5,10.5a797.29,797.29,0,0,1-85,4.5,746.59,746.59,0,0,1-82.5-4.5q-40.5-4.5-75-10.5t-62-12.5Q794,1804,778,1799q-129-37-237.5-119.5T357,1462q-17,11-46.5,16a328.12,328.12,0,0,1-54.5,5,220,220,0,0,1-69-11.5,205.55,205.55,0,0,1-64-34.5q-41-32-65.5-68A301.41,301.41,0,0,1,20,1293.5,353.36,353.36,0,0,1,3.5,1212Q0,1170,0,1127a440.86,440.86,0,0,1,4-56,603.54,603.54,0,0,1,11.5-62.5A439.41,439.41,0,0,1,35,947a260.24,260.24,0,0,1,29-54q28-41,44-81t23-89q4-32,5-66a222.11,222.11,0,0,1,12-66q7-20,13.5-37A300.12,300.12,0,0,1,179,517a275.56,275.56,0,0,1,29-42q16-19,33-40a92,92,0,0,1,18.5-17.5q10.5-7.5,21-14.5t21-15A90.93,90.93,0,0,0,320,369a98.05,98.05,0,0,0,14-26q5-14,9.5-29t10-29.5A201.72,201.72,0,0,1,367,256a418.45,418.45,0,0,1,60-79.5,490.1,490.1,0,0,1,76.5-65,482.67,482.67,0,0,1,88.5-48A583.24,583.24,0,0,1,688,33Q757,18,822,9A976.17,976.17,0,0,1,956,0a388.61,388.61,0,0,1,44,2.5Q1022,5,1044,8q22-3,43.5-5.5A393.54,393.54,0,0,1,1133,0q14,0,26,.5T1185,2a1380.85,1380.85,0,0,1,159,19,725,725,0,0,1,147.5,42.5A524.93,524.93,0,0,1,1620,139q59,47,101,117a201.72,201.72,0,0,1,13.5,28.5q5.51,14.5,10,29t10,29A132.16,132.16,0,0,0,1768,369a91.25,91.25,0,0,0,18.5,20.5,225.92,225.92,0,0,0,22.5,16q12,7.5,24,14.5a108,108,0,0,1,22,17q55,53,77.5,114.5T1955,691v41q0,35,10,58.5a321.36,321.36,0,0,0,27,49.5l3,5a285.76,285.76,0,0,0,24.5,39A321.17,321.17,0,0,1,2044,922Z"/></g></g></svg>