<svg viewBox="0 0 1994 2343.34" xmlns="http://www.w3.org/2000/svg"><path d="m256 1040.34q0-32 22.5-54t58.5-22a142.85 142.85 0 0 1 26.5 3q15.5 3 35.5 8l79 19q85 21 128 48.5t43 69.5q0 77-77 77a176.13 176.13 0 0 1 -37.5-4.5q-20.5-4.5-45.5-10.5l-69-18q-164-43-164-116zm419 320a79.42 79.42 0 0 1 -15.5 47.5q-15.5 21.5-44.5 21.5-28 0-49.5-8.5a122.54 122.54 0 0 0 -45.5-8.5q-26 0-26 93 0 75-17 103t-51 28q-40 0-61-28.5t-18-87.5l5-118q1-45-29-56l-41-15q-80-29-80-79a64.93 64.93 0 0 1 6.5-28.5 82.31 82.31 0 0 1 17.5-24 94.82 94.82 0 0 1 24.5-17 64.93 64.93 0 0 1 28.5-6.5q34 0 81 18l86 33 59 19q89 29 129.5 53t40.5 61zm484-279q-40 0-40-40l7-465q2-122 4.5-226t2.5-194v-39q0-41 12-63.5t37-24.5l342-29q32-3 45.5 20.5t12.5 68.5l-6 202q-1 28-13.5 45.5t-40.5 27.5q-8 4-37 9.5t-78 13.5q-127 21-151 37-22 13-22 56v278l4 273q1 25-20 37.5t-59 12.5zm-364 556v-121l6-202q4-171-21.5-280t-77.5-172q-53-65-115-97-62-33-169-33-58 0-101 11.5t-74.5 34a213 213 0 0 0 -54 56.5q-22.5 34-38.5 80-17 45-25 99a1021.74 1021.74 0 0 0 -10 117l-5 388q0 31 3.5 51.5t11.5 34.5a69.5 69.5 0 0 0 21 23 149.87 149.87 0 0 0 31 16q65 25 127.5 51.5t125.5 55.5q149 67 231.5 101t99.5 34q20 0 30-30.5t8-92.5zm1199-321q0 102-15.5 160t-60.5 78l-58 26q-112 49-253 122t-323 158q-14 7-23.5 13t-12.5 12q-7 11-5 55l4 295v30l-2 19q0 9-9 19.5t-25 19.5q-16 9-38.5 14.5t-50.5 5.5q-53 0-89.5-13t-45.5-33a184.77 184.77 0 0 1 -5-21.5 149.78 149.78 0 0 1 -2-25.5l1-122q0-35-.5-56.5t-2.5-33.5q-2-12-5.5-16t-7.5-4a144.74 144.74 0 0 0 -39.5 5.5 152.09 152.09 0 0 1 -41.5 5.5 181.49 181.49 0 0 1 -38.5-4 348.75 348.75 0 0 1 -36.5-10q-85-30-197.5-74t-255.5-105q-284-123-302-143-16-11-25.5-32a428.46 428.46 0 0 1 -17.5-46q-3-12-5.5-36.5t-3.5-60.5q-2-37-2-67.5v-56.5q0-117 8-214t23-177a710.56 710.56 0 0 1 21-85.5 549.79 549.79 0 0 1 33-81.5q22-42 44.5-73.5t47.5-52.5a335.14 335.14 0 0 1 112-64q60-22 260-67 100-23 224.5-44t276.5-39l-2 44v45q-66 7-161.5 22.5t-222.5 40.5q-40 8-40 17 0 8 44 28 75 35 129 106.5t86 162.5q14 41 21.5 137.5t5.5 251.5l-5 497q-1 55 37 55 15 0 31-10l59-22 216-95q89-40 197-92.5t239-121.5l147-77q19-10 28.5-20a58.9 58.9 0 0 0 13.5-22 109.37 109.37 0 0 0 5-27.5q1-15.49 3-35.5 0-84-6-167t-17-168q-11-86-25.5-147.5t-33.5-101.5q-18-40-39.5-69.5t-44.5-49.5q-49-40-161-71a972.44 972.44 0 0 0 -240-37l-2-77q0-8 5-8.5a110.9 110.9 0 0 0 16-3.5q60 2 117.5 7a966.92 966.92 0 0 1 111 16 778.61 778.61 0 0 1 103 28.5 464.65 464.65 0 0 1 92.5 44.5q85 52 135 149 26 48 44.5 112t31.5 144q13 79 19.5 162t6.5 173z"/></svg>