<svg viewBox="0 0 2056 2106" xmlns="http://www.w3.org/2000/svg"><path d="m1796 446-97 34q-12 0-19.5-8.5t-7.5-17.5q0-12 42-66 22-28 43.5-54t44.5-50q11-12 20-17t17-5q13 0 49 44 34 43 34 77 0 13-9.5 17t-20.5 9zm-1559 1146q7 0 15 7.5t8 17.5q0 14-59 78l-45 47q-26 29-42 44t-24 15q-20 0-54-45-36-45-36-70a24.63 24.63 0 0 1 4-14q4-6 23-16 10-5 19.5-10a71 71 0 0 1 20.5-7l90-26q69-21 80-21zm234 172q8 0 17 6.5a20.5 20.5 0 0 1 9 17.5 574 574 0 0 1 -19 101.5q-14 49.5-27 97.5-3 13-6.5 24.5t-19.5 11.5q-34 0-80-25-47-23-47-48a34.14 34.14 0 0 1 4.5-17 105.07 105.07 0 0 1 13.5-18l33-37 55-58q53-56 67-56zm1024-1496q-9 0-16.5-8t-7.5-17q0-59 13-107l18-94q7-42 34-42 21 0 71 27 51 27 51 51a20.88 20.88 0 0 1 -6 14.5 74.22 74.22 0 0 0 -10 13.5l-65 80q-67 82-82 82zm561 498q0 25-4.5 42t-21.5 15l-19-1q-53-4-103-6.5a583.06 583.06 0 0 1 -102-14.5q-15-3-15-22l1-6q3-20 94-63 47-23 78.5-34.5t49.5-11.5q21 0 30 25 8 25 10 41a293.12 293.12 0 0 1 2 36zm-1175 1310q0 30-86 30-38 0-56-6.5t-18-30.5q0-23 7-51a604.14 604.14 0 0 1 20-63l33-89q6-26 30-26 23 0 48 128 14 39 18 66.5t4 41.5zm438-368 42 6q40 0 83-22.5t89-66.5q95-90 140-158.5t45-127.5a269.11 269.11 0 0 0 -6.5-59 329.68 329.68 0 0 0 -19.5-59q-13-29-38-78.5t-66-118.5q-31-52-45-104l-37-132q-51-184-133-288t-217-169q-137-66-287-66-175 0-327 86a684.8 684.8 0 0 0 -137.5 102q-61.5 59-107.5 136-93 155-93 341a681.94 681.94 0 0 0 19 162q19 78 59 153 76 144 206 229 66 42 158 71t213 47q61 9 118.5 21.5t113.5 27.5q56 15 112.5 32t115.5 35zm691-39a78.26 78.26 0 0 1 -2.5 19q-2.51 10-4.5 22l-10 41-3 63q-2 40-33 71t-88 34q-17 0-50 16-35 18-57 18a101.44 101.44 0 0 1 -52-14q-14-7-23-10.5a34.75 34.75 0 0 0 -17-2.5l-45 3a46.41 46.41 0 0 1 -27-6.5q-13-7.5-28-21.5-30-27-39-27-47 0-66-8a174.16 174.16 0 0 1 -33-20.5q-16-12.49-16-19.5a131.09 131.09 0 0 1 -25 4q-14 1-30 1-45 0-76-11-58-18-112.5-34.5t-108.5-30.5q-54-14-109-26t-114-21q-209-30-331-86a627.69 627.69 0 0 1 -117-69 728.38 728.38 0 0 1 -104-95 741.26 741.26 0 0 1 -151.5-245 798 798 0 0 1 -51.5-283q0-109 26.5-207a783.15 783.15 0 0 1 78.5-188q105-178 286-284 181-104 392-104a750.57 750.57 0 0 1 170 19 795.84 795.84 0 0 1 162 57q156 73 259 197 50 61 89.5 142t68.5 186l39 139a278.71 278.71 0 0 0 25.5 64.5q17.5 32.5 38.5 66.5t42.5 71a787.37 787.37 0 0 1 39 76.5 431.18 431.18 0 0 1 27 83 325.3 325.3 0 0 1 6.5 90.5l-2 20q49 28 55 99l-1 18q-2 18 18 26 36 13 39 39l3 21q3 26 19 37 20 14 31.5 28t11.5 42z"/></svg>