<svg viewBox="0 0 2262 1872" xmlns="http://www.w3.org/2000/svg"><path d="m101 560 461-463q-62 2-116 16.5a381.49 381.49 0 0 0 -100 42.5l-162 162q-28 41-52 98t-31 144zm2048 201-847 847a1633.11 1633.11 0 0 1 197-156q137-93 230.5-161t147.5-113q107-90 177.5-198.5t94.5-218.5zm-2025 42 669-669a533.11 533.11 0 0 0 -62.5-18q-31.5-7-64.5-12l-565 565q3 42 8.5 75a364.09 364.09 0 0 0 14.5 59zm86 181 758-757q-59-42-97-61l-717 717q16 29 29.5 55t26.5 46zm821-711-774 775a482.8 482.8 0 0 0 36.5 42q19.5 20 39.5 40l823-822-25 3a114.49 114.49 0 0 1 -33-4.5 168.9 168.9 0 0 1 -27-10.5 226.07 226.07 0 0 1 -22-12.5 190 190 0 0 0 -18-10.5zm387-119-1028 1030 86 69 1153-1153q-122 10-211 54zm744 482v-24q0-36-2-66a458.43 458.43 0 0 0 -7-56l-1155 1152q39 31 81 79zm-1221 954 1185-1183q-35-68-57-103l-1214 1216zm-401-290 93 64 1234-1234a433.25 433.25 0 0 0 -66.5-21 408.11 408.11 0 0 0 -60.5-9zm159 108 93 66 1230-1232a473.29 473.29 0 0 0 -39-38.5 313 313 0 0 0 -46-33.5zm1563-793q0 236-134 432a1098.66 1098.66 0 0 1 -163 187q-48 45-134.5 108.5t-212.5 147.5q-87 58-153.5 108t-114.5 97l-105 104q-29 35-57 54t-54 19h-6a85.84 85.84 0 0 1 -37-8 148.21 148.21 0 0 1 -31.5-20 217.21 217.21 0 0 1 -26.5-26q-12-14-22-26-15-17-43.5-44.5t-71.5-65.5q-43-39-88-75t-93-68q-139-94-234.5-163t-151.5-116q-110-91-186-200a969.25 969.25 0 0 1 -64-104.5 675.45 675.45 0 0 1 -44.5-105.5 684.54 684.54 0 0 1 -26-112 848.21 848.21 0 0 1 -8.5-123q0-69 9.5-126.5t29.5-105.5q165-383 541-383a786 786 0 0 1 152.5 14.5 692.77 692.77 0 0 1 142.5 44.5q41 17 86.5 45t99.5 69q57 42 70 42l14-4 67-44q58-38 102-67.5t80-43.5a774.06 774.06 0 0 1 147-42.5 817.6 817.6 0 0 1 147-13.5q116 0 213.5 40t174.5 118a628.12 628.12 0 0 1 72.5 87.5 657.69 657.69 0 0 1 59 105.5q25.5 57 40 123t14.5 141z"/></svg>