<svg viewBox="0 0 2280 2311" xmlns="http://www.w3.org/2000/svg"><path d="m507 597q0 34 24 57t60 23q37 0 54.5-23.5a85.77 85.77 0 0 0 17.5-52.5q0-36-24.5-62.5t-61.5-26.5a60.14 60.14 0 0 0 -29 7 66.83 66.83 0 0 0 -22 19 93 93 0 0 0 -14 27.5 102.08 102.08 0 0 0 -5 31.5zm1677 312 42-2q54-1 54 51 0 44-37 91-37 49-91.5 72.5t-117.5 23.5q-94 0-175-50l25 121q14 69 27 124t29 99a852 852 0 0 0 38.5 93q23.51 49 56.5 104 16 26 31.5 53.5t30.5 56.5q15 29 26.5 51t20 41a197.55 197.55 0 0 1 12.5 36.5 158.64 158.64 0 0 1 4 35.5q0 25-9.5 44.5a99.69 99.69 0 0 1 -25.5 33 112.36 112.36 0 0 1 -36.5 20.5 130.53 130.53 0 0 1 -42.5 7q-40 0-76-30.5t-74-89.5l-36-55-50-81q-57-91-109-138.5t-109-47.5q-34 0-79 14.5t-104 43.5q-116 57-136 168l-17 104-52 231q-6 27-12.5 58.5a220.89 220.89 0 0 1 -20 57.5 122 122 0 0 1 -38 43.5q-24.5 17.5-66.5 17.5-31 0-56.5-9.5a123.09 123.09 0 0 1 -43.5-27 118.41 118.41 0 0 1 -27.5-41q-9.5-23.5-6.5-52.5l4-48 23-157q13-85 23-137t10-73q0-45-27-78-14-15-44.5-31t-79.5-32l-199 360q-40 71-79.5 107.5t-86.5 36.5q-53 0-96-34-42-36-42-80 0-23 13-54t39-72q119-190 156-269 38-78 60-154t22-147q0-157-108-322l-55 46q-28 23-52 40a362.09 362.09 0 0 1 -47 28.5 209.44 209.44 0 0 1 -47 17 227.63 227.63 0 0 1 -51 5.5q-113 0-191-63-78-62-78-160a255.06 255.06 0 0 1 6-54.5q6-27.5 19.5-58.5a706.72 706.72 0 0 1 34-67q20.5-36 49.5-80 53-78 86-172 15-40 27-68.5t23-45.5q11-17 25.5-35.5t34.5-39.5q41-42 56-52-7-3-25-53-9-26-14-44t-5-29q0-40 29-75 30-37 63-37 23 0 43.5 35t47.5 101l17 39q7 8 30.5 17t61.5 23q38 14 70.5 20a334.52 334.52 0 0 0 60.5 6l33-26q54-42 98-64t81-22q72 0 72 63 0 26-16 60a160.39 160.39 0 0 1 -16.5 25.5 155.94 155.94 0 0 1 -17.5 18.5 271.87 271.87 0 0 1 -28 16.5q-18 9.5-46 20.5 11 15 30 24 5 5 21.5 13.5t44.5 22.5q43 22 43 35 0 12-9 16.5a63.31 63.31 0 0 1 -19.5 6 135.08 135.08 0 0 0 -19 4q-8.5 2.5-8.5 10.5 0 18 19 23a340.71 340.71 0 0 0 41.5 8 216.77 216.77 0 0 1 41.5 9.5q19 6.5 19 26.5 0 10-25 22-26 13-26 15 0 15 45 30 23 8 36 11.5t16 3.5a107.7 107.7 0 0 0 14 3.5 71.44 71.44 0 0 1 15 4.5 36.16 36.16 0 0 1 11.5 7.5q4.5 4.5 4.5 12.5 0 17-28 27-29 11-29 19 0 16 94 29 41 6 41 23 0 12-9.5 23t-26 19.5a204.29 204.29 0 0 1 -37.5 14.5 233.2 233.2 0 0 1 -44 8q54 38 132 38a630.12 630.12 0 0 0 93-7 650.33 650.33 0 0 1 96-7q111 0 186 39 36-85 119-85a241.14 241.14 0 0 1 67 9.5 524.26 524.26 0 0 1 66 24q33 14.5 66 31t66 30.5a488.5 488.5 0 0 0 67.5 23 246.06 246.06 0 0 0 69.5 8z"/></svg>