<svg viewBox="0 0 2202 1529.02" xmlns="http://www.w3.org/2000/svg"><path d="m902 912q0 15-12.5 28t-29.5 13l-17-5q-152-61-273-61-71 0-131.5 15t-126.5 36l-11 1a27 27 0 0 1 -21.5-10q-8.5-10-8.5-24 0-21 21-29 80-29 156-42.5a851 851 0 0 1 149-13.5q151 0 283 61 22 10 22 31zm1029-6q0 33-30 33l-11-1q-33-10-64.5-19t-62.5-16q-31-7-63-11.5a488.63 488.63 0 0 0 -68-4.5q-117 0-273 61l-17 5q-17 0-29-13t-12-28q0-20 21-31 132-61 282-61a859.42 859.42 0 0 1 149.5 13.5q76.5 13.5 156.5 42.5 21 8 21 30zm-1006-393q0 16-10.5 30t-27.5 14l-11-2q-91-35-170.5-51.5t-149.5-16.5q-108 0-192 39l-15 3q-15 0-25-10.5a34.38 34.38 0 0 1 -10-24.5q0-16 18-26 106-56 248-56a761 761 0 0 1 161 17.5q81 17.5 165 53.5 19 10 19 30zm401 42-12 2q-16 0-26.5-14t-10.5-30q0-20 19-30 84-36 165-53.5a761 761 0 0 1 161-17.5q143 0 250 56a34.58 34.58 0 0 1 12 12 28 28 0 0 1 4 14q0 13-10.5 24t-26.5 11l-13-3q-87-39-192-39-70 0-149.5 16.5t-170.5 51.5zm-393-241q0 17-12.5 31t-32.5 14l-19-4q-111-55-253-55-125 0-216 44l-17 4q-17 0-29-13t-12-28q0-18 20-27a537.44 537.44 0 0 1 128.5-44 690.46 690.46 0 0 1 140.5-14q153 0 281 59 21 10 21 33zm400 41-19 4q-20 0-32.5-14t-12.5-31q0-36 95-63 99-29 207-29a690.46 690.46 0 0 1 140.5 14 537.44 537.44 0 0 1 128.5 44q20 9 20 28 0 16-11.5 28a37.9 37.9 0 0 1 -28.5 12l-17-4q-93-44-217-44-142 0-253 55zm-421 362q0 36-28 36l-24-7a519.14 519.14 0 0 0 -50-18q-29-9-63.5-17t-73.5-13a629.27 629.27 0 0 0 -80-5 994.22 994.22 0 0 0 -133.5 9 878.58 878.58 0 0 0 -133.5 29l-10 1q-15 0-24.5-10.5a35.37 35.37 0 0 1 -9.5-24.5q0-15 15-23a486.32 486.32 0 0 1 130.5-46q69.5-14 150.5-16a613 613 0 0 1 94 5.5 790.07 790.07 0 0 1 93.5 18 764.31 764.31 0 0 1 80 25q35.5 13.5 52.5 25.5 14 14 14 31zm432 29-25 7q-29 0-29-34a43.13 43.13 0 0 1 3-17 38 38 0 0 1 8-12l3-4q16-12 52-25.5a786.67 786.67 0 0 1 81-25 811.94 811.94 0 0 1 94-18 605.11 605.11 0 0 1 93-5.5q81 2 150.5 16a486.32 486.32 0 0 1 130.5 46q15 8 15 23a34.38 34.38 0 0 1 -10 24.5q-10 10.5-26 10.5l-8-1q-69-20-132-29a856.08 856.08 0 0 0 -121-9q-113 0-197 26l-59 17zm754 405-5-36q-8-67-18.5-133.5t-22.5-132.5q-12-66-23-132.5t-20-133.5l-39-293q-4-29-12-49.5t-18-29.5a202.35 202.35 0 0 0 -22.5-19 213.27 213.27 0 0 0 -31.5-19q-35-17-174-52-135-34-225-34a398.46 398.46 0 0 0 -97 12 406.64 406.64 0 0 0 -93 36 477.17 477.17 0 0 0 -46 28 614.27 614.27 0 0 0 -51 39q-52 43-55 84 9 173 9 482v264l-2 134v29q0 19 11 19 3 0 10-2.5a108.26 108.26 0 0 0 16-7.5q199-106 439-106a1552.14 1552.14 0 0 1 197.5 12.5 980 980 0 0 1 191.5 44.5l64 22 11-6q6-6 6-20zm-1523-53q216 0 387 80a177.52 177.52 0 0 1 19 10q10 6 20.5 12a185.28 185.28 0 0 0 20 10 45.39 45.39 0 0 0 17.5 4q11 0 11-19l-2-274v-167q0-298 9-468-3-39-55-83a514.41 514.41 0 0 0 -50.5-38q-24.5-16-45.5-28a406.59 406.59 0 0 0 -90-37q-47-13-101-13-89 0-225 34-69 17-112 30t-62 22a239.12 239.12 0 0 0 -32 19 276.61 276.61 0 0 0 -24 19q-9 9-16.5 28.5t-11.5 50.5l-20 147-19 146-34 216-37 218q-18 107-18 133 0 27 17 27l64-22a1000.87 1000.87 0 0 1 192.5-44.5 1552.14 1552.14 0 0 1 197.5-12.5zm1627 121-13 106 2 76-2 28 2 11q0 8-5 17a67.56 67.56 0 0 1 -13 16.5 65.25 65.25 0 0 1 -18 12 48.38 48.38 0 0 1 -20 4.5 83.29 83.29 0 0 1 -22-3q-11-3-25-8a1103.56 1103.56 0 0 0 -174-39 1344 1344 0 0 0 -190-13q-274 0-469 69-17 5-38 11.5a439.68 439.68 0 0 1 -47 11.5q-49 10-68 10a231.55 231.55 0 0 1 -29.5-2.5q-18.5-2.5-43.5-7.5a715.86 715.86 0 0 1 -82-23q-96-34-212.5-51.5t-256.5-17.5q-199 0-364 52-14 5-25.5 8a85.43 85.43 0 0 1 -21.5 3 51.14 51.14 0 0 1 -19-4 69.39 69.39 0 0 1 -18.5-11 63.55 63.55 0 0 1 -14-16 35.83 35.83 0 0 1 -5.5-19l3-93v-22l-13-106q2-63 24.5-215.5t62.5-399.5l39-245 10-93q3-33 9-57.5t17-39.5q11-16 31.5-29.5a309.51 309.51 0 0 1 47-25q26.5-11.5 56.5-21.5t59-20q30-10 60-19t59-18q30-9 57.5-15t50.5-10q25-3 56.5-6.5t72.5-4.5q125-1 226 43.5t164 123.5q67-83 163-125t225-42q67 1 144 15.5t165 42.5q178 56 218 87 40 33 49 121l8 85 43 253q41 244 63 397t22 218z"/></svg>