<svg viewBox="0 0 2072.12 1524.03" xmlns="http://www.w3.org/2000/svg"><path d="m1625.09 0q95-1 177 37a445.21 445.21 0 0 1 142.5 104q60.51 66 94.5 154t33 187q-1 77-13.5 145.5a577.9 577.9 0 0 1 -40.5 131.5q-55 122-158 225-100 98-425 291-47 28-89 58.5t-82 64.5q-41 34-62.5 54t-26.5 25q-41 47-58 47-19 0-19-25 0-12 7-31 5-14 12.5-43.5t19.5-76.5q23-97 40.5-155.5t17.5-83.5q0-27-15.5-61t-44.5-77l-46-69q-13-14-13-31 0-20 22-36 60-45 91.5-71.5t38.5-34.5q15-13 15-27 0-20-13-37l-136-177q-12-15-12-31 0-37 153-93 67-25 67-51 0-20-12-49-44-97-44-108t12-16q12-5 19-13 88-64 174.5-94.5t173.5-32.5zm-579 1083-4 221 3 79q2 63-4.5 94t-17.5 31q-12 0-34-22-14-14-43.5-37t-75.5-58q-47-35-89.5-61.5a920 920 0 0 0 -83.5-46.5q-253-127-355-193a811.12 811.12 0 0 1 -184-160q-79-94-119.5-203t-38.5-232q2-103 31.5-186.5t91.5-149.5q123-133 324-133 65 0 132 20t142 55l42 21a200 200 0 0 1 35.5 23q17.5 14 34.5 36 34 42 58 73t21 48q0 23-60 80-8 8-18.5 17.5a258.69 258.69 0 0 0 -22.5 23.5q-25 28-25 41 0 12 30.5 47.5t98.5 87.5l25 19q49 39 49 66 0 12-12.5 32.5t-35.5 49.5l-49 63q-15 18-15 38t18 43.5q18 23.49 51 52.5l59 52q20 17 31 34t10 34z"/></svg>