<svg viewBox="0 0 2202.19 1813.05" xmlns="http://www.w3.org/2000/svg"><path d="m1669.19 1021.05q0 28 5.5 38t18.5 10q11 0 43-17 28-15 39-15 24 0 44 33 21 34 37 34 36 0 36-104v-45q0-113-55-144-15-8-35.5-25t-45.5-43l-20-22q-18-19-28-16-5 0-16 98l-14 136q-9 46.95-9 82zm-86-511q0 37 34 68 34 30 75 30 44 0 100-65t56-83q2-13-13-34.5t-38-41.5a268.17 268.17 0 0 0 -49-34q-26-14-45-12-12 0-21 10l-9 8q-24 28-48 55.5a183.87 183.87 0 0 0 -36 63.5 110.35 110.35 0 0 0 -6 35zm-401-235-4 8 4 9 24 28q12 14 21.5 20t15.5 6q6 0 6-5l-8-52 2-37 6-19-4-3q-11 0-28.5 11.5t-34.5 33.5zm-23 337-7 63q0 35 26 35 15 0 42.5-11t67.5-34q16-9 50.5-24.5t88.5-36.5q86-36 86-46a12.16 12.16 0 0 0 -1-4.5q-1-2.5-6-6t-16.5-10q-11.51-6.51-32.5-17.5a319.89 319.89 0 0 1 -53.5-25 273.8 273.8 0 0 1 -42.5-31q-28-23-66-23a239.53 239.53 0 0 0 -60 8q-31 8-56 16-7 2-26 8.5a368.2 368.2 0 0 0 -39 16 177.28 177.28 0 0 0 -35.5 22q-15.5 12.49-15.5 26.5 0 10 5.5 15t15 8q9.49 3 21 5.5a223.89 223.89 0 0 1 23.5 6.5q31 15 31 39zm324-305q0-24 23-24 15 3 33 24 18 22 35 22 20 0 27.5-15t7.5-27q0-17-10.5-38.5t-30.5-47.5q-20-26-36-42t-30-25q-14-9-27-12a124.37 124.37 0 0 0 -28-3q-56 0-98 44-21 21-31 46a138.67 138.67 0 0 0 -10 52q0 64 71 125 70 60 117 60 21 0 32-14a49 49 0 0 0 11-31l-6-22-13-18q-14-14-21.5-22.5a121.09 121.09 0 0 1 -11-14q-3.5-5.51-4-9a62 62 0 0 1 -.5-8.5zm517 483q55 0 94-44 39-43 39-99 0-58-57-98-54-39-135-39-47 0-47 33 0 8 9.5 15t26.5 17q34 18 34 37 0 22-27 22a82.47 82.47 0 0 1 -25-3.5q-11-3.51-21-7.5t-20-7.5a66.05 66.05 0 0 0 -22-3.5q-11 0-26 10.5t-15 27.5l2 7q18 51 80 92 65 40.95 110 41zm79 54q-28 28-72 28l-33-4q-10 0-10 10 0 8 4 21t11 30q15 34 22 34l8-4 7-9q8-8 18-22.5t23-35.5q8-11 15-21.5t7-26.5zm-421-844q149 0 275 78 126 79 197 215a665.85 665.85 0 0 1 53.5 140.5 606.47 606.47 0 0 1 18.5 150.5 840 840 0 0 1 -7.5 114.5 659.7 659.7 0 0 1 -23.5 106 651.51 651.51 0 0 1 -42 102.5 969.17 969.17 0 0 1 -62 104q-73 106-179 196-54 45-151 113.5t-239 165.5q-53 35-102 74.5t-95 82.5q-45 42-70.5 67.5t-30.5 32.5q-26 34-50.5 52t-47.5 18h-2q-32-3-54.5-24.5a519.12 519.12 0 0 1 -41.5-44.5 514.81 514.81 0 0 0 -51-50 402.68 402.68 0 0 1 -50-51 1665.23 1665.23 0 0 0 -130-106q-68-50-138-97.5t-139.5-95q-69.49-47.5-134.5-100.5a1588.3 1588.3 0 0 1 -124-112.5 877.47 877.47 0 0 1 -107-131.5 888.39 888.39 0 0 1 -59.5-101.5 622.3 622.3 0 0 1 -39.5-100.5 734.43 734.43 0 0 1 -22.5-103.5 890.85 890.85 0 0 1 -8.5-110.5 537.89 537.89 0 0 1 17-149.5 611.81 611.81 0 0 1 54.5-139 600.51 600.51 0 0 1 86-120.5 569.12 569.12 0 0 1 112-94.5 513.06 513.06 0 0 1 132.5-60.5q71-21 148-20a901.41 901.41 0 0 1 144 15.5 696 696 0 0 1 140 42.5q39 16 91.5 48t118.5 83q28 22 57 22 20 0 40-11l109-78q74-52 179-87t229-35z"/></svg>