<svg viewBox="0 0 1748 2124" xmlns="http://www.w3.org/2000/svg"><path d="m884 1310q31 0 52.5 2t35 9.5a44.06 44.06 0 0 1 19.5 21q6 13.5 6 35.5 0 55-16 71-17 15-73 15-94 0-119-13-24-15-24-63 0-51 21-65 23-13 98-13zm-357-303h696q-9-427-99.5-637.5t-250.5-210.5q-75 0-134 43.5t-104 145.5q-23 51-41 112t-32 133q-14 71-22 174t-13 240zm-219 129-155-60q28-32 70-50.5t90-18.5h58l2-80q8-227 44.5-400.5t99.5-290.5q63-117 153-176.5t204-59.5q115 0 201 55t149 171q62 114 100 279 19 83 32 207.5t23 294.5h56q54 0 97.5 20t67.5 54q-136 48-280 89t-290 86a95 95 0 0 0 -41-15q-11-2-43.5-5t-86.5-4q-67-2-106.5 8t-50.5 30q-67-16-232-73-162-54-162-61zm1439 793 1 39v34q0 37-6 60.5t-19.5 37q-13.5 13.5-36 19t-55.5 5.5h-1514q-33 0-55-5.5t-36-19q-14-13.5-20-37t-6-60.5q0-229 123-844l108 42q91 36 156.5 65t107.5 45q83 30 185 54l-2 17v16q0 73 48 110t160 37q48 0 78.5-3.5t46.5-9.5q32-12 48-42t12-89l-3-44q30-8 62.5-18.5t66.5-23.5q88-35 173.5-62t173.5-57l84-29q7 37 18 96.5t23.5 130.5q12.49 71 26 148.5t24 149.5q10.5 72 18 134.5t9.5 103.5z"/></svg>