<svg viewBox="0 0 2262 1872" xmlns="http://www.w3.org/2000/svg"><path d="m574 99a523.88 523.88 0 0 0 -74 5 425.73 425.73 0 0 0 -67 15h307a706.58 706.58 0 0 0 -166-20zm1100 0q-74 0-152 20h309q-63-20-157-20zm-543 1674q11-4 23.5-17t29.5-33l11-14h-128l13 15q19 20 31 33t20 16zm-144-141h289q38-35 133-112h-556q48 36 81 64t53 48zm-67-1436h-630a475.16 475.16 0 0 0 -50.5 50 758 758 0 0 0 -48.5 62h907a492.21 492.21 0 0 1 -89.5-51q-43.5-31-88.5-61zm1052 0h-630l-52 35q-33 23-55 38t-34 23a184 184 0 0 1 -24 11 86.85 86.85 0 0 1 -21 5h915q-46-70-99-112zm-1225 1246h768l165-112h-1096zm-271-189h1310q36-26 69.5-54t63.5-58h-1576q27 26 59.5 54.5a898.73 898.73 0 0 0 73.5 57.5zm-205-188h1720a651.66 651.66 0 0 0 47.5-60.5 602.73 602.73 0 0 0 32.5-52.5h-1880q29 50 80 113zm-121-189h1962q22-48 37-112h-2034q7 28 15.5 55.5t19.5 56.5zm1965-491h-1968q-32 64-38 112h2045a451 451 0 0 0 -17-63 307.39 307.39 0 0 0 -22-49zm-2013 301h2058l2-40v-73h-2062l-2 43zm1580-686q158 0 293 82 135 84 211 226 76 144 76 307a853.24 853.24 0 0 1 -8 119.5 661.27 661.27 0 0 1 -25 109.5 675.42 675.42 0 0 1 -44 105 1102.88 1102.88 0 0 1 -64 107 949.17 949.17 0 0 1 -82.5 105.5 1011 1011 0 0 1 -101.5 97.5q-56 46-154 115.5t-239 163.5q-45 30-87 64t-82 70q-40 36-66 60t-37 38l-22 28q-29 36-59 55t-63 19q-55 0-167-126-84-96-246-205-137-93-232-161.5t-152-116.5q-115-97-189-205-38-55-65-107.5a685.29 685.29 0 0 1 -44-106 675.09 675.09 0 0 1 -25-110 853.24 853.24 0 0 1 -8-119.5 651.17 651.17 0 0 1 18.5-155.5 643.37 643.37 0 0 1 56.5-147.5q76-143 205-227 132-85 290-85a834.78 834.78 0 0 1 127.5 9.5 710.16 710.16 0 0 1 121.5 30 739.7 739.7 0 0 1 119.5 53.5q59.5 33 121.5 81 52 40 71 40 18 0 71-40 111-81 186-114 37-15 72.5-26.5a618.62 618.62 0 0 1 71-18.5q35.5-7 72.5-11a725.59 725.59 0 0 1 78-4z"/></svg>