<svg viewBox="0 0 2086 1488" xmlns="http://www.w3.org/2000/svg"><path d="m1060 529q28 0 43.5 8.5t15.5 19.5q0 28-64 28a135.1 135.1 0 0 1 -42-6.5q-20-6.5-20-21.5 0-28 67-28zm502-12q-29 0-29-66 0-60 29-60 28 0 28 64 0 62-28 62zm-715-126q27 0 27 64 0 62-27 62-29 0-29-66 0-60 29-60zm-465 126q-29 0-29-66 0-60 29-60 27 0 27 64 0 62-27 62zm760-126q28 0 28 66 0 28-8.5 44t-19.5 16q-29 0-29-66 0-60 29-60zm-171 126q-27 0-27-70 0-56 27-56 29 0 29 63 0 43-15 56-7 7-14 7zm383 12q60 0 60 28t-64 28q-63 0-63-28 0-6 6-11.5t16-9a135.08 135.08 0 0 1 21.5-5.5 137.27 137.27 0 0 1 23.5-2zm208 66q28 0 28 64 0 63-28 63-29 0-29-66a123.16 123.16 0 0 1 7-41q7-20 22-20zm-503 142q60 0 60 28t-64 28a135.1 135.1 0 0 1 -42-6.5q-20-6.5-20-21.5 0-28 66-28zm-294-208q28 0 44 8.5t16 19.5q0 28-66 28-61 0-61-28t67-28zm82 66q27 0 27 64 0 63-27 63-29 0-29-66 0-61 29-61zm499-218q-59 0-59-27 0-29 64-29 63 0 63 29 0 27-68 27zm-669 140q-29 0-29-66 0-60 29-60 27 0 27 66 0 60-27 60zm316-167q0-29 64-29 62 0 62 29 0 27-68 27h-13a66.57 66.57 0 0 1 -30-7.5q-15-7.5-15-19.5zm-524 179q60 0 60 28t-65 28q-62 0-62-28 0-6 6-11.5t16-9a135.08 135.08 0 0 1 21.5-5.5 137.27 137.27 0 0 1 23.5-2zm1181 0q60 0 60 28t-66 28q-61 0-61-28 0-13 21.5-20.5a137.13 137.13 0 0 1 45.5-7.5zm-1241 130q0 63-27 63-29 0-29-66 0-61 29-61 11 0 17 14 10 16 10 50zm591 0a139.87 139.87 0 0 1 -6.5 42.5q-6.5 20.5-22.5 20.5-27 0-27-70 0-57 27-57 29 0 29 64zm-598-309q0-29 64-29 63 0 63 29 0 27-69 27-58 0-58-27zm1181 0q0-29 64-29 63 0 63 29 0 27-70 27-57 0-57-27zm-230 387q61 0 61 28t-64 28q-63 0-63-28t66-28zm-211-142q28 0 28 66 0 61-28 61-29 0-29-66 0-61 29-61zm-674 142q61 0 61 28t-65 28q-62 0-62-28t66-28zm236-76q0 61-27 61-29 0-29-66 0-61 29-61 14 0 20.5 21a151.52 151.52 0 0 1 6.5 45zm944 76q62 0 62 28t-66 28q-61 0-61-28t65-28zm-885 0q62 0 62 28t-66 28q-61 0-61-28t65-28zm675-346q27 0 27 66 0 28-8 44t-21 16q-15 0-21.5-22.5a170.44 170.44 0 0 1 -6.5-47.5q0-56 30-56zm-740-41q0-29 64-29 63 0 63 29 0 27-70 27-57 0-57-27zm569 167q-29 0-29-66 0-60 29-60 28 0 28 63 0 26-8 44.5t-20 18.5zm465-126q29 0 29 63 0 28-9 45.5t-20 17.5q-29 0-29-68 0-58 29-58zm-1181 0q29 0 29 63 0 28-9 45.5t-20 17.5q-29 0-29-66 0-60 29-60zm887 204q13 0 20 21a141.32 141.32 0 0 1 7 45q0 61-29 61-15 0-21.5-22.5a170.44 170.44 0 0 1 -6.5-47.5q0-57 30-57zm-143 64q0 25-7.5 44t-20.5 19q-29 0-29-66a131.92 131.92 0 0 1 6.5-41q6.49-20 22.5-20 28 0 28 64zm437-64q29 0 29 64 0 25-7.5 44t-21.5 19q-29 0-29-68 0-59 29-59zm-1181 0q29 0 29 64 0 25-7.5 44t-21.5 19q-29 0-29-66 0-61 29-61zm743 591q0-53-12-71.5t-36-18.5q-29 0-75 27-47 26-47 53 0 19 40 59 38 38 67 38 27 0 43-17 20-26 20-70zm-445 87q35 0 73-37t38-60q0-26-48-53-47-27-74-27-23 0-35 18.5t-12 71.5q0 38 15 62.5t43 24.5zm189 100a332.8 332.8 0 0 0 45-3 209.14 209.14 0 0 0 39.5-9q17.51-6 28-14.5t10.5-19.5q0-25-41-59-42-36-75-36-31 0-81 28-46 27-46 60 0 53 120 53zm-120-332q0 31 44 60 43 29 82 29 31 0 74-34 43-37 43-58 0-22-34.5-35.5t-88.5-13.5q-54 0-87 13t-33 39zm730 239a113 113 0 0 0 45-9 113.87 113.87 0 0 0 61-61 117 117 0 0 0 0-90 113.87 113.87 0 0 0 -61-61 117 117 0 0 0 -90 0 113.87 113.87 0 0 0 -61 61 117 117 0 0 0 0 90 113.87 113.87 0 0 0 61 61 113 113 0 0 0 45 9zm-1212 0a118.73 118.73 0 0 0 45-8.5 108.73 108.73 0 0 0 36.5-24 114.89 114.89 0 0 0 33.5-82.5 118.73 118.73 0 0 0 -8.5-45 108.73 108.73 0 0 0 -24-36.5 114.89 114.89 0 0 0 -82.5-33.5 113 113 0 0 0 -45 9 113.87 113.87 0 0 0 -61 61 117 117 0 0 0 0 90 113.87 113.87 0 0 0 61 61 113 113 0 0 0 45 9zm1426-477v-515a108.46 108.46 0 0 0 -67.5-101.5 112.4 112.4 0 0 0 -43.5-8.5h-1416a112.4 112.4 0 0 0 -43.5 8.5 108.23 108.23 0 0 0 -35.5 23.5 116.81 116.81 0 0 0 -24 35 103.56 103.56 0 0 0 -9 43v515a103.56 103.56 0 0 0 9 43 116.81 116.81 0 0 0 24 35 115 115 0 0 0 35.5 24 107 107 0 0 0 43.5 9h1416a107 107 0 0 0 43.5-9 115 115 0 0 0 35.5-24 109.25 109.25 0 0 0 32-78zm-1684-803h1729q73 0 126 53 53 55 53 126v1130q0 75-53 127-52 52-126 52h-1729q-74 0-126-52t-52-127v-1130q0-73 53-126 55-53 125-53z"/></svg>