<svg viewBox="0 0 2234 1643" xmlns="http://www.w3.org/2000/svg"><path d="m1907 394v10l14 43q6 20 19 29.5a55.29 55.29 0 0 0 30 10.5l115 7q26 1 26-30 0-113-40-185l-49-57-4 23q-4 20-16.5 42.5t-35.5 42.5l-18 15q-41 29-41 49zm-1187 233q0 17 45 26l79 26 75 34q18 8 37 16.5a234.37 234.37 0 0 0 39 13.5l37 8a106 106 0 0 0 14.5 5 64.1 64.1 0 0 0 16.5 2q25 0 44-10.5t19-30.5q2-14-13-29.5t-40.5-31a501.62 501.62 0 0 0 -58.5-30 642.09 642.09 0 0 0 -68.5-25.5 631.92 631.92 0 0 0 -70-17.5q-34.5-6.5-62.5-6.5h-18q-75 10-75 50zm131-122q0 18 19 20l67 10a413.66 413.66 0 0 1 63 14.5q30 9.5 55 20a440.12 440.12 0 0 1 43 20.5q18 10 28 17 68 48 100 48 12 0 25.5-10.5t13.5-35.5q3-23-24.5-51.5t-72-52.5q-44.51-24-99-39.5t-106.5-14.5q-35 1-56.5 6t-34 12.5q-12.5 7.5-17 16.5a41.92 41.92 0 0 0 -4.5 19zm134-122q0 16 15 16h10l34 3 35 6q70 20 123.5 42t91.5 49a95.77 95.77 0 0 0 43 17 74.86 74.86 0 0 0 49.5-18q21.49-18 21.5-42 0-32-44-59t-134-51q-46-11-80.5-18t-60.5-7q-74 0-97 40-7 12-7 22zm104-135q0 16 16 15l35-3q47-4 88.5 1.5a383.32 383.32 0 0 1 77 18 321 321 0 0 1 65.5 31.5 343.21 343.21 0 0 1 54 42l9 11q18 30 30 30a28.65 28.65 0 0 0 13-3q5-2 18-10.5t36-23.5q47-32 38-70 0-73-89-126-90-52-193-52-56 0-101 18a151.89 151.89 0 0 0 -40 24 182.8 182.8 0 0 0 -30.5 32 161.69 161.69 0 0 0 -19.5 34q-7 17-7 31zm1008 788-1-33 4-54q2-18-3-27.5t-12-9.5l-10 5-12 6a973 973 0 0 1 -131 60.5q-68 25.5-134 54.5-144 66-287.5 131t-289 116.5a2442.15 2442.15 0 0 1 -294.5 84 1426.79 1426.79 0 0 1 -305 32.5 1056.48 1056.48 0 0 1 -151.5-10.5 744.18 744.18 0 0 1 -138.5-33.5q-131-44-175-116-14-24-26-24-20 0-20 52 0 76 71 134 73 58 222 86 75 14 145 21.5a1117 1117 0 0 0 136 6.5 1289 1289 0 0 0 240-22.5 2009.57 2009.57 0 0 0 238-60.5l171-55q114-36 195-63t130-47l152-63 141-55a498 498 0 0 0 130-73q7-5 11.5-16t3.5-27zm-1912 67q0 92 126 141 122 47 316 47 43 0 86.5-3t88.5-8q45-5 74-9.5t43-9.5q28-7 39-31 5-12 9-40t2-72l-6-145-4-50q-6-70-38-95-8-8-35-22t-73-36q-47-22-87-32t-75-10q-42 0-79 22-103 61-178 116t-124 103l-29 27q-56 53-56 107zm1935-394v-20l-4-91q-34-19-106-23-42-4-69-7t-41-8q-26-10-42.5-28.5t-16.5-52.5q0-62-24-62a48.62 48.62 0 0 0 -15.5 2.5 99.55 99.55 0 0 0 -16.5 7.5q-43 23-112 23-23 0-41.5-9t-41.5-9a49.79 49.79 0 0 0 -29 9l-30 13-33 10q-15 12-15 33-1 62-60 94l-21 7q-28 3-37 12t-9 29q0 33-37 70-35 34-71 34l-15 1h-11q-11 0-14 14-18 81-103 93-33 5-45.5 13.5t-12.5 26.5l8 34a657.36 657.36 0 0 1 23.5 84.5 329.67 329.67 0 0 1 6.5 82.5l-4 67q-2 20 3.5 30.5t29.5 10.5q31 0 95.5-23.5t165.5-68.5l89-40q61-27 125-50.5t127.5-47.5q63.49-24 126-50.5a1113.74 1113.74 0 0 0 121.5-60.5l52-30 51-33a189 189 0 0 0 26-19 83.49 83.49 0 0 0 16-19 70.77 70.77 0 0 0 8.5-21.5 131 131 0 0 0 2.5-27.5zm114 102v237q0 70-68 133-66 60-226 124-79 32-147.5 56.5t-127.5 44.5l-205 70q-239 81-435.5 124t-356.5 43a1356.35 1356.35 0 0 1 -190-13 1189.83 1189.83 0 0 1 -178-39q-170-51-236-120-64-70-64-184 0-67 22.5-137.5t67.5-138.5q45-68 113-132.5t158-121.5l107-68q68-42 117-75.5t80-60.5q31-28 77-78t114-118l41-41q39-39 67-72.5t39-65.5l15-44q9-27 32.5-51.5t59-42.5q35.51-18 82-29t102.5-11q187 0 322 118l61-19q48-15 77-26.5t45-16.5a259.22 259.22 0 0 1 63-8q107 0 196 77 88 76 132 207 44 134 44 479z"/></svg>