<svg viewBox="0 0 1968 2111" xmlns="http://www.w3.org/2000/svg"><path d="m983 1601a114.82 114.82 0 0 1 -36.5-5.5 121.83 121.83 0 0 1 -28-13q-11.5-7.5-18-16.5t-6.5-17q0-15 18-15l12 4q31 27 59 27 29 0 59-27l12-4q17 0 17 15 0 8-6 17t-17.5 16.5a121.83 121.83 0 0 1 -28 13 114.82 114.82 0 0 1 -36.5 5.5zm0 61a242.14 242.14 0 0 0 40.5-3 270.47 270.47 0 0 0 31-7q13.5-4 23-7a58.46 58.46 0 0 1 17.5-3 23.83 23.83 0 0 1 15 5.5q7 5.51 7 16.5 0 28-36 52t-98 24a204.2 204.2 0 0 1 -52.5-6.5q-24.5-6.49-42.5-17t-28.5-24q-10.5-13.5-10.5-28.5 0-22 21-22a60.93 60.93 0 0 1 17 3q10 3 23 7a241.69 241.69 0 0 0 31 7 258.44 258.44 0 0 0 42 3zm-281-416a84.68 84.68 0 0 1 37.5 8.5 96 96 0 0 1 30 22.5 107.85 107.85 0 0 1 20 33.5 114.59 114.59 0 0 1 7.5 41.5 110.66 110.66 0 0 1 -7.5 41 116.19 116.19 0 0 1 -20 33.5 92.46 92.46 0 0 1 -30 23 87 87 0 0 1 -75 0 98.22 98.22 0 0 1 -30.5-23 110.55 110.55 0 0 1 -28-74.5l1-15q-50-29-50-55 0-15 12-15 2 0 9 5t21 14l20 10q30-50 83-50zm659 89 3 17a110.66 110.66 0 0 1 -7.5 41 105.51 105.51 0 0 1 -21 33.5 102.36 102.36 0 0 1 -31.5 23 87.88 87.88 0 0 1 -38 8.5 84.68 84.68 0 0 1 -37.5-8.5 104.3 104.3 0 0 1 -31-23 105.51 105.51 0 0 1 -21-33.5 110.66 110.66 0 0 1 -7.5-41 114.59 114.59 0 0 1 7.5-41.5 98.58 98.58 0 0 1 21-33.5 108.81 108.81 0 0 1 31-22.5 84.68 84.68 0 0 1 37.5-8.5q53 0 81 48l21-8q7-3 14.5-11t15.5-8q12 0 12 15 0 3-3.5 10a99.18 99.18 0 0 1 -9.5 15 109.92 109.92 0 0 1 -15 16 59.67 59.67 0 0 1 -21 12zm-933-1064q-23 0-23 34 0 16 10.5 39t27.5 57l14 27q38 78 61.5 118t40.5 40a48.62 48.62 0 0 0 15.5-2.5 99.55 99.55 0 0 0 16.5-7.5q33-18 76-33t97-29a1053 1053 0 0 1 110.5-20 902.27 902.27 0 0 1 291.5 11q89 18 178 56 16 7 32 16t31 9q13 0 26-13l89-168q20-37 30.5-62t10.5-41a40.22 40.22 0 0 0 -6-21q-6-10-17-10-27 0-56 27a269.7 269.7 0 0 1 -29 25 250.15 250.15 0 0 1 -33 21 194.86 194.86 0 0 1 -33 14q-16 5-29 5-22 0-36-8.5a66.18 66.18 0 0 1 -22.5-22.5q-8.51-14-13-33.5a308.38 308.38 0 0 1 -6.5-41.5q0-6-3-14.5a83.57 83.57 0 0 0 -8-16.5 57.35 57.35 0 0 0 -11.5-13.5q-6.5-5.5-13.5-5.5-20 0-33.5 12t-28 26a207.79 207.79 0 0 1 -33.5 26q-19 12-49 12-29 0-44-21.5t-23-72.5q-8-53-19-73t-31-20q-24 0-35 23t-16 70q-10 94-68 94-29 0-50-14.5a253.73 253.73 0 0 1 -38-32q-17-17.5-32-32t-31-14.5q-31 0-31 75a152 152 0 0 1 -4.5 37 93.66 93.66 0 0 1 -14 31.5 72.34 72.34 0 0 1 -23.5 21.5q-14 8-32 8-28 0-77-26a401.43 401.43 0 0 1 -31.5-25q-13.5-12-25-21a125.24 125.24 0 0 0 -23-14.5 58.31 58.31 0 0 0 -25.5-5.5zm553 1617q89 0 186-23 93-22 156-62l-2-8q0-84 25-156t79-131l18-20q20-21 30.5-35.5t10.5-25.5l-7-19q-60-112-60-185 0-110-10-137-8-24-28-30-25-7-56-23t-69-41q-75-50-128-119-39 23-74 59-59 59-169 105a635.65 635.65 0 0 1 -106 35q-52 12-100 10l-45-1q-36-1-54 13-15 15-24 84-11 73-20 117.5t-19 61.5q-32 58-32 70 0 18 43 61 58 59 88.5 142.5a496.23 496.23 0 0 1 30.5 171.5 536.76 536.76 0 0 0 77.5 37 670 670 0 0 0 88.5 27q91 22 170 22zm437-92q0 92 56 156 28 32 65 47.5t82 15.5q84 0 134-39t50-109a108.28 108.28 0 0 0 -5.5-34.5 116 116 0 0 0 -14.5-29.5 75.68 75.68 0 0 0 -21.5-21 50 50 0 0 0 -27.5-8q-27 0-37.5 8t-14.5 18q-4 10-8 18t-18 8q-16 0-22.5-11t-6.5-19q0-33 38-59 40-26 82-26a166.11 166.11 0 0 1 34.5 3.5 191.49 191.49 0 0 1 31.5 9.5l16-30q16-21 24.5-36a156.19 156.19 0 0 0 12.5-27 83.84 83.84 0 0 0 4.5-22.5q.49-10.5.5-21.5a257.74 257.74 0 0 0 -8.5-65.5 357.59 357.59 0 0 0 -24.5-65.5l-17-35q-39-63-39-121 0-63 10-114.5t10-95.5a803.66 803.66 0 0 0 -15-154 854.56 854.56 0 0 0 -44.5-151.5 964.76 964.76 0 0 0 -71.5-144 940.81 940.81 0 0 0 -96-131.5l-31 63q-55 108-124 108-20 0-44.5-6.5a479.66 479.66 0 0 1 -54.5-18.5l-107-41q-46-17-103-24t-126-7a816.88 816.88 0 0 0 -160.5 15.5 868.21 868.21 0 0 0 -152.5 45.5l-56 24q-23 12-59 12-80 0-135-105l-32-61q-103 115-167 273-61 155-61 303 0 42 10 97t10 124q0 52-45 124-21 47-32.5 83.5t-11.5 65.5q0 44 17 78 35 46 41 62 32-13 64-13 52 0 86 31 36 30 36 54 0 8-7.5 19t-22.5 11q-11 0-16.5-8t-11.5-18a61.69 61.69 0 0 0 -17-18q-11-8-33-8a52.51 52.51 0 0 0 -28 8 71.06 71.06 0 0 0 -22 21.5 123 123 0 0 0 -14.5 30.5 112.89 112.89 0 0 0 -5.5 35q0 33 13.5 59.5a139.17 139.17 0 0 0 38 46q24.5 19.5 58.5 30t76 10.5q89 0 145-63 58-66 58-157 0-62-20.5-123.5t-59.5-102.5q-42-43-62.5-77.5t-20.5-64.5a100.76 100.76 0 0 1 5.5-33 232 232 0 0 1 14.5-33q24-43 32-76 4-18 8.5-40.5t7.5-51.5q5-40 11.5-69.5t16.5-49.5a166.5 166.5 0 0 1 55-65.5q36-25.5 94-23.5l45 1q77 3 153.5-27t150.5-92q23-19 42-35.5t36-28.5a181.11 181.11 0 0 1 33.5-19 85 85 0 0 1 33.5-7q46 0 75 38a386.76 386.76 0 0 0 78.5 78 626.21 626.21 0 0 0 97.5 59l25 13q64 20 86 67 25 48 25 164 0 67 34 131 17 32 25 57.5t8 42.5q0 30-21 65t-61 77q-39 42-59.5 103.5t-20.5 123.5zm550-210q0 103-52 154-19 19-20 40a81.57 81.57 0 0 0 3 22.5q3 10.5 6 21.5t6 23.5a127.6 127.6 0 0 1 3 29.5q0 98-87 167-83 67-206 67-50 0-94.5-15a292 292 0 0 1 -81-42 282.51 282.51 0 0 1 -63.5-65.5 314.37 314.37 0 0 1 -42-85.5q-69 36-163 58.5t-196 22.5q-192 0-353-82-35 100-110 154.5t-171 54.5q-121 0-209-68-44-34-65-76a198.49 198.49 0 0 1 -21-90 113.79 113.79 0 0 1 9.5-46.5 111.38 111.38 0 0 0 9.5-45.5q0-25-18-43-53-54-53-158 0-116 71-221 18-27 18-54a575 575 0 0 0 -10.5-110 575 575 0 0 1 -10.5-110 902.51 902.51 0 0 1 19-185 933.36 933.36 0 0 1 55-175.5 943.72 943.72 0 0 1 88-161 974.1 974.1 0 0 1 117-141.5q-39-72-39-124 0-28 9.5-51.5a118.59 118.59 0 0 1 26-40 124.3 124.3 0 0 1 38-26 113.79 113.79 0 0 1 46.5-9.5q36 0 60 11t41 25q17 14 30.5 27t29.5 17q5-75 37-118.5t89-43.5a114.82 114.82 0 0 1 36.5 5.5 133.5 133.5 0 0 1 31 15 195.39 195.39 0 0 1 28.5 23q14 13.5 30 29.5 11-84 47.5-125t90.5-41h10q54 0 90.5 40.5t47.5 127.5q57-57 119-57 103 0 130 128l19 10q72-74 145-74a117.18 117.18 0 0 1 83.5 34.5 118.59 118.59 0 0 1 26 40q9.5 23.5 9.5 51.5 0 53-34 118a1048.46 1048.46 0 0 1 116 150 1022.56 1022.56 0 0 1 86 166.5 1007.26 1007.26 0 0 1 53.5 177.5 916.63 916.63 0 0 1 18.5 183 549.26 549.26 0 0 1 -10.5 107 544.24 544.24 0 0 0 -10.5 106q0 27 18 54 72 108 72 223z"/></svg>