<svg viewBox="0 0 1762 1777.1" xmlns="http://www.w3.org/2000/svg"><path d="m1283 1226a83.19 83.19 0 0 0 41.5-11 120.5 120.5 0 0 0 34.5-29.5 139.76 139.76 0 0 0 23.5-43.5 166.64 166.64 0 0 0 8.5-54 171.18 171.18 0 0 0 -8.5-54.5q-8.51-25.5-23-44a112.31 112.31 0 0 0 -34.5-29.5 86 86 0 0 0 -42-11 85.08 85.08 0 0 0 -42.5 11 120.5 120.5 0 0 0 -34.5 29.5q-15 18.5-23.5 44a171.18 171.18 0 0 0 -8.5 54.5 164.94 164.94 0 0 0 8 51.5 152.29 152.29 0 0 0 22.5 44 113 113 0 0 0 34.5 31 86.67 86.67 0 0 0 44 11.5zm-817 0a84.81 84.81 0 0 0 43-11.5 121.69 121.69 0 0 0 35-30.5 146.41 146.41 0 0 0 23.5-44 160.36 160.36 0 0 0 8.5-52 171.18 171.18 0 0 0 -8.5-54.5q-8.5-25.5-23.5-44a118.11 118.11 0 0 0 -35-29.5 87.86 87.86 0 0 0 -43-11 85.08 85.08 0 0 0 -42.5 11 114.44 114.44 0 0 0 -34 29.5q-14.5 18.5-23 44a171.18 171.18 0 0 0 -8.5 54.5 166.64 166.64 0 0 0 8.5 54 139.76 139.76 0 0 0 23.5 43.5 120.5 120.5 0 0 0 34.5 29.5 83.19 83.19 0 0 0 41.5 11zm656 172q0-18-15-18l-15 7q-53 32-95 32-34 0-60.5-17t-26.5-53v-12a116.3 116.3 0 0 0 42-26q19-18 19-42 0-32-20-46.5t-70-14.5q-50 0-69.5 14.5t-19.5 46.5q0 36 53 65v15q0 36-27 53t-60 17q-42 0-95-32l-16-7q-14 0-14 18 0 26 40 48 40 21 71 23l11 22q23 79 38 104 31 52 88 52a96.74 96.74 0 0 0 38.5-7.5q17.5-7.5 32.5-25.5t27.5-47.5q12.5-29.5 23.5-74.5l5-21q27-4 48.5-13t36-20.5q14.51-11.51 22-22t7.5-17.5zm521-676q119 188 119 408 0 170-65 291.5t-200 205.5q-136 83-301 116-84 17-164 25t-158 9a1267 1267 0 0 1 -162.5-8.5 1513.53 1513.53 0 0 1 -167.5-29.5q-166-39-295-122-128-84-188.5-205t-60.5-282q0-220 120-408-9-85-13-160.5t-4-142.5q0-206 37-312.5t106-106.5q32 0 75.5 20.5t95.5 60q52 39.5 111.5 96.5t124.5 129l53 61a837.75 837.75 0 0 1 87.5-11q42.5-3 87.5-3t87.5 3a837.75 837.75 0 0 1 87.5 11q147-167 214-225 34-30 68-56a726.59 726.59 0 0 1 65.5-45q31.5-19 59.5-30t51-11q70 0 107.5 106.5t37.5 314.5q0 75-4 150t-12 151z"/></svg>