<svg viewBox="0 0 2036 2109" xmlns="http://www.w3.org/2000/svg"><path d="m269 1117q71 0 99-6.5t28-27.5v-32l8-290 18-312q2-24-13-30-17-9-103-26-8 40-14.5 129t-11.5 231q-5 140-8 231t-3 133zm989-850q0 50 23.5 80t61.5 30l15-2 260-42q53-9 75.5-42a126.76 126.76 0 0 0 22.5-73q0-26-11-46.5a107.64 107.64 0 0 0 -30-35 136.26 136.26 0 0 0 -44-22 183.51 183.51 0 0 0 -53-7.5q-29 0-152 32-121 30-145 57-23 28-23 71zm594 255v-11q-5-47-43.5-74.5t-89.5-27.5q-15 0-52.5 5.5t-96.5 16.5q-117 23-168 36-51 14-73 43.5t-22 67.5q0 45 24.5 73.5t66.5 28.5h8l330-26q52-4 84-38t32-94zm48 695q0-42-29-69.5t-82-34.5q-99-13-173.5-19t-126.5-6q-71 0-105 32.5t-34 81.5a84.76 84.76 0 0 0 7.5 35.5 110.76 110.76 0 0 0 19.5 29.5 117.43 117.43 0 0 0 27.5 22 98.81 98.81 0 0 0 31.5 12q261 57 328 57 75 0 106-43 30-43 30-98zm19-351q0-52-33.5-80.5t-84.5-28.5q-49 0-107 2.5t-125 7.5q-67 5-108.5 9.5t-58.5 11.5q-34 14-50 45.5t-16 61.5a86 86 0 0 0 9 39 115.49 115.49 0 0 0 54 53 79.3 79.3 0 0 0 34 8l348 11q35 1 61-10t43-30.5a130.59 130.59 0 0 0 25.5-45 171.18 171.18 0 0 0 8.5-54.5zm-1413 85 1 48 14-1h12q40 0 71 7t55.5 22a181 181 0 0 1 44.5 39q20 24 40 58a867.64 867.64 0 0 0 94.5 135.5q52.5 61.5 100.5 117a1208.21 1208.21 0 0 1 84.5 109q36.5 53.5 47.5 111.5l27 146q11 58 23 97.5t28 64q16 24.49 38 35.5t53 11q78 0 117-47t39-150q0-108-23-194-23-85-74.5-183.5t-145.5-222.5q-5-51-12.5-94.5a513.15 513.15 0 0 0 -20.5-81 420 420 0 0 0 -32.5-71.5 413.78 413.78 0 0 0 -48.5-67q-30-34-30-53 0-29 26-29 22 0 52 15a492.22 492.22 0 0 1 56.5 33q26.51 18 45 33l18.5 15q6 0 17-35 12-42 29-55-7 0-37-58-16-29-23-50.5t-7-36.5a206 206 0 0 1 4-39.5 281.46 281.46 0 0 1 13-44.5q20-48 33-61-26-10-53-49-28-40-28-70a135.24 135.24 0 0 1 3-26q3-15 8-37 5-21 8-34t3-21q0-33-52-33-59 0-145 52-82 50-151 137-106 106-196 119l-4 1-99 9q-3 23-6.5 72.5t-8.5 126.5q-5 78-8 135t-1 95zm-416 383h-64l-26-1 2-1149q47 0 95.5 1.5t100.5 5.5q101 6 123 26 6 6 12 65 73 11 134 24 59 11 72 28 10 17 10 34l-4 28q57-3 112.5-27.5t93.5-67.5q112-124 212-176 99-52 192-70l117-22q84-16 146-24.5t105-8.5q68 0 124 15.5t95.5 45q39.5 29.5 61.5 71.5t22 96l-7 61q0 22 23 33 55 25 88 76t33 118q0 41-26 122l-6 23q0 14 16.5 31t36 41q19.5 24 36 57t16.5 79q0 91-62 162-9 8-9 19 0 14 13 27 40 48 42 137 1 56-20.5 102.5t-56 80a255.42 255.42 0 0 1 -77.5 52q-43 18.49-84 18.5a1231.05 1231.05 0 0 1 -132-7q-65-7-131-20l-27-6q-7 0-7 7l8 34q16 65 27.5 130a767.49 767.49 0 0 1 11.5 134q0 211-70 290-69 80-197 80-88 0-149-43-59-41-95-116-17-38-33.5-99.5t-30.5-149.5q-8-55-90-179-42-63-79.5-114.5t-72.5-91.5q-41-46-85-127-20-37-36.5-51t-41.5-12l-39 3 1 6q-1 50-33 67-15 8-46 12t-77 3l-78-2q0 54-16 81a71.33 71.33 0 0 1 -20 20q-12 8-30 11-17 3-47.5 5t-76.5 2z"/></svg>