<svg viewBox="0 0 2184 1741" xmlns="http://www.w3.org/2000/svg"><path d="m1420 1312q29 0 50 24t21 58q0 34-21 58t-50 24q-29 0-49-24t-20-58q0-34 20-58t49-24zm346 34q0 34-20.5 58t-49.5 24q-30 0-50.5-24t-20.5-58q0-33 21-57t50-24a56.21 56.21 0 0 1 27 7 75.08 75.08 0 0 1 22.5 18.5 91.52 91.52 0 0 1 15 26 82.51 82.51 0 0 1 5.5 29.5zm-1003-34q29 0 49.5 24t20.5 58q0 34-20.5 58t-49.5 24q-29 0-49.5-24t-20.5-58q0-34 20.5-58t49.5-24zm-205 34q0 34-20 58t-50 24q-29 0-49.5-24t-20.5-58q0-33 20.5-57t49.5-24q29 0 49.5 23.5t20.5 57.5zm680-41q0 65-41 117-41 51-103 51a124.45 124.45 0 0 1 -55.5-13 144.58 144.58 0 0 1 -46-35.5q-19.5-22.5-31-53.5a188.18 188.18 0 0 1 -11.5-66q0-66 41-118 44-52 103-52 51 0 97 48 47 49 47 122zm691 91 1-101q-32-20-52.5-57t-20.5-85q0-50 22.5-89t58.5-56l7-264-430 404q-20 15-41 15-31 0-48-26l-331-496-333 496q-18 27-51 27a51.14 51.14 0 0 1 -19-4 65 65 0 0 1 -19-12l-430-404 7 267q34 17 55.5 55.5t21.5 86.5q0 47-19.5 83.5t-49.5 56.5l3 101q1 52 116 108 58 28 133.5 50t169.5 39q187 33 414 33 222 0 410-33 191-33 307-88 117-55 118-107zm138-790-22 792q-4 152-275 249-267 94-676 94-137 0-260-11t-235-35q-223-48-338-124t-118-175l-22-793q0-22 17-39.5t42-17.5q25 0 41 16l263 246 93-290q5-15 19-28t32-13q40 0 57 30l160 294 201-298q17-26 49-26 33 0 50 26l195 294 159-290q16-30 51-30 43 0 57 41l93 294 267-250q16-16 40-16 26 0 43.5 18t16.5 42zm-26-255q32 0 53-21t21-51q0-32-21-53t-53-21q-30 0-51.5 21t-21.5 53q0 30 21.5 51t51.5 21zm0-216q58 0 101 43 42 41 42 101 0 58-41 100t-102 42a139.76 139.76 0 0 1 -55-11 141.79 141.79 0 0 1 -45.5-30.5 148.93 148.93 0 0 1 -31-45.5 134.41 134.41 0 0 1 -11.5-55 137.75 137.75 0 0 1 12-57.5 149.93 149.93 0 0 1 32-46 143.35 143.35 0 0 1 99-40.5zm-461 264a117.33 117.33 0 0 1 -47-9.5 127 127 0 0 1 -38.5-25.5 118.29 118.29 0 0 1 -26-37.5 113.79 113.79 0 0 1 -9.5-46.5 123.47 123.47 0 0 1 9.5-48.5 125.39 125.39 0 0 1 25.5-39 110.59 110.59 0 0 1 38-25.5 120.35 120.35 0 0 1 46-9 117.33 117.33 0 0 1 47 9.5 122.09 122.09 0 0 1 64.5 64.5 117.33 117.33 0 0 1 9.5 47 113.79 113.79 0 0 1 -9.5 46.5 128.89 128.89 0 0 1 -25.5 38 116.74 116.74 0 0 1 -38 26 114.91 114.91 0 0 1 -46 9.5zm-976 0a114.91 114.91 0 0 1 -46-9.5 127 127 0 0 1 -38.5-25.5 120 120 0 0 1 -26-132 122.09 122.09 0 0 1 64.5-64.5 114.91 114.91 0 0 1 46-9.5 117.33 117.33 0 0 1 47 9.5 122.09 122.09 0 0 1 64.5 64.5 117.33 117.33 0 0 1 9.5 47 113.79 113.79 0 0 1 -9.5 46.5 124.3 124.3 0 0 1 -26 38 122.54 122.54 0 0 1 -38.5 26 117.33 117.33 0 0 1 -47 9.5zm-535-120q0 30 21.5 51t51.5 21q32 0 53-21t21-51q0-32-21-53t-53-21q-30 0-51.5 21t-21.5 53zm217 0q0 56-41 100-42 42-103 42a139.76 139.76 0 0 1 -55-11 141.44 141.44 0 0 1 -76-76 139.76 139.76 0 0 1 -11-55 137.75 137.75 0 0 1 12-57.5 154.42 154.42 0 0 1 31.5-46 135.31 135.31 0 0 1 45.5-30 140.38 140.38 0 0 1 53-10.5q58 0 101 43 43 40 43 101zm805-200q-40 0-67.5 28.5t-27.5 68.5q0 41 27.5 69t67.5 28q42 0 69.5-28t27.5-69a94.21 94.21 0 0 0 -7.5-37.5 102.4 102.4 0 0 0 -20.5-31 92.43 92.43 0 0 0 -30.5-21 96.74 96.74 0 0 0 -38.5-7.5zm0 272q-74 0-124-50-51-51-51-125 0-73 51-124 52-52 124-52 73 0 125 52t52 124q0 73-52 125-50 50-125 50z"/></svg>