<svg viewBox="0 0 2256.11 2210" xmlns="http://www.w3.org/2000/svg"><path d="m2207.11 1753h17q32 78 32 107 0 24-17.5 40.5t-70.5 33.5q-72 24-121 67-93 81-215 89l-47 3q-62 4-106.5 19t-61.5 26q-88 43-134 57-45 15-96 15-29 0-80-9t-125-15l-51-4-49 4q-75 6-127.5 15t-85.5 9a310.88 310.88 0 0 1 -97-15q-24-7-56.5-21.5t-76.5-35.5a515.48 515.48 0 0 0 -73.5-30q-37.5-12-93.5-15l-48-3-46-7q-51-8-91-29a432.62 432.62 0 0 1 -72-47q-63-53-122-72-30-9-48.5-16t-26.5-15q-17-15-18-41-1-14 7.5-40.5t24.5-69.5q51 2 87 9.5t58 18.5a279.54 279.54 0 0 1 40 25.5 201.78 201.78 0 0 1 35 34.5 336.62 336.62 0 0 0 44 45.5 211.91 211.91 0 0 0 51 32q28 12.49 62 18t77 2.5l70-4a127.4 127.4 0 0 1 66 16q31 17 76 57 82 74 195 74 64 0 126-25 64-24 108-24a270.67 270.67 0 0 1 52 5.5q28 5.51 61 18.5a437.73 437.73 0 0 0 62.5 18.5 289.81 289.81 0 0 0 60.5 6.5 375.41 375.41 0 0 0 52-3.5 221.75 221.75 0 0 0 49.5-13 300.38 300.38 0 0 0 49.5-25q25-15.49 51-39.5a305 305 0 0 1 69-48 205.76 205.76 0 0 1 35.5-14q17.49-5 31.5-4l69 4a394.23 394.23 0 0 0 66.5-1.5 230.32 230.32 0 0 0 57.5-14 224.1 224.1 0 0 0 51-28q24-17.51 47-44.5 38-45 93.5-71.5t121.5-26.5zm-1766-1602q0-27 21-42.5t51-25.5a590.85 590.85 0 0 1 62.5-17q32.49-7 55.5-18 35-18 70.5-33t76.5-15a78.73 78.73 0 0 1 17 2q9 2 22 4 26 7 26 18l-4 14-4 22q1 28 20 53.5t55 44q36 18.5 90.5 29.5t128.5 10q143-2 217.5-41t74.5-98q0-16-4-23.5t-4-11.5q0-11 25-17 27-6 40-6 42 0 77 15.5t70 32.5q24 11 56.5 18.5a608.24 608.24 0 0 1 61.5 17.5q29 10 50 25t22 42q2 46-16 95a364.85 364.85 0 0 1 -47.5 89.5q-29.5 40.5-65.5 66t-70 24.5l-22 3q-6 20-14.5 48.5t-18.5 67.5q-19 76-19 110 0 61 8 104-32 23-76.5 43t-102.5 34q-113 27-245 27a1118.84 1118.84 0 0 1 -121.5-6.5 903 903 0 0 1 -113.5-19.5 676.54 676.54 0 0 1 -101-32.5q-47-19.5-84-44.5a430.86 430.86 0 0 0 6-47.5q2-26.5 2-57.5 0-21-7-54.5t-16-68q-9-34.5-17.5-63.5t-11.5-40q-52 0-106-39-57-42-86-107.5t-29-131.5zm-363 1493q38-81 75-145t73-112q36-50 87-102.5t117-109.5l100-88q45-39 80-91.5t62-118.5q116 67 305 94-103 161-272 191l-2 29q-3 71 34 93l28 17a370.93 370.93 0 0 1 43 29q19 15 31 31 27 38 105 50 4-4 26.5-25.5t51-63q28.5-41.51 58-104t49.5-149.5q50 210 183 342 79-12 107-50 11-16 29-31a283 283 0 0 1 43-29q23-13 36-26.5t19-27a82.47 82.47 0 0 0 7-28 205.34 205.34 0 0 0 0-28.5l-2-29q-176-30-272-192 184-22 305-95 27 67 63 119a521.68 521.68 0 0 0 82 93q99 87 160.5 146.5t90.5 91.5q56 66 106 146.5a1534.69 1534.69 0 0 1 92 172.5q-77 6-149 41-69 34-95 67-36 48-68 63-15 8-39.5 12.5t-57.5 2.5l-68-4q-50-3-102 20.5t-119 82.5q-50 42-115 42-20 0-47-6.5t-62-18.5q-71-23-129-23t-127 23q-70 25-111 25-63 0-112-42-31-26-54-42.5t-39-24.5a334.13 334.13 0 0 0 -64-28 176.17 176.17 0 0 0 -64-8l-69 4q-34 2-57.5-2t-40-12.5a127.36 127.36 0 0 1 -27.5-18.5 281.44 281.44 0 0 1 -20-20q-31-35-61-58.5t-59-37.5a365.92 365.92 0 0 0 -64.5-23.5q-35.51-9.5-79.5-13.5z"/></svg>