<svg viewBox="0 0 2292.11 1685.03" xmlns="http://www.w3.org/2000/svg"><path d="m1802.11 757q116 0 201-82 86-82 86-189 0-113-86-190t-197-78q-61-1-108.5 23.5t-79.5 64.5q-32 40-49 91a323.63 323.63 0 0 0 -17 103l4 34q6 9 25.5 37.5t52.5 74.5q33 47 53 70.5t27 25.5a273.17 273.17 0 0 0 42.5 11 259.07 259.07 0 0 0 45.5 4zm-301 398q36 0 59.5-29t23.5-74q0-42-23.5-71.5t-59.5-29.5q-36 0-60.5 29.5t-24.5 71.5q0 45 24.5 74t60.5 29zm-133 170q0-21-19-21-9 0-19 7-34 25-75 25-56 0-69-51 26-14 42.5-41.5t16.5-63.5q0-49-27-81.5t-67-32.5q-41 0-68 32.5t-27 81.5q0 68 55 102 0 32-12 43.5t-37 11.5a81.9 81.9 0 0 1 -27-4.5q-13-4.5-25-10t-22-10q-10-4.5-18-4.5-19 0-19 21 0 12 9 23a101.57 101.57 0 0 0 22.5 20 122.79 122.79 0 0 0 30.5 14.5 177.08 177.08 0 0 0 34 7.5q3 67 25.5 105.5t56.5 38.5q12 0 19-8t12-8q8 0 15.5 8t23.5 8a38.46 38.46 0 0 0 19.5-5.5q9.5-5.51 17.5-21.5t15-44.5q7-28.5 13-73.5 33 0 67-22 36.99-22 37-46zm-567-170q36 0 60-29t24-74q0-42-24-71.5t-60-29.5q-36 0-60 29.5t-24 71.5q0 45 24 74t60 29zm-55-621 4-34a321.49 321.49 0 0 0 -17.5-105q-17.5-51-50.5-90.5a247 247 0 0 0 -80-63q-47-23.5-106-23.5-114 0-199 78-85 79-85 186 0 114 89 194 88 81 197 81a262.48 262.48 0 0 0 47-4 277.28 277.28 0 0 0 42-11q13-4 77-92 32-45 52.5-73.5t29.5-42.5zm1101-534q187 0 316 124 129 122 129 309 0 126-63 243-64 115-171 175-105 59-215 59h-18q-9 0-9 4l7 26q14 56 25 104.5a426.77 426.77 0 0 1 11 94.5q0 146-86 276-83 128-254 200-167 70-374 70a1040.33 1040.33 0 0 1 -140-9.5 985.16 985.16 0 0 1 -135.5-28 922.86 922.86 0 0 1 -125-45q-59.5-26.51-108.5-61.5-97-68-151-179-28-56-41-111a476.58 476.58 0 0 1 -13-110q0-44 11.5-93.5t27.5-107.5l6-26q0-4-9-4h-18q-110 0-216-59-105-58-170-175-32-59-46.5-119a606.73 606.73 0 0 1 -16.5-124q-2-93 34-172.5t97.5-137.5q61.5-58 143-91a436.64 436.64 0 0 1 170.5-32q75 2 141.5 20.5a440.6 440.6 0 0 1 125.5 57.5q117 78 163 202l9 38q11 46 18 68t19 22l29-5a523.42 523.42 0 0 1 90-21q48-7 105-7 60 0 110.5 8.5t93.5 19.5l22 5q8 0 12.5-4a22.79 22.79 0 0 0 6.5-10 74 74 0 0 0 3-13.5 99.87 99.87 0 0 1 3-14.5q22-160 152-263t299-103z"/></svg>