<svg viewBox="0 0 2284.01 1931" xmlns="http://www.w3.org/2000/svg"><path d="m1491 312q-20 0-34-15.5t-14-37.5q0-24 14-39.5t34-15.5q20 0 34 15.5t14 39.5q0 22-14 37.5t-34 15.5zm-1049 117q-21 0-36-17t-15-41a58.51 58.51 0 0 1 15-40q15-17 36-17t36.5 17a57.45 57.45 0 0 1 15.5 40q0 24-15.5 41t-36.5 17zm1376 1037 120-18q-36-55-79-143l-121 18q18 36 38 72t42 71zm-107-199 120-18q-17-41-30.5-77t-22.5-68l-124 17q12 41 26 77.5a616.38 616.38 0 0 0 31 68.5zm-78-202 127-18-38-146-130 15q9 39 19.5 76t21.5 73zm44 266-134 20q23 44 43 79.5t39 63.5l129-19-44-81zm-196 28-132 19q24 48 44.5 83.5t37.5 61.5l130-19q-11-16-30.5-52t-49.5-93zm205-665-138 15 29 149 134-16zm-448 858 130-19q-11-18-31.5-54.5t-49.5-92.5l-134 19zm-194 28 129-19q-26-39-46-75.5t-36-71.5l-132 19 39 72zm471-285 135-20-57-146-136 18zm-26-579-138 16 29 151 140-17q-2-6-9.5-43.5t-21.5-106.5zm-593 725-133 19q40 82 88 149l130-19q-5-4-17-21t-29-49q-33-62-39-79zm502-286-137 18q20 53 34.5 89.5t25.5 59.5l134-19a1423.76 1423.76 0 0 1 -57-148zm39-64 137-19q-15-53-25.5-89.5t-15.5-58.5l-138 16q5 25 16 62.5t26 88.5zm-735 377-135 19q24 47 46.5 84t44.5 67l128-19q-23-36-43.5-73t-40.5-78zm590-729-139 17q12 63 20 100.5t11 50.5l139-17zm-166 610 134-19-59-149-137 18q16 42 31 79.5t31 70.5zm210-402-138 18 43 152 138-19q-14-46-24.5-83.5t-18.5-67.5zm-406 430 134-20-60-150-136 18q20 53 35.5 90.5t26.5 61.5zm-122-144-137 18 63 153 136-19q-14-27-29.5-64.5t-32.5-87.5zm237-92 137-17-43-152-138 17q8 41 19 78.5t25 73.5zm-103-145-138 18q5 25 16 63t28 90l137-18q-18-57-28-94.5t-15-58.5zm-45-212-138 17 30 156 138-18-13-71zm198-23-139 16 12 69 19 86 139-18q-10-37-17-75t-14-78zm-351 260-137 18q9 39 20 77.5t25 76.5l137-18q-9-26-20-64.5t-25-89.5zm-131 238-137 18q20 54 36.5 92.5t27.5 61.5l134-19q-15-32-30.5-70t-30.5-83zm87-452-139 16 31 157 138-17q-27-132-30-156zm-152 239-138 16q18 75 45 157l137-18zm-45-217-139 17 31 158 138-16zm159-229q-28 0-42-17.5a61.59 61.59 0 0 1 -14-39.5q0-20 14-37.5t42-19.5q136-6 313.5-25.5t400.5-53.5h11a69.22 69.22 0 0 1 42 14q19 14 19 43 0 39-46 49-23 6-56 12t-77 13q-42 7-77.5 9.5t-64.5 2.5l-74 7q-50 5-98.5 12l-97 14-97 12q-96.99 12-98.5 5zm1357 871q0 24-25 27l-1350 201q-12 0-23-11a1688.37 1688.37 0 0 1 -109-181.5 1820.58 1820.58 0 0 1 -88.5-200q-39.5-105.49-70-225t-52.5-256.5q0-31 26-34l1376-160q37 0 37 26 72 527 273 795 6 5 6 19zm-1491 362 1658-247q-59-79-108.5-173t-91.5-206q-84-223-127-508-22-143-35-279a2145.25 2145.25 0 0 1 -9-269l1-52-1718 160q0 454 110 859 107 400 320 715zm1756-247q0 40-24.5 66t-58.5 31l-1658 248q-39 0-58-9-9-4-22.5-19t-33.5-41q-160 28-240.5 41.5t-84.5 13.5q-41 0-70-28t-29-71l-5-1543q-1-95 90-115l1726-160a90.12 90.12 0 0 1 39 8.5 100.36 100.36 0 0 1 31 22.5 109 109 0 0 1 20.5 31.5 89.38 89.38 0 0 1 7.5 35.5v45q0 131 10 264.5t31 270.5q42 273 121 487t189 362q19 25 19 59z"/></svg>