<svg viewBox="0 0 2084 1458" xmlns="http://www.w3.org/2000/svg"><path d="m979 128 26-5q-28-16-52-16zm85 750-88 18q61 37 111 37l40-6zm-763-607-66-51q-45 26-45 47 0 10 13 26zm1045 547 59 48 114-28-56-45zm398-84 59 47 30-3h39q10 0 10-7 0-13-44-57zm-590-469 63-12q-48-34-78-54.5t-42-26.5l-50 10zm390 512 55 42 117-24-53-44zm-646-632-49-38-131 13 63 49zm248 715 63 51q9-1 38.5-8t77.5-18l-61-49zm182-455 77-17-114-83-68 15zm-629-218-67-53-124 20 73 58zm803 355 86-18-111-82-81 16zm-1003-312-74-61-118 26 74 59zm1071 366 107 84 93-19-110-84zm-668 248 93-21-105-83-97 20zm-186-242-102 22 108 83 100-22zm-347-277-103 22 104 85 104-22zm174 139-104 21 106 84 103-22zm280-59 107 83 117-24-106-84zm598 154-107-83-117 25 105 83zm-449 163 106 85 117-26-105-83zm-18-413 118-26-105-83-118 24zm174 137 118-25-105-85-118 26zm162 209-118 25 105 85 118-25zm80-16 107 83 118-24-107-85zm-522-133-107-85-118 26 107 84zm149 37 107 83 117-24-105-85zm-323-175-107-85-117 26 105 83zm242 191-119 25 107 85 117-26zm-42-234-107-84-118 26 106 83zm1098 654q0-38-30-64t-79-26q-36 0-109 15.5t-185 44.5l-110 29-212 49-113 25q8 36 12 68.5a489.59 489.59 0 0 1 4 59.5q0 49-8 89t-23 73q15-2 85.5-20t197.5-53q127-34 216.5-59.5t144.5-42.5q54-17 89-31t50-25q30-22 50-58t20-74zm-968 356q9-28 22-64t13-70a568.88 568.88 0 0 0 -5-78 474.2 474.2 0 0 0 -14-67q-17-6-124.5-82.5t-306.5-225.5q-198-149-308-233t-135-106q-4 71-44 200l-4 20q0 44 74 104 20 20 103.5 84.5t232.5 174.5q151 110 246 179t138 98q84 60 112 66zm1080-341q0 46-13.5 81.5a206.47 206.47 0 0 1 -37.5 63 250.48 250.48 0 0 1 -57 48 485 485 0 0 1 -72 36.5q-76 31-202 68.5t-304 87.5l-143 39q-60 17-106.5 28.5t-80.5 11.5a298.92 298.92 0 0 1 -66-7 346.44 346.44 0 0 1 -62-20.5 423.06 423.06 0 0 1 -63-34.5q-32-21-68-49l-120-93q-308-238-464-360.5t-161-128.5q-64-73-64-133a162.65 162.65 0 0 1 1.5-22 78.89 78.89 0 0 1 6.5-22q4-9 13-41.5t22-88.5q14-56 21-89.5t7-45.5a60.93 60.93 0 0 0 -3-17q-3-10-6.5-21.5t-6.5-23.5a94.83 94.83 0 0 1 -3-23q0-93 131-136 133-42 377-72 247-30 316-30 123 0 207 45 42 22 119.5 73.5t192.5 135.5q115 84 199.5 148.5t142.5 110.5q59 47 116 95t114 100q53 50 83 110 14 29 25 89 5 29 7 50.5t2 36.5z"/></svg>