<svg viewBox="0 0 1970.53 2006" xmlns="http://www.w3.org/2000/svg"><path d="m1819 1753 54-1084q2-36-4-64.5a374.75 374.75 0 0 0 -14-50.5q-18-43-65-78-23-17-89.5-53t-176.5-92a56 56 0 0 0 -18.5-6.5 112.82 112.82 0 0 0 -17.5-1.5q-51 0-94 70-15 22-33 22-19 0-38-17l-36-24-369-236q-65-41-96-41-32 0-48.5 28.5t-22.5 103.5q-11 121-14.5 243.5t-11.5 243.5q98 67 175.5 117t136.5 87q106 66 180 116.5t119 85.5q87 70 133 138 28 42 67 97.5t90 127.5q51 71 99 137.5t94 130.5zm-1123-558 1116 712-102-139q-133-181-214-293.5t-110-160.5a384.43 384.43 0 0 0 -38-49.5 667.88 667.88 0 0 0 -51-50.5q-57-51-236-163-145-91-355.5-230.5t-490.5-330.5q-78-53-104-53-13 0-13 12l3 16q6 18 202 269 98 125 168.5 210t115.5 133q44 48 70.5 76t35.5 37zm1274-513-9 195-52 1036a93.85 93.85 0 0 1 -8.5 33.5 106.6 106.6 0 0 1 -20.5 30 99.05 99.05 0 0 1 -30.5 21.5 89.19 89.19 0 0 1 -37.5 8 105.46 105.46 0 0 1 -26.5-3.5 97 97 0 0 1 -26.5-11.5l-1115-714-23-20-163-177-105-128-141-176q-74-93-117-150t-58-79q-16-21-23-37t-9-27l-5-35a105.78 105.78 0 0 1 8-40.5 109.9 109.9 0 0 1 23-35 117.72 117.72 0 0 1 35.5-25 104.59 104.59 0 0 1 44.5-9.5q50 0 110 40 30 20 85 55.5t134 89.5q80 54 127.5 86.5t62.5 43.5l9-127 6-151q5-90 8-150t12-89q17-62 56.5-99t100.5-37q32 0 68.5 14.5t80.5 41.5l208 133 160 101 5 4q64-69 144-69 8 0 14.5.5t14.5 1.5q7 2 14 3.5a63.51 63.51 0 0 1 15 5.5q13 3 150 73 69 35 114 63t68 50a325 325 0 0 1 41 45 228.55 228.55 0 0 1 30 55q12 31 17.5 70t3.5 90z"/></svg>