<svg viewBox="0 0 2384 2267" xmlns="http://www.w3.org/2000/svg"><path d="m1356 93q-65 0-71 56l141 4a44 44 0 0 0 -5.5-20.5 75.33 75.33 0 0 0 -37.5-34 68.59 68.59 0 0 0 -27-5.5zm-150 215q23 1 38.5 19t15.5 41q0 26-17.5 44t-39.5 18q-25 0-41.5-18.5a63.24 63.24 0 0 1 -16.5-43.5q0-28 18.5-44.5t42.5-15.5zm807 1840 24-1h25q31-408 55.5-850t40.5-919l-48-10q-20 513-44 958.5t-53 821.5zm-118-1 59 1q5-65 13.5-193.5t22.5-320.5q13-193 28.5-510.5t32.5-764.5l-9-3h-11q-24 0-29.5 14t-6.5 43l-10 270q-14 386-33.5 752t-56.5 712zm380-1701q2-23-5-30-7-9-53-25-55 1319-96 1753 43-3 50-7 8-2 10-19l37-541q18-263 32-544t25-587zm-1485 1034-2 4-73 159q-3 8-11 8l-285-37q-12 0-12-11l3-5 72-159q5-7 10-7h2l56 7 217-469-70-3q-13 0-13-12l2-4 76-167q4-8 11-8l256-8h2c2.67 0 5.33 1.17 8 3.5a10.88 10.88 0 0 1 4 8.5l-1 5-312 676 49 7q11 0 11 12zm1082-317-100 339-44 141-115 283q-23 58-55 82.5t-86 24.5h-12l-14-1q-128-13-211-17.5t-124-10.5l-598-85v25q0 28-1 49.5a305.22 305.22 0 0 1 -4 38.5q36 5 114.5 14.5t200.5 23.5q122 14 258 26t290 26q154 14 255 20t154 6q20-135 34-244.5t25-194.5q7-55 12.5-133.5t10.5-181.5q5-103 7.5-160t2.5-71zm31-765a300.1 300.1 0 0 0 -2-35 81.78 81.78 0 0 0 -9.5-30.5 64.44 64.44 0 0 0 -21-22.5q-13.5-9-35.5-13a400.65 400.65 0 0 0 -59-5.5 457.41 457.41 0 0 1 -57-4.5q-14-2-45-5t-81-7l-439-33q-171-13-301-21t-221-10q-41-1-54 23t-13 109q0 58 6 68 6 9 20 17 15 8 43 13 14 2 125.5 11t324.5 24q214 16 391 30.5t323 14.5h12l11-1q24-3 38.5-5t20.5-5a37.26 37.26 0 0 0 11.5-10q4.5-6 7-18t3.5-32q1-20 1-52zm-1074 1259 2-6 82-179 7-5 38-15q95-38 173-81.5t143-91.5q130-96 130-172 0-69-70-69-73 0-204 74l-6 3q-13 0-13-12l-13-145v-3q0-7 5-8l36-23a533 533 0 0 1 71.5-39q39.49-18 85.5-35 94-35 164-35 87 0 151 59 31 29 47 64.5t16 79.5q0 79-59 170-59 88-143 142-85 54-165.5 97t-156.5 75l301 38q11 0 11 13l-2 4-78 171q-2 7-12 7l-530-67q-11 0-11-11zm533 256q28 0 48-3.5t35-13q15-9.49 27-27t25-45.5q78-171 132.5-301t83.5-223q30-94 52-183t39-177l43-231 3-25q0-36-34-42-32-5-130.5-12.5t-266.5-16.5q-166-9-348.5-23t-386.5-28q-27-2-43.5 15.5t-23.5 49.5q-13 68-41.5 168.5t-74.5 237.5q-36 108-128 284-46 88-89 162.5t-84 138.5l-20 33q-8 14-13 22.5t-5 16.5q0 15 24.5 25.5t86.5 23.5l50 11q146 31 357.5 68t495.5 73q44 5 92.5 13.5a541.27 541.27 0 0 0 93.5 8.5zm1022-1467q0 69-4.5 246.5t-19.5 462.5l-22 432-31 538q-3 46-11.5 73.5t-28.5 35.5q-25 10-168 18-71 4-149 9.5t-166 5.5h-23q-214 0-495.5-31t-631.5-74q-72-9-119.5-17t-76.5-16.5q-29-8.51-44-17t-21-18.5a45.75 45.75 0 0 1 -6.5-22q-.5-12-2.5-26v-31l4-119 2-18-51-12q-78-19-138-35.5t-100-32.5q-40-16-60.5-33t-20.5-37q0-14 13-35 94-142 150.5-232t79.5-129q22-39 43.5-80t42.5-85q21-45 55-128.5t80-209.5q7-17 12.5-34t10.5-35q5-17 20.5-72.5t38.5-151.5q-70-18-82-56a273.86 273.86 0 0 1 -12-81q0-11 2-55t7-121q2-27 8.5-46t19.5-31.5q13-12.5 35-18.5t55-6q78 0 190 5.5t264 11.5l145 5q33-142 182-142 73 0 123 43t62 114l397 40q41 5 80.5 11.5a773.67 773.67 0 0 1 79.5 17.5l157 42q39 11 63 27.5t38 39a141.73 141.73 0 0 1 19 50.5 347.92 347.92 0 0 1 5 61z"/></svg>