<svg viewBox="0 0 2192 1592" xmlns="http://www.w3.org/2000/svg"><path d="m2190 840 2 13v14q0 106-101 207-102 100-275 156.5t-411 56.5q-95 0-152.5-6t-60.5-8q-17-2-17-17 0-20 20-20l57 2a1690 1690 0 0 0 175.5-5 1571.38 1571.38 0 0 0 162.5-21.5 1311.46 1311.46 0 0 0 143.5-35q66.5-20.5 120.5-46.5t95-56.5q41-30.49 69-63.5t42-66.5q14-33.5 14-65.5 0-33-13.5-68.5t-37.5-71.5a569.56 569.56 0 0 0 -57-71.5 731.54 731.54 0 0 0 -72-67.5l-15-12q-9-4-9-17 3-11 13-15l84-33 6-1 12 4q1 2 16 14t36 32.5q21 20.5 46 49.5a593.35 593.35 0 0 1 47.5 63.5 459 459 0 0 1 39 74 279 279 0 0 1 20.5 81.5zm-967-553q0 17-18 17l-71-2a1874.13 1874.13 0 0 0 -204.5 7q-99.5 9-196.5 25-96 15-175 36.5t-145 49.5q-129 55-196.5 125.5t-67.5 135.5q0 42 22.5 84t61.5 83a491.41 491.41 0 0 0 42.5 39.5q23.5 19.5 51.5 39.5 57 40 62 40 9 4 9 16 0 13-9 17l-107 63-7 2-15-4q-260-161-260-343 0-118 127-233 128-114 338-173t491-59q84 0 146 3t103 11q18 0 18 20zm-636 1156 88-120 146 28-86-121 71-130-142 43-102-106-2 148-133 65 141 45zm368-31a39.52 39.52 0 0 1 -12 29q-12 12-28 12l-6-2-199-38-119 163q-12 16-31 16-30 0-39-34l-27-201-190-63a46.19 46.19 0 0 1 -19.5-12q-7.5-8-7.5-22-1-26 21-39l182-87 3-201a38.41 38.41 0 0 1 11-27.5q11-11.5 26-11.5t30 13l138 143 193-58 10-2q17 0 29 11t12 28q0 10-6 20l-95 175 117 166q7 9 7 22zm743-1269-93 114-145-33 81 123-78 129 143-38 96 113 10-149 136-56-136-55zm-369 17a40.14 40.14 0 0 1 11-28 35.2 35.2 0 0 1 27-12l9 2 197 45 129-155q10-12 29-12a42.4 42.4 0 0 1 27 9.5 36.3 36.3 0 0 1 14 24.5l16 200 188 76q24 11 24 36a44.87 44.87 0 0 1 -5.5 22q-5.51 10-18.5 15l-186 75-13 203q-1 15-12.5 26t-26.5 11q-18 0-30-14l-130-155-206 54q-15 0-27-11.5a37.9 37.9 0 0 1 -12-28.5 42.58 42.58 0 0 1 5-21l107-173-110-169a35.28 35.28 0 0 1 -6-20z"/></svg>