<svg viewBox="0 0 2160 2096" xmlns="http://www.w3.org/2000/svg"><path d="m1877 211q119 0 201 76 82 77 82 193a272.29 272.29 0 0 1 -11 76 303.31 303.31 0 0 1 -33 74 350.11 350.11 0 0 1 -53.5 67q-31.5 31-73.5 53l-59 31q-32 17-86.5 36t-132.5 37q-77 18-144.5 26.5t-124.5 8.5q-51 0-90.5-5t-68.5-14a102.46 102.46 0 0 1 -22-5 110.82 110.82 0 0 1 -22-10 67.47 67.47 0 0 1 -16.5-13.5 24.66 24.66 0 0 1 -6.5-16.5q0-12 10-23 28-40 28-81a243.39 243.39 0 0 0 -5.5-51.5 247.55 247.55 0 0 0 -17.5-51.5q-45-97-67.5-171t-22.5-127q0-128 87-224 88-96 210-96 69 0 137 43 71 44 98 95 25 46 42 67t37 21a258.87 258.87 0 0 0 63-7.5 254.69 254.69 0 0 1 62-7.5zm-781 823q82 0 150 27t125 80q112 106 112 267 0 129-73 246a529.67 529.67 0 0 1 -87.5 106.5q-51.5 48.5-120.5 89.5-69 40-129.5 69.5t-114.5 49.5q-178 63-326.5 95t-271.5 32q-41 0-74-2t-57-9q-24-7-37-19t-13-33q0-20 11-34a212.65 212.65 0 0 0 26.5-50 162 162 0 0 0 9.5-56 237.72 237.72 0 0 0 -3.5-41 249 249 0 0 0 -11.5-42q-8-22-20.5-48t-30.5-59l-31-59q-66-91-97.5-179t-31.5-176q0-108 53-212a458.81 458.81 0 0 1 65-96 440.34 440.34 0 0 1 83-73.5 382.41 382.41 0 0 1 95-47 326.58 326.58 0 0 1 103-16.5 368 368 0 0 1 90.5 11.5 437.28 437.28 0 0 1 88.5 33 485.6 485.6 0 0 1 81.5 51.5 495.8 495.8 0 0 1 70.5 67l58 67q18 21 46 21l20-3 58-21q52-18 97.5-27.5t86.5-9.5z"/></svg>