<svg viewBox="0 0 2218.02 2311.06" xmlns="http://www.w3.org/2000/svg"><path d="m149 1311q-21 0-37 19.5t-16 43.5a50.66 50.66 0 0 0 7 26 70.69 70.69 0 0 0 18 20.5 91.88 91.88 0 0 0 24.5 13.5 78.47 78.47 0 0 0 27.5 5q43 0 43-42a90.77 90.77 0 0 0 -5.5-30.5 95.4 95.4 0 0 0 -15-27.5 93.72 93.72 0 0 0 -21.5-20q-12-8-25-8zm460-199-96-142q-38 31-38 93 0 34 17.5 61.5t49.5 27.5q39 0 67-40zm-196 338q89 0 89-57 0-24-16.5-44t-48.5-20a98.73 98.73 0 0 0 -34.5 6.5 102.47 102.47 0 0 0 -31 18 98.38 98.38 0 0 0 -22 26.5 63.86 63.86 0 0 0 -8.5 32q0 38 72 38zm537-245a111.89 111.89 0 0 0 42-8 106.87 106.87 0 0 0 35-22.5 110.32 110.32 0 0 0 24-34.5 106 106 0 0 0 9-44q0-20-8.5-41t-25.5-42l-198 113q17 37 50.5 58t71.5 21zm450 665q0 155-136 275 20 8 53 16t81 16q95 16 162 16h23a459 459 0 0 0 59.5-73.5 484 484 0 0 0 44.5-85.5 550.71 550.71 0 0 0 28-93.5 476.54 476.54 0 0 0 10-96.5q0-123-57-221t-160-155q0 41-7.5 75a254.21 254.21 0 0 1 -24 65q-16.5 31-43 60.5t-65.5 60.5q32 70 32 141zm818-150q1 140-48.5 250t-140 186q-90.49 76-216 116t-274.5 39a1108.67 1108.67 0 0 1 -148-11.5 723.84 723.84 0 0 1 -136-33.5q-129-44-129-115 0-45 52-86a304.88 304.88 0 0 0 74.5-87.5q29.5-51.5 29.5-105.5a169 169 0 0 0 -2-24.5q-2-13.5-5-29.5l-101 110q-41 44-77.5 75t-70.5 48q-67 34-175 34-133 0-191-36a179.25 179.25 0 0 1 -52-44.5q-22-27.5-37-63.5-109 37-148 128-37 83-66 83-28 0-28-72 0-99 41.5-153t123.5-81l86-29q43-14 78-53.5t75-109.5q34-59 72-97t80-60.5a339.69 339.69 0 0 1 87-32.5 530.79 530.79 0 0 1 93-12q38-2 66 15t28 45q0 43-77 63-35 9-71 39-34 29-93 122a713 713 0 0 1 -55 77 271 271 0 0 1 -30.5 31.5 203.76 203.76 0 0 1 -36.5 25.5q-19 11-53 22t-82 23q11 24 45.5 40.5t87.5 16.5q19 0 34-1.5a217.08 217.08 0 0 0 29.5-5 169.36 169.36 0 0 0 30-10.5 237.07 237.07 0 0 0 33.5-19q-25-62-25-103 0-35 25-35 9 0 22 9t30 26l11 11q56-102 161-152l54-24q160-74 160-156 0-40-40-75a237.69 237.69 0 0 0 -44.5-31.5 394.38 394.38 0 0 0 -54.5-24.5q-29-12-54.5-17a243.69 243.69 0 0 0 -46.5-5q-77 0-162.5 29t-179.5 90a454 454 0 0 0 -74 60.5 669.59 669.59 0 0 1 -71 62.5l-5 29q-8 42-17 62.5t-23 20.5q-20 0-35-15t-35-32q-54 22-102.5 33a430.44 430.44 0 0 1 -95.5 11q-69 0-120-15-27 44-54 44-26 0-35-64l-3-18q-48-28-77.5-64.5t-29.5-72.5q0-25 17-64 16-38 16-65 0-86 52-139 34-35 120-60 63-18 139-78 38-32 62-54t32-37q19-31 29-75a439.84 439.84 0 0 1 33-93.5q22-45.5 57-89.5 35-45 75.5-77a382 382 0 0 1 87.5-52q23-48 23-78 0-63-36-168-17-53-26-87.5t-9-54.5q0-32 20.5-57t58.5-25q36 0 54 23t27.5 54a474.54 474.54 0 0 1 14.5 61q5 30 15 44 17-3 46.5-54.5t67.5-153.5l15-41q35-98 91-99 36-1 57 28t21 73q0 38-42 147-57 146-90 229.5t-44 108.5q48-5 82-8t57-3l84 8q35-35 44-57 4-12 7-39.5t5-74.5l7-49v-63q0-147 72-147 50 0 76 24.5t23 78.5l-6 97q0 17 7 17 47 0 189-154 29-32 49.5-51.5t32.5-27.5q27-16 48-16 32 0 53.5 23t21.5 57q0 11-1 21.5a88.05 88.05 0 0 1 -4 19.5q-3 10-12.5 24.5t-26.5 36.5q-17 21-36 44t-43 47q-23 24-78.5 83t-144.5 153q9 0 19 1a87.55 87.55 0 0 1 19 4q124 37 193 37 43 0 71-8.5a313 313 0 0 0 49-19q21-10.5 37.5-19.5a75 75 0 0 1 36.5-9q17 0 17 23 0 33-34 67-35 34-54 48t-31 14q0 23 102 23 65 0 80-6 26-9 41.5-13t19.5-4q15 0 15 16 0 31-52 74-52 44-52 62 0 12 18 15l69 11 38 4a173.82 173.82 0 0 0 27.5-2 222.86 222.86 0 0 0 23.5-5q17-10 30-10 19 0 19 18 0 28-40 66-39 36-72 41-50 6-50 22 0 20 52 34l48 12 62 12q4 4 4 17 0 45-82 78a1332.71 1332.71 0 0 1 48.5 129 1175 1175 0 0 1 31.5 122 1161.32 1161.32 0 0 1 17.5 118q5.5 58 6.5 118z"/></svg>