<svg viewBox="0 0 2262 1993" xmlns="http://www.w3.org/2000/svg"><path d="m1552 1037 4-25q0-13-10-13-11 0-24 9l-332 238q-10 7-24 15t-14 22q0 15 32 25 18 5 54 11.5t90 15.5l119 21a45.59 45.59 0 0 0 22-6l8-9q5-5 8-20t9-38zm128-58v14l-3 14-86 380q-10 42-42.5 67t-72.5 25l-375-69q-42-8-69.5-39t-27.5-76q0-61 49-95l442-315q31-22 68-22a122.54 122.54 0 0 1 45.5 8.5 113.13 113.13 0 0 1 37.5 24 109.93 109.93 0 0 1 25 37 119.18 119.18 0 0 1 9 46.5zm440-845q0-18-12-18l-10 4-146 106 75 104q6 6 6 19a32.49 32.49 0 0 1 -8 21.5q-8 9.5-24 9.5-15 0-25-13l-75-106-46 33 26 36q5 5 5 19a32.49 32.49 0 0 1 -8 21.5q-8 9.5-22 9.5-16 0-26-13l-26-37-45 32 26 37q5 5 5 20a29.61 29.61 0 0 1 -8.5 21q-8.51 9-21.5 9-16 0-26-13l-26-37-45 32 75 105q6 5 6 19a32.45 32.45 0 0 1 -32 32q-14 0-24-14l-77-105-45 31 27 37 6 18q0 12-9.5 22.5t-22.5 10.5q-16 0-26-14l-26-37-45 33 26 37q6 6 6 18a31.36 31.36 0 0 1 -8.5 21.5 27.61 27.61 0 0 1 -21.5 9.5q-19 0-26-13l-28-37-45 31 77 108q5 5 5 18a32.49 32.49 0 0 1 -8 21.5q-8 9.5-23 9.5-16 0-25-13l-76-107-46 33 28 38 5 17a34.45 34.45 0 0 1 -8 22q-8 10-23 10-16 0-26-13l-28-39-45 33 28 39q5 5 5 17 0 14-9 23t-21 9q-17 0-26-13l-27-39-46 33 77 108q6 6 6 17a33.82 33.82 0 0 1 -8 22.5q-8 9.5-24 9.5-17 0-25-14l-77-106-46 31 29 38q6 6 6 19a34.45 34.45 0 0 1 -8 22q-8 10-24 10t-26-14l-27-38-45 31 27 40q5 5 5 18 0 14-8.5 22.5t-21.5 8.5q-17 0-26-12l-28-40-46 32 78 109q6 5 6 18a32.49 32.49 0 0 1 -8 21.5q-8 9.49-22 9.5-19 0-26-13l-78-108-45 33 28 39q6 5 6 18 0 11-8 21t-24 10q-16 0-26-13l-28-40-45 32 30 41 5 17a31.6 31.6 0 0 1 -9 22.5 29.15 29.15 0 0 1 -22 9.5q-17 0-26-12l-30-40-44 31 78 110q5 5 5 18a32.49 32.49 0 0 1 -8 21.5q-8 9.49-22 9.5-18 0-26-14l-79-109-45 33 30 39q5 6 5 20 0 11-8 21t-23 10q-16 0-26-14l-29-41-45 33 30 41 6 18q0 12-9 21.5t-23 9.5q-18 0-26-12l-29-41-48 33q-67 47-67 56 0 21 65 26l692 130 631 116q33 6 67 15.5t79 9.5q30 0 48-18 17-17 23-57 3-19 95-420.5t273-1184.5zm142-15-2 26-396 1756q-9 42-41.5 67a117.42 117.42 0 0 1 -73.5 25h-11l-1641-317q-40-8-68.5-38.5t-28.5-75.5q0-30 12-54t38-43l2026-1443q17-12 34-17a123.5 123.5 0 0 1 35-5 116.63 116.63 0 0 1 45.5 9 109.93 109.93 0 0 1 37 25 125.48 125.48 0 0 1 25 38 117.33 117.33 0 0 1 9.5 47z"/></svg>