<svg viewBox="0 0 1702 2165" xmlns="http://www.w3.org/2000/svg"><path d="m1532 121q-36 0-61.5 25.5t-25.5 61.5q0 37 25.5 63t61.5 26q38 0 63-26t25-63q0-36-25-61.5t-63-25.5zm-790 1017 266-337q86-108 130.5-165.5t44.5-68.5l-5-2q-26 0-126 85l-26 21-428 315q52 69 144 152zm258 815q0-25-23-38.5t-51-11.5l-44 1a553.59 553.59 0 0 1 -172-21q-84-24-165-71-163-91-258-247-11-18-26-18-12 0-22.5 19t-27.5 56l-13 28q-10 22-21.5 44.5t-21 45a388.81 388.81 0 0 0 -16 45.5 168.59 168.59 0 0 0 -6.5 46q0 65 68 119 35 29 84 51.5t115 42.5q65 19 124 27.5a812.33 812.33 0 0 0 116 8.5 797.11 797.11 0 0 0 196-24q48-12 79.5-23t50-23q18.5-12 26.5-25.5t8-31.5zm235-413 3-9q0-22-66-33-67-11-146.5-42.5t-175.5-82.5q-190-101-326-252a1125.35 1125.35 0 0 1 -121-156.5 1062.16 1062.16 0 0 1 -88-169.5q-36-88-56-169.5t-15-159.5l5-97q2-23-15-23-21 0-51 79a743 743 0 0 0 -24.5 74.5q-9.5 35.5-15.5 70t-8.5 69q-2.5 34.5-1.5 71.5 2 96 19 184a818.54 818.54 0 0 0 53 171q37 84 88 149.5a673.14 673.14 0 0 0 116 116.5q78 61 138.5 101.5t105.5 62.5q88 42 191 63.5t227 21.5q158 0 164-40zm-711-662 735-510a1209.54 1209.54 0 0 0 -169-132 869 869 0 0 0 -89-50.5 757 757 0 0 0 -88-36.5q-89-30-126-30-87 0-159 74-72 72-118 209a1108.8 1108.8 0 0 0 -36 134.5q-13 65.5-9 128.5l7 116q11 23 24 47.5t28 49.5zm1055 209a909.52 909.52 0 0 0 -53-307 1073 1073 0 0 0 -147-277l-529 720q287 191 465 191 63 0 112.5-22.5a220.18 220.18 0 0 0 83-65q33.49-42.49 51-103t17.5-136.5zm120 32v20l-1 22v7q-11 118-58.5 217t-122.5 162q-75 63-184 99t-245 40l28 96q29 93 29 163 0 26-7.5 46a111.46 111.46 0 0 1 -22 36 181.71 181.71 0 0 1 -35 29.5 410.71 410.71 0 0 1 -47.5 26.5q-81 40-192 61t-233 21q-88 0-165.5-10t-146.5-32q-140-44-218-119-40-38-59-77.5t-19-78.5q0-48 30-108l208-420q-200-233-200-565a1125.32 1125.32 0 0 1 48-327q50-162 125-248 77-88 190.5-134t259.5-46q367 0 676 314l45-31q-19-38-19-75 0-64 48-117 47-52 121-52 70 0 121 51 49 51 49 118 0 73-51 121-52 50-119 50-26 0-53-10l-44 59q264 361 264 691z"/></svg>