<svg viewBox="0 0 1824 2454" xmlns="http://www.w3.org/2000/svg"><path d="m623 1725 18-3a78.18 78.18 0 0 1 34.5 8 96.57 96.57 0 0 1 29 21.5 98.39 98.39 0 0 1 19.5 31.5 106.61 106.61 0 0 1 7 39 110.59 110.59 0 0 1 -7 39.5 96 96 0 0 1 -48.5 53.5 78.18 78.18 0 0 1 -34.5 8 80.33 80.33 0 0 1 -35.5-8 96.57 96.57 0 0 1 -29-21.5 105.66 105.66 0 0 1 -27.5-71.5l2-5q-8 0-18.5-4a94.37 94.37 0 0 1 -20.5-11 80.6 80.6 0 0 1 -16.5-15q-6.5-8-6.5-16a23.38 23.38 0 0 1 4.5-13.5 14.38 14.38 0 0 1 12.5-6.5 33.24 33.24 0 0 1 10.5 1.5q4.5 1.5 10 3a104 104 0 0 0 12.5 2.5 140.71 140.71 0 0 0 19 1q16 0 16-5c0-1.33-1.33-3.17-4-5.5s-5.83-5.17-9.5-8.5a59.16 59.16 0 0 1 -9.5-11 24.63 24.63 0 0 1 -4-14q0-13 16-13a30.13 30.13 0 0 1 14.5 3.5 136.18 136.18 0 0 1 13 8 85.61 85.61 0 0 0 14.5 8 44.5 44.5 0 0 0 18 3.5zm413 339q14 0 14 17 0 41-42 68a158.21 158.21 0 0 1 -88 26h-16a174 174 0 0 1 -49-7 150.84 150.84 0 0 1 -42.5-19.5 98.79 98.79 0 0 1 -29.5-30.5 75.23 75.23 0 0 1 -11-40q0-14 14-14 3 0 9 3t14 8a210.54 210.54 0 0 0 51.5 20 224.14 224.14 0 0 0 51.5 6 211.53 211.53 0 0 0 50.5-6q24.5-6 50.5-20 9-5 14.5-8t8.5-3zm-131-30q-20 0-36-5.5a102.23 102.23 0 0 1 -27-13.5q-11-8-17-17t-6-17q0-14 16-14a16.12 16.12 0 0 1 13 6q27 27 57 27 27 0 56-27a16.12 16.12 0 0 1 13-6q16 0 16 14 0 8-6 17t-17.5 17a113.89 113.89 0 0 1 -27 13.5 102.51 102.51 0 0 1 -34.5 5.5zm-299-1031 64 39q17-7 36-14a376.58 376.58 0 0 1 39-12l3-27q0-68-29-182-27-112-85-207t-147-169q-92-77-148-78-49-1-49 56 0 23 7.5 51.5t20.5 64.5l10 28 35 139q23 91 82 169.5t161 141.5zm484-35 1 46 84 23q112-55 190.5-140.5t110.5-200.5l49-174q11-37 17.5-64.5t6.5-44.5q0-60-51-60-47 0-129 61-81 62-140 141-58 80-98 203-20 62-31.5 114t-9.5 96zm-157-194h-28l2 48a446.23 446.23 0 0 1 -6 83q-7 43-18 89l36-1 34 1q-22-98-22-177v-22zm-29 1527a688.17 688.17 0 0 0 72-4 765.86 765.86 0 0 0 80-13 582.34 582.34 0 0 0 77.5-20 523.56 523.56 0 0 0 66.5-27.5 439.47 439.47 0 0 0 59-35.5 555.1 555.1 0 0 0 54-44q31-91 31-194a693.48 693.48 0 0 0 -6-94.5 388.91 388.91 0 0 0 -20-81.5q-26 30-54 30 0 44-24.5 75t-66.5 31a80.33 80.33 0 0 1 -35.5-8 96 96 0 0 1 -48.5-53.5 110.59 110.59 0 0 1 -7-39.5 106.61 106.61 0 0 1 7-39 98.39 98.39 0 0 1 19.5-31.5 96.57 96.57 0 0 1 29-21.5 80.33 80.33 0 0 1 35.5-8l17 3a41 41 0 0 0 17.5-3.5 122.67 122.67 0 0 0 14.5-8q7-4.5 13.5-8a30.13 30.13 0 0 1 14.5-3.5q16 0 16 15a22.33 22.33 0 0 1 -4 13.5 53.67 53.67 0 0 1 -9.5 10q-5.51 4.5-9.5 7.5t-4 6l4 5a198.24 198.24 0 0 0 28-2q14-2 31-6a646.61 646.61 0 0 0 -40.5-64 827 827 0 0 0 -55.5-69q-54-61-89-105.5t-52-72.5q-12-20-30-20-16 0-60 41-57 52-79 66-128 75-292 75-38 0-65.5 12t-45.5 43.5q-18 31.5-26.5 86.5t-8.5 140q0 163 23 253a422.69 422.69 0 0 0 88.5 72.5 594.86 594.86 0 0 0 104.5 51 624.51 624.51 0 0 0 114 30.5 693 693 0 0 0 116 10zm806-530q-1-51-5.5-104.5a1134.11 1134.11 0 0 0 -15.5-112.5q-11-59-28-124.5t-43-139.5q-51-148-146-264-29 20-66 41t-82 42q101 75 101 151 0 40-45 40l-30-6q-66-24-123-40.5t-108.5-26q-51.49-9.49-99.5-14t-96-4.5a1051.67 1051.67 0 0 0 -163.5 12.5 921.92 921.92 0 0 0 -155.5 38.5q-36 12-68 23.5t-77 11.5q-48 0-48-28 0-61 82-122l37-27a106.59 106.59 0 0 0 -18.5-9q-10.5-4-21-8.5t-20.5-10a70.81 70.81 0 0 1 -16-11.5q-55-27-107-68a700.54 700.54 0 0 0 -72 89 901 901 0 0 0 -58 98q-50 103-89 268-20 84-30 159.5a1108 1108 0 0 0 -10 145.5q0 225 106 381 105 152 273 193l24 5q-63-74-93-175-16-53-23-127.5t-7-173.5q0-78 8.5-136t26-99q17.5-41 42.5-67a174 174 0 0 1 58-40q19-8 49.5-13.5t73.5-6.5a462.07 462.07 0 0 0 80.5-9 520.36 520.36 0 0 0 74-20.5 339.27 339.27 0 0 0 61.5-29q27-16.5 44-34.5 78-88 149-88 74 0 122 82 35 61 108 137 45 47 77.5 93.5a504.31 504.31 0 0 1 53 96 489.84 489.84 0 0 1 30 104.5q9.49 55 9.5 119 0 117-33.5 217t-94.5 170q55-12 99.5-31a423.1 423.1 0 0 0 149-105.5 681.2 681.2 0 0 0 58.5-74.5q55-81 76-186a866.23 866.23 0 0 0 15.5-96q4.5-45 4.5-86zm90-1q2 112-23 215a644.83 644.83 0 0 1 -80 191 659.88 659.88 0 0 1 -135 154 500.32 500.32 0 0 1 -85 55 649 649 0 0 1 -94 39q-50 16-88 23t-64 7q-36 0-63.5-11.5t-27.5-36.5q0-22 57-71-62 27-147 41-84 15-146 15a681 681 0 0 1 -76-4.5 789 789 0 0 1 -81-13.5q-41-9-81.5-22a630.67 630.67 0 0 1 -76.5-30q11 12 23 23t22.5 22a160.18 160.18 0 0 1 17.5 21.5q7 10.5 7 20.5 0 20-21 31.5t-50 14.5a435.25 435.25 0 0 1 -66.5-5.5 678 678 0 0 1 -75.5-16.5q-98-26-178.5-80t-143.5-140q-124-170-124-442 0-157 39-325 20-86 44-155.5t51-125.5q54-112 146-216a733.32 733.32 0 0 1 -136.5-211q-50.5-118-68.5-264-7-53-14.5-94.5t-15.5-72.5q-10-35-21.5-77a313.16 313.16 0 0 1 -11.5-83q0-66 45-106t123-40q143 0 317 111 177 112 277 257t122 316h45a699.57 699.57 0 0 1 43.5-164.5q31.5-78.5 82.5-152.5a862.9 862.9 0 0 1 118-139q67-64 152-119 173-109 319-109 81 0 124.5 40t43.5 106q0 27-8 66.5t-23 93.5q-15 52-30 167-40 311-223 494a977.11 977.11 0 0 1 116.5 182 1304.77 1304.77 0 0 1 80 202.5 1410.33 1410.33 0 0 1 46.5 211.5 1741.85 1741.85 0 0 1 17 207z"/></svg>