<svg viewBox="0 0 2270 2269" xmlns="http://www.w3.org/2000/svg"><path d="m270 994q0-40 23-66.5t51-26.5q18 0 31 8a75.82 75.82 0 0 1 22 20.5 91.87 91.87 0 0 1 13.5 27.5 103.94 103.94 0 0 1 4.5 30q0 41-23 70t-55 29q-28 0-47.5-27t-19.5-65zm350-294a76.53 76.53 0 0 1 -29.5-6 83.6 83.6 0 0 1 -26-17 85.76 85.76 0 0 1 -18.5-26 79.24 79.24 0 0 1 -.5-64 86.65 86.65 0 0 1 18.5-27 98.06 98.06 0 0 1 28-19.5 81.43 81.43 0 0 1 35-7.5q36 0 60.5 22t24.5 52a88.18 88.18 0 0 1 -7.5 36 94.55 94.55 0 0 1 -49.5 49.5 85.85 85.85 0 0 1 -35 7.5zm442-260a67.57 67.57 0 0 1 -31.5-7.5 77.74 77.74 0 0 1 -25-20.5 117.37 117.37 0 0 1 -17-28.5 85.3 85.3 0 0 1 .5-66.5 84.6 84.6 0 0 1 19-27.5 91 91 0 0 1 27-18 77.25 77.25 0 0 1 31-6.5q40 0 61 25t21 57a91 91 0 0 1 -7 35 93.58 93.58 0 0 1 -19 29.5 104 104 0 0 1 -27.5 20.5 70 70 0 0 1 -32.5 8zm-62 1129a65.24 65.24 0 0 1 -30.5-7 75.84 75.84 0 0 1 -23.5-19 90.48 90.48 0 0 1 -15.5-27 89.27 89.27 0 0 1 -5.5-31q0-40 22-68.5t63-28.5q21 0 37 7.5a85.06 85.06 0 0 1 27 19.5 79.86 79.86 0 0 1 16.5 27.5 93.46 93.46 0 0 1 5.5 31.5q0 21-8 38a98.81 98.81 0 0 1 -21 29.5 100.91 100.91 0 0 1 -30.5 20 91.73 91.73 0 0 1 -36.5 7.5zm435-1034v-9q0-37 27.5-60.5t64.5-23.5q36 0 63 21.5t27 56.5a83.55 83.55 0 0 1 -8 36 98.81 98.81 0 0 1 -21 29.5 102.84 102.84 0 0 1 -30 20 85.85 85.85 0 0 1 -35 7.5 96.58 96.58 0 0 1 -60.5-21 75.31 75.31 0 0 1 -20-24.5 69.69 69.69 0 0 1 -7.5-32.5zm-893 953q-36 0-57.5-28t-21.5-64a89.54 89.54 0 0 1 6.5-34 99.31 99.31 0 0 1 17.5-28.5 82 82 0 0 1 62-27.5q40 0 62.5 26.5t22.5 62.5a83.55 83.55 0 0 1 -8 36 98.81 98.81 0 0 1 -21 29.5 105 105 0 0 1 -29.5 20 80.25 80.25 0 0 1 -33.5 7.5zm1037-487a86.71 86.71 0 0 1 78.5 49.5q7.5 15.49 7.5 35.5a79.14 79.14 0 0 1 -7.5 34 93.41 93.41 0 0 1 -20 28 86.81 86.81 0 0 1 -29.5 18.5 100 100 0 0 1 -36 6.5 102.08 102.08 0 0 1 -31.5-5 100.11 100.11 0 0 1 -28-14 68.24 68.24 0 0 1 -20-22.5q-7.5-13.5-7.5-31.5 0-46 27-72.5t67-26.5zm-654-89a99.19 99.19 0 0 1 8.5-41 107.48 107.48 0 0 1 22-32.5 96.63 96.63 0 0 1 31.5-21 95.32 95.32 0 0 1 37-7.5 85 85 0 0 1 33.5 7 109 109 0 0 1 30 19 97.51 97.51 0 0 1 22 28.5 78.48 78.48 0 0 1 8.5 36.5 90.26 90.26 0 0 1 -8 37 107.32 107.32 0 0 1 -22.5 32.5 109.41 109.41 0 0 1 -34 23 105.16 105.16 0 0 1 -42.5 8.5q-42 0-64-24.5t-22-65.5zm952-380 3 27v21q0 88-77 156-19 12-24 26l-14 31a175 175 0 0 1 48.5 19 163.17 163.17 0 0 1 40 32.5 157.08 157.08 0 0 1 28 44.5 187.74 187.74 0 0 1 13.5 53q23 24 36 61.5t13 67.5a185.22 185.22 0 0 1 -12 66.5q-12 31.5-38 59.5l1 19a115.39 115.39 0 0 1 -7 49.5 208.7 208.7 0 0 1 -26 48.5l8-2 35-14q55-22 84-37.5t29-35.5l-7-27q-18-53-27.5-86.5t-9.5-48.5q0-26 6-47a173 173 0 0 1 16-38.5 226.26 226.26 0 0 1 21.5-31.5q11.51-14 23.5-26 35-35 106-140l8-13q-6-20-74-52-104-48-133-70a197.07 197.07 0 0 1 -44.5-48q-18.5-28-26.5-65zm-1511 78v5l5 17q45 7 78 39l16-1q24-2 50.5 8.5t55.5 29.5q56 37 71 78 13-86 91-132l2-2a170.1 170.1 0 0 1 20.5-38.5 142.28 142.28 0 0 1 29.5-30.5q-30-39-30-99-44-40-52-103 0 2-5 5t-11 6a91.18 91.18 0 0 1 -12 5q-6 2-9 2l-4-1q-8-1-12.5-8.5t-10-15.5a54.39 54.39 0 0 0 -15.5-14.5q-10-6.5-29-6.5-20 0-31 6.5t-17 15q-6 8.5-11 16a26.59 26.59 0 0 1 -13 10.5l-7 1-16-3h-9a62.83 62.83 0 0 0 -27.5 6.5 82.31 82.31 0 0 0 -24 17.5 94.82 94.82 0 0 0 -17 24.5 60.83 60.83 0 0 0 -6.5 26.5q0 16 5.5 28a55.13 55.13 0 0 1 5.5 23q0 9-7 12a99.79 99.79 0 0 0 -12 6q-42 26-42 67zm467-313-5 11q-27 26-27 53 0 39 26 56a113 113 0 0 0 22.5 9q13.5 4 13.5 17l-5 19-5 18 1 3-1 6q0 25 19 47 9-5 43-5 39 0 69 13 27-27 93-27 20 0 36 5.5t39 13.5l-3-30q0-100 81-153 11-66 51-102a240 240 0 0 0 -28-11.5q-11-3.5-7-19.5l2-14q0-30-38-57-41-29-70-29-17 0-27.5 9.5t-21.5 9.5l-13-7q-40-35-64-35l-6 1q-42 6-61 56a40.74 40.74 0 0 0 -3 14q0 6-8 10h-6l-16-2-10-1a77.25 77.25 0 0 0 -31 6.5 78.93 78.93 0 0 0 -26 18 100.86 100.86 0 0 0 -18 26 69.25 69.25 0 0 0 -7 30.5l5 20q6 11 6 21zm-685 740 1 5a34.19 34.19 0 0 1 -3 14.5q-3 6.49-6.5 13t-6.5 13.5a37.7 37.7 0 0 0 -3 15q0 30 21 55t50 34l7 2 23-5 10 3 3 3a177 177 0 0 1 54.5-60 165.47 165.47 0 0 1 75.5-29l15-21q28-29 62-44.5t76-15.5q50 0 90 22l13-30-5-22q0-40-19-59l-9-6q-37-15-37-31l5-27q0-33-35-66-18-16-33.5-24a68 68 0 0 0 -31.5-8l-11 1q-27 10-31 10-7 0-30-26-12-14-24.5-20t-23.5-6q-26 0-39.5 10a89.27 89.27 0 0 0 -21.5 22 115.41 115.41 0 0 0 -12 22.5q-4 10.5-10 12.5h-3l-18-5-23-4h-10q-28 5-49.5 27.5t-21.5 50.5l6 30q0 8-10 15a210.59 210.59 0 0 0 -18 14q-18 29-18 48 0 26 21 42 5 8 16 12t14 12zm977 950q5 0 16-6l22.5-22.5 47.5-49.5q47.51-49.5 52-59t37-50a324.41 324.41 0 0 1 35.5-46 256.14 256.14 0 0 1 41-36 231.88 231.88 0 0 1 43-24q21.49-9 41.5-10l255-18q13-1 24.5-3a64.7 64.7 0 0 0 20.5-7l3-21-9-178q-1-27 6-48.5t18-36.5l-41 8q-24 32-68 49.5a246.6 246.6 0 0 1 -92 17.5q-74 0-126-41l-10 1h-35l-28-2q3 15 5 28.5a169 169 0 0 1 2 24.5q0 54-31 108l2 26-2 30q-27 131-162 152-25 42-69 68t-96 26q-61 0-107-37l-36 7a196.39 196.39 0 0 1 -59.5-9 205.71 205.71 0 0 1 -52.5-25 163.37 163.37 0 0 1 -40.5-38 139.07 139.07 0 0 1 -23.5-49 279.88 279.88 0 0 1 -73 31q16 11 24 33t6 55l-1 21 1 6 2 11 4 25a131.58 131.58 0 0 0 22.5-2q11.5-2 25.5-5 53-14 92-20t67-6q44 0 82.5 15.5t71.5 47.5a155.67 155.67 0 0 0 15 15 257.15 257.15 0 0 0 26 20q32 23 51 23zm981 39q0-18-16-31t-36-28q-17-12-28.5-21.5a120.66 120.66 0 0 1 -18.5-18.5q-13-16-19-61.5t-6-133.5v-67l-4-274-60 23q-24 10-38 16.5t-10 22.5l9 177a328.86 328.86 0 0 1 -8.5 56.5 107.33 107.33 0 0 1 -25 47q-18.49 20.51-54.5 33t-97 15.5a310.55 310.55 0 0 1 -53 5.5q-27 .49-55 2.5l-114 7q-17 2-35.5 21t-53.5 64l-30 38 235 13q59 3 116.5 9t115.5 17q26 5 43 16t26 26l18 29q31 49 49 75t32 26q16 0 31-14l61-50q26-20 26-41zm-1817-606a118.89 118.89 0 0 0 7 40.5 95.76 95.76 0 0 0 23 35.5l7 7a45.91 45.91 0 0 0 13 6 116.73 116.73 0 0 1 13 4.5 30.59 30.59 0 0 1 10 6.5q4 4 4 13l-6 30q4 31 14 47.5t23.5 24.5a82.29 82.29 0 0 0 29.5 10.5q16 2.51 32 4.5a70.8 70.8 0 0 0 22.5-3.5q10.5-3.49 19-7a160.8 160.8 0 0 0 15-7q6.5-3.5 10.5-3.5l6 4q16 21 62 21a112.28 112.28 0 0 0 29-4 118.46 118.46 0 0 0 27.5-11 102.58 102.58 0 0 0 22.5-17 56.16 56.16 0 0 0 14-22q-37-52-37-121 0-101 62-152a200.13 200.13 0 0 1 6.5-45 182.06 182.06 0 0 1 14.5-37 152.1 152.1 0 0 1 -15.5-6q-6.5-3-5.5-15l1-23a38 38 0 0 0 -5.5-23.5 72.2 72.2 0 0 0 -16.5-18.5 80.05 80.05 0 0 0 -22-12.5 67.94 67.94 0 0 0 -24-4.5l-43 10h-5l-18-15q-15-18-52-18-66 0-82 63l-7 16-8 3-18-3h-10q-78 0-78 70a65.24 65.24 0 0 0 7 30.5q7 13.5 7 22.5a19.26 19.26 0 0 1 -9 17q-28 13-34 36.5a183.68 183.68 0 0 0 -6 45.5zm1161-1104q-8 0-23.5-7a78 78 0 0 0 -32.5-7q-19 0-31.5 7a63.09 63.09 0 0 0 -20.5 18 71.53 71.53 0 0 0 -11.5 25 115.23 115.23 0 0 0 -3.5 28l3 29q0 10-8 12-38 5-56 28.5a85.66 85.66 0 0 0 -18 53.5l3 22q0 11 16 30 15 18 15 25l-5 22-6 19 1 11a166.93 166.93 0 0 1 32 24 427 427 0 0 1 33 35q20 0 28.5 6.5t8.5 21.5l2 19 11 21a121.72 121.72 0 0 1 32-11 168.15 168.15 0 0 1 31-3h13l9 2q60-36 116-36 51 0 95 23l1-13-7-50 2-6h13l25 4q23 0 44-30a146.16 146.16 0 0 0 16.5-30.5 85.2 85.2 0 0 0 5.5-30.5q0-13-1-23t-5-16l-19-36q0-11 11-33 11-19 11-34 0-45-25-71t-63-26l-31 5-4-1q-13-2-19-29l-6-9a53.41 53.41 0 0 0 -16.5-17 105.91 105.91 0 0 0 -23-11.5 134.63 134.63 0 0 0 -26-6.5 174.84 174.84 0 0 0 -25.5-2q-43 0-59 16-15 32-32 32zm241 963h10l22 4q35 0 54-21t19-47q0-24-6-34a40.22 40.22 0 0 1 -6-21q0-7 21-18 41-21 41-68 0-22-10-48a37.55 37.55 0 0 0 -11-12l-14-10-11.5-10q-11.51-10-4.5-13l1-26q2-28-18-48.5t-50-20.5l-33 7q-12-1-19-18-21-65-88-65-54 0-64 27-4 12-15 14l-9 1-50-8-11 1q-69 18-69 78l8 47-4 11-10 5q-82 21-82 93 0 21 9.5 33.5a98.63 98.63 0 0 0 21.5 21q12 8.51 21.5 15t9.5 16.5a28.13 28.13 0 0 1 -3.5 13.5q-3.49 6.49-8 14t-9 17a61.88 61.88 0 0 0 -5.5 21.5q0 36 28.5 57.5t86.5 21.5a46.34 46.34 0 0 0 24-6.5q11-6.49 22-6.5h1q15 0 18 12 5 17 26.5 28.5t53.5 11.5q66 0 84-33a129.26 129.26 0 0 0 10.5-25q3.5-12 18.5-12zm-897 350q0 48 21 79.5t58 31.5q13 0 22.5-4.5a172.31 172.31 0 0 0 17.5-9.5q8-5 15-9.5t13-4.5q14 0 22 21 21 37 65 37 32 0 58.5-19.5t31.5-51.5q2-9 4.5-19t15.5-10l41 7a71.53 71.53 0 0 0 29.5-6.5 84.67 84.67 0 0 0 25.5-17.5 90.6 90.6 0 0 0 18-26 74.71 74.71 0 0 0 7-32l-10-55q0-14 11-19 28-11 28-63 0-60-46-83a122.56 122.56 0 0 0 -13-3.5 89.56 89.56 0 0 1 -13.5-4 35.63 35.63 0 0 1 -11-6.5q-4.5-4-4.5-12l5-33q0-40-32-55a60.52 60.52 0 0 0 -35-11l-30 4q-10 0-15-8-27-41-74-41-26 0-42 11.5t-30 37.5l-12 15-6 2-49-10q-20 0-33.5 6.5a58.05 58.05 0 0 0 -21.5 17 66.79 66.79 0 0 0 -11.5 24 109.31 109.31 0 0 0 -3.5 27.5l4 33q0 13-13 19-29 15-40.5 35.5t-11.5 56.5a136.11 136.11 0 0 0 5 37.5 81 81 0 0 0 16 30.5l10 7q26 12 26 26a35.28 35.28 0 0 1 -6 20q-6 9-6 28zm197-970h-2q-4 0-17-9-13-12-27-17a88.6 88.6 0 0 0 -30-5 90 90 0 0 0 -29.5 5 112.56 112.56 0 0 0 -27.5 14 82.46 82.46 0 0 0 -21.5 21.5 74.35 74.35 0 0 0 -11.5 28.5q-6 34-29 37-23 5-40 26t-17 47v8l3 11 5 8q11 16 17 26t6 15q0 11-13 21-22 16-28 31t-6 39a111.11 111.11 0 0 0 6.5 38 145.81 145.81 0 0 0 15.5 31.5q9 13.5 19.5 21.5t19.5 8l8-1q27 0 29 45 0 23 12 36l21 22 26-4h8l19-17a143.75 143.75 0 0 1 51.5-29 199.78 199.78 0 0 1 60.5-9q36 0 64 8t46 25q12 10 31 13 22-22 28-42l-4-34q0-53 23.5-95a183 183 0 0 1 63.5-67l1-7q-6-1-6-13a23.67 23.67 0 0 1 3.5-12q3.49-6 8-13a89.43 89.43 0 0 0 8-16 57.82 57.82 0 0 0 3.5-21q0-39-27-80-29-43-57-43h-26q-17 0-27-22-4-32-25.5-53t-49.5-21q-29 0-64 29l-10 10zm1279 1331a167 167 0 0 1 -19.5 79q-19.5 37-57.5 72l-46 42q-17 16-35.5 31.5a301.65 301.65 0 0 1 -38.5 27.5 218.17 218.17 0 0 1 -42 19.5 141.59 141.59 0 0 1 -46 7.5 116.75 116.75 0 0 1 -64.5-19q-29.51-19-57.5-56l-28-38-14-26q-23-65-60-65a1178.72 1178.72 0 0 1 -152-10q-77-10-152-16-51-4-100.5-5a839.32 839.32 0 0 1 -99.5-8q-12 13-25.5 26.5a208.87 208.87 0 0 1 -29.5 24.5 158 158 0 0 1 -35 18q-19 7-42 7-77 0-171-90-35-33-75-33-34 0-144 26a174.87 174.87 0 0 1 -33.5 6.5q-16.5 1.5-32.5 1.5-104 0-115-125l-2-33v-22l-72 1h-38q-134 0-134-85l4-31v-6l3-19a150.24 150.24 0 0 1 -37-59q-5-15-8.5-29.5t-6.5-26.5q-65-56-71-154-66-48-66-108 0-23 12-49-48-26-76.5-71a179.66 179.66 0 0 1 -28.5-98l3-28q-36-45-36-99 0-59 40-111 0-64 46-113 48-49 106-58h7l17-1q27-28 56-43l-5-36q0-35 13-64.5t39-55.5l-1-9 1-8v-6a133.19 133.19 0 0 1 13.5-59.5q13.5-27.5 37.5-51.5 48-48 109-53 50-48 116-48 52 0 92 29l40-4-2-22a145.69 145.69 0 0 1 8-59 173.75 173.75 0 0 1 28-50.5 189.44 189.44 0 0 1 41.5-38.5 187.55 187.55 0 0 1 48.5-24l6-3 19-3q46-79 138-79 45 0 89 27 14-5 37-5 70 0 132 50a134.07 134.07 0 0 1 16.5-5 80.9 80.9 0 0 1 18.5-2 138.15 138.15 0 0 1 31 8.5 134 134 0 0 1 22 11.5 65.11 65.11 0 0 1 14 12q5 6 7 9l4 5 57 82a243.17 243.17 0 0 1 46.5-17.5 204.2 204.2 0 0 1 52.5-6.5q100 0 157 63l93-7q60-4 99.5 22.5t59.5 76.5q8 20 14 49.5t12 69.5q5 36 12.5 60.5t17.5 40.5q9 16 89 51 42 19 70 34.5t42 26.5q29 23 46 51t17 66q0 29-32 76-33 50-57.5 82.5t-37.5 47.5l-41 47 1 86a231.88 231.88 0 0 1 29 113q0 48-29 88l-1 29v28l1 58-6 204 2 68-3 63q-1 26 5.5 46a122.93 122.93 0 0 0 19 36.5 152.53 152.53 0 0 0 31.5 30.5 368.8 368.8 0 0 0 43 27q38 22 56.5 44.5t18.5 42.5z"/></svg>