<svg viewBox="0 0 1218 2096" xmlns="http://www.w3.org/2000/svg"><path d="m148 1461q0 190 130 308 129 119 341 119 183 0 316-122 131-122 131-299 0-95-38.5-219t-110.5-281l-67-145-82-190q-41-94-70-155.5t-49-89.5q-39-56-74-56-28 0-50 33t-46 103l-82 238q-27 78-65 170.5t-90 201.5q-94 199-94 384zm1070 37q0 276-160 438-160 160-431 160a704.89 704.89 0 0 1 -157-18q-79-18-158-55-312-143-312-562a754.88 754.88 0 0 1 8.5-112.5 1070.76 1070.76 0 0 1 24.5-116.5q16-60 40-125t56-137l63-144q24-56 60-157t85-250q11-35 23-79.5t26-101.5q14-57 24.5-94t20.5-56q20-38 48.5-63t70.5-25q45 0 81 37 39 41 78 106.5t81 154.5q28 61 52.5 119.5t48 116q23.5 57.5 47 114.5t49.5 115l78 177q38 87 67 163t48 144a1106.42 1106.42 0 0 1 28.5 130 798.88 798.88 0 0 1 9.5 121z"/></svg>