<svg viewBox="0 0 2454 2297" xmlns="http://www.w3.org/2000/svg"><path d="m1595 1227q0 7-7 13a65.82 65.82 0 0 1 -18 10.5 124.71 124.71 0 0 1 -24.5 7 140 140 0 0 1 -25.5 2.5q-41 0-66-24.5t-25-58.5a73.61 73.61 0 0 1 5-25.5q5-13.5 16-13.5 10 0 15 7l7 14a78.47 78.47 0 0 0 30 27q19 10 45 17l34 8q14 6 14 16zm-510-160q16 1 16 17 0 12-7 24a87.92 87.92 0 0 1 -18.5 22 104.28 104.28 0 0 1 -26 16.5 71.53 71.53 0 0 1 -29.5 6.5q-31 0-64-26-34-25-34-50 0-15 14-15l8 1 30 8q32 13 46 13 22 0 38-8.5t27-8.5zm42-843q0-94 62-158 61-66 138-66a233.81 233.81 0 0 1 80.5 14q38.5 14 69.5 49l24 26q14 20 24 32t17 19q7 7 12.5 9a33.48 33.48 0 0 0 11.5 2l7-2a452.61 452.61 0 0 0 54-14.5 166.64 166.64 0 0 1 54-8.5q48 0 87.5 14t68 40q28.5 26 44.5 63.5t16 83.5a199.7 199.7 0 0 1 -9 58.5 296.42 296.42 0 0 1 -26 59.5 237.9 237.9 0 0 1 -42.5 54.5q-25.5 24.5-61.5 44.5t-83 36.5q-47 16.5-107 31.5-29 7-66 20.5t-82 33.5a143.17 143.17 0 0 0 -18.5 11.5q-10.5 7.5-21.5 7.5-14 0-20-16l-13-27q-23-41-42.5-72t-36.5-53q-40-51-68-91t-43-72a275.84 275.84 0 0 1 -23-63.5 305.69 305.69 0 0 1 -7-66.5zm673 1159a251.57 251.57 0 0 0 -14.5-83.5q-14.5-41.5-45.5-86.5l-57-82q-48-68-77-130t-38-121q-63 29-137 123-29 36-58.5 71a425.54 425.54 0 0 1 -67.5 64l-68 40q-47 26-48 40 0 11 24 39 25 31 25 54 0 31-18 53-19 26-22 44a66.64 66.64 0 0 1 -10.5 28q-8.51 13-8.5 24l4 46-5 55-7 22-6 22 2 5q14 38 44 54 15 8 51 21t95 31a469.11 469.11 0 0 1 44.5 16 260.62 260.62 0 0 1 41.5 22l32 20a149.49 149.49 0 0 0 28-17l111-88q52-41 87.5-78t57.5-71.5q22-34.5 31.5-68a250 250 0 0 0 9.5-68.5zm532-9q0-156-67-281a497.86 497.86 0 0 0 -80-112.5q-47-49.5-110-85.5-126-73-278-73-135 0-135 59 0 25 16 58 19 36 128 184 39 54 61 122.5t22 133.5q0 74-29 163-41 131-202 247a66.12 66.12 0 0 1 -18.5 13q-10.5 5-11.5 16 0 25 34 25a148.17 148.17 0 0 0 26-2.5q14-2.51 28-6t27-8q13-4.5 22-8.5l141-50 23-5q18 0 18 18 0 14-27.5 32t-78.5 45l-41 22q15 23 54 23 64 0 161-44 96-43 168-117 75-76 112-169t37-199zm-1153-314-8-76q0-139-36-139-8 0-24 10.5t-43 28.5l-16 11q-33 22-64.5 33a412.92 412.92 0 0 1 -57.5 16 215.19 215.19 0 0 0 -33 10.5 105.37 105.37 0 0 1 -39 7.5q-18 0-28-10t-8-30l3-37q2-23-11-23-23 0-81 85-29 42-44 79.5t-13 72.5l2 56q1 8-12.5 17.5a51.76 51.76 0 0 1 -30.5 9.5q-20 0-34-17t-28.5-37a307.86 307.86 0 0 0 -31.5-37q-17-17-43-17-39 0-64 40-25 37-25 78 0 44 27 79t69 46q9 2 17.5 3.5a56.48 56.48 0 0 1 15.5 5 28.85 28.85 0 0 1 11.5 10.5q4.5 7 4.5 20 0 16-12 32t-32 30q-20 14-48 25.5a309.6 309.6 0 0 1 -59 17.5q-40 8-54 21a65.94 65.94 0 0 0 -19 30l-9 30a225.3 225.3 0 0 1 -13.5 40q-8.5 19-8.5 36 0 55 84 89 84 36 196 36 37 0 59-13t24-35a91.2 91.2 0 0 1 13.5-40.5 120.52 120.52 0 0 1 29-32 135.94 135.94 0 0 1 39.5-21 138.58 138.58 0 0 1 45-7.5q40 0 121 27 81 29 112 29 18 0 31-8 13-9 28-55 7-23 11-42t4-33l-2-34a96.77 96.77 0 0 1 2.5-22.5 168.79 168.79 0 0 1 6.5-21q4-10.5 7-21a81.57 81.57 0 0 0 3-22.5v-20a48.67 48.67 0 0 1 4-20 137.68 137.68 0 0 1 9-17 158.78 158.78 0 0 0 9-16.5 45.27 45.27 0 0 0 4-19.5q0-16-27-48-29-31-29-49 0-33 44-65 28-17 40-32.5t12-43.5zm1275 270a897.9 897.9 0 0 1 -14.5 161.5 745.39 745.39 0 0 1 -44 151 634.46 634.46 0 0 1 -74 132.5 521.32 521.32 0 0 1 -104.5 107l-35 28q-18 14-30.5 24.5t-19.5 19.5a60.86 60.86 0 0 0 -10 18 63 63 0 0 0 -3 20q0 21 29 85 27 63 27 86 0 35-40 53-148 71-406 71a1038.85 1038.85 0 0 1 -150-10.5q-72-10.5-140-24.5l-52-11q-71-15-106.5-37t-35.5-56q0-18 33-56l35-41q71-82 71-144l-2-29q-5-15-48.5-33t-121.5-46l-66-23-8-6q-30-19-38-19l-51 6q-94-5-160-28-29-9-56-9a74.87 74.87 0 0 0 -18 2.5 69.75 69.75 0 0 0 -18.5 7.5 46.42 46.42 0 0 0 -14.5 13.5q-6 8.51-6 21.5l2 16q26 74 56 118l89 127q32 45 50.5 76t18.5 54q0 71-178 107-176 34-318 34-181 0-339-55-157-55-157-141 0-21 8-47t23-58q46-96 113-274 34-91 48.5-160.5t12.5-120.5q-1-16-11-41t-33-59q-7-11-21.5-35.5t-34.5-64.5a805.82 805.82 0 0 1 -33.5-73.5 658.64 658.64 0 0 1 -22-65.5 461.27 461.27 0 0 1 -12.5-61 452.94 452.94 0 0 1 -4-60q0-138 79-275 81-139 212-218.5t313-79.5a661.91 661.91 0 0 1 142.5 15.5 1312.8 1312.8 0 0 1 143.5 40.5q123 41 209.5 124t121.5 210q4 11 6 41.5t4 78.5q3 88 16 88t36-28q58-71 115.5-120t118-79a520.36 520.36 0 0 1 125-43.5q64.5-13.5 135.5-13.5 169 0 320 76 152 75 238 224t86 308z"/></svg>