<svg viewBox="0 0 2089.4 1735" xmlns="http://www.w3.org/2000/svg"><path d="m1920.4 1259q0-57-31-111a259.51 259.51 0 0 0 -82-88q-58 161-162 238.5t-264 77.5q-78 0-139-11-100 39-100 123 0 23 12.5 44a121.59 121.59 0 0 0 34 36.5q21.49 15.49 50.5 25a198 198 0 0 0 62 9.5h20l21-3q107-14 189.5-32.5t141.5-41.5q59-23 105-53.5t77.5-66q31.5-35.51 48-73t16.5-74.5zm-905-6 42 2q42 3 71.5-11.5a112.23 112.23 0 0 0 46.5-41.5q17-28 27-78t8-124l-8-293q-3-104 16-155.5t54-51.5q48 0 46 62l-2 147q-2 100 6 185t22 157q28 144 118 144 76 0 137-85 60-85 88.5-211.5t28.5-279.5q0-49-4.5-104.5t-19.5-116.5q-19-76-51-127t-72-80q-40-29-84.5-43t-97.5-14q-137 0-203 57l-94-27a200.7 200.7 0 0 0 -44.5-8.5q-21.5-1.5-39.5-1.5-57 0-99.5 24.5t-82.5 60.5a343.64 343.64 0 0 0 -124-23 348 348 0 0 0 -90 12 299 299 0 0 0 -81 36 218.33 218.33 0 0 0 -28.5 21.5q-11.5 10.5-13.5 17.5-14-7-35-11t-50-4q-133 0-199 96-65 95-65 324 0 184 76 345 78 161 163 161a97.27 97.27 0 0 0 19-2 59 59 0 0 0 18.5-7 49 49 0 0 0 14.5-13q6-8 6-20l-6-33q-18-55-33-142-7-45-10-89t-3-89a809.88 809.88 0 0 1 5.5-98q5.5-45 16-77.5t25-50.5q14.5-18 31.5-18 24 0 21 46l-6 169a562.27 562.27 0 0 0 9.5 130.5 1273.13 1273.13 0 0 0 33.5 135.5q44 139 89 176 46 37 104 37a141.91 141.91 0 0 0 41-6 121.38 121.38 0 0 0 35-16.5 95.08 95.08 0 0 0 24.5-24.5 52.46 52.46 0 0 0 9.5-30q0-24-13-49-45-117-45-394 0-147 13-180 12-36 45-36 38 0 38 55 0 303 42 481 22 89 50 135.5t63 48.5zm1074-43a419.22 419.22 0 0 1 -21 132.5q-21 63.49-64 118.5t-109 100q-66 45-155 77l-65 24-65 20q-35 11-74 21t-81 17q-84 15-138 15-57 0-106.5-8t-91.5-26q-43-18-75-44t-53.5-56.5a232.25 232.25 0 0 1 -32-63.5q-10.5-33-10.5-63-83 21-150 21-186 0-344-67-162-68-251-181a960 960 0 0 1 -187-406 823.87 823.87 0 0 1 -16-151 678.6 678.6 0 0 1 6-117 990.5 990.5 0 0 1 22-111q15-55 35.5-97t45.5-74l38-48q12-15 33-30.5t49.5-28.5a334.84 334.84 0 0 1 62.5-21 318.37 318.37 0 0 1 73-8l61 6 9-10q24-28 49.5-45.5a240.12 240.12 0 0 1 52.5-27.5 265 265 0 0 1 56-14 438.22 438.22 0 0 1 60-4 589.43 589.43 0 0 1 69 4 607.2 607.2 0 0 1 68 12l6 3 15-11q72-66 213-66 126 0 208 47 92-49 215-49 128 0 228.5 61t158.5 178q28 57 50.5 115a1056.5 1056.5 0 0 1 38 118 982.37 982.37 0 0 1 23.5 124 1081.14 1081.14 0 0 1 8 134q0 40-2.5 81.5t-7.5 86.5q55 49 99 137 23 45 34.5 87.5a333.35 333.35 0 0 1 11.5 87.5z"/></svg>