<svg viewBox="0 0 1768 1770" xmlns="http://www.w3.org/2000/svg"><path d="m1097 1699q0 71-58 71-43 0-92-60-45-55-82-93t-64-60q-57-45-116-66.5t-133-21.5a633 633 0 0 0 -72 4q-35 4-69.5 9.5t-69.5 9.5a624 624 0 0 1 -71 4q-82 0-82-56 0-61 138-127 138-67 291-67 115 0 205 49 45 24 90.5 68t91.5 109q93 128 93 227zm671-971q0 34-47 80l-54 54q-63 60-106 108.5t-65 88.5q-43 77-43 178 0 70 34 213 3 12 5 24.5a155.3 155.3 0 0 1 2 24.5q0 32-17.5 57t-42.5 25q-17 0-35.5-11t-37-30.5q-18.49-19.5-36-47a490.34 490.34 0 0 1 -32.5-60.5 715.16 715.16 0 0 1 -46-140.5q-16-73.5-16-139.5 0-108 73-216a545.18 545.18 0 0 1 85.5-101q49.5-46 112.5-84 127-77 197-77 36 0 56 21 13 16 13 33zm-1256-85q0 110-67 216-67 107-190 190-126 84-192 84a77.43 77.43 0 0 1 -43-13q-20-13-20-39a87.22 87.22 0 0 1 10.5-41q10.5-20 30.5-41l84-91q80-87 120-165t40-160q0-76-45-238-11-39-11-56 0-32 17-55t40-23q44 0 95 63 26 32 48 76t42 101q41 117 41 192zm101-577q0-66 56-66 23 0 46.5 13t49.5 42q59 66 107.5 110t89.5 66a326.84 326.84 0 0 0 86 33.5 408 408 0 0 0 93 10.5 595.65 595.65 0 0 0 141-17q133-30 179-30 76 0 76 56 0 67-154 143-152 75-298 75-56 0-105.5-12.5a368.4 368.4 0 0 1 -94.5-38.5q-44-26-89-68.5t-91-102.5q-92-117-92-214z"/></svg>