<svg viewBox="0 0 2036 2102" xmlns="http://www.w3.org/2000/svg"><path d="m777 1055q27 0 47.5-25t20.5-61q0-36-21-60.5t-50-24.5q-30 0-50 25t-20 61q0 38 20.5 61.5t52.5 23.5zm1259 456q0 108-94 180-92 71-228 71-119 0-208-52l8 22 34 315v5q0 20-11 33.5t-31 16.5h-6q-20 0-33.5-12t-15.5-32l-33-300-67-204-37 5 19 161v5l-1 14-89 287q-11 36-46 36-22 0-36-16t-14-33q0-8 88-293l-21-175q-52-21-89-81l-120 192-10 11-218 183q-15 12-32 12t-33-12q-16-12-16-36 0-23 18-38l212-179 147-234q-96 35-175 35-141 0-238-82 41-26 67-59t26-58q0-22-11-36.5t-27-14.5q-17 0-36 18-18 18-91 67-78-123-78-275 0-192 138-317l-244-303-321 305q-15 14-34 14-20 0-34.5-14.5t-14.5-34.5q0-21 16-36l360-342a46.88 46.88 0 0 1 33-13q22 0 39 17l279 349q27-15 50.5-26t44.5-19l-134-438-490 17q-20 1-35.5-13.5t-15.5-34.5q0-19 10-30 10-15 26-18 8-2 142.5-11.5t397.5-9.5h3q35 0 45 35l148 480 57-4a264 264 0 0 1 110.5 13.5 510 510 0 0 1 104.5 50.5q101 63 164 171 62 106 62 212v18l16-32-11-227a47.88 47.88 0 0 1 12-35q13-15 33-15 21 0 36 12t16 33l13 241v4l-6 20-89 174 15 11 56-84 115-113q14-14 33-14 21 0 35 14.5a48 48 0 0 1 14 34.5q0 21-13 35l-104 102-74 108 9 19 130-115a66 66 0 0 1 26-12l247-37h8a46.3 46.3 0 0 1 34 14q14 14 14 35 0 41-41 47l-233 36-27 24 16-1h17q130 0 225 74 97 73 97 182z"/></svg>