<svg viewBox="0 0 2158.17 1972.67" xmlns="http://www.w3.org/2000/svg"><path d="m177.14 577.67 322 1152 75-664zm389-445-368 188 445 63zm580 22-480-31 87 288 515 366 526 145 197-13-274-421zm-479 972-74 644 682-335zm-12-642-16-3-260 186 214 264zm31 492 457-169-395-279zm725 355 290-334-388-107zm337 94 271 30-230-390q-9 45-13.5 90.5t-8 90.5q-3.5 45-8 89.5t-11.5 89.5zm-434-81-102-455q-59 111-210 298zm706-339-148 10 159 269zm138 512q1 22-34 50a271.62 271.62 0 0 1 -31 22.5q-14 8.49-25 10.5l-1506 368-27 4q-41 0-72-22.5t-42-63.5l-416-1492a79.78 79.78 0 0 1 -5-33 127 127 0 0 1 17.5-60.5 108.63 108.63 0 0 1 46.5-43.5l477-244a176.62 176.62 0 0 1 27-11 61.12 61.12 0 0 1 27-2l559 38a162.43 162.43 0 0 1 26.5 4 87.83 87.83 0 0 1 25.5 11l569 334a112.35 112.35 0 0 1 40 37l302 462q15 22 18 52 1 14 8 158.5t15 420.5z"/></svg>