<svg viewBox="0 0 1566 1733" xmlns="http://www.w3.org/2000/svg"><path d="m1429 1309q0-51-33.5-129t-98.5-187q-30-50-50-94t-34-82q-14-38-37.5-105t-55.5-164q-32-97-58.5-161t-46.5-97a312 312 0 0 0 -46-61 355.19 355.19 0 0 0 -57.5-48.5 277 277 0 0 0 -63.5-32q-33-11.5-64-11.5-77 0-149 57-74 57-114 153-20 48-38.5 97.5t-35.5 102.5q-36 109-61.5 180.5t-39.5 109.5q-14 37-33 76t-44 80q-37 63-63 110.5t-41 82.5q-28 68-28 122a285.31 285.31 0 0 0 6.5 61.5 315.11 315.11 0 0 0 16.5 53.5q10 24 22.5 41t25.5 23a307.81 307.81 0 0 0 47.5 18.5 156.61 156.61 0 0 0 43.5 6.5 168.44 168.44 0 0 0 34-3.5q17-3.49 34.5-7.5t37-7.5a241.31 241.31 0 0 1 42.5-3.5q41 0 70.5 8a313.07 313.07 0 0 1 53.5 19.5 367.33 367.33 0 0 1 45 25.5 386.56 386.56 0 0 0 44.5 25.5 301.76 301.76 0 0 0 52.5 19.5q29 8 69 8t70-8a325 325 0 0 0 54.5-19.5 350.88 350.88 0 0 0 45.5-25.5 386.56 386.56 0 0 1 44.5-25.5 306.29 306.29 0 0 1 52-19.5q28.5-8 66.5-8a289.82 289.82 0 0 1 41 3q21 3 45 8 23 5 39 8a150.81 150.81 0 0 0 27 3 152.79 152.79 0 0 0 39-5 333.74 333.74 0 0 0 39-13q20-9 35.5-27.5a183.52 183.52 0 0 0 26.5-43 238.07 238.07 0 0 0 16.5-54 329.12 329.12 0 0 0 5.5-60.5zm137 0q0 108-41 189-40 82-117 117-77 36-141 36a246 246 0 0 1 -46-4q-21-4-39.5-8.5t-34.5-8.5a123.89 123.89 0 0 0 -30-4q-36 0-65 16.5t-64.5 37q-35.5 20.51-84 37t-121.5 16.5q-73 0-121-16.5t-83-37q-35-20.51-64-37a125.22 125.22 0 0 0 -63-16.5l-33 5q-83 20-119 20-66 0-142-36a219.87 219.87 0 0 1 -67-49 295.21 295.21 0 0 1 -49-71.5q-20-40.5-30.5-89a468.88 468.88 0 0 1 -10.5-99.5q0-60 25.5-133t76.5-164l50-87q20-36 36.5-69t28.5-64q13-32 38-106t68-191l67-184q27-74 69-131.5t94-96.5q52-39 110.5-59.5a356 356 0 0 1 118.5-20.5q34 0 72 9a410.75 410.75 0 0 1 148.5 69 438.22 438.22 0 0 1 65.5 59q62 66 100 153 40 87 131 364 30 90 55 149t44 90q45 73 77 132.5t52 105.5q39 93 39 178z"/></svg>