<svg viewBox="0 0 1750.16 1719" xmlns="http://www.w3.org/2000/svg"><path d="m244.16 1167-2-59q-2-91 3.5-278.5t13.5-472.5l5-205q2-40-20-40l-15 4q-28 11-38.5 33t-11.5 63l-1 41q-10 303-23.5 547t-13.5 431q0 83 19 83 10 0 13-12 6-35 31-46a69.42 69.42 0 0 0 30.5-29q10.5-19 9.5-60zm339-873v148q0 15 9.5 24.5a31.93 31.93 0 0 0 23.5 9.5h610a29 29 0 0 0 29-29v-5l-15-148a38 38 0 0 0 -12.5-23.5 35.39 35.39 0 0 0 -24.5-9.5h-587a32.45 32.45 0 0 0 -33 33zm1021 1297-3-24a233.56 233.56 0 0 1 -12-45.5 218.64 218.64 0 0 1 -2-51.5l6-69q1-10-1.5-15.5t-7-7.5a31.45 31.45 0 0 0 -10-2.5 51 51 0 0 1 -11.5-2.5q-44-5-289-7t-692-2h-210q-49 0-82.5 8.5t-54 26a98.8 98.8 0 0 0 -29.5 43q-9 25.5-9 58.5a157.25 157.25 0 0 0 15.5 68.5q15.5 32.51 49.5 46.5 29 13 388 13 316 0 591-6 276-6 328-9 35-3 35-22zm146-320q0 40-17 65t-49 25q-8 0-5 34l8 105a138.15 138.15 0 0 0 3.5 21 98.1 98.1 0 0 0 7.5 20q15 29 23 50t8 37q0 34-18.5 52t-50.5 26q-16 3-71 6t-152 5q-97 2-256 2h-385q-545 0-580-11-40-11-72-27.5t-55-39.5q-46-45-68-110-23-65-21-182l8-448q4-181 12.5-341t28.5-302q33-221 251-241 102-8 266-12.5t392-4.5q102 0 203.5 5.5t204.5 10.5l73 4q153 9 185 104a162.59 162.59 0 0 1 7.5 25q2.5 12 4.5 26 5 25 40 343 17 159 35.5 346t38.5 407z"/></svg>