<svg viewBox="0 0 2086 2155" xmlns="http://www.w3.org/2000/svg"><path d="m1231 2032q-38-92-38-232 0-29 1-54a418.94 418.94 0 0 1 4-45q-29 0-73.5-7.5t-104.5-27.5l-335-106q-90-29-167-57t-141-49.5q-64-21.49-116.5-35t-92.5-13.5q-21 0-44 17a443.25 443.25 0 0 0 -6 73q0 100 43.5 166t117.5 92q96 32 226 73.5t297 91.5q330 99 429 114zm495-1646q0-25-23-42-22-16-148-58-63-21-133.5-42t-149.5-43q-160-44-268-63.5t-157-19.5a296.65 296.65 0 0 0 -53.5 4.5 270 270 0 0 0 -42.5 11q-18 6.5-29 13.5t-15 13q-159 244-529 1127 73 10 175 38t235 76q48 17 127.5 44t191.5 64q113 38 187 56t110 18q20 0 37-15t30-47l425-1023q16-38 23-65.5t7-46.5zm166 644-2 4q112 35 196 85l-63 177a1589.21 1589.21 0 0 0 -186.5-71.5q-94.5-29.5-190.5-61.5l-33-11 72-165 91 17q11-31 16-56.5a248 248 0 0 0 5-47.5q-43-99-53-213l-369 891a216.34 216.34 0 0 1 -37.5 59.5q-23.5 26.5-57.5 43.5-9 81-9 121 0 133 44 227a97.48 97.48 0 0 0 23-26q28-44 115-240.5t234-546.5l113 36q-155 368-246 571.5t-116 243.5q-57 88-149 88-35 0-84.5-8.5t-117.5-25.5q-66-17-170.5-46.5t-249.5-74.5q-143-44-249-77.5t-177-59.5q-62-21-122-73a327.37 327.37 0 0 1 -90-129.5q-29-75.5-29-166.5 0-50 6-81.5t8-34.5q0-9 82-207 41-100 88.5-210t102.5-233q55-123 101.5-220.5t84.5-172.5q38-74 72-134t64-106q27-43 89.5-69t148.5-26q66 0 166 18.5t237 54.5q137 36 249 70t201 68q106 40 137 127 6 16 12 152 5 85 9 142.5t9 87.5a639.75 639.75 0 0 0 14.5 63 606.86 606.86 0 0 0 25.5 72q8 18 8 52 0 35-9 77-11 42-14 46z"/></svg>