<svg viewBox="0 0 2206 1407.12" xmlns="http://www.w3.org/2000/svg"><path d="m1640 180.12 5 30 5 45q0 74 10 91 13 12 62 12 128 0 195.5-26t67.5-71q0-50-53-75.5t-151-25.5q-59 0-98.5 6t-42.5 14zm-1305 656-25-5a32.77 32.77 0 0 0 -24 10q-10 10-10 26 0 23 23.5 40.5t70.5 34.5l37 14a1298.36 1298.36 0 0 0 170.5 49.5q85.5 18.51 177.5 18.5 199 0 382-83t340-250l164-176q18-18 18-38 0-6-4.5-13.5a58.48 58.48 0 0 0 -12-14 97.67 97.67 0 0 0 -16.5-11.5 38.58 38.58 0 0 0 -19-5q-15 0-38 25t-36 25q-22 0-60-32-181-148-442-148a149.64 149.64 0 0 0 -43.5 6.5 291.15 291.15 0 0 0 -45.5 18.5q-46 24-90 71-21 23-32.5 38.5t-11.5 24.5q0 30 33 33 134 9 239 33t180 71l22 14q50 32 50 60 0 14-9 29t-29.5 32.5q-20.51 17.5-53 39t-80.5 48.5a803.19 803.19 0 0 1 -198.5 80.5 841.22 841.22 0 0 1 -209.5 26.5q-42 0-85-4a724.92 724.92 0 0 1 -85-13q-42-9-98-25.5t-127-42.5zm1871 162q0 48-11 67-5 10-28 23t-63 31q-81 35-161.5 52a779.18 779.18 0 0 1 -161.5 17q-30 0-30-42l-2-15q-50 0-101 55-60 64-171 117a812.08 812.08 0 0 1 -116.5 45 1370.16 1370.16 0 0 1 -133.5 33q-70 14-158 20t-195 6q-540 0-836-152-38-19-38-72 0-112 20-112 15 0 32 12 29 22 70 42.5t94 38.5a1065.2 1065.2 0 0 0 115 31q61 13 130 21t165.5 12q96.5 4 224.5 4 482 0 823-204 65-38 147-43a741.65 741.65 0 0 0 82-11.5 674.6 674.6 0 0 0 93-25.5q98-35 160-92 9-7 17-7 33 0 33 149zm-2112-35v-6q18-66 27-85 6-9 12-17.5a128 128 0 0 1 14-16.5q85-81 296-139 102-29 171-65t111-89q14-19 13-49l-1-28a91.61 91.61 0 0 1 3.5-31.5 125.08 125.08 0 0 1 15-32 336.38 336.38 0 0 1 27-36q16.5-19.5 40.5-43.5 49-49 90.5-74.5t75.5-23.5l23 1q15 1 26-15 5-6 9.5-12.5a99.64 99.64 0 0 1 11.5-13.5l97-98q42-43 95.5-65.5t120.5-23.5q66-2 123 28.5t89 84.5q6 13 24 13l13-2q94-23 216-23 27 0 53 1t52 4q87 10 160 136 37 63 58 149t16 198l-4 102-26 31q-140 140-408 186-87 15-257 103-127 66-294.5 102.5t-365.5 36.5q-154 0-295.5-21a1886.16 1886.16 0 0 1 -275.5-62q-156-48-156-104z"/></svg>