<svg viewBox="0 0 1530 2423" xmlns="http://www.w3.org/2000/svg"><path d="m671 1077a53.28 53.28 0 0 0 16-2.5 67.57 67.57 0 0 0 17.5-9 285.64 285.64 0 0 0 23-18q13.5-11.5 32.5-30.5l24-20-59 5a195.61 195.61 0 0 1 -50.5-2.5q-24.5-4.5-47.5-10.5 3 12 5.5 27.5a185 185 0 0 0 7 29 68.66 68.66 0 0 0 12 22.5 24.19 24.19 0 0 0 19.5 9zm-65-443q20 0 37.5 12t17.5 35q0 25-16.5 39.5a56.49 56.49 0 0 1 -38.5 14.5q-23 0-38.5-14.5t-15.5-36.5q0-17 12.5-33.5t41.5-16.5zm238 0q21 0 38.5 13.5t17.5 36.5q0 22-16 36.5t-40 14.5q-20 0-37-14.5t-17-37.5q0-21 14-35t40-14zm591 975q0-45-27-64t-63-17l-41 3q-18 2-44 29-24 24-24 45 0 17 20 26l25 5 19 25q14 14 59 14 76 0 76-66zm-1212-1297q0 66 77 66 43 0 64-14a84.09 84.09 0 0 0 33-40q5-12 7-37.5t4-63.5l4-66q2-30-7-45.5t-26-15.5q-23 0-35 48a227.66 227.66 0 0 1 -10.5 30.5q-5.5 12.5-11.5 17.5-12 10-52 28a59.15 59.15 0 0 0 -18.5 15 113.81 113.81 0 0 0 -15 23 128.9 128.9 0 0 0 -10 27.5 113.94 113.94 0 0 0 -3.5 26.5zm162 791 10-20s4.67-10.33 14-31q17-37 17-46 0-8-8.5-15t-19-15.5a164 164 0 0 1 -19-18 31.36 31.36 0 0 1 -8.5-21.5q0-25 64-63-71-83-71-198l4-39q-5-23-8-44t-1-38l2-46q3-32-17-32l-29 4-71 2-33-6q-16 0-15 22l1 18v50a719.36 719.36 0 0 0 17.5 158q17.5 78 60.5 153l25 42q27 47 45.5 80.5t25.5 56.5q14 28 14 47zm76 241-5 50q0 33 23.5 48.5t72.5 17.5l131 3 26-2q0-176 33-320v-7q0-13-15-13-21 0-35 9.5t-28 9.5a37.31 37.31 0 0 1 -23-7.5q-10-7.5-21-14.5a134.28 134.28 0 0 0 -18-15q-10-7-22-15l-60-39q-11-6-20-6-18 0-17 21l2 21q2 36-5.5 100.5t-18.5 158.5zm527-613-4-43q0-24-1.5-42a229.92 229.92 0 0 0 -5-33 188.84 188.84 0 0 0 -9-28.5 169.1 169.1 0 0 0 -14.5-27.5q-16-20-43.5-30.5t-67.5-7.5l-114 6-79-6-37-7-38-4q-51 0-85 53-33 51-33 114 0 101 77 169 75 66 191 66 48 0 90.5-12a270.18 270.18 0 0 0 77-35 231.87 231.87 0 0 0 59-56.5 237 237 0 0 0 36.5-75.5zm257 655-3 38q-1 20 12.5 26t50.5 6h93q3-11 5-22.5a149.78 149.78 0 0 0 2-25.5q0-53-27-137-26-82-85-156-60-75-150-118-95-43-141-43-26 0-26 23 0 15 11 31t11 32q0 27-52 45-51 18-81 22-25 3-34.5 11.5t-9.5 25.5q0 15-11 76-11 60-9 95l4 98 11 141q3 41 15 67t34 26q32 0 97-20 66-21 66-33l-6-18q-11-23-20-41.5t-14-43.5q-8-48-17.5-95t-9.5-102q0-169 52-169a341.56 341.56 0 0 1 98 14q47 14 77 40 30 27 43 67 8 20 13 54.5t1 85.5zm-276 343-17 3q-42 7-70 11.5t-43 4.5q-58 0-75-52l-33-94-3-19q-2-45-34-42l-36 2-146-8q-38-2-71 24.5t-77 84.5l-37 50a585.56 585.56 0 0 0 -99.5 198.5 760.43 760.43 0 0 0 -23 116q-7.5 61.5-7.5 133.5 0 34 17 46 9 6 31.5 10t59.5 2l67-3 63 4q25 2 37.5-5t12.5-19a45.72 45.72 0 0 0 -2-13.5q-2-6.49-5-14.5-5-7-11.5-28t-16.5-55q-9-34-14-62.5t-5-49.5q0-78 51-156 51-77 112-108 16-9 16-20l-5-20q0-14 14-14 16 0 50 22t63.5 62.5q29.5 40.5 61.5 114.5 79 186 194 244l174 114q28 19 54 19 43 0 78-44a145.2 145.2 0 0 0 27-46.5 156.62 156.62 0 0 0 9-52.5q0-38-8.5-57.5t-33.5-27.5l-69-22q-35-11-61-18.5t-41-13.5a152 152 0 0 1 -28-12.5 271 271 0 0 1 -24-15.5q-25-17-42.5-45.5t-26.5-73.5q-11-54-27-54zm561-115q0 54-45 102-47 47-99 47l-71-8a350.76 350.76 0 0 1 -44-7.5q-18-4.5-29-15.5a72.18 72.18 0 0 0 -11-9 80.22 80.22 0 0 0 -13-7q-35-17-53-38t-18-57q0-18 7-38a104.26 104.26 0 0 1 9.5-23.5 110.67 110.67 0 0 1 11-16q5.51-6.49 9.5-12a19.26 19.26 0 0 0 4-11.5q0-12-13-22t-13-23l1-80q1-51-6-83t-19-48q-23-31-49-31-31 0-31 90 0 23 2 52.5t7 67.5q10 73 18 95a257.19 257.19 0 0 0 11 27q7 15 14 30.5a245.06 245.06 0 0 1 11.5 30.5 97.75 97.75 0 0 1 4.5 28q0 14-26 33-27 20-27 50 0 63 42.5 100t129.5 54q97 20 123 45 28 25 40 85 0 12 5.5 13.5t13.5 6.5q45 32 45 71a72.77 72.77 0 0 1 -4 25 128.38 128.38 0 0 1 -9.5 20.5q-5.51 9.49-10 17.5t-4.5 15q-4 39-10.5 67t-17 48.5a123.72 123.72 0 0 1 -25.5 34.5 173.62 173.62 0 0 1 -35 25q-41 24-111 25-36 1-61 3t-39 4a132.14 132.14 0 0 1 -25-2.5 97.38 97.38 0 0 1 -23.5-7.5 45.61 45.61 0 0 1 -17-13.5q-6.5-8.5-6.5-20.5 0-28 26-51a27.87 27.87 0 0 1 9.5-4.5q5.51-1.5 11.5-3a42.94 42.94 0 0 0 10.5-4q4.5-2.51 6.5-8.5 0-5-7-12-3-3-18.5-15t-44.5-29l-94-55q-63-36-107-74.5t-74-73.5a585.83 585.83 0 0 1 -52.5-72 366.15 366.15 0 0 1 -37.5-82q-17-57-27.5-86t-18.5-29q-10 0-50 37t-58 75q-18 38-18 73a157.34 157.34 0 0 0 11 58l20 58 19 70 19 69 6 25a38 38 0 0 1 -6.5 21 68.6 68.6 0 0 1 -17.5 18 101 101 0 0 1 -24.5 13 81.47 81.47 0 0 1 -28.5 5q-12 3-12 14v43q0 40-19.5 52t-68.5 12q-24 0-30-10t-12-12l-15 4q-90 44-205 44-78 0-122-15t-44-41q0-32 63-55l26-10 67-34q-4-7-11-7h-8a79.51 79.51 0 0 1 -24-6 90.7 90.7 0 0 1 -21.5-12.5 77.15 77.15 0 0 1 -16-17 37.2 37.2 0 0 1 -6.5-21.5q0-14 3.5-43t11.5-71q8-42 18-87.5l21-95.5q24-99 46-138a309.43 309.43 0 0 1 26-39.5q15-19.5 32-39.5 8-9 15-18t7-18q0-19-14-26a232.49 232.49 0 0 0 -30.5-12.5 135.26 135.26 0 0 1 -30.5-14.5q-14-9-14-33a182.66 182.66 0 0 1 10-60 390.17 390.17 0 0 1 25-57 607.51 607.51 0 0 1 33-54.5q18-26.51 33-53.5a368.3 368.3 0 0 0 25-55 168.27 168.27 0 0 0 10-57q0-86-88-255-35-69-58-117.5t-33-78.5q-19-60-21-116l-5-171q-2-45 7-75t25-47a30.41 30.41 0 0 0 10-18 74.48 74.48 0 0 0 -2-18q-2-8-5-16.5a134.91 134.91 0 0 1 -5-18.5 112.66 112.66 0 0 1 -2-22 119.5 119.5 0 0 1 5.5-37q5.5-17 18-34t33.5-35.5q21-18.5 53-42.5 12-10 22-19.5a108.94 108.94 0 0 0 17-20.5q60-89 114-89 37 0 67 26 31 26 44 63 12 35 12 155v26l-1 27q63-66 172-66 79 0 171 33 91 32 156 100 32 35 52.5 69.5t28.5 70.5q0 4 1.5 20.5t3 37.5q1.5 21 3 43.5t1.5 38.5q0 105-24 136-14 41-44 82 15 3 28.5 7t27.5 9q25 10 103 48a707.85 707.85 0 0 1 69.5 39.5q31.5 20.5 58.5 41.5 40 30 75 77.5a618.63 618.63 0 0 1 60.5 101 568.55 568.55 0 0 1 39 108q13.5 54.5 10.5 99.5l-6 90q-1 29 10 48 29 52 29 83z"/></svg>