<svg viewBox="0 0 2244 1900.72" xmlns="http://www.w3.org/2000/svg"><path d="m1878 883q0-76-48-118-24-20-68-34t-110-17l-135-5-211-15q-20-2-32.5 5.5t-12.5 19.5q0 44 245 67l150 13q55 5 82.5 25t27.5 59a185.46 185.46 0 0 1 -9.5 58q-9.49 29-16.5 51-35 102-144 162-107 58-254 58-182 0-286-73-46-33-63-33-18 0-18 20 0 35 86 86a716.46 716.46 0 0 0 83 43.5 534.41 534.41 0 0 0 78 27.5 505.29 505.29 0 0 0 76.5 14 778.47 778.47 0 0 0 80.5 4 566.33 566.33 0 0 0 99.5-9 574.12 574.12 0 0 0 98-26.5 605.41 605.41 0 0 0 90.5-42 431.84 431.84 0 0 0 78-56.5q36-32 61-67.5a334.78 334.78 0 0 0 40-75.5q32-82 32-141zm-1337-275a62.56 62.56 0 0 0 30-7.5 74.34 74.34 0 0 0 24-20.5 107.43 107.43 0 0 0 16-30 104.4 104.4 0 0 0 6-35q0-38-22-65.5t-54-27.5a69.25 69.25 0 0 0 -30.5 7 72.2 72.2 0 0 0 -25 20 109.68 109.68 0 0 0 -17 30 102.83 102.83 0 0 0 -6.5 37q0 42 23.5 67t55.5 25zm1576-22q31 0 55 12a115.52 115.52 0 0 1 40 32.5q16 20.5 24 48.5a213.88 213.88 0 0 1 8 59q0 226-258 521a971.61 971.61 0 0 1 -189.5 167q-105.5 71-234.5 117a474 474 0 0 0 46 35.5q23 15.49 47 29.5 46 27 46 72a107.2 107.2 0 0 1 -2 21 53.33 53.33 0 0 1 -7 18q-2 4-14 21.5t-34 46.5q-44 59-74 88.5t-52 24.5a67.94 67.94 0 0 1 -24-4.5 88 88 0 0 1 -22.5-12.5 65.81 65.81 0 0 1 -17-19 48.24 48.24 0 0 1 -6.5-25q0-22 15.5-42.5a421.26 421.26 0 0 1 34.5-40 421.26 421.26 0 0 0 34.5-40q15.5-20.5 15.5-43.5 0-42-82-99a1257.58 1257.58 0 0 1 -160 32 1278.51 1278.51 0 0 1 -170 11q-44 0-80-1.5t-66-5.5l-15 35a486.52 486.52 0 0 0 -38.5 78.5 392.36 392.36 0 0 0 -20.5 75.5q-9 58-28.5 79.5t-60.5 21.5a122.56 122.56 0 0 1 -37-6l-101-33-33-14q-34-14-52-31.5t-18-43.5a78.92 78.92 0 0 1 14-45.5q14-20.51 44-20.5 26 0 76 22 51 23 74 23a60.52 60.52 0 0 0 35-11 116.73 116.73 0 0 0 14-14.5 124 124 0 0 0 13-19.5q6-11 15-38.5t22-70.5q-319-60-491-282-173-222-173-573l-83-33-84-36q-8-2-18.5-5.5a156.52 156.52 0 0 1 -20.5-8.5 70.75 70.75 0 0 1 -16.5-11q-6.5-6-6.5-14 0-19 45-34l102-37 103-40q23-133 115-267 46-68 102.5-116.5a527.71 527.71 0 0 1 124-79.5q67.5-31 146.5-45.5t171-14.5a677.51 677.51 0 0 1 151.5 17.5q76.5 17.5 156.5 52.5 79 35 135.5 76.5t94.5 89.5l98 124a1328 1328 0 0 0 90.5 102 614.54 614.54 0 0 0 98.5 81q104 70 190 70 39 0 95-13a345 345 0 0 1 52.5-11 375.92 375.92 0 0 1 45.5-3z"/></svg>