<svg viewBox="0 0 2172 1979" xmlns="http://www.w3.org/2000/svg"><path d="m1032 279-131 107 493 56-112-137zm96 1133q-9 137-107 233-99 99-237 99-142 0-246-100t-104-246q0-105 60-194a340.42 340.42 0 0 1 72.5-78.5q41.5-32.5 94.5-53.5a374.28 374.28 0 0 0 -61.5 49 321.87 321.87 0 0 0 -82.5 136.5 282.22 282.22 0 0 0 -12 82.5q0 138 95 229 93 90 221 90 108 0 197-72t110-175zm-796-14a541.86 541.86 0 0 0 16 114.5q14 55.5 45 109.5a446.43 446.43 0 0 0 73.5 94.5 468.35 468.35 0 0 0 92.5 70.5 445 445 0 0 0 107 44.5 471.12 471.12 0 0 0 116 16.5q94 2 176.5-36t143.5-101.5a480.2 480.2 0 0 0 96-145.5q35-82 34-169-2-121-60-224a428.2 428.2 0 0 0 -72-93 470.54 470.54 0 0 0 -94-71q-53-31-108.5-45.5a521.07 521.07 0 0 0 -114.5-16.5 382.59 382.59 0 0 0 -114.5 15.5 459.85 459.85 0 0 0 -107.5 47 480.69 480.69 0 0 0 -93.5 73 504.25 504.25 0 0 0 -73.5 93 436.54 436.54 0 0 0 -47.5 107.5 369.7 369.7 0 0 0 -14.5 116zm1840-904v886q0 37-28 68l-232 262q-30 41-81 41l-14-2-390-43q125-174 125-389 0-88-22.5-169t-66.5-158q-88-152-242-241-78-44-159.5-66.5t-170.5-22.5q-115 0-216.5 36t-193.5 108q-182 141-233 359 48-109 153-208a867.31 867.31 0 0 1 113-90.5 809.44 809.44 0 0 1 125-68.5q133-60 251-60 151 0 287 80 138 82 215 214 78 134 78 289 0 140-58.5 258.5t-164.5 197.5l-118 88q-156 116-350 116-191 0-345-112-153-113-209-298l-73-8q-71 0-111.5-63t-40.5-175v-637q0-81 4-139.5t13-93.5a539.43 539.43 0 0 1 56-137q38-66 104.5-120.5t156.5-98.5a280 280 0 0 1 69-23 386.59 386.59 0 0 1 74-7h16l81 7 428 48 175-118 14-4h5l434 45q11 0 22 9l158 161 160 17q46 5 83 26.5a216.72 216.72 0 0 1 63.5 56q26.51 34.5 41 80t14.5 99.5z"/></svg>