<svg viewBox="0 0 2100 1375" xmlns="http://www.w3.org/2000/svg"><path d="m646 1111a143.54 143.54 0 0 0 -2.5-25 295.94 295.94 0 0 0 -7.5-31l-13-59q-20-83-38.5-141t-38.5-94.5q-20-36.5-43.5-53a89.26 89.26 0 0 0 -52.5-16.5q-52 0-161 68-106 66-145 122t-39 120q0 71 47 111 46 42 129 60 41 10 101 14t139 4q73 0 93-15 32-17 32-64zm1310-865a96.17 96.17 0 0 0 -14.5-51.5q-14.5-23.5-40.5-40t-61-25.5a300.28 300.28 0 0 0 -75-9q-100 0-194 51-47 25-101 65t-116 97q-41 38-79 65.5a738.54 738.54 0 0 1 -74 47.5q-60 33-60 44 0 14 15 20l25 15q52 32 88 56t59 35q48 22 81 35t51 10q16 0 22-8l16-15q57-52 144-110t202-127q112-69 112-155zm-602 526q0-13-13.5-23.5t-57.5-27.5q-35-14-77-38.5t-92-62.5q-50-38-123-103.5t-170-160.5a345.07 345.07 0 0 0 -61-49q-32-20-54-20a106.77 106.77 0 0 0 -28.5 4 276.3 276.3 0 0 0 -31.5 11l-107 48q-112 51-112 76 0 6 14 13a318.5 318.5 0 0 1 62.5 42.5 513.21 513.21 0 0 1 56.5 57.5q51 61 130 224 38 81 65.5 157t35.5 150l3 29q0 53 65 53 72 0 171-65t231-195q45-44 69-73.5t24-46.5zm746-346q0 127-11 188-10 57-36 104-19 36-56 66.5t-84.5 52.5a499.63 499.63 0 0 1 -101 34 441.73 441.73 0 0 1 -105.5 11q-86-1-89-61l-4-71q-23 18-48 48t-53 72l-47 69q-88 131-226 231a872.83 872.83 0 0 1 -150.5 89q-81.5 38-177.5 64a1554.88 1554.88 0 0 1 -187.5 39 1288.46 1288.46 0 0 1 -181.5 13q-80 0-151.5-10.5a700.89 700.89 0 0 1 -135.5-33.5q-130-45-192.5-125.5t-62.5-183.5q0-93 48-155 54-69 66-91a123.18 123.18 0 0 0 12-54v-43q0-25 9-59.5a450.94 450.94 0 0 1 26-72 495.57 495.57 0 0 1 41-73 338.9 338.9 0 0 1 54-62.5q21-19 44-38a544.68 544.68 0 0 1 49-36q26-18 69-41t102-53q118-62 186-62 53 0 109 32t130 101q92 86 130 86 48 0 230-164 77-69 143.5-115t124.5-71q117-51 229-51 92 0 164 40 69 39 101 113 16 37 24.5 105t8.5 168z"/></svg>