<svg viewBox="0 0 2084 2184.07" xmlns="http://www.w3.org/2000/svg"><path d="m1987 720 12-82-44-6zm-595-633-147 42 156 53zm311 599 121-95-123-61zm-288 184 407-17-157-48zm46-556-52 151 171-27zm289 435 183 57-54-157zm-408-333 54-153-163-56zm279 95-176 28 180 143zm-432-218 36 479 83-255zm107 528 284-75-210-166zm379-674-204-55 12 130 200 211 227 115 81 9-82-204zm-922 1905q266 0 428-152 164-152 164-404 0-173-79-316t-225-223q-146-81-316-81a586.6 586.6 0 0 0 -147.5 18.5 671.86 671.86 0 0 0 -139.5 53.5 573.67 573.67 0 0 0 -121 86.5 516.28 516.28 0 0 0 -91.5 113.5 561.27 561.27 0 0 0 -58 136q-20.5 73-20.5 154 0 172 78 313a584.51 584.51 0 0 0 93.5 127 549.15 549.15 0 0 0 122 94.5q67.5 38.5 146.5 59t166 20.5zm1331-1452v9l-41 250q-5 28-25.5 46t-48.5 20l-157 7a250.31 250.31 0 0 1 -28 31 147.94 147.94 0 0 1 -35 24q-20 9-86.5 25.5t-182.5 39.5q49 94 71.5 194t24.5 209q2 161-54.5 295.5t-160 231.5q-103.5 97-247.5 150.5t-315 51.5q-115-2-217.5-26.5a741 741 0 0 1 -195.5-77.5q-184-106-284-292-102-186-102-410 0-203 100-375 100-171 275-268 176-97 386-97a869.89 869.89 0 0 1 273 44l13-217q6-103 65-142l-12-169v-6q0-55 48-72 48-18 264-76h10l20 3 253 68a155.59 155.59 0 0 1 16.5 6.5 66.74 66.74 0 0 1 15.5 10.5l234 208a145.41 145.41 0 0 1 11.5 13 52.51 52.51 0 0 1 8.5 16l97 243q6 14 6 32z"/></svg>