<svg viewBox="0 0 2020 2120.72" xmlns="http://www.w3.org/2000/svg"><path d="m1296 327.72-82 12q22 61 24 140 31-103 58-152zm-631 604v14q0 57 19 91.5t55 34.5q36 0 76.5-24.5t78.5-78.5q19-27 41-72.5t46-110.5q50-132 50-243 0-62-20-125-18-61-35-61-36 0-123 112a924.64 924.64 0 0 0 -79 117 906.26 906.26 0 0 0 -59 126q-26 66-38 121t-12 99zm765-254q-1 92 24 142t72 50q64 0 132-55 143-114 143-359 0-111-41.5-167.5t-112.5-56.5l-25 11q-19 8-50 49-15 21-26 36t-18 26q-54 84-75 156a679.58 679.58 0 0 0 -16.5 78 589.45 589.45 0 0 0 -6.5 90zm185 514h9q30 0 50 20.5t20 49.5q0 46-48 59l-223 62q-158 43-364 111t-469 148l-81 25q-13 5-28.5 12a78 78 0 0 1 -32.5 7q-41 0-66-26t-25-71q0-32 17.5-54t52.5-33l36-11q134-41 263-88t259-82q131-35 274-63.5t301-55.5zm318 165 14-2q29 0 49.5 20.5t20.5 49.5a63 63 0 0 1 -13.5 39.5 65.21 65.21 0 0 1 -35.5 23.5l-214 60q-177 51-370 110t-404 134q-210 74-388 147.5t-328 148.5a252.29 252.29 0 0 0 -41.5 20.5q-20.5 12.5-49.5 12.5a93.72 93.72 0 0 1 -37.5-8 116.69 116.69 0 0 1 -33.5-22 109.76 109.76 0 0 1 -24-32.5 89.1 89.1 0 0 1 -9-39.5q0-33 21.5-58.5t64.5-45.5l34-17q128-61 281-129.5t343-131.5q189-62 365-108 88-23 277-66.5t478-105.5zm-1812-758q-58 0-89.5-25.5t-31.5-70.5q0-34 24-61t79-59q123-73 275-223l27-33q32-38 61-59.5t60-21.5q26 0 45 11a102.29 102.29 0 0 1 32 29q13 18 19 42a209.66 209.66 0 0 1 6 51q0 57-27 120t-60 129q-30 60-56.5 127t-49.5 144q-22 75-42 173t-40 221q-20 121-33.5 216t-15.5 167q-3 99-30 148t-86 49q-47 0-71.5-40.5t-24.5-102.5l7-78q24-275 66.5-497.5t94.5-396.5q-91 40.99-139 41zm339 380q0-153 70-334a1246.44 1246.44 0 0 1 80-168.5q45-78.5 96.5-143t109-113q57.5-48.5 117.5-78.5l6-11q33-34 85-34l45 6q70 17 120 17 67 0 179-40 29-10 52.5-18t44-15q20.51-7 39-12t38.5-10q42-8 68.5-17.5t46.5-6.5l29 4 38 11q134 22 215 145 40 61 60.5 135t20.5 162a765.88 765.88 0 0 1 -17 162.5 874.59 874.59 0 0 1 -49 154.5q-66 152-169.5 230t-228.5 78q-160 0-250-85t-99-239q-23 91-55.5 168t-73.5 142q-79 128-163.5 189.5t-169.5 61.5a272.76 272.76 0 0 1 -107-21.5q-51-21.49-91-64t-63.5-106.5q-23.5-64.01-23.5-149z"/></svg>