<svg viewBox="0 0 2482 2314" xmlns="http://www.w3.org/2000/svg"><path d="m1883 1901q-26 0-42-11.5t-16-23.5q0-17 14-17a16.21 16.21 0 0 1 10 3q4 3 8.5 6a98.07 98.07 0 0 0 10.5 6q6 3 16 3 22 0 31-15 10-15 21-15 15 0 15 15 0 6-4.5 14.5a57.15 57.15 0 0 1 -13 16 80.63 80.63 0 0 1 -21 13q-12.5 5.5-29.5 5.5zm-1238 6a73.67 73.67 0 0 1 -29-5.5 79.39 79.39 0 0 1 -22-13.5 82 82 0 0 1 -15-17.5q-6-9.49-7-17.5 0-20 18-20 11 0 23 18a65.37 65.37 0 0 0 17 14q9 5 23 5 10 0 17-3.5a87.92 87.92 0 0 0 12.5-7.5q5.5-4 10.5-7.5a20.4 20.4 0 0 1 12-3.5q16 0 16 18 0 20-22 30.5t-54 10.5zm-554-241-2 15q0 71 66 71l-2-15v-16a432.57 432.57 0 0 1 3.5-51q3.5-29 10.5-67-34 0-54 15.5t-22 47.5zm1900 254q9 0 9 10 0 14-30 41-29 26-76 26a134.23 134.23 0 0 1 -29.5-3.5 142.93 142.93 0 0 1 -28.5-9.5 80 80 0 0 1 -21.5-14q-8.51-8-8.5-17 0-14 18-14l60 9a147.55 147.55 0 0 0 36.5-5 368.74 368.74 0 0 0 42.5-14 48.26 48.26 0 0 1 28-9zm-840-43 27 5q29 0 46.5-22.5t17.5-59.5q0-61-67-70 0 72-24 147zm-638 64q0-18 15-18 9 0 24 12 42 39 103 39a136.17 136.17 0 0 0 31-4 368.08 368.08 0 0 0 37-11l26-7q16 0 16 15 0 10-10 20t-25.5 18.5a151.36 151.36 0 0 1 -34.5 13.5 148.92 148.92 0 0 1 -38 5q-64 0-104-31-40-32-40-52zm1149-244h7q28 0 47.5 21t19.5 53q0 29-17.5 49t-45.5 20q-28 0-47.5-20t-19.5-52q0-27 16-47.5t40-23.5zm396-50h7q27 0 46 21.5t19 53.5q0 28-16.5 48t-44.5 20q-28 0-48.5-20.5t-20.5-52.5a70.21 70.21 0 0 1 16.5-46q16.5-20 41.5-24zm-1174 198h-7q-28-3-44-23.5t-16-48.5q0-32 21-54.5t49-22.5q29 0 48 20t19 52q0 33-21 55t-49 22zm-519-130q0-32 21-54t49-22q30 0 49.5 21t19.5 54q0 32-22 53.5t-48 21.5l-8-1a76.26 76.26 0 0 1 -43.5-24.5q-17.5-19.5-17.5-48.5zm1861 215 3-110a875.66 875.66 0 0 0 -3-111.5q-5-53.51-12-101.5-27-12-96-64a510.65 510.65 0 0 1 -63-55 684.14 684.14 0 0 1 -51-59q-18-24-28-24-5 0-11 8a352.58 352.58 0 0 1 -55 51.5q-31 23.51-71.5 44.5t-92 41q-51.49 20-115.5 42l-120 41q6 167 69 378 124 101 282 101 117 0 209.5-47t154.5-135zm-2011-208q0 132 66 237 65 104 178 152 111 46 210 46 144 0 240-57a395.48 395.48 0 0 0 86-70 433.83 433.83 0 0 0 64.5-90.5 457.6 457.6 0 0 0 40.5-105.5 472.52 472.52 0 0 0 14-115 582.61 582.61 0 0 0 -50.5-103.5q-30.5-49.5-65.5-100.5l-21-28q-23-41-37.5-55t-29.5-14l-84 34q-67 28-121 43t-96 15q-17 0-28.5-6.5t-11.5-14.5q0-12 18-26l30-21q20-15 31-24.5t13-12.5a14.85 14.85 0 0 0 4-7 29.23 29.23 0 0 0 1-7q0-7-12-7-11 0-28.5 8t-43.5 22l-170 95q-45 24-87.5 51.5a611.11 611.11 0 0 1 -88.5 47.5 22.28 22.28 0 0 0 -5.5 3.5l-3.5 3.5q0 2-2 11.5t-4.5 24.5q-2.5 15-4 33.5t-1.5 37.5zm363-1364q0-140 91-249 94-109 235-109 78 0 141 19a392.21 392.21 0 0 1 115 56l69 48q9 9 30 9 31 0 102-57a317.38 317.38 0 0 1 48.5-30 390.26 390.26 0 0 1 59-24 470.87 470.87 0 0 1 64-15.5 374.34 374.34 0 0 1 62.5-5.5q117 0 195.5 53t129.5 170q21 51 21 134 0 99-39 183a534.5 534.5 0 0 1 -47 80 637.73 637.73 0 0 1 -63 75q-35 35-107 90.5t-183 130.5q-34 23-64.5 47.5t-59.5 51.5l-64 61q-32 41-54 41-24 0-53-41l-15-15q-51-50-93.5-86.5t-77.5-59.5q-94-64-156-108t-93-70a741.15 741.15 0 0 1 -57.5-53.5 560.32 560.32 0 0 1 -48.5-57.5q-42-60-65-124.5t-23-143.5zm1904 1400q0 129-39 232a497.2 497.2 0 0 1 -48 96 451.59 451.59 0 0 1 -69 83q-80 76-114 76-20 0-20-37l5-40 8-38 7-56q-144 128-349 128-154 0-242-72l28 69a320.4 320.4 0 0 0 21 45.5q13 23.51 13 46.5t-23 23q-35 0-126-50-90-50-151.5-141t-93.5-215q-5 11-17 22a126.22 126.22 0 0 1 -29 19.5 160.16 160.16 0 0 1 -37.5 13 133.51 133.51 0 0 1 -41.5 2.5l-16-1q-66 137-183.5 210t-295.5 73q-213 0-354-111-143-111-179-300-52-9-93-50-43-42-43-102 0-66 33.5-112t95.5-57v-26q0-207 148-337 147-132 378-132 240 0 418 137 178 138 178 357 0 76-18 140l22 5v-16q0-100 18.5-189t67.5-163l27-41q76-111 212-175 137-64 289-64 148 0 275 65 127 66 204 182.5t109 269.5q14 65 19.5 122t5.5 108z"/></svg>