<svg viewBox="0 0 1598 1515.38" xmlns="http://www.w3.org/2000/svg"><path d="m1328 338q40 0 83-34 42-34 42-71a73.79 73.79 0 0 0 -6.5-30.5 91.49 91.49 0 0 0 -17.5-26 82.27 82.27 0 0 0 -25-18 70.4 70.4 0 0 0 -30-6.5q-30 0-73 37-41 36-41 67l1 7q22 54 50 70a15 15 0 0 0 7.5 4 43.51 43.51 0 0 0 9.5 1zm-136 666a71.07 71.07 0 0 0 34.5-9 96.42 96.42 0 0 0 29-24.5 124.05 124.05 0 0 0 20-36.5 132.81 132.81 0 0 0 7.5-45 150.71 150.71 0 0 0 -7-46 134 134 0 0 0 -19-38.5 91.66 91.66 0 0 0 -28.5-26 71.88 71.88 0 0 0 -36.5-9.5 70 70 0 0 0 -35.5 9.5 99.89 99.89 0 0 0 -29 25.5 122.56 122.56 0 0 0 -19.5 37 138.14 138.14 0 0 0 -7 44 154 154 0 0 0 7 47q7 22 19.5 38a93.5 93.5 0 0 0 29 25 73 73 0 0 0 35.5 9zm-136 218q0-30-19-30a33.39 33.39 0 0 0 -13 2.5q-6 2.51-14.5 5.5a177.7 177.7 0 0 1 -19.5 5.5q-11 2.51-27 2.5-47 0-130-37-14-8-34-8-14 0-33 8-83 37-130 37-28 0-42.5-7.5t-28.5-7.5q-22 0-22 29 0 32 31.5 48t82.5 16h16q0 37 15 89 8 26 15.5 41.5t14.5 20.5q16 8 45 8 21 0 31-18 7-16 12-16 8 0 9 9 3 26 41 26 29 0 44-28t25-84l8-48h11q45 0 78.5-15.5t33.5-48.5zm-651-218a75.84 75.84 0 0 0 36-9 94.38 94.38 0 0 0 29.5-24.5 124.05 124.05 0 0 0 20-36.5 135.87 135.87 0 0 0 7.5-46 146 146 0 0 0 -7-45.5 128.14 128.14 0 0 0 -19.5-38 94.94 94.94 0 0 0 -29.5-26 72.71 72.71 0 0 0 -36-9.5 68.2 68.2 0 0 0 -34.5 9.5 99.89 99.89 0 0 0 -29 25.5 130 130 0 0 0 -20 37.5 137.13 137.13 0 0 0 -7.5 45.5 146 146 0 0 0 7 45.5 121.48 121.48 0 0 0 19.5 37.5 93.5 93.5 0 0 0 29 25 71.07 71.07 0 0 0 34.5 9zm-118-666q9 0 19-6.5a87.66 87.66 0 0 0 19.5-18 168.47 168.47 0 0 0 17.5-26 231.19 231.19 0 0 0 14-30.5q0-7-11.5-25.5a273.14 273.14 0 0 0 -28.5-37.5 184.82 184.82 0 0 0 -37-32q-20-13-39-10a68.16 68.16 0 0 0 -29 6.5 82.27 82.27 0 0 0 -25 18 91.49 91.49 0 0 0 -17.5 26 73.79 73.79 0 0 0 -6.5 30.5q0 24 16 46t52 41q18 10 32 14t24 4zm409 610q-29 0-30 21-1 14 11 32.5t31.5 34.5a194.42 194.42 0 0 0 44 27 111.35 111.35 0 0 0 50.5 10 193.77 193.77 0 0 0 49-10q23-8 43-26 41-36 41-74 0-26-26-26-11 0-25 7-32 18-101 18a86.36 86.36 0 0 1 -16-2q-10-2-22-5t-25-5a164.94 164.94 0 0 0 -25-2zm902 74q0 204-182 349-91 72-227.5 110t-322.5 34l-67-2-67 2q-187 4-323.5-34t-227.5-110q-181-145-181-349 0-124 73-250a830 830 0 0 0 38.5-77q17.5-40 34-81t33-83q16.5-42 34.5-83-85-11-145-77-58-65-58-150 0-84 68-152 69-69 156-69 121 0 207 171a713.33 713.33 0 0 1 172.5-68.5 758 758 0 0 1 185.5-22.5q194 0 360 91 83-171 205-171 84 0 155 69 69 68 69 153 0 79-57 146-56 66-145 80l67 165q17 42 34.5 82a697.57 697.57 0 0 0 39.5 77q71 121 71 250z"/></svg>