<svg viewBox="0 0 2180 2028" xmlns="http://www.w3.org/2000/svg"><path d="m1344 1636a145.48 145.48 0 0 0 55-10.5 133.61 133.61 0 0 0 45-29.5 141.47 141.47 0 0 0 30-44.5q11-25.5 11-55.5a142.87 142.87 0 0 0 -10.5-54 133.61 133.61 0 0 0 -29.5-45 147.1 147.1 0 0 0 -45-30.5 136.81 136.81 0 0 0 -56-11.5q-30 0-55.5 11.5a148.83 148.83 0 0 0 -44.5 30.5 133.61 133.61 0 0 0 -29.5 45 145.39 145.39 0 0 0 0 108.5 134.81 134.81 0 0 0 29.5 44.5 141.47 141.47 0 0 0 44.5 30q25.5 11 55.5 11zm456 0a145.48 145.48 0 0 0 55-10.5 133.61 133.61 0 0 0 45-29.5 141.47 141.47 0 0 0 30-44.5q11-25.5 11-55.5a142.87 142.87 0 0 0 -10.5-54 133.61 133.61 0 0 0 -29.5-45 147.1 147.1 0 0 0 -45-30.5 142.1 142.1 0 0 0 -112 0 147.1 147.1 0 0 0 -45 30.5 133.61 133.61 0 0 0 -29.5 45 145.39 145.39 0 0 0 0 108.5 134.81 134.81 0 0 0 29.5 44.5 140 140 0 0 0 45 30 142.27 142.27 0 0 0 56 11zm155-555v-157a83.85 83.85 0 0 0 -7-34 90.5 90.5 0 0 0 -19-28 89 89 0 0 0 -28.5-19 87.39 87.39 0 0 0 -34.5-7h-574q-37 0-62.5 26t-25.5 62v157q0 37 25.5 63t62.5 26h381q12-218 45-218 27 0 48 155l8 63h92q37 0 63-26t26-63zm225 137q0 208-26 347-25 137-78 218-50 79-179 115l-11 71q-5 30-35.5 44.5t-81.5 14.5q-50 0-79.5-18.5t-30.5-41.5l-5-28q-74 8-183.5 11t-257.5 3h-249q-155 0-267.5-4t-185.5-11l-7 29q-1 23-30 41.5t-79 18.5q-51 0-81-14.5t-35-44.5l-13-75q-112-37-162-104-26-34-44.5-86t-32.5-121l545 8q97 2 192.5-1t191.5-7q26-1 39-16.5a53.66 53.66 0 0 0 13-35.5 55.61 55.61 0 0 0 -13-36q-13-16-39-17-96-5-191.5-7.5t-191.5-.5l-521 6h-21l-20 2-6-69q18-19 88-27 35-4 60.5-6.5t43.5-3.5l104-4 194 4 100-1 249 3h63q105 0 105-55 0-23-22.5-36t-51.5-13l-241-3-288 1q-119 1-197 3.5t-118 7.5q-81 11-94 22v-60a22.06 22.06 0 0 1 6-15.5 63 63 0 0 1 14.5-11.5 169 169 0 0 1 19-9.5 213.48 213.48 0 0 0 19.5-9.5q59-22 154.5-33.5t232.5-10.5l194 1 282-3h48q24 0 38-14.5a48 48 0 0 0 14-34.5q0-22-18-40.5t-56-18.5l-81 2-239-3-152 1-147-1a897.11 897.11 0 0 0 -97.5 3.5q-51.5 4.5-85.5 12.5-17 4-38 11a399.73 399.73 0 0 0 -41.5 16.5 324.73 324.73 0 0 0 -38.5 21q-18 11.5-28 25.5l2-76a370.3 370.3 0 0 1 67-49.5q37-21.5 83-35.5 46-15 108.5-23.5t142.5-6.5l389 5q39 6 143 6 73 0 73-52 0-35-49-47-48-10-223-12l-326-4q-133-2-231 20.5t-162 66.5q14-79 36.5-140.5t57.5-106.5q69-90 227-130-7-10-7-29 0-44 42-56l1598-458 11-2a37.21 37.21 0 0 1 25 9.5q11 9.5 11 25.5 0 27-26 35l-1347 427q201-15 444-15 347 0 564.5 27t324.5 88q107 60 154 202 48 143 48 419z"/></svg>