<svg viewBox="0 0 2262 2083" xmlns="http://www.w3.org/2000/svg"><path d="m1123 310q156 0 259-34 105-34 105-82 0-47-105-82-103-34-259-34-77 0-141 8t-118 26q-106 35-106 82 0 50 108 83 55 17 118.5 25t138.5 8zm1139 123q0 51-12.5 108t-35.5 121q-49 130-115 224-66 96-107 96-18 0-31-10-55-29-94-44.5t-65-15.5q-25 0-22 88l3 76q4 119 14 195.5t15 114.5q8 63 14 129.5t9 135.5l8 200q1 29-41 79-42 49-116 79-38 16-96.5 28.5t-139.5 23.5q-80 11-159.5 16.5t-160.5 5.5q-110 0-216-9a2013.69 2013.69 0 0 1 -210-29q-207-39-269-151-16-31-16-43l4-111q3-71 9.5-159.5t17.5-194.5q16-142 24-239t8-151q0-84-21-84-52 0-158 60-17 10-32 10-36 0-100-83-32-43-61.5-97t-55.5-122q-54-136-54-240 0-48 20-68 23-26 64-50t101-50l56-25q91-40 180.5-76.5t180.5-66.5q92-31 165.5-51t130.5-31q110-22 234-22a1355.57 1355.57 0 0 1 156.5 9 1168.53 1168.53 0 0 1 155.5 29 2757.84 2757.84 0 0 1 292 94q143 55 285 115l57 25q48 21 81.5 36.5t55 32q21.49 16.5 33 38t14.5 54.5z"/></svg>