<svg viewBox="0 0 2317.82 1969" xmlns="http://www.w3.org/2000/svg"><path d="m1796.82 1037a53.33 53.33 0 0 0 16-2.5 158.8 158.8 0 0 0 17-6.5l112-58q70-37 70-64 0-8-8.5-24.5a227.51 227.51 0 0 0 -21-33 188.33 188.33 0 0 0 -27-29q-14.5-12.5-27.5-12.5a209.78 209.78 0 0 0 -38.5 9.5 375 375 0 0 0 -35.5 14.5l-86 42q-56 27-56 52a55.13 55.13 0 0 0 5.5 23q5.49 12 16.5 28 6 9 12 20a123.65 123.65 0 0 0 13.5 20 77.37 77.37 0 0 0 16.5 15 37 37 0 0 0 21 6zm282-131q0 68-99 119-23 12-47.5 25t-52.5 27a365.26 365.26 0 0 1 -47 20q-21 7-36 7-57 0-104-68-24-34-35.5-62.5t-11.5-51.5q0-22 10-38a159.88 159.88 0 0 1 25-32q8-7 26.5-19t47.5-27l42-22q85-44 131-44a104.21 104.21 0 0 1 59 18q27 18 59 68 16 26 24.5 46t8.5 34zm-1940-129q0 33 16 84l1497-673q-63-81-167-81a291.35 291.35 0 0 0 -34 2q-17 2-37 6a364 364 0 0 0 -40 11q-21 7-45 16l-289 114q-121 48-239 97t-237 100q-236 102-301 145-65 44-94.5 89t-29.5 90zm2029 138q0-27-14-61a464.93 464.93 0 0 0 -20.5-42q-13.5-25-36.5-57t-78-104q-55-72-145-187l-1571 744q91 189 141.5 290.5t61.5 118.5l38 62a403.77 403.77 0 0 0 26 37.5 118.47 118.47 0 0 0 29.5 27q16.5 10.5 38.5 16t52 5.5q39 0 84-15t97-41l143-74q143-73 304-152.5t341-175.5q178-96 279-152t124-73q47-33 76.5-74.5a156 156 0 0 0 29.5-92.5zm150 41q0 138-133 225-164 108-372.5 226t-462.5 251l-215 112q-98 51-173.5 88.5t-133.5 62q-58 24.49-100 36.5t-73 12a358.73 358.73 0 0 1 -41-2q-17-2-26-5a196.8 196.8 0 0 1 -35.5-16 247.93 247.93 0 0 1 -34.5-24q-17-14-34-35.5t-36-49.5q-37-53-113-210-38-78-81.5-171.5t-91.5-202.5q-48-109-81-187.5t-50-129.5q-17-51-25-86.5t-5-57.5q0-91 62-171t183-141q77-38 214-99t338-147q201-85 340-139.5t218-77.5q56-17 130-17 137 0 222 85l98 119q143 173 228.5 277t116.5 139q47 53 79 98t51.5 86q19.5 41 28 78.5a332.27 332.27 0 0 1 8.5 73.5z"/></svg>