<svg viewBox="0 0 2142 2059" xmlns="http://www.w3.org/2000/svg"><path d="m869 1040a96.82 96.82 0 0 1 40 8.5 101.14 101.14 0 0 1 33 23.5 121.08 121.08 0 0 1 22.5 34.5 102.66 102.66 0 0 1 8.5 41.5q0 48-24.5 70.5t-60.5 22.5a99.68 99.68 0 0 1 -39-8 120 120 0 0 1 -34-21.5 101.8 101.8 0 0 1 -24-32.5q-9-19-9-42 0-40 24.5-68.5t62.5-28.5zm358-125a68.3 68.3 0 0 0 34-9 102.16 102.16 0 0 0 28.5-24 111.91 111.91 0 0 0 19.5-35 129.18 129.18 0 0 0 7-43 126.1 126.1 0 0 0 -7-42 117.86 117.86 0 0 0 -19-35 87.62 87.62 0 0 0 -28.5-23.5 78.38 78.38 0 0 0 -71 0 93 93 0 0 0 -29 23.5 111.91 111.91 0 0 0 -19.5 35 126.1 126.1 0 0 0 -7 42q0 49 26 80t66 31zm-332 402q35 0 64.5-11.5t50.5-32a152.11 152.11 0 0 0 33-47.5 141.17 141.17 0 0 0 12-58q0-80-61-143-59-62-134-62-66 0-113 52-45 49-45 123 0 78 56 129 54 50 137 50zm-89-668a78.8 78.8 0 0 0 -36.5 9 98.07 98.07 0 0 0 -30.5 24.5 127.55 127.55 0 0 0 -21 36 118.68 118.68 0 0 0 -8 43.5 132.06 132.06 0 0 0 6 40 109.5 109.5 0 0 0 17.5 34 92.32 92.32 0 0 0 27 24 67.43 67.43 0 0 0 34.5 9 80.46 80.46 0 0 0 35.5-8.5 94.31 94.31 0 0 0 31-24.5 136.13 136.13 0 0 0 22-37q8.5-21 8.5-47a118.38 118.38 0 0 0 -6.5-39.5 112.75 112.75 0 0 0 -18-33 82.67 82.67 0 0 0 -27-22.5 74.12 74.12 0 0 0 -34.5-8zm1255 932a54.26 54.26 0 0 1 29.5 8.5q13.5 8.5 13.5 28.5 0 8-7 23.5t-20 33.5a334.35 334.35 0 0 1 -31.5 37 284.29 284.29 0 0 1 -41.5 35q-46 32-105 51a392.26 392.26 0 0 1 -121 19q-88 0-176-47-88-46-137-126-11-17-34-17t-23 37q0 47 38 114 38 68 94 104 84 55 84 98a59.5 59.5 0 0 1 -8 30 89.42 89.42 0 0 1 -21.5 25 112.39 112.39 0 0 1 -30 17.5 88.3 88.3 0 0 1 -32.5 6.5q-28 0-63-19t-79-54l-40-31q-22-17-45.5-47t-52.5-72q-15-21-32.5-45a440.6 440.6 0 0 0 -36.5-44 210 210 0 0 0 -39.5-33q-20.51-13-41.5-13a87.39 87.39 0 0 0 -34.5 7 144.36 144.36 0 0 0 -31.5 18.5 344.58 344.58 0 0 0 -29.5 25.5q-14.5 14-27.5 28a806.19 806.19 0 0 1 -100.5 95.5 923.31 923.31 0 0 1 -122.5 82.5q-135 76-209 76-36 0-58.5-15t-22.5-45q0-69 143-156a509.48 509.48 0 0 0 43-30q22-17 46-37 46-40 46-82 0-44-44-44-26 0-102 41-109 59-193 59-103 0-201-98l-52-52-45-39q-51-43-79-68t-28-47q0-46 50-46a151.09 151.09 0 0 1 48 8 407.37 407.37 0 0 1 50 22q13 8 36.5 24.5t57.5 45.5q47 39 118 39 87 0 160-76-217-77-349-257-133-182-133-401 0-37 3-77.5a848.13 848.13 0 0 1 11-85.5q8-45 15.5-81a485.63 485.63 0 0 1 17.5-64q9-28 28.5-70.5t50.5-99.5q20-36 30.5-68.5t10.5-62.5a170.87 170.87 0 0 0 -6-43q-6-23-6-40 0-20 18.5-35.5t51.5-15.5q45 0 70 54.5t25 165.5a109.7 109.7 0 0 1 -2 20.5q-2 10.5-5 24.5a869.72 869.72 0 0 1 -19 94q-12 46-24 92.5t-20.5 93a529.74 529.74 0 0 0 -8.5 95.5 382.37 382.37 0 0 0 15 105.5q15 52.5 41 108.5l19 41q15 32 30 59a538.68 538.68 0 0 0 29 47q14 20 27 31.5t25 11.5q22 0 37-39-56-159-56-303 0-191 81-364 82-174 225-274 146-101 318-101 191 0 344 88 154 87 233 226t79 344a1007 1007 0 0 1 -16 181.5 896.66 896.66 0 0 1 -48 168.5l-1 21q-2 20 5.5 29t21.5 9q35 0 88-64a541.26 541.26 0 0 0 48.5-71 633.89 633.89 0 0 0 39.5-81.5 566.13 566.13 0 0 0 27-87.5 413.54 413.54 0 0 0 10-90q0-45-8-103.5t-33-128.5l-24-70q-25-70-40-123t-15-92q0-67 30.5-109.5t80.5-42.5q32 0 48.5 19t16.5 51a53.85 53.85 0 0 1 -3 17q-3 9-6.5 19t-6.5 22a111.53 111.53 0 0 0 -3 27q0 26 14.5 56t41.5 64q74 92 111 222.5t37 278.5q0 239-157 429-158 191-398 251 137 167 280 167a273.45 273.45 0 0 0 47-4 341.1 341.1 0 0 0 45-11q87-31 102-31z"/></svg>