<svg viewBox="0 0 2080 2270" xmlns="http://www.w3.org/2000/svg"><path d="m842 975a86.55 86.55 0 0 1 -30-5.5 85.25 85.25 0 0 1 -27-16 82.46 82.46 0 0 1 -19.5-25.5q-7.5-15-7.5-35 0-32 21-53.5t61-21.5q21 0 36.5 7t25 18a78 78 0 0 1 14.5 25 82.86 82.86 0 0 1 5 28q0 37-23.5 58t-55.5 21zm-568 877a386.3 386.3 0 0 0 -3.5-52.5 373.49 373.49 0 0 0 -9.5-47.5 278.29 278.29 0 0 0 -13.5-39q-7.5-17-15.5-25-2 11-16 45t-38 93q-24 59-42 96.5t-29 56.5l21 11q48 33 76 33 18 0 44-49 26-52 26-122zm1702-506q-11-49-62-47l-60 2q-84 1-103-40-3-8-5.5-16.5a72.15 72.15 0 0 0 -6.5-15.5 40.73 40.73 0 0 0 -9.5-11.5q-5.51-4.5-15.5-4.5-34 0-71 149-7 33-17 51v9q17 11 33.5 24a357.33 357.33 0 0 1 31.5 28q22-14 43.5-25a350.06 350.06 0 0 1 44.5-19q158-54 172-62a116 116 0 0 0 25-22zm-1318 9q-141 0-272-59l-1 22a157.3 157.3 0 0 0 9 63.5q11 30.49 33 59.5 43 58 90 58 27 0 77-41t66-41q13 0 64 39 52 40 86 40 46 0 82-52 37-52 37-109 0-27-5-36-123 56-266 56zm972 238q0-19-21-34-60-60-90-60-8 0-15 7l-33 41q-27 33-55 61.5t-57 53.5q-57 48-91 48-25 0-47-22l-62-61q-23-22-35.5-34t-17.5-13l-24 146v18q0 73 48 128 47 56 114 56 40 0 98.5-43.5t142.5-127.5l94-94q24-24 37.5-40.5t13.5-29.5zm-947-1472q-85 0-156 20.5t-125 60a340.82 340.82 0 0 0 -89.5 97q-35.5 57.5-48.5 130.5 35-27 80.5-49a689.07 689.07 0 0 1 97.5-38 739.94 739.94 0 0 1 109.5-24.5 795.12 795.12 0 0 1 116.5-8.5 625.14 625.14 0 0 1 78.5 5 767.74 767.74 0 0 1 81.5 15 411.09 411.09 0 0 1 78.5 27 438.39 438.39 0 0 1 66.5 38 373.36 373.36 0 0 1 53 44.5q23 23.5 37 46.5-50-364-380-364zm-276 735-166 85q29 126 144 205 114 78 273 78 183 0 304-103 123-103 123-260 0-132-94-257l-502 215q69 8 69 75 0 20-7 35.5a73.07 73.07 0 0 1 -18.5 25.5 77 77 0 0 1 -26.5 15 97.47 97.47 0 0 1 -31 5q-36 0-57.5-22.5t-21.5-56.5a78.69 78.69 0 0 1 11-40zm617 1193q0-5-10-18.5t-29-37.5q-27-36-27-118 0-26 7-64t22-89q28-97 28-144 0-28-4-47.5t-9.5-32.5a141.56 141.56 0 0 0 -11-21.5 67.07 67.07 0 0 1 -7.5-14.5l-15 36q-19 40-65 71-45 28-82 28-43 0-133-50-17-10-28-10-12 0-58 29-48 31-86 31a141 141 0 0 1 -54.5-11q-26.5-11-54.5-32-54-43-77-103-25 70-25 131a217.13 217.13 0 0 0 4.5 42.5 361.17 361.17 0 0 0 11.5 43.5q7 21 15 40t15 32q1 5 7 20.5a374 374 0 0 1 12 38q6 22.5 11 49.5a296.27 296.27 0 0 1 5 54q0 61-40 140-9 20-9 23 0 11 22.5 27t65.5 31q43 15 104 25t139 8q51-2 95.5-5a656.41 656.41 0 0 0 84.5-11q40-7 72.5-18.5t55.5-24.5q23-13 35.5-25.5t12.5-22.5zm1056-720a110.34 110.34 0 0 1 -9.5 46q-9.49 21-31.5 39.5t-57 36.5q-35 18-87 37a501.26 501.26 0 0 0 -79 36 558 558 0 0 0 -70 47l3 24a170.62 170.62 0 0 0 -3 18 108.09 108.09 0 0 1 -4 19q-6 19-44 61-20 22-74 76t-145 144q-70 70-130 101t-126 28l-65-3q0 17-8.5 37.5t-26.5 43.5a217.15 217.15 0 0 1 -38 40 358.33 358.33 0 0 1 -45 31 561.1 561.1 0 0 1 -161 61q-85 18-188 18-64 0-125-6a966.49 966.49 0 0 1 -115-18q-54-12-98-29.5t-75-40.5q-65-47-114-55-74-11-119-43t-45-74l2-14q2-17 46-115 36-78 66.5-147.5t53-126.5q22.5-57 35.5-100.5t15-70.5q7-31 16-61t19-55.5q10-25.5 20-45t19-29.5q-66-51-107-113.5a594.92 594.92 0 0 1 -66-136.5q-20-29-36.5-72.5t-16.5-87.5q0-75 17.5-132t49.5-117v-47q0-244 150-388a480.14 480.14 0 0 1 175.5-109.5q99.5-35.5 224.5-35.5 112 0 205 37.5t160 109.5a457.16 457.16 0 0 1 58.5 80 578 578 0 0 1 43 92 598 598 0 0 1 26.5 97 525.6 525.6 0 0 1 9 95q0 66-26 114 56 114 56 236 0 120-52 217.5t-144 164.5q26 33 50 66.5t45 69.5q122 206 153 206t111-90l26-36q28-38 48-61.5t34-31.5l22-7q31-4 41-20.5t16-48.5a297.32 297.32 0 0 1 19-60q13-30 35-61 45-63 86-63 49 0 111 74 14 16 27 18 237 14 237 131z"/></svg>