<svg viewBox="0 0 2094 2079" xmlns="http://www.w3.org/2000/svg"><path d="m1871 118h-1648a128.79 128.79 0 0 0 -39 6 103.41 103.41 0 0 0 -33.5 17.5 87.47 87.47 0 0 0 -23.5 29q-9 17.5-9 39.5v1152q0 57 24 81.5t81 24.5h225v330l335-330h1088q105 0 105-106v-1152q0-22-9-39.5a87.47 87.47 0 0 0 -23.5-29 103.41 103.41 0 0 0 -33.5-17.5 128.79 128.79 0 0 0 -39-6zm-1040 1468-501 493v-493h-107q-106 0-164.5-58.5t-58.5-165.5v-1152q0-90 65-149 66-61 158-61h1648q94 0 158 61 65 59 65 149v1152q0 51-15.5 92.5t-45 70.5q-29.51 29-70.5 45t-92 16z"/></svg>