<svg viewBox="0 0 1924 2332" xmlns="http://www.w3.org/2000/svg"><path d="m578 1062q-23 0-35.5-13.5t-19.5-39.5q-7-26-8.5-64t-1.5-88a899.56 899.56 0 0 1 10-135 774 774 0 0 1 31-129q41-128 106-200 67-74 130-74 44 0 44 55 0 61-71 222-45 102-68.5 181.5t-24.5 136.5q-1 36-3.5 63.5t-8.5 46.5q0 8-7 15t-18.5 12a135 135 0 0 1 -25.5 8 138 138 0 0 1 -29 3zm1009-569q56 0 56 51 0 26-15 51.5t-41 54.5l-95 100-63 71q-32 36-72.5 92.5t-91.5 136.5q-44 68-88 68-20 0-33.5-7a62.86 62.86 0 0 1 -22-18.5 71.33 71.33 0 0 1 -12-26 125.48 125.48 0 0 1 -3.5-29.5q0-93 82-236 42-71 90-128t99-97q51-40 104.5-61.5t105.5-21.5zm-553 1517q-3 11-12 26t-25 28.5q-16 13.5-39.5 22.5t-53.5 8a216.06 216.06 0 0 1 -41.5-5.5 84.06 84.06 0 0 1 -32.5-15.5q-5-5-15-5t-21 8q-31 23-84 23a161.64 161.64 0 0 1 -46-6.5q-22-6.49-38-18.5a99.19 99.19 0 0 1 -25.5-27.5 63 63 0 0 1 -9.5-33.5q0-27 35-27 8 0 19 9a244 244 0 0 0 26.5 28q12.5 11 40.5 11 36 0 48.5-15.5t12.5-57.5q-83-27-83-71 0-8 7-20.5t18-12.5l12 4 10 10q26 26 64 26 35 0 85-33l14-4q20 0 20 26 0 10-6.5 21a119.27 119.27 0 0 1 -16.5 21.5 114.13 114.13 0 0 1 -23 18.5 89.77 89.77 0 0 1 -25 11l3 29q0 40 75 40 11 0 41-19 28-19 41-19l14 2q11 6 11 18zm75-436q40 0 68 31t28 79a133.63 133.63 0 0 1 -7 43.5 111.37 111.37 0 0 1 -20 36 100.22 100.22 0 0 1 -30 24.5q-17 9-38 9a80.85 80.85 0 0 1 -37.5-9 92.51 92.51 0 0 1 -30-24.5 128.94 128.94 0 0 1 -20.5-121.5 106.62 106.62 0 0 1 20-35 103.71 103.71 0 0 1 30-24 77.86 77.86 0 0 1 37-9zm-637 0a77.86 77.86 0 0 1 37 9 103.71 103.71 0 0 1 30 24 106.62 106.62 0 0 1 20 35 129.7 129.7 0 0 1 -.5 85.5 119 119 0 0 1 -20.5 36 98.07 98.07 0 0 1 -30.5 24.5 82.62 82.62 0 0 1 -75 0 98.07 98.07 0 0 1 -30.5-24.5 119 119 0 0 1 -20.5-36 125.63 125.63 0 0 1 -7.5-43.5q0-24 7.5-44a108.91 108.91 0 0 1 21-35 92.65 92.65 0 0 1 69.5-31zm857-409q0-52 71-125 23-23 69-75.5t118-137.5q71-85 116.5-146.5t67.5-101.5q44-80 44-139 0-35-14-62.5a134.76 134.76 0 0 0 -40-47q-26-19.5-62-30t-80-10.5q-153 0-317 156-81 77-152 175.5t-115 223.5l-15 42q-19 54-30.5 88t-25.5 47q-5 4-25 4-28 0-49-1t-37-3h-17l-24-2q-26-3-26-7l-4-55a373.09 373.09 0 0 1 9-118.5 795.21 795.21 0 0 1 37.5-116q23.5-57.5 52-114.5t53.5-115a968.38 968.38 0 0 0 42-117.5 440.29 440.29 0 0 0 17-121.5q0-78-39.5-112t-101.5-34q-62 0-119 30-160 83-243.5 307t-83.5 583a223.72 223.72 0 0 1 -1.5 29 53.08 53.08 0 0 1 -6 19 45.22 45.22 0 0 1 -12.5 14l-20 15q-63 57-102 135-20 39-39.5 97t-41.5 136q-9 32-20 62.5t-24 59.5q-31 69-31 165 0 135 87 235 88 103 267 166a1004.57 1004.57 0 0 0 184.5 46.5 1287.3 1287.3 0 0 0 195.5 14.5q343 0 554-202 97-91 97-254 0-75-23.5-162.5t-74.5-189.5q-8-17-19.5-45t-22.5-69q-24-81-24-136zm595-728q0 36-10 76t-31 85q-41 90-147 218l-108 130-113 128-16 18q-26 29-42.5 47.5t-19.5 27.5q3 91 85 267 80 172 80 334 0 177-99 297-95 116-274 193-175 74-387 74-224 0-432-74-206-75-308-202t-102-292q0-28 2.5-54.5a400.9 400.9 0 0 1 8.5-52.5q5-27 17.5-64t28.5-86l29-91q84-264 208-390l4-4q9-131 17.5-219t15.5-136a1749.74 1749.74 0 0 1 36.5-186q22.5-88 57.5-162 36-76 86-135.5t107-100q57-40.5 117-62t117-21.5q56 0 102 18.5t78.5 52q32.51 33.5 50.5 81t18 104.5a551.93 551.93 0 0 1 -13.5 122.5 911.38 911.38 0 0 1 -34.5 116q-21 56.5-46 111t-48.5 107q-23.5 52.5-41.5 103.5a472.19 472.19 0 0 0 -24 101h5l39-115a854 854 0 0 1 56-132.5 1052 1052 0 0 1 72-117.5 1158.59 1158.59 0 0 1 83-104q44-49 91-92 187-174 380-174 152 0 229 77 38 38 57 82t19 96z"/></svg>