<svg viewBox="0 0 1994 2244" xmlns="http://www.w3.org/2000/svg"><path d="m1225 597-493 12 51-79 488-13zm-567 126 497-13-47 78-500 13zm-124 192 506-13-48 79-509 12zm-125 192 515-14-47 80-520 12zm802 1007q55-81 149-244t231-411q274-496 300-578a314.9 314.9 0 0 1 -15.5-36.5 213.42 213.42 0 0 1 -9.5-37.5q-28 56-115.5 217t-235.5 430q-293 534-312 553l-3 45q-2 23 2 38.5t9 23.5zm-98 0v-13a536.14 536.14 0 0 0 -9-99l-764-523q-25-17-51-32.5t-49.5-27.5a373.56 373.56 0 0 0 -43-19q-19.5-7-31.5-7-31 0-31 34 0 18 17 44 8 12 23.5 25t39.5 27q23 14 248 161.5t651 429.5zm15-227q45 0 69-55l91-156 106-201q24-45 76-144.5t134-257.5q164-316 224-445l1-12q0-27-36-44l-407-245-46 77-483 12 50-78 478-12-186-107-218 6 52-80h22l-24.5-10.5-19.5-8q-19.5-8-18-5.5t-21-2q-44 0-79 25t-65 74q-90 143-190 279.5t-194 277.5q-72 107-141.5 212a2301.43 2301.43 0 0 0 -128.5 220 86.94 86.94 0 0 1 -9 15.5q-6 8.51-11.5 17.5a138.77 138.77 0 0 0 -9.5 18.5 47.43 47.43 0 0 0 -4 18.5q0 23 38 23t89 27l18-27 523-14-47 78-413 11 170 108 175-5-48 79h-11l134 88q113 73 194 129t130 95q22 18 36 18zm866-1007q0 31-88 204-44 85-100.5 192.5t-127.5 238.5q-72 131-136 243.5t-124 210.5q-121 196-180 254-20 21-53 21-41 0-112-37-72-38-769-517l-211-145a184.76 184.76 0 0 1 -43.5-41.5 237.8 237.8 0 0 1 -28.5-49.5 256.5 256.5 0 0 1 -16-52.5 277.84 277.84 0 0 1 -5-51.5l5-43q9-53 139-273 65-109 152.5-242.5t197.5-294.5q221-323 340-460 31-37 83-37a159.41 159.41 0 0 1 44 6l35 8q16 4 63.5 25t126.5 60q80 39 191 99t257 143q146 82 223 132t86 69a65.47 65.47 0 0 1 11 24 119.75 119.75 0 0 1 3 27q0 23-10 50l1 55q2 51 10.5 89.5t26.5 67.5q9 14 9 25z"/></svg>