<svg viewBox="0 0 2076 1782" xmlns="http://www.w3.org/2000/svg"><path d="m1139 1236q62 0 200-30 69-16 121.5-24t90.5-6l83 4q-29-36-56.5-90.5t-56.5-125.5l-32-78q-20-50-43.5-81t-46.5-45q-46-29-153-29-209 0-308-78-83-67-156-67-48 0-152 46a1169 1169 0 0 1 -111 43.5q-53 17.5-99 26.5 54 53 91.5 109.5t72.5 113.5q44 71 86 121t86 79q87 58 183.5 84.5a749.76 749.76 0 0 0 199.5 26.5zm937 80q0 44-27 77-25 31-157 67-64 18-163 89-30 22-77.5 48.5t-112.5 60.5q-130 69-229 96a731.68 731.68 0 0 1 -98.5 21 716.38 716.38 0 0 1 -100.5 7q-194 0-437-85-122-43-209-102.5t-141-134.5q-48-67-66.5-145a1320.57 1320.57 0 0 1 -27.5-159q-8-68-15.5-115t-13.5-75a403.67 403.67 0 0 0 -15.5-54q-9.5-26-21.5-52t-27-51.5q-15-25.5-33-51.5t-30.5-44q-12.5-18-20.5-27-53-53-53-103 0-22 8-39t26.5-32q18.5-15 49.5-29t78-30a230.72 230.72 0 0 0 37-14.5 297.62 297.62 0 0 0 32-18.5l66-43q45-31 89-67a957 957 0 0 0 86-80q216-230 406-230 65 0 126 32 29 15 68 40.5t86 63.5q21 16 45.5 31.5a365.89 365.89 0 0 0 56 28.5 571.3 571.3 0 0 0 71 23.5q39.5 10.5 89.5 16.5l120 15q200 25 309 148 32 35 48.5 93.5t25.5 138.5l21 185q25 238 80 346 52 100 52 154z"/></svg>