<svg viewBox="0 0 2142 1882.8" xmlns="http://www.w3.org/2000/svg"><path d="m914 279q0 16 5.5 27t20.5 18.5q15 7.5 41 11.5t68 6l173 7q86 3 122-23t36-79q0-24-8.5-39a60.38 60.38 0 0 0 -24-23.5q-15.49-8.5-36-11.5a238.8 238.8 0 0 0 -44.5-2l-61 1-106-3-78 3q-55 2-81.5 30t-26.5 77zm581 744-807 23q-87 3-125.5-5.5t-38.5-40.5a23.13 23.13 0 0 1 7-17q7-7 24-11t45.5-5.5q28.5-1.5 71.5-2.5 44-1 154-5.5t289-13.5q355-18 587-18h75l57-1q119-3 119 46 0 11-10 19.5t-32 10.5q-59 7-163 11.5t-253 9.5zm344 369q114 0 114 44 0 26-42 32-51 6-103 10t-105 6l-921 38-119 3q-79 2-110-6t-31-38q0-17 22-26 22-7 141-12 60-2 179.5-9t302.5-18q183-11 350-17.5t322-6.5zm117-150q0 19-74 34-36 7-120 12.5t-218 9.5q-133 4-328.5 3t-456.5 4l-204 4q-17 0-30-8.5t-13-24.5q0-43 128-46l43-2q137-5 272-12t272-8l546-6 72-3h25a142.72 142.72 0 0 1 31.5 3.5 120.84 120.84 0 0 1 27.5 9.5 74.33 74.33 0 0 1 19.5 13.5q7.5 7.5 7.5 16.5zm0-480q0 19-75 34-38 7-122.5 12t-218.5 8q-133 4-279 5.5t-308 3.5q-161 1-260 2t-138 2a51.42 51.42 0 0 1 -30-9q-13-9-13-24 0-44 128-48l43-1q274-9 544.5-15t545.5-11l71-2h26l25 3a123.72 123.72 0 0 1 42 13q19 10 19 27zm78 630q0-206-2.5-396.5t-11.5-369.5q-2-59-41-93.5t-99-36.5l-54-1q-227-6-439-10t-414-4q-118 0-202.5 2.5t-137.5 7.5q-106 9-153 47t-48 101l-7 466-13 486q-2 51 8.5 86t32 56q21.5 21 53 30.5t73.5 9.5h9l10-2 147-7q899-40 1155-75 52-6 81-35 29-30 41-82 5-26 8.5-71t3.5-109zm108-366q0 102-3 198t-8 189q-5 92-11 150t-12 84q-10 49-33 87a219.54 219.54 0 0 1 -21.5 30 97.21 97.21 0 0 1 -25.5 20.5 170 170 0 0 1 -35 14.5 424.45 424.45 0 0 1 -49 11q-22 4-111.5 10t-247.5 16q-158 9-319 17.5t-330 16.5q-336 16-342 12l-81-1q-27 0-63-6.5t-77.5-18q-41.5-11.51-87-27t-91.5-34.5q-93-40-123-68a212.85 212.85 0 0 1 -27-30.5q-12-16.5-21-39.5t-14.5-54q-5.5-31-8.5-74 0-6 .5-45.5t2-100.5q1.5-61 3.5-137t4.5-155.5q2.5-79.5 4.5-155.5t4-137.5q2-61.5 3-101.5t1-46q8-74 27-126t53-81q65-59 235-77 96-10 177-15t150-5q86 0 86-33 0-7-4.5-15.5t-10-18.5a203.07 203.07 0 0 1 -10-21 57.72 57.72 0 0 1 -4.5-22q0-91 60-162a177.9 177.9 0 0 1 74.5-53q44.5-17 103.5-19l143-2h34q35 0 90 3t133 8q98 6 150 105 10 19 15.5 49.5t5.5 74.5q0 17-9 34t-9 29q0 54 182 54h42q66 0 123.5 5t105.5 17q59 14 94.5 48.5t51.5 90.5q30 110 30 508z"/></svg>