<svg viewBox="0 0 1686 2379" xmlns="http://www.w3.org/2000/svg"><path d="m1565 845q-14-38-14-139 0-45 7-114.5a1441.23 1441.23 0 0 0 7-144.5q0-83-17.5-145t-62.5-106q-23 84-102 168a496.66 496.66 0 0 1 -91 73.5 739.72 739.72 0 0 1 -110 56.5l-47 19q10 10 25 27t34.5 38.5q19.5 21.5 44 45.5t52.5 49q153 137 274 172zm-1014-332a931.15 931.15 0 0 1 -112.5-50.5 577.45 577.45 0 0 1 -99-66.5 457.45 457.45 0 0 1 -80.5-87.5q-35-49.5-57-112.5-45 44-63 106.5t-18 146.5q0 74 6.5 143t6.5 114q0 45-3 80t-10 59q29-5 70.5-26t95.5-57q28-19 61-47.5t73-66.5q41-38 72.5-72t57.5-63zm1135 339a104.59 104.59 0 0 1 -9.5 44.5 117.72 117.72 0 0 1 -25 35.5 112.66 112.66 0 0 1 -36.5 23.5 116.12 116.12 0 0 1 -44 8.5q-27 0-69-15t-97-45a755.71 755.71 0 0 1 -105-67 930.44 930.44 0 0 1 -95-83q-61 100-171 176l-32-18a301.8 301.8 0 0 0 -73.5-29q-39.5-10-84.5-10-110 0-192 57-106-73-171-176-93 93-201 152-54 29-96 43.5t-69 14.5a113.57 113.57 0 0 1 -43-8.5 118.73 118.73 0 0 1 -37-23.5 113.45 113.45 0 0 1 -25.5-35.5q-9.5-20.5-9.5-45.5a123.06 123.06 0 0 1 2-22 64.72 64.72 0 0 1 7-20q3-10 6-35t1-67l-5-113-7-144q-6-123 27.5-209.5t96.5-137.5q125-103 211-103 20 0 20 18 0 10-20 44-21 35-21 68 0 91 89 166 45 37 88.5 62.5t86.5 39.5q44 14 99 21.5t122 5.5l41-1 39 1q51 2 94.5-2.5a700.6 700.6 0 0 0 79.5-12.5 387.27 387.27 0 0 0 74.5-23 602.75 602.75 0 0 0 78.5-40q83-49 120.5-103.5t37.5-113.5q0-33-21-68-20-34-20-44 0-18 20-18 83 0 209 103 126 101 126 347 0 29-2 64.5t-5 79.5l-6 113q-3 41 0 66t8 36a64.72 64.72 0 0 1 7 20 128.68 128.68 0 0 1 2 23zm-394 1180-4 39q-3 17-38 55-17 19-28.5 30t-18.5 15q-58 56-111 95.5t-98.5 64.5q-45.5 25-83.5 36.5t-66 11.5q-45 0-110-31.5t-150-97.5q-86-65-132.5-109t-53.5-70l-4-38q0-36 10-106.5t32-179.5q22-109 49-216t59-214q32-107 57-178.5t40-107.5q8-19 27-34t45.5-26a293.71 293.71 0 0 1 58.5-17 357.37 357.37 0 0 1 66-6 488.22 488.22 0 0 1 71 5q34 5 61.5 15.5t47 26q19.5 15.5 27.5 36.5 57 153 101 302.5t78 295.5q34 146 51 246t17 157z"/></svg>