<svg viewBox="0 0 1898 1843" xmlns="http://www.w3.org/2000/svg"><path d="m1659 952q0-94-53.5-141.5t-140.5-47.5q-97 0-181 51a344.05 344.05 0 0 0 -76 61.5 395.28 395.28 0 0 0 -58 80.5 434.42 434.42 0 0 0 -37.5 93 371.16 371.16 0 0 0 -13.5 99q0 42 9.5 70t31 45q21.49 17 55.5 24t84 7a506.5 506.5 0 0 0 102.5-10 375.49 375.49 0 0 0 92.5-32 320 320 0 0 0 79.5-54.5 332.77 332.77 0 0 0 93.5-155.5 340.49 340.49 0 0 0 12-90zm-710 664a716.17 716.17 0 0 0 89-5.5 665.48 665.48 0 0 0 86-16.5q86-22 86-52 0-12-18.5-23t-52-19q-33.49-8-82-12.5t-108.5-4.5q-120 0-190 17t-70 42q0 29 86 52a691.49 691.49 0 0 0 174 22zm-332-322q49 0 82.5-7t54.5-24q21-17 30.5-45t9.5-69q0-100-53-194t-135-143q-82-49-177-49-87 0-140.5 48.5t-53.5 142.5q0 87 46 169 47 83 136 127t200 44zm332-1294q137 0 259 26.5t231 78.5q217 106 339 295 120 186 120 413 0 203-76.5 387.5t-219.5 330.5a1259.83 1259.83 0 0 1 -150.5 129 1020.19 1020.19 0 0 1 -168.5 99q-177 84-334 84-154 0-326-84a1206.81 1206.81 0 0 1 -165.5-98 1113.36 1113.36 0 0 1 -151.5-129 1069.13 1069.13 0 0 1 -129-156 1018 1018 0 0 1 -96-176.5 1065.61 1065.61 0 0 1 -60-190 930.68 930.68 0 0 1 -21-196.5q0-227 120-413 122-190 339-295 220-105 490-105z"/></svg>