<svg viewBox="0 0 1642 1517" xmlns="http://www.w3.org/2000/svg"><path d="m1306 358a74.33 74.33 0 0 0 34.5-8.5 90.21 90.21 0 0 0 29-24 117 117 0 0 0 19.5-36 136.79 136.79 0 0 0 7-44.5 133.63 133.63 0 0 0 -7-43.5 110.77 110.77 0 0 0 -19.5-35.5 99.62 99.62 0 0 0 -29-24 70.62 70.62 0 0 0 -69 0 99.62 99.62 0 0 0 -29 24 110.77 110.77 0 0 0 -19.5 35.5 133.63 133.63 0 0 0 -7 43.5 136.79 136.79 0 0 0 7 44.5 117 117 0 0 0 19.5 36 90.21 90.21 0 0 0 29 24 74.33 74.33 0 0 0 34.5 8.5zm-487 485q129 0 248-43 122-44 197-106 78-66 78-114 0-33-42-33-31 0-80 15t-111.5 32.5q-62.5 17.5-136 32.5t-153.5 15q-139 0-402-80-50-15-80-15-41 0-41 33 0 47 76 111 77 65 195 108a742.52 742.52 0 0 0 123.5 33 740.39 740.39 0 0 0 128.5 11zm-580-598a136.79 136.79 0 0 0 7 44.5 117 117 0 0 0 19.5 36 90.21 90.21 0 0 0 29 24 74.33 74.33 0 0 0 34.5 8.5 76.35 76.35 0 0 0 35.5-8.5 85.2 85.2 0 0 0 28.5-24 123.4 123.4 0 0 0 19-36 136.79 136.79 0 0 0 7-44.5 133.63 133.63 0 0 0 -7-43.5 116.54 116.54 0 0 0 -19-35.5 93.63 93.63 0 0 0 -28.5-24 73 73 0 0 0 -35.5-9 71.07 71.07 0 0 0 -34.5 9 99.62 99.62 0 0 0 -29 24 110.77 110.77 0 0 0 -19.5 35.5 133.63 133.63 0 0 0 -7 43.5zm408 180a52.62 52.62 0 0 0 -31.5 10.5q-14.5 10.5-14.5 32.5 0 35 39 35a48.4 48.4 0 0 0 30.5-10.5q13.5-10.5 13.5-30.5 0-37-37-37zm342 0q-37 0-37 37 0 20 13 30.5a46.39 46.39 0 0 0 30 10.5q37 0 37-35 0-22-13.5-32.5t-29.5-10.5zm653 476q0 186-95 323t-286 215q-191 78-443 78-382 0-600-163t-218-451q0-143 86-348 20-48 20-82a340.25 340.25 0 0 0 -2-36.5 202.82 202.82 0 0 0 -7-35.5q-15-48-15-88v-16q0-78 20-134t57-92.5q37-36.5 88.5-53.5t113.5-17q60 0 111 16a279.63 279.63 0 0 1 93 50 133.87 133.87 0 0 1 24.5 25q10.5 14 20 29t18.5 30a212.64 212.64 0 0 0 21 29q6 7 22.5 12.5t40 9q23.5 3.5 51.5 5.5t57 2q145 0 173-29a195 195 0 0 0 21.5-28 352.18 352.18 0 0 0 17.5-31q14-27 39-49a247.83 247.83 0 0 1 57.5-37.5 354 354 0 0 1 151.5-33.5q62 0 115 16.5t90.5 52.5q37.5 36 57 92.5t16.5 135.5l-1 34a211.79 211.79 0 0 1 -5 35.5q-4 17.5-8.5 35t-8 35.5a188.47 188.47 0 0 0 -3.5 36q0 16 6 36t16 46l59 166a448.47 448.47 0 0 1 21.5 87 650.45 650.45 0 0 1 6.5 93z"/></svg>