<svg viewBox="0 0 1962 1975" xmlns="http://www.w3.org/2000/svg"><path d="m1649 374q0-25-32-25t-60 33q-51 57-105.5 137t-117.5 186q-83 141-143.5 232.5t-98.5 138.5q-38 46-99.5 102.5t-149.5 122.5q-26 20-42.5 33.5t-21.5 21.5q-11 16-11 30 0 11 13 11 54 0 101-10a346.13 346.13 0 0 0 89-32q85-43 154-118 35-38 78-103t99-158l136-226 167-275q8-13 15-25.5a173 173 0 0 0 12-26.5 115.48 115.48 0 0 1 10-24q7-13 7-25zm19-108v-17q0-48-34-73.5t-88-25.5q-98 0-205 108-111 109-297 428-33 57-80 118t-107 128q-61 67-99 108.5t-55 57.5q-111 108-111 194 0 40 18 58t60 29a199.94 199.94 0 0 1 22.5-43.5q14.5-21.49 37-44.5t55-49q32.5-26 77.5-58 103-74 198-199 49-63 104-144.5t117-183.5q17-29 55-86t96-142q114-166 210-166zm294 228q0 66-10.5 123.5t-33.5 106.5a1076.52 1076.52 0 0 0 -73 220.5q-25 115.5-25 246.5-1 112-22 160.5t-63 48.5q-37 0-56.5-28.5t-17.5-86.5l1-63q1-70-4.5-118.5t-17.5-78.5q-12-30-29-43a61 61 0 0 0 -38-13q-25 0-54 29-15 14-31.5 37.5t-34.5 58.5q-35 62-100 255-58 172-118 260-121 179-318.5 272.5t-452.5 93.5a1092.52 1092.52 0 0 1 -265-32q-66-15-106.5-33t-58.5-38q-34-38-34-99 0-95 148-251 133-140 268-319 30-40 82-95t127-124q78-72 132.5-124.5t83.5-87.5q30-35 67.5-88t82.5-124q64-103 111.5-173.5t78.5-108.5q31-39 65-75.5t72-70.5q77-70 143.5-101t133.5-31q154 0 260 141 107 142 107 353z"/></svg>