<svg viewBox="0 0 2020 2245" xmlns="http://www.w3.org/2000/svg"><path d="m1624 1103q0-41-13-74a382 382 0 0 1 -16.5-54.5 230 230 0 0 1 -5.5-48.5v-29a371.31 371.31 0 0 1 4-55.5q4-26.5 9-51t9-48.5a291.14 291.14 0 0 0 4-48q0-87-57-159-56-71-160-71-46 0-131 46-85 47-132 47-48 0-135-47-88-46-136-46-59 0-94 17t-64 51a254.36 254.36 0 0 0 -45 77q-16 43-16 83a286.17 286.17 0 0 0 3.5 41.5q3.5 23.5 10.5 54.5a576.87 576.87 0 0 1 12 57.5q4 26.5 2 47.5l-4 62a283.75 283.75 0 0 1 -6.5 37.5q-4.5 18.5-10 36.5t-9.5 36.5a176.68 176.68 0 0 0 -4 37.5q0 135 138 223 136 87 343 87 228 0 365-87 139-89 139-223zm-330 581q0-59-41-115-41-55-121-55-33 0-60 11.5a141.76 141.76 0 0 0 -46.5 31.5q-19.5 20-30 49t-10.5 63q0 103 106 103 71 0 124-9 26-4 41.5-10t24-15.5a46.11 46.11 0 0 0 11-22.5 166.24 166.24 0 0 0 2.5-31zm-955-776q0 61 27 101t69 43a733.31 733.31 0 0 1 -12-78 557 557 0 0 1 -2-82l6-100q-88 22-88 116zm1495-128 7 81v31q0 47-3 83.5t-8 65.5q45 0 72-39.5t27-105.5q0-98-95-116zm186 765q0 86-57.5 148t-173.5 106q-20 8-40 18t-39.5 19a358.58 358.58 0 0 1 -39.5 15.5 131.92 131.92 0 0 1 -41 6.5 146 146 0 0 1 -45.5-7 144 144 0 0 1 -38-18.5q-16.5-11.51-26-26.5a58.81 58.81 0 0 1 -9.5-32 52.61 52.61 0 0 1 8.5-28.5q8.5-13.5 25.5-12.5l39 2q21 1 32-3.5t11-11.5q0-1-2-6a49 49 0 0 0 -6-10.5 36.34 36.34 0 0 0 -10.5-9.5q-6.49-4-16.5-3l-22 1q-17 2-17-11 0-23 28-37t70-12l72 3q86 3 86-55 0-51-41.5-81.5t-108.5-30.5q-82 0-130 40-51 59-51 160 0 51 21 117 11 34 15.5 61.5a309.43 309.43 0 0 1 4.5 49.5 210.47 210.47 0 0 1 -3.5 40 182.89 182.89 0 0 1 -10 34 249.5 249.5 0 0 1 -15.5 31.5q-9 15.49-21 32.5-36 50-36 76 0 9 7 18.5t20 20.5q28 23 28 43 0 24-23.5 38.5t-57.5 14.5q-26 0-45.5-3.5a157.66 157.66 0 0 1 -35.5-10.5q-14-6-28-20a164.7 164.7 0 0 1 -25-32.5 198.13 198.13 0 0 1 -18-40 136.59 136.59 0 0 1 -7-42.5q0-13 5.5-30a375.87 375.87 0 0 1 15.5-39q19-41 19-75 0-45-37-69.5t-103-24.5q-150 0-150 115 0 24 15 78 7 26 11 45t4 31q0 36-45 76-45 39-82 39-42 0-73-18t-31-47a33.64 33.64 0 0 1 9.5-24 180.22 180.22 0 0 1 20.5-18.5q11-8.51 20.5-17t9.5-18.5q0-18-17-35t-36.5-35.5a283.71 283.71 0 0 1 -35-40q-15.5-21.5-13.5-48.5l1-18-1-7q-88 28-166 42t-149 14q-179 0-286-67-108-67-108-188 0-93 57-156 59-63 132-63a148.19 148.19 0 0 1 49 8 107.21 107.21 0 0 1 40 24.5q17 16.5 27 42t10 60.5q0 81-46 81-20 0-28.5-15t-8.5-30v-20q0-46-47-46-38 0-60.5 29.5t-22.5 74.5a114.46 114.46 0 0 0 20.5 66q20.5 30 58 51t90 32.5q52.5 11.5 116.5 11.5 112 0 213-35 53-18 90-40t61-45a434.5 434.5 0 0 0 -4-58.5q-4-29.51-11-60.5-8-32-16.5-52.5t-19.5-30.5q-745-93-745-626 0-131 46-245 24-57 68-136.5t110-181.5q58-90 74-156 23-97 101-148 81-52 168-52 27 0 60 8a265.87 265.87 0 0 1 61.5 23q28.5 15 48 36t19.5 47a69.25 69.25 0 0 1 -7 30.5 87.72 87.72 0 0 1 -18.5 25.5 89.47 89.47 0 0 1 -26.5 17.5 77.25 77.25 0 0 1 -31 6.5 185.55 185.55 0 0 1 -54-8.5 185.55 185.55 0 0 0 -54-8.5 68.15 68.15 0 0 0 -25.5 5 80.76 80.76 0 0 0 -22.5 13.5 85.33 85.33 0 0 0 -16.5 18.5q-6.5 10-6.5 20 0 12 10.5 19.5t26.5 7.5l49-9q11 0 22.5 7.5t11.5 25.5q0 20-23.5 41t-84.5 57q-82 48-174 175-92 129-117 207a477.79 477.79 0 0 0 -25 154q0 154 84 243.5t254 112.5a390.43 390.43 0 0 1 -39-60.5 553.5 553.5 0 0 1 -30-68.5q-44 0-81-16a189.74 189.74 0 0 1 -65-46.5q-28-30.49-43.5-75t-15.5-101.5q0-49 13.5-89.5t38.5-70a176.33 176.33 0 0 1 60-46q35-16.5 78-16.5 44-167 141-295 100-130 241.5-191.5t304.5-61.5q161 0 301 60a570.66 570.66 0 0 1 130 77.5 658.28 658.28 0 0 1 108.5 109 770.91 770.91 0 0 1 85 135 887.63 887.63 0 0 1 59.5 155.5q47 0 83.5 16.5a180.43 180.43 0 0 1 62 45.5q25.5 29 38.5 70.5t13 90.5q0 96-40.5 158t-123.5 76l-32 6-9-2q-17 51-39.5 91a425.64 425.64 0 0 1 -50.5 72l42-2q46-3 90 17t86 58q85 75 85 174zm-889-550q-29 0-51.5-16t-22.5-39q0-38 81-38 67 0 67 37 0 23-20 39.5t-54 16.5zm3 42q42 0 64.5 41.5t22.5 106.5q0 54-25 87.5t-66 33.5q-23 0-39.5-10.5a86.64 86.64 0 0 1 -27.5-28.5q-11-18-16.5-41.5a211.94 211.94 0 0 1 -5.5-48.5q0-35 8-61t21.5-43.5q13.5-17.51 30-26.5t33.5-9zm221-354q38 0 63.5 31t25.5 75a121.81 121.81 0 0 1 -7 41.5 112.38 112.38 0 0 1 -19 34 92.34 92.34 0 0 1 -28 23 73.4 73.4 0 0 1 -35 8.5 68.52 68.52 0 0 1 -33.5-8.5 94.72 94.72 0 0 1 -27.5-23 112.38 112.38 0 0 1 -19-34 121.81 121.81 0 0 1 -7-41.5 117.61 117.61 0 0 1 7-41 113.75 113.75 0 0 1 19-33.5 94.72 94.72 0 0 1 27.5-23 68.52 68.52 0 0 1 33.5-8.5zm-448 0a71.4 71.4 0 0 1 34 8.5 86.74 86.74 0 0 1 27.5 23 120.46 120.46 0 0 1 18.5 33.5 117.61 117.61 0 0 1 7 41 121.81 121.81 0 0 1 -7 41.5 118.85 118.85 0 0 1 -18.5 34 86.74 86.74 0 0 1 -27.5 23 71.4 71.4 0 0 1 -34 8.5 73.4 73.4 0 0 1 -35-8.5 92.34 92.34 0 0 1 -28-23 112.38 112.38 0 0 1 -19-34 121.81 121.81 0 0 1 -7-41.5q0-44 25.5-75t63.5-31z"/></svg>