<svg viewBox="0 0 2178 2061.05" xmlns="http://www.w3.org/2000/svg"><path d="m1357 481-257-71 34 63 264 82 142-154-12-91-137 162q-9 11-24 11zm-347 59a101.53 101.53 0 0 0 -38.5 7.5 99.41 99.41 0 0 0 -32 20.5 101 101 0 0 0 -21.5 30 81.37 81.37 0 0 0 -8 35 42.58 42.58 0 0 0 5 21 67.56 67.56 0 0 0 13 16.5 171.59 171.59 0 0 0 17 14 139.41 139.41 0 0 1 17 14.5l42 34a312.57 312.57 0 0 0 31.5 23q18.49 12 43.5 28 52 30 62 23 36 0 36-43-1-13-10.5-33.5t-24.5-49.5a554.5 554.5 0 0 0 -32.5-55 378.31 378.31 0 0 0 -35-45q-17.51-19-34-30t-30.5-11zm-226 349a82.45 82.45 0 0 0 7.5 34.5 128.1 128.1 0 0 0 19.5 30.5 167.85 167.85 0 0 0 27.5 25.5 161.64 161.64 0 0 0 31.5 18.5q103 9 137 9 78-27 78-85 0-16-19-32t-54-38l-91-59q-32-20-56-20-36 0-59 43-22 43-22 73zm1001-141q0-20-7-34a66.44 66.44 0 0 0 -18.5-23 81.59 81.59 0 0 0 -25.5-13.5 91 91 0 0 0 -28-4.5q-30 0-126 33-96 32-146 66.5t-50 64.5q0 33 72 33a540.64 540.64 0 0 0 69-4.5q35-4.5 72-12.5l75-15q66-13 89.5-33.5t23.5-56.5zm-381 283q0 55 58 96 59 41 122 41 33-3 59.5-11t45-23.5q18.49-15.49 28-40.5t8.5-62q-1-42-18.5-63.5t-55.5-21.5l-46 4-48 7-47 3q-54 3-80 18t-26 53zm-130 780a46.5 46.5 0 0 0 -7.5-25 98 98 0 0 0 -19-22 89.33 89.33 0 0 0 -25-15.5 57.77 57.77 0 0 0 -26.5-4.5l-25 1q-8 1-20-5.5t-29-17.5q-35-23-60-23-23 0-56 16l-14 3q-13 0-26-7.5a57 57 0 0 0 -29-7.5q-31 0-31 37 0 20 27 72 27 53 58.5 86t60.5 33q23 0 55-12l79-29q88-31 88-79zm204-1598-150-120-244 65v169l-2 11 270 73-14-45-37-113-7-23-5-28q0-14 13-14l67 7q31 4 58 8t51 10zm623 836q0-131-34-242-35-116-86-182-54-69-68-69-11 0-11 13t8 22q22 28 22 54 0 13-11 24a28.43 28.43 0 0 0 -11 23q0 16 27 49 28 34 28 52 0 8-6.5 15a121.35 121.35 0 0 1 -17.5 15q-23 18-23 30 0 21 25 59 24 39 24 66 0 21-18 31-17 10-17 36 0 20 8.5 42.5t25.5 50.5q25 42 35.5 78.5t10.5 67.5q0 64 21 82 22-23 34-61t19-92l7-53q3-25 5.5-52.5t2.5-58.5zm-324 539q0-43-56-74l-27-15-39-27q-35-26-80.5-56t-106.5-59q-5-6-8-20.5t-7-35.5q-18-108-84-108 29 38 29 93 0 74-81 74-60 0-88-31-28-29-46.5-39a83.75 83.75 0 0 0 -40.5-10q-10 5-22 10a148.61 148.61 0 0 1 -26 8q-13 3-56.5 11t-118.5 22q-146 27-249 33-34 25-34 63 0 20 10.5 30.5a83.71 83.71 0 0 0 23 16.5q12.5 6 23 10.5t10.5 11.5q0 6-3 15l-6.5 19.5s-2.17 7.5-6.5 22.5-5.33 23-3 24q0 17 11 29t31 12q24 0 59.5-22t80.5-70a373.87 373.87 0 0 1 100.5-74.5q57.5-29.5 119.5-29.5 119 0 262 176 45 57 79.5 96t59.5 61q49 42 81 42 31 0 37-33a33.24 33.24 0 0 1 1.5-10.5q1.5-4.5 7-8.5t16.5-8.5q11-4.5 32-10.5 40-11 52-37l6-37q7-12 16-13 26-8 33.5-19.5t7.5-31.5zm401-512q0 224-67 441-68 220-160 325-94 108-236.5 163t-328.5 56q-111 1-214-18t-193.5-57.5q-90.5-38.5-165.5-96.5a619.49 619.49 0 0 1 -129-135q-54-77-84-173.5t-31-211.5l-137 6q-101 4-181-13t-136-50.5q-56-33.5-85.5-83.5t-29.5-112q0-93 71-157 72-66 174-66a466.51 466.51 0 0 1 52.5 3q26.5 3 55.5 8t74.5 16.5q45.5 11.5 110.5 25.5l95 21a1284.42 1284.42 0 0 1 58-158.5 1363.25 1363.25 0 0 1 83-158.5q98-162 221-262l2-264q2-33 33-42 152-42 228-62t79-20a45.37 45.37 0 0 1 28 9l222 178q12 10 15 27l12 77q162 60 293 153a565.32 565.32 0 0 1 115.5 112q50.51 65 85 145.5t52.5 175q18 94.5 18 199.5z"/></svg>