<svg viewBox="0 0 2232 2231" xmlns="http://www.w3.org/2000/svg"><path d="m2232 516q0 125-125 372-63 125-139.5 245.5a2740.79 2740.79 0 0 1 -170.5 238.5 2700.38 2700.38 0 0 1 -198 222.5 2467.31 2467.31 0 0 1 -222 197.5q-233 184-485 312-250 127-377 127-110 0-223-89-57-45-125.5-125.5t-149.5-197.5q-17-23-17-50 0-42 36-67l479-342q23-17 49-17 40 0 70 40 43 58 87 143t92 198q102-16 245-103.5t309-253.5q166-167 253-309.5t104-245.5q-79-32-140.5-63.5t-108.5-57.5l-35-21q-47-27-71.5-52t-24.5-54a98 98 0 0 1 3.5-26.5 73.38 73.38 0 0 1 11.5-23.5l343-479q26-35 67-35 27 0 51 16 116 82 196 151t125 127q45 58 68 113t23 109z"/></svg>