<svg viewBox="0 0 2382 1875" xmlns="http://www.w3.org/2000/svg"><path d="m333 1108a142 142 0 0 1 4.5-35.5 118.32 118.32 0 0 1 12.5-31 77 77 0 0 1 19-22 39.79 39.79 0 0 1 25-8.5q16 0 28 14.5t12 42.5a118.42 118.42 0 0 1 -5 34.5 125.47 125.47 0 0 1 -13 29.5 66.4 66.4 0 0 1 -19 20.5 40.22 40.22 0 0 1 -23 7.5q-41 0-41-52zm-154-48q0-32 22-70 23-40 51-40 17 0 26 16.5t9 33.5a134.27 134.27 0 0 1 -5.5 38.5 109.94 109.94 0 0 1 -18.5 35.5q-23 32-49 32-10 0-22.5-10.5t-12.5-35.5zm1336-599a130.84 130.84 0 0 0 -8-45 120.54 120.54 0 0 0 -23-39 114.28 114.28 0 0 0 -37-27.5q-22-10.5-51-10.5a166.11 166.11 0 0 0 -34.5 3.5 222.71 222.71 0 0 0 -34.5 10.5 185.34 185.34 0 0 0 -64 38q-30 26-30 37 0 5 6.5 10.5t11.5 5.5q11 0 20-8 44-35 88-35a136.15 136.15 0 0 1 31 3.5 76 76 0 0 1 27 12 63.64 63.64 0 0 1 19 21q7 12.5 7 30.5 0 24-16.5 42a222.3 222.3 0 0 1 -36.5 32q-20 14-36.5 26t-16.5 25q0 10 16 10 61 0 111-41 51-43 51-101zm-496 421a60.14 60.14 0 0 0 29-7 72.06 72.06 0 0 0 22.5-19 86.81 86.81 0 0 0 14.5-27.5 102.08 102.08 0 0 0 5-31.5 113.46 113.46 0 0 0 -7-40.5 107 107 0 0 0 -18-31.5 81.42 81.42 0 0 0 -26-20.5 68.51 68.51 0 0 0 -31-7.5q-32 0-52 25.5t-20 61.5q0 44 25.5 71t57.5 27zm-182 475a112.4 112.4 0 0 0 43.5-8.5 120.3 120.3 0 0 0 36.5-23.5 107.06 107.06 0 0 0 25-35.5 109.48 109.48 0 0 0 9-44.5q0-19-8-32t-22-24.5q-14-11.51-32.5-24a326.94 326.94 0 0 1 -38.5-31 397.76 397.76 0 0 1 -41-45q-21-26.5-40-66.5-5-11-19-11-13 1-18 13-1 3-8.5 33.5t-7.5 79.5q0 49 9 89.5t24.5 69.5q15.5 29 38 45a83.52 83.52 0 0 0 49.5 16zm-268-742a68.52 68.52 0 0 0 -33.5 8.5 95.67 95.67 0 0 0 -27 22 103.72 103.72 0 0 0 -18 30.5 97.27 97.27 0 0 0 -6.5 35q0 30 17 52t46 22a78.53 78.53 0 0 0 30.5-6.5 86.92 86.92 0 0 0 28-19 100 100 0 0 0 20.5-30.5q8-18 8-40a81.59 81.59 0 0 0 -17.5-51.5q-17.5-22.5-47.5-22.5zm-28 476q0-77-98-141-97-62-194-62-33 0-61 9.5a141.38 141.38 0 0 0 -48.5 27.5 126.15 126.15 0 0 0 -32 43.5q-11.5 25.5-11.5 58.5 0 80 82 140 82 58 190 58 78 0 125.5-36t47.5-98zm1841-280q0 23-20.5 41.5t-53.5 18.5a93.27 93.27 0 0 1 -33-6q-16-6-30-6-34 0-86 66-26 32-67.5 49t-99.5 15l-60-2q-47-1-73.5-36.5t-26.5-102.5q0-72 20-129a86.32 86.32 0 0 0 7-33q0-15-11-15t-34 40a388.23 388.23 0 0 0 -34 83 325.87 325.87 0 0 0 -12 88 343 343 0 0 0 4.5 55.5 376.58 376.58 0 0 0 12 51.5 268.72 268.72 0 0 0 17 42.5q9.5 18.5 20.5 28.5l-249 250q-63 64-91 125-14 29-29.5 93.5t-36.5 163.5q-5 24-12 48.5a416.61 416.61 0 0 1 -15.5 45 220.23 220.23 0 0 1 -19 36.5q-10.5 16-23.5 23a171 171 0 0 1 -27 13.5 208 208 0 0 1 -33 9.5 302.23 302.23 0 0 1 -43.5 5.5q-24.5 1.5-57.5 1.5-148 0-148-61 0-27 22-93l16-51 11-51a282.76 282.76 0 0 1 11.5-56 185.29 185.29 0 0 0 8.5-56 39.44 39.44 0 0 0 -5.5-21q-5.51-9-18.5-16t-35-12q-22-5-55-8l-178-17-25 67-28 69-26 55q-23 48-65.5 73t-108.5 25a492.53 492.53 0 0 1 -72.5-5q-33.5-5-58-13.5t-38-21q-13.5-12.5-13.5-27.5 0-14 10-31l38-93 53-122 10-29q-172-35-276-89l-15-5q-49-18-86-46t-62-62.5a272.58 272.58 0 0 1 -38-73 240.8 240.8 0 0 1 -13-77.5q0-46 16-86.5a225.64 225.64 0 0 1 45.5-72q29.5-31.5 71-51t93.5-24.5l42-9q25-6 56.5-27.5t68-62q36.5-40.5 78-101.5t86.5-146q16-30 33.5-58.5t36.5-54.5q-9-17-19.5-34.5t-19-35.5a292.9 292.9 0 0 1 -14.5-37 132.06 132.06 0 0 1 -6-40q0-32 22-47.5t54-15.5q59 0 98 70a508.07 508.07 0 0 1 89-82.5 586.26 586.26 0 0 1 108-61.5q59-26 117-38a566.43 566.43 0 0 1 115-12q174 0 491 106 39 14 77 25t74 21a183.41 183.41 0 0 1 32 7q16 5 32.5 10t34 9a158.64 158.64 0 0 0 35.5 4q62 0 101-36 19-17 31-26.5t17-13.5q9-5 23-5 21 0 21 42 0 25-9.5 45.5a174.59 174.59 0 0 1 -24.5 38.5 209.6 209.6 0 0 1 -34 32.5q-19 14.5-39 27.5 81 102 81 261 0 110 38 122l29 6q57 3 75 12 18 8 51 31 32 24 53.5 48t21.5 44z"/></svg>