<svg viewBox="0 0 1978 1952.72" xmlns="http://www.w3.org/2000/svg"><path d="m1581 251-1 9q0 11 8 11t24-11q16-11 43-31l49-37q28-21 43-34t15-21a34.13 34.13 0 0 0 -5-17.5 63.11 63.11 0 0 0 -13-15.5 75.52 75.52 0 0 0 -17.5-11.5 45.06 45.06 0 0 0 -19.5-4.5q-42 0-81 61a627.23 627.23 0 0 0 -30.5 57q-11.5 25-14.5 45zm3 209q0-28-67-47a562.76 562.76 0 0 0 -67.5-14 491.43 491.43 0 0 0 -70.5-5q-125 0-298 58a1430.39 1430.39 0 0 0 -177.5 72.5q-89.5 43.5-183.5 103.5-245 158-330 363-34 83-52 224-2 17-14.5 30.5t-29.5 13.5q-40 0-40-55l7-61a718 718 0 0 1 40-166q30-81 85-159a920.25 920.25 0 0 1 125.5-145.5q71.5-67.5 161.5-126.5a1386.17 1386.17 0 0 1 185.5-102.5 1302.21 1302.21 0 0 1 198.5-71.5l143-38q-6-12-50-12-107 0-202 20-95 21-261 100-169 80-285 179-116 98-174 208-57 110-83.5 236.5a1233 1233 0 0 0 -26.5 253.5q0 75 12 130a391.12 391.12 0 0 0 32 117.5 335.65 335.65 0 0 0 66 97.5 381.3 381.3 0 0 0 45 38.5 338.77 338.77 0 0 0 48 29.5 333.44 333.44 0 0 0 45.5 19q21.5 7 36.5 7 20 0 30.5-13.5t8.5-39.5l-4-69q-9-152 7.5-270.5t42.5-203.5q53-174 185-303 133-130 404-243a1816.72 1816.72 0 0 1 188-66.5q97-28.5 201-48.5 6-1 25-5t40-10a367.82 367.82 0 0 0 37-12.5q16-6.5 16-13.5zm394 642a608.18 608.18 0 0 1 -3 61.5q-3 29.51-8 58.5-13 75-68 148-55 72-177 161-60 45-176 108t-289 147q-86 41-166 74a1578.82 1578.82 0 0 1 -154.5 55q-74.5 22-143.5 31.5t-132 4.5l-81-7a1341.87 1341.87 0 0 1 -159-23q-77-16-150-56-144-79-208-204-32-62-47.5-149.5t-15.5-201.5a1239.79 1239.79 0 0 1 10.5-160.5 1609.59 1609.59 0 0 1 30.5-164.5 818.83 818.83 0 0 1 145-306q106-140 267-245 163-105 358-164a1382.74 1382.74 0 0 1 195.5-44.5 1299.94 1299.94 0 0 1 193.5-14.5 828.89 828.89 0 0 1 95.5 5.5 837.9 837.9 0 0 1 94.5 16.5 161.76 161.76 0 0 1 26.5 9.5 69.4 69.4 0 0 0 28.5 6.5q21 0 30-23l24-63q24-61 82-112 60-51 119-51 53 0 110 48t57 99a63.75 63.75 0 0 1 -6 27 201.54 201.54 0 0 1 -17 29q-11 15-39.5 41.5t-78.5 59.5l-16 11q-44 23-44 44 0 17 19 31 31 22 65 65t72 108a1116 1116 0 0 1 115 272q41 146 41 267z"/></svg>