<svg viewBox="0 0 2426.18 2038" xmlns="http://www.w3.org/2000/svg"><path d="m1213 1565q-21 0-37.5-5a108.92 108.92 0 0 1 -28-12.5q-11.5-7.5-17.5-15.5t-6-15q0-14 19-14l11 3q32 16 59 16 16 0 26.5-3a123 123 0 0 0 18-6.5 137.56 137.56 0 0 0 12.5-6.5 21 21 0 0 1 11-3q19 0 19 14 0 7-6 15t-17.5 15.5a110.37 110.37 0 0 1 -27.5 12.5 120.62 120.62 0 0 1 -36 5zm-160-337q0 35-47 66a195.52 195.52 0 0 1 -48.5 23q-25.5 8-55.5 8-59 0-105-31-45-30-45-64a24.37 24.37 0 0 1 8-18.5 26.84 26.84 0 0 1 19-7.5q12 0 21.5 9.5t22 20.5q12.5 11 31 20.5t48.5 9.5q26 0 51-12.5t51-38.5q8-9 22-9 27 0 27 24zm636 2q0 33-47 64a183.23 183.23 0 0 1 -103 31q-61 0-107-31-45-30-45-64a24.37 24.37 0 0 1 8-18.5 26.84 26.84 0 0 1 19-7.5q12 0 22 9.5t23 20.5a166.22 166.22 0 0 0 31.5 20.5q18.5 9.5 48.5 9.5 50 0 101-51a29.92 29.92 0 0 1 22-9l13 2q14 10 14 24zm-331 372q9 0 14.5 9t5.5 17q0 35-47 65-47 31-118 31t-118-31q-48-31-48-64 0-27 21-27 8 0 30 13a164 164 0 0 0 53 34q30 12 65 12 34 0 61.5-12a186.52 186.52 0 0 0 51.5-34q9-8 16.5-10.5a41 41 0 0 1 12.5-2.5zm-851-1036v14q0 11 2 53.5t5 120.5q6 151 20 188 15 38 21 44 35-34 96.5-70t149.5-76q89-41 166.5-63.5t145.5-29.5q27-3 27-14 0-19-58-55l-18-11q-91-56-162-120.5t-125-134.5q-19-24-32.5-39a269.41 269.41 0 0 0 -24-24q-10.5-9-18.5-12a40.74 40.74 0 0 0 -14-3q-37 0-84 50a698.09 698.09 0 0 0 -44.5 56 680.91 680.91 0 0 0 -41.5 66q-11 19-11 60zm271-293q0 14 12 26 342 363 579 414 106 22 189 52t146 68q63 38 108 67t74 52q14-32 23.5-137t9.5-269v-43q-13-27-24.5-48.5a346.78 346.78 0 0 0 -24.5-39.5 397.35 397.35 0 0 0 -28.5-35 414 414 0 0 0 -36.5-35q-241-210-580-210a966.49 966.49 0 0 0 -157 12.5 832.62 832.62 0 0 0 -148 38.5q-142 51-142 87zm989 1327q0-5-10-8-54-3-87.5-37.5t-33.5-82.5a234.94 234.94 0 0 1 2-31 214.2 214.2 0 0 1 7-32q5-17 16-42t28-59q17-34 32-63.5t28-53.5q14-24 34.5-59t49.5-80q-260-215-579-215-333 0-655 224l16 25q11 17 31.5 53.5t52.5 94.5q31 58 50 96.5t26 60.5q14 41 14 75 0 99-99 123a70 70 0 0 1 -22 4q-10 0-10 7l41 88q80 113 220 178 138 64 293 64a659.42 659.42 0 0 0 234-42.5 717.89 717.89 0 0 0 207-120.5q17-14 37.5-37t45.5-57l8-18q10-22 16.5-35t6.5-20zm659-1470-12 236q-11 210-20.5 331t-9.5 156q0 44 4 87.5t9 87q5 43.5 9 87t4 86.5q0 70-12 170-13 100-33.5 187t-61.5 159a762.26 762.26 0 0 1 -67.5 97.5 568.55 568.55 0 0 1 -83.5 84q-45 36.49-93.5 58.5t-97.5 22a402.42 402.42 0 0 1 -81-8q-39-8-71-22.5t-55-36q-23-21.49-34-48.5-20 17-39.5 30.5a452.3 452.3 0 0 1 -39.5 24.5q-34 25-81 46.5t-110 38.5q-123 34-238 34-132 0-273-46-142-48-235-125-23 53-85 82.5t-150 29.5q-69 0-136.5-40.5t-125.5-102.5a650.68 650.68 0 0 1 -53.5-67.5 624 624 0 0 1 -44.5-75.5q-20-38-36.5-95.5t-30.5-132.5q-14-76-20-141.5t-6-121.5a689.93 689.93 0 0 1 5-82.5q5-41.5 10.5-82.5t9-82a613.38 613.38 0 0 0 1.5-82l-10-177q-12-233-22-374t-10-192q0-29 16-48t45-19q32 0 53 24 8 8 14 54.5t14 131.5q7 85 10.5 147t5.5 104l3 45q7 112 13.5 199t6.5 153q0 26-4 68.5t-12 102.5q-8 55-12 98t-4 75q0 254 110 424t226 170q51 0 80.5-24.5t29.5-60.5q0-51-70-142a455 455 0 0 1 -32-47.5 477.46 477.46 0 0 1 -26.5-52 401.81 401.81 0 0 1 -18.5-51.5q-7-25-7-46 0-41 35-41 20 0 34 15.5t28 33.5a267.35 267.35 0 0 0 31 33.5q17 15.49 42 15.5 67 0 67-50 0-11-5-26a263.73 263.73 0 0 0 -13-31.5 345.61 345.61 0 0 0 -18-32.5 254 254 0 0 0 -20-28q-8-11-33-46.5t-67-98.5q-84-124-111-207-14-42-22.5-112.5t-12.5-171.5q-5-101-6.5-212.5t-1.5-236.5v-79q0-97 72-97 34 0 49 21t15 44v74l2 125q56-78 168-158 115-81 258-125t300-44a1035.64 1035.64 0 0 1 190 17.5 1010.5 1010.5 0 0 1 181.5 51.5 967.05 967.05 0 0 1 318.5 203v-144q0-23 14.5-44t50.5-21q36 0 54.5 23.5t18.5 84.5v94q0 509-34 666-25 109-143 280l-78 113q-10 15-20 31t-18.5 32a213.69 213.69 0 0 0 -13.5 30.5q-5 14.51-5 24.5 0 17 15 33.5t52 16.5q25 0 42-15.5a267.35 267.35 0 0 0 31-33.5q14-18 28-33.5t34-15.5q34 0 34 41 0 86-84 198-70 92-70 141 0 36 30 60.5t79 24.5q117 0 227-171 111-171 111-417 0-28-4-71t-12-102q-8-54-12.5-96.5t-4.5-74.5q0-76 8-164.5t14-193.5l3-45q5-71 8.5-141t9.5-140q12-141 24-156 22-24 54-24 22 0 42.5 15.5t18.5 51.5z"/></svg>