<svg viewBox="0 0 2386 2095" xmlns="http://www.w3.org/2000/svg"><path d="m1584 623q75 0 119 56.5t44 151.5q0 38-8 84.5t-22 103.5q-12 47-22 77.5t-21.5 48.5q-11.51 18-24 25t-28.5 7q-68 0-131-6a896.06 896.06 0 0 1 -122-20q-117-28-180-86t-63-150a203.82 203.82 0 0 1 13.5-74q13.5-35 37.5-60.5a154 154 0 0 1 58-38.5q34-13 75-10l104 8q13 2 24.5-9.5t22.5-33.5q18-36 52-55a145.37 145.37 0 0 1 72-19zm635 353q0-67-71-208-21-42-40-83.5t-35-83.5q-38-99-111-223-36-62-60-100.5t-37-54.5q-25-31-25-23-6 0-8 7-1 3-9.5 77.5t-24.5 223.5q-6 51-15 76.5t-25 25.5q-25 0-40-22.5t-13-55.5l1-46q2-73 8.5-144.5t6.5-141.5q0-48-26-48l-57 12-278 74-134 43-133 45-290 90q-78 24-164.5 52.5t-182.5 63.5q-192 72-192 107 0 22 44 37l19 7q137 49 275.5 88t274.5 88q55 20 89.5 36t50.5 26q30 20 30 60 0 21-25 21a298.18 298.18 0 0 1 -39-4.5 356.06 356.06 0 0 1 -36-8.5l-73-22-260-71q-118-32-196-53.5t-116-36.5q-24-10-53-10-25 0-25 14l7 30q19 49 35.5 95.5t31.5 94.5q16 51 39 113t54 136q32 75 65.5 147.5t68.5 145.5q71 144 104 186 65 82 156 82 57 0 129-27.5t165-76.5l89-46q157-82 344-187t407-241q48-29 97.5-63.5t102.5-75.5q106-80 100-147zm167 57q0 58-40 95-61 56-160 125t-239 155l-140 86q-150 93-297.5 180.5t-295.5 183.5q-96 61-158 100t-94 56q-32 17-64 31.5t-61.5 25.5a562.2 562.2 0 0 1 -54.5 17.5q-25 6.49-42 6.5-77 0-141-88-35-48-69.5-101.5t-68.5-115.5q-34-63-72-146.5t-84-186.5l-127-284q-33-73-65-144.5t-57-137q-25-65.5-40.5-123.5t-15.5-104q0-33 18-75 18-45 70-77 26-17 69.5-36t106.5-43q113-44 227-77t226-71q57-20 147-48t217-66q127-38 230-68t187-52q31-8 61.5-17t61.5-16.5q31-7.5 62.5-12.5a424.54 424.54 0 0 1 66.5-5q129 0 197 115l39 67q51 85 97 171t88 174l170 354q22 46 33.5 83.5t11.5 68.5z"/></svg>