<svg viewBox="0 0 1768 1980" xmlns="http://www.w3.org/2000/svg"><path d="m685 1540q0 38 20 44 75-19 83-24 6-3 6-13a69.84 69.84 0 0 0 -5.5-26.5 104.28 104.28 0 0 0 -14.5-25 84.74 84.74 0 0 0 -20.5-19 44.07 44.07 0 0 0 -24.5-7.5q-24 0-34 22.5a118 118 0 0 0 -10 48.5zm312-101q-19 0-44 38-25 41-31 74l94 25q11-20 11-55a216.23 216.23 0 0 0 -2-29.5 168.94 168.94 0 0 0 -5.5-26 56.28 56.28 0 0 0 -9.5-19q-6-7.5-13-7.5zm7 335q0 22-24 22l-19-4-85-6a154.5 154.5 0 0 0 -28 .5q-13 1.5-24 3.5l-34 6q-35 0-35-29 0-23 32.5-37t94.5-14a229.1 229.1 0 0 1 46 4.5 191.89 191.89 0 0 1 39 12q17 7.5 27 18t10 23.5zm204-468-17-1a103.83 103.83 0 0 0 -31.5 3 143.33 143.33 0 0 0 -32 12 167.4 167.4 0 0 0 -28.5 18.5q-13 10.5-19 20.5 8 14 23.5 31.5t41.5 38.5q50 43 78 43 11 0 11-40a326.66 326.66 0 0 0 -6.5-67 271.94 271.94 0 0 0 -19.5-59zm-638 14h-8q-11 6-20 21.5a162.21 162.21 0 0 0 -15 36 337.37 337.37 0 0 0 -9.5 43 277.53 277.53 0 0 0 -3.5 42.5q0 44 18 44 7 0 20-9.5t33-25.5l21-17q52-41 52-68 0-21-30-44-32-23-58-23zm159-185q0-15 11-15a89.9 89.9 0 0 1 18.5 2 76.09 76.09 0 0 1 20.5 8 281 281 0 0 0 47.5 17 191.3 191.3 0 0 0 47.5 6q50 0 82-21 18-12 35-12 14 0 14 11 0 12-18 40-17 27-23 28-51 36-107 36-46 0-87-29t-41-71zm703-1041q-20 0-47.5 27.5t-67.5 80.5l-33 44q116 51 177 112 8-17 17-73 5-29 7.5-48.5t2.5-30.5q0-112-56-112zm-1162 112a400.6 400.6 0 0 0 6.5 69 790.39 790.39 0 0 0 19.5 82q54-41 98-68.5t80-42.5l-33-45q-77-107-114-107-57 0-57 112zm323 828q-68 0-120-44-51-43-51-107 0-41 14.5-65.5t37.5-24.5q19 0 50 21 106 71 173 71 47 0 47 32a95.12 95.12 0 0 1 -10.5 43q-10.5 21-30.5 37.5t-48 26.5q-28 10-62 10zm416-117q0-32 48-32 22 0 49.5-7t59.5-26l31-18q30-18 49.5-29.5t32.5-11.5q25 0 38.5 26t13.5 64q0 63-52 107-53 44-118 44a249.78 249.78 0 0 1 -39-3 163.64 163.64 0 0 1 -38-11 95.6 95.6 0 0 1 -32-20.5 163.61 163.61 0 0 1 -23.5-28 131 131 0 0 1 -14.5-29q-5-14.5-5-25.5zm-629 363a117.58 117.58 0 0 1 29-77 105.15 105.15 0 0 1 33.5-25.5q19.5-9.5 44.5-9.5 17 0 43.5 13t60.5 42q20 17 50.5 34t72.5 33a538.46 538.46 0 0 0 82 23 432.63 432.63 0 0 0 83 8 450.53 450.53 0 0 0 126.5-18.5q63.5-18.5 130.5-56.5l33-23q36-26 61-40.5t42-14.5a97.84 97.84 0 0 1 41.5 9 102.47 102.47 0 0 1 33.5 24.5 118.49 118.49 0 0 1 30 78.5q0 38-33 116-17 42-26 71.5t-11 46.5l-4 41q-8 79-56 120t-127 41q-65 0-115-28-14-9-28.5-19a346 346 0 0 0 -30-18.5 218.81 218.81 0 0 0 -32.5-14.5 104.4 104.4 0 0 0 -35-6q-34 0-64 19-71 48-104 58a203.33 203.33 0 0 1 -35 7 345.29 345.29 0 0 1 -38 2 279 279 0 0 1 -50.5-4.5 173.73 173.73 0 0 1 -46.5-15.5 150.74 150.74 0 0 1 -36.5-24q-15.5-14-26.5-35t-17.5-51q-6.5-30-9.5-72-3-43-37-118t-34-116zm-11 259-1 82q-2 90 34.5 133t123.5 43q21 0 44-8t55-8h7q34 0 67 31 45 45 147 45 60 0 110.5-8.5t92.5-29.5l24-12a173.91 173.91 0 0 1 42.5-21 111.18 111.18 0 0 1 44.5-5l78 4q33 1 71-26 37-28 52-66 14-39 19-152a218.63 218.63 0 0 1 16-70.5q14-34.5 32-49.5 32-29 64-96 34-69 34-148 0-116-57-172-14-13-27-27.5t-27-31.5q-13-17-24.5-49t-24.5-78q-9-34-20.5-57.5t-26.5-39a111 111 0 0 0 -33.5-24 251.13 251.13 0 0 0 -41.5-14.5q-56-14-95-25t-62-21q-46-19-108-78-32-29-49-46.5t-18-25.5l-29 29q-66 66-134.5 101a315.46 315.46 0 0 1 -145.5 35h-8q-72 0-120.5 15t-78 38q-29.5 23-43.5 52.5t-17 57.5l8 62q0 23-14.5 54.5t-41.5 72.5q-13 20-23.5 38.5a243.87 243.87 0 0 0 -17.5 38 255.17 255.17 0 0 0 -11 42.5 298.36 298.36 0 0 0 -4 51q0 114 71 212 12 16 24 33a276.73 276.73 0 0 1 21.5 36 209.94 209.94 0 0 1 15 39.5 167.14 167.14 0 0 1 5.5 43.5zm1398 279 1 6q0 8-8.5 15.5a70.21 70.21 0 0 1 -21.5 12.5 166.39 166.39 0 0 1 -29 8 168.15 168.15 0 0 1 -31 3 175.13 175.13 0 0 1 -39.5-4.5q-19.5-4.5-39-10.5t-39-10.5a175.13 175.13 0 0 0 -39.5-4.5q-33 0-33 27 0 14 7 21t7 16q0 8-11.5 14t-31 9.5q-19.5 3.5-44.5 5.5t-52 2q-65 0-113-24-20-10-40-22a83.91 83.91 0 0 0 -44-12q-24 0-24 16 0 14 27 30 26 16 26 32 0 15-31.5 23.5t-84.5 8.5q-20 0-52-10t-74-31l-41-13-59 2q-85 44-193 44-87 0-87-30l7-44q0-20-29-20-17 0-71 20-70 28-107 28-20 0-63-6-42-6-42-22 0-11 9.5-22.5t9.5-22.5q0-13-17-13-11 0-30 8a290.32 290.32 0 0 1 -113 23 291.92 291.92 0 0 1 -50-4q-23-4-40-11.5t-27-18q-10-10.5-10-22.5 0-8 8-8 33 0 54-31.5t21-82.5q0-49-34-108t-34-108q0-25 17-81 17-50 17-79v-10l-2-8q-8-53-13.5-86.5t-5.5-50.5q0-73 41-138a164.18 164.18 0 0 0 23-53 263.44 263.44 0 0 0 7-62 467.84 467.84 0 0 0 -6-75 449.64 449.64 0 0 1 -6-72q0-181 133-330-45-121-45-234 0-45 11-81.5t30.5-62.5a133.37 133.37 0 0 1 47.5-40q28-14 63-14a156.5 156.5 0 0 1 45.5 6.5q21.5 6.5 43.5 22t45 41.5q23 26 49 65 13 20 27.5 38.5t29.5 35.5q147-49 312-49 166 0 312 49a586.64 586.64 0 0 0 59-74q26-39 49-65t44.5-41.5q21.5-15.5 43.5-22a158.15 158.15 0 0 1 45-6.5q34 0 62.5 15a142 142 0 0 1 48 41q19.5 26 30.5 62.5t11 79.5q0 43-12.5 103t-35.5 138q29 40 46 69.5t24 47.5q23 45 34 104.5t18 135.5l6 82q2 17 12.5 52t28.5 87q33 93 33 137 0 61-33 137-8 19-8 37 0 30 26 81 26 49 26 82 0 37-31 108-33 74-33 120 0 24 7 42a99.64 99.64 0 0 0 20 32l11 5z"/></svg>