<svg viewBox="0 0 1810 1345" xmlns="http://www.w3.org/2000/svg"><path d="m870 577q53 0 82 30.5t29 75.5q0 45-29.5 76.5t-80.5 31.5q-52 0-81-31t-29-76q0-45 28-76t81-31zm331 321q40 0 74.5-15a170.28 170.28 0 0 0 59-42q24.49-27 38.5-64t14-82q0-218-132-353-67-67-153.5-101t-197.5-34q-210 0-346 132-135 134-135 337 0 205 135 338 136 133 344 133 179 0 302-94l-85-114q-90 64-213 64-148 0-244-90-96-93-96-236 0-145 95-235 95-92 243-92 156 0 248 92 92 94 92 248 0 26-8 45t-36 19q-30 0-47-32.5t-17-89.5v-163q0-9-11-9h-122q-10 0-10 9v14q-57-31-123-31-106 0-172 67-66 65-66 165t66 166q66 65 173 65 116 0 185-82 56 65 145 65zm608-503 1 950h-1809v-945l316 156q8-32 18-63t23-61l-358-176v-256h1809v252l-359 178a449.75 449.75 0 0 1 26 63q10 31 17 60z"/></svg>