<svg viewBox="0 0 2458 2210" xmlns="http://www.w3.org/2000/svg"><path d="m1687 1101v-62l1-67a1697.46 1697.46 0 0 1 -176.5 27.5q-91.5 9.5-192.5 12.5l38 45q6 7 7.5 14a58.69 58.69 0 0 1 1.5 12 36.71 36.71 0 0 1 -11 27q-11 11-28 11-18 0-30-13l-65-77-64 77q-12 13-30 13-17 0-28.5-11a35.89 35.89 0 0 1 -11.5-27q0-14 10-26l38-45q-233-6-390-41v64l-1 71q-1 42 25 59.5t86 28.5l30 5q155 28 345 28 139 0 258-15 118-16 153-39 35-22 35-72zm-939-482-1 15q0 21 4 25 7 12 160 22 78 5 157 7t162 2q158 0 270.5-4.5t181.5-15.5q5-2 5-16 0-32-15-39a509.15 509.15 0 0 0 -57.5-18q-31.5-8-68.5-16-36-8-67.5-12a459 459 0 0 0 -57.5-4q-26 0-65.5 5.5t-95.5 18.5l-30 7-25-5q-63-14-108-20t-73-6a748.47 748.47 0 0 0 -147 15q-38 7-64 15.5t-44 15.5zm943 271q0-102-10-126-11-24-40-24h-10q-88 0-174.5 6.5t-173.5 6.5q-121 0-221-5t-183-8l-97-4q-15-1-22.5 6.5t-5.5 35.5l1 32v82q96 21 214 32t261 11q285 0 461-45zm767 387q0 150-46 189-29 24-83 49.5t-135 51.5q-81 26-147.5 38.5t-120.5 12.5q-47 0-78-22a111.67 111.67 0 0 1 -28-28 198.86 198.86 0 0 1 -20.5-37 297 297 0 0 1 -14-41q-5.51-21-8.5-39-15-102-36-102-12 0-13 24-2 31-11.5 119t-27.5 234l-41 334q-3 25-14 43a116 116 0 0 1 -28.5 31.5 186.12 186.12 0 0 1 -41 23.5 468.72 468.72 0 0 1 -50.5 18q-27 8-60 14.5t-69.5 11q-36.49 4.5-76 6.5t-78.5 2q-103 0-193.5-13t-152.5-45q-30-16-49-33.5t-24-38.5q-6-21-11.5-77.5t-15.5-147.5l-54-482q-2-24-13-24-21 0-37 108-13 81-48 121t-100 40q-115 0-257-48l-58-19q-115-38-171-85-46-39-46-187 0-33 4.5-91t15.5-143q10-76 24.5-151.5t30-150l31-149s9.17-49.5 27.5-148.5q5-32 11.5-62.5a259.83 259.83 0 0 0 5.5-62.5l-1-52q-3-93 62-93 29 0 140 44 57 22 95 33.5t61 11.5q60 0 236-137 113-89 154-108 45-20 63-20 15 0 39 10.5t53 29.5q29 19 62 47t66 62q-46 48-87 97.5t-79 100.5q-74 99-74 134 0 22 23 22 12 0 18-5 9-9 27.5-31.5t46.5-60.5q18-26 34-47.5t31-38.5l103-115q36-41 63-67.5t45-42.5q51-43 94-69t73-26q57 0 217 127 174 138 234 138 22 0 60.5-11.5t94.5-33.5q111-44 142-44 21 0 34 7.5a52.41 52.41 0 0 1 20 20 77.21 77.21 0 0 1 9 28.5 189.45 189.45 0 0 1 1 34l-2 61q-1 13 4 42.5t13 76.5q27 149 59 297.5t52 301.5q11 75 16.5 132.5t5.5 99.5z"/></svg>