<svg viewBox="0 0 2080 2178.91" xmlns="http://www.w3.org/2000/svg"><path d="m1516 1386q0-8-10.5-9t-15.5-2l-540-60-96-7q-29-2-47 12l-284 222q-22 13-22 20t7 14a150.24 150.24 0 0 0 37 21.5 199.62 199.62 0 0 0 39 11 406 406 0 0 0 41 5q21 1.5 43 3.5 59 5 119 16a664.47 664.47 0 0 0 120 11h21q49 0 124-105 17-24 32.5-39a131.57 131.57 0 0 1 32.5-23.5 122.84 122.84 0 0 1 37-11.5 321.13 321.13 0 0 1 47-3q29 0 60.5 3a489.19 489.19 0 0 1 65.5 11l51 4q20 2 35-3a109.08 109.08 0 0 0 29-15 333 333 0 0 0 27-21.5q13-11.51 23.5-22.5a194.81 194.81 0 0 0 17-20q6.5-9 6.5-12zm-878-794 433-592 435 592h-272v553h-324v-553zm743 1409-4-162 5-215q1-31-37-34l-90-9-73-4q-33-1-49 21l-42 60q-33 47-69 68.5t-89 21.5q-21 0-74-5t-138-15q-181-21-225-34a315.6 315.6 0 0 1 -40.5-17q-17.5-9-28.5-22-23-25-48-96-10-29-22-49.5t-28-34a125.33 125.33 0 0 0 -37.5-21.5q-21.5-8-50.5-12l-55-7-49-4q-21-2-29 22-7 21-8 85l-5 225v28q0 85 17 106 5 8 239 42t696 90l291 35q22 0 34-10t10-31zm26 175-268-35q-113-15-227.5-28.5t-230-27.5q-115.5-14-232-31t-233.5-39l-101-19q-103-10-108-64-3-49-5-88t-2-70q0-51 2-99.5t4-98.5l7-200a83.29 83.29 0 0 1 3-22 89.81 89.81 0 0 1 9.5-22q6.49-11 19-24t32.5-28q14-10 50.5-36.5t93.5-65q57-38.5 134-88.5t172-108l231-141q43-26 80-26h6v110l-4 30 4 157v7q0 12 .5 28a231.46 231.46 0 0 0 3 31 196.08 196.08 0 0 0 6.5 27.5q4 12.49 12 18.5 5 3 18 7t33 6l335 39q149 18 232.5 25t105.5 5h15q11 0 90-64 41-32 88.5-74t104.5-91q21-18 32.5-28.5t11.5-15.5q0-13-45-18l-298-33-279-27v-95q163 18 288 31t213 23q88 10 141 19t73 18a118.17 118.17 0 0 1 17.5 8.5 80.25 80.25 0 0 1 18 14.5 73.13 73.13 0 0 1 14 22q5.51 13 5.5 31l-2 468a215 215 0 0 1 -2.5 35q-2.51 15-8.5 25-5 10-34 42.5t-83 89.5q-54 56-124.5 128t-160.5 162q-178 178-215 193-37 14-43 6z"/></svg>