<svg viewBox="0 0 1810 2015" xmlns="http://www.w3.org/2000/svg"><path d="m936 0 874 642-874 641v-401h-936v-477h936zm29 1480h110q11 0 11 12v511q0 12-11 12h-110l-11-5-206-326v319q0 12-12 12h-112q-11 0-11-12v-511q0-12 11-12h112l10 6 206 324v-318q0-12 13-12zm-799 0h353q10 0 10 12v85q0 11-10 11h-230v100h176q13 0 13 11v85q0 11-13 11h-176v112h230q10 0 10 11v85q0 11-10 11h-353q-11 0-11-11v-511q0-12 11-12zm1149 409h80q58 0 92-38.5t34-103.5q0-63-34-102t-92-39h-80q-11 0-11 10v261q0 12 11 12zm-134-409h220q115 0 186 74 70 75 70 193 0 60-18 109t-51.5 84.5q-33.49 35.51-81 54.5t-105.5 19h-220q-13 0-13-11v-511q0-12 13-12z"/></svg>