<svg viewBox="0 0 2068.08 2046" xmlns="http://www.w3.org/2000/svg"><path d="m749.08 641q0-48-29.5-76t-69.5-28l-24 3q3 6 7.5 13.5t9.5 16a134.76 134.76 0 0 1 8.5 17 41.19 41.19 0 0 1 3.5 15.5q0 15-30 42-29 27-52 27-14-3-46-28l-5 28q0 24 8.5 44t22 33.5a96.63 96.63 0 0 0 31.5 21 95.32 95.32 0 0 0 37 7.5q48 0 87-39 41-39 41-97zm1317 695 2 17q0 23-35 60l-532 544q-41 42-72 65.5t-60 23.5q-48 0-106-50l-96-84q-75-66-153-138.5t-158-158.5q-79-85-150-174t-136-183q-130-188-209-366-40-91-60.5-142t-20.5-62q0-26 21-43l111-88q-53-43-105-89t-99-93q-47-47-88.5-93t-73.5-89q-14-19-30-40t-16-41q-1-6 10.5-24a289 289 0 0 1 28-36.5 261.4 261.4 0 0 1 34.5-32.5q18-14 31-12 23 0 55 56 10 19 33.5 51.5t58 74q34.5 41.51 78.5 90.5t96 101q-35-131-35-308 0-29 9-44 5-6 17.5-11.5a150.25 150.25 0 0 1 28.5-9 334.51 334.51 0 0 1 33.5-5.5 280.94 280.94 0 0 1 31.5-2q31 0 29 31l-3 71a873.73 873.73 0 0 0 9 161.5 1559.23 1559.23 0 0 0 33 161.5l141-111a63.08 63.08 0 0 1 14.5-7 39.85 39.85 0 0 1 11.5-2q14 0 28 8.5t28 26.5q39 51 95 114.5t131 138.5q75 75 147.5 141.5t142.5 122.5q71 57 150 111.5t168 109.5q88 54 159.5 95.5t128.5 71.5q42 21 68.5 35.5t39.5 22.5q28.01 17 35 33z"/></svg>