<svg viewBox="0 0 2396 1882" xmlns="http://www.w3.org/2000/svg"><path d="m1591 584 87-90q126 162 126 447t-126 447l-87-90q87-124 87-357 0-229-87-357zm238-241 91-91q83 127 127 302.5t44 386.5q0 211-44 387.5t-127 301.5l-91-91q66-109 102-262.5t36-335.5q0-180-36-333.5t-102-264.5zm250-252 92-91q53 87 95 192t71 225q29 120 44 252a2408.16 2408.16 0 0 1 15 272q0 283-60 527-29 122-71 225.5t-94 188.5l-92-91q46-79 81.5-174t60.5-203q25-108 38-227a2334 2334 0 0 0 0-492q-13-119-38-227t-60.5-203q-35.5-95-81.5-174zm-1334 851q0 318 78 576 80 260 208 335h-71q-31 0-103-114a1319.39 1319.39 0 0 1 -117-248l-6-1-262-334-82-23q-15 193-80 212h-160q-64 0-107-109-21-54-32-121t-11-147q0-156 43-268 44-109 107-109h155q14 0 26.5 11.5t22.5 32q10 20.5 17 48.5t12 61l7 53a437.79 437.79 0 0 1 43.5-11q20.5-4 38.5-6l229-289q26-93 58.5-173a1107.25 1107.25 0 0 1 73.5-149q79-136 137-136h61q-126 74-206 332-41 129-60.5 272.5t-19.5 304.5zm468-909q54 0 116 132 64 133 106 348 20 107 30.5 214t10.5 215a2161 2161 0 0 1 -11 219q-11 108-32 214t-46.5 192.5q-25.5 86.5-57.5 153.5-62 132-116 132-101 0-174-160-37-81-62-185.5t-39-235.5q62-6 108-94 48-90 48-207 0-67-12.5-121t-35.5-96q-48-87-115-87 14-149 40-264.5t64-200.5q76-169 178-169z"/></svg>