<svg viewBox="0 0 2249 2247.04" xmlns="http://www.w3.org/2000/svg"><path d="m803 1436q175 0 320-85 144-85 229-232 85-145 85-316 0-173-86-319a634.41 634.41 0 0 0 -102-132.5 640.94 640.94 0 0 0 -129.5-99.5 615.61 615.61 0 0 0 -150.5-62.46 636.53 636.53 0 0 0 -166-21.54q-174 0-319 85-146 85-230 230-86 144-86 320 0 262 184 447 186 186 451 186zm1446 532q0 91-95 186-92 93-186 93-45 0-71-26l-424-424q-26-26-26-71 0-23 7-49a217.07 217.07 0 0 1 22-52l-186-185q-215 164-489 164-218 0-402-106-183-106-291-290-55-93-81.5-194t-26.5-211a817.13 817.13 0 0 1 57.5-302q57.5-146 177.5-266 119-120 263-177.46t305-57.54q110-1 210 26a801.88 801.88 0 0 1 192 80 850.4 850.4 0 0 1 164 126q73 72 127 166 110 187 110 402 0 271-166 488l185 185q48-26 100-26 48 0 73 26l425 424q26 28 26 71z"/></svg>