<svg viewBox="0 0 2206 2206" xmlns="http://www.w3.org/2000/svg"><path d="m1914 1534q0 29-20 46.5t-46 17.5q-29 0-45.5-20.5t-16.5-43.5q0-28 20-45.5t43-17.5q29 0 47 18.5t18 44.5zm-378 253q23 0 42.5 17t19.5 46q0 23-17.5 43t-45.5 20q-24 0-44.5-17.5t-20.5-46.5q0-28 20.5-45t45.5-17zm-432 115q28 0 45.5 18.5t17.5 44.5q0 28-17.5 45.5t-45.5 17.5q-28 0-46.5-17.5t-18.5-45.5q0-26 18.5-44.5t46.5-18.5zm-368-52q0 28-20 45.5t-45 17.5q-28 0-45.5-20t-17.5-43q0-28 19.5-45.5t43.5-17.5q29 0 47 18.5t18 44.5zm-379-379q25 0 44 17.5t19 45.5q0 23-17 43.5t-45 20.5q-26 0-46-18t-20-46q0-26 18.5-44.5t46.5-18.5zm-117-431q28 0 46.5 17.5t18.5 45.5q0 28-18.5 45.5t-46.5 17.5q-26 0-44-17.5t-18-45.5q0-28 18-45.5t44-17.5zm180-368q0 28-20 45.5t-43 17.5q-28 0-46.5-19t-18.5-44q0-29 20-46.5t45-17.5q26 0 44.5 19t18.5 45zm251-252q-23 0-43-18t-20-47q0-24 17.5-43t45.5-19q25 0 45 17.5t20 45.5q0 29-20 46.5t-45 17.5zm927-64q0 29-20 46.5t-43 17.5q-30 0-47.5-19.5t-17.5-43.5q0-27 20.5-45.5t44.5-18.5q26 0 44.5 17.5t18.5 45.5zm251 379q-23 0-43-17.5t-20-45.5q0-25 17-44.5t46-19.5q25 0 45 17.5t20 46.5q0 26-18 44.5t-47 18.5zm117 305q27 0 45.5 17.5t18.5 45.5q0 28-18.5 45.5t-45.5 17.5q-28 0-46.5-17.5t-18.5-45.5q0-28 18.5-45.5t46.5-17.5zm-798 63q0-28-19.5-45.5t-44.5-17.5q-28 0-46.5 17.5t-18.5 45.5q0 28 18.5 45.5t46.5 17.5q25 0 44.5-17.5t19.5-45.5zm15-910v761a182.36 182.36 0 0 1 64.5 62q24.49 39 24.5 87 0 70-49 119t-119 49q-50 0-89-26l-370 214-79-137 369-214q0-103 89-154v-761zm-79 1906q268 0 498-133 230-134 364-362 135-232 135-501 0-137-34-261t-101-240q-134-228-364-362-230-133-498-133-269 0-498 133-115 67-206 157t-160 207q-134 230-134 499 0 271 134 501 135 227 366 362 229 133 498 133zm0-2099q293 0 551 148 256 148 404 404 147 257 147 551 0 295-147 551-148 256-404 404-258 148-551 148-295 0-550-147-130-74-230-174t-175-229q-149-255-149-553 0-296 149-551 75-129 175.5-229.5t229.5-174.5q258-148 550-148z"/></svg>