<svg viewBox="0 0 2206 2207" xmlns="http://www.w3.org/2000/svg"><path d="m1914 1535q0 28-20 45.5t-45 17.5q-28 0-45.5-19.5t-17.5-43.5q0-29 20-46.5t43-17.5q15 0 33 8 32 21 32 56zm-379 252q23 0 43 17.5t20 46.5q0 25-18.5 44t-46.5 19q-23 0-43-18t-20-46q0-28 20-45.5t45-17.5zm-431 115q28 0 45.5 18t17.5 46q0 26-17.5 44.5t-45.5 18.5q-28 0-46.5-18.5t-18.5-44.5q0-28 18.5-46t46.5-18zm-368-51q0 28-20 45.5t-43 17.5q-28 0-46.5-19.5t-18.5-43.5q0-29 20-46.5t43-17.5q15 0 33 8 32 21 32 56zm-379-380q23 0 43 17.5t20 46.5q0 24-17.5 43.5t-45.5 19.5q-24 0-44.5-17.5t-20.5-46.5q0-28 20-45.5t45-17.5zm-117-431q28 0 46.5 18.5t18.5 44.5q0 28-18.5 46t-46.5 18q-26 0-44-18t-18-46q0-26 18-44.5t44-18.5zm180-367q0 28-19.5 45.5a66 66 0 0 1 -45.5 17.5q-28 0-45.5-19.5t-17.5-43.5q0-28 20.5-46t44.5-18q26 0 44.5 17.5t18.5 46.5zm253-253q-26 0-45.5-18t-19.5-46q0-24 17.5-43.5t45.5-19.5q25 0 45 17.5t20 46.5q0 28-19 45.5t-44 17.5zm925-64q0 28-20 46t-43 18q-29 0-47-19.5t-18-43.5q0-28 20-46t45-18q26 0 44.5 17.5t18.5 45.5zm251 380q-23 0-43-17.5t-20-45.5q0-25 17.5-44.5t45.5-19.5q25 0 45 17.5t20 45.5q0 35-32 56-18 8-33 8zm117 304q27 0 45.5 18t18.5 46q0 26-18.5 44.5t-45.5 18.5q-28 0-46.5-18.5t-18.5-44.5q0-28 18.5-46t46.5-18zm-862 127a58.47 58.47 0 0 0 23.5-5 70.45 70.45 0 0 0 20.5-13.5 67 67 0 0 0 14.5-20 56 56 0 0 0 5.5-24.5q0-26-19-45t-45-19q-28 0-46.5 18t-18.5 46q0 28 19.5 45.5a66 66 0 0 0 45.5 17.5zm79-973v761a174.17 174.17 0 0 1 64.5 61q24.49 39 24.5 87 0 74-51 122-52 47-117 47-50 0-89-24.5a157.56 157.56 0 0 1 -59-65.5h-427v-159h427a167.06 167.06 0 0 1 68-68v-761zm-79 1906q266 0 499-134 117-67 207-157.5t157-206.5q134-232 134-498 0-267-134-499-67-117-158-207t-207-157q-232-134-498-134-136 0-259.5 33.5t-240.5 100.5q-231 134-365 365-133 230-133 498 0 267 134 500 134 231 364 363 117 68 240.5 100.5t259.5 32.5zm0-2100q296 0 551 149 257 150 404 407t147 548q0 295-147 551-149 258-404 404-256 148-551 148t-550-147q-130-74-230-174t-175-229q-149-255-149-553 0-294 147-551 75-129 175.5-230t229.5-175q259-148 552-148z"/></svg>