<svg viewBox="0 0 2206 2207" xmlns="http://www.w3.org/2000/svg"><path d="m1039 1104q0 25 17.5 44t45.5 19a66 66 0 0 0 45.5-17.5q19.5-17.5 19.5-45.5t-18.5-46q-18.49-18-46.5-18-23 0-43 18t-20 46zm925-64q28 0 46 18t18 46q0 26-18 44.5t-46 18.5q-26 0-44.5-18.5t-18.5-44.5q0-28 18.5-46t44.5-18zm-1609 431q25 0 45 17t20 47q0 24-18 43.5t-47 19.5q-24 0-43.5-18t-19.5-46q0-28 19.5-45.5t43.5-17.5zm381 380q0 29-20 46t-43 17q-28 0-46.5-19.5t-18.5-44.5q0-28 20-45.5t43-17.5q15 0 33 8 32 21 32 56zm-316-1178q0 29-20.5 46t-44.5 17q-28 0-45.5-19.5t-17.5-43.5q0-28 19.5-46t43.5-18q15 0 33 8 32 21 32 56zm1113 1114q25 0 45 17.5t20 46.5q0 25-18.5 44t-46.5 19q-23 0-43-17.5t-20-45.5q0-26 18.5-45t44.5-19zm-1293-747q28 0 46.5 18t18.5 46q0 26-18.5 44.5t-46.5 18.5q-27 0-44.5-18.5t-17.5-44.5q0-28 17.5-46t44.5-18zm862 862q28 0 46.5 18t18.5 46q0 28-18.5 45.5t-46.5 17.5q-26 0-44.5-17.5t-18.5-45.5q0-28 17.5-46t45.5-18zm810-366q0 29-19.5 45.5t-43.5 16.5q-28 0-45.5-19.5t-17.5-43.5q0-29 18.5-46.5t44.5-17.5a69.05 69.05 0 0 1 33 8q30 17 30 57zm-1242-1243q26 0 46 17.5t20 46.5q0 24-18 43.5t-47 19.5q-23 0-43-17.5t-20-45.5q0-26 18.5-45t43.5-19zm1179 443q-25 0-44-17.5t-19-45.5q0-25 17.5-44.5t45.5-19.5q24 0 43.5 17t19.5 46q0 39-30 56a69.05 69.05 0 0 1 -33 8zm-379-379q0-28 19.5-46t45.5-18q28 0 45.5 19.5t17.5 44.5q0 28-20 45.5t-45 17.5q-26 0-44.5-17.5t-18.5-45.5zm-198 747-1 6 369 212-79 138-370-214q-38 26-89 26-70 0-119-49t-49-119q0-48 24.5-87.5a172.91 172.91 0 0 1 64.5-61.5v-761h159v761a176.84 176.84 0 0 1 65 61.5q25 39.5 25 87.5zm-170 996q136 0 259.5-33.5t240.5-100.5q231-133 364-364 134-232 134-498 0-135-34-259t-100-240q-67-117-158-207t-208-157q-230-134-498-134-267 0-499 134-231 134-364 365-133 230-133 498 0 267 134 500 134 231 364 363 117 68 240.5 100.5t257.5 32.5zm0-2100q296 0 552 148 256 147 405 406 147 257 147 550 0 298-149 553-150 256-406 403-257 147-549 147-295 0-551-148-255-146-404-404-147-256-147-551t146-548q146-256 404-407 255-149 552-149z"/></svg>