<svg viewBox="0 0 1964 1911" xmlns="http://www.w3.org/2000/svg"><path d="m970 1275q-127 0-212-84-86-84-86-212 0-60 22.5-112t69.5-94q93-85 223-85 119 0 201 92 82 91 82 210 0 125-88 204-87 81-212 81zm-577-274q2 115 41.5 211t122.5 174q84 78 187 116t228 40q82 1 158-19.5a605.17 605.17 0 0 0 142-58 569.42 569.42 0 0 0 120-91 580 580 0 0 0 92-118 573.09 573.09 0 0 0 58.5-138.5q20.51-74 18.5-154a587.56 587.56 0 0 0 -20-137.5q-18-66.5-56-129.5-77-126-210-201-129-72-279-74-128-1-239 42.5t-192.5 121q-81.5 77.5-127.5 184t-44 232.5zm614 827q245 0 446-108 103-55 180-131t134-173q112-197 112-441 0-199-70.5-365t-195.5-289q-64 0-227 137 111 77 186 216 76 139 76 289 0 91-22.5 173.5t-66.5 160.5q-89 155-245 242-158 88-342 88a704.55 704.55 0 0 1 -138.5-13.5 739.79 739.79 0 0 1 -130-38.5 685.53 685.53 0 0 1 -117.5-60.5 670.52 670.52 0 0 1 -100-78.5q-87 108-107 193a758.24 758.24 0 0 0 130 83q71 36 155 62a1114.27 1114.27 0 0 0 343 54zm-4-1828q266 0 490 127 220 126 346 352 125 224 125 496 0 263-124 481-61 108-146 192t-196 144q-217 119-491 119-280 0-514-113-117-57-207-136.5t-156-184.5q-130-207-130-472 0-282 128-511 64-117 153.5-207t204.5-156q231-131 517-131z"/></svg>