<svg viewBox="0 0 1548 2448" xmlns="http://www.w3.org/2000/svg"><path d="m907 2050q-37 0-62-26t-25-67q0-52 42-132l33-62q32-59 32-156 0-162-95-274-5-4-15-16t-18-12q-5 0-5 11a149 149 0 0 0 9.5 35.5q6.5 15.5 6.5 39.5v12l-2 13q-13 56-55 113-39 54-140 153-82 81-120 155.5t-38 156.5q0 142 91 240 47 49 103 72.5t124 25.5q62 2 125.5-22.5a412.05 412.05 0 0 0 114.5-66.5q51-42 82-96.5t30-114.5a200.52 200.52 0 0 0 -10-57 266.53 266.53 0 0 0 -21-48q-12-21-25-33t-22-12q-4 0-4 8l7 37q0 44-48 84-47 39-95 39zm605-1080q36 0 36 12 0 14-14 18-164 46-164 242a583.16 583.16 0 0 0 17.5 142q17.51 70 38.5 139.5t38.5 141a618 618 0 0 1 17.5 147.5q0 173-107 319-105 144-283 231-175 86-356 86-170 0-332-84-159-83-256-229-96-145-96-312 0-71 17-154 8-42 24.5-105t42.5-148q24-81 35-146.5t11-116.5q0-98-41.5-156t-126.5-75q-14-3-14-18 0-14 25-23t57-9a222.7 222.7 0 0 1 78.5 14 252.1 252.1 0 0 1 69 39 283.56 283.56 0 0 1 56 60 345.33 345.33 0 0 1 40.5 78l5 20q9 59 31 59 12 0 21-16 94-166 244-304l129-119q262-244 262-450 0-119-67-211-19-25-19-34 0-8 11-8 46 0 133 94 85 94 121 211t36 245q0 180-75 417-9 26-19.5 52.5t-19.5 53.5a514.84 514.84 0 0 0 -15 55 266.58 266.58 0 0 0 -6 56q0 78 56 78 50 0 84-104 15-43 35-74t45-52.5a204.6 204.6 0 0 1 55-34 344.64 344.64 0 0 1 65-19.5q23-8 74-8z"/></svg>