<svg viewBox="0 0 2066 2066" xmlns="http://www.w3.org/2000/svg"><path d="m1313 690q-44 0-73 41-32 41-48 126a729.77 729.77 0 0 0 -13 84.5q-4 42.5-4 86.5 0 78 10.5 141t28.5 107q18 44 43.5 67.5t55.5 23.5q62 0 100-95 39-94 39-244 0-78-10.5-140.5t-29-106.5q-18.49-44-44-67.5t-55.5-23.5zm-756 31-92 8q-16 0-16-16v-240q0-13 12-16l308-56q19 0 19 16v977h69q16 0 16 17v228q0 16-16 16h-367q-18 0-18-16v-228q0-17 18-17h67zm1256-488 150-152-9-2h-1843a31.1 31.1 0 0 0 -23.5 10q-9.5 10-9.5 22v1843a28.43 28.43 0 0 0 11 23l153-155q-26-23-26-60v-1457a87.39 87.39 0 0 1 7-34.5 89 89 0 0 1 19-28.5 90.5 90.5 0 0 1 28-19 83.85 83.85 0 0 1 34-7h1457a73.48 73.48 0 0 1 26 4.5 181.76 181.76 0 0 1 26 12.5zm-500 1429q-166 0-265-171-98-168-98-463 0-288 98-460 99-174 265-174 167 0 266 174 98 172 98 460 0 287-98 461-98 173-266 173zm-1016-1357v1457l7 7h1457q8 0 8-7v-1457q0-8-8-8h-1457q-7 0-7 8zm-186-305h1843a112.4 112.4 0 0 1 43.5 8.5 108.23 108.23 0 0 1 35.5 23.5 115 115 0 0 1 24 35.5 107 107 0 0 1 9 43.5v1843a107 107 0 0 1 -9 43.5 112.91 112.91 0 0 1 -59.5 59.5 107 107 0 0 1 -43.5 9h-1843a103.56 103.56 0 0 1 -43-9 116.81 116.81 0 0 1 -35-24 115 115 0 0 1 -24-35.5 107 107 0 0 1 -9-43.5v-1843a107 107 0 0 1 9-43.5 115 115 0 0 1 24-35.5 109.25 109.25 0 0 1 78-32z"/></svg>