<svg viewBox="0 0 1972 2290" xmlns="http://www.w3.org/2000/svg"><path d="m1232 1855q13 0 13 10a16.74 16.74 0 0 1 -5.5 13 40.67 40.67 0 0 1 -14 8 100.17 100.17 0 0 1 -18.5 4.5 128.31 128.31 0 0 1 -19 1.5q-21 0-21-11 0-9 19.5-17.5t45.5-8.5zm-251 160q5-20 7.5-35.5t2.5-24.5q0-21-26-33-32-15-39-44.5a311.07 311.07 0 0 1 -8-62.5l-113 26 11 61 20 2h13q27 0 61 24t71 87zm-83-369-205 5q7 39 21 66 14 25 58 72l135-72zm312 331q66 0 114-57t65-172q0-46-23.5-77.5t-68.5-31.5q-26 0-40 9t-20.5 22.5a86.72 86.72 0 0 0 -8 30q-1.5 16.5-4 32.5a131.9 131.9 0 0 1 -8 29.5q-5.5 13.5-19.5 19.5 26 0 46.5 10.5t20.5 24.5q0 11-20 11h-11q-26 0-79 20l-17 4q-8 0-8-8 0-36 33-51-39 0-39-31 0-26 3-34t13-11q20-5 25.5-31.5t5.5-68.5l4-37q6-23 34.5-33.5t79.5-17.5l41-5a239.67 239.67 0 0 0 -39-20q-20-8-40.5-14.5l-41-13-41.5-16.5-8-3q-12-7-20-7-25 6-51 41l-55 75q-41 57-35 87l1 4q35-50 89-50h12q3 11 10.5 32t7.5 38q0 23-29 26a68.23 68.23 0 0 0 -39 16.5q-17 14.51-17 39.5 0 29 11 61.5a359.36 359.36 0 0 0 26 59.5q15 27 30 45t22 19l11 7q27 26 77 26zm406-476 345-44q11 0 11 11 0 8-6 9l-312 129q10 27 10 67a204.26 204.26 0 0 1 -9.5 62 197.89 197.89 0 0 0 -9.5 60q0 14 6 33t17 45q23 54 23 86 0 17-20 77l-4 24q0 13 7 28t21 35.5q14 20.51 34.5 47.5t47.5 63l41 56h-1556q-36-33-36-68a56 56 0 0 1 3.5-19.5 147.06 147.06 0 0 1 8-18q4.5-8.51 8-17a48.18 48.18 0 0 0 3.5-18.5l-4-19-23-38q-63-87-63-129 0-24 14-45 46-90 92.5-160.5t94.5-124.5l-29-145q-23-117-42.5-206t-37.5-152a290.06 290.06 0 0 1 -36.5-2q-15.5-2-26.5-8a55.86 55.86 0 0 1 -18-12.5q-7-7.5-12-21.5t-7-36q-2-22-2-57-33-29-32-48l1-16q1-14-14-25-13-10-13-33l2-30a18.52 18.52 0 0 0 -2.5-10 42.38 42.38 0 0 0 -6-7.5 30.34 30.34 0 0 1 -6-9q-2.5-5.5-2.5-14.5 0-15 6.5-23.5t6.5-22.5q0-19-6.5-30t-6.5-26a48.26 48.26 0 0 1 9-28q-85-23-85-56v-152q0-34 96-57-42-43-42-111 0-49 31-109 32-60 86-89 58-31 171-44 22-2 44-6t44-10a411.4 411.4 0 0 1 38.5-17.5q23.5-9.5 53.5-18.5l6 3q11 27 11 49a164.77 164.77 0 0 1 -6 44.5q-6 21.5-20 43.5-11 17-16.5 27.5t-5.5 18.5q0 150-68 215 111 27 111 61v152q0 48-137 66 5 9 12.5 35.5t13.5 69.5q8 59 11 92t3 42l-3 52a283 283 0 0 0 .5 50.5q2.5 24.5 6.5 49.5 7 47 11 55 0 19 124 358 35-13 55-13 33 0 47 90l5 37 215-64a365.15 365.15 0 0 1 10-54.5 220.58 220.58 0 0 1 21-51.5l-271-236-3-3-1-4q0-10 15-10l329 157q47-47 91-64l-93-367q0-9 10-9l9 4 192 338 46-3 51 3 164-328 10-5q8 0 8 11l-70 353a302.28 302.28 0 0 1 48.5 27 363.23 363.23 0 0 1 46.5 38l283-174 4-1a12.11 12.11 0 0 1 11 11l-3 5-231 249z"/></svg>