<svg viewBox="0 0 2174 2194" xmlns="http://www.w3.org/2000/svg"><path d="m1097 1941h11q61 0 103.5-4t68.5-13q26-9 38-25t12-40q0-44-31.5-57t-109.5-10l-103 4-104-4q-32-1-58 .5t-44.5 8.5q-18.5 7-28.5 21t-10 37q0 45 46 63 47 19 176 19h11l12-1zm1077-1190q0 33-37 59-16 11-55 16-34 4-53.5 10.5t-29 14.5a41 41 0 0 0 -13 18.5 96.52 96.52 0 0 0 -4.5 22.5l6 34q6 37 13.5 72t13.5 70q6 35 10.5 72a637.71 637.71 0 0 1 4.5 77q0 218-120 375-61 80-137.5 134t-173.5 67l-39 6q-15 2-29.5 5a213.08 213.08 0 0 0 -28.5 8q-33 8-44 28t-12 57a131.18 131.18 0 0 1 -8 39q-7 19-24.5 34.5t-46.5 26q-29 10.5-74 14.5-40 3-63 18t-60 94q-31 67-69 70l-15 1-15-1q-46-4-85-100-12-32-28-45a189.72 189.72 0 0 0 -15.5-14 77.55 77.55 0 0 0 -18-10.5q-10.5-4.5-27-7.5t-41.5-5q-58-5-92.5-37t-34.5-73q-1-9-3-19t-5-22q-5-24-17.5-32.5t-45.5-19.5l-50-8q-206-33-337-200-127-163-127-384 0-57 11-128.5t33-161.5l4-33q0-39-44-57l-27-7-29-3q-45-4-68.5-26t-23.5-48q0-76 248-216l197-111q23-13 52-29t57-16a85.64 85.64 0 0 1 17.5 2 53.46 53.46 0 0 1 32.5 21.5q6 8.5 6 20.5 0 30-53 130-47 89-77.5 177.5a1424.8 1424.8 0 0 0 -48.5 175.5 1504.16 1504.16 0 0 0 -25.5 171q-7.5 84-7.5 163 0 97 71 168t170 71q60 0 118-40 57-39 80-95 45-106 67.5-243.5t23.5-308.5q0-154-91-154-21 0-42.5 11t-41.5 11q-21 0-35.5-10.5t-14.5-30.5q0-37 11-77.5t34-90q23-49.5 59.5-110t87.5-136.5l87-131q25-37 50-56t54-19q53 0 104 75l91 136q188 281 188 409 0 17-13.5 29t-36.5 12q-21 0-42-11t-43-11q-89 0-89 154 0 110 15 234 8 63 19.5 119t25.5 107q29 103 60 141a231.76 231.76 0 0 0 37 35 260.23 260.23 0 0 0 43.5 27 271.94 271.94 0 0 0 45.5 17.5 161.85 161.85 0 0 0 44 6.5 239 239 0 0 0 91-17.5q43-17.51 79-53.5 72-72 72-168 0-174-44-379-17-81-55-174t-95-198q-19-34-19-67 0-12 6-20a56 56 0 0 1 14.5-13.5 53 53 0 0 1 18-7.5 85.64 85.64 0 0 1 17.5-2q41 0 186 85l180 105q94 55 141 99.5t47 81.5z"/></svg>