<svg viewBox="0 0 2208 2208" xmlns="http://www.w3.org/2000/svg"><path d="m1914 1535q0 28-20 46t-43 18q-28 0-46-19.5t-18-43.5q0-28 20-46t44-18q26 0 44.5 17.5t18.5 45.5zm-379 253q23 0 43 18t20 46q0 24-17.5 43.5t-46.5 19.5q-24 0-43.5-18t-19.5-47q0-28 20-45t44-17zm-431 115q28 0 46 17.5t18 45.5q0 28-18 46t-46 18a63.24 63.24 0 0 1 -45-18q-19-18-19-46t19-45.5a64.2 64.2 0 0 1 45-17.5zm-368-53q0 29-19.5 47t-43.5 18q-28 0-46-19.5t-18-43.5q0-29 19.5-46.5t43.5-17.5q28 0 46 17t18 45zm-379-378q25 0 44.5 17t19.5 46q0 23-18.5 43.5t-46.5 20.5q-24 0-43-17.5t-19-46.5q0-28 19-45.5t44-17.5zm-115-431q28 0 45.5 17.5t17.5 45.5q0 28-17.5 46t-45.5 18q-28 0-46-18t-18-46q0-28 18-45.5t46-17.5zm179-367q0 29-19.5 46t-43.5 17q-27 0-45.5-19.5t-18.5-44.5q0-28 19-45.5t43-17.5q15 0 33 8 32 21 32 56zm252-380q24 0 43.5 17.5t19.5 46.5q0 24-18 43.5t-46 19.5q-24 0-43.5-17.5t-19.5-46.5q0-28 19.5-45.5t44.5-17.5zm925 63q0 29-20 46.5t-43 17.5q-28 0-45.5-19t-17.5-44q0-29 19-46.5t43-17.5a64.2 64.2 0 0 1 45 17.5q19 17.5 19 45.5zm252 380q-24 0-43.5-18t-19.5-46q0-23 18-43t46-20q23 0 43 17.5t20 46.5q0 28-20.5 45.5t-43.5 17.5zm116 304q28 0 46 17.5t18 45.5q0 28-18 46t-46 18q-26 0-44.5-18t-18.5-46q0-28 18.5-45.5t44.5-17.5zm-926 63q0 25 19 44.5t45 19.5a64.2 64.2 0 0 0 45-17.5q19-17.51 19-46.5 0-26-18-44.5t-46-18.5a64.2 64.2 0 0 0 -45 17.5q-19 17.5-19 45.5zm167-590v457q65 48 65 133 0 70-49 119t-119 49q-70 0-119-49t-49-119q0-80 65-133v-457h24v-320h158v320zm-103 1587q267 0 499-134 232-133 364-364 134-232 134-499t-134-499q-67-117-158-207t-207-157q-230-134-498-134-267 0-499 134-117 67-207.5 158t-158.5 207q-132 230-132 498 0 267 134 499 134 233 364 366 116 67 240 99.5t259 32.5zm0-2101q295 0 551 148 256 147 405 406 148 258 148 550 0 295-148 551-147 256-406 405-258 148-550 148-295 0-551-148-257-148-405-405t-148-551q0-295 148-551 148-257 405-405t551-148z"/></svg>