<svg viewBox="0 0 2206 2207" xmlns="http://www.w3.org/2000/svg"><path d="m1913 1535q0 28-20 45.5t-43 17.5q-29 0-46.5-19.5t-17.5-43.5q0-28 19-46a63.24 63.24 0 0 1 45-18q26 0 44.5 19t18.5 45zm-379 252q23 0 43 17t20 46q0 26-17 45t-46 19q-24 0-43.5-17.5t-19.5-45.5q0-26 18.5-45t44.5-19zm-431 116q28 0 45.5 17.5t17.5 45.5q0 26-17.5 44.5t-45.5 18.5q-28 0-45.5-18.5t-17.5-44.5q0-28 17.5-45.5t45.5-17.5zm-368-52q0 28-19.5 45.5t-44.5 17.5q-28 0-45.5-19.5t-17.5-43.5q0-30 19.5-47t44.5-17q26 0 44.5 19t18.5 45zm-379-380q26 0 44.5 18t18.5 46q0 24-17.5 43.5t-45.5 19.5q-25 0-44-17.5t-19-45.5q0-26 18.5-45t44.5-19zm-115-431q26 0 44.5 18t18.5 46q0 26-18.5 44.5t-44.5 18.5q-28 0-46-18.5t-18-44.5q0-28 18-46t46-18zm178-368q0 28-18.5 46t-44.5 18q-28 0-45.5-19.5t-17.5-43.5q0-28 18.5-46t44.5-18a69.05 69.05 0 0 1 33 8q16 9 23 23.5a71.47 71.47 0 0 1 7 31.5zm252-379a63.24 63.24 0 0 1 45 18q19 18 19 46 0 24-17.5 43.5t-45.5 19.5a63.24 63.24 0 0 1 -45-18q-19-18-19-46t19-45.5q19-17.5 44-17.5zm926 66q0 29-20 45t-43 16q-28 0-45.5-19.5t-17.5-43.5q0-28 18-46t46-18q26 0 44 18t18 48zm253 377a63.24 63.24 0 0 1 -45-18q-19-18-19-46 0-24 17.5-43.5t46.5-19.5q23 0 43 17.5t20 46.5q0 28-19 45.5t-44 17.5zm115 304q28 0 45.5 18t17.5 46q0 26-17.5 44.5t-45.5 18.5q-26 0-44.5-18.5t-18.5-44.5q0-28 18.5-46t44.5-18zm-862 127q25 0 44-17.5t19-45.5q0-26-18.5-45t-44.5-19q-26 0-44.5 19t-18.5 45q0 28 18.5 45.5t44.5 17.5zm79-973v761a168.39 168.39 0 0 1 65 61q24 39 24 87t-24 87.5a167.23 167.23 0 0 1 -65 61.5v427h-158v-427a176 176 0 0 1 -66-61q-25-39-25-88 0-48 25-87a176 176 0 0 1 66-61v-761zm-79 1906q271 0 501-134 228-134 362-365 133-229 133-497 0-269-133-498t-364-364q-115-67-239.5-101t-259.5-34q-137 0-261 34t-240 101q-228 134-362 364-133 229-133 498 0 268 133 497 134 231 362 365 230 134 501 134zm0-2100q296 0 551 149 257 150 404 407 148 258 148 548 0 293-148 551-149 258-404 404-256 148-551 148t-551-148q-255-146-404-404-148-258-148-551t147-548q146-257 403-407 255-149 553-149z"/></svg>