<svg viewBox="0 0 1792 2130.19" xmlns="http://www.w3.org/2000/svg"><path d="m676 1459.19q12-14 23-29t22-23a477 477 0 0 1 -39-30.5 159.86 159.86 0 0 0 -39-25.5l-40 45q40 15 73 63zm190 32 16-21a451 451 0 0 1 -55-9q-26-6-46-17l-70 82q13 33 13 55a212.59 212.59 0 0 1 -4 38.5 412.29 412.29 0 0 1 -11 44.5q34-32 73-75t84-98zm-597 395q17 0 39-16t74-80q-49-22-100-78-65 77-65 127 0 47 52 47zm18-353a269.83 269.83 0 0 0 6.5 61 151.52 151.52 0 0 0 23 52q16.5 24 44 45.5t69.5 42.5q27-36 41.5-69.5t14.5-63.5a219.53 219.53 0 0 1 -29.5-33.5q-11.5-16.5-11.5-42.5 0-36 21-68a589.89 589.89 0 0 1 44-59q60-72 102.5-116.5t68.5-64.5q52-40 86-40a41.06 41.06 0 0 1 24.5 7.5 208 208 0 0 0 19.5 12.5 191.63 191.63 0 0 0 59 9q28 0 48-16t45-33q-29-64-97-107-67-41-127-41-100 0-211 104-112 104-176.5 212.5t-64.5 207.5zm1014-914q0-52-42-96-44-42-104-42-36 0-73 21t-72 65q-17 21-39 53.5t-45.5 70.5q-23.5 38-47 77.5t-43.5 74.5q-20 35-35.5 61.5t-22.5 37.5q55 0 126 48 69 48 112 115a633.63 633.63 0 0 0 85.5-106.5q37.5-58.5 75.5-113.5 17-24 39-56a749.82 749.82 0 0 0 41-67 505.1 505.1 0 0 0 32-71.5q13-36.51 13-71.5zm-44-619a393.52 393.52 0 0 1 128.5 17.5q63.5 19.5 127.5 57.5 128 74 204 194 75 120 75 241 0 93-45 187-45 93-177 261-65 85-121.5 151.5t-107.5 115.5q-50 49-96 89a937 937 0 0 1 -90.5 70 577.38 577.38 0 0 1 -88.5 49.5 424.91 424.91 0 0 1 -89 28.5q-88 123-172 207.5t-155 124.5q-52 90-102.5 154t-100 104.5q-49.5 40.5-98 59t-96.5 18.5q-106 0-179-66-74-66-74-157 0-105 60-222 62-118 163-219a605.08 605.08 0 0 1 28-92q18-46 47-94t69.5-98.5q40.5-50.51 96.5-106.5 1-67 33-164t95-226q125-255 195-361 34-53 62-91.5t50-63.5q44-52 96-86 52-37 109-57 29-11 67-18t86-8z"/></svg>