<svg viewBox="0 0 1022.46 2292" xmlns="http://www.w3.org/2000/svg"><path d="m517.23 2063q49 0 82-4.5t52.5-14q19.5-9.49 27.5-24t8-33.5q0-40-33-54-33-15-149-15-95 0-135 16.5t-40 56.5q0 23 11.5 37.5t34.5 22q23 7.5 58.5 10t82.5 2.5zm199-1158q0-24-9.5-38a70.42 70.42 0 0 0 -23.5-22 95.53 95.53 0 0 0 -30-11q-16-3-30.5-5a165 165 0 0 1 -24.5-5q-10-3-11-10l-6-39q-5-38-21.5-56.5t-50.5-18.5q-37 0-52 17.5a90.82 90.82 0 0 0 -20 40 222 222 0 0 0 -5.5 42.5q-.5 20-8.5 26l-6 3a189.58 189.58 0 0 0 -44 5 122.92 122.92 0 0 0 -37 15 79.48 79.48 0 0 0 -25.5 25q-9.5 15-9.5 35 0 32 20.5 51.5t76.5 24.5q32 0 32 21 13 107 80 107 34 0 50.5-20.5t22.5-60.5l5-35q2-11 19-12 33-4 54-11t33-17q12-10 17-22.5t5-29.5zm-607-541q0 87 117 153 59 32 129.5 48.5t156.5 16.5q84 0 154-15.5t129-47.5q118-64 118-147 0-86-99-149v95q0 75-89 128-89 52-213 52-131 0-216-55-87-55-87-133v-87q-100 61-100 141zm403-297q-41 0-75 7a222.33 222.33 0 0 0 -63 23q-58 30-58 76 0 45 58 76 58 30 138 30 81 0 139-32 58-30 58-74t-59-75a292 292 0 0 0 -64-23q-34.01-8-74-8zm510 312-86 1659q-6 105-127 181-121 73-297 73-178 0-299-73-120-76-125-181l-88-1659a168.77 168.77 0 0 1 13.5-75.5q15.49-36.5 45.5-69t71.5-59.5q41.51-27 92.5-48 28-57 109-92 84-35 180-35a479 479 0 0 1 97 9.5q46 9.5 84 26t66 40q28 23.5 43 51.5a596.16 596.16 0 0 1 90.5 48q41.5 27 71 59.5t45 69a168.77 168.77 0 0 1 13.5 75.5z"/></svg>