<svg viewBox="0 0 2206 2207" xmlns="http://www.w3.org/2000/svg"><path d="m1912 1536q0 29-19 46t-42 17q-29 0-47-20t-18-44q0-28 19-45.5t44-17.5a69.05 69.05 0 0 1 33 8q16 9 23 23.5a73.76 73.76 0 0 1 7 32.5zm-63-800q-26 0-44.5-17.5t-18.5-45.5q0-25 17.5-44.5t45.5-19.5q24 0 43.5 17t19.5 46q0 39-30 56a69.05 69.05 0 0 1 -33 8zm-379-379q0-28 20-45.5t43-17.5q28 0 46.5 20t18.5 43q0 29-20 47t-43 18q-25 0-45-18t-20-47zm-1050 316q0 29-20 46t-45 17q-28 0-45.5-19.5t-17.5-43.5q0-28 20-46t45-18q26 0 44.5 17.5t18.5 46.5zm682 1230q28 0 46.5 17.5t18.5 45.5q0 26-18.5 45t-46.5 19q-26 0-44.5-19t-18.5-45q0-28 17.5-45.5t45.5-17.5zm-745-431q23 0 43 16.5t20 45.5q0 25-18 45t-47 20q-24 0-43.5-18t-19.5-47q0-28 20-45t45-17zm316-1178q23 0 43 17t20 46q0 25-18 45t-47 20q-23 0-43-18t-20-47q0-28 19.5-45.5a66 66 0 0 1 45.5-17.5zm860 1493q25 0 45 17.5t20 45.5q0 25-18 44.5t-47 19.5q-23 0-43-17.5t-20-45.5q0-29 18.5-46.5t44.5-17.5zm-1293-747q28 0 46.5 18.5t18.5 44.5q0 28-18 46t-44 18q-28 0-46.5-18t-18.5-46q0-26 17.5-44.5t44.5-18.5zm862 128q26 0 45.5-18.5t19.5-46.5q0-26-18.5-44.5t-46.5-18.5q-26 0-44.5 18.5t-18.5 44.5q0 28 20 46.5t43 18.5zm-366 683q0 29-20 46t-45 17q-28 0-45.5-19.5t-17.5-44.5q0-28 20-45.5t43-17.5q28 0 46.5 18t18.5 46zm1228-811q28 0 46 18.5t18 44.5q0 28-18 46.5t-46 18.5q-26 0-44.5-18.5t-18.5-46.5q0-26 18.5-44.5t44.5-18.5zm-773-79 370-214 79 138-369 214 1 4q0 71-51 120-49 49-119 49t-119-49q-49-49-49-120 0-48 24.5-87a166.38 166.38 0 0 1 64.5-60v-762h159v762zm-89 1140q269 0 497-131 231-133 365-364 136-233 136-503 0-135-34-259t-100-239q-134-231-366-364-230-134-498-134-267 0-499 134-231 134-364 365-133 230-133 497 0 136 33.5 261.5t102.5 241.5q136 232 366 364 228 131 494 131zm0-2101q148 0 284 37t265 111q255 146 406 404 149 255 149 551 0 299-149 554-150 256-406 403-257 147-549 147-295 0-551-148-255-146-404-404-147-256-147-552 0-294 147-551 149-258 404-404 256-148 551-148z"/></svg>