<svg viewBox="0 0 1876 1873" xmlns="http://www.w3.org/2000/svg"><path d="m1345 1401q54 0 86.5 33.5t32.5 81.5a118.73 118.73 0 0 1 -8.5 45 114.38 114.38 0 0 1 -24 37 108.74 108.74 0 0 1 -37.5 25q-22 9-49 9-28 0-50.5-9a113.08 113.08 0 0 1 -38.5-25 110.39 110.39 0 0 1 -24.5-37 123.37 123.37 0 0 1 0-90 105.11 105.11 0 0 1 24.5-36.5 117.19 117.19 0 0 1 38.5-24.5q22.5-9 50.5-9zm93-937q-27 0-49 9a108.74 108.74 0 0 0 -37.5 25 114.38 114.38 0 0 0 -24 37 123.37 123.37 0 0 0 0 90 114.38 114.38 0 0 0 24 37 108.74 108.74 0 0 0 37.5 25q22 9 49 9 57 0 88.5-34t31.5-82q0-48-31.5-82t-88.5-34zm-1003-73q31 0 56.5 10.5t43 28.5a126.11 126.11 0 0 1 27 42 137.36 137.36 0 0 1 9.5 51 133.54 133.54 0 0 1 -9.5 50.5 127.36 127.36 0 0 1 -27 41.5q-17.5 18-43 28t-56.5 10q-31 0-56-10a121.2 121.2 0 0 1 -42.5-28 127.36 127.36 0 0 1 -27-41.5 133.54 133.54 0 0 1 -9.5-50.5 137.36 137.36 0 0 1 9.5-51 124.54 124.54 0 0 1 69.5-70.5q25-10.5 56-10.5zm252 1184 66 128-3 8q-89 77-219 77-142 0-233-87-90-88-90-226 0-134 90-223 93-90 233-90 131 0 211 65l2 8-72 132-4 2-7-1q-50-41-129-41-34 0-62 11a148 148 0 0 0 -48.5 30.5 132.07 132.07 0 0 0 -31.5 46.5q-11 27-11 60t11 60a137.12 137.12 0 0 0 31.5 47 144 144 0 0 0 48.5 31q28 11 62 11 36 0 76-15t68-36l7-2zm71-781v-553q0-14-12-14h-149q-11 0-11 14v35q-65-35-151-35-131 0-212 81-79 79-79 201 0 123 82 204 82 79 209 79 83 0 151-36v24q0 13 11 13h149q12 0 12-13zm902 978v-746q0-11-11-11h-154q-10 0-10 11v260q-62-34-140-34-121 0-197 75-77 74-77 189 0 118 78 191 77 74 196 74 78 0 140-34v25q0 11 10 11h154q11 0 11-11zm-372-926h-155q-11 0-11-11v-745q0-11 11-11h155q10 0 10 11v259a308.91 308.91 0 0 1 140-33q120 0 197 75 77 77 77 189t-77 189q-75 75-197 75a308.91 308.91 0 0 1 -140-33v24q0 11-10 11zm-351 90h-937v-936h937zm2 0h937v937h-937z"/></svg>