<svg viewBox="0 0 1933 1933" xmlns="http://www.w3.org/2000/svg"><path d="m1689 966 52 53 53-53-53-54zm-134 134 53 53 80-79-54-53zm-134 133 53 53 80-78-54-53zm-133 134 54 53 77-78-53-53zm-134 134 53 53 78-79-53-54zm-134 134 53 53 80-79-54-54zm-55 54-53 52 53 54 54-54zm-132-134-54 54 78 79 54-53zm-134-134-54 54 78 79 54-53zm-135-132-53 53 79 78 54-53zm-134-134-53 53 79 78 54-53zm-134-134-53 53 81 79 52-53zm-53-55-53-54-54 54 54 53zm133-133-52-53-81 78 53 53zm134-134-54-53-79 78 53 53zm134-134-54-53-79 79 53 53zm133-134-54-53-78 79 54 53zm134-134-54-53-78 79 54 53zm54-53 54-54-54-53-53 53zm134 132 54-53-80-79-53 53zm133 134 53-53-78-79-53 53zm134 134 53-53-77-79-54 53zm134 133 54-53-80-78-53 53zm-79 189 79 79 80-79-80-80zm-133 134 78 79 79-79-79-79zm-134 133 78 79 79-79-79-78zm-134 134 79 79 80-79-80-78zm-55 54-79 80 79 79 80-79zm-132-132-80 78 80 79 78-79zm-134-134-80 78 80 79 78-79zm-135-134-79 79 79 79 80-79zm-54-55-80-80-78 80 78 79zm134-133-80-79-79 79 79 78zm133-134-78-79-80 79 80 78zm134-134-78-79-80 79 80 79zm54-55 80-79-80-78-79 78zm134 134 80-79-80-79-79 79zm133 133 79-78-79-79-78 79zm56 56 78 78 79-78-79-79zm-134 133 78 79 79-79-79-80zm-134 134 79 79 80-79-80-79zm-55 55-79 78 79 79 80-79zm-132-134-80 79 80 79 78-79zm-56-55-78-80-80 80 80 79zm134-133-78-79-80 79 80 78zm54-56 80-78-80-79-79 79zm80 189-80-80-79 80 79 79zm-25-133 79 78 80-78-80-79zm614 78 54-53-80-78-53 53zm299 55q0 23-18 41l-909 908q-17 18-41 18-27 0-39-18l-910-908a49.89 49.89 0 0 1 -12.5-19.5 67.67 67.67 0 0 1 -3.5-21.5q0-24 16-40l910-911q13-15 39-15 25 0 41 16l909 910q18 18 18 40z"/></svg>