<svg viewBox="0 0 2066 2065" xmlns="http://www.w3.org/2000/svg"><path d="m1361 1334v-605q0-26-26-26h-604a25.62 25.62 0 0 0 -26 26v605a25.62 25.62 0 0 0 26 26h604q26 0 26-26zm-834 274h1014q27 0 47.5-20.5t20.5-48.5v-1015q0-27-21-48l-179 184q29 29 29 69v605a98.49 98.49 0 0 1 -8 39.5 107.43 107.43 0 0 1 -55.5 55.5 98.49 98.49 0 0 1 -39.5 8h-604q-38 0-66-25l-181 181q23 15 43 15zm1085-1173 201-202q59 50 59 123v1352q0 65-48 113t-115 48h-1352q-70 0-116-48l201-204q-30-33-30-78v-1015a108 108 0 0 1 9.5-45 117.82 117.82 0 0 1 25.5-36.5 123.29 123.29 0 0 1 36.5-24.5 107 107 0 0 1 43.5-9h1014q37 0 71 26zm376 1519v-1843a30.43 30.43 0 0 0 -10.5-23.5q-10.5-9.5-22.5-9.5h-1844q-14 0-22.5 9.5t-8.5 23.5v1843q0 14 8.5 23.5t22.5 9.5h1844q12 0 22.5-9.5a30.43 30.43 0 0 0 10.5-23.5zm-1877-1954h1844a104.66 104.66 0 0 1 42.5 9 115 115 0 0 1 35.5 24 116.81 116.81 0 0 1 24 35 103.56 103.56 0 0 1 9 43v1843a103.56 103.56 0 0 1 -9 43 116.81 116.81 0 0 1 -24 35 115 115 0 0 1 -35.5 24 104.66 104.66 0 0 1 -42.5 9h-1844a103.56 103.56 0 0 1 -43-9 115.77 115.77 0 0 1 -59-59 103.56 103.56 0 0 1 -9-43v-1843a103.56 103.56 0 0 1 9-43 115.77 115.77 0 0 1 59-59 103.56 103.56 0 0 1 43-9z"/></svg>