<svg viewBox="0 0 1314 2059" xmlns="http://www.w3.org/2000/svg"><path d="m989 1732-43-107q46-32 72.5-73t26.5-79q0-40-26-59t-64-21q-38-1-78.5 18.5a306 306 0 0 0 -73.5 49.5q-33 30-54 64.5t-20 62.5q2 41 27.5 61t63.5 20q31 0 57-10l-9 137zm-675-1014q0 116 54 260 155-88 288.5-146.5t248.5-88.5q0-229-52-324-50-96-150-96-82 0-183 55-206 109-206 340zm-126 512q-43 57-43 94 0 54 52 82 51 29 121 29 77 0 185-35 9 0 99-41 45-21 94-45t101-53q106-57 216-127 55-35 94-64.5t63.5-56q24.49-26.5 35.5-50t11-45.5q0-71-81-89-3 40-7 71a439.28 439.28 0 0 1 -10 54q-13 45-77 69-15 6-35 6a197.06 197.06 0 0 1 -31.5-2.5 125.34 125.34 0 0 1 -29.5-8.5q-14-6-22.5-14.5t-13-22q-4.5-13.5-6-34t-.5-51.5l1-50q-98 27-222.5 82.5t-276.5 141.5q20 43 37.5 75t30.5 52q11 17 11 48 0 49-48 79-23 16-45.5 23a152.27 152.27 0 0 1 -45.5 7 125.79 125.79 0 0 1 -37-5.5q-18-5.51-37-19.5t-39.5-38q-20.5-24-44.5-61zm1126-324q0 41-1 131.5t-4 232.5q-3 141-8.5 225.5t-12.5 116.5q-14 62-53.5 121a418.83 418.83 0 0 1 -96.5 102 1306.45 1306.45 0 0 1 -138 92 1117.54 1117.54 0 0 1 -145 70.5 916.11 916.11 0 0 1 -149.5 45.5 724 724 0 0 1 -150.5 16q-75 0-138-24.5t-116-83.5q-54-60-133-259-40-100-68.5-175.5t-39.5-129.5q-14-36-14-64 0-92 89-181-31-55-56-109a916.46 916.46 0 0 1 -42.5-109.5 809.75 809.75 0 0 1 -27-114 757.53 757.53 0 0 1 -9.5-121.5q0-199 100-354a669.28 669.28 0 0 1 121-139q70-61 164-106t178-67q84-22 162-22 62 0 116 16a390.91 390.91 0 0 1 103 48q96 64 151 193 29 66 43.5 129a564.25 564.25 0 0 1 14.5 127q0 54-2 108t-6 111a244.83 244.83 0 0 1 68.5 23.5q31.5 16.5 53.5 39.5a176.58 176.58 0 0 1 34.5 51.5 146.63 146.63 0 0 1 12.5 59.5z"/></svg>