<svg viewBox="0 0 2254 2253" xmlns="http://www.w3.org/2000/svg"><path d="m406 546 63-186 62 186zm757 509h-89l-4-3v-129l4-2h89q28 0 46 19.5t18 47.5q0 29-18 48t-46 19zm-89 127h95q29 0 49.5 22.5t20.5 55.5q0 32-20.5 55t-50.5 23h-94l-3-4v-149zm1019 871 1-9-67-141-5-4-7 1a221.07 221.07 0 0 1 -37 24 324.4 324.4 0 0 1 -44 19 337.25 337.25 0 0 1 -46 12.5 229.23 229.23 0 0 1 -44 4.5q-41 0-74-12.5a161 161 0 0 1 -94-91.5q-13-32-13-71t13-71a157.06 157.06 0 0 1 37-55 166.59 166.59 0 0 1 57-35.5q33-12.49 74-12.5 95 0 153 47l7 3 5-4 76-145-2-10q-92-72-241-72-156 0-262 101-104 100-104 254 0 156 104 256t262 100q145 0 251-88zm-1468-1254h156q14 0 14-14v-5l-240-635q-1-8-12-8h-149q-10 0-14 8l-238 635-1 4q0 15 15 15h156q12 0 13-10l36-108h213l37 108q3 10 14 10zm306 662h271q89 0 151-56 61-57 61-136 0-98-89-154 59-55 59-131 0-82-63-136-64-55-149-55h-241q-13 0-13 14v639q0 15 13 15zm664-144h659v936h-937v-658h-658v-658h-659v-937h937v658h658z"/></svg>