<svg viewBox="0 0 2062 2053" xmlns="http://www.w3.org/2000/svg"><path d="m1990 180q0-29-15-52.5t-41-39.5q-26-16-60.5-24.5a306.26 306.26 0 0 0 -73.5-8.5q-13 0-44 6-30 6-30 20 0 11 60 36 50 22 75 45.5t37 57.5q11 52 35 52 20 0 38-30 19-33 19-62zm-367 175q26 0 40.5-17t14.5-37q0-20-14.5-37t-46.5-17a51.78 51.78 0 0 0 -35 13q-15 13-15 41 0 22 14 38t42 16zm-366 327q25 0 39-17.5t14-38.5q0-20-14.5-36.5t-46.5-16.5a51.78 51.78 0 0 0 -35 13q-15 13-15 42 0 21 15 37.5t43 16.5zm-1159 1212q6 35 27 35 16 0 37-15l1028-708q6-6 11.5-10.5a90.62 90.62 0 0 0 10-9.5 38.52 38.52 0 0 0 7-11q2.51-6 2.5-16l-5-25-211-387q-8-16-29-18-16 0-30 11-128 103-245.5 211t-227.5 223q-111 114-185.5 208.5t-112.5 172.5q-77 153-77 339zm1726-1894q47 0 87.5 14.5t77.5 42.5q73 58 73 138 0 55-28 98a201.09 201.09 0 0 1 -29.5 35.5 150 150 0 0 1 -37 25q-21.5 10.5-51 17.5t-70.5 13q-75 11-120 45-44 35-93 126-58 106-135 173.5t-172 97.5l-38 4q-56 6-78 14.5t-22 33.5l136 248q11 19 11 48 0 51-41 80l-1139 781q-24 18-56 18-29-3-48-10a59.24 59.24 0 0 1 -30-24q-11-17-16-47t-5-78a924.32 924.32 0 0 1 14-162.5 783.27 783.27 0 0 1 44.5-154.5q30.5-76 77-150.5t110.5-150.5q65-76 147.5-161t183.5-181q101-96 187-171.5t162-130.5l15-11 495-431q218-190 388-190z"/></svg>