<svg viewBox="0 0 2206 2207" xmlns="http://www.w3.org/2000/svg"><path d="m1914 1535q0 28-20 45.5t-45 17.5q-28 0-45.5-19.5t-17.5-43.5q0-29 20-46.5t43-17.5q15 0 33 8 32 21 32 56zm-379 252q23 0 43 17t20 46q0 25-17 44.5t-46 19.5q-24 0-44.5-17.5t-20.5-46.5q0-28 20-45.5t45-17.5zm-431 115q28 0 45.5 18t17.5 46q0 26-17.5 44.5t-45.5 18.5q-28 0-46.5-18.5t-18.5-44.5q0-28 18.5-46t46.5-18zm-368-51q0 29-20.5 46t-44.5 17q-29 0-46-19.5t-17-43.5q0-29 20-46.5t43-17.5q15 0 33 8 32 21 32 56zm-379-380q23 0 43 17.5t20 46.5q0 24-17.5 43.5t-45.5 19.5q-25 0-45-18t-20-46q0-28 20-45.5t45-17.5zm-117-431q28 0 46.5 18.5t18.5 44.5q0 28-18.5 46t-46.5 18q-26 0-44-18t-18-46q0-26 18-44.5t44-18.5zm180-367q0 28-19.5 45.5a66 66 0 0 1 -45.5 17.5q-28 0-45.5-19.5t-17.5-43.5q0-28 20.5-46t44.5-18q26 0 44.5 17.5t18.5 46.5zm251-380q24 0 44.5 17.5t20.5 45.5q0 25-17.5 44.5t-45.5 19.5q-26 0-45.5-18t-19.5-46q0-28 20-45.5t43-17.5zm927 63q0 28-20 46t-43 18q-29 0-47-19.5t-18-43.5q0-28 20.5-46t44.5-18q26 0 44.5 17.5t18.5 45.5zm251 380q-23 0-43-17.5t-20-45.5q0-25 17.5-44.5t45.5-19.5q25 0 45 17.5t20 45.5q0 35-32 56-18 8-33 8zm117 304q27 0 45.5 18t18.5 46q0 26-18.5 44.5t-45.5 18.5q-28 0-46.5-18.5t-18.5-44.5q0-28 18.5-46t46.5-18zm-927 63q0 25 18.5 44.5t46.5 19.5q25 0 44.5-18t19.5-46q0-21-16-42t-48-21q-24 0-44.5 15.5t-20.5 47.5zm144-909v761a174.17 174.17 0 0 1 64.5 61q24.49 39 24.5 87 0 73-52 122-52 47-122 47l-213 368-138-79 213-368q-25-45-25-90 0-48 24.5-87a174.17 174.17 0 0 1 64.5-61v-761zm-79 1906q266 0 499-134 117-67 207-157.5t157-206.5q134-232 134-499 0-268-134-498-67-117-158-207t-207-157q-232-134-498-134-136 0-259.5 33.5t-240.5 100.5q-231 134-365 365-133 230-133 497 0 135 34 259t100 240q133 232 364 365 117 68 240.5 100.5t259.5 32.5zm0-2100q295 0 551 148 255 146 404 404 147 257 147 551 0 292-147 550-147 255-404 405-255 149-551 149t-552-148q-129-74-229.5-175t-175.5-230q-147-258-147-551 0-296 149-551 75-129 175.5-229.5t229.5-174.5q258-148 550-148z"/></svg>