<svg viewBox="0 0 1524 2358" xmlns="http://www.w3.org/2000/svg"><path d="m732 606-6 153 70 3-3-156zm79 379h-98l-14 121h45l44-2h18l19 1zm-245 401q0 35 22 61 51 15 164 15 36 0 68-1.5a553.61 553.61 0 0 0 58-5.5q27-4 43-9.5t24-13.5a38.43 38.43 0 0 0 10.5-18 95.12 95.12 0 0 0 2.5-23q0-28-14-34-37-10-153-10h-66q-118 0-149 10-10 10-10 29zm901 920 57 52h-276q-16-22-42-50.5t-62-66.5q-72-77-114-100-44-25-81-25-48 0-74.5 30.5t-26.5 80.5q0 48 1 81t3 50h-180l4-131q2-51-25.5-81t-74.5-30q-52 0-107 41-26 20-74.5 70t-119.5 131h-275q171-154 283-294 112-139 179-264a913.37 913.37 0 0 0 61-135.5 1568.26 1568.26 0 0 0 46-153.5 63.77 63.77 0 0 1 -30-16.5 125.33 125.33 0 0 1 -22.5-29.5 148.57 148.57 0 0 1 -14.5-37.5 174.71 174.71 0 0 1 -5-41.5 151 151 0 0 1 5-39.5 72.65 72.65 0 0 1 18-32q13-13.5 36-22t58-10.5q30-184 44.5-366.5t14.5-368.5h49l15-518q1-13 10-21t20-8q13 0 21 8t8 21l15 519h39q0 383 60 735 60 3 88 28t28 77q0 93-72 121 15 62 32 114t38 101q21 49 47.5 97t62.5 101q24 36 52 73t60 77q32 40 67 78.5t73 77.5q75 78 81 78z"/></svg>