<svg viewBox="0 0 2208 2207" xmlns="http://www.w3.org/2000/svg"><path d="m1598 357q0 28-20 46.5t-43 18.5q-28 0-45.5-20.5t-17.5-44.5q0-28 19-45.5t43-17.5a64.2 64.2 0 0 1 45 17.5q19 17.5 19 45.5zm368 684q28 0 46 17.5t18 45.5q0 26-18 44.5t-46 18.5q-26 0-44.5-18.5t-18.5-44.5q0-28 18.5-45.5t44.5-17.5zm-52 493q0 29-20 46.5t-43 17.5q-29 0-46.5-19t-17.5-43q0-29 20-46.5t45-17.5q26 0 44 17t18 45zm-1242-1112q-24 0-43.5-18.5t-19.5-46.5q0-23 18-43t46-20q24 0 43.5 18t19.5 47q0 28-20.5 45.5t-43.5 17.5zm863 1365q23 0 43 18t20 46q0 24-17.5 43.5t-45.5 19.5q-24 0-44-17.5t-20-46.5q0-28 19.5-45.5t44.5-17.5zm316-1051q-25 0-44.5-18t-19.5-46q0-24 17.5-43.5t46.5-19.5q23 0 43 18t20 46q0 28-19 45.5t-44 17.5zm-1115 1114q0 29-19.5 46.5t-43.5 17.5q-29 0-46.5-19.5t-17.5-43.5q0-28 19.5-46t44.5-18q26 0 44.5 17.5t18.5 45.5zm368-683q25 0 44.5-17.5t19.5-45.5q0-28-18-45.5t-46-17.5q-28 0-46 17.5t-18 45.5q0 28 19 45.5a64.2 64.2 0 0 0 45 17.5zm-747 304q24 0 44 17t20 47q0 24-17.5 43.5t-46.5 19.5q-23 0-43-17.5t-20-45.5q0-26 18.5-45t44.5-19zm64-798q0 29-19.5 46t-44.5 17q-28 0-45.5-19.5t-17.5-44.5q0-28 20-45.5t43-17.5q28 0 46 20.5t18 43.5zm-179 367q28 0 45.5 18t17.5 46q0 26-17.5 44.5t-45.5 18.5q-28 0-46-18.5t-18-44.5q0-28 18-46t46-18zm862 863q28 0 46 17.5t18 45.5a63.24 63.24 0 0 1 -18 45q-18 19-46 19-26 0-45-19t-19-45q0-28 19-45.5a64.2 64.2 0 0 1 45-17.5zm79-1709v762a161.15 161.15 0 0 1 65 60q24 39 24 87 0 71-50 120t-118 49q-70 0-119-49t-49-124l-370-214 80-138 369 214 10-5v-762zm-79 1906q267 0 499-134 232-133 364-364 134-232 134-498 0-267-134-499-67-117-158-207t-207-157q-230-134-498-134-267 0-499 134-117 67-207.5 158t-158.5 207q-132 231-132 498t134 500q133 231 364 363 116 68 240 100.5t259 32.5zm0-2100q295 0 551 148 256 147 405 406 148 258 148 550 0 298-149 553-150 256-406 403-257 147-549 147-294 0-550-147-255-146-405-403-149-255-149-553 0-295 148-551 148-257 405-405t551-148z"/></svg>