<svg viewBox="0 0 2206 2207" xmlns="http://www.w3.org/2000/svg"><path d="m1912 1536q0 29-19.5 45.5t-43.5 16.5q-28 0-45.5-19.5t-17.5-43.5q0-28 19-45.5t44-17.5q26 0 44.5 17.5t18.5 46.5zm-379 251q24 0 44.5 17.5t20.5 45.5q0 25-17.5 44.5t-47.5 19.5q-23 0-43-17.5t-20-45.5q0-29 18.5-46.5t44.5-17.5zm-431 115q28 0 46.5 18t18.5 46q0 28-18.5 45.5t-46.5 17.5q-26 0-44.5-17.5t-18.5-45.5q0-28 17.5-46t45.5-18zm-366-51q0 29-20 46t-45 17q-29 0-46-19.5t-17-44.5q0-28 20.5-45.5t44.5-17.5q26 0 44.5 17.5t18.5 46.5zm-379-379q23 0 43 17t20 46q0 24-18 43.5t-47 19.5q-24 0-43.5-18t-19.5-46q0-26 18-44t47-18zm-117-432q28 0 46.5 18t18.5 46q0 28-18.5 45.5t-46.5 17.5q-27 0-44.5-17.5t-17.5-45.5q0-28 17.5-46t44.5-18zm180-367q0 29-20 46t-43 17q-28 0-46.5-19.5t-18.5-43.5q0-28 19.5-46t43.5-18q15 0 33 8 32 21 32 56zm253-379q25 0 44 17t19 46q0 24-18 43.5t-47 19.5q-23 0-43-17.5t-20-45.5q0-26 18-44.5t47-18.5zm797 63q0-28 20-45.5t43-17.5q28 0 46.5 18.5t18.5 44.5q0 28-20 45.5t-45 17.5q-26 0-44.5-17.5t-18.5-45.5zm378 379q-25 0-43.5-17.5t-18.5-45.5q0-25 17-44.5t46-19.5q24 0 43.5 16.5t19.5 46.5q0 29-18 46.5t-46 17.5zm116 304q28 0 46 18t18 46q0 28-18 45.5t-46 17.5q-26 0-44.5-17.5t-18.5-45.5q0-28 18.5-46t44.5-18zm-862 127q28 0 46.5-17.5t18.5-45.5q0-28-18.5-46t-46.5-18q-28 0-45.5 18t-17.5 46q0 26 17 44.5t46 18.5zm80-973v761q44 24 69 70h427v159h-427q-21 40-60.5 64t-88.5 24q-70 0-119-49t-49-119q0-49 24.5-88a174.17 174.17 0 0 1 64.5-61v-761zm-80 1906q269 0 498-133 115-67 206-157t158-205q136-234 136-501 0-135-34-259t-100-240q-67-117-158-207t-208-157q-230-134-498-134-267 0-499 134-231 134-364 365-133 230-133 498 0 271 134 501 68 115 159.5 205t206.5 157q229 133 496 133zm0-2100q296 0 552 148 256 147 405 406 147 257 147 550 0 298-149 553-150 256-406 403-257 147-549 147-295 0-551-148-255-146-404-404-147-256-147-551t146-548q146-256 404-407 255-149 552-149z"/></svg>