<svg viewBox="0 0 1894 2028" xmlns="http://www.w3.org/2000/svg"><path d="m977 0 876 642-876 641v-399h-934v-480h934zm-324 1890q30 0 54.5-11a114 114 0 0 0 41-30.5q16.5-19.5 25.5-46a181.85 181.85 0 0 0 0-113q-9-26.51-25.5-46a119.33 119.33 0 0 0 -41-31q-24.5-11.5-54.5-11.5t-54.5 11.5a119.33 119.33 0 0 0 -41 31q-16.5 19.5-25.5 46a181.85 181.85 0 0 0 0 113q9 26.51 25.5 46a114 114 0 0 0 41 30.5q24.5 11 54.5 11zm0-416q109 0 179 76t70 196q0 121-70 197-69 75-179 75t-179-75q-70-76-70-197 0-120 70-196t179-76zm529 416q30 0 54-11a115.09 115.09 0 0 0 40.5-30.5q16.5-19.5 25.5-46a181.85 181.85 0 0 0 0-113q-9-26.51-25.5-46a120.59 120.59 0 0 0 -40.5-31q-24-11.51-54-11.5t-54 11.5a125.92 125.92 0 0 0 -41 31 135.39 135.39 0 0 0 -26 46 181.85 181.85 0 0 0 0 113 135.39 135.39 0 0 0 26 46 120 120 0 0 0 41 30.5q24 11 54 11zm0-416q109 0 180 76 69 77 69 196 0 121-69 197-71 75-180 75-113 0-182-78-68-79-68-194 0-116 70-194t180-78zm604 11h97q11 0 11 11v511q0 11-11 11h-97l-11-5-182-323v317q0 11-11 11h-99q-11 0-11-11v-511q0-11 11-11h99l9 5 182 323v-317q0-11 13-11zm-1403 377a149.55 149.55 0 0 1 -13.5 62 161.49 161.49 0 0 1 -38.5 53q-25 23-61 37t-80 14q-109 0-188-88l-2-9 52-88 6-4 7 3a256 256 0 0 0 28 22 381.19 381.19 0 0 0 34.5 21 221.4 221.4 0 0 0 37 16 115 115 0 0 0 35.5 6q17 0 33-11t16-31q0-39-83-78-47-22-78-41t-48-37q-31-34-31-90 0-75 45-119t131-44q86 0 152 42l3 10-35 83-4 4h-7q-35-15-60.5-23t-43.5-8q-50 0-50 42 0 30 52 56 114 59 152 103 39 45 39 97z"/></svg>