<svg viewBox="0 0 1894 2180" xmlns="http://www.w3.org/2000/svg"><path d="m1340 484 4 108q1 65-73 105l583 1290q8 17 8 40 0 55-55 104-52 49-128 49-79 0-107-57l-633-1257-4 2-13 6a387.47 387.47 0 0 1 -39 14.5 116.38 116.38 0 0 1 -34 5.5q-14 0-35-6t-50-20l-22-4q-26 0-48 43-26 51-43 79t-24 33q-11 9-205 107-33 16-62 16-65 0-92-53l-258-511a77.2 77.2 0 0 1 -10-39q0-32 19-61t52-46q63-32 109-55l78-39a285 285 0 0 1 63.5-25 194.81 194.81 0 0 1 65.5-5l84 6q18 2 39-2.5a287 287 0 0 0 42-12.5 401.82 401.82 0 0 0 40.5-18q19.5-10 35.5-20l7-3q-33-42-33-78 0-57 126-116 127-60 200-60a241.4 241.4 0 0 1 28.5 1.5 55.85 55.85 0 0 1 23 8q10.5 6.5 19 19.5t15.5 35q153-68 339-68 156 0 287.5 43.5t240.5 134.5q13 9 13 32 0 35-47 69-45 33-115 33a291.14 291.14 0 0 1 -48-4q-24-4-48-9t-48.5-9a312.6 312.6 0 0 0 -50.5-4q-100 0-151 46t-46 152z"/></svg>