<svg viewBox="0 0 2239.97 1510" xmlns="http://www.w3.org/2000/svg"><path d="m1045 845h177q106 0 152.5-31.5t41.5-109.5l-4-63q-3-39-39.5-63.5t-103.5-35.5a229.93 229.93 0 0 1 11 46.5 352.15 352.15 0 0 1 3 44.5 276.11 276.11 0 0 1 -6 58 358.83 358.83 0 0 1 -17 56q-23 53-56 53-20 0-30-12a42.39 42.39 0 0 1 -10-28q0-10 7-21 31-50 31-108 0-48-19-89h-175q-59 11-95 37t-36 58q0 58 13 97.5t36 64a135.8 135.8 0 0 0 53.5 35.5 191.71 191.71 0 0 0 65.5 11zm1189 453 5 41q4 27-8.5 49a140.45 140.45 0 0 1 -30.5 37.5 180.7 180.7 0 0 1 -37 25q-19 9.49-29 10.5l-421 49q-24 0-39-23l-201-408q-72-148-210-148h-218q-56 0-122-31-67-32-99-96t-32-167q0-65-79-95h-619q-52 0-63-56v-133q-7-13-19-51.5t-12-88.5q0-107 74-157v-23a20.88 20.88 0 0 1 6-14.5q6-6.5 14-6.5h132q19 0 19 21v15h1494v-29q0-19 19-19h67q19 0 19 19v29h77q13 0 30 27 18 29 41 32l60-10a47.67 47.67 0 0 1 13 2 35.34 35.34 0 0 1 13 7 44.09 44.09 0 0 1 10.5 13.5q4.5 8.5 4.5 22.5 0 13-19 37-8 19-24.5 51t-44.5 80l31 119 50 18q104 37 104 90 0 36-26.5 46.5t-66.5 11.5q-36 2-61.5 32t-25.5 84a262.5 262.5 0 0 0 20 100z"/></svg>