<svg viewBox="0 0 2206 2207" xmlns="http://www.w3.org/2000/svg"><path d="m1913 1535q0 28-20 45.5t-43 17.5q-29 0-46.5-19t-17.5-43q0-27 19.5-45.5t43.5-18.5q29 0 46.5 18.5t17.5 44.5zm-378 253q24 0 43 16t19 44a69 69 0 0 1 -17 46q-17 20-46 20-26 0-44.5-17.5t-18.5-45.5q0-30 18-46.5t46-16.5zm-432 114q28 0 45.5 19a64.2 64.2 0 0 1 17.5 45q0 28-17.5 45.5t-45.5 17.5q-28 0-45.5-17.5t-17.5-45.5a64.2 64.2 0 0 1 17.5-45q17.5-19 45.5-19zm-368-51q0 28-19 45.5t-44 17.5q-30 0-47-19.5t-17-44.5q0-29 19-45.5a65.09 65.09 0 0 1 44-16.5q26 0 45 16.5t19 46.5zm-378-379q25 0 43.5 17.5t18.5 45.5q0 24-17.5 43.5t-45.5 19.5q-25 0-44-17.5t-19-45.5q0-26 17.5-44.5t46.5-18.5zm-116-432q26 0 44.5 18t18.5 46q0 28-18.5 45.5t-44.5 17.5q-28 0-46-17.5t-18-45.5q0-28 18-46t46-18zm178-368q0 28-18.5 46t-44.5 18q-28 0-45.5-19.5t-17.5-43.5q0-29 18.5-46.5t44.5-17.5a69.05 69.05 0 0 1 33 8q16 9 23 23.5a71.47 71.47 0 0 1 7 31.5zm253-378q26 0 44.5 17.5t18.5 45.5q0 26-17.5 44.5t-45.5 18.5a63.24 63.24 0 0 1 -45-18q-19-18-19-46 0-26 17.5-44t46.5-18zm925 65q0 29-20 46t-44 17q-28 0-45-20t-17-45q0-28 18.5-45.5t43.5-17.5q29 0 46.5 17.5t17.5 47.5zm253 377a63.24 63.24 0 0 1 -45-18q-19-18-19-46 0-24 17-43.5t47-19.5q23 0 43 17.5t20 46.5q0 28-19 45.5t-44 17.5zm115 304q28 0 45.5 18t17.5 46q0 28-17.5 45.5t-45.5 17.5q-26 0-44.5-17.5t-18.5-45.5q0-28 18.5-46t44.5-18zm-862 127q28 0 45.5-18.5t17.5-44.5q0-28-17.5-46t-45.5-18q-28 0-45.5 19a64.2 64.2 0 0 0 -17.5 45q0 28 17.5 45.5t45.5 17.5zm168-63q0 51-26 89l215 368-138 81-214-370q-72 0-124-47-51-48-51-121 0-48 25-87.5a174.68 174.68 0 0 1 66-61.5v-761h158v761a167.23 167.23 0 0 1 65 61.5q24 39.5 24 87.5zm-168 996q269 0 498-133 231-134 364-365 134-232 134-498 0-269-133-498t-364-364q-115-67-239.5-101t-259.5-34q-137 0-261 34t-240 101q-228 134-362 364-133 229-133 498 0 268 133 500 132 229 365 363 232 133 498 133zm0-2100q296 0 551 149 257 150 404 407 148 258 148 548 0 293-148 551-149 258-404 404-256 148-551 148t-551-148q-255-146-404-404-148-258-148-551t147-548q146-257 403-407 255-149 553-149z"/></svg>