<svg viewBox="0 0 2206 2207" xmlns="http://www.w3.org/2000/svg"><path d="m1912 1536q0 29-19.5 45.5t-43.5 16.5q-28 0-45.5-19.5t-17.5-43.5q0-28 18.5-45.5t46.5-17.5q28 0 44.5 17.5t16.5 46.5zm-379 251q25 0 45 17.5t20 46.5q0 24-18 43.5t-47 19.5q-23 0-43-17.5t-20-45.5q0-26 18.5-45t44.5-19zm-431 116q28 0 46.5 17.5t18.5 45.5q0 28-18.5 46t-46.5 18q-26 0-44.5-18t-18.5-46q0-28 17.5-45.5t45.5-17.5zm-366-52q0 29-20 46t-45 17q-28 0-45.5-19.5t-17.5-43.5q0-29 20-46.5t43-17.5q15 0 33 8 32 21 32 56zm-382-379a69 69 0 0 1 46 17q20 17 20 46 0 26-18 44.5t-47 18.5q-24 0-43.5-18t-19.5-46q0-28 18-45t44-17zm-114-431q28 0 46.5 17.5t18.5 45.5q0 26-18.5 44.5t-46.5 18.5q-27 0-44.5-18.5t-17.5-44.5q0-28 17.5-45.5t44.5-17.5zm180-368q0 29-20.5 46t-44.5 17q-28 0-45.5-19.5t-17.5-43.5q0-28 19.5-46t45.5-18q26 0 44.5 19t18.5 45zm251-379q25 0 45 17t20 46q0 25-18 45t-47 20q-23 0-43-18t-20-47q0-28 19.5-45.5t43.5-17.5zm927 63q0 29-20 47t-43 18q-29 0-47-20.5t-18-44.5q0-28 20-45.5t43-17.5a66 66 0 0 1 45.5 17.5q19.5 17.5 19.5 45.5zm251 379q-25 0-44-17.5t-19-45.5q0-23 17-43.5t45-20.5a64.2 64.2 0 0 1 45 17.5q19 17.5 19 45.5 0 39-30 56a69.05 69.05 0 0 1 -33 8zm115 305q28 0 46 17.5t18 45.5q0 26-18 44.5t-46 18.5q-26 0-44.5-18.5t-18.5-44.5q0-28 18.5-45.5t44.5-17.5zm-925 63q0 21 17 42t46 21q22 0 43.5-15.5t21.5-47.5q0-28-18.5-45.5t-46.5-17.5q-26 0-44.5 17.5t-18.5 45.5zm282-537 138 79-213 369q26 40 26 89 0 70-49 119t-121 49q-70 0-119-49t-49-119q0-48 24.5-86.5a192.8 192.8 0 0 1 64.5-62.5v-761h159v613zm-219 1533q136 0 259.5-33.5t240.5-100.5q231-133 364-364 134-232 134-498 0-135-34-259t-100-240q-67-117-158-207t-208-157q-230-134-498-134-267 0-499 134-231 134-364 365-133 230-133 498 0 267 134 500 134 231 364 363 117 68 240.5 100.5t257.5 32.5zm0-2100q296 0 552 148 256 147 405 406 147 257 147 550 0 298-149 553-150 256-406 403-257 147-549 147-295 0-551-148-255-146-404-404-147-256-147-551t146-548q146-256 404-407 255-149 552-149z"/></svg>