<svg viewBox="0 0 1528 1941" xmlns="http://www.w3.org/2000/svg"><path d="m1243 1657h92a83.31 83.31 0 0 0 49.5-25q20.51-21 20.5-51 0-29-21.5-51.5t-51.5-22.5h-89l-2 3v144zm-459 153q34 0 61-11t46-30a127.65 127.65 0 0 0 29-45 156.25 156.25 0 0 0 0-110 127.65 127.65 0 0 0 -29-45q-19-19-46-30t-61-11q-33 0-60 11t-46 30a127.65 127.65 0 0 0 -29 45 156.25 156.25 0 0 0 0 110 127.65 127.65 0 0 0 29 45q19 19 46 30t60 11zm-276-397v92q0 11-11 11h-176v409q0 11-12 11h-111q-11 0-11-11v-409h-175q-12 0-12-11v-92q0-11 12-11h485q11 0 11 11zm612-11h226q72 0 127 52t55 127q0 73-53 128-55 53-129 53h-104v163q0 11-11 11h-111q-12 0-12-11v-512q0-11 12-11zm-336-5q123 0 202 76 78 77 78 196 0 120-78 195-77 77-202 77-124 0-203-77-78-76-78-195t77-194q78-78 204-78zm-661-520 642-877 641 877h-399v306h-480v-306z"/></svg>