<svg viewBox="0 0 1928 2140" xmlns="http://www.w3.org/2000/svg"><path d="m965 844q94 0 164 70t70 166q0 98-70 166-69 68-164 68-97 0-166-68-70-68-70-166 0-96 70-166 35-35 76-52.5t90-17.5zm431 645h316l-158-266zm-431 420 156-263h-314zm-749-420h316l-157-266zm0-836 159 264 157-264zm749-422-158 264h314zm498 839-249-417h-500l-247 417 247 419h500zm249-417h-316l158 264zm216 915q0 32-22.5 55t-55.5 23h-546l-272 455q-24 39-67 39-24 0-40.5-9.5t-28.5-29.5l-271-455h-547q-32 0-55-22.5t-23-55.5a80.48 80.48 0 0 1 11-41l272-457-272-457a78.69 78.69 0 0 1 -11-40q0-18 6.5-32a80.32 80.32 0 0 1 17.5-24.5 76.36 76.36 0 0 1 25-16 78.55 78.55 0 0 1 29-5.5h547l271-456q12-20 28.5-29.5t40.5-9.5q43 0 67 39l272 456h546a75.32 75.32 0 0 1 30 6 77.45 77.45 0 0 1 24.5 16.5 82.81 82.81 0 0 1 17 25 73.79 73.79 0 0 1 6.5 30.5 77.9 77.9 0 0 1 -3 21.5 72.15 72.15 0 0 1 -8 18.5l-271 457 271 457a76.22 76.22 0 0 1 8 17.5q3 9.5 3 23.5z"/></svg>