<svg viewBox="0 0 1949.64 2176" xmlns="http://www.w3.org/2000/svg"><path d="m974.64 340q-199 0-372 100-173 98-274 270-101 173-101 375v25l1 26-226 15-2-66q-5-128 29-248t99-233q130-227 353-359 225-132 491-132 248 0 465 119l217-232 57 641-679 23 244-261a742.15 742.15 0 0 0 -148-47.5 759.17 759.17 0 0 0 -154-15.5zm749 700 225-15 1 33v33q0 261-133 488-132 228-354 356-221 127-486 127-238 0-462-118l-218 232-57-642 679-22-244 261a739.78 739.78 0 0 0 148.5 47.5 761.53 761.53 0 0 0 153.5 15.5q206 0 375-100 174-101 272-275 102-175 102-373v-23z"/></svg>