<svg viewBox="0 0 2249.14 2247" xmlns="http://www.w3.org/2000/svg"><path d="m2081 803q-2-132-47-243.5t-139-205.5q-186-186-449-186-88 0-166.5 21.5a644.05 644.05 0 0 0 -151.5 63.5q-145 83-231 232a589.27 589.27 0 0 0 -63.5 152.5q-20.5 79.5-21.5 165.5a580.87 580.87 0 0 0 21.5 165 624 624 0 0 0 64 150 652.75 652.75 0 0 0 100.5 129 661.14 661.14 0 0 0 129.5 101 631.62 631.62 0 0 0 151.5 65 617.78 617.78 0 0 0 334 0 643.75 643.75 0 0 0 151.5-64.5 666.16 666.16 0 0 0 129.5-99.5 622.31 622.31 0 0 0 100.5-128.5 646 646 0 0 0 64.5-151 578.39 578.39 0 0 0 22-166.5zm-1557 644q52 0 100 26l185-185q-166-217-166-488 0-216 110-404 109-186 293-291 181-105 400-105a819.64 819.64 0 0 1 154 14.5 805.77 805.77 0 0 1 148.5 43.5 784.65 784.65 0 0 1 139.5 73 767.22 767.22 0 0 1 126 104q119 120 176 260.5t59 307.5q2 110-25.5 210t-82.5 193q-108 184-292 292-185 106-401 106-274 0-489-164l-186 185a217.24 217.24 0 0 1 22 52q7 26 7 49 0 45-26 71l-424 424q-26 26-71 26-95 0-187-93-94-93-94-186 0-43 26-71l425-424q25-26 73-26z"/></svg>