<svg viewBox="0 0 2142 2305" xmlns="http://www.w3.org/2000/svg"><path d="m2142 2062q0 85-79 164-80 79-173 79-63 0-108-45l-75-75q79 0 151-36a454.65 454.65 0 0 0 65-40.5 290.1 290.1 0 0 0 54-53q24-30.49 42.5-71t30.5-93.5l62 83q30 33 30 88zm-1371-1176q-77 37-153 37-47 0-84.5-14t-64.5-39.5a185.63 185.63 0 0 1 -42.5-60.5q-15.5-35-16.5-76-1-38 13.5-78.5a343.65 343.65 0 0 1 41-79 457.82 457.82 0 0 1 63-73 476.5 476.5 0 0 1 78-60 375.05 375.05 0 0 1 87.5-39.5q46-14 91-13t83.5 15q38.5 14 66.5 38.5a174.27 174.27 0 0 1 44 59.5q16 35 16 78 0 86-58 169a147.55 147.55 0 0 0 -13-51 134.53 134.53 0 0 0 -28.5-41 133 133 0 0 0 -41-27 127.57 127.57 0 0 0 -50.5-10 132.66 132.66 0 0 0 -54 11 135.23 135.23 0 0 0 -43 29.5 142 142 0 0 0 -28.5 42.5 125.85 125.85 0 0 0 -10.5 51q0 48 29.5 85t74.5 46zm1232 984q0 98-93 183-93 84-193 84a167.87 167.87 0 0 1 -37.5-4 187.74 187.74 0 0 1 -33.5-11l-749-751q42-2 90-18a647.84 647.84 0 0 0 96.5-41.5 699.47 699.47 0 0 0 95-60.5 748.69 748.69 0 0 0 86-75.5 535 535 0 0 0 68.5-86q29-45.49 43-93.5l618 821q9 24 9 53zm-1913-1149q0 148 104 239 105 93 266 93a619.1 619.1 0 0 0 168.5-23.5q83.5-23.5 164.5-71.5 165-97 262-244 98-151 98-291 0-147-103-240-100-91-265-91-167 0-330 91a818.45 818.45 0 0 0 -147 106 756.77 756.77 0 0 0 -117 135q-101 151-101 297zm739 581q-180 0-378-79-100-40-181-89.5t-144-110.5q-126-120-126-301 0-168 108-338 108-168 295-276t382-108q168 0 285 81 117 79 188 272 73 193 73 398 0 47-4 88.5t-11 77.5q0 6-6.5 22.5a351.62 351.62 0 0 1 -18.5 38.5q-12 22-28.5 48t-36.5 52q-39 49-113 103a733.19 733.19 0 0 1 -73.5 48 663.91 663.91 0 0 1 -80.5 39q-81 34-130 34z"/></svg>