<svg viewBox="0 0 1876 1873" xmlns="http://www.w3.org/2000/svg"><path d="m1394 1508h-115l115-180zm-760-675v-135q0-13-10-13h-56v-582l-4-7-10-3-242 52q-8 2-8 11v142l4 10 10 1 72-20v396h-56q-11 0-11 13v135q0 11 11 11h290q10 0 10-11zm5 576q53 28 84 76t31 106q0 100-81 167-79 67-194 67a360.07 360.07 0 0 1 -65.5-6 293.72 293.72 0 0 1 -64.5-20q-32-14-60.5-30a453.49 453.49 0 0 1 -54.5-36q-52-41-52-57l3-7 71-104 8-4 10 3q29 29 82 54 51 25 94 25 38 0 64.5-25t26.5-61q0-29-32-54t-81-38q-8-2-8-11v-90q0-8 8-11 53-17 86-44.5t33-59.5a77 77 0 0 0 -7-33 86.32 86.32 0 0 0 -44-43 72.89 72.89 0 0 0 -29-6q-58 0-145 64l-8 3-9-4-71-104-3-6 5-8q31-42 108-72 76-32 145-32 102 0 177 70 76 70 76 155 0 100-103 176zm478-1168-2-6q0-14 55-57a486.44 486.44 0 0 1 119.5-70.5q64.5-26.5 127.5-28.5 46 0 92.5 19a289.76 289.76 0 0 1 84 52.5 272.84 272.84 0 0 1 61 79 198.57 198.57 0 0 1 22.5 96.5q-1 52-23.5 101t-70.5 96q-47 45-95 83a1109.31 1109.31 0 0 1 -99 70h286q11 0 11 12v147q0 12-11 12h-500q-11 0-11-12v-154q0-6 6-11 139-82 214.5-160t75.5-139q0-21-7.5-38a86.38 86.38 0 0 0 -20.5-29 95.37 95.37 0 0 0 -29-18.5 84.52 84.52 0 0 0 -32-6.5q-68 0-164 82l-10 3-8-5zm599 1406v-128q0-11-13-11h-125v-465q0-4-4-7t-7-3h-162l-5 1-3 3-309 475-2 7v128q0 11 11 11h297v131q0 10 11 10h162q11 0 11-10v-131h125q13 0 13-11zm-779-711h-937v-936h937zm2 0h937v937h-937z"/></svg>