<svg viewBox="0 0 1881 2102" xmlns="http://www.w3.org/2000/svg"><path d="m911 1284-876-642 876-642v400h934v479h-934zm968 792 2 6q0 11-11 11h-124q-8 0-9-5l-156-249v243q0 11-12 11h-110q-12 0-12-11v-510q0-12 12-12h110q12 0 12 12v199l135-206 11-5h123q11 0 11 11l-1 7-150 227zm-539-162 58 114-2 7q-79 67-193 67-60 0-111-19a276.18 276.18 0 0 1 -92-57q-81-75-81-199 0-122 81-199a276.18 276.18 0 0 1 92-57q51-19 111-19 115 0 186 56l2 8-63 115-6 3-4-2q-47-35-115-35-60 0-97.5 36t-37.5 94q0 29 10 53a121.52 121.52 0 0 0 27.5 41q17.51 17 42.5 27t55 10q32 0 68-12.5t60-32.5l5-2zm-1215 81h76q23 0 39.5-18.5a63.24 63.24 0 0 0 16.5-43.5q0-26-18.5-43t-46.5-17h-67zm-1-226h71q22 0 37-15t15-38a53.67 53.67 0 0 0 -15-38 48.69 48.69 0 0 0 -37-16h-71zm201 48q71 49 71 123 0 66-52 110-52 43-117 43h-215q-12 0-12-11v-510q0-12 12-12h191q69 0 119 45 51 45 51 108 0 59-48 104zm296 73h99l-49-151zm-10-327h119q7 0 10 6l190 507v11l-10 4h-126q-7 0-9-7l-29-88h-171l-29 88q-2 7-11 7h-124l-10-4-1-11 190-507a12.55 12.55 0 0 1 11-6z"/></svg>