<svg viewBox="0 0 2208 1943.05" xmlns="http://www.w3.org/2000/svg"><path d="m672 1566.05-33-140q60-24 60-87 0-41-27.5-68t-68.5-27q-40 0-67 27t-27 68a89.22 89.22 0 0 0 16.5 52.5 97.41 97.41 0 0 0 42.5 34.5l-33 140zm916-1279q0 51 40 96 39 42 98 42t98-42q39-43 39-96t-41-96q-39-42-96-42-56 0-97 41t-41 97zm-748 661v-254q0-94-70-166-69-72-167-72-99 0-168 72-68 70-68 166v254zm1033-7v856l-147 146-146-146v-97l97-99-97-97 97-97-97-98v-368q-153-51-245-178-46-64-68.5-133.5t-24.5-147.5a425.24 425.24 0 0 1 16-122.5 476.52 476.52 0 0 1 49-114.5 526.48 526.48 0 0 1 77-100 496 496 0 0 1 99-78.5 475.46 475.46 0 0 1 115.5-50 435.71 435.71 0 0 1 126.5-16.5q131 2 242 65 114 65 177 177 32 57 48 116t16 124q0 151-92 280-91 128.01-243 179zm-798 7h30a98.49 98.49 0 0 1 39.5 8 103.73 103.73 0 0 1 54.5 54.5 98.52 98.52 0 0 1 8 39.5v694a99 99 0 0 1 -30 71.5 108.2 108.2 0 0 1 -32.5 21.5 98.32 98.32 0 0 1 -39.5 8h-1004a98.32 98.32 0 0 1 -39.5-8 100.09 100.09 0 0 1 -53.5-53.5 98.49 98.49 0 0 1 -8-39.5v-694a98.52 98.52 0 0 1 8-39.5 108.33 108.33 0 0 1 21.5-32.5 99 99 0 0 1 71.5-30h30v-254a426.67 426.67 0 0 1 17.5-122 482.73 482.73 0 0 1 49-111.5 499.72 499.72 0 0 1 171-171 480.06 480.06 0 0 1 112-49 439 439 0 0 1 302.5 21q86 38.51 150.5 103t103 150a432.31 432.31 0 0 1 38.5 179.5z"/></svg>