<svg viewBox="0 0 2208 2206" xmlns="http://www.w3.org/2000/svg"><path d="m1914 1534q0 28-20.5 46t-43.5 18q-29 0-46-19.5t-17-43.5q0-28 20-46t44-18q26 0 44.5 17.5t18.5 45.5zm-379 253q23 0 43 17.5t20 46.5q0 24-17.5 43t-45.5 19q-24 0-44-17.5t-20-45.5q0-28 19.5-45.5t44.5-17.5zm-431 115q28 0 46 18.5t18 44.5q0 28-17.5 45.5t-43.5 17.5q-28 0-47.5-17.5t-19.5-45.5q0-26 19-44.5t45-18.5zm-368-53q0 29-19.5 46.5t-43.5 17.5q-29 0-46.5-19t-17.5-43q0-29 19.5-46.5t43.5-17.5q28 0 46 17t18 45zm-379-378q25 0 44.5 17t19.5 46q0 23-17 43.5t-46 20.5q-23 0-43.5-17.5t-20.5-46.5q0-28 19-45.5t44-17.5zm-115-432q28 0 45.5 18t17.5 46q0 28-17.5 45.5t-45.5 17.5q-28 0-46-17.5t-18-45.5q0-28 18-46t46-18zm179-367q0 29-19.5 46t-44.5 17q-28 0-45.5-19.5t-17.5-43.5q0-29 19-46t43-17q28 0 46.5 18.5t18.5 44.5zm252-379q24 0 43.5 18.5t19.5 45.5q0 24-16.5 43.5t-45.5 19.5q-26 0-45.5-18t-19.5-46q0-26 18-44.5t46-18.5zm925 63q0 28-19 46a63.24 63.24 0 0 1 -45 18q-28 0-45-20t-17-44q0-28 19.5-45.5t43.5-17.5q26 0 44.5 17.5t18.5 45.5zm253 379q-24 0-44-17.5t-20-46.5q0-24 18-43t47-19q24 0 43 17.5t19 45.5q0 28-19 45.5t-44 17.5zm115 304q28 0 46 19a63.24 63.24 0 0 1 18 45q0 28-18 45.5t-46 17.5q-26 0-44.5-17.5t-18.5-45.5q0-26 18.5-45t44.5-19zm-862 127q32 0 48-20.5t16-42.5a63.24 63.24 0 0 0 -18-45q-18-19-46-19t-46 19a63.24 63.24 0 0 0 -18 45q0 29 19 46t45 17zm79-973v761a167.23 167.23 0 0 1 65 61.5q24 39.49 24 87.5 0 70-49 119t-119 49q-70 0-119-49t-49-119q0-50 24-89l-212-369 138-80 139 241v-613zm-79 1907q267 0 499-134 232-133 364-364 134-232 134-499t-134-499q-67-117-158-207t-207-157q-230-134-498-134-267 0-499 134-117 67-207.5 158t-158.5 207q-132 230-132 498 0 267 134 499 134 233 364 366 116 67 240 99.5t259 32.5zm0-2100q148 0 283.5 37t265.5 111q256 148 406 404 149 255 149 551 0 298-149 553-150 256-406 403-257 147-549 147-294 0-550-147-255-146-405-403-149-255-149-553 0-296 149-551 75-129 175.5-229.5t229.5-174.5q258-148 550-148z"/></svg>