<svg viewBox="0 0 2022 2022" xmlns="http://www.w3.org/2000/svg"><path d="m798 1313h65q14 0 14 14v182q0 14-14 14h-342q-12 0-12-14v-182q0-14 12-14h66v-537l-88 9q-13 0-13-12v-193q0-12 11-12l286-49q15 0 15 13zm467-407q50 0 82.5-33t32.5-90a140.14 140.14 0 0 0 -8.5-49 115.4 115.4 0 0 0 -24-39.5 113.94 113.94 0 0 0 -36.5-26 110.34 110.34 0 0 0 -46-9.5q-51 0-82.5 35.5t-31.5 88.5q0 57 31.5 90t82.5 33zm-127 321q0 31 10 56a130.29 130.29 0 0 0 27.5 43 126.19 126.19 0 0 0 40.5 28 125.88 125.88 0 0 0 99.5-.5 116.62 116.62 0 0 0 40-29 138.42 138.42 0 0 0 26-43.5 150.86 150.86 0 0 0 9.5-54q0-61-35.5-99t-90.5-38q-57 0-92 38t-35 99zm345-245q108 93 108 245 0 139-93 230-90 90-233 90-142 0-233-90-93-90-93-230 0-149 108-245-76-75-76-199 0-126 84-207 85-82 210-82 126 0 210 81 85 80 85 208 0 117-77 199zm-218 335q-21 0-36-8a78.35 78.35 0 0 1 -39.5-49 121.34 121.34 0 0 1 -4.5-33q0-61 42-81l114 114q-17 57-76 57zm-281-337a418.57 418.57 0 0 0 -58 88l-82-83v-222l86 87a398.31 398.31 0 0 0 20 68 280.89 280.89 0 0 0 34 62zm566 489 104 104a891.55 891.55 0 0 0 155-257.5q56-142.5 56-304.5 0-115-28.5-220.5t-85.5-204.5q-57-100-135-178t-178-136q-200-116-427-116-162 0-304.5 56.5a900.63 900.63 0 0 0 -257.5 155.5l137 138-98 17a55.53 55.53 0 0 0 -35 19q-14 16-14 39l-98-98q-185 235-185 528 0 228 115 427 116 200 313 313 100 57 206 85.5t221 28.5q295 0 528-185l-118-118a309.79 309.79 0 0 0 70-38.5 363.57 363.57 0 0 0 59-54.5zm-539-1469q135 0 260 34t243 101q234 134 371 370t137 506q0 273-137 508-137 236-372 369-236 134-502 134-271 0-506-135t-370-370q-135-235-135-506t135-505q137-237 370-371 235-135 506-135z"/></svg>