<svg viewBox="0 0 1876 1874" xmlns="http://www.w3.org/2000/svg"><path d="m407 547 62-187 62 187zm905-149h89q28 0 46-20t18-48q0-28-18-47.5t-46-19.5h-89l-3 2v129zm2 282h93q29 0 50.5-23t21.5-55q0-33-21.5-56.5t-50.5-23.5h-93l-5 5v149zm-5 547h100a155.22 155.22 0 0 1 113.5 49q21.49 23 34 56.5t12.5 73.5q0 84-46 130.5t-121 46.5h-93q-15 0-15-14v-328q0-14 15-14zm-599 297 67 139-1 10q-106 89-249 89-79 0-145.5-24.5a338 338 0 0 1 -118.5-74.5q-104-98-104-257 0-77 25.5-141t78.5-115q106-101 264-101 142 0 239 73l2 11-76 143-5 4-7-1q-56-49-153-49-39 0-72.5 12.5t-57.5 35q-24 22.5-37.5 55.5t-13.5 73q0 39 13 71a157.06 157.06 0 0 0 37 55 166.59 166.59 0 0 0 57 35.5q33 12.49 74 12.5a229.23 229.23 0 0 0 44-4.5 337.25 337.25 0 0 0 46-12.5 324.4 324.4 0 0 0 44-19 271.82 271.82 0 0 0 37-23l8-3zm84-731 2-6-1-6-239-635q-3-8-13-8h-149q-10 0-12 8l-238 635-3 7q0 12 15 12h156q11 0 14-9l35-110h215l36 110q3 9 13 9h156q8 0 13-7zm648 10h-271q-15 0-15-14v-640q0-15 15-15h241q45 0 81 14.5t68 42.5q63 57 63 135 0 76-59 131 88 57 88 154 0 82-63 137-61 55-148 55zm-301 937h276q147 0 233-93 88-94 88-242 0-149-88-241-45-46-102-69.5t-131-23.5h-276q-15 0-15 14v640q0 15 15 15zm-204-803h-937v-937h937zm2 0h937v937h-937z"/></svg>