<svg viewBox="0 0 1876 1873" xmlns="http://www.w3.org/2000/svg"><path d="m1613 1487q33 0 51.5 20t18.5 49q0 27-18.5 47t-51.5 20q-32 0-50-20a68 68 0 0 1 -18-47q0-29 18-49t50-20zm-403-227q32 0 50 19.5t18 48.5q0 28-18 47.5t-50 19.5q-33 0-51.5-19.5t-18.5-47.5q0-29 18.5-48.5t51.5-19.5zm-772 249q45 0 71-27.5t26-65.5q0-40-26-66.5t-71-26.5q-45 0-70.5 26.5t-25.5 66.5q0 38 25.5 65.5t70.5 27.5zm353-1205v-126q0-11-11-11h-621q-12 0-12 11v126q0 9 12 9h621q11 0 11-9zm0 253v-126q0-10-11-10h-621q-12 0-12 10v126q0 12 12 12h231v249q0 11 11 11h135q11 0 11-11v-249h233q11 0 11-12zm457 294q-73 0-122-45-49-46-49-111 0-74 66-130 64-55 161-55 58 0 105 25l-5-402a41.19 41.19 0 0 1 10.5-28q10.5-12 27.5-12 120 0 218 71 95 70 119 182 9 42 19 52a57.6 57.6 0 0 0 10.5 8q6.49 4 13 8.5a53.2 53.2 0 0 1 11 10 18 18 0 0 1 4.5 11.5 20.06 20.06 0 0 1 -5.5 14 44.32 44.32 0 0 1 -14 10 79.9 79.9 0 0 1 -18.5 6 97.27 97.27 0 0 1 -19 2 82.18 82.18 0 0 1 -33-6.5 111.23 111.23 0 0 1 -27.5-17q-12.5-10.5-24.5-22.5l-24-24q-63-60-186-60l4 298q0 89-76 152-75 63-165 63zm365 874a192 192 0 0 0 69.5-12.5 171.69 171.69 0 0 0 56.5-35 160 160 0 0 0 37.5-53.5q13.5-31 13.5-68t-13.5-68.5a164.11 164.11 0 0 0 -37.5-54.5 167.6 167.6 0 0 0 -56.5-35.5 192 192 0 0 0 -69.5-12.5q-46 0-79 16l178-279v-8l-9-6h-161l-8 6-151 228 2-14a181.24 181.24 0 0 0 -12-66 163.07 163.07 0 0 0 -34.5-54.5q-22.5-23.51-55-37t-73.5-13.5q-39 0-71.5 13a168.61 168.61 0 0 0 -56 36 161.53 161.53 0 0 0 -36.5 54.5 175.12 175.12 0 0 0 -13 67.5q0 37 13 68.5a156.3 156.3 0 0 0 36.5 54q23.51 22.5 56 35.5t71.5 13a207 207 0 0 0 42.5-4.5 149.28 149.28 0 0 0 41.5-15.5l-161 246v11l7 4h171l8-4 119-186q0 39 12.5 71a158 158 0 0 0 35.5 55q23 23 55.5 36t71.5 13zm-1145-726q190 0 307 117 58 60 87 134.5t29 168.5q0 39-12 73t-33.5 58.5a154.79 154.79 0 0 1 -51.5 38.5q-30 14-67 14-80 0-126-57-60 72-163 72-92 0-149-56-59-56-59-146t58-145q58-57 150-57a269.05 269.05 0 0 1 57.5 6 163.39 163.39 0 0 1 50.5 20v-11q0-9 8-9h107q10 0 10 9v142q0 48 15.5 77.5t40.5 29.5q38 0 38-58 0-67-20.5-121.5t-58.5-92.5q-38-38-93-59t-125-21q-133 0-215 81-80 80-80 204t82 205q80 79 213 79 111 0 188-56l73 101q-108 81-261 81-184 0-301-116-119-117-119-294 0-179 119-296 117-116 301-116zm471-62h937v936h-937zm-2 0h-937v-937h937z"/></svg>