<svg viewBox="0 0 2418 2062" xmlns="http://www.w3.org/2000/svg"><path d="m874 400h669v-400l875 642-875 642v-401h-669v401l-874-642 874-642zm927 1117q29 0 49.5 20.5t20.5 50.5l-1 12-58 319q-1 9-11 9-12 0-12-9l-57-319-2-12q0-30 21-50.5t50-20.5zm0 457a43.2 43.2 0 0 1 31 12.5q13 12.49 13 32.5 0 17-13 30a42.31 42.31 0 0 1 -31 13q-20 0-32.5-13t-12.5-30q0-20 12.5-32.5t32.5-12.5zm-974-43q33 0 60-11t46-30a127.65 127.65 0 0 0 29-45 156.25 156.25 0 0 0 0-110 131.56 131.56 0 0 0 -75-76q-27-11-60-11-34 0-61 11a131.56 131.56 0 0 0 -75 76 156.25 156.25 0 0 0 0 110 127.65 127.65 0 0 0 29 45q19 19 46 30t61 11zm0-413q63 0 113 19.5t90 58.5q78 78 78 194 0 118-78 196-78 76-203 76-126 0-202-75-78-75-78-197 0-119 76-195 79-77 204-77zm703 11h111q13 0 13 12v511q0 10-13 10h-111q-8 0-9-5l-208-323v318q0 10-12 10h-110q-12 0-12-10v-511q0-12 12-12h110q8 0 11 5l208 325v-318q0-12 10-12z"/></svg>