<svg viewBox="0 0 2088 2392" xmlns="http://www.w3.org/2000/svg"><path d="m641 1957-3-9a97.41 97.41 0 0 0 42.5-34.5 89.26 89.26 0 0 0 16.5-52.5q0-41-27-68.5t-67-27.5q-41 0-68 27.5t-27 68.5a93.32 93.32 0 0 0 15.5 52.5q15.5 23.5 43.5 34.5l-33 140h136zm1207-1765-74 3q-65 2-116-4t-89-17q67-174 202-174 141 0 209 174-14 5-46.5 10.5t-85.5 7.5zm80 725v-646q27-5 46.5-9t30.5-9a956.15 956.15 0 0 1 23.5 131.5 1309.51 1309.51 0 0 1 7.5 142.5v348q0 13-27.5 23.5t-80.5 18.5zm46 921q0-32-16-77t-50-96l-23-34q-25 3-52.5 4t-58.5 1q-30 0-57.5-1t-52.5-4q-44 56-66.5 108t-22.5 100q0 68 42 156a590.46 590.46 0 0 0 46.5 82.5q25.5 37.5 51.5 73.5l30 42v-246q-22-8-36.5-28t-14.5-46q0-33 23.5-56t56.5-23q33 0 56 23t23 56q0 56-50 74v246l30-42q29-42 55.5-83a657.24 657.24 0 0 0 46.5-85q39-88 39-145zm-169-910h-31q-53 0-98.5-4t-84.5-11q-78-15-78-38v-348a1443.2 1443.2 0 0 1 7-146.5q7-68.5 23-127.5 34 14 99 21t163 7zm-966 542v-253q0-51-17-92.5t-51-76.5q-68-70-168-70-96 0-168 70-70 67-70 169v253zm1249 369q0 82-47 191-49 112-117 193-11 14-35.5 48.5t-61.5 91.5l-4 4q-14 25-49 25-20 0-30-6-8-5-54-75-21-33-67-88a803.2 803.2 0 0 1 -62.5-87.5 773 773 0 0 1 -53.5-103.5q-48-111-48-194 0-22 4.5-50.5a410.14 410.14 0 0 1 14.5-60 427.6 427.6 0 0 1 26.5-64 398.55 398.55 0 0 1 40.5-63.5l-4-10v-482q-28-9-28-23v-119q9 22 86 35t206 13v111l123-11v-110q91-12 108-38v118q0 15-30 24v482l-4 10a416.61 416.61 0 0 1 38.5 61 437 437 0 0 1 27 64 425.47 425.47 0 0 1 15.5 61.5q5 29.5 5 52.5zm-1013-369h30a98.49 98.49 0 0 1 39.5 8 100.09 100.09 0 0 1 53.5 53.5 98.49 98.49 0 0 1 8 39.5v693a102.11 102.11 0 0 1 -8 40 106.46 106.46 0 0 1 -21.5 33 99 99 0 0 1 -71.5 30h-1006a95 95 0 0 1 -39-8 98.94 98.94 0 0 1 -52.5-55 108 108 0 0 1 -7.5-40v-693a104.11 104.11 0 0 1 7.5-39.5 95.39 95.39 0 0 1 21-32 103.54 103.54 0 0 1 31.5-21.5 95 95 0 0 1 39-8h30v-253q0-197 139-336 69-69 152.5-102.5t182.5-35.5a419.26 419.26 0 0 1 122.5 16 464.79 464.79 0 0 1 112 48.5 486.68 486.68 0 0 1 96 75.5 503.06 503.06 0 0 1 75 97 487.34 487.34 0 0 1 49 113 440.45 440.45 0 0 1 17.5 124z"/></svg>