<svg viewBox="0 0 1846 1845" xmlns="http://www.w3.org/2000/svg"><path d="m1625 522v801q106-189 106-401 0-214-106-400zm-190-224v1249a629.75 629.75 0 0 0 56-50q28-28 57-62v-1025q-29-34-57-62a629.75 629.75 0 0 0 -56-50zm-188-116v1481a646.66 646.66 0 0 0 62.5-30.5q27.5-15.5 49.5-30.5v-1360a615.46 615.46 0 0 0 -58-34.5q-28-14.5-54-25.5zm-191-56v1593q38-7 66-13t47-14v-1540q-22-7-50-13t-63-13zm-187 1603 53 3 59-3v-1613l-59-3-53 3zm-190-1577v1541a360.09 360.09 0 0 0 54 16q28 6 58 10v-1595q-38 8-66 14t-46 14zm-189 87v1365a457.64 457.64 0 0 0 51 30.5q28 14.51 61 30.5v-1485q-22 10-50 24.5t-62 34.5zm-189 166v1034a794.26 794.26 0 0 0 111 111v-1255q-55 47-111 110zm-187 517q0 220 111 406v-811q-111 186-111 405zm1732 0q0 240-121 454t-335 342q-214 127-468 127a979.27 979.27 0 0 1 -174-15.5 888.38 888.38 0 0 1 -167.5-47.5 916.14 916.14 0 0 1 -157-80q-75.5-48-142.5-114a896.07 896.07 0 0 1 -119-142 960.85 960.85 0 0 1 -88-161.5 930.71 930.71 0 0 1 -55-176 914.67 914.67 0 0 1 -19-186.5q0-243 122-457 62-109 145.5-192.5t189.5-146.5q213-126 465-126a901.34 901.34 0 0 1 190 20 939.44 939.44 0 0 1 178 57 929.36 929.36 0 0 1 161 90 915.25 915.25 0 0 1 139 119 905.62 905.62 0 0 1 111 142 953.16 953.16 0 0 1 80.5 158 914.11 914.11 0 0 1 64.5 336z"/></svg>