<svg viewBox="0 0 964 965" xmlns="http://www.w3.org/2000/svg"><path d="m788 483 39 41 43-41-41-41zm-91 90 40 42 56-57-41-39zm-90 92 40 40 56-56-41-40zm-90 90 38 40 56-56-38-40zm-34 35-41 41 41 39 38-39zm-92-91-40 40 56 56 40-40zm-90-90-40 40 56 56 40-40zm-91-90-39 39 55 57 41-42zm-34-34-42-43-40 41 41 41zm91-91-43-42-56 56 42 41zm90-90-43-42-56 56 43 41zm90-92-41-41-56 56 41 41zm36-34 41-42-41-41-43 41zm90 90 41-41-56-56-41 41zm89 91 42-41-56-56-41 42zm35 35 55 55 43-41-56-56zm-90 91 55 54 56-56-56-55zm-90 88 56 57 55-57-56-54zm-34 36-56 56 56 56 54-56zm-92-90-56 54 56 57 56-57zm-34-34-56-57-56 57 56 54zm90-91-56-56-56 56 56 55zm36-35 54-55-54-56-56 56zm54 126-54-57-56 57 56 54zm-20-91 56 55 55-55-55-56zm447 88a36.71 36.71 0 0 1 -11 27l-444 445q-9 11-26 11-13 0-29-11l-443-445q-11-11-11-26 0-13 11-29l443-441q12-13 29-13t26 13l444 441q5 8 8 14a30.94 30.94 0 0 1 3 14z"/></svg>