<svg viewBox="0 0 2066 2065" xmlns="http://www.w3.org/2000/svg"><path d="m1612 435 213-214q-27-21-60-21h-1465q-42 0-70.5 28.5t-28.5 70.5v1466q0 41 29 70l213-216q-32-34-32-80v-1015a113 113 0 0 1 9-45 119.68 119.68 0 0 1 24-36.5 109.49 109.49 0 0 1 36-24.5 113 113 0 0 1 45-9h1014q36 0 73 26zm-947 977-181 181q20 13 41 13h1014q28 0 48.5-19.5t20.5-47.5v-1015q0-28-20-48l-179 182q29 31 29 71v605a98.49 98.49 0 0 1 -8 39.5 107.43 107.43 0 0 1 -55.5 55.5 98.49 98.49 0 0 1 -39.5 8h-604q-40 0-66-25zm-554-1412h1843a107 107 0 0 1 43.5 9 115 115 0 0 1 35.5 24 116.81 116.81 0 0 1 24 35 103.56 103.56 0 0 1 9 43v1843a103.56 103.56 0 0 1 -9 43 116.81 116.81 0 0 1 -24 35 115 115 0 0 1 -35.5 24 107 107 0 0 1 -43.5 9h-1843a107 107 0 0 1 -43.5-9 115 115 0 0 1 -35.5-24 109.25 109.25 0 0 1 -32-78v-1843a109.25 109.25 0 0 1 32-78 115 115 0 0 1 35.5-24 107 107 0 0 1 43.5-9z"/></svg>