<svg viewBox="0 0 2292 1752" xmlns="http://www.w3.org/2000/svg"><path d="m892 639-310-53-201 89 325 48zm994-532-167 56 287 201 137-54zm-423 408-328 138 167 316q9-28 14-50.5t5-39.5q0-93-48-164-9-15-9-25 0-16 17-16 46 0 83 64 36 65 36 130a197.79 197.79 0 0 1 -1.5 23.5q-1.5 12.5-3.5 23t-4 18.5q-2 8-4 10l48-22q23-48 23-108 0-14-1-29a149.32 149.32 0 0 0 -6-32l-7-29-37-77-5-16q0-17 22-17 41 0 78 66 37 68 37 133 0 36-13 65l50-22a204.52 204.52 0 0 0 16-47.5 252.18 252.18 0 0 0 5-50.5q0-58-32-135-8-14-16.5-28.5t-8.5-25.5q0-15 19-15 47 0 82 64a333.07 333.07 0 0 1 26.5 65.5 246.41 246.41 0 0 1 9.5 67.5l-6 49q38-32 52.5-65.5a175.53 175.53 0 0 0 14.5-70.5q0-66-45-119-45-55-111-55h-8q-45 0-69.5 9.5t-41.5 16.5zm-218 559-207-391-256 115 212 391zm410-79 294-141v-406l-339-238-279 212v41q69-29 111-45t60-21q17-4 31.5-6a202.15 202.15 0 0 1 27.5-2q118 0 198 79 79 79 79 195 0 94-47.5 160t-135.5 106l-63 29zm-1242 609 276 35a251.47 251.47 0 0 0 29.5-1.5 56.23 56.23 0 0 0 22.5-7.5 61.69 61.69 0 0 0 18-17q8-11 16-30l117-268a127.85 127.85 0 0 0 11-52 129.94 129.94 0 0 0 -4-30.5 144.61 144.61 0 0 0 -13-33.5l-175-319q-21-37-46-50.5t-62-19.5l-326-50q-10 0-16.5.5a29.46 29.46 0 0 0 -12 3.5 31.48 31.48 0 0 0 -10 9q-4.5 6-10.5 18l-98 339q-11 38-11 55a199.24 199.24 0 0 0 5.5 47.5 164 164 0 0 0 18.5 44.5l153 258q9 14 18 25.5a89.89 89.89 0 0 0 19 18.5q11 8 30.5 14.5t49.5 10.5zm1879-1282v443a50.69 50.69 0 0 1 -7 26q-7 12-21 19l-590 288q-5 5-20 5a44.43 44.43 0 0 1 -14-2 108.59 108.59 0 0 1 -14-6l-143-85-129 59 4 5q6 6 6 24l-5 22-197 444q-9 19-24 26l-338 156-22 6-483-61q-24-3-37-24l-250-420q-8-14-8-25l2-15 154-523q8-29 37-35l4-3 358-159 30-4 489 88 158-67-3-111q0-22 20-37l329-250 15-7 288-96 15-3q15 0 31 13l346 271q19 18 19 38z"/></svg>