<svg viewBox="0 0 1933 1933" xmlns="http://www.w3.org/2000/svg"><path d="m1738 1023 56-56-56-56h-1546l-56 56 56 56zm-187 189 111-112h-1393l112 112zm-190 189 112-112h-1014l111 112zm-189 189 112-111h-637l112 111zm-189 190 111-112h-257l111 112zm-602-1058-112 112h1393l-111-112zm189-190-111 112h1014l-112-112zm189-189-112 113h637l-112-113zm189-188-111 112h257l-111-112zm985 812q0 22-18 40l-909 911a62.28 62.28 0 0 1 -41 15q-26 0-39-15l-910-911a56.8 56.8 0 0 1 -12-17q-4-9-4-23 0-25 16-41l910-910q16-16 39-16 25 0 41 16l909 910q10 10 14 20.5a57.29 57.29 0 0 1 4 20.5z"/></svg>