<svg viewBox="0 0 2300 2269" xmlns="http://www.w3.org/2000/svg"><path d="m2251 0q49 0 49 30 0 14-14 26.5t-40 29.5l-23 15a120.57 120.57 0 0 0 -20.5 16.5q-9.49 9.5-19.5 18a135.48 135.48 0 0 1 -20.5 14.5q-10.5 6-24.5 6-24 0-24-28 4-22 51-75 48-53 86-53zm-195 156 22-4q23 0 23 23 0 8-8 18l-31 34q-20 24-41 24l-11-8q-6-10-6-18t4.5-18a105.94 105.94 0 0 1 12-20 145.34 145.34 0 0 1 16.5-18.5 60.44 60.44 0 0 1 19-12.5zm-33 167q0 8-8 16t-22.5 15.5a219.19 219.19 0 0 1 -33 13.5 184.11 184.11 0 0 1 -39.5 8q-104 10-120 94-11 54-62 54-29 0-78-29-47-29-74-29a61 61 0 0 0 -28.5 7 61 61 0 0 1 -28.5 7l-41-11q-14 0-14 11 0 10 9.5 16t20.5 12a145.24 145.24 0 0 1 20.5 13.5q9.5 7.5 9.5 21.5 0 10-4 14.5a19.34 19.34 0 0 1 -10 6 43.78 43.78 0 0 1 -13.5 1 58.73 58.73 0 0 0 -13.5.5q-17 3-35 18a106.19 106.19 0 0 1 -19.5 11 52.22 52.22 0 0 1 -20.5 4q-12 0-19-7t-5-21l2-37q2-15-16-34-18-20-17-42l2-22q5-26 55-48 8-5 8-11l-4-21q0-21 15.5-27.5t51.5-6.5q31 0 53-61a544.31 544.31 0 0 0 18-62 206.91 206.91 0 0 0 5-60l-5-70q-1-5 1.5-16t6.5-28q9-5 25.5-8t40.5-3a55.08 55.08 0 0 1 28.5 8q13.5 8 21.5 25 7 14 24.5 34t48.5 47q30 27 62 44t64 22l8 1q14 0 37-15 22-15 35-15 28 0 28 26 0 13-13 30-12 18-12 36 0 20 8 30l14 9q12 6 19 10a74.66 74.66 0 0 1 10 6.5c2 1.67 3.17 3.33 3.5 5a34.56 34.56 0 0 1 .5 6.5zm-1270 1329q0 24-11.5 34.5t-25.5 23.5q-11 11-24 23t-30 12q-13 0-28-16-19-17-34-17-23 0-34 14.5a163.24 163.24 0 0 0 -19 32.5 267.9 267.9 0 0 1 -17 32.5q-9 14.51-27 14.5-53 0-53-77 0-58 28-85 14-13 23.5-19.5a93.09 93.09 0 0 1 15.5-9q6-2.51 9-2.5h3q11 0 24 6t25 6q31-4 47-25 14-19 37-19 49 0 70 21t21 50zm911-773q0 32-8 51l-20 48q-15 35-56 64-20 14-30.5 28t-9.5 30l3 61q1 42-30 75-31 32-31 87a129.24 129.24 0 0 0 5.5 38 119.4 119.4 0 0 1 5.5 35q0 25-28 58-28 30-54 31-68 4-132 35-17 8-40.5 12.5t-54.5 7.5l-31 7-36 5h-14l-15-1q-22-1-38-25-13-21-27-21a23.7 23.7 0 0 0 -18.5 8.5 28.63 28.63 0 0 0 -7.5 19.5q0 9 15 24 14 14 14 26 0 23-50 56l-19 12q-31 20-58 31t-53 11a83 83 0 0 1 -25.5-4 76 76 0 0 1 -23-12 63.5 63.5 0 0 1 -17-19.5 51 51 0 0 1 -6.5-25.5 42.85 42.85 0 0 1 4-18.5 144.93 144.93 0 0 1 9.5-17 144.93 144.93 0 0 0 9.5-17 42.85 42.85 0 0 0 4-18.5q0-35-46-35a120.32 120.32 0 0 0 -69 21l-18 10a128.93 128.93 0 0 1 -24 4q-13 1-28 1h-17q-44 0-93 33-20 12-45 12-139 0-139-56a62 62 0 0 1 3.5-21.5q3.5-9.49 12.5-18t25-15.5a436.5 436.5 0 0 1 41-15q68-20 114-90 10-16 37-16a119.72 119.72 0 0 1 31.5 4.5q16.5 4.5 39.5 4.5a352.16 352.16 0 0 0 72-7.5 342.83 342.83 0 0 1 70-7.5q32 0 55 10 11 3 15.5 13t16.5 11q44 0 53-43l4-21q3-16 42-44 36-24 39-45l4-37q9-79 85-79 24 0 24 12 0 14-16 36-8 11-12.5 18.5a29.75 29.75 0 0 0 -4.5 15.5q0 15 18 15 38 0 112-59 38-30 66-62a499.73 499.73 0 0 0 48-64l23-37q25-38 38-68.5t13-54.5a86.24 86.24 0 0 0 -10.5-41.5q-10.5-19.5-10.5-39.5 0-21 18-50a226 226 0 0 0 22-44q8-22 14-44 2-7 10-16a78.27 78.27 0 0 1 20.5-16 153.39 153.39 0 0 1 28-12 102.08 102.08 0 0 1 31.5-5q23 0 39 8t24 33a108 108 0 0 1 5 21q2 13 4 27a191.69 191.69 0 0 0 6 27.5 68.29 68.29 0 0 0 12 23.5q7 9 17.5 22a245.34 245.34 0 0 1 20 29 198.53 198.53 0 0 1 16 34 105.46 105.46 0 0 1 6.5 36zm-1272 773-7 28q0 13 18 26 19 13 19 26 0 22-31 50-22 20-42.5 52.5t-35.5 77.5l-10 29a79.64 79.64 0 0 1 -13.5 24 128 128 0 0 1 -22.5 22 120.56 120.56 0 0 1 -27.5 16q-14.5 6-27.5 6a56.84 56.84 0 0 1 -29.5-8 76.57 76.57 0 0 1 -23-21 98.6 98.6 0 0 1 -14.5-29 106.88 106.88 0 0 1 -5-32 127.8 127.8 0 0 1 8.5-45.5 130.45 130.45 0 0 0 8.5-46.5q0-22-30-45-30-21-30-79a103.71 103.71 0 0 1 11-47 118.39 118.39 0 0 1 30-38q19-16 45-25.5a159.07 159.07 0 0 1 55-9.5q35 0 67 19l24 9q63 24 63 41zm-223 431 8-1q17 0 17 22a33.39 33.39 0 0 1 -2.5 13q-2.5 6-5.5 14l-13 25a160.42 160.42 0 0 1 -20 32q-12 15-32 27l-19 16q-34 38-74 38-28 0-28-23a44.22 44.22 0 0 1 2.5-15 78.75 78.75 0 0 1 7.5-15l13-27q18-66 64-66 22 0 32-4a47 47 0 0 0 16-10q6-6 12.5-13t21.5-13z"/></svg>