<svg viewBox="0 0 1956 1977" xmlns="http://www.w3.org/2000/svg"><path d="m1383 1483q20 0 38-23 19-23 19-39 0-11-16-33t-47-57l-147-168-76-94q-11-14-36.5-43.5t-69.5-77.5q-16-16-36-16-14 0-29 11.5a156.29 156.29 0 0 0 -27 26.5 161.86 161.86 0 0 0 -19.5 30.5q-7.5 15.5-7.5 22.5 0 18 16.5 39t46.5 50l350 346 17 17zm573 168q0 85-26 85-17 0-76-53-32-28-61.5-43t-55.5-13l-60 4q-46 3-46 45v23q0 33 2.5 54.5t9.5 31.5q7 11 26 26t50 36q58 39 58 61 0 16-12 29t-33.5 22q-21.49 9-51 13.5a436.42 436.42 0 0 1 -65.5 4.5q-79 0-153-56-37-29-60-64a210.46 210.46 0 0 1 -31-77 785.29 785.29 0 0 0 -24.5-97.5 192.4 192.4 0 0 0 -47.5-77.5l-181-188q-75-77-147.5-151t-144.5-144q-28-28-60-40.5a179.92 179.92 0 0 0 -66-12.5h-7q-20 5-57 7.5t-93 2.5q-163 0-279-52t-190-179q-74-125-74-287 0-94 16-122 18-28 33-28 13 0 27.5 11t25.5 19l54 43 157 126q20 16 37 24.5t34 8.5q36 0 200-55 34-10 34-45v-52q0-118-13-152-8-16-32-43.5t-67-66.5l-130-119q-30-22-30-46 0-28 63-46t152-18q141 0 264 78 124 78 181 206t57 308q0 51 2.5 96.5a362 362 0 0 0 15.5 87.5 318.25 318.25 0 0 0 13.5 37 144.13 144.13 0 0 0 18.5 31l51 66q15 20 110 128t270 308q37 34 151 34t187 81q37 41 55.5 87.5t18.5 102.5z"/></svg>