<svg viewBox="0 0 2158 2143" xmlns="http://www.w3.org/2000/svg"><path d="m217 1775q0 24 23 41t72 14l98-5 90-5a484.83 484.83 0 0 1 54.5 1 471 471 0 0 1 47.5 6q108 19 216 37.5a1301 1301 0 0 0 220 18.5q71 0 154.5-6t179.5-25l90-18q91-18 158.5-32.5t113.5-11.5l153 11q21 2 36.5-10.5t15.5-30.5a47.37 47.37 0 0 0 -6-23q-106-109-301-172a1020.66 1020.66 0 0 1 -184 109q-16-5-131-16-57-5-110-8t-105-3a1819.83 1819.83 0 0 0 -185 9 1224.15 1224.15 0 0 0 -169 29 842.59 842.59 0 0 1 -212-123q-95 27-207 92-112 64-112 121zm188-718q25 0 38-16 8-9 19-29t26-52q45-96 140-96 55 0 135 43l67 35q69 37 157 57t199 20q140 0 283-55 144-55 217-142t73-196q0-131-93-251-93-121-259-199-164-78-323-78-208 0-377 103-172 103-268 284a794.29 794.29 0 0 0 -72.5 191.5q-23.5 99.5-23.5 209.5 0 49 3.5 82t11 52.5q7.5 19.5 19.5 28t28 8.5zm1351 126q0-33-17.5-48t-42.5-15q-18 0-38 9t-44.5 29q-24.49 20-55.5 52t-70 78a504.15 504.15 0 0 1 -117.5 100q-66.49 41-151.5 64-16 5-59 9t-114 9q-108 9-108 37 0 24 71 39 36 7 71 11a615.23 615.23 0 0 0 70 4 743.69 743.69 0 0 0 140-13 803 803 0 0 0 136-39q138-53 233-148 97-97 97-178zm402 662q0 36-141 122t-351 131q-212 45-561 45-86 0-179.5-4.5t-199.5-12.5q-104-9-191.5-23t-158.5-34q-72-20-133.5-48.5a1152.16 1152.16 0 0 1 -118.5-63.5q-62-38-93-65t-31-47q0-26 56-59l19-15 27-37q18-24 37.5-48a432.4 432.4 0 0 1 43.5-46q48-45 146-96 102-52 122-57-118-120-185.5-275.5t-67.5-336.5q0-233 119-438 119-203 324-320 207-117 445-117 235 0 438 115 102 57 183 136t142 181q123 204 123 443 0 182-68 338.5a891.53 891.53 0 0 1 -189 277.5l86 38q91 40 154 91.5t101 113.5q20 35 48 52 32 22 43 34.5t11 24.5z"/></svg>