<svg viewBox="0 0 1876 2113" xmlns="http://www.w3.org/2000/svg"><path d="m371 117q-38 0-75 29-37 28-37 66 0 15 11 15l104-44q23-7 36.5-11.5a210.4 210.4 0 0 0 20-7.5q6.5-3 8.5-6a10.78 10.78 0 0 0 2-6q0-14-22.5-24.5a111 111 0 0 0 -47.5-10.5zm-272 613q0 75 5.5 147.5t11 145.5q5.5 73 8.5 146t-1 149l-6 135q-2 44-4.5 87.5t-2.5 87.5q2 15 12 15 5 0 44-50l60-78q20-20 31-42a207.18 207.18 0 0 0 16.5-45.5 287.85 287.85 0 0 0 7-48.5q1.5-25 1.5-51 0-107-15.5-205.5t-33.5-198.5q-24-131-36.5-236t-12.5-186q0-32-7-32c-3.33 0-5.67 1.33-7 4q-44 61-57.5 122t-13.5 134zm433 1285q100 0 206-18.5t221-54.5q227-72 412-201 93-65 166.5-133t128.5-142q57-74 84-139.5t27-122.5q0-86-72-130t-212-44q-104 0-233 27a327.48 327.48 0 0 1 80.5 116 375 375 0 0 1 20.5 67.5 338.74 338.74 0 0 1 7 67.5q0 71-24.5 133t-75.5 116q-50 53-112.5 78t-137.5 27q-76 2-140.5-27.5t-112-79a363 363 0 0 1 -74-113.5 341.87 341.87 0 0 1 -26.5-132v-18q-109 64-196.5 133.5t-159.5 144.5q-140 149-140 271 0 80 101 127 98 47 262 47zm1344-816q0 186-196 405-196 218-520 364-321 145-628 145-249 0-385-109-136-108-136-364 0-47 2-89t5-81q3-39 5-76.5t2-76.5q0-74-4-147t-8.5-146q-4.5-73-8.5-146t-4-148a728.81 728.81 0 0 1 15-145q16-72 44-120 14-24 38-56.5t58-74.5q-21-48-21-96 0-49 17.5-90t51.5-77q67-71 168-71 73 0 132 39t87 108q135 3 249 58 116 55 264 206 94 97 173.5 167.5t146.5 117.5q140 97 229.5 169.5t134.5 123.5q89 101 89 210z"/></svg>