<svg viewBox="0 0 1846 1845" xmlns="http://www.w3.org/2000/svg"><path d="m117 981h1611l3-58-3-55h-1611l-3 55zm37 188h1539q7-18 13-46t14-66h-1594q8 38 14 66t14 46zm88 189h1360q17-28 32.5-55.5t29.5-56.5h-1482q11 27 25.5 55a530.61 530.61 0 0 0 34.5 57zm167 190h1026a852.74 852.74 0 0 0 113-112h-1251a888.32 888.32 0 0 0 112 112zm513 184q212 0 400-107h-799q187 107 399 107zm772-1052h-1543q-6 21-12.5 49t-13.5 63h1595q-8-35-14-63t-12-49zm-89-189h-1365q-18 30-33 57.5t-28 53.5h1486q-23-55-60-111zm-166-190h-1032a852.74 852.74 0 0 0 -113 112h1256q-51-65-111-112zm-517-186q-108 0-208 27.5t-197 81.5h810q-96-54-196-81.5t-209-27.5zm924 808q0 137-37.5 265t-118.5 248q-66 98-151.5 172.5a1016.91 1016.91 0 0 1 -185.5 128.5q-100 55-207 81.5t-224 26.5q-247 0-462-127-216-128-338-334-122-208-122-461 0-245 129-461 129-217 339-339 211-123 454-123 249 0 465 127 215 125 337 338 122 212 122 458z"/></svg>