<svg viewBox="0 0 1898 2277" xmlns="http://www.w3.org/2000/svg"><path d="m969 1667q0-59-63-59-72 0-146 55-76 55-76 115 0 26 16.5 44t45.5 18l56-9q15 0 15 77t15 77q6 0 16-2.5a61.15 61.15 0 0 0 34.5-23.5 34.94 34.94 0 0 0 6.5-21l-1-111q0-40 10-46 71-58 71-114zm64-628q8 27 13.5 44.5t9.5 29.5a157.23 157.23 0 0 1 5.5 20 77.22 77.22 0 0 1 1.5 14q0 51-36 78.5t-95 27.5q-27 0-49-8t-40.5-27q-18.5-19-35-50.5t-32.5-78.5l-41 17-91 39q-63 27-129.5 59.5t-135.5 70.5q-137 75-208 142t-71 124a83.19 83.19 0 0 0 13 45.5q13 20.51 36 35.5t54.5 23.5q31.5 8.5 68.5 8.5 102 0 260-66 79-33 195-96t269-159q83-51 129-103t46-94q0-29-12-47.5t-20-23.5q-29-23-105-26zm389-1039q234 0 355 132.5t121 389.5a1110.71 1110.71 0 0 1 -13.5 173.5 1580.59 1580.59 0 0 1 -33.5 160.5q-11 38-22 72t-23 65q-12 30-25 48.5t-27.5 28.5a85.19 85.19 0 0 1 -31.5 13.5 189.29 189.29 0 0 1 -38 3.5 112.46 112.46 0 0 1 -37.5-6.5 128.07 128.07 0 0 1 -33.5-17.5 95.32 95.32 0 0 1 -24.5-26 58.81 58.81 0 0 1 -9.5-32q0-15 6-56t17-109q11-69 16.5-125.5t5.5-104.5q0-294-228-293-85 0-160.5 26t-132 78.5q-56.5 52.5-88.5 133t-30 189.5q2 48 6.5 97a838.19 838.19 0 0 0 15.5 100l10-2q54-2 99.5 12t79.5 39.5q34 25.5 52.5 60a153.28 153.28 0 0 1 18.5 73.5l1 14q0 71-1.5 159.5t-3.5 194.5q-2 106-4.5 176.5t-6.5 106.5a375.19 375.19 0 0 1 -19.5 83.5 434.72 434.72 0 0 1 -36 76.5 420.8 420.8 0 0 1 -48.5 66 376.26 376.26 0 0 1 -57 52q-152 110-295.5 167t-286.5 57q-103 0-178-42.5t-126-137.5q-26-48-55-116t-64-158q-34-90-52-143t-23-72q-5-20-8-37.5a204 204 0 0 1 -3-34.5q0-132 185-257 94-63 219.5-131.5t290.5-132.5l49-19q-24-84-36.5-158.5t-12.5-141.5q0-166 51.5-297.5t153.5-223.5a629.58 629.58 0 0 1 112.5-79.5 691.31 691.31 0 0 1 127-54.5 849.33 849.33 0 0 1 137.5-31 1038 1038 0 0 1 145-10zm-1037 1406a77 77 0 0 1 41.5 11.5q18.5 11.5 18.5 34.5a77.08 77.08 0 0 1 -12 42 115.6 115.6 0 0 1 -32 33 154.92 154.92 0 0 1 -45.5 21.5 185.09 185.09 0 0 1 -52.5 7.5q-65 0-65-46 0-38 45-71 46-33 102-33z"/></svg>