<svg viewBox="0 0 2306 1330" xmlns="http://www.w3.org/2000/svg"><path d="m1654 679q48 0 48-35 0-12-43-75l-94-138q-17-25-42-74t-61-120q-39-80-65-80-25 0-57 29-30 30-56 30-21 0-56-27t-68-27q-13 0-43 26t-46 26q-21 0-58-29-34-28-49-28-36 0-54 47-32 78-93 177t-136 220q-14 23-14 39 0 35 46 35 44 0 116-21 36-11 65-15.5t51-4.5q20 0 52.5 9t78.5 29q90 38 140 38a144.7 144.7 0 0 0 43-6.5 284.64 284.64 0 0 0 43-17.5q41-23 78-33t70-10a318.32 318.32 0 0 1 38.5 2.5 332.63 332.63 0 0 1 43.5 8.5q45 12 75.5 18.5t46.5 6.5zm652 506q0 53-49 90t-109 37q-64 0-148-36-85-35-132-35-48 0-151 42-104 43-177 43-69 0-171-43-102-42-160-42a255.36 255.36 0 0 0 -83 14q-41 14-86 30.5t-96 30.5q-51 14-114 14t-101.5-14q-38.5-14-66-30.5t-52-30.5q-24.5-14-59.5-14t-74 11.5q-39 11.51-88 25t-111.5 24.5q-62.5 11-143.5 11-50 0-93-35-41-34-41-81 0-59 70-116 75-63 143.5-130.5t133.5-140.5q66-74 132-163t135-193q70-104 111.5-172.5t55.5-102.5q36-86 69-125t70-39q31 0 62 23 33 25 49 25 21 0 58-31 33-30 63-30 28 0 44.5 11a189.25 189.25 0 0 1 29 23.5q12.5 12.5 24.5 23.5t30 11q20 0 32.5-13t23.5-25q31-33 74-33 82 0 162 157 60 119 113 214t100 167q47 72 105 148t128 158q69 82 129.5 144t110.5 107q48 42 48 90z"/></svg>