<svg viewBox="0 0 2062 2335" xmlns="http://www.w3.org/2000/svg"><path d="m228 447 94 3q11-132 16.5-215t5.5-119a124.8 124.8 0 0 0 -1-16.5 25.42 25.42 0 0 0 -5.5-13q-4.5-5.5-13.5-9t-26-3.5l-19 4q-20 44-51 369zm465 34 93 13q9-109 14-192t5-142q0-14-1-24.5t-5.5-17q-4.5-6.5-13.5-9t-26-1.5l-17 1-4 2q-3 9-9 44.5t-14 98.5q-8 63-13.5 119.5t-8.5 107.5zm977 1375q0 68 23.5 122.5t52.5 93.5q29 39 54.5 61t29.5 23q42 29 42 81a87.88 87.88 0 0 1 -8.5 38 111.46 111.46 0 0 1 -22 31.5 96.63 96.63 0 0 1 -31.5 21 93 93 0 0 1 -36 7.5q-17 0-30-4a95.85 95.85 0 0 1 -25-12q-4-3-24-18.5t-47-43q-27-27.49-57.5-66.5t-56.5-89.5q-26-50.51-43-112t-17-133.5q0-102 22-193 11-46 25.5-90t33.5-89q19-45 51.5-103.5t77.5-131.5q45-72 74-125.5t45-88.5q64-142 64-266 0-103-46.5-159.5t-126.5-56.5q-66 0-130.5 40.5t-109.5 110.5a484.67 484.67 0 0 0 -39 74 860.38 860.38 0 0 0 -31 86q-14 47-22.5 122.5t-13.5 181.5q-19 400-101 620-81 219-223.5 333t-331.5 114q-206 0-330-109-63-56-93.5-129.5t-30.5-164.5a568.1 568.1 0 0 1 7.5-90.5q7.5-46.5 20.5-97.5l15-57q12-44 21-88.5t14-92.5a192 192 0 0 1 -28-10.5 98.47 98.47 0 0 1 -25-16.5 74.42 74.42 0 0 1 -17.5-24q-6.5-14-5.5-35l4-68q2-18-3-29.5t-13-16.5q-228-108-228-534v-52q0-36 3.5-61.5t11.5-40.5q16-30 55-49t85-22q3-35 8-78t11-86.5q6-43.5 12.5-84.5t11.5-73.5q5-32.5 8.5-52t3.5-20.5q20-52 88-52 120 0 120 116 0 36-4 97.5t-11 151.5l-7 89q55 3 110.5 7.5t114.5 11.5q1-36 5.5-78t9.5-85q5-43 10.5-83t10.5-71q5-31 8-50t3-20q21-52 91-52 66 0 92.5 32t26.5 94q0 47-5 134t-14 218q67 22 84 54 10 17 14 46.5t4 71.5q0 188-80 346-81 156-203 205l-14 10q-29 13-35 70-7 67-18 82-9 13-33.5 24.5t-66.5 16.5q-12 101-42 212-36 90-36 182 0 98 65.5 153t194.5 55q166 0 275.5-140.5t152.5-422.5q11-66 17.5-149t12.5-186q5-91 11-151t11-91a934 934 0 0 1 33-125q21-62 58-133 66-129 184-207 121-79 249-79 160 0 263 115 102 114 102 300 0 120-39.5 244.5t-121.5 255.5q-133 213-182 335t-49 250z"/></svg>