<svg viewBox="0 0 2262 1645" xmlns="http://www.w3.org/2000/svg"><path d="m1552 994q130 0 205-90 76-91 76-227 0-27-2-52.5a465.1 465.1 0 0 0 -7-51.5q-11-53-33-137l-506 369q16 81 97 136 80 53 170 53zm-118 245-5-18q-2-1-16.5-19t-43-39q-28.5-21-73-38t-105.5-17q-72 0-122.5 16.5t-82.5 36.5q-32 20-47 37.5t-15 18.5q-6 6-6 18 0 11 7.5 21t22.5 10q17 0 26-13 78-82 215-82 49 0 84 12.5t57.5 28q22.5 15.49 33.5 29t13 14.5q8 16 26 16 9 0 20-8t11-24zm-959-550q0 72 19.5 131t56 100q36.5 41 89 63.5t118.5 22.5q89 0 167-53 82-55 100-135l-498-368q-26 71-39 130t-13 109zm1787 631q0 41-1 68.5t-3 42.5q-22 29-79 57.5t-149 54.5q-91 26-200.5 45.5t-238.5 32.5q-129 13-239 18.5t-205 5.5q-103 0-206-3t-209-10q-105-8-190-18t-152-26q-133-32-227.5-70t-153.5-96a620.45 620.45 0 0 1 -9-106q0-117 32.5-220.5t89.5-206.5a883.93 883.93 0 0 1 126.5-176.5 999.23 999.23 0 0 1 76-74q40.5-35.5 87.5-71.5 17-99 40.5-151t48.5-52q9 0 30 12l-108-263a86.32 86.32 0 0 1 -7-33 72.89 72.89 0 0 1 6-29 90.54 90.54 0 0 1 16.5-25.5 79.72 79.72 0 0 1 25.5-18.5 77 77 0 0 1 33-7q26 0 45 12t30 38l151 361q170-56 385-56 129 0 241 14.5t208 43.5l131-360q21-53 76-53a77 77 0 0 1 33 7 90.6 90.6 0 0 1 26 18 76.51 76.51 0 0 1 17 26 82.73 82.73 0 0 1 6 31l-4 27-102 275q61-41 69-41 14 0 27 18.5t25 52.5q12 34 22.5 80.5t18.5 102.5q37 30 71.5 60.5t67 65a847.92 847.92 0 0 1 63 75.5q30.49 41 58.5 94a881.46 881.46 0 0 1 47.5 103 724.19 724.19 0 0 1 30.5 100q22 95 22 225z"/></svg>