<svg viewBox="0 0 2264 1467" xmlns="http://www.w3.org/2000/svg"><path d="m1382 1262q28 0 49.5-12.5t21.5-41.5q0-69-112-115-112-47-251-47-77 0-167 44-66 33-102 33t-111-22q-75-22-114-22-61 0-136 48-74 46-74 101 0 26 21.5 40.5t49.5 14.5q24 0 40-8.5a104.46 104.46 0 0 0 28-21.5 209.39 209.39 0 0 0 22-28.5 159.91 159.91 0 0 1 23.5-28.5 114.73 114.73 0 0 1 32-21.5q18.5-8.5 47.5-8.5 17 0 41.5 4t58.5 13a528.37 528.37 0 0 0 53 12q24 4 41 4 44 0 101-27 56-26 111-26a310.61 310.61 0 0 1 63.5 7 462.47 462.47 0 0 1 67 19.5 489 489 0 0 1 66 30.5 522.84 522.84 0 0 1 60.5 39q28 20 69 20zm-974-305a25.58 25.58 0 0 0 10 21q10 8 21 8l10-1q70-24 111-73t41-107q0-30-32-30-30 0-30 32 0 34-30 68t-79 51q-22 6-22 31zm493-227q0 26 59 63t143 37q113 0 113-44 0-15-9.5-23a32.49 32.49 0 0 0 -21.5-8q-5 0-26 6.5t-58 6.5q-86 0-146-60-10-9-22-9t-22 9.5q-10 9.5-10 21.5zm1363 402q0 74-7 91-42 51-141 94t-240 78q-71 17-164.5 30.5t-213.5 22.5q-120 10-231 14.5t-215 4.5a4199.51 4199.51 0 0 1 -570-39q-144-20-243-45.5t-158-54.5q-46-23-73-53-4-27-6-60.5t-2-74.5q0-215 85-384 86-172 293-339l-236-249q-23-24-23-56 0-33 24.5-57t57.5-24q36 0 59 25l258 272q248-145 646-145 305 0 556 131l246-286q24-28 63-28a73.76 73.76 0 0 1 32.5 7 81.35 81.35 0 0 1 25 18.5 90.54 90.54 0 0 1 16.5 25.5 72.89 72.89 0 0 1 6 29q0 32-19 54l-228 265 60 49 37 34a934.71 934.71 0 0 1 121 136.5q55 75.5 98 169.5 86 187 86 344z"/></svg>