<svg viewBox="0 0 1994 1562" xmlns="http://www.w3.org/2000/svg"><path d="m1925 569v-53q0-26-7-26l-5-2q-8 0-8 26v60q0 25 8 25 12-6 12-30zm-35 8v-64q0-32-11-34l-10-2q-11 0-11 32v76q0 30 12 30l9-2q11-6 11-36zm-56 14v-85q0-39-20-44l-16-4q-8 0-15 11.5t-7 31.5v104q0 17 6.5 28t14.5 11l4-1 13-6q20-7 20-46zm-95 18v-114a99.19 99.19 0 0 0 -8.5-41q-8.51-19-22.5-23l-21-6-7-1q-13 0-22 15.5t-9 39.5v141q0 24 8.5 40t24.5 16l5-2 21-4q14-2 22.5-21.5a98 98 0 0 0 8.5-39.5zm-1457 380q0-36-16-56.5t-40-20.5q-32 0-60 39-27 36-27 79 0 32 14.5 53.5t39.5 21.5a64.74 64.74 0 0 0 35-10 103.37 103.37 0 0 0 28-26 129.38 129.38 0 0 0 19-37 135 135 0 0 0 7-43zm595 94q0-29-16.5-48.5t-46.5-19.5q-48 0-87 42-38 42-38 87 0 32 17.5 48t43.5 16a95.18 95.18 0 0 0 25-3 89.73 89.73 0 0 0 20-8 148.24 148.24 0 0 0 30.5-20.5 172.71 172.71 0 0 0 26-28 155.79 155.79 0 0 0 18.5-32 85 85 0 0 0 7-33.5zm702-457v-160q0-29-14-57-7-14-15.5-22a81.6 81.6 0 0 0 -19.5-13.5 124.06 124.06 0 0 0 -24.5-9q-13.5-3.5-29.5-7.5-23 0-38 21t-15 56v214q0 38 17 60t42 22l48-13q22-7 35.5-32.5t13.5-58.5zm-984 839q370 0 716-285l683-560v27l-589 579-34 35q-71 74-144.5 131a820 820 0 0 1 -154.5 95q-82 38-191 56.5t-249 18.5q-146 0-259.5-23t-194-66.5q-80.5-43.5-125.5-106t-53-142.5a294.74 294.74 0 0 0 47.5 68q29.5 32 71.5 58 43 27 97.5 48.5t123.5 36.5a1145.57 1145.57 0 0 0 132 23 1112.87 1112.87 0 0 0 123 7zm589-1022 2-18v-17q0-50-17.5-79.5t-44.5-29.5q-24 0-52.5 20t-56.5 39a204.2 204.2 0 0 1 -36.5 19.5 185.26 185.26 0 0 1 -40 11 340.21 340.21 0 0 1 -48 4q-26.5.5-59.5-.5l-92-2q-45-2-70.5-9.5t-34.5-24.5l-10-39q-2-18-15-18-25 0-68 42-42 39-81 127-40 88-40 156 0 77 62 109 63 32 138 40a1471.9 1471.9 0 0 0 156 8q131 0 205-38a335.34 335.34 0 0 0 70.5-49 399.06 399.06 0 0 0 60.5-68.5 418.29 418.29 0 0 0 45.5-84.5 441.72 441.72 0 0 0 26.5-98zm810 90v62q-230 172-403.5 304.5t-294.5 228.5q-178 141-349.5 209.5a949.85 949.85 0 0 1 -355.5 68.5 1089.09 1089.09 0 0 1 -139-9 1075.1 1075.1 0 0 1 -141-28q-141-37-220-101.5t-88-152.5l2-7a847.45 847.45 0 0 1 22-88 503.89 503.89 0 0 1 33-81 538.66 538.66 0 0 1 48-76.5 634.89 634.89 0 0 1 66-74.5q47-45 81-82t56-65q45-55 67-119 102-286 242-403 140-119 361-119a776.42 776.42 0 0 1 189 23 732.33 732.33 0 0 1 92 28q45 17 90 39t117.5 61.5q72.5 39.5 169.5 102.5l314 204q20 14 30.5 31.5t10.5 43.5z"/></svg>