<svg viewBox="0 0 2158 1325" xmlns="http://www.w3.org/2000/svg"><path d="m1613 823-119-158q-68 65-86 158zm-189-253-83-112-171 365h120q23-150 134-253zm-176-161h-413l243 361zm473 801q133 0 226-93 94-94 94-227 0-131-94-225-93-95-226-95-72 0-141 33l180 242q9 13 9 32 0 21-15 36.5t-37 15.5h-313q7 60 32.5 111t71.5 91q46 41 99.5 60t113.5 19zm-964-320q0-131-92-224-69 145-169 245-25 34-57 34-21 0-38.5-15.5t-17.5-39.5q0-29 28-45l7-5q101-101 160-237-69-33-141-33-132 0-227 95-93 92-93 225 0 135 93 227 92 93 227 93 133 0 225-93 95-95 95-227zm964-436q180 0 308 128 129 129 129 308 0 184-129 309-129 126-308 126-172 0-297-115-126-117-138-281h-121l-16 72q72 0 72 56 0 57-95 55l-56-1h-20q-24 0-41.5-8t-17.5-40a48.89 48.89 0 0 1 7-25 70.83 70.83 0 0 1 19-21 93 93 0 0 1 27.5-14 105.3 105.3 0 0 1 32.5-5l11 2 12-71h-13l-16-2a127.51 127.51 0 0 1 -17-10 37.55 37.55 0 0 1 -11-12l-301-447-30 94a463.17 463.17 0 0 1 117.5 148.5q43.5 86.5 43.5 189.5 0 184-128 309-129 126-308 126t-308-126q-129-125-129-309 0-180 128-308t309-128a408 408 0 0 1 93 10.5 503.09 503.09 0 0 1 90 30.5q17-48 34.5-114.5t31.5-153.5q7-46 16.5-79.5t22-56q12.5-22.5 28-36a123.2 123.2 0 0 1 35.5-21.5 106.62 106.62 0 0 1 28.5-19 148.28 148.28 0 0 1 35-10.5 289.24 289.24 0 0 1 45-4q25.5-.5 58.5-.5 78 0 90 9 16 8 26 27t10 36a64 64 0 0 1 -7 29q-7 14-22.5 25t-39.5 17.5q-24 6.5-57 6.5h-50l-54 3q-21 1-35-11a39.32 39.32 0 0 0 -5.5 7 56.37 56.37 0 0 0 -4.5 9l-29 145h442a289.37 289.37 0 0 1 -43.5-7 156.41 156.41 0 0 1 -36.5-13.5q-16-8.5-25.5-20.5a42.4 42.4 0 0 1 -9.5-27q0-25 18-46t44-24q35-4 72.5-10.5t74.5-12.5q37-6 73-10.5a556.8 556.8 0 0 1 69-4.5 74.71 74.71 0 0 1 32 7 88 88 0 0 1 26.5 19 97.33 97.33 0 0 1 18.5 27.5 80.37 80.37 0 0 1 7 33.5q0 45-38 74-37 30-81 30h-17l-20-1v22l126 170q97-55 212-55z"/></svg>