<svg viewBox="0 0 2262 1680" xmlns="http://www.w3.org/2000/svg"><path d="m474 763-3 13q0 11 8 21t23 10q19 0 29-18 0-6 9-17.5a126.88 126.88 0 0 1 23.5-22.5 168.92 168.92 0 0 1 32-19 84.69 84.69 0 0 1 35.5-8q24 0 42 10a126.2 126.2 0 0 1 30 22.5q12 12.5 18.5 23t7.5 11.5q9 20 29 20 30 0 30-31l-2-15q0-6-25-37a212.65 212.65 0 0 0 -57-47q-32-18-74-18-40 0-69 15.5t-47.5 34q-18.5 18.5-28.5 35t-11 17.5zm1078 159q15 0 23-11a40 40 0 0 0 8-24q-12-78-60.5-124.5t-122.5-46.5q-54 0-103 31-49 30-49 53 0 13 10 22.5t23 9.5q12 0 22-10 21-22 45.5-32a169.84 169.84 0 0 1 52.5-12q30-1 52 12a125.74 125.74 0 0 1 36.5 32 150 150 0 0 1 22 39.5q7.5 20.5 8.5 33.5a30.39 30.39 0 0 0 11.5 19.5q9.5 7.5 20.5 7.5zm-148 257q0-54-34-83t-92-29q-15 0-31 1a197.93 197.93 0 0 0 -33 5q-61 11-114 17a891.13 891.13 0 0 1 -100 6q-151 0-247-48-38-20-63-31t-37-16q-27-8-48-8-57 0-87.5 38.5t-30.5 97.5q0 142 139 251 137 110 332 110 182 0 313-100 133-100 133-211zm858 169q0 49-2 84t-5 55a49.16 49.16 0 0 0 -6 7.5 82.57 82.57 0 0 1 -10 11.5q-7 7-20 15.5t-35 18.5q-128 63-405 102-139 20-275.5 29t-276.5 9q-139 0-277-7.5t-278-24.5q-280-31-447-85t-219-128q-4-5-5-25.5t-1-56.5a786.91 786.91 0 0 1 10.5-130.5 835.78 835.78 0 0 1 30-122 865.28 865.28 0 0 1 48.5-117.5q29-58 66-117a711.62 711.62 0 0 1 85.5-112 942.37 942.37 0 0 1 105.5-97 1284.85 1284.85 0 0 1 120-84q63-39 129-72l-49-411v-8q0-36 24-59t60-23q32 0 53 20.5t25 50.5l43 370a1181.34 1181.34 0 0 1 172.5-35.5 1414.72 1414.72 0 0 1 182.5-11.5q361 0 663 157l183-329q23-41 73-41a73.76 73.76 0 0 1 32.5 7 81.35 81.35 0 0 1 25 18.5 82.27 82.27 0 0 1 16 25.5 78.55 78.55 0 0 1 5.5 29 107.2 107.2 0 0 1 -2 21 65.22 65.22 0 0 1 -7 19l-190 342q84 69 162 155 78 84 136 224a801 801 0 0 1 44 152q15 80 15 174z"/></svg>