<svg viewBox="0 0 2146 1496" xmlns="http://www.w3.org/2000/svg"><path d="m481 1354a99.19 99.19 0 0 0 41-8.5 104.86 104.86 0 0 0 33-23 114.21 114.21 0 0 0 22.5-34 102.66 102.66 0 0 0 8.5-41.5 97.84 97.84 0 0 0 -9-41.5 116.82 116.82 0 0 0 -23.5-34 103.89 103.89 0 0 0 -33.5-22.5 99.68 99.68 0 0 0 -39-8 102.66 102.66 0 0 0 -41.5 8.5 114.21 114.21 0 0 0 -34 22.5 105.21 105.21 0 0 0 -23 116.5 108.32 108.32 0 0 0 57 57 102.66 102.66 0 0 0 41.5 8.5zm898 0a104.54 104.54 0 0 0 75-31.5 114.21 114.21 0 0 0 22.5-34 105.56 105.56 0 0 0 0-83 114.21 114.21 0 0 0 -22.5-34 97.14 97.14 0 0 0 -33.5-22.5 108.31 108.31 0 0 0 -41.5-8q-23 0-42 8.5a107 107 0 0 0 -33.5 23.5 109.75 109.75 0 0 0 -22.5 34 104.79 104.79 0 0 0 .5 81.5 109.41 109.41 0 0 0 23 34 111.11 111.11 0 0 0 33.5 23 99.19 99.19 0 0 0 41 8.5zm-56-1252v437h366v-437zm56 896q105 0 177 74t72 175q0 104-73 177-74 72-176 72-100 0-175-71-74-71-74-178 0-99 72-173 72-76 177-76zm-898 0q104 0 176 74 73 75 73 175 0 103-74 177-74 72-175 72t-175-71q-74-70-74-178 0-104 72-176 73-73 177-73zm1468-716h108a83.85 83.85 0 0 1 34 7 90.5 90.5 0 0 1 28 19 98.06 98.06 0 0 1 19.5 28 79.14 79.14 0 0 1 7.5 34v533a79.14 79.14 0 0 1 -7.5 34 96.85 96.85 0 0 1 -47.5 47.5 79.14 79.14 0 0 1 -34 7.5h-108a79.14 79.14 0 0 1 -34-7.5 105.39 105.39 0 0 1 -28.5-19.5 86.53 86.53 0 0 1 -19.5-28 83.85 83.85 0 0 1 -7-34v-533a83.85 83.85 0 0 1 7-34 86.53 86.53 0 0 1 19.5-28 96.88 96.88 0 0 1 28.5-19 83.85 83.85 0 0 1 34-7zm-1273-180-121 437h518v-437zm-253 383 142-485h1262v1172h-144q-27-105-111-171-83-67-193-67t-195 68q-84 69-108 170h-292q-23-100-109-170-85-68-194-68-110 0-196 68-85 68-109 170h-122v-85q-24-1-39-17t-15-37v-69q0-22 15-37.5t39-18.5v-241q0-41 13.5-74.5a163.15 163.15 0 0 1 38.5-57.5 173.76 173.76 0 0 1 59-37q34-13 76-13z"/></svg>