<svg viewBox="0 0 2264 1474" xmlns="http://www.w3.org/2000/svg"><path d="m509 819q58 0 105-53t47-121a130.53 130.53 0 0 0 -7-42.5 117 117 0 0 0 -19.5-36 89.64 89.64 0 0 0 -31-24.5q-18.5-9-41.5-9-55 0-104 54-49 52-49 121a121.43 121.43 0 0 0 8 44.5 114.8 114.8 0 0 0 21.5 35.5 92.56 92.56 0 0 0 31.5 23 95 95 0 0 0 39 8zm758 457a48 48 0 0 0 34.5-14q14.51-14 14.5-35 0-23-19-39-3-1-32-21.5t-77.5-46q-48.49-25.5-112-50a648.19 648.19 0 0 0 -134.5-35.5q-32-5-65-8t-68-3q-181 0-181 67 0 22 16 36t33 14l19-5q33-13 113-13 66 0 124 10a607 607 0 0 1 109 29q53 20 95 42a791.52 791.52 0 0 1 76 45l26 17q10 10 29 10zm433-149q35 0 57.5-25t22.5-61q0-48-44-86-17-15-35-34a490.37 490.37 0 0 1 -34-40q-16-21-29-42a241.52 241.52 0 0 1 -20-39q30-30 30-84 0-70-56-131-56-60-119-60-25 0-45 10a101.11 101.11 0 0 0 -33.5 26.5 114.64 114.64 0 0 0 -20.5 39 155.52 155.52 0 0 0 -7 46.5q0 75 53 131 54 57 116 57a119.86 119.86 0 0 0 23.5-2.5 130.27 130.27 0 0 0 24.5-7.5l12 43q7 24 11 43t4 33q0 16-6 40a197.25 197.25 0 0 0 -6 48q0 95 101 95zm564 11q0 37-2 59.5t-5 31.5q-36 50-149 98-56 23-120.5 43t-139.5 37q-146 33-388 51-121 9-222.5 12.5t-185.5 3.5q-93 0-186-3.5t-189-12.5q-95-9-179.5-20.5t-159.5-26.5q-149-29-229.5-64t-100.5-67q-8-43-8-135 0-110 16-184 9-38 17.5-67.5t17.5-53.5q9-24 18.5-45t20.5-44a740.1 740.1 0 0 1 51.5-92q29.5-45 58.5-77 15-17 30.5-32.5t32.5-31.5q34-32 115-100l-236-250q-23-24-23-56 0-33 24.5-57t57.5-24q33 0 59 26l258 272a1084.51 1084.51 0 0 1 136.5-64.5 1064.2 1064.2 0 0 1 149-45.5q78.5-18 167-26.5t190.5-8.5q308 0 559 132l246-288q24-28 63-28a73.76 73.76 0 0 1 32.5 7 81.35 81.35 0 0 1 25 18.5 90.54 90.54 0 0 1 16.5 25.5 72.89 72.89 0 0 1 6 29q0 32-19 54l-228 266q173 130 287 334 115 207 115 404z"/></svg>