<svg viewBox="0 0 2136.06 1271" xmlns="http://www.w3.org/2000/svg"><path d="m1637 928q72 0 122 50 51 51 51 121t-51 121q-50 51-122 51-71 0-121-51-51-50-51-121t49-121q50-50 123-50zm-1169 0q70 0 120 50 51 50 51 121 0 70-51 121-50 51-120 51-72 0-122-51-51-51-51-121 0-71 50-121t123-50zm732-460h394q71 0 71-64 0-22-9-48a291.1 291.1 0 0 0 -25-53 391.06 391.06 0 0 0 -38.5-53.5 433.3 433.3 0 0 0 -49.5-49.5q-55-48-140-67t-187-17q-36 1-59 3.5t-36 10.5q-13 8-18 24.5t-5 46.5v201q0 66 102 66zm-214-66v-201q0-15-1.5-30a88.4 88.4 0 0 0 -6.5-26.5 45.07 45.07 0 0 0 -15.5-19q-10.5-7.5-28.5-7.5a318.3 318.3 0 0 0 -74.5 9q-37.5 9-75.5 29-77 39-134 120-56 82-56 141 0 51 50 51h274q68 0 68-66zm1148 422q0 57-17.5 105.5t-53.5 88.5q-73 81-181 81h-13q0-95-67-162-70-68-165-68-96 0-164 68-67 67-67 162h-707q0-95-67-162-68-68-164-68t-164 68q-35 34-51 74.5t-16 87.5a261.4 261.4 0 0 1 -87.5-21.5 243.1 243.1 0 0 1 -75.5-51.5q-33-33-53.5-81t-20.5-110a415.05 415.05 0 0 1 5-66 358.27 358.27 0 0 1 15-60q21-61 63-97 43-37 158-84 52-21 83.5-34t42.5-19q11-7 20.5-14a163.38 163.38 0 0 0 18.5-16 262.45 262.45 0 0 0 33-40q8-11 26.5-47.5t50.5-97.5q131-260 417-260h380q133 0 242 51t182 162l74 113q18 26 33.5 48a351.8 351.8 0 0 0 30.5 38q66 65 109.5 109t66.5 69q45 48 68 130 23 81 15 104z"/></svg>