<svg viewBox="0 0 2062 2147.04" xmlns="http://www.w3.org/2000/svg"><path d="m1170 1063h220q20 0 31.5 12.5t11.5 30.5v120a45.77 45.77 0 0 1 -11.5 30.5q-11.5 13.5-31.5 13.5h-15zm349 179v-5l4-108-8-38q0-23 17-22l25 1 37-7 60 8 25-4q13 0 20 9t10 28.5q3 19.5 3.5 51t.5 76.5q0 23-37 23h-12l-48 7-54-3-24 1q-19 2-19-18zm-1089-179h295l207 207h-502q-17 0-30-13.5t-13-30.5v-120a40.68 40.68 0 0 1 13-30.5q13-12.5 30-12.5zm468-693q-2-84 37.5-153t107.5-117.46q68-48.54 159.5-74.54t194.5-25q59 1 127 15 34 8 60.5 17t45.5 23q72 53 108 71a151.73 151.73 0 0 0 72 18q56 0 56-45 0-17-6-25.5a33 33 0 0 1 -6-19.5q0-19 30-19a121.5 121.5 0 0 1 49 10 130 130 0 0 1 40.5 27.5 131.76 131.76 0 0 1 27.5 40 115.6 115.6 0 0 1 10 47.5q0 88-82 148a329 329 0 0 1 -89.5 45.5q-47.5 15.5-103.5 13.5l-97-3q-41-1-75 6t-58.5 19q-24.49 12-38 27t-13.5 29q0 31 54 53a255.31 255.31 0 0 0 53 16 369.74 369.74 0 0 0 53 6q50 2 100 6a202.89 202.89 0 0 1 92 30q30 19 46 52.5t16 67.5q0 58-41.5 93t-106.5 49l-40 9q-92 18-92 73 0 19 26 36 14 9 20 15.5t6 11.5q0 23-31 22-21 0-51-8.5a283.92 283.92 0 0 1 -57-23q-27-14.5-45-34t-15-43.5q0-22 15.5-39a217.27 217.27 0 0 1 33.5-30q18-13 33.5-24t15.5-23q0-35-168-35-208 0-341-97-67-48-99-112.5t-33-145.5zm132 1580q273 0 500-167l-1167-1166q-167 227-167 500 0 112 27.5 215.5t84.5 201.5q112 193 305 305 98 57 201.5 84t215.5 27zm917-1268-4-44q119 223 119 479 0 278-141 518-138 237-379 375-239 137-512 137-277 0-515-138-238-139-377-378-138-240-138-514 0-257 122-486 121-228 336-372 109-73 227-115t247-55q-89 98-107 219-187 48-328 167l1175 1174q193-233 193-532 0-132-38-251 57-28 88.5-75t31.5-109z"/></svg>