<svg viewBox="0 0 2264 1467" xmlns="http://www.w3.org/2000/svg"><path d="m1832 633 2-12q0-11-7.5-21.5t-23.5-10.5q-20 0-29 19-51 87-152 87a167.81 167.81 0 0 1 -61.5-11.5q-29.5-11.5-43.5-27.5l-9-7a46.15 46.15 0 0 0 -10.5-8 27.89 27.89 0 0 0 -13.5-3q-12 0-21.5 9.5a30.75 30.75 0 0 0 -9.5 22.5q0 28 53 57a219.26 219.26 0 0 0 56.5 23 248.4 248.4 0 0 0 59.5 7q57 0 97-19t65-42q25-23 36.5-42.5t11.5-20.5zm-108 440q0-26-32-31-70 1-137.5 6t-129 11.5q-61.5 6.5-113.5 13.5t-90.5 13.5q-38.5 6.5-60.5 10.5t-23 4q-24 6-24 31 0 14 9.5 23t21.5 9l5-2 48-9q47-9 104.5-16.5t128.5-15.5q71-7 136-11t125-5q14 0 23-9t9-23zm-662-355 4-17q0-12-9-21t-23-9q-17 0-27 14-26 36-60 52.5t-78 18.5a155 155 0 0 1 -52.5-7 214.84 214.84 0 0 1 -45-19.5q-19.5-11.5-31.5-22t-12-15.5q-10-14-26-14-14 0-23 9t-9 23q0 10 6 16 0 9 29 34 28 26 67.5 42.5t90.5 16.5q52 0 89-15t61-34q24-19 35.5-34.5t13.5-17.5zm1202 414q0 74-7 91-51 69-242 132-96 32-214.5 53.5t-262.5 34.5q-288 24-501 24-103 0-211-5.5t-223-17.5q-227-24-387-68-159-44-197-91l-11-10q-4-25-6-58.5t-2-76.5q0-214 86-388 87-173 293-337l-237-249a79.28 79.28 0 0 1 -17-25 72.89 72.89 0 0 1 -6-29 77.25 77.25 0 0 1 6.5-31 84.77 84.77 0 0 1 18-26.5 86.54 86.54 0 0 1 26-18 76.19 76.19 0 0 1 31.5-6.5 81.6 81.6 0 0 1 31.5 6q14.5 6 27.5 20l257 271q258-144 647-144 306 0 556 131l246-286q24-28 63-28 36 0 58 25t22 57q0 30-19 52l-228 265 60 49 37 34a1006.71 1006.71 0 0 1 120.5 133.5q55.5 73.5 98.5 166.5 42 92 64 179t22 171z"/></svg>