<svg viewBox="0 0 2262 1613" xmlns="http://www.w3.org/2000/svg"><path d="m2262 1287q0 45-1 73t-3 40q-59 86-403 150-342 63-681 63-132 0-268-6t-279-20q-72-7-139-17.5t-132-26.5q-129-32-214-68.5t-135-91.5q-3-20-5-45.5t-2-59.5a798.83 798.83 0 0 1 8.5-118 712.15 712.15 0 0 1 26.5-113 954.56 954.56 0 0 1 45-113.5q27-57.5 63-120.5 10-17 28.5-43.5t46.5-60.5q28-34 61.5-68.5a972 972 0 0 1 73.5-68 1048.94 1048.94 0 0 1 87.5-65.5 1063.25 1063.25 0 0 1 105.5-62l-113-335-4-26q0-33 23-58t59-25q24 0 46 14.5t30 40.5l108 320q89-33 191.5-49t220.5-16a2250.3 2250.3 0 0 1 237.5 13q122.5 13 245.5 59l83-321q8-28 30-45a79.63 79.63 0 0 1 50-17q36 0 58 25t22 57l-2 21-91 347 14 7q31 16 67.5 40.5t75.5 56q39 31.5 79.5 68.5t79.5 78q78 81 141 233 65 151 65 354zm-1188-489q133-56 262-87 24-6 24-28 0-16-9.5-25.5t-21.5-9.5l-7 2q-3 2-38.5 11t-88.5 26q-53 17-118 42a1078.27 1078.27 0 0 0 -126 58q-18 9-18 28 0 13 9 21a34.32 34.32 0 0 0 20 9q20 0 56 6.5t90 17.5q55 11 105 25t97 31l10 3a29.92 29.92 0 0 0 22-9q9-9 9-23 0-21-20-29a1198.17 1198.17 0 0 0 -118-38.5q-64-17.5-139-30.5zm147 368q0-53-39-95-38-41-83-41-47 0-75 25a131.77 131.77 0 0 0 -24 27q-10 15-17 36.5t-10 51q-3 29.51-3 69.5a745.84 745.84 0 0 1 -107.5 24 781.49 781.49 0 0 1 -113.5 8 867.28 867.28 0 0 1 -285-48l-11-1q-12 0-22.5 8t-10.5 23q0 11 10 20t27.5 16a365.61 365.61 0 0 0 39.5 13q22 6 46 11 48 11 98 17.5t109 6.5q255 0 458-147 13-10 13-24zm-847-329a129.85 129.85 0 0 0 7.5 44 119.64 119.64 0 0 0 21.5 37.5 106.54 106.54 0 0 0 34 26.5q20 10 45 10 56 0 102-49 48-51 48-117a129.85 129.85 0 0 0 -7.5-44 119.64 119.64 0 0 0 -21.5-37.5 100.61 100.61 0 0 0 -34-26q-20-9.5-45-9.5-63 0-106 52-44 52-44 113z"/></svg>