<svg viewBox="0 0 2022.33 1784" xmlns="http://www.w3.org/2000/svg"><path d="m683.33 806q0-36-22-58t-55-22q-47 0-87 42-40 40-40 90 0 36 22.5 57.5t55.5 21.5q49 0 88-41 38.01-39 38-90zm684 260q0-26-8.5-47.5a161.32 161.32 0 0 0 -24.5-41.5q-32-40-75-40-21 0-38 9a94.49 94.49 0 0 0 -29.5 24.5 109.47 109.47 0 0 0 -19 36 139.87 139.87 0 0 0 -6.5 42.5 136 136 0 0 0 9 50 126.63 126.63 0 0 0 24 39.5 113.42 113.42 0 0 0 34.5 26 91.45 91.45 0 0 0 40.5 9.5q42 0 67.5-31.5t25.5-76.5zm650 577 5 141h-413l-4-120q-2-39 14-72t46-61a185.69 185.69 0 0 1 69.5-41q39.51-13 87.5-15 45-2 81 17t61 46q25 27 38.5 56.5t14.5 48.5zm-1894-512-38 225a188.36 188.36 0 0 1 -64-62.5q-24-38.51-21-80.5l71-1047q0-5 9.5-31.5t33-56.5q23.51-30 64-54t103.5-24q91 0 153.5 46t75.5 132l-30 336q-59 28-114 82.5t-102 133q-47 78.5-83.5 179.5t-57.5 222zm1404 542 3 111h-1476l125-610q27 44 159 115 133 72 294 121 162 51 345.5 79t386.5 28q60 0 113.5-3t101.5-8q-52 72-52 144zm414-1154q0 26-20 45l-198 175q85 104 130.5 236.5t40.5 296.5l-2 43-1 15q-69 48-205 76a1205.17 1205.17 0 0 1 -144 22q-75 7-159 7-51 0-101-2t-101-6q-51-5-108-11.5t-121-17.5q-63-10-121-21.5t-110-26.5q-106-30-184-59.5t-136.5-61q-58.5-31.5-102-66.5a598.82 598.82 0 0 1 -79.5-77v-5q0-77 45-193 23-58 50.5-103.5t59.5-79.5q167-182 399-244l15-308q2-23 19.5-40t40.5-17q28 0 44.5 19a69.5 69.5 0 0 1 17.5 44l-14 277q31-4 61.5-6t61.5-2q179 0 337.5 56.5t281.5 166.5l202-179q18-15 40-15a60.46 60.46 0 0 1 43 17q18 17 18 45z"/></svg>