<svg viewBox="0 0 2264 1571" xmlns="http://www.w3.org/2000/svg"><path d="m1092 1436a43.24 43.24 0 0 0 19.5-2.5 60.39 60.39 0 0 0 17-9.5 45.81 45.81 0 0 0 12-14.5 38.93 38.93 0 0 0 4.5-18.5q0-49-45-52-55-4-100-21t-81-39.5q-36-22.5-63-47.5t-45-46.5q-18-21.5-27.5-36.5t-10.5-16q-15-26-43-26-21 0-34 15.5a53.66 53.66 0 0 0 -13 35.5q0 14 5 23 1 3 12.5 21.5t33.5 45q22 26.51 55.5 57.5t78.5 59q45 28 100.5 48t123.5 25zm607-413a110.34 110.34 0 0 0 46-9.5 108.41 108.41 0 0 0 36-26 120.74 120.74 0 0 0 23.5-39 136.05 136.05 0 0 0 8.5-48.5q0-64-47-117-23-25-48.5-38.5a116.79 116.79 0 0 0 -55.5-13.5q-26 0-47 10.5a106.15 106.15 0 0 0 -35 27.5 121.44 121.44 0 0 0 -21.5 40 153.81 153.81 0 0 0 -7.5 48q0 66 45 117 45 49 103 49zm-1274-297q0 20 13.5 33.5t33.5 13.5h18a630.75 630.75 0 0 1 119 11.5 1026.08 1026.08 0 0 1 115.5 29q55.5 17.5 103.5 38t84 38.5q36 18 57.5 30t23.5 13q13 8 26 8a45.48 45.48 0 0 0 34-14.5 48 48 0 0 0 14-34.5l-1-11q-4-30-23-64.5t-50-72.5a767.64 767.64 0 0 0 -72-78q-41-39-92-80-51-40-93.5-69.5t-77.5-49.5q-15-6-25-6-20 0-34.5 12.5t-14.5 36.5q0 28 25 42a1303.93 1303.93 0 0 1 144 98 1453.16 1453.16 0 0 1 132 117q-224-93-397-93-63 0-63 52zm1839 513q0 40-2 73.5t-5 61.5l-9 10q-36 50-193 93-78 22-174 39.5t-211 30.5q-114 13-224 18.5t-218 5.5q-114 0-243.5-6t-277.5-20q-146-13-262-36t-203-52.5q-87-29.51-146-64t-89-70.5q-3-9-5-31.5t-2-58.5a827.43 827.43 0 0 1 8-117 769.16 769.16 0 0 1 24-110 837.66 837.66 0 0 1 40.5-108q24.5-54 57.5-112 67-118 153.5-200.5a1304.08 1304.08 0 0 1 189.5-149.5l-199-308a76.63 76.63 0 0 1 -14-45 82.73 82.73 0 0 1 6-31 76.51 76.51 0 0 1 17-26 90.6 90.6 0 0 1 26-18 77 77 0 0 1 33-7q44 0 68 37l210 322q122-48 242-72.5a1192.37 1192.37 0 0 1 239-24.5q94 0 177.5 8.5a1352.25 1352.25 0 0 1 161 26 1205.88 1205.88 0 0 1 152 45 1553.69 1553.69 0 0 1 149.5 64.5l181-330q24-42 71-42 36 0 58.5 25t22.5 57q0 24-10 41l-184 336q77 61 133 118t94 111a943.52 943.52 0 0 1 66 109.5 802.52 802.52 0 0 1 49.5 120 834.26 834.26 0 0 1 31 134.5q10.5 71 10.5 153z"/></svg>