<svg viewBox="0 0 2158 1507" xmlns="http://www.w3.org/2000/svg"><path d="m1661 1162q72 0 122 50 50 51 50 122 0 72-50 122-51 51-122 51-70 0-122-51-50-50-50-122 0-71 50-122 51-50 122-50zm-1170 0q72 0 122 50 26 26 38.5 56t12.5 66q0 71-51 122t-122 51q-70 0-121-51-51-50-51-122 0-71 51-122 50-50 121-50zm482-138 19-58 19 58zm238-320h360q71 0 71-65 0-66-70-150-35-42-72.5-68.5a323.29 323.29 0 0 0 -80.5-41.5 441.77 441.77 0 0 0 -91.5-21 853.09 853.09 0 0 0 -104.5-6q-33 3-54.5 5t-34.5 9q-13 7-18.5 23.5t-5.5 47.5v201q0 66 101 66zm189 395v-198l-6-5h-48l-4 5v198l4 3h48zm-86 3 4-2-2-5-65-95 65-97v-4l-4-3h-54l-40 55-36-52-4-3h-55l-4 3v4l65 97-65 95v5l4 2h58l3-2 34-50 33 50 7 2zm-221-2v-4l-74-197-4-3h-45l-4 3-75 197 1 4 3 2h49l4-3 11-34h67l10 34 4 3h49zm-250-2v-159h68l5-4v-36l-5-4h-188l-4 4v36l4 4h68v159l4 4h43zm-194-394h272q71 0 71-66v-201q0-16-1.5-31a77 77 0 0 0 -7.5-27 47 47 0 0 0 -17-19q-11-7-30-7-74 0-152 40-76 39-131 120-55 82-55 140 0 51 51 51zm1509 342q0 122-70 206-70 82-181 82h-15q0-94-69-163-35-33-75-50.5t-87-17.5q-93 0-163 70-68 68-68 161h-707q0-93-70-163-35-33-75-50.5t-87-17.5q-96 0-164 68-67 68-67 162-72-9-146-62-75-53-95-100-19-47-19-110a470.82 470.82 0 0 1 5-67.5 541.7 541.7 0 0 1 14-67 502.93 502.93 0 0 1 21.5-62q12.5-29.5 28.5-51.5 32-46 108-86a601.89 601.89 0 0 1 77.5-36 571.81 571.81 0 0 1 80.5-24q56-98 103.5-170.5t88.5-119.5a571 571 0 0 1 87.5-83.5 511 511 0 0 1 101-60 584.45 584.45 0 0 1 117.5-38q63-13.5 137-17.5 0-19 18-19h14v-134q0-25 24-25h77q25 0 25 25v134h13q18 0 18 17 86 2 154.5 10.5t121.5 23.5q108 30 189 91 83 62 136 147 26 42 52.5 97t52.5 122a435.94 435.94 0 0 1 60.5 19 608.78 608.78 0 0 1 62.5 29 428.1 428.1 0 0 1 56 35q24 18 40 38 16 21 29.5 50a450.15 450.15 0 0 1 23.5 63 524.85 524.85 0 0 1 15.5 71 502.18 502.18 0 0 1 5.5 74z"/></svg>