<svg viewBox="0 0 2262 1613" xmlns="http://www.w3.org/2000/svg"><path d="m2262 1287q0 45-1 73t-3 40q-59 86-403 150-342 63-681 63-132 0-268-6t-279-20q-72-7-139-17.5t-132-26.5q-129-32-214-68.5t-135-91.5q-3-20-5-45.5t-2-59.5a798.83 798.83 0 0 1 8.5-118 712.15 712.15 0 0 1 26.5-113 954.56 954.56 0 0 1 45-113.5q27-57.5 63-120.5 10-17 28.5-43.5t46.5-60.5q28-34 61.5-68.5a972 972 0 0 1 73.5-68 1048.94 1048.94 0 0 1 87.5-65.5 1063.25 1063.25 0 0 1 105.5-62l-113-335-4-26q0-33 23-58t59-25q24 0 46 14.5t30 40.5l108 320q89-33 191.5-49t220.5-16a2250.3 2250.3 0 0 1 237.5 13q122.5 13 245.5 59l83-321q8-28 30-45a79.63 79.63 0 0 1 50-17q36 0 58 25t22 57l-2 21-91 347 14 7q31 16 67.5 40.5t75.5 56q39 31.5 79.5 68.5t79.5 78q78 81 141 233 65 151 65 354zm-725-547 5-18q0-11-9.5-20.5t-21.5-9.5q-18 0-26 15-2 2-11 12.5t-26.5 23.5q-17.51 13-44 23t-63.5 10q-37 0-63.5-10t-44-23q-17.5-13-26.5-23.5t-10-12.5q-8-15-26-15-16 0-23.5 10.5t-7.5 21.5l4 16q1 2 13.5 17.5t36.5 33.5q24 18 60.5 33t86.5 15a303.47 303.47 0 0 0 50-4 168.55 168.55 0 0 0 45-14 384.89 384.89 0 0 0 40-22 249.23 249.23 0 0 0 32.5-24 216.29 216.29 0 0 0 21.5-21.5q8-9.5 8-13.5zm-241 437a29.92 29.92 0 0 0 -9-22q-9-9-21-9-9 0-19 7-165 125-396 125-73 0-135-11.5a985.7 985.7 0 0 1 -116-28.5l-22-7-11-1a35.8 35.8 0 0 0 -23 8q-10 8-10 23 0 11 10.5 19.5t27 15.5a313.47 313.47 0 0 0 38 13q21.5 6 43.5 11a717.92 717.92 0 0 0 91.5 16.5q47.5 5.5 104.5 5.5 242 0 435-139 12-9 12-26zm-765-338q53 0 95-18a345.41 345.41 0 0 0 39.5-22 266.64 266.64 0 0 0 32-24 216.29 216.29 0 0 0 21.5-21.5q8-9.5 8-13.5l5-18q0-11-9.5-20.5t-21.5-9.5q-18 0-26 15-2 2-10.5 12.5t-26 23.5q-17.5 13-44 23t-63.5 10q-37 0-63.5-10t-44-23q-17.5-13-27-23.5t-10.5-12.5q-8-15-27-15-14 0-22 9.5t-8 20.5q0 13 5 18 1 1 13 16.5t36 34q24 18.5 61 33.5t87 15z"/></svg>