<svg viewBox="0 0 2318 1828" xmlns="http://www.w3.org/2000/svg"><path d="m937 971 2-12q0-15-10.5-27.5t-28.5-12.5q-27 0-38 26-51 103-157 103a145.62 145.62 0 0 1 -40-6 251.85 251.85 0 0 1 -38-14 198 198 0 0 1 -28.5-16q-11.5-8-11.5-13-13-14-30-14-15 0-27.5 12t-12.5 28q0 32 59 67a300.6 300.6 0 0 0 61.5 26.5 187.19 187.19 0 0 0 65.5 7.5q45-1 79.5-10.5t61.5-28.5a237.22 237.22 0 0 0 49.5-47.5q22.5-28.5 43.5-68.5zm647 145q70 0 126-35 58-37 58-64 0-17-11-28.5t-28-11.5q-17 0-30 12 0 5-11 13.5t-28.5 16a291.86 291.86 0 0 1 -37.5 13 143.25 143.25 0 0 1 -38 5.5 218.94 218.94 0 0 1 -43-4 118.08 118.08 0 0 1 -37-14 185.3 185.3 0 0 1 -31.5-21 216.48 216.48 0 0 1 -25-24 173.12 173.12 0 0 1 -17-22.5q-6.5-10.5-6.5-16.5-7-26-37-26-20 0-29.5 11t-9.5 27l3 12q0 7 6 19.5a196.89 196.89 0 0 0 17 28 297.31 297.31 0 0 0 25.5 31 257 257 0 0 0 31.5 28.5 230.77 230.77 0 0 0 73.5 38 272.13 272.13 0 0 0 79.5 12zm321 244a266.3 266.3 0 0 0 -10-67 227.22 227.22 0 0 0 -26-58q-33-54-63.5-81.5t-45.5-23.5q-11 0-15 16.5t-6 49.5l-1 24-19 83q-8 30-12.5 52t-4.5 39q0 45 26.5 74.5t66.5 29.5a90.64 90.64 0 0 0 41-10 108.43 108.43 0 0 0 35-28q15-18 24.5-43.5t9.5-56.5zm410-19q0 17-12 27.5a41.19 41.19 0 0 1 -28 10.5l-7-1-180-32a483.63 483.63 0 0 1 -45 103l172 55q11 3 18.5 13.5a39.47 39.47 0 0 1 7.5 23.5q0 17-11.5 28t-26.5 11l-13-1-192-63q-76 99-221 175-141 75-313 105-172 32-320 32-149 0-322-34a1162.66 1162.66 0 0 1 -163.5-44.5q-77.5-27.5-143.5-62.5t-119-77q-53-42-89-89l-178 58-12 1a40.14 40.14 0 0 1 -28-11q-12-11-12-28a37.83 37.83 0 0 1 8-23.5q8-10.5 19-13.5l156-51q-14-26-26-51.5t-22-52.5l-162 29-7 1q-14 0-26.5-10.5t-12.5-27.5q0-34 32-40l157-29q-3-13-6.5-38.5t-6.5-63.5l-145-22q-35-6-35-37a39.52 39.52 0 0 1 12-29q12-12 28-12h5l133 20q0-130 51-268-175-411-175-611 0-88 30.5-127.5t93.5-39.5q76 0 215 56 69 28 135 62t132 72l127 75q170-53 364-53a1230.15 1230.15 0 0 1 357 52l107-78q161-118 281.5-174t198.5-56q121 0 121 204 0 110-39 285-20 88-44.5 173.5t-56.5 170.5q46 128 46 260l152-23h4a40.14 40.14 0 0 1 28 11q12 11 12 29 0 34-33 38l-164 25-13 97 174 31q33 11 33 40z"/></svg>