<svg viewBox="0 0 2261.57 1648" xmlns="http://www.w3.org/2000/svg"><path d="m1524 1277q144 0 233-101 89-104 89-251 0-61-21-165-21-105-49-143l-568 411q15 105 107 176 93 73 209 73zm-787 0q115 0 207-71 47-36 73.5-80.5a280.55 280.55 0 0 0 35.5-97.5l-567-411q-11 14-23.5 46.5t-23.5 85.5q-22 103-22 178 0 149 91 249 90 101 229 101zm1524 44-4 110q-49 63-225 114-87 26-195 44.5t-240 32.5q-131 13-240.5 19.5t-197.5 6.5q-75 0-153-2t-159-5q-81-4-147-9t-117-10q-52-6-102-15t-98-20q-48-11-90-22t-77-23q-35-12-62.5-23.5t-52-24.5a383.42 383.42 0 0 1 -47-29.5 561.6 561.6 0 0 1 -47.5-39.5q-3-10-5-35.5t-2-70.5q0-123 37.5-234.5t103.5-226.5q23-38 59-84t89-99a1048.49 1048.49 0 0 1 107-94 839.94 839.94 0 0 1 112-72l64-34-149-361a72.46 72.46 0 0 1 -7-31 80.25 80.25 0 0 1 6-30 86.68 86.68 0 0 1 16.5-26.5 84.61 84.61 0 0 1 26-19 75.88 75.88 0 0 1 33.5-7.5 77.36 77.36 0 0 1 44.5 14 84.87 84.87 0 0 1 30.5 37l149 363q158-58 390-58a1774.25 1774.25 0 0 1 230 14.5 1544.89 1544.89 0 0 1 215 43.5l131-360a76.16 76.16 0 0 1 30.5-38 83.61 83.61 0 0 1 46.5-14 77 77 0 0 1 33 7 79.72 79.72 0 0 1 25.5 18.5 88.36 88.36 0 0 1 16.5 26 79 79 0 0 1 6 30.5l-5 27-134 367q42 17 90 48t103 75q56 44 99.5 83.5t75.5 76.5q5 8 26.5 36.5t48 74q26.5 45.5 52.5 105.5t40 132a814.9 814.9 0 0 1 16 102 853.79 853.79 0 0 1 3 110z"/></svg>