<svg viewBox="0 0 2262 1613" xmlns="http://www.w3.org/2000/svg"><path d="m762 1248v-178l-50-4-65-7a223.43 223.43 0 0 0 14.5 48 393.29 393.29 0 0 0 25.5 50 424.14 424.14 0 0 0 34 48.5 330.65 330.65 0 0 0 41 42.5zm775-178v179a386.63 386.63 0 0 0 72.5-89q30.49-51 43.5-101l-29 4zm261-38h7q28 0 41-20.5a83.19 83.19 0 0 0 13-45.5q0-43-45-85-44-42-89-42-15 0-15 12 0 8 2 12.5a87.4 87.4 0 0 0 5 9.5l10 20 8 39q10 45 23.5 70t39.5 30zm-1223-182q0-11-15-11-40 0-88 39-46 39-46 87 0 24 13.5 45.5t41.5 21.5q55 0 75-115l11-43q8-13 8-24zm1380 387q0-21-10.5-43.5t-30.5-48.5q-39-51-56-51-7 0-10 18.5t-6 54.5l-3 30-4 41q0 34 14.5 58t40.5 24q28 0 46.5-23.5t18.5-59.5zm-1505 1-6-70q0-74-17-74-23 0-60 54-37 52-37 90a95.86 95.86 0 0 0 4.5 28.5 102 102 0 0 0 12.5 26.5 63.71 63.71 0 0 0 20.5 19.5 54.29 54.29 0 0 0 28.5 7.5q21 0 37.5-20t16.5-62zm192-483-4 15a31.6 31.6 0 0 0 9 22.5 29.15 29.15 0 0 0 22 9.5q18 0 28-15 40-58 110-58a124.72 124.72 0 0 1 40.5 7 194.83 194.83 0 0 1 36.5 16.5q16 9.5 26 19.5t10 15q7 16 27 16 11 0 20.5-10t9.5-21l-4-17q0-7-26-33-25-24-59-40t-81-16q-42 0-72.5 13.5t-50.5 29.5q-20 16-30.5 30.5t-11.5 15.5zm659 0-4 15a31.6 31.6 0 0 0 9 22.5q9 9.5 23 9.5 15 0 27-15 40-58 111-58 69 0 111 58 7 16 27 16 12 0 21.5-9.5t9.5-21.5l-4-17q0-8-26-33-25-24-59-40t-80-16q-43 0-73.5 13.5t-50.5 29.5q-20 16-30.5 30.5t-11.5 15.5zm-485 319v215a684.84 684.84 0 0 0 65 34 492.31 492.31 0 0 0 61 23v-267zm540 5v267q76-23 126-57v-215zm-179 3v290q90-5 124-12v-281zm-181-3v279q22 5 53 9t73 5v-290zm1266 208q0 45-1 73t-3 40q-28 48-186 97-80 24-183.5 45t-234.5 38q-130 17-249 25t-231 8q-132 0-268-6t-279-20q-72-7-139-17.5t-132-26.5q-129-32-214-68.5t-135-91.5q-3-20-5-45.5t-2-59.5a798.83 798.83 0 0 1 8.5-118 712.15 712.15 0 0 1 26.5-113 954.56 954.56 0 0 1 45-113.5q27-57.5 63-120.5 10-17 28.5-43.5t46.5-60.5q28-34 61.5-68.5a972 972 0 0 1 73.5-68 1048.94 1048.94 0 0 1 87.5-65.5 1063.25 1063.25 0 0 1 105.5-62l-113-335-4-26q0-33 23-58t59-25q23 0 45.5 14.5a71.79 71.79 0 0 1 30.5 40.5l108 320q89-33 191.5-49t220.5-16a2250.3 2250.3 0 0 1 237.5 13q122.5 13 245.5 59l83-321q8-28 30-45a79.63 79.63 0 0 1 50-17q36 0 58 25t22 57l-2 21-91 347 14 7q31 16 67.5 40.5t75.5 56q39 31.5 79.5 68.5t79.5 78q78 81 141 233 65 151 65 354z"/></svg>