<svg viewBox="0 0 1254 2210" xmlns="http://www.w3.org/2000/svg"><path d="m627 533a152.1 152.1 0 0 0 35-4 137.87 137.87 0 0 0 30-10.5 68.72 68.72 0 0 0 21-15.5q8-9 8-19 0-16-10-24.5t-22-8.5a27.44 27.44 0 0 0 -11.5 2.5q-5.5 2.5-12 6a75.54 75.54 0 0 1 -15.5 6q-9 2.5-23 2.5t-23-2.5a75.54 75.54 0 0 1 -15.5-6q-6.5-3.5-11.5-6a26.51 26.51 0 0 0 -12-2.5q-12 0-21.5 9.5a31.93 31.93 0 0 0 -9.5 23.5q0 20 26.5 34.5t66.5 14.5zm-164-194q0 23 14.5 40t34.5 17q20 0 34-17t14-40q0-24-14-41t-34-17q-20 0-34.5 17t-14.5 41zm280-58q-20 0-34.5 17t-14.5 41q0 23 14.5 40t34.5 17q20 0 35-17a58.51 58.51 0 0 0 15-40q0-24-15-41t-35-17zm511 1151a81.37 81.37 0 0 1 -8 35 101 101 0 0 1 -21.5 30 99.41 99.41 0 0 1 -32 20.5 101.53 101.53 0 0 1 -38.5 7.5q-57 0-117-93-59-95-98-222-26-84-44-130t-35-46q-25 0-25 45 0 48 27 130a730.34 730.34 0 0 0 29.5 75.5 621.64 621.64 0 0 0 32.5 61.5q21 35 34.5 59t22 40.5q8.5 16.5 11.5 27.5a79.78 79.78 0 0 1 3 21 78.66 78.66 0 0 1 -6.5 32.5q-6.5 14.5-21.5 26.5t-40 23q-25 11-61 23-16 5-25.5 14a69.34 69.34 0 0 0 -15.5 22.5 146.41 146.41 0 0 0 -9.5 31.5q-3.5 18-7.5 41-5 23-9 49t-7 53.5q-3 27.49-4.5 55t-1.5 52.5q0 41 5 66.5t17 34.5l27 20q49 37 49 91 0 41-27 60.5t-69 19.5q-71 0-106-30t-32-108l13-287q2-63-8.5-94.5t-27.5-31.5q-17 0-27.5 31.5t-8.5 97.5l13 288q1 25-3 44a176.58 176.58 0 0 1 -10 33q-6 14-19.5 24.5a144.32 144.32 0 0 1 -30.5 18 160 160 0 0 1 -36.5 11 217.89 217.89 0 0 1 -38.5 3.5q-43 0-69.5-20t-26.5-62q0-51 50-89l28-20q22-18 22-100a774.76 774.76 0 0 0 -4.5-81.5q-4.5-42.5-12.5-90.5t-15-79q-7-31-15-46-6-12-32.5-21t-55.5-21a211.39 211.39 0 0 1 -52-30.5q-23-18.5-23-50.5 0-31 39-94 28-47 46-83t29-62a984 984 0 0 0 32.5-101.5q12.5-48.5 12.5-80.5 0-44-23-44-17 0-35.5 46.5t-45.5 129.5q-51 158-105.5 236.5t-109.5 78.5a101.53 101.53 0 0 1 -38.5-7.5 99.41 99.41 0 0 1 -32-20.5 101 101 0 0 1 -21.5-30 81.37 81.37 0 0 1 -8-35 89.77 89.77 0 0 1 4-25.5 115.57 115.57 0 0 1 11-25.5 94 94 0 0 1 16.5-21 81.46 81.46 0 0 1 19.5-14 305.24 305.24 0 0 0 40.5-21 157.45 157.45 0 0 0 30-24 158.13 158.13 0 0 0 22-29 225.73 225.73 0 0 0 17.5-38q93-271 158-374 64-102 166-142 14-6 25-10a87.4 87.4 0 0 0 18.5-9 34.32 34.32 0 0 0 11.5-12.5q4-7.5 4-19.5 0-15-66-50-28 32-70.5 46t-82.5 14q-36 0-62-11t-26-32q0-17 21-38 20-20 30.5-48.5t8.5-66.5l-4-107q-3-85 20.5-152.5t68.5-119.5q88-102 245-102 152 0 244 102 45 51 68.5 120t21.5 157l-3 102q-1 41 9 69t29 46q21 18 21 38 0 21-25 32t-63 11q-40 0-82.5-14t-70.5-46q-66 35-66 50 0 12 4 19.5a33.1 33.1 0 0 0 12 12.5 101.4 101.4 0 0 0 19 9q11 4 26 10 104 41 172 159 34 59 71.5 147.5t80.5 209.5q16 45 41.5 70t67.5 42q22 11 36 35.5t14 50.5z"/></svg>