<svg viewBox="0 0 2014.06 1455" xmlns="http://www.w3.org/2000/svg"><path d="m1836.06 652 4 1q14 0 14-30 0-54-26-54-12 0-12 29 0 50 20 54zm-78-21 6 1q13 0 13-35 0-70-30-70-12 0-12 36 0 62 23 68zm-93-26 6 1q19 0 19-47 0-89-37-89-17 0-17 48 0 76 29 87zm-107-14 10 2q22 0 22-55 0-115-47-115-22 0-22 62 0 97 37 106zm-121-17q30 0 30-77 0-130-62-130-27 0-27 71 0 136 59 136zm-582 343q34 0 57.5-24.5t23.5-57.5q0-34-24-58t-58-24q-36 0-60 23t-24 59q0 36 24.5 59t60.5 23zm383-624q-37 0-37 90 0 166 78 166 39 0 39-89 0-90-23-128.5t-57-38.5zm-395-122-40-2h-39q-220 0-275 123 35-6 71-9.5t72-3.5q306 0 482 92a126.51 126.51 0 0 0 4-22.5q1-11.5 1-22.5 0-136-276-155zm-508 349q-109 0-177 74-69 74-69 196 0 104 70 173 70 70 189 70 116 0 187-67 74-68 74-182 0-112-81-187-79.99-77-193-77zm1415 526 247-88q-7 59-34 90-26 32-108 65.5t-213 82.5l-110 41q-142 54-265.5 94.5t-232.5 68.5q-213 55-415 55-211 0-315-22a980.15 980.15 0 0 1 -102.5-27q-49.5-16-95.5-36-92-42-91-74 1-11 17-49t49-104q31 35 82.5 63t119.5 47q68 19 150.5 29t175.5 10q225 0 510-62t631-184zm264-244q0 38-12 135-251 86-452.5 145.5t-359.5 91.5q-311 64-565 64-78 0-141.5-6t-114.5-16.5q-51-10.5-91-24t-71-29.5q-46-24-84.5-65a447.6 447.6 0 0 1 -66-91 473.23 473.23 0 0 1 -42.5-106q-15-56-14-109a695.53 695.53 0 0 1 11.5-104 398.58 398.58 0 0 1 32.5-98 489.58 489.58 0 0 1 53.5-90q31.5-42 76-77.5t104-64q59.51-28.5 139.5-49.5 36-61 77-104t90.5-69.5q49.5-26.5 108-38.5t128.5-12h27l13-17q50-67 89-67 23 0 40.5 8t17.5 17l-4 8q-23 15-23 33l3 29q55 7 104.5 17a962.54 962.54 0 0 1 96 24.5q46.5 14.5 92.5 32.5t93 41q47 23 95 50.5t97 61.5q50 34 106 75t120 90q64 50 104 82.5t58 47.5q64.01 56 64 185z"/></svg>