<svg viewBox="0 0 2264 1679" xmlns="http://www.w3.org/2000/svg"><path d="m1222 706 27 1a29 29 0 0 0 22.5-7.5q9.5-8.5 9.5-22.5 0-23-17.5-28.5a127.82 127.82 0 0 0 -38.5-5.5h-33a1325 1325 0 0 0 -389 58q-57-20-126.5-33.5t-154.5-22.5q-34 0-35 27 0 32 28 35 71 9 117 16.5t69 14.5a1183.56 1183.56 0 0 0 -132.5 62.5 740.24 740.24 0 0 0 -116.5 79.5q-13 10-13 24a31.6 31.6 0 0 0 9 22.5q9 9.5 23 9.5a23.2 23.2 0 0 0 9.5-2 87.4 87.4 0 0 0 9.5-5 847.07 847.07 0 0 1 146.5-93.5q78.5-39.5 168.5-67.5 57 20 124 55.5t142 91.5l70 52q19 14 31 20t17 6q11 0 21.5-8.5t10.5-22.5q0-17-13-26-96-72-172-120.5t-133-75.5a1249.26 1249.26 0 0 1 290-34zm-49 535q0-58-43-91t-116-33a292.43 292.43 0 0 0 -87 13q-42 13-80 28t-72.5 28q-34.5 13-64.5 13-14 0-72-29t-99-29q-45 0-90 33-44 33-44 100 0 14 7 28.5a109.58 109.58 0 0 0 18 26.5 91 91 0 0 0 25.5 19.5 63.57 63.57 0 0 0 29.5 7.5 193.63 193.63 0 0 0 28.5-2.5q16.5-2.5 36.5-4.5l60-5q80 0 139 46 57 47 165 47 107 0 183-61 76-58 76-135zm1086 11 4 94q2 38 0 60t-5 29a429.59 429.59 0 0 1 -43 38 449.64 449.64 0 0 1 -41 28q-41 23-108.5 50.5t-151.5 47.5q-42 11-82 19.5t-81 13.5q-39 6-87 11.5t-107 10.5q-57 5-120.5 10t-133.5 8q-70 3-128.5 5t-107.5 2q-365 0-681-54-313-52-379-138-3-38-5-70.5t-2-61.5q0-184 54-321t130-223q38-44 81-85.5t94-83.5l-190-342q-11-19-11-38 0-32 22-56.5t60-24.5q48 0 71 41l183 330q292-158 669-158a1314.55 1314.55 0 0 1 173.5 11.5 1328.67 1328.67 0 0 1 174.5 35.5l45-370q4-32 26-51.5t54-19.5q35 0 58 24t23 57v10l-49 410 5 1 66 34a911.88 911.88 0 0 1 115 71.5 1203.23 1203.23 0 0 1 105 86.5 880.9 880.9 0 0 1 102.5 111q47.5 61 87.5 136a1001.81 1001.81 0 0 1 69 153 981.72 981.72 0 0 1 41 158z"/></svg>