<svg viewBox="0 0 2318 1962" xmlns="http://www.w3.org/2000/svg"><path d="m1705 1476q0-22-19-22-18 0-41.5 12t-43.5 20v184a276.53 276.53 0 0 0 78-103q26-61 26-91zm-989 184v-184a344.21 344.21 0 0 1 -33-19 68.48 68.48 0 0 0 -38-11q-33 0-33 32 0 20 8.5 42.5t13.5 30.5q25 59 82 109zm57-162v204a630 630 0 0 0 70 36.5 512.11 512.11 0 0 0 79 27.5v-241l-12 2q-53 0-137-29zm621 18v249q111-27 149-56v-204q-35 12-95 12h-26zm346-365q17 0 28-12.5t11-27.5a41.46 41.46 0 0 0 -8-25q-82-80-184-80-43 0-76.5 10.5t-58.5 26.5a228.36 228.36 0 0 0 -43 35q-18 19-29 35t-16 27.5q-5 11.51-5 12.5l-3 14a40.14 40.14 0 0 0 11 28q11 12 29 12 27 0 37-26 51-97 156-97 70 0 121 52 12 15 30 15zm-1138-2q17 0 30-13 1-4 12.5-13.5a169.3 169.3 0 0 1 28.5-18.5 215.25 215.25 0 0 1 38.5-15.5 109.86 109.86 0 0 1 42.5-4.5 116 116 0 0 1 58.5 9 221.21 221.21 0 0 1 49 29q21.5 17 34.5 34t14 26q10 25 36 25a39.27 39.27 0 0 0 39-39l-2-13q0-1-5.5-12.5t-17-28a345.64 345.64 0 0 0 -29.5-36 225.37 225.37 0 0 0 -43.5-36q-25.5-16.5-59-27.5t-75.5-11q-70 0-132 37-58 37-58 69 0 20 15 30 8 9 24 9zm379 371v260q70 14 149 14v-333q-32 11-72 32a414 414 0 0 1 -38.5 17 186.52 186.52 0 0 1 -38.5 10zm207-63v335q57-4 93.5-8t55.5-7v-267l-28-6q-40-20-70-32t-51-15zm738 92 13 1a84.39 84.39 0 0 0 40-9.5 88.73 88.73 0 0 0 30-25.5 115.14 115.14 0 0 0 18-35.5 136.93 136.93 0 0 0 6-40.5 149.55 149.55 0 0 0 -9-51 205 205 0 0 0 -26-49q-34-46-93-82-61-35-103-35-25 0-25 19a122.43 122.43 0 0 0 13 40l15 34 13 65q17 78 39.5 121t68.5 48zm-1383-286 6-22q0-19-25-19-40 0-104 37-62 36-94.5 82t-32.5 97q0 48 26.5 80t67.5 32q53 0 82.5-47t46.5-150a340.66 340.66 0 0 1 27-90zm1771-14q0 38-47 38l-123-23q-1 32-4 62t-8 60q27 9 47 14.5a242 242 0 0 1 33.5 11.5q13.5 6 20.5 14.5t7 22.5q0 17-11.5 28.5a37.51 37.51 0 0 1 -27.5 11.5q-6 0-87-26-50 166-182 275-130 105-334 165a1376.15 1376.15 0 0 1 -209 44.5q-108 14.5-225 14.5a1546.21 1546.21 0 0 1 -413-56q-101-28-186.5-69.5t-152.5-97.5a604.72 604.72 0 0 1 -114.5-126.5q-47.5-70.5-71.5-156.5-102 33-109 33-17 0-29-11t-12-28q0-29 28-38l106-33q-3-20-6-50t-5-69l-149 27q-47 0-47-39 0-31 33-37l164-32q0-21 12-95l-179-26q-33-6-33-40a35.89 35.89 0 0 1 11.5-27q11.5-11 28.5-11h5l186 27q36-113 99-209-9-80-14-161.5t-5-169.5q0-230 42-348.5t119-118.5q70 0 187.5 85.5t260.5 251.5l57 67q105-15 194-15 90 0 195 15 92-108 169-185t140-125.5q63-48.49 111.5-71t83.5-22.5q78 0 119 117t41 347q0 87-4.5 170t-14.5 164a792.49 792.49 0 0 1 99 206l163-24h5a41.19 41.19 0 0 1 28 10.5q12 10.5 12 27.5 0 34-34 40l-155 23q12 78 12 104l141 26q32 6 32 38z"/></svg>