<svg viewBox="0 0 1210 2105.03" xmlns="http://www.w3.org/2000/svg"><path d="m694 331q0 28 18 46t46 18q28 0 46.5-18t18.5-46q0-28-18.5-46t-46.5-18q-28 0-46 18t-18 46zm516 1602q0 52-65 112-62 59-138 59-66 0-105-63l-95-155-98-152-22-41q-26-48-49-73.5t-51-25.5q-7 0-16.5 3.5t-21.5 13.5a269.29 269.29 0 0 0 -63.5 42q-29.5 26-61.5 64-21 26-46.5 59t-47 64q-21.5 31-35.5 56t-13 34a63.13 63.13 0 0 0 3.5 21q3.5 10 7.5 20.5t7.5 21a70.8 70.8 0 0 1 3.5 22.5 78.18 78.18 0 0 1 -8 34.5 96.57 96.57 0 0 1 -21.5 29 101.11 101.11 0 0 1 -30.5 19.5 93.53 93.53 0 0 1 -36 7q-65 0-127-65-63-66-63-132 0-42 21-83 10-21 31-47.5t53-59.5a1044.66 1044.66 0 0 0 74-84 919.45 919.45 0 0 0 59-84q26-42 40-77t12-63l-11-164q-2-36 5-59.5t18-37.5q11-12 11-30t-15-18q-30 0-57 58-27 57-27 105l2 15q2 11 4 26.5a299.82 299.82 0 0 1 2 37.5q0 49-29 70.5t-71 21.5q-140 0-140-149 0-49 17-106.5t52-119q35-61.5 87-125t123-125.5l32-28q36-32 56-56.5t20-45.5q0-27-24-48a293 293 0 0 1 -49.5-55 435.82 435.82 0 0 1 -39.5-69 411.72 411.72 0 0 1 -26.5-77 387.64 387.64 0 0 1 -10.5-80q-1-67 26-131a366 366 0 0 1 75-113.5q48-49.5 113-78.5t139-28q75 2 135.5 24.5t107.5 71.5q95 97 95 244 0 60-25 139-23-5-37-7.5t-17-2.5q-33 0-51.5 4t-18.5 19q0 16 18 28.5t68 27.5a133 133 0 0 1 -16 31.5 245.35 245.35 0 0 1 -21 26.5 166 166 0 0 1 -21.5 20q-10.5 8-18.5 11a193.37 193.37 0 0 0 -25 11q-9 5-13.5 11a33 33 0 0 0 -6 13 82.55 82.55 0 0 0 -1.5 17q0 36 48 93a402.48 402.48 0 0 1 25.5 34.5q11.5 17.5 23.5 35.5l49 77q20 24 38.5 50t37.5 51.5a568.06 568.06 0 0 0 40.5 48.5 293.23 293.23 0 0 0 47.5 41q88 61 88 127a81.5 81.5 0 0 1 -8.5 37 94.12 94.12 0 0 1 -23 29.5 109.16 109.16 0 0 1 -33 19.5 110.59 110.59 0 0 1 -39.5 7q-47 0-83-31.5t-78-91.5l-42-57-6-14q-19-37-36-37-14 0-14 29l10 83q11 91 25.5 145.5t22.5 76.5q7 22 15.5 42.5t18.5 41.5l42 93q47 103 82.5 157.5t79.5 56.5l44 3q27 2 60 33 33 30 33 63z"/></svg>