<svg viewBox="0 0 2262 1919" xmlns="http://www.w3.org/2000/svg"><path d="m2008 1213q0-21-14.5-34.5a48.91 48.91 0 0 0 -34.5-13.5q-18 0-28 10-1 1-37.5 24t-107 50q-70.5 27-173 49t-234.5 22a1628.47 1628.47 0 0 1 -194-12 1866.47 1866.47 0 0 1 -206-37q-106-26-195-56.5t-162-68.5a59.82 59.82 0 0 0 -23-5q-20 0-34 13.5t-14 35.5q0 31 27 44 106 53 227 91.5t259 61.5v114q8 81 30 145.5t60 115.5q76 98 192 98 45 0 83.5-17.5t68.5-51q30-33.49 50-81t29-107.5v-200a781.15 781.15 0 0 0 140-26.5q68-19.5 124-42.5t95-45q39-22 53-35 19-14 19-41zm-1259-228q0 15 9.5 23a33.82 33.82 0 0 0 22.5 8l9-1a668.19 668.19 0 0 1 85-24.5q47-10.5 104-19.5 115-18 147-18 11 0 19.5-8.5t8.5-21.5q0-7-6.5-16a134.06 134.06 0 0 0 -16.5-18.5 269.84 269.84 0 0 0 -22.5-19q-12.5-9.5-24.5-17.5t-27-16.5q-15-8.5-33-17.5-17-9-38.5-18t-46.5-19q-49-19-54-19l-8-2a28.47 28.47 0 0 0 -22 10 33.37 33.37 0 0 0 -9 23q0 23 24 29 102 31 172 77-147 23-212 39-33 9-51 15t-23 11q-7 12-7 21zm749-17q0 13 8.5 21.5t19.5 8.5a1060.83 1060.83 0 0 1 286 39l10 1q12 0 21-9.5t9-23.5q0-16-15-26-8-4-28-8.5t-53-11.5q-33-7-62.5-11t-57.5-6q36-18 82.5-38.5t103.5-41.5q22-6 22-30 0-14-9.5-22.5a32.6 32.6 0 0 0 -22.5-8.5q-7 0-36 11.5t-80 32.5q-51 22-96.5 45.5a949.33 949.33 0 0 0 -86.5 50.5q-15 11-15 27zm764 366q0 89-6 141-5 6-9.5 11.5a100.8 100.8 0 0 1 -12 12 158.34 158.34 0 0 1 -19.5 14 310.69 310.69 0 0 1 -31 16.5q-77 41-236 74-79 17-158 28t-160 17q-63 271-284 271-231 0-315-253-56-2-114-5.5t-118-8.5q-123-9-225.5-22a1804.6 1804.6 0 0 1 -197.5-36q-48-12-89-24t-77-26q-35-13-64-26a561.44 561.44 0 0 1 -53-27 438.68 438.68 0 0 1 -45-30 348.4 348.4 0 0 1 -41-37q-7-17-7-90a809.57 809.57 0 0 1 8-115.5 762.1 762.1 0 0 1 23-106.5q31-103 104-231 74-128 177-219.5a1119.17 1119.17 0 0 1 228-156.5l-135-397-5-26a79 79 0 0 1 6-30.5 88.36 88.36 0 0 1 16.5-26 79.72 79.72 0 0 1 25.5-18.5 77 77 0 0 1 33-7 83.48 83.48 0 0 1 48 15 74.78 74.78 0 0 1 30 40l129 383q183-69 412-69 199 0 344 34 148 36 300 111l120-353a77.63 77.63 0 0 1 28.5-39 76.78 76.78 0 0 1 46.5-15q37 0 60 25t23 57l-5 26-132 390q90 70 153 138t104 136q79 135 105 270 15 77 15 185z"/></svg>