<svg viewBox="0 0 1768.06 1601.1" xmlns="http://www.w3.org/2000/svg"><path d="m889 1335.1q45 11 82 17.5a385.33 385.33 0 0 1 73 20.5q-47 8-87.5 11t-76.5 3q-78 0-149-13a340.73 340.73 0 0 1 74.5-21.5q38.5-6.49 83.5-17.5zm-1-485q-29 0-52-14t-23-39q0-37 75-37 68 0 68 33a41.94 41.94 0 0 1 -6 22 67.5 67.5 0 0 1 -16 18 79.8 79.8 0 0 1 -22 12.5 67.94 67.94 0 0 1 -24 4.5zm-713 46 13-2q-13-65-13-137 0-36 9-117-102 18-102 115v8l2 11q7 54 29 88t62 34zm1511-141q0-97-100-115 3 29 4 58.5t1 60.5q0 77-9 135l12 2q22 0 39-11.5a101.7 101.7 0 0 0 29-30.5q12-19 18-44.5a237.42 237.42 0 0 0 6-54.5zm-1020-2a71.88 71.88 0 0 1 -33.5-8 85.32 85.32 0 0 1 -27-22 114.51 114.51 0 0 1 -18.5-32.5 110.59 110.59 0 0 1 -7-39.5 117.65 117.65 0 0 1 7-41 113.22 113.22 0 0 1 18.5-33 85.59 85.59 0 0 1 27-22 72 72 0 0 1 33.5-8q36 0 60.5 29.5t24.5 74.5q0 42-24.5 72t-60.5 30zm437 0a71.88 71.88 0 0 1 -33.5-8 91 91 0 0 1 -27.5-22 100.49 100.49 0 0 1 -18.5-32.5 118.38 118.38 0 0 1 -6.5-39.5 126 126 0 0 1 6.5-41 99.74 99.74 0 0 1 18.5-33 91.28 91.28 0 0 1 27.5-22 72 72 0 0 1 33.5-8q36 0 60.5 29.5t24.5 74.5q0 42-24.5 72t-60.5 30zm618 694q0 67-50 111-52 43-118 43-112 0-263-123l-78-63q-54-44-109.5-72.5a469.67 469.67 0 0 0 -115.5-41.5 193.13 193.13 0 0 0 50.5-36.5 238.19 238.19 0 0 0 38.5-50.5 234.92 234.92 0 0 0 24-60 263.1 263.1 0 0 0 8-64q0-83-41.5-141t-122.5-74q3-11 19-21t44-10a150.91 150.91 0 0 1 56.5 11q27.49 11 56.5 32.5t60 54.5q31 33 66 77l65 79q29 37 88.5 78.5t147.5 91.5l88 49q86 49.01 86 130zm-1495 154a188.18 188.18 0 0 1 -66-11.5 167.82 167.82 0 0 1 -54-32 152.08 152.08 0 0 1 -36.5-49 141.83 141.83 0 0 1 -13.5-61.5q0-80 86-130l68-38q65-38 116.5-69t89.5-61q22-17 54-54t75-94q117-157 227-157a94.91 94.91 0 0 1 43 10q20 10 20 21 0 12-12 20a250.22 250.22 0 0 1 -27 15.5 206.91 206.91 0 0 0 -27 16q-12 8.5-12 23.5 0 9 9 9l22-6q72-30 112-30h6q34 0 62 12a135 135 0 0 1 47.5 33.5q19.5 21.51 30 52t10.5 66.5q0 173-199 200l-29 7q-131 13-274 132-55 46-101 79t-85.5 54.5q-39.5 21.51-74.5 31.5t-67 10zm1542-848q1 56-15 99t-43.5 73q-27.49 30-62.5 46t-71 16l-16-1q-32 98-95 174-41-28-72.5-54.5t-52.5-52.5a271.06 271.06 0 0 0 17-48.5 220.17 220.17 0 0 0 6-52.5q0-38-13-71-21-57-21-132a319.11 319.11 0 0 1 4-51.5q4-24.5 9-47.5t9-45.5a259.07 259.07 0 0 0 4-45.5q0-72-41-134-42-63-96-82-24-8-75-8-44 0-128 45t-127 45a162.92 162.92 0 0 1 -66-14q-32-14-64.5-31t-64.5-31a163.09 163.09 0 0 0 -66-14q-56 0-77 8-59 23-98 86-39 65-39 129 0 15 3.5 38t10.5 55a512 512 0 0 1 9.5 56.5 433.05 433.05 0 0 1 2.5 43.5 344.94 344.94 0 0 1 -3.5 46.5 421.19 421.19 0 0 1 -11.5 54.5q-8 32-13 54t-6 36a224.78 224.78 0 0 0 6.5 62.5 242.73 242.73 0 0 0 21.5 55.5q-19 21-50.5 47t-75.5 57a429.23 429.23 0 0 1 -56-80q-24-44-41-98l-17 1q-39 4-72.5-12.5t-62.5-46.5q-58-58-58-173 0-47 13-87t37-68.5a167.74 167.74 0 0 1 58.5-44.5q34.5-16 77.5-16l15 1q33-127 98.5-228t155-171a663 663 0 0 1 197.5-106.5q108-36.5 225-34.5 86 2 162.5 16a649.69 649.69 0 0 1 146.5 45 589.22 589.22 0 0 1 130 79 691.4 691.4 0 0 1 109 109.5 733.46 733.46 0 0 1 85 135 808.54 808.54 0 0 1 57 155.5l15-1q49 0 97 27 48 28 67.5 78t21.5 109z"/></svg>