<svg viewBox="0 0 2262 1680" xmlns="http://www.w3.org/2000/svg"><path d="m1886 1475q96 0 168-70t72-171q0-98-70-170-71-69-170-69-101 0-171 71-35 35-52.5 76.5t-17.5 91.5q0 98 72 170 71 71 169 71zm-297-584a110.34 110.34 0 0 0 46-9.5 108.41 108.41 0 0 0 36-26 123.91 123.91 0 0 0 32-83.5 137.49 137.49 0 0 0 -10-52.5 141.23 141.23 0 0 0 -26.5-42.5 124.48 124.48 0 0 0 -38.5-28.5 107.73 107.73 0 0 0 -47-10.5q-25 0-45.5 10a112.91 112.91 0 0 0 -35.5 27 119.47 119.47 0 0 0 -23 39.5 140.79 140.79 0 0 0 -8 47.5q0 28 9.5 51.5a130.21 130.21 0 0 0 26 41 116 116 0 0 0 84.5 36.5zm-16 602a90.12 90.12 0 0 0 -8.5-39q-8.51-18-24.5-35-32-35-62-35-26 0-39 22h-538q-13-22-39-22-33 0-63 33-31 32-31 74 0 55 47 55 23 0 45.5-17t36.5-45h546q14 28 36.5 45t45.5 17q48 0 48-53zm-818-739a122.54 122.54 0 0 0 8.5 45.5 115.82 115.82 0 0 0 23 37 106.7 106.7 0 0 0 34.5 24.5 103.56 103.56 0 0 0 43 9q50 0 88-38 39-39 39-97a129.85 129.85 0 0 0 -7.5-44 103.8 103.8 0 0 0 -22-36.5 113.33 113.33 0 0 0 -34.5-25 101.27 101.27 0 0 0 -44-9.5 114.29 114.29 0 0 0 -48 10.5 135.16 135.16 0 0 0 -41 29 140.28 140.28 0 0 0 -28.5 43 129.37 129.37 0 0 0 -10.5 51.5zm-309 652q96 0 168-69 71-70 71-171t-70-170q-69-70-169-70t-170 70q-70 69-70 170t70 171q72 69 170 69zm1816-53q0 79-6 134a130.74 130.74 0 0 1 -16 18.5 137.31 137.31 0 0 1 -16 13 149.39 149.39 0 0 1 -18 10.5l-22 11q-32 17-83.5 33.5t-122.5 33.5q-140 35-359 54-109 10-206.5 14.5t-185.5 4.5q-183 0-435-18-128-9-227.5-22t-172.5-30q-147-35-250-82-104-46-135-93-7-13-7-85 0-125 34-228a1007.25 1007.25 0 0 1 43-110q26-57 61-117 72-123 175-212 106-92 282-181l-48-412-2-9q0-32 23.5-56.5t59.5-24.5q29 0 52.5 20.5t27.5 52.5l44 368q159-46 348-46 375 0 668 156l185-329q22-41 71-41 38 0 59.5 25t21.5 57a73.5 73.5 0 0 1 -10 38l-191 342q41 33 78 66.5a942.87 942.87 0 0 1 70.5 71 833.58 833.58 0 0 1 63 80 803.61 803.61 0 0 1 55.5 93.5 990 990 0 0 1 42.5 99.5 830.09 830.09 0 0 1 28.5 96.5 732.53 732.53 0 0 1 15.5 98q4.5 50 4.5 105z"/></svg>