<svg viewBox="0 0 1712 1556" xmlns="http://www.w3.org/2000/svg"><path d="m1322 1381v92l3 46q1 22-31 22h-17l-48 7-54-1-24 1q-19 2-19-18l4-186-8-39q0-24 19-22l24 1 32-7 68 10 24-6q16 3 21 15 6 15 6 85zm-1280-104h960q20 0 32 12t12 32v193a41.18 41.18 0 0 1 -12 29.5q-12 12.49-32 12.5h-960q-17 0-29.5-12.5t-12.5-29.5v-193q0-20 12.5-32a41.18 41.18 0 0 1 29.5-12zm1514-1236q61 0 108 48 48 47 48 109 0 51-26.5 98t-73 82.5q-46.5 35.5-108.5 55.5t-131 18l-120-2q-53-2-95 7.5t-74 26.5q-62 32-62 67 0 29 52 59 26 16 70 24t105 10q59 2 97.5 7t59.5 12q41 14 68 36 29 23 45.5 59.5t16.5 78.5q0 146-185 176l-49 9q-114 18-114 94 0 20 33 44 32 21 32 33 0 27-39 27-37 0-89-18t-85.5-47q-33.5-29-33.5-69 0-27 19-48.5a270.67 270.67 0 0 1 42-38.5q23-17 42-31.5t19-28.5q0-37-165-41-310-6-470-127t-160-316q0-130 80-238 80-109 225-163 147-54 314-54 85 0 160.5 16.5t125.5 50.5q51 35 86 57.5t55 32.5q39 20 86 20 32 0 51-15t19-41q0-12-2.5-19.5a72.2 72.2 0 0 0 -6-13.5 129.6 129.6 0 0 1 -6-11.5 29.84 29.84 0 0 1 -2.5-12.5q0-23 38-23z"/></svg>