<svg viewBox="0 0 2262 1613" xmlns="http://www.w3.org/2000/svg"><path d="m1772 1138v93q14-21 22-36t12.5-26a206.12 206.12 0 0 0 7-19.5q2.51-8.51 4.5-16.5zm-1248 99v-96l-49-5q15 51 49 101zm106-402-4 15a32.6 32.6 0 0 0 8.5 22.5q8.5 9.5 22.5 9.5 16 0 26-16l8-8q13-17 37.5-30t54.5-13a110.4 110.4 0 0 1 35 6 170.92 170.92 0 0 1 32.5 14.5q14.5 8.5 23.5 17t9 13.5q10 15 27 15 32 0 32-30l-5-16q0-7-24-31a204.61 204.61 0 0 0 -56.5-38.5q-31.5-14.5-73.5-14.5-39 0-67 12.5t-47 27.5q-19 15-28.5 28.5t-10.5 15.5zm703 16q0 12 9.5 21.5t21.5 9.5q18 0 28-16 39-51 99-51 58 0 100 51 9 15 28 15 12 0 21.5-9.5t9.5-21.5l-4-15q-1-1-11-14.5t-29-29q-19-15.5-47.5-28t-67.5-12.5a174.6 174.6 0 0 0 -38 4 184.49 184.49 0 0 0 -34 11 182.36 182.36 0 0 0 -30.5 17 244.07 244.07 0 0 0 -26 20.5 150.18 150.18 0 0 0 -18 19q-6.5 8.5-6.5 12.5-5 5-5 16zm241 300v247a518.88 518.88 0 0 0 143-101v-155zm-996-6v156a623.25 623.25 0 0 0 67.5 55 529.58 529.58 0 0 0 77.5 45v-248zm199 10v269q38 14 74 23.5a638.74 638.74 0 0 0 70 14.5v-303zm598 2v305q41-8 76.5-18a640.5 640.5 0 0 0 67.5-23v-268zm-198 3v322q48-2 84-5t59-6v-312l-69 1zm-201 0v312q26 3 63 5.5t83 4.5v-322zm1286 127q0 45-1 73t-3 40q-59 86-403 150-342 63-681 63-132 0-268-6t-279-20q-72-7-139-17.5t-132-26.5q-129-32-214-68.5t-135-91.5q-3-20-5-45.5t-2-59.5a798.83 798.83 0 0 1 8.5-118 712.15 712.15 0 0 1 26.5-113 954.56 954.56 0 0 1 45-113.5q27-57.5 63-120.5 10-17 28.5-43.5t46.5-60.5q28-34 61.5-68.5a972 972 0 0 1 73.5-68 1048.94 1048.94 0 0 1 87.5-65.5 1063.25 1063.25 0 0 1 105.5-62l-113-335-4-26q0-33 23-58t59-25q24 0 46 14.5t30 40.5l108 320q89-33 191.5-49t220.5-16a2250.3 2250.3 0 0 1 237.5 13q122.5 13 245.5 59l83-321q8-28 30-45a79.63 79.63 0 0 1 50-17q36 0 58 25t22 57l-2 21-91 347 14 7q31 16 67.5 40.5t75.5 56q39 31.5 79.5 68.5t79.5 78q78 81 141 233 65 151 65 354z"/></svg>