<svg viewBox="0 0 2164 1703" xmlns="http://www.w3.org/2000/svg"><path d="m1298 137q0-13 17-24 8-5 65-30.5t166-73.5q20 0 26 22l19 140q0 30-26 30l-245-38q-22-4-22-26zm-472 26-246 38q-9 0-17-9a30.64 30.64 0 0 1 -8-21l19-140q4-22 26-22 4 0 233 104 15 11 15 25 0 21-22 25zm-328 1197q70 0 120 52 51 51 51 120t-51 120q-50 51-120 51-72 0-122-51-51-51-51-120 0-70 50-122 50-50 123-50zm1170 0q70 0 120 50 26 26 39 56t13 66q0 69-51 120-50 51-121 51-72 0-122-51-51-51-51-120 0-72 49-122 50-50 124-50zm-448-1019h-294q-12 0-21-9a29.92 29.92 0 0 1 -9-22v-71q0-11 8.5-20.5t24.5-9.5q0-209 143-209 145 0 145 209 16 0 24.5 9.5t8.5 20.5v71a30.83 30.83 0 0 1 -8.5 22q-8.5 9-21.5 9zm-276 210h12q29 8 35 31.5t6 52.5v201q0 64-70 64h-273q-51 0-51-51 0-55 58-139 57-83 132.5-121t150.5-38zm703 285q0 64-70 64h-395q-103 0-103-64v-201q0-27 6-44t19.5-26q13.5-9 35.5-12t54-3q106 0 181.5 14t119.5 43q69 47 111 115 41 67 41 114zm-1555 277h1974q-20-64-46-88-55-56-165-84-42-10-58-48-36-89-64-145t-46-82q-89-121-219-168-64-23-154-35t-209-12q-167 0-253 20-82 17-150 59.5t-126 115.5q-23 29-52 72.5t-54.5 84.5q-25.5 41-43 70.5t-18.5 30.5q-19 33-59 38-46 7-80.5 16.5a490.41 490.41 0 0 0 -60.5 20.5 407.4 407.4 0 0 0 -45 22 182.42 182.42 0 0 0 -33 24q-26 23-38 88zm2072 129q0 131-71 209-72 81-181 81h-13q0-93-70-163-70-68-161-68-96 0-163 67-69 69-69 164h-708q0-95-66-163t-164-68q-96 0-164 68-67 67-67 162-36-5-73.5-21t-77.5-45q-79-58-97-107a334.4 334.4 0 0 1 -14-58.5q-5-32.5-5-73.5a624.52 624.52 0 0 1 7-96 429.69 429.69 0 0 1 22-85q29-80 110-122a852.63 852.63 0 0 1 81.5-34 376.86 376.86 0 0 1 80.5-19l40-6q15-29 43.5-76t72.5-112q44-66 86-112.5t82-76.5q81-61 183-88 52-13 125.5-20t171.5-7q211 0 331 33a651.9 651.9 0 0 1 115 43 452.85 452.85 0 0 1 97 64 566.84 566.84 0 0 1 80 80 545.9 545.9 0 0 1 61 93q26 51 46.5 95t34.5 84a474.74 474.74 0 0 1 68 19.5 401.3 401.3 0 0 1 64 30 423.52 423.52 0 0 1 54.5 37.5q24.49 20 39.5 42a335.33 335.33 0 0 1 27.5 52.5 492.17 492.17 0 0 1 21.5 62.5 562.76 562.76 0 0 1 14 67.5 464.3 464.3 0 0 1 5 66.5z"/></svg>