<svg viewBox="0 0 1924 1790" xmlns="http://www.w3.org/2000/svg"><path d="m415 99h-88a46.2 46.2 0 0 0 -19 4q-9 4-16 14l34-4q70 0 141 28-2-15-14-28.5t-38-13.5zm138 219 4-37q-27-26-51-45.5a285.9 285.9 0 0 0 -48-32 275.07 275.07 0 0 0 -49.5-20 252.68 252.68 0 0 0 -53.5-9.5q94 40 124 123 11 31 22.5 55.5a277.89 277.89 0 0 0 25.5 44 248.38 248.38 0 0 0 31.5 36 403.63 403.63 0 0 0 39.5 32.5 380.88 380.88 0 0 1 -24-39.5 175.81 175.81 0 0 1 -13.5-34 190.86 190.86 0 0 1 -6-34q-1.5-17.5-1.5-39.5zm464 0 4-37q-95-96-204-107 55 25 84 54t43 72q19 57 47.5 98a237 237 0 0 0 70.5 67 262.79 262.79 0 0 1 -22.5-38 232.57 232.57 0 0 1 -13.5-35.5 215.78 215.78 0 0 1 -7-35.5 345.29 345.29 0 0 1 -2-38zm264-144q51 22 76 48 14 14 29.5 40.5t31.5 67.5a318.51 318.51 0 0 0 29.5 59.5 275.7 275.7 0 0 0 46.5 55.5q57 52 115 61 0-43-42-117a477.26 477.26 0 0 0 -50.5-72q-29.5-35-70.5-69-80-68-165-74zm-497 364q0 63 47 109 46 46 108 46 31 0 57.5-11a162.53 162.53 0 0 0 47-29.5 142.12 142.12 0 0 0 33-44.5 166.45 166.45 0 0 0 15.5-56q-39-20-66.5-38.5a338.29 338.29 0 0 1 -47.5-38 285.78 285.78 0 0 1 -35-41 432.82 432.82 0 0 1 -29-48.5 142.45 142.45 0 0 0 -50.5 17.5 168.16 168.16 0 0 0 -41.5 33.5 147 147 0 0 0 -28 46 151.81 151.81 0 0 0 -10 55zm-464 0q0 63 47 109 46 46 108 46a153.2 153.2 0 0 0 56-10.5 159.34 159.34 0 0 0 48-29 152 152 0 0 0 34.5-44.5 154.77 154.77 0 0 0 16.5-57 386 386 0 0 1 -54.5-30 430.72 430.72 0 0 1 -52-40 355.65 355.65 0 0 1 -43.5-46.5 236.1 236.1 0 0 1 -30-49.5 142.45 142.45 0 0 0 -50.5 17.5 168.16 168.16 0 0 0 -41.5 33.5 147 147 0 0 0 -28 46 151.81 151.81 0 0 0 -10 55zm147 1108v-658h-8q-92 0-177-41v699q0 20 12.5 33.5t32.5 13.5h93q20 0 33.5-13.5t13.5-33.5zm-339-1191q-29 55-29 119 0 110 83 190 83 79 203 79h1080q120 0 203-79 83-80 83-190 0-75-38.5-135.5t-104.5-97.5q9 18 19.5 37t19.5 38.5a280.13 280.13 0 0 1 15 40.5 155.74 155.74 0 0 1 6 43q0 43-34 58-9 93-74 152-67 61-157 61-83 0-147-51-32-26-51.5-57.5a254.08 254.08 0 0 1 -29.5-69.5l-8-9q-17 81-82 135-66 52-146 52t-144-51q-32-26-53-57.5a212.49 212.49 0 0 1 -30-69.5l-9-9q-18 86-83 136-66 51-145 51-43 0-79.5-13.5a223.44 223.44 0 0 1 -65.5-37.5 236.78 236.78 0 0 1 -49.5-56.5 301.89 301.89 0 0 1 -32.5-70.5l-64-70q-17-18-31-34.5a323.77 323.77 0 0 1 -25-33.5zm1796 166q0 152-114 260-111 107-271 107h-975v658q0 56-41 100t-103 44h-93q-60 0-102-43-41-41-41-101v-761a390.81 390.81 0 0 1 -75-57 358 358 0 0 1 -58-73 370.16 370.16 0 0 1 -37.5-85.5 334 334 0 0 1 -13.5-95.5q0-130 89-234 0-128 95-188v-7q0-31 11.5-57.5a143.12 143.12 0 0 1 31.5-46 149.37 149.37 0 0 1 45.5-30.5 136.18 136.18 0 0 1 54.5-11h93a143.44 143.44 0 0 1 55.5 11 140.33 140.33 0 0 1 46 30.5 147.2 147.2 0 0 1 31 46q11.5 26.5 11.5 57.5v62h25q67-94 201-94a396.38 396.38 0 0 1 65 5 298.21 298.21 0 0 1 58.5 16 312.93 312.93 0 0 1 56.5 29 512.84 512.84 0 0 1 58 44h24q67-94 201-94a402.14 402.14 0 0 1 57 4 267.58 267.58 0 0 1 57 15 382.66 382.66 0 0 1 60 29.5q31 18.5 66 46.5 62 5 117 26t106 62a402.18 402.18 0 0 1 84.5 56.5 363.81 363.81 0 0 1 66 75.5 354.84 354.84 0 0 1 42.5 91 346.53 346.53 0 0 1 15 102z"/></svg>