<svg viewBox="0 0 2316 1963" xmlns="http://www.w3.org/2000/svg"><path d="m580 1122q0 33 11 61a157.57 157.57 0 0 0 29.5 48.5 136.06 136.06 0 0 0 42.5 32 116.49 116.49 0 0 0 51 11.5 123 123 0 0 0 52-11.5 132.66 132.66 0 0 0 43.5-32 157.57 157.57 0 0 0 29.5-48.5q11-28 11-61 0-63-42-108-39-44-94-44-53 0-94 44-40 41-40 108zm1036 153a119.72 119.72 0 0 0 51.5-11.5 134.33 134.33 0 0 0 43-32 157.57 157.57 0 0 0 29.5-48.5q11-28 11-61 0-64-41-108-39-44-94-44-54 0-95 44-39 42-39 108 0 33 11 61t29 48.5a128.91 128.91 0 0 0 42.5 32 119.72 119.72 0 0 0 51.5 11.5zm-93 280 1-12q0-18-12-18-11 0-56 26-46 26-107 26h-21l-20-1q-29-2-69-25-41-24-68-24-19 0-42 13-15 8-28 16a238.7 238.7 0 0 1 -27.5 14.5 175.32 175.32 0 0 1 -31.5 10.5q-17 4-39 4a208.56 208.56 0 0 1 -30-2.5 251.85 251.85 0 0 1 -39-9.5q-41-13-60-30-11-8-21.5-17t-26.5-9q-19 0-19 29v7q15 114 111 183 95 70 224 70 174 0 270.5-62t110.5-189zm790-209q0 38-45 38l-138-26q-6 63-25 117l108 34q26 8 26 38 0 17-11 27.5t-27 10.5l-12-1-112-37q-46 94-132.5 171.5t-205.5 132.5q-118 53-277 83-79 15-154.5 22t-148.5 7a1516.35 1516.35 0 0 1 -180-11 1732.55 1732.55 0 0 1 -190-34q-196-47-336-145-143-101-200-230-65 22-99.5 32t-37.5 10q-17 0-29-10.5t-12-27.5q0-29 29-38l120-38q-17-61-24-114l-151 27q-46 0-46-39 0-33 33-39l158-28-1-21v-20l3-59-163-23q-16-2-24.5-14a44.06 44.06 0 0 1 -8.5-26q0-17 11.5-27.5a38.14 38.14 0 0 1 26.5-10.5h6l161 23a786.65 786.65 0 0 1 43.5-154.5q29.5-74.5 75.5-147.5-9-80-14-162t-5-170q0-230 42-348t119-118q158 0 505 405 105-15 195-15 89 0 194 15 73-90 143.5-162.5t139.5-128.5q139-114 222-114 78 0 119 119t41 346q0 146-18 333 92 142 119 300l146-21h7q17 0 27 11t10 28q0 33-33 39l-148 21 3 62-1 42 145 26q31 6 31 40z"/></svg>