<svg viewBox="0 0 2422.04 1680" xmlns="http://www.w3.org/2000/svg"><path d="m1558 732 3-14q0-12-9-21.5t-23-9.5q-20 0-26 16 0 5-8 13.5a107.58 107.58 0 0 1 -20.5 16.5 129.89 129.89 0 0 1 -29 13.5 102.26 102.26 0 0 1 -32.5 5.5q-47 0-74-31-11-12-25-12a31.36 31.36 0 0 0 -21.5 8.5q-9.5 8.5-9.5 22.5a23.2 23.2 0 0 0 2 9.5 87.4 87.4 0 0 0 5 9.5q0 5 11.5 14.5t29.5 18.5a249.74 249.74 0 0 0 39.5 15.5 146.41 146.41 0 0 0 42.5 6.5 156.18 156.18 0 0 0 54-9.5 211.61 211.61 0 0 0 46-23q20-13.5 32.5-27t12.5-22.5zm-967 94q0 13 5 18 32 32 62 44a170.7 170.7 0 0 0 64 12 120 120 0 0 0 55.5-7 208.32 208.32 0 0 0 47-24.5q20.5-14.5 33.5-29.5t14-22l3-14a32.49 32.49 0 0 0 -8-21.5q-8-9.5-22-9.5-20 0-29 16-35 51-94 51-44 0-77-33-8-13-24-13-9 0-19 7-11 11-11 26zm-519 278v12q0 92 71 147 73 56 181 56 45 0 81.5-13.5a269.92 269.92 0 0 0 67.5-36.5 368 368 0 0 0 57-52.5q26-29.51 50-61t47.5-63.5q23.5-32 47.5-59-65-16-140-71-33-24-60.5-40.5a398.35 398.35 0 0 0 -53-27 280.31 280.31 0 0 0 -49.5-15.5 306 306 0 0 0 -51-6q-51-2-96.5 17.5a260.07 260.07 0 0 0 -79.5 52.5 249.28 249.28 0 0 0 -53.5 75.5q-19.5 42.5-19.5 85.5zm945 320h26a1106.82 1106.82 0 0 0 178-14q86-14 152-40t105-64.5q39-38.51 37-86.5-2-68-52-126a285.2 285.2 0 0 0 -61-51q-35-22-80-38a628 628 0 0 0 -86.5-23 456.19 456.19 0 0 0 -84.5-8q-86 0-177 37-90 36-134 97t-44 141q0 83 57 129.5t164 46.5zm1405-71q0 73-5 82-59 59-159 102t-235 75q-136 32-374 50-240 18-439 18-175 0-340.5-13.5t-325.5-41.5q-317-56-377-138-4-28-5.5-60t-1.5-70q-160-78-160-243 0-136 91-223 47-45 104-67t129-22h26q70-81 168-160l-191-342a82.77 82.77 0 0 1 -10-39 72.89 72.89 0 0 1 6-29 90.54 90.54 0 0 1 16.5-25.5 78.36 78.36 0 0 1 26-18.5 80.37 80.37 0 0 1 33.5-7q49 0 71 41l184 329q263-157 668-157a1314.55 1314.55 0 0 1 173.5 11.5 1328.67 1328.67 0 0 1 174.5 35.5l44-370q4-32 27.5-51.5t52.5-19.5q35 0 59 23.5t24 55.5l-2 11-48 411q60 29 100.5 52.5t62.5 38.5q23 16 54.5 40.5t72.5 61.5q68 60 124.5 138a1009.33 1009.33 0 0 1 97 164.5 933.8 933.8 0 0 1 62.5 178q22 91.5 21 178.5z"/></svg>