<svg viewBox="0 0 2280 2230" xmlns="http://www.w3.org/2000/svg"><path d="m951 806a87.39 87.39 0 0 0 -7-34.5 89 89 0 0 0 -19-28.5 96.08 96.08 0 0 0 -28.5-19.5 82.45 82.45 0 0 0 -34.5-7.5 79.14 79.14 0 0 0 -34 7.5 100 100 0 0 0 -28.5 20 90.77 90.77 0 0 0 -19.5 29 87.39 87.39 0 0 0 -7 34.5q0 36 25.5 62t63.5 26q38 0 63.5-25.5t25.5-63.5zm238 221a67.32 67.32 0 0 0 -6.5-33 89.3 89.3 0 0 0 -20.5-28 110.76 110.76 0 0 0 -29.5-19.5 82.45 82.45 0 0 0 -34.5-7.5 83.85 83.85 0 0 0 -34 7 96.88 96.88 0 0 0 -28.5 19 86.53 86.53 0 0 0 -19.5 28 83.85 83.85 0 0 0 -7 34 87.39 87.39 0 0 0 7 34.5 90.77 90.77 0 0 0 19.5 29 98 98 0 0 0 29 20 84.76 84.76 0 0 0 35.5 7.5q42 0 64.5-27.5a107.15 107.15 0 0 0 24.5-63.5zm-475-444a83.85 83.85 0 0 0 -7-34 96.88 96.88 0 0 0 -19-28.5 85.19 85.19 0 0 0 -28.5-19.5 89.88 89.88 0 0 0 -35.5-7 83.85 83.85 0 0 0 -34 7 96.88 96.88 0 0 0 -28.5 19 85.19 85.19 0 0 0 -19.5 28.5 88.52 88.52 0 0 0 0 69 89 89 0 0 0 19 28.5 98.06 98.06 0 0 0 28 19.5 81.43 81.43 0 0 0 35 7.5q37 0 63.5-26.5t26.5-63.5zm1035 1012a125.51 125.51 0 0 1 -15 21.5 150 150 0 0 1 -19.5 19 140.19 140.19 0 0 1 -20.5 14q-10 5.51-16 5.5-13 0-30-16t-42-47l-19-23q-51-51-90-93.5t-69-78.5q-11-14-23.5-27.5t-12.5-34.5q0-11 7.5-16t22.5-14q30 9 61 35.5t69 64.5l37 37q39 38 82 73.5a533.21 533.21 0 0 1 78 79.5zm-1324-1457q-22 81-90.5 154.5t-176.5 130.5q-38-113-38-201 0-29 11-59-38-35-63-59t-40-40q-15-16-21.5-26.5t-6.5-18.5q0-19 26-19 20 0 34 13t29 27a552.39 552.39 0 0 0 46 37.5 216.19 216.19 0 0 1 41 38.5 201.76 201.76 0 0 1 29.5-8 188.17 188.17 0 0 1 35.5-3q64 0 184 33zm1813 846 42 45q-40 60-70 60-24 0-54-37l-51 26-42 19-292 151a91.18 91.18 0 0 1 -12 5 44.43 44.43 0 0 1 -14 2 43.33 43.33 0 0 1 -25-7.5 95.13 95.13 0 0 1 -20-18.5 154.7 154.7 0 0 1 -16.5-25q-7.5-14-13.5-26a393.39 393.39 0 0 0 -53-79.5 958.49 958.49 0 0 1 -59-76.5l-41-60q0-12 29-19a124.79 124.79 0 0 1 25.5-6.5q11.5-1.5 20.5-2.5 48-2 91.5-6a579.8 579.8 0 0 0 87.5-15q22-6 43.5-10t45-8.5q23.51-4.5 51.5-11t64-18.5l8-3-16-19q-21-25-32.5-42t-11.5-29q0-13 7.5-18t22.5-14a137.85 137.85 0 0 1 39.5 18.5 309.75 309.75 0 0 1 35 27.5q16.5 15 32 31t31.5 31zm-893 701q0 14-6 24l-122 277-49 118q41 32 41 53 0 30-55 73a687.16 687.16 0 0 1 -98.5-86 1295.49 1295.49 0 0 0 -95.5-91q-16-13-33.5-27.5a409.74 409.74 0 0 1 -33-30.5 355.37 355.37 0 0 1 -29-34 136.74 136.74 0 0 1 -20.5-39q8-15 13-23t17-8a62.67 62.67 0 0 1 25.5 5.5 125.28 125.28 0 0 1 24 14q11.5 8.51 22.5 18a264.57 264.57 0 0 0 21 16.5l3-9 34-204q2-16 5.5-56.5t5.5-106.5q3-96 22-96l26 14 37 23q41 26 79 54.5a391.59 391.59 0 0 0 83 47.5q83 33 83 73zm-3-363q0 23 10.5 47.5t35.5 50.5l106 110q-65 36-119 36-28 0-62-15l-4-2-119-61q-133-67-248-145t-219-162q-103-85-189-172.5a1918.11 1918.11 0 0 1 -157-180.5q-71-94-120-180.5t-78-167.5q93-41 182-135 45-48 74-94.5a483.8 483.8 0 0 0 46-94.5 1409 1409 0 0 1 235 101.5 1636.07 1636.07 0 0 1 219 143.5 2318.07 2318.07 0 0 1 385 375.5q171 210.5 302 461.5 17 32 17 64a170.54 170.54 0 0 1 -6.5 45.5 316.63 316.63 0 0 1 -17.5 47.5l-47-41-48-42q-12-10-23.5-21a209.06 209.06 0 0 0 -23.5-19.5 126.66 126.66 0 0 0 -25.5-14q-13.5-5.5-30.5-5.5-34 0-54.5 20.5t-20.5 49.5z"/></svg>