<svg viewBox="0 0 2170 1583" xmlns="http://www.w3.org/2000/svg"><path d="m1082 851a80 80 0 0 1 -24.5-4 103.68 103.68 0 0 1 -23-10.5 59 59 0 0 1 -17.5-16.5 37.52 37.52 0 0 1 -7-22q0-37 75-37 68 0 68 35 0 24-20.5 39.5t-50.5 15.5zm-219-304q36 0 60.5 29.5t24.5 74.5q0 45-24.5 74.5t-60.5 29.5a72 72 0 0 1 -33.5-8 85.46 85.46 0 0 1 -27-22 113 113 0 0 1 -18.5-33 123.57 123.57 0 0 1 0-82 113 113 0 0 1 18.5-33 85.46 85.46 0 0 1 27-22 72 72 0 0 1 33.5-8zm437 0a72 72 0 0 1 33.5 8 91.13 91.13 0 0 1 27.5 22 99.54 99.54 0 0 1 18.5 33 132.56 132.56 0 0 1 0 82 99.54 99.54 0 0 1 -18.5 33 91.13 91.13 0 0 1 -27.5 22 74.14 74.14 0 0 1 -67 0 91.13 91.13 0 0 1 -27.5-22 99.54 99.54 0 0 1 -18.5-33 132.56 132.56 0 0 1 0-82 99.54 99.54 0 0 1 18.5-33 91.13 91.13 0 0 1 27.5-22 72 72 0 0 1 33.5-8zm-132 504q0 42-21 66.5t-59 24.5q-25 0-42.5-8a77.62 77.62 0 0 1 -28.5-21.5 85.38 85.38 0 0 1 -16-31.5 137.71 137.71 0 0 1 -5-37q0-56 25-97 25-45 61-45l11 1q15 2 28.5 14.5t24 33a200.79 200.79 0 0 1 16.5 46.5 239.37 239.37 0 0 1 6 54zm-106 205h41q199 0 327-86 130-89 130-214a227.72 227.72 0 0 0 -3-36.5 160.12 160.12 0 0 0 -10-35.5q-20-54-20-100v-29a406.65 406.65 0 0 1 3-46 495 495 0 0 1 11-59q12-63 12-93 0-81-56-152-56-70-156-70a157.37 157.37 0 0 0 -64.5 14q-31.5 14-63 31.5t-63 31.5a157.37 157.37 0 0 1 -64.5 14 177.42 177.42 0 0 1 -70-14q-33-14-65-31.5t-63.5-31.5a159.64 159.64 0 0 0 -65.5-14q-57 0-91 16.5t-62 49.5a234.31 234.31 0 0 0 -43.5 74q-15.5 42-15.5 83 0 25 14 92 7 33 10.5 58.5t1.5 44.5l-4 58a194.53 194.53 0 0 1 -5.5 37q-4.5 18-10 36t-9.5 36a165.29 165.29 0 0 0 -4 36q0 128 130 214t329 86zm1108 60q0 114-73 190-71 77-179 77-78 0-184.5-73t-231.5-223a740.15 740.15 0 0 1 -105 47.5 707.58 707.58 0 0 1 -115 30.5q-60 11-111 17.5t-94 6.5q-218 0-408-96-252 290-417 290-104 0-178-74-74-73-74-194 0-176 152-401 25-37 36-101-35-82-35-155 1-48 19.5-89.5t45-72.5q26.5-31 55.5-48.5t50-16.5a81 81 0 0 1 47 17q21 16 21 38 0 9-6.5 32t-20.5 61q-22 58-22 90 0 19 5.5 47.5t16.5 67.5q11 40 16 67.5t5 44.5a192 192 0 0 1 -1 21 70.46 70.46 0 0 1 -4 17 167.48 167.48 0 0 1 -8.5 18.5q-5.5 10.5-14.5 25.5l-42 75q-12 21-23 44t-20 46a415.53 415.53 0 0 0 -14.5 43.5q-5.5 20.5-5.5 36.5 0 51 40 51 32 0 70-28.5t87-82.5l29-32q-43-59-65-124 35-58 35-109 0-20-5.5-49.5t-16.5-67.5q-11-38-16.5-66.5t-5.5-45.5l2-26 26-70a430.11 430.11 0 0 0 16.5-49.5q5.5-21.5 5.5-39.5a104.91 104.91 0 0 0 -16-56q86-207 254-317 171-111 383-111 227 0 395 109.5t259 327.5a116.53 116.53 0 0 0 -11 49q0 38 28 108l2 4q10 22 14 40a156.77 156.77 0 0 1 4 34q0 14-4.5 40t-15.5 65q-22 79-22 116 0 62 29 107a470.71 470.71 0 0 1 -27 64.5 497.38 497.38 0 0 1 -38 62.5l37 36q90 111 153 111 41 0 41-51 0-49-69-178-22-40-35.5-65t-18.5-36a125.6 125.6 0 0 1 -9-48q0-20 5-46.5t15-62.5q21-72 21-119a159 159 0 0 0 -7-45.5q-7-23.5-18-51.5-14-34-19-55.5t-5-29.5a41.39 41.39 0 0 1 7-23.5 72.86 72.86 0 0 1 18-18.5 89.48 89.48 0 0 1 24.5-12.5 83.48 83.48 0 0 1 26.5-4.5q55 0 107 85 26 42 39 84a292.43 292.43 0 0 1 13 87q0 63-30 135l12 48 22 48q152 229 152 402z"/></svg>