<svg viewBox="0 0 2316 1954" xmlns="http://www.w3.org/2000/svg"><path d="m661 1252q49 0 90-22.5t66-59.5l-326-152q-14 33-14 62 0 70 54 121 51 51 130 51zm945 0q76 0 129-49 53-50 53-123 0-40-21-81l-328 152q22 45 66 73t101 28zm71 335q0-34-33-45-30-10-53-26a247.72 247.72 0 0 1 -39-33q-16-17-24-33.5t-8-26.5a51.73 51.73 0 0 0 -15.5-29q-12.49-12-32.5-12-22 0-35.5 14.5a48.91 48.91 0 0 0 -13.5 34.5v6q0 20 24 65-133 82-287 82a483.1 483.1 0 0 1 -78.5-6.5q-39.5-6.5-73.5-15.5t-57-18.5q-23-9.49-29-16.5-8-3-14-5a37.84 37.84 0 0 0 -12-2q-17 0-33 13t-16 35q0 31 24 44 73 37 146 54.5a624.16 624.16 0 0 0 146 17.5 606.83 606.83 0 0 0 177.5-26q85.5-26 169.5-79 71 59 119 59a45.48 45.48 0 0 0 34-14.5q14-14.5 14-36.5zm636-122q0 21-14.5 29a62.28 62.28 0 0 1 -30.5 8l-195-35q-16 50-44 101l184 59q26 8 26 38 0 20-11 29t-27 9l-12-1-205-64q-77 99-222 176-143 77-316 108-175 32-319 32-75 0-160.5-9.5t-181.5-29.5q-162-33-284.5-99.5t-207.5-165.5q-86 27-130 40t-47 13a48.26 48.26 0 0 1 -28-9q-13-9-13-29 0-29 29-38l141-44a376.72 376.72 0 0 1 -25.5-50.5q-11.5-27.5-22.5-57.5l-148 27q-46 0-46-38 0-32 33-38l140-26-13-108-130-20q-33-4-33-38 0-17 11.5-27.5a38.14 38.14 0 0 1 26.5-10.5h6l117 16q0-250 166-473 30-368 95.5-553.5t158.5-185.5q66 0 166.5 98.5t223.5 292.5q41-5 81-7.5t82-2.5q42 0 85 2.5t85 7.5q120-190 222-289.5t169-99.5q190 0 253 748 157 217 157 469l167-23h6q17 0 27.5 11t10.5 29q0 32-33 36l-179 28-12 90 190 36q31 6 31 39z"/></svg>