<svg viewBox="0 0 2262 1613" xmlns="http://www.w3.org/2000/svg"><path d="m1831 103-91 347q276 167 399 367 61 100 92 216.5t31 253.5q0 45-1 73t-3 40q-28 48-186 97-80 24-183.5 45t-234.5 38q-130 17-249 25t-231 8q-132 0-268-6t-279-20q-72-7-139-17.5t-132-26.5q-129-32-214-68.5t-135-91.5q-3-20-5-45.5t-2-59.5a802.51 802.51 0 0 1 37-242.5q37-117.5 112-232.5 151-230 397-358l-113-335-4-26q0-33 23-58t59-25q23 0 45.5 14.5a71.79 71.79 0 0 1 30.5 40.5l108 320q89-33 191.5-49t220.5-16a2250.3 2250.3 0 0 1 237.5 13q122.5 13 245.5 59l83-321q8-28 30-45a79.63 79.63 0 0 1 50-17q36 0 58 25t22 57zm-184 801a107 107 0 0 0 43.5-9 112.61 112.61 0 0 0 36-25 118.41 118.41 0 0 0 24.5-38 122.92 122.92 0 0 0 9-47 148 148 0 0 0 -9.5-53 138.42 138.42 0 0 0 -26-43.5 127.62 127.62 0 0 0 -38.5-29.5 103.71 103.71 0 0 0 -47-11 96.2 96.2 0 0 0 -44.5 10.5 119.6 119.6 0 0 0 -35.5 27.5 126.82 126.82 0 0 0 -23.5 39.5 133.19 133.19 0 0 0 -8.5 47.5 134.72 134.72 0 0 0 9.5 50 140.13 140.13 0 0 0 25.5 42 118.71 118.71 0 0 0 38 28.5 107.73 107.73 0 0 0 47 10.5zm-526 586q193 0 335-56 141-55 209-163 70-109 70-224-40 8-109.5 17t-169.5 18q-100 9-188 14t-168 5a2621.73 2621.73 0 0 1 -265-13q-128-13-251-33l-56-10-1 30q-3 61 16 116t55 105q72 97 206 145.5t317 48.5zm-494-840q-51 0-89 41-37 40-37 93a125.6 125.6 0 0 0 9 48 114.19 114.19 0 0 0 25 38 117 117 0 0 0 37 25 110.57 110.57 0 0 0 44 9 104.52 104.52 0 0 0 46.5-10.5 126.51 126.51 0 0 0 38-28.5 133.65 133.65 0 0 0 26-42.5 144 144 0 0 0 9.5-52.5 129.47 129.47 0 0 0 -8-45.5 126.21 126.21 0 0 0 -22-38 106.54 106.54 0 0 0 -34-26.5q-20-10-45-10z"/></svg>