<svg viewBox="0 0 2264 1679" xmlns="http://www.w3.org/2000/svg"><path d="m1698 869 1-7q0-25-47-38.5t-142-10.5l-48 1q49-28 101-52.5a1145.35 1145.35 0 0 1 109-44.5q22-8 22-30 0-14-9.5-22a33.82 33.82 0 0 0 -22.5-8q-9 0-72 26-31 13-62 26.5t-62 30.5q-29 17-54 33t-45 30q-20 15-30.5 24a182.3 182.3 0 0 0 -15.5 14.5q-5 5.5-5.5 9.5a65.09 65.09 0 0 0 -.5 8q0 16 10 24.5t21 8.5q8 0 52-7.5t115-7.5q14 0 27.5.5t31 2q17.51 1.5 40 5t54.5 9.5q26 0 32-25zm-922 35q34 0 62.5 2t52.5 5l54 9q16 0 24.5-10a34.46 34.46 0 0 0 8.5-23q0-26-98-88a1124.05 1124.05 0 0 0 -203-100q-42-15-46-15a31.6 31.6 0 0 0 -22.5 9q-9.5 9-9.5 24 0 22 21 29 129 46 210 97l-24-1h-28q-184 0-184 47 0 14 9.5 23t21.5 9l8-1q32-6 67-11a539.25 539.25 0 0 1 76-5zm831 456a31.6 31.6 0 0 0 22.5-9 29.15 29.15 0 0 0 9.5-22q0-16-45-78a522.66 522.66 0 0 0 -103-107 486.51 486.51 0 0 0 -124.5-70.5 386.25 386.25 0 0 0 -139.5-25.5 378.63 378.63 0 0 0 -126 21 528 528 0 0 0 -115 57 487.55 487.55 0 0 0 -53 40.5 695.53 695.53 0 0 0 -53 51.5q-54 56-65 79-5 5-5 18 0 12 9 21.5a29.15 29.15 0 0 0 22 9.5q16 0 26-13 0-1 12-18t34.5-41.5q22.5-24.5 54.5-53.5a480.39 480.39 0 0 1 72-53.5 433.73 433.73 0 0 1 87-40.5q47-16 100-16 57 0 105 16.5t86.5 41.5q38.51 25 67.5 54.5a689.72 689.72 0 0 1 49.5 55.5q20.51 26 31 44t12.5 20q7 18 28 18zm657-15q0 36-2 58.5t-5 31.5a554.72 554.72 0 0 1 -43 39 321.32 321.32 0 0 1 -44 30q-45 25-117 52.5t-175 51.5q-51 11-107.5 20.5t-122.5 17.5q-63 7-142 12.5t-175 10.5q-95 5-164.5 7.5t-115.5 2.5q-201 0-433-21-115-10-212.5-27t-175.5-39q-78-22-134.5-49t-87.5-57q-4-31-6-65.5t-2-72.5q0-142 36-259 35-117 106-223 72-107 218-224l-192-342q-11-19-11-38 0-32 23.5-56.5t58.5-24.5q48 0 72 41l183 328q163-84 319-119 160-35 348-35 196 0 351 45l43-370q4-32 27-51.5a79.55 79.55 0 0 1 53-19.5q36 0 59 24t23 57v10l-49 410q110 57 193 116t140 119a960.82 960.82 0 0 1 103.5 132.5 1196.26 1196.26 0 0 1 84.5 154.5q75 168 75 322z"/></svg>