<svg viewBox="0 0 2264 1467" xmlns="http://www.w3.org/2000/svg"><path d="m573 820a80.46 80.46 0 0 0 35.5-8.5 100.56 100.56 0 0 0 31-23.5 114.8 114.8 0 0 0 21.5-35.5 121.43 121.43 0 0 0 8-44.5q0-36-20.5-63t-56.5-27a76.88 76.88 0 0 0 -35.5 9 103.93 103.93 0 0 0 -31 24.5 130.27 130.27 0 0 0 -22 36 109.86 109.86 0 0 0 -8.5 42.5q0 38 21 64t57 26zm751 41q37 0 66-27t29-74a145.35 145.35 0 0 0 -6-42 121.38 121.38 0 0 0 -16.5-35 77.79 77.79 0 0 0 -25.5-23.5 65.74 65.74 0 0 0 -33-8.5 94.8 94.8 0 0 0 -35.5 7 89.79 89.79 0 0 0 -30.5 20 100.19 100.19 0 0 0 -21 31.5q-8 18.5-8 41.5a157.54 157.54 0 0 0 5.5 42 112.58 112.58 0 0 0 16 35 83.18 83.18 0 0 0 25.5 24q15 9 34 9zm-236 281h4q12 0 21.5-9t9.5-21q0-25-23-30-11-3-41-6t-78-7q-48-3-94-6t-92-2l-118 3q-14 0-22 9a30.64 30.64 0 0 0 -8 21q0 15 7.5 23.5t22.5 7.5l108-1q84-1 159 4t144 14zm837-253a374.4 374.4 0 0 0 -8.5-80q-8.51-39-28.5-79l-8-16q-15-29-25.5-45t-18.5-16q-11 0-11 32v16q-2 13-11 34.5t-25 53.5q-28 59-28 98 0 45 24.5 69t57.5 24q32 0 57-23t25-68zm339 250q0 34-2 55t-5 30l-29 27q-18 17-52 37t-82 40q-48 20-108 38.5t-130 33.5q-139 31-385 50-125 9-228.5 13t-190.5 4q-85 0-171.5-3.5t-177.5-11.5q-91-8-171.5-18t-152.5-23q-145-25-239-58t-132-78q-4-23-6-56.5t-2-78.5q0-129 30-240a846.62 846.62 0 0 1 41.5-113 1033.55 1033.55 0 0 1 61.5-116q73-118 246-254l-237-249q-23-24-23-56a73.79 73.79 0 0 1 6.5-30.5 91.49 91.49 0 0 1 17.5-26 79.87 79.87 0 0 1 58-24.5q34 0 59 26l258 271q47-26 89-45t82-33q41-14 94-25.5t120-21.5q67-9 131-14t127-5q329 0 559 130l246-286q12-14 26.5-21t34.5-7a74.71 74.71 0 0 1 32 7 90.6 90.6 0 0 1 26 18 83 83 0 0 1 17.5 26 77.25 77.25 0 0 1 6.5 31q0 30-19 52l-228 265q178 133 290 335 112 203 112 405z"/></svg>