<svg viewBox="0 0 2118 1918.53" xmlns="http://www.w3.org/2000/svg"><path d="m769 1082.53 34-30h-138l-129 1q15 93 92 93 40 0 74-17.5t67-46.5zm677-603a87.43 87.43 0 0 0 -9.5-40.5 184.84 184.84 0 0 0 -24-35.5q-14.51-17-31.5-33.5a297.69 297.69 0 0 1 -31.5-36 201.13 201.13 0 0 1 -24-42q-9.49-22.5-9.5-51.5a207.76 207.76 0 0 1 19-87.5 250.92 250.92 0 0 1 51-73.5 394.42 394.42 0 0 1 32.5-29q17.51-14 37.5-28 38-26 52-22 19 0 19 21 0 22-27 79-29 61-29 92 0 35 14.5 61a523.53 523.53 0 0 0 32.5 51 426.26 426.26 0 0 1 32.5 53q14.51 28 14.5 67 0 72-48 142-47 72-79 72-5 0-17-8t-12-25q0-14 13-37 24-45 24-89zm-338 0a87.43 87.43 0 0 0 -9.5-40.5 184.84 184.84 0 0 0 -24-35.5q-14.51-17-31.5-34a358.22 358.22 0 0 1 -31.5-36 189.32 189.32 0 0 1 -24-41.5q-9.5-22.5-9.5-50.5 0-50 22-93a266.57 266.57 0 0 1 31.5-46.5q19.5-23.49 48.5-49.5 58-52 91-52 19 0 19 21 0 23-20 60a347.87 347.87 0 0 0 -26.5 57.5q-9.49 27.51-9.5 53.5 0 34 15 60.5t32.5 52a571 571 0 0 1 32.5 53.5q15 28 15 65 0 34-12.5 68.5t-35.5 72.5q-48 74-80 74-7 0-18.5-8.5t-11.5-26.5q0-15 11-37 26-45 26-87zm-336 0q0-33-20.5-58t-45.5-50.53a407.42 407.42 0 0 1 -45.5-55.5q-20.5-30-20.5-73 0-53 28-104a234.87 234.87 0 0 1 35.5-49 438 438 0 0 1 49.5-45q56-44 80-44 19 0 19 21 0 22-27 79-29 61-29 92 0 35 15 61.5t32.5 51.5a523.32 523.32 0 0 1 32.5 53q15 28 15 66 0 33-12.5 67.5t-35.5 72.53q-48 74-79 74-5 0-17-7.5t-12-27.5q0-13 11-35 9-18 14-30a185 185 0 0 0 7.5-21 116 116 0 0 0 3.5-17.53 178.16 178.16 0 0 0 1-20.47zm1256 629q0-14-4.5-24.5t-16.5-17.5q-12-7-33.5-10t-54.5-3l-239 3-133-1h-95l-319-2 3 21q0 45-29.5 73t-89.5 30q-84 1-122 27a281 281 0 0 0 -34 25q-15 13-29 27-42 42-103 67t-123 25q-56 0-103-19.5a243.29 243.29 0 0 1 -83-57q-36-37.5-58-92t-28-124.5l-134-3q-61-2-85.5 9t-24.5 43q0 14 1 24.5a52.08 52.08 0 0 0 5 18.5q4 8 13 15.5t24 14.5a207.1 207.1 0 0 1 40.5 26.5q18.5 15.51 33.5 39.5t28 59q13 35 24 84 17 74 68.5 132t134.5 97.47q83 39.51 196 60t253 20.5h10l198 5q93 2 169.5-4t140-17q63.49-11 115-27a955.67 955.67 0 0 0 95.5-35 573.22 573.22 0 0 0 81-41.5 349.93 349.93 0 0 0 64.5-51.5 290.66 290.66 0 0 0 48.5-66q20-37 32-84 23-92 48-134a149.3 149.3 0 0 1 31-37.5 184.7 184.7 0 0 1 41-26.5q13-8 21-14a55.22 55.22 0 0 0 13-13.5 48.17 48.17 0 0 0 7-17q2-9.46 2-24.47zm90-1q0 37-10 63a234.32 234.32 0 0 1 -8.5 22 76.3 76.3 0 0 1 -13 19.5 177.29 177.29 0 0 1 -22.5 20.5 332.46 332.46 0 0 1 -36 24q-29 16-43 40t-34 95q-16 60-38 104t-50 76q-53 62-161 116 3 12 6.5 23.5a56.67 56.67 0 0 0 10 19.5q6.49 8 18 13t29.5 5q93 0 93 77a79.37 79.37 0 0 1 -8.5 36 88.44 88.44 0 0 1 -24 29.5q-15.49 12.51-37 20a140.21 140.21 0 0 1 -46.5 7.5q-31 0-63.5-11.5a279.11 279.11 0 0 1 -63.5-32.5 354.75 354.75 0 0 1 -58.5-50 386.34 386.34 0 0 1 -48.5-63l-4-6q-75 18-171.5 28t-214.5 8l-201-4h-9q-88 0-161.5-10.5t-134.5-23.5q-29 62-103 114-69 51-135 51-50 0-82.5-27t-32.5-67q0-32 20.5-54t52.5-22q23 0 37.5-3.5t23.5-11a46.1 46.1 0 0 0 13.5-19 228.37 228.37 0 0 0 8.5-27.5l-38-18q-59-27-100.5-70.5a456.49 456.49 0 0 1 -70.5-96.5q-10-17-20-47t-21-75q-7-27-13.5-46.5a179.14 179.14 0 0 0 -15-34 101 101 0 0 0 -19-24 102.11 102.11 0 0 0 -25.5-16.5q-93-43-93-154 0-65 43-102t142-41a245.16 245.16 0 0 1 -66-46q-30-29-56-68-51-79-51-160 0-125 91-213 89-88 223-88 113 0 199 81 44 41 66.5 92.5t20.5 116.5l-2 62q-1 32 6 55t18 36q22 26 90 40 151 31 219 92l225 3h226q105-128 209-128a210.74 210.74 0 0 1 62 9.5 270.87 270.87 0 0 1 111.5 66.5 340.25 340.25 0 0 1 43.5 52l101-2q98-2 147.5 36t49.5 108z"/></svg>