<svg viewBox="0 0 1858 1585" xmlns="http://www.w3.org/2000/svg"><path d="m131 1189a97.82 97.82 0 0 0 7.5 38 96.63 96.63 0 0 0 21 31.5 101.94 101.94 0 0 0 32 21.5 98.49 98.49 0 0 0 39.5 8 100.38 100.38 0 0 0 39-7.5 96.63 96.63 0 0 0 31.5-21 103.54 103.54 0 0 0 21.5-31.5 99.06 99.06 0 0 0 0-78 102.85 102.85 0 0 0 -53-53 95 95 0 0 0 -39-8 96.08 96.08 0 0 0 -38.5 8 101.94 101.94 0 0 0 -32 21.5 103.54 103.54 0 0 0 -21.5 31.5 95 95 0 0 0 -8 39zm917 99a100.38 100.38 0 0 0 39-7.5 96.63 96.63 0 0 0 31.5-21 103.54 103.54 0 0 0 21.5-31.5 95 95 0 0 0 8-39q0-42-29-71t-71-29q-42 0-71 29t-29 71a95 95 0 0 0 8 39 103.54 103.54 0 0 0 21.5 31.5 96.63 96.63 0 0 0 31.5 21 100.38 100.38 0 0 0 39 7.5zm596-1064v255q0 42 22 42 3 0 59-30 23-17 23-62v-213q0-20-7-34.5t-16-14.5h-49q-12 0-22 17t-10 40zm-132 319v-308q0-28-14.5-48t-36.5-20h-108q-30 0-52.5 25.5t-22.5 63.5v399q0 26 12 40.5t32 14.5q18 0 31-10l108-60q22-12 36.5-40.5t14.5-56.5zm-1330-287v399a83.85 83.85 0 0 0 7 34 96.88 96.88 0 0 0 19 28.5 85.19 85.19 0 0 0 28.5 19.5 87.39 87.39 0 0 0 34.5 7h741a85.55 85.55 0 0 0 63-26.5 96.88 96.88 0 0 0 19-28.5 83.85 83.85 0 0 0 7-34v-399q0-38-25.5-63.5t-63.5-25.5h-741q-37 0-63 25.5t-26 63.5zm1676-36v735q0 58-78 136l1 22q7 109-21 163.5t-76 54.5q-64 0-86-99-82 58-143.5 94.5t-102.5 53.5q-6 205-123 205-109 0-122-165h-677q-15 165-122 165-110 0-122-178a251.7 251.7 0 0 1 -75-36 271.33 271.33 0 0 1 -59-56.5 246.61 246.61 0 0 1 -38.5-73 268.6 268.6 0 0 1 -13.5-85.5v-935q0-95 69-158 67-63 180-63h1406q110 0 156.5 54.5t46.5 165.5z"/></svg>