<svg viewBox="0 0 2262 1441" xmlns="http://www.w3.org/2000/svg"><path d="m1937 706q0-28-28-34-59-8-119-11t-123-3q-48 0-90 1.5t-74.5 3q-32.51 1.5-52 3.5t-22.5 2q-13 1-21 10t-8 20q0 15 8.5 24t25.5 7l19-1q45-3 96-5t110-2h63q4 36 34 60.5t72 24.5q46 0 78-27.5t32-72.5zm-1330-23q0 15 8.5 24t25.5 7l74-5 170-4h45q3 36 34 60.5t73 24.5q44 0 75.5-28t32.5-75q0-16-11-25-10-7-88-13-39-3-81.5-5t-89.5-2q-48 0-90 1.5t-74.5 3q-32.5 1.5-52 3t-22.5 1.5q-29 2-29 32zm762 458q0-37-101-63-102-26-227-26-133 0-293 29-159 29-159 62 0 30 89 30a673.27 673.27 0 0 0 73.5-4q36.5-4 72.5-8.5t72-8.5a669.06 669.06 0 0 1 74-4q29 0 76 5t112 14q100 15 121 15 41 0 65.5-10.5t24.5-30.5zm893-24q0 66-6 84-58 58-159.5 100.5t-237.5 72.5q-135 29-390 48-127 9-235 14t-199 5q-109 0-223-6t-235-20q-243-28-389-70t-180-94q-5-23-6.5-57t-1.5-80q0-113 24-212a747.17 747.17 0 0 1 73.5-188q49.5-89 125.5-169.5t180-155.5l-245-255a79.28 79.28 0 0 1 -17-25 72.89 72.89 0 0 1 -6-29 73.79 73.79 0 0 1 6.5-30.5 80.4 80.4 0 0 1 18-25.5 91.49 91.49 0 0 1 26-17.5 76.19 76.19 0 0 1 31.5-6.5q35 0 59 25l272 280q115-63 268-94.5t349-31.5q310 0 565 136l252-287q24-28 61-28a79.68 79.68 0 0 1 32 6.5 89.47 89.47 0 0 1 26.5 17.5 80.4 80.4 0 0 1 18 25.5 73.79 73.79 0 0 1 6.5 30.5 67.47 67.47 0 0 1 -5.5 27.5 103.71 103.71 0 0 1 -15.5 24.5l-235 268q93 68 164 150.5a1002.49 1002.49 0 0 1 124 181.5q53 98 78.5 194t25.5 191z"/></svg>