<svg viewBox="0 0 2262 1792" xmlns="http://www.w3.org/2000/svg"><path d="m1136 912q75 0 128 22l-13-71a552.56 552.56 0 0 0 -54.5-10.5 364.53 364.53 0 0 0 -49.5-3.5 400.69 400.69 0 0 0 -60.5 4.5 557.3 557.3 0 0 0 -59.5 12.5l-8 68q59-22 117-22zm-358-383q-49 39-49 118 0 29 7 53.5t20 42.5a105.53 105.53 0 0 0 30 28.5 69.1 69.1 0 0 0 37 10.5 71.67 71.67 0 0 0 37.5-10.5 97.4 97.4 0 0 0 30-28.5q12.5-18 20-42.5t7.5-53.5l-5-36q-64-18-135-82zm4 1170q101 0 174-71 74-72 74-175a244.86 244.86 0 0 0 -11.5-75 251.57 251.57 0 0 0 -32.5-66.5 239.49 239.49 0 0 0 -51.5-54 256.76 256.76 0 0 0 -68.5-37.5q51-96 80-206 30-109 30-196-69 100-141.5 173t-150.5 121q-33-48-86-78.5t-118-30.5q-103 0-177 74-71 73-71 172 0 90 56 155-16 38-16 86 0 100 68 176 67 74 175 74 49 0 90-16t76-48a519.37 519.37 0 0 0 54.5 17 195.63 195.63 0 0 0 46.5 6zm551-1088-4 36q0 29 7 53.5t20 42.5a102.89 102.89 0 0 0 30.5 28.5 71.67 71.67 0 0 0 37.5 10.5 69.1 69.1 0 0 0 37-10.5 105.53 105.53 0 0 0 30-28.5q13-18 20-42.5t7-53.5q0-79-49-118-71 64-136 82zm472 1104q105 0 174-73 70-76 70-177 0-58-22-101 44-65 44-141 0-104-75-175-76-71-171-71a246.31 246.31 0 0 0 -67 9 242.84 242.84 0 0 0 -59.5 25.5 245.83 245.83 0 0 0 -49.5 39 206.4 206.4 0 0 0 -36 49.5q-158-83-314-275 0 34 10 80.5t30 106.5q39 119 98 207-70 32-109.5 93t-39.5 134q0 104 73 175a231.26 231.26 0 0 0 79.5 52.5q44.5 17.5 95.5 17.5 66 0 116-30 69 54 153 54zm457-433q0 34-1 62.5t-4 53.5q-22 30-58.5 48.5t-97.5 40.5q-10 123-94 202-42 40-92.5 59t-109.5 19q-85 0-157-45a294.06 294.06 0 0 1 -112 22q-78 0-143.5-37a303.14 303.14 0 0 1 -106.5-100q-24 2-54 4a578 578 0 0 1 -68 0l-127-2q-41 66-108 104t-147 38q-45 0-93-15-79 56-174 56-60 0-112.5-21t-95.5-64q-85-87-88-205-37-13-66.5-25.5a603.2 603.2 0 0 1 -55-26.5 399.11 399.11 0 0 1 -47.5-30.5 402 402 0 0 1 -43-37.5q-7-18-7-99a845.71 845.71 0 0 1 8-118.5 756.26 756.26 0 0 1 24.5-111.5 895.27 895.27 0 0 1 41.5-110.5q25-55.5 58-114.5 67-120 172-216.5t241-168.5l-113-335-4-26q0-32 22.5-57t59.5-25a81.51 81.51 0 0 1 46.5 14.5q21.5 14.5 30.5 40.5l108 321q91-34 195-50.5t220-16.5q145 0 264 17.5t215 53.5l84-320q7-28 28.5-44t49.5-16q37 0 59.5 24.5t22.5 57.5l-3 21-90 346 13 7q43 21 89 54t99 78q53 45 90.5 84t62.5 72q49 66 93 162 43 95 59 184t16 192z"/></svg>