<svg viewBox="0 0 2150 2306" xmlns="http://www.w3.org/2000/svg"><path d="m1138 542-246 76 169 81zm640 502 170 80 76-157zm-345-360-246 75 170 82zm-499-296-75 158 246-77zm1058 506-171-80-76 157zm-1446-636-247 77 171 81zm-33-72-171-81-75 157zm126 60-76 159 245-77zm202 153-245 77 170 82zm888 426-246 76 169 82zm-499-296-76 159 247-77zm220 301 246-76-171-83zm-1183 28-150 27q-20 0-20-23l18-113q3-17 17-17l13 4 128 85q10 6 10 16 0 18-16 21zm396-20q0-8 10-17l128-85 13-4a18.09 18.09 0 0 1 12.5 5 15.64 15.64 0 0 1 5.5 12l17 113q0 23-23 23l-146-27q-17-5-17-20zm-26 582h178q17 0 32.5-14t15.5-34v-185a47.8 47.8 0 0 0 -48-48h-178a48 48 0 0 0 -34.5 14 45.48 45.48 0 0 0 -14.5 34v185a45.48 45.48 0 0 0 14.5 34 48 48 0 0 0 34.5 14zm-242 543q72 0 122 50 50 51 50 121 0 71-50 122-50 50-122 50-71 0-122-50-50-51-50-122t49-121q50-50 123-50zm1328 0q72 0 122 50 51 53 51 121 0 70-51 122-50 50-122 50-71 0-121-50-51-51-51-122t49-121q50-50 123-50zm-1268-502v-264q0-24-16-40t-40-16h-163q-23 0-41 15.5a63.92 63.92 0 0 0 -22 38.5l-39 266v7q0 20 13.5 34t34.5 14h217q24 0 40-16t16-39zm1017 35q0-78 54-134 56-56 136-56 77 0 133 56t56 134q0 78-55 134-56 57-134 57-79 0-136-57-54-55-54-134zm477 0q0-117-85-202t-202-85q-120 0-205 85-84 84-84 202 0 54 18.5 101t54.5 90h-437v97h653q118 0 202-84 85-85 85-204zm-1643-1496 1844 885-31 66v1128q0 24-16.5 39.5t-39.5 15.5h-108q0-94-67-162-70-68-165-68-96 0-164 68-67 68-67 162h-866q0-95-69-163-70-67-162-67-96 0-164 68-67 68-67 162h-89q-24 0-49-27-26-27-26-55v-530l60-346q11-62 51.5-99.5t93.5-37.5h98q-6-6-6-17v-71q0-29 32-29 0-211 144-211 145 0 145 211 32 0 32 29v71a25.23 25.23 0 0 1 -6 17h268q24 0 40 16.5t16 40.5v98h323v-298l-1150-551z"/></svg>