<svg viewBox="0 0 2262 1680" xmlns="http://www.w3.org/2000/svg"><path d="m495 767q0 35 20.5 60t55.5 25a89 89 0 0 0 37.5-8.5 99.41 99.41 0 0 0 32.5-24 130.79 130.79 0 0 0 23-36.5 115.55 115.55 0 0 0 9-46q0-35-20-59.5t-56-24.5q-41 0-72 37-30 35-30 77zm678 81q0-40-23-68t-59-28a73.92 73.92 0 0 0 -35 9 103.71 103.71 0 0 0 -30 24 122.13 122.13 0 0 0 -21 35 114.77 114.77 0 0 0 -8 43q0 41 22.5 70t58.5 29a80.46 80.46 0 0 0 35.5-8.5 94.91 94.91 0 0 0 30.5-23.5 119 119 0 0 0 21-36 128.27 128.27 0 0 0 8-46zm286 640q18 0 31-9a83.14 83.14 0 0 0 22-22.5 92.85 92.85 0 0 0 13-30.5 143.67 143.67 0 0 0 4-33 413.13 413.13 0 0 0 -6.5-72.5 591.9 591.9 0 0 0 -18.5-74.5q-23-74-35-74-9 0-36 39a403.76 403.76 0 0 0 -24.5 41 386.1 386.1 0 0 0 -20 45 341.58 341.58 0 0 0 -13.5 46 207.37 207.37 0 0 0 -5 44q0 45 22.5 73t66.5 28zm-431-246q0-106-99-193-102-87-232-87-51 0-102 18.5a300.22 300.22 0 0 0 -91.5 52.5 270.9 270.9 0 0 0 -65.5 81q-25 47-24 104 1 31 9.5 56.5a125.43 125.43 0 0 0 25.5 44.5q17 19 43.5 29t62.5 9l75-1 55 4q16 3 41 13t59 27a491.53 491.53 0 0 0 54.5 22q24.5 8 45.5 8 40 0 75-24 33-21 51-72a321.4 321.4 0 0 0 13-48.5 248.14 248.14 0 0 0 4-43.5zm1234 106q0 93-6 139a313.26 313.26 0 0 1 -99 67q-56 24-159 48-51 12-105 22t-114 19q-114 18-292 27-90 5-154.5 7.5t-104.5 2.5q-98 0-208-5t-235-14q-125-10-222-22.5t-169-29.5q-144-33-251-81-54-24-87.5-47.5t-48.5-45.5q-7-13-7-87 0-174 83-349 42-88 90.5-158t103.5-126.5a822.68 822.68 0 0 1 117-100 1071.59 1071.59 0 0 1 131-78.5l71-35-49-411-2-9q0-33 24-57t59-24q32 0 54 19.5t26 51.5l44 370a1115.56 1115.56 0 0 1 166.5-34.5q87.5-11.5 183.5-11.5 53 0 106 3.5t110 10.5v597q0 20 22 20 21 0 21-20v-591l74 10v581q0 20 20 20 22 0 22-20v-572l74 19v553q0 20 21 20 20 0 20-20v-537l75 32v505q0 20 21 20 20 0 20-20v-486l62 31 183-329q22-41 71-41 19 0 34 7a79.72 79.72 0 0 1 25.5 18.5 82.27 82.27 0 0 1 16 25.5 78.55 78.55 0 0 1 5.5 29q0 23-10 40l-191 342q157 127 226 235a1009.79 1009.79 0 0 1 59 107 708.88 708.88 0 0 1 41 109.5 816.15 816.15 0 0 1 24 119q8 62.5 8 134.5z"/></svg>