<svg viewBox="0 0 2318 1790" xmlns="http://www.w3.org/2000/svg"><path d="m920 928q0-16-11.5-28a37.9 37.9 0 0 0 -28.5-12q-34 0-38 34-2 14-13.5 37.5t-33 46q-21.5 22.5-52 38.5t-70.5 14a171.54 171.54 0 0 1 -36.5-5.5 281.3 281.3 0 0 1 -28-9 143.6 143.6 0 0 1 -18.5-8.5q-7-4-7-5a51.35 51.35 0 0 0 -25-6q-15 0-27 10.5t-12 27.5q0 20 16 30 16 16 54.5 30t83.5 14q54 0 101.5-20.5t79.5-54.5q32-35 49-73t17-60zm848 109q0-17-11.5-27.5a39.38 39.38 0 0 0 -27.5-10.5q-16 0-26 10-46 34-99 34-124 0-169-122-6-30-38-30-17 0-28.5 11.5t-11.5 26.5l2 8q0 2 5 16t16 34.5q11 20.5 29.5 44t45.5 43.5q27 20 63.5 33t83.5 13a239.75 239.75 0 0 0 62-8q30-8 53-20t37-27q14-15 14-29zm-141 427q0-55-43-97-22-21-47.5-31.5t-57.5-10.5q-44 0-75.5 15a490.29 490.29 0 0 0 -59.5 33.5 622.25 622.25 0 0 1 -57 33.5q-29 15-68 15-15 0-39-5.5t-57-16.5q-32-11-57-16t-42-5q-35 0-64.5 11t-51 30.5a142.76 142.76 0 0 0 -46.5 106.5q0 62 44 98.5t118 36.5q76 0 125-30 72-42 124-42h13l41 4 66 16 40 5q90 0 142-41t52-110zm688-161q0 20-15 28.5a63.86 63.86 0 0 1 -32 8.5l-180-33a469.58 469.58 0 0 1 -19.5 52 504.48 504.48 0 0 1 -25.5 50l172 55q26 9 26 38 0 17-11.5 28t-26.5 11l-13-2-192-61q-84 102-222 175a1052.15 1052.15 0 0 1 -146.5 62.5 1152 1152 0 0 1 -164.5 42.5q-86 16-166 24t-155 8a1480.76 1480.76 0 0 1 -155.5-8.5q-80.5-8.5-168.5-26.5-177-35-306-106.5t-207-165.5l-178 56-12 2a40.14 40.14 0 0 1 -28-11q-12-11-12-28 0-29 27-38l156-49a734 734 0 0 1 -48-104l-162 29a62 62 0 0 1 -31-8.5q-15-8.5-15-28.5 0-36 32-41l157-28-13-102-145-22q-35-6-35-39a37.51 37.51 0 0 1 11.5-27.5q11.5-11.5 28.5-11.5h5l133 20q0-130 43-247-38-87-68.5-169.5t-53.5-163.5q-23-81-34-145.5t-11-115.5q0-88 30.5-127.5t93.5-39.5q28 0 62.5 7a680.39 680.39 0 0 1 74.5 20q40 14 83 31.5t88 38.5q46 22 109.5 57.5t147.5 86.5a1176.68 1176.68 0 0 1 196-51.5q101-17.5 212-17.5 205 0 395 65l69-49q59-43 122-83a1518.52 1518.52 0 0 1 135-76q143-73 223-73 121 0 121 203 0 104-36 275-19 85-43.5 168.5t-54.5 169.5a798.64 798.64 0 0 1 30 119 716.43 716.43 0 0 1 10 120l152-23h4q17 0 28.5 11.5t11.5 26.5q0 34-33 40l-164 24-13 96 174 32q33 6 33 41z"/></svg>