<svg viewBox="0 0 2264 1804" xmlns="http://www.w3.org/2000/svg"><path d="m1706 938 8 1a31.6 31.6 0 0 0 22.5-9q9.49-9 9.5-23 0-22-21-28-20-8-71-18.5t-125-18.5q41-21 86.5-40.5t98.5-39.5q22-6 22-28 0-16-9.5-24a32.49 32.49 0 0 0 -21.5-8l-10 2q-15 0-119 46-53 24-95 46.5a865.12 865.12 0 0 0 -76 45.5q-15 9-15 26 0 15 10 23a35.8 35.8 0 0 0 23 8 1371.54 1371.54 0 0 1 147.5 11.5 1014.6 1014.6 0 0 1 135.5 27.5zm-647 797q95 0 227-71 135-73 207-168t72-197q0-104-62-177-62-72-161-72-42 0-75.5 16a395 395 0 0 0 -60 35q-26.51 19-45.5 35t-32 16q-12 0-23.5-10t-26-25q-14.51-15-32.5-33a221.65 221.65 0 0 0 -43-33q-25-15-57.5-25t-75.5-10q-116 0-178 67t-62 198q0 50 15.5 101.5t47.5 106.5a658.33 658.33 0 0 0 71.5 99 457.24 457.24 0 0 0 90.5 79q101 68 203 68zm-487-968a145.12 145.12 0 0 0 8 48 119.75 119.75 0 0 0 23.5 40.5 118.08 118.08 0 0 0 37 28q21.5 10.5 48.5 10.5 59 0 111-52t52-126a137.36 137.36 0 0 0 -9.5-51q-9.5-24-25-41a115.37 115.37 0 0 0 -37-27 106.54 106.54 0 0 0 -45.5-10q-67 0-115 56t-48 124zm1692 585q0 47-2 79t-5 52q-28 38-100 69t-188 56q-117 25-256 40t-304 23a798.74 798.74 0 0 1 -88.5 55.5 812.18 812.18 0 0 1 -90.5 42 553.67 553.67 0 0 1 -88.5 26.5q-43.5 9-82.5 9-87 0-175.5-36.5t-163.5-114.5q-108-11-191.5-22.5t-146.5-26.5q-125-29-221.5-71.5t-153.5-99.5q-7-17-7-88a767.25 767.25 0 0 1 8-111.5 737 737 0 0 1 24.5-108.5 896.73 896.73 0 0 1 41.5-109 1284.3 1284.3 0 0 1 60-115q70-121 183-218.5t279-182.5l-49-409-1-10q0-33 24-57t58-24q32 0 54 20t27 52l45 369q153-47 351-47 95 0 182.5 8.5a1374 1374 0 0 1 169.5 27 1173.13 1173.13 0 0 1 159.5 48 1123 1123 0 0 1 153.5 72.5l183-328q24-41 72-41 36 0 58 23.5t22 55.5a107.2 107.2 0 0 1 -2 21 65.22 65.22 0 0 1 -7 19l-190 341q194 161 276 327 82 164 82 384zm-1192-112q117 0 193 150-40 57-88 88t-95 31a119.25 119.25 0 0 1 -54-13 186.83 186.83 0 0 1 -48.5-35.5q-22.5-22.5-40-53.5a297.91 297.91 0 0 1 -27.5-67q76-100 160-100z"/></svg>