<svg viewBox="0 0 1706.86 2080" xmlns="http://www.w3.org/2000/svg"><path d="m1697 1186v367a323.43 323.43 0 0 0 -36-46 202.51 202.51 0 0 0 -40-33l-167-82q34-47 46-110 92-29 142-56t55-40zm-1697 375v-391q58 63 201 111 11 54 46 111l-160 78q-27 13-48.5 37.5a346.61 346.61 0 0 0 -38.5 53.5zm1400-195-481-233q100-50 159-78.5t79-36.5q38-16 70-16 93 0 156 75 32 38 47.5 79t15.5 88q0 63-46 122zm-27-704a286.17 286.17 0 0 0 -3.5-41.5q-3.49-23.5-9.5-48a428.16 428.16 0 0 0 -15-48.5 336.41 336.41 0 0 0 -20-44l-394 244a179.21 179.21 0 0 0 29.5 60.5 201.53 201.53 0 0 0 49.5 47q29 19.5 65.5 30a271.71 271.71 0 0 0 75.5 10.5q70 0 125-34 54-35 75.5-76t21.5-100zm-594 62-394-244a308.89 308.89 0 0 0 -15 33.5 515.4 515.4 0 0 0 -16 49.5q-16 54-16 101 0 32 5.5 58.5t17.5 46.5q12 20 32 39a217.62 217.62 0 0 0 45.5 33 259.83 259.83 0 0 0 56.5 22.5 240.81 240.81 0 0 0 64 8.5q80 0 142-40 64-40 78-108zm-757 964a214.14 214.14 0 0 1 23-97q23-46 68-68l175-85 43 30 447 197-436 205q-24 11-52.5 23.5t-65.5 12.5q-84 0-142-71-60-72-60-147zm1455 277q137 0 220-137v252h-1697v-260q84 145 224 145a351.5 351.5 0 0 0 39.5-2 111.72 111.72 0 0 0 31.5-8l14-5 507-238 36-15 34 15 449 212 74 31q13 6 30.5 8a331.79 331.79 0 0 0 37.5 2zm204-277q0 78-60 148t-144 70q-40 0-67-12l-499-236-144-61-412-182q-19-9-37-26.5a191 191 0 0 1 -31.5-40.5 223.87 223.87 0 0 1 -21.5-50 189.37 189.37 0 0 1 -8-54q0-56 26-114 28-61 80-95.5t113-32.5a148.08 148.08 0 0 1 44 6.5q21 6.5 56 23t91 45q56 28.5 149 72.5 64 31 141 67t166 80l465 227q45 30 69 74.5t24 90.5zm25-695-5 81q-20 21-39 33.5a249.72 249.72 0 0 1 -42 22 547.24 547.24 0 0 1 -53.5 18.5q-30.49 9-73.5 21-29-108-98.5-167t-167.5-59q-20 0-35 1.5t-25 6.5l-315 149-316-149q-10-5-25-6.5t-35-1.5q-48 0-90.5 15.5a248.58 248.58 0 0 0 -77 45q-34.5 29.5-60 71.5t-40.5 95q-152-46-196-100-6-10-6-78 0-164 106-349 17-29 44.5-64t68.5-74q35-34 60.5-54.5t41.5-31.5q15-11 42-26t66-36l-111-272a43.83 43.83 0 0 1 -6-23q0-24 17-43t45-19q39 0 56 39l112 272q135-44 290-44 36 0 80.5 3.5t97.5 10.5q53 7 92.5 14t66.5 16l98-270q15-39 59-39 28 0 44 18a61.23 61.23 0 0 1 16 42l-4 22-100 275q50 23 100 58a1149.9 1149.9 0 0 1 101 80 742.54 742.54 0 0 1 93 98.5 576.12 576.12 0 0 1 70.5 115.5 610.7 610.7 0 0 1 43 132.5q14.5 70.5 10.5 149.5z"/></svg>