<svg viewBox="0 0 2262 1474" xmlns="http://www.w3.org/2000/svg"><path d="m1852 1238q0-23-18-40-77-49-154-82a1088.31 1088.31 0 0 0 -159-54 1158.24 1158.24 0 0 0 -171-30q-89-9-189-10-84-2-160 6.5t-148 23.5q-70 15-134 33t-118.5 38q-54.5 20-97.5 40.5t-71 39.5q-23 15-23 43 0 22 14.5 35a49.94 49.94 0 0 0 34.5 13 37.84 37.84 0 0 0 12-2q6-2 14-5l49-27q51-29 119.5-53t154.5-46a1270.15 1270.15 0 0 1 170-32 1453 1453 0 0 1 170-10q104 0 190 11.5t155.5 28.5q69.49 17 121.5 36.5t87 37q35 17.51 53 29.5t19 13a48.7 48.7 0 0 0 31 11q21 0 38-18 10-14 10-30zm-1159-586a182.47 182.47 0 0 0 9.5 59 157.85 157.85 0 0 0 27 49.5 135.41 135.41 0 0 0 40.5 34 103.07 103.07 0 0 0 50 12.5q58 0 102-51 42-51 42-119 0-67-38-112-48 34-100 45.5t-119 11.5q-14 29-14 70zm894-93q-36 24-58 64t-22 89q0 33 9.5 61a151.78 151.78 0 0 0 27 49 129.9 129.9 0 0 0 41 33 111.58 111.58 0 0 0 51.5 12q56 0 98-49a203.16 203.16 0 0 0 34-56q12-30 10-66l-1-21q-128-29-190-116zm675 586q0 73-6 91-12 10-34 29t-67.5 44q-45.49 25-122.5 52.5t-198 54.5q-54 11-141.5 22t-209.5 20q-122 9-226 12.5t-192 3.5q-183 0-353-14t-331-43q-320-59-374-141-4-28-5.5-60.5t-1.5-70.5q0-191 58-329 30-71 60.5-123.5t60.5-88.5q13-15 35-38.5t54-52.5q33-31 66.5-60t68.5-55l-245-260q-23-24-23-56a77.25 77.25 0 0 1 6.5-31 84.77 84.77 0 0 1 18-26.5 86.54 86.54 0 0 1 26-18 76.19 76.19 0 0 1 31.5-6.5 81.6 81.6 0 0 1 31.5 6q14.5 6 27.5 20l271 287q104-61 261.5-95t347.5-34q311 0 573 140l253-296q24-27 61-27a80.81 80.81 0 0 1 31.5 6.5 81.62 81.62 0 0 1 26.5 17.5 90.6 90.6 0 0 1 18 26 72.46 72.46 0 0 1 7 31q0 29-21 53l-235 275q176 138 284 338 55 100 81.5 198.5a760.82 760.82 0 0 1 26.5 198.5z"/></svg>