<svg viewBox="0 0 2240 1718" xmlns="http://www.w3.org/2000/svg"><path d="m569 822 2 11q1 8 12.5 23.5t31 31.5a214.42 214.42 0 0 0 45 28 137.85 137.85 0 0 0 54.5 13q94 1 161-66a87.4 87.4 0 0 0 5-9.5 23.2 23.2 0 0 0 2-9.5q0-11-9-20t-21-9q-15 0-23 11 0 8-32 26a112.53 112.53 0 0 1 -31.5 13 191.18 191.18 0 0 1 -34.5 5 103.69 103.69 0 0 1 -41-6 150.17 150.17 0 0 1 -33.5-17q-14.5-10-22.5-20.5t-8-16.5q-6-18-27-18l-13 3q-17 10-17 27zm788 22q0 9 7 19 0 8 24 25a263.69 263.69 0 0 0 53.5 28q28.5 11 65.5 13a153.64 153.64 0 0 0 62-10.5q29-11.5 50.5-27.5t34.5-32.5q13-16.5 13-25.5l3-11q0-12-9.5-21t-20.5-9q-20 0-28 18 0 7-8.5 17t-23 19.5a161.76 161.76 0 0 1 -34 16.5 118.89 118.89 0 0 1 -40.5 7 129.36 129.36 0 0 1 -66-18q-30-18-30-26-11-11-25-11-11 0-17 6-11 11-11 23zm141 306q0-22-21-28-31-15-139-35-55-10-108-15t-107-5q-38 0-75 2.5t-73 7.5q-35 5-69 11.5t-66 14.5q-65 15-72 19-20 6-20 27 0 14 9.5 22t20.5 8l10-1 28-8q29-8 63.5-16t76.5-15q43-7 84.5-10t82.5-3a1077.16 1077.16 0 0 1 167 13 1220.44 1220.44 0 0 1 168 39l8 1q14 0 23-9.5t9-19.5zm551-329q70 0 122.5 40.5t68.5 127.5v33l-4 696h-182v-673l3-96q2-39-1-70.5t-7-57.5zm-1847 0 12 1q-12 71-12 157 0 20 1 37.5a161.84 161.84 0 0 0 5 32.5v669h-204l-4-696v-33q0-2 3-15t10.5-31.5a285.58 285.58 0 0 1 20.5-40 163.8 163.8 0 0 1 34-39.5q21-18 50.5-30t69.5-12zm1769 359v538h-1684v-554q51 60 182 118 133 58 303.5 92.5t365.5 34.5q85 0 168-8t164-24a1427.21 1427.21 0 0 0 160.5-38.5q77.5-23.5 152.5-54.5 150-61 188-104zm8-201-4 69q-4 3-15.5 12.5t-32 24.5q-20.51 15-51 33.5t-71.5 38.5q-148 73-318 110t-367 37q-184 0-353-36-85-18-158.5-43t-134-55q-60.49-30-108-63t-79.5-65q-7-12-7-79a683.52 683.52 0 0 1 17-152.5q17-74.5 53-158.5a753.9 753.9 0 0 1 38-77q20-35 41-65a732.69 732.69 0 0 1 49-62q28-32 60.5-62.5t68-58a501.41 501.41 0 0 1 73.5-47.5l-80-193q-5-7-5-23 0-25 17.5-44.5t45.5-19.5q44 0 60 40l75 184a1025.32 1025.32 0 0 1 155-44.5 773.89 773.89 0 0 1 153-15.5q106 0 200 15.5t176 44.5l62-168q15-41 58-41 29 0 47 19a63.24 63.24 0 0 1 18 45l-4 22-65 179 11 7a724.4 724.4 0 0 1 80.5 59.5q39.49 33.5 72 65t54 55q21.5 23.5 27.5 29.5 115 172 129 299 6 59 10 104.5t2 79.5z"/></svg>