<svg viewBox="0 0 2096 1590" xmlns="http://www.w3.org/2000/svg"><path d="m1041 762h19q15 36 44 67-23 23-59 23a73.83 73.83 0 0 1 -24-4.5q-13-4.5-26-15.5a401.29 401.29 0 0 0 27-34 155.36 155.36 0 0 0 19-36zm92 289q0 91-81 91-25 0-42.5-8a77.62 77.62 0 0 1 -28.5-21.5 85.77 85.77 0 0 1 -16-31 132.34 132.34 0 0 1 -5-36.5q0-51 26-97 27-45 61-45 18 0 34 11.5t27.5 31.5q11.51 20 18 47a247.48 247.48 0 0 1 6.5 58zm-887-271-68 75a333.26 333.26 0 0 1 -15-98q0-48 13.5-87.5t38-68a171.43 171.43 0 0 1 59.5-44.5q35-16 78-16h12q22-83 56.5-155.5a703.82 703.82 0 0 1 85.5-136.5q102-128 241-188.5t300-60.5q160 0 302 62a600.25 600.25 0 0 1 130.5 79 664.28 664.28 0 0 1 109 109.5 729.86 729.86 0 0 1 84 135 829.59 829.59 0 0 1 56.5 155.5h13q43 0 77.5 15.5a169.84 169.84 0 0 1 59 43.5q24.49 28 38 67.5t13.5 86.5q0 69-13 94-11-13-28-31.5t-42-43.5v-16q0-47-22.5-76.5t-77.5-38.5l6 44q-69-60-91-115a365.92 365.92 0 0 0 -37-50.5q-22-25.5-48-51.5t-47-43.5a438.33 438.33 0 0 0 -36-27.5 268.76 268.76 0 0 0 -64-26q-54-37-125-37-42 0-126 45-83 46-127 46-42 0-76-14a549.32 549.32 0 0 1 -64.5-31.5q-30.5-17.5-60.5-31.5a147.29 147.29 0 0 0 -63-14q-39 0-72 9a130.7 130.7 0 0 0 -57 32q-31 10-62.5 30.5a389.89 389.89 0 0 0 -60.5 49 649 649 0 0 0 -56 63 679.21 679.21 0 0 0 -49 71.5 388.57 388.57 0 0 1 -29 44 247.89 247.89 0 0 1 -27 30l-34 30 5-52q-51 9-77.5 38t-23.5 77zm1850 521q0 127-84 208-83 81-210 81-207 0-367-285a881.88 881.88 0 0 1 -209 65q-55 9-101 14a783.65 783.65 0 0 1 -84 5 819.12 819.12 0 0 1 -86-5q-47-5-96.5-15a992.21 992.21 0 0 1 -100.5-26 843 843 0 0 1 -99-38q-163 262-354 262a436.89 436.89 0 0 1 -157-29q-148-56-148-207a309.88 309.88 0 0 1 5-55.5 436.23 436.23 0 0 1 14-55.5 790.77 790.77 0 0 1 47-110q14-28 39-67.5t63-91.5q26-36 49-64.5t43-49.5q38-41 149-134a134 134 0 0 0 23-22.5 205.11 205.11 0 0 0 18-26.5l34-56q29-46 95-112 69-69 142-69 28 0 45 10.5t17 22.5q0 11-12 17.5t-26 13.5a134.38 134.38 0 0 0 -26 17q-12 10-12 28 0 6 9 6 16 0 35-11a230.52 230.52 0 0 1 50-20 206.63 206.63 0 0 1 54-7q75 0 115 45t40 123q0 83-53 133t-173 71q-59 11-104.5 28t-77.5 39q-62 43-161 166-51 62-51 109 0 19 7 19 6 0 16.5-10.5a317.59 317.59 0 0 0 21.5-24q11-13.5 19.5-25.5t10.5-14q47-69 112-134 31 110 156 174t293 64h41q166 0 292-64 123-64 158-179 26 23 56 57.5t63 81.5l14 20q19 26 31 40t22 14q7 0 7-15 0-26-12-54.5t-37-58.5q-51-63-91-103.5t-69-62.5q-29-22-74.5-38t-108.5-29q-46-9-79.5-19t-56.5-22q-46-24-68-68t-22-95q0-81 43-124.5t113-43.5a199.51 199.51 0 0 1 54 7 195.66 195.66 0 0 1 47 20q17 11 36 11 8 0 8-8 0-17-11.5-27a116.69 116.69 0 0 0 -26-17q-14.51-7-26-13.5t-11.5-16.5q0-12 17-22.5t45-10.5q56 0 122 51a466.41 466.41 0 0 1 60.5 57 471.93 471.93 0 0 1 50.5 69l36 57a212.91 212.91 0 0 0 43 52q64 56 106 95t63 61q20 22 43.5 52.5t51.5 69.5q28 39 47.5 70.5t32.5 55.5a679.42 679.42 0 0 1 42.5 101q17.5 53 17.5 93z"/></svg>