<svg viewBox="0 0 2262 1680" xmlns="http://www.w3.org/2000/svg"><path d="m2262 1348q0 49-2 84t-5 55a49.16 49.16 0 0 0 -6 7.5 82.57 82.57 0 0 1 -10 11.5q-7 7-20 15.5t-35 18.5q-128 63-405 102-139 20-275.5 29t-276.5 9q-139 0-277-7.5t-278-24.5q-280-31-447-85t-219-128q-4-5-5-25.5t-1-56.5a788.76 788.76 0 0 1 36-239q17-55 45.5-113.5t66.5-122.5a749 749 0 0 1 87.5-119 1004.62 1004.62 0 0 1 228.5-188.5 1370.09 1370.09 0 0 1 131-69.5l-49-419q0-36 24-59t60-23q29 0 51.5 20.5a80.82 80.82 0 0 1 26.5 50.5l43 370a1181.34 1181.34 0 0 1 172.5-35.5 1414.72 1414.72 0 0 1 182.5-11.5q104 0 194 9t170.5 28.5a1106.11 1106.11 0 0 1 298.5 119.5l183-329q23-41 73-41a73.76 73.76 0 0 1 32.5 7 81.35 81.35 0 0 1 25 18.5 82.27 82.27 0 0 1 16 25.5 78.55 78.55 0 0 1 5.5 29 107.2 107.2 0 0 1 -2 21 65.22 65.22 0 0 1 -7 19l-190 342q84 69 162 155 78 84 136 224a801 801 0 0 1 44 152q15 80 15 174zm-431-347 2-20q0-19-8-39.5t-26-44.5q-35-48-74-61-15 0-15 29l3 68-3 31q-4 45 15 71.5t51 26.5q13 0 21.5-6a63.94 63.94 0 0 0 15-15 84.83 84.83 0 0 0 10.5-19.5q4-10.5 8-20.5zm-407-86q16 0 23.5-9.5t7.5-20.5q-1-24-12.5-55t-34.5-58.5q-23-27.5-57-45.5t-80-17q-52 2-101 31-49 31-49 53 0 14 9.5 23t21.5 9q14 0 22-11l10-7a159.18 159.18 0 0 1 41.5-26q21.49-9 47.5-9 28 0 50.5 12.5a142.62 142.62 0 0 1 38 30 128.45 128.45 0 0 1 23.5 37.5q8 20 8 35 4 28 31 28zm-217 249q0-40-25-65t-74-25a226.65 226.65 0 0 0 -26 1.5q-13 1.5-27 3.5a880.34 880.34 0 0 1 -87 15 702.43 702.43 0 0 1 -83 5q-119 0-195-37-61-31-80-36a180.32 180.32 0 0 0 -18-5 83 83 0 0 0 -18-2q-43 0-69.5 28t-26.5 78q0 76 52 143 51 67 141 106a408.23 408.23 0 0 0 89 29 457.88 457.88 0 0 0 90 9q72 0 134-20.5a410.39 410.39 0 0 0 116-60.5q107-80 107-167zm-688-446q29 0 54.5 17t38.5 39l7 13q13 17 27 17 32 0 32-31l-3-14q-1-7-14-24.5t-34-35a222.16 222.16 0 0 0 -49-30.5 128.3 128.3 0 0 0 -59-12q-41 1-69.5 16.5t-47.5 34q-19 18.5-28.5 34.5t-10.5 17l-3 13q0 11 8 21t22 10q20 0 30-18 1-4 9.5-16a135.17 135.17 0 0 1 22.5-24 146.38 146.38 0 0 1 31.5-20.5 63.79 63.79 0 0 1 35.5-6.5z"/></svg>