<svg viewBox="0 0 2263.72 1612" xmlns="http://www.w3.org/2000/svg"><path d="m1082 851q45-5 105-7t135-2h49a70.73 70.73 0 0 0 10.5 33.5 107.28 107.28 0 0 0 23.5 27 113 113 0 0 0 33 18.5 114.71 114.71 0 0 0 40 7q45 0 76-29t32-75q0-16-10-25-9-7-93-14-84-6-168-6-48 0-90.5 1.5t-74 3q-31.5 1.5-51 3t-22.5 1.5q-29 2-29 32 0 31 34 31zm-288-34v-10q0-25-26-31-58-8-117-11t-121-3q-50 0-93 1.5t-76 3.5q-33 2-53 3.5t-23 1.5q-29 6-29 31 0 16 10.5 24.5a32.2 32.2 0 0 0 23.5 7.5l69-4 157-4h63q5 35 35 59.5t72 24.5a121.81 121.81 0 0 0 41.5-7 107.68 107.68 0 0 0 34.5-20 96.81 96.81 0 0 0 23.5-30 81.53 81.53 0 0 0 8.5-37zm1026 446q20-1 33-14t13-33a51.78 51.78 0 0 0 -13-35q-13-15-35-15h-19q-59 0-111-18a446 446 0 0 1 -46.5-20.5q-22.5-11.51-40.5-23a219.06 219.06 0 0 1 -29.5-22q-11.5-10.5-14.5-16.5-13-16-37-16-20 0-34.5 14.5t-14.5 34.5q0 18 14 31 1 3 25.5 26t69.5 49q-54 63-145 103a414.35 414.35 0 0 1 -87.5 29 421.28 421.28 0 0 1 -85.5 9 47.8 47.8 0 0 0 -48 48q0 21 13.5 35t36.5 14q112 1 226-53 114-53 185-145a474.2 474.2 0 0 0 67 14 484.32 484.32 0 0 0 78 4zm443 20-4 111q-5 6-9 11.5a74.7 74.7 0 0 1 -11.5 12 229.31 229.31 0 0 1 -19 14.5 298.28 298.28 0 0 1 -30.5 18q-32 17-87.5 36.5t-136.5 39.5q-81 20-181.5 35.5t-222.5 26.5q-242 24-413 24-96 0-195-3t-204-10q-106-6-184-15t-132-19q-97-17-171.5-40.5t-127-47.5q-52.5-24-83.5-46.5t-41-37.5q-10-24-10-107 0-110 28.5-207t81.5-192q39-72 79.5-128.5a845.54 845.54 0 0 1 89.5-105.5 931.38 931.38 0 0 1 110-93.5q61-44.5 142-91.5l-123-361-4-26q0-32 22.5-56.5t58.5-24.5a82.89 82.89 0 0 1 78 55l117 345q97-36 205-54.5t229-18.5q172 0 328 33.5a1307.14 1307.14 0 0 1 298 102.5l118-342q8-25 28.5-39.5t46.5-14.5q38 0 60 24.5t22 56.5l-4 26-130 378q86 66 146 127.5t98 118.5q76 113 107 224a1061 1061 0 0 1 24.5 121q9.5 65 6.5 140z"/></svg>