<svg viewBox="0 0 1812 2366" xmlns="http://www.w3.org/2000/svg"><path d="m1022 801q-10 0-22 7a190.68 190.68 0 0 1 -102 29q-57 0-103-29-12-7-22-7-15 0-27 10.5t-12 28.5q0 28 50 52 52 23 114 23a302.52 302.52 0 0 0 57.5-5.5 271.83 271.83 0 0 0 54.5-16.5q52-23 52-52a37.9 37.9 0 0 0 -12-28.5q-12-11.5-28-11.5zm92-265a71.4 71.4 0 0 0 -34 8.5 92.34 92.34 0 0 0 -28 23 112.38 112.38 0 0 0 -19 34 121.81 121.81 0 0 0 -7 41.5 117.61 117.61 0 0 0 7 41 113.75 113.75 0 0 0 19 33.5 92.34 92.34 0 0 0 28 23 71.4 71.4 0 0 0 34 8.5 68.52 68.52 0 0 0 33.5-8.5 94.72 94.72 0 0 0 27.5-23 105.54 105.54 0 0 0 18.5-33.5 125.94 125.94 0 0 0 6.5-41 130.47 130.47 0 0 0 -6.5-41.5 104.57 104.57 0 0 0 -18.5-34 94.72 94.72 0 0 0 -27.5-23 68.52 68.52 0 0 0 -33.5-8.5zm-345 107a130.47 130.47 0 0 0 -6.5-41.5 104.57 104.57 0 0 0 -18.5-34 94.72 94.72 0 0 0 -27.5-23 68.52 68.52 0 0 0 -33.5-8.5 71.4 71.4 0 0 0 -34 8.5 92.34 92.34 0 0 0 -28 23 112.38 112.38 0 0 0 -19 34 121.81 121.81 0 0 0 -7 41.5 117.61 117.61 0 0 0 7 41 113.75 113.75 0 0 0 19 33.5 92.34 92.34 0 0 0 28 23 71.4 71.4 0 0 0 34 8.5 68.52 68.52 0 0 0 33.5-8.5 94.72 94.72 0 0 0 27.5-23 105.54 105.54 0 0 0 18.5-33.5 125.94 125.94 0 0 0 6.5-41zm534 957q0-111-50-167-79 70-373 70-66 0-117-4.5t-90-13.5q-39-9-67.5-22.5t-49.5-31.5q-36 59-36 150 0 152 100 246 101 95 263 95 193 0 306-89 114-90 114-233zm509-674q0 143-129 249-128 106-291 106-53 0-96-12l4 33-3 26a237.61 237.61 0 0 1 49 52.5 310.35 310.35 0 0 1 34.5 66 390.32 390.32 0 0 1 20 74 465.11 465.11 0 0 1 6.5 77.5q0 82-33 161 119 89 119 196 0 69-33 119t-79 76q-33 18-33 45a92.16 92.16 0 0 0 5.5 32q5.51 15 5.5 35 0 45-38 74-37 30-80 30-74 0-128-57-54-55-54-134 0-47 22.5-81t80.5-57q29-12 29-25 0-16-13.5-20t-41.5-9q-110 45-249 45-66 0-120-11t-99-32q-23 5-34 10t-11 17q0 12 30 25 55 23 77.5 57t22.5 81q0 79-55 134-56 57-127 57a116.12 116.12 0 0 1 -44-8.5 123.67 123.67 0 0 1 -37-23 113.09 113.09 0 0 1 -25.5-33.5 86.33 86.33 0 0 1 -9.5-39l5-35 4-30q0-28-31-47a231.25 231.25 0 0 1 -82.5-79q-31.5-50-31.5-116 0-53 35-106.5t94-95.5q-33-85-33-172 0-77 27-157 14-41 34-66.5t46-39.5q12-30 12-54a291.67 291.67 0 0 1 -53.5 13 406.14 406.14 0 0 1 -58.5 4 463.93 463.93 0 0 1 -109-13 555 555 0 0 1 -107-38q-51-25-96-68-45-42-77-112-33-72-33-124 0-65 40-101t115-36q96 0 119 78l5 34q0 39 11.5 63.5t32 39.5q20.5 15 48 21.5a355.06 355.06 0 0 0 59.5 8.5q22 2 47.5-5a469.09 469.09 0 0 0 56.5-20q-177-163-177-387a517.42 517.42 0 0 1 15-124 499.29 499.29 0 0 1 45-117 535.34 535.34 0 0 1 74-105q44-49 102-88-62-59-62-123 0-23 13.5-44t41.5-21q17 0 34 15 43 40 111.5 60t166.5 20q75 0 142.5 18.5a561.26 561.26 0 0 1 130.5 54.5q124 71 196 194 71 121 71 257 0 225-165 382l-6 4q21 8 52.5 18.5a199.68 199.68 0 0 0 63.5 10.5 213.88 213.88 0 0 0 59-8q28-8 48-24a123 123 0 0 0 32-38.5q12-22.5 12-51.5v-16q0-47 33-77t90-30q73 0 114 35t41 102z"/></svg>