<svg viewBox="0 0 2414 1827" xmlns="http://www.w3.org/2000/svg"><path d="m1756 807-3-10q-1-8-13-25t-33-34q-21-17-49.5-29t-61.5-11q-32 1-57 10.5t-42 21q-17 11.5-26.5 21l-10.5 10.5a87.4 87.4 0 0 0 -5 9.5 23.2 23.2 0 0 0 -2 9.5q0 11 9 20t21 9q13 0 24-12 31-40 91-40 32 0 58.5 15.5t36.5 32.5l6 12q11 19 26 19l11-1q20-6 20-28zm-918-50a119.19 119.19 0 0 1 65 19q29 18 29 25a63.76 63.76 0 0 0 9.5 8q4.5 3 12.5 3 12 0 21-9a29.92 29.92 0 0 0 9-22 43.51 43.51 0 0 0 -1-9.5 15 15 0 0 0 -4-7.5q-2-1-11.5-11.5t-27-22q-17.5-11.5-43-21.5t-58.5-11q-32-1-59.5 10.5a219 219 0 0 0 -48.5 27.5q-21 16-33.5 32.5t-13.5 25.5l-1 11q0 11 7.5 20.5t21.5 9.5q16 0 27-19 34-59 99-59zm794 275q0-42-33.5-67.5t-90.5-25.5q-47 0-99 15a727 727 0 0 1 -95 20 720.43 720.43 0 0 1 -102 7q-34 0-59.5-1a354.76 354.76 0 0 1 -43.5-4q-23-4-47-10t-48.5-12q-24.5-6-49-10.5a268 268 0 0 0 -48.5-4.5q-59 0-90.5 25.5t-32.5 67.5q-2 47 34 89.5t95 75q59 32.51 135 50.5a603.61 603.61 0 0 0 155 16q58-2 110-8.5a572.36 572.36 0 0 0 100-21.5 438.06 438.06 0 0 0 86-37.5q39-22.5 66.5-49.5t42.5-56q15-29 15-58zm560-1019q57-1 98 19t68.5 50q27.49 30 41 65t14.5 65l-100 1133-6 70q-2 19-13.5 42.5t-33 45.5q-21.49 22-53.5 38.5t-75 21.5l-11-284 2-50q5-171-44.5-312a831.18 831.18 0 0 0 -144.5-256q10-238 17-361t10-134q3-26 20.5-53t47.5-49q30-22 71-36t91-15zm-1925 1266-9 275q-51-3-87.5-20t-60.5-40.5q-24-23.5-36-49.5t-13-47l-3-34v-36l-58-1132q0-4 3-20t11.5-38q8.5-22 24.5-46t41.5-44q25.5-20 62.5-33.5t87-13.5q84 0 142.5 41t82.5 121l8 492a654 654 0 0 0 -84.5 128.5 900 900 0 0 0 -59 150 1222.29 1222.29 0 0 0 -36.5 167 1567.77 1567.77 0 0 0 -16 179.5zm1800 548h-1740v-479q41 42 124.5 78t199.5 63q116 27 260 42t308 15q135 0 250-11.5t209-29q94-17.51 166-39.5t121-42.5q49-20.51 74.5-37t27.5-24.5zm-16-676q0 23-2 48t-5 53q-65 53-138.5 85a1002.94 1002.94 0 0 1 -151.5 52q-39 10-81 17.5t-88 15.5q-46 7-89.5 12t-87.5 8q-43 3-95 4t-114 2q-154 1-290.5-15t-246.5-44.5q-110-28.5-189.5-66.5t-119.5-82q-2-5-3-24t-1-54q0-31 3-64a609.38 609.38 0 0 1 10.5-69 724.93 724.93 0 0 1 20.5-76 882.11 882.11 0 0 1 33-85q41-90 89-147a821 821 0 0 1 108.5-106.5q60.5-49.5 144.5-94.5l-85-257-2-19q0-24 16-44t45-20q44 0 58 42l80 246q66-23 145-35.5t173-12.5q103 0 191 13t163 39l64-246a64.81 64.81 0 0 1 22.5-33q16.5-13 36.5-13 28 0 45 19t17 43l-71 282q187 99 291 273 104 172 104 354z"/></svg>