<svg viewBox="0 0 2188 1396" xmlns="http://www.w3.org/2000/svg"><path d="m1611 1052q71 0 122 51 50 50 50 120 0 72-50 122-51 51-122 51-70 0-122-51-50-50-50-122 0-70 49-120 50-51 123-51zm-1167 0q71 0 122 51t51 120q0 71-51 122t-122 51q-70 0-122-51-50-50-50-122 0-70 49-120 50-51 123-51zm374-502v-264q0-23-16.5-39.5t-39.5-16.5h-163a64.28 64.28 0 0 0 -42.5 15.5 63.6 63.6 0 0 0 -22.5 39.5l-38 265v7a47.8 47.8 0 0 0 48 48h218q23 0 39.5-15.5t16.5-39.5zm127-550h1187q24 0 40 16t16 39v1114q0 23-16 38.5t-40 15.5h-290q0-94-67-161-69-69-164-69t-164 69q-67 67-67 161h-705q0-46-16-86.5t-51-74.5q-69-69-164-69t-164 69q-67 67-67 161h-138q-24 0-49-27-14-14-20-28a70.58 70.58 0 0 1 -6-28v-260q0-61 30-105t75-61l274-102 58-346a168.17 168.17 0 0 1 19-54 181.86 181.86 0 0 1 33.5-43.5 148.51 148.51 0 0 1 44-29 127 127 0 0 1 50.5-10.5h306v-74q0-23 15.5-39t39.5-16z"/></svg>