<svg viewBox="0 0 2264 1804" xmlns="http://www.w3.org/2000/svg"><path d="m695 628-97 11q2 29 18.5 56.5t45.5 48.5q29 21 70 34t92 13q88 0 158-38 74-39 74-74 0-20-14.5-34.5t-34.5-14.5a61.6 61.6 0 0 0 -17.5 2.5q-8.5 2.5-16.5 10.5-54 52-152 52-104 0-126-67zm1033 51-97-11q0 11-8.5 23t-25 21.5q-16.5 9.5-40.5 15.5t-55 6q-54 0-100-19-22-10-33.5-18t-14.5-14q-17-14-34-14-20 0-35.5 15t-15.5 35q0 34 73 74 72 38 161 38h18q78 0 140-44 61-43 67-108zm-656 561q117 0 193 150-40 57-88 88t-95 31a119.25 119.25 0 0 1 -54-13 186.83 186.83 0 0 1 -48.5-35.5q-22.5-22.5-40-53.5a297.91 297.91 0 0 1 -27.5-67q76-100 160-100zm-13 496q95 0 227-71 67-36 119-79.5t87.5-90.5q35.51-47 54-96.5t18.5-99.5q0-106-63-177-65-71-160-71-42 0-75.5 16a370.51 370.51 0 0 0 -60 35.5q-26.5 19.5-45.5 35.5t-32 16q-17 0-35.5-21.5t-46.5-47q-28-25.5-70-47t-106-21.5q-116 0-178 67t-62 198q0 50 15.5 102t47.5 106a615.72 615.72 0 0 0 71.5 99.5 465.78 465.78 0 0 0 90.5 78.5q101 68 203 68zm1205-384q0 47-2 79t-5 52q-28 38-100 69t-188 56q-117 25-256 40t-304 23a798.74 798.74 0 0 1 -88.5 55.5 812.18 812.18 0 0 1 -90.5 42 553.67 553.67 0 0 1 -88.5 26.5q-43.5 9-82.5 9-87 0-175.5-36.5t-163.5-114.5q-141-11-263.5-35.5t-217-55.5q-94.5-31-155-65t-77.5-64q-7-17-7-88a745.3 745.3 0 0 1 8.5-114 754.83 754.83 0 0 1 25.5-109.5 891.53 891.53 0 0 1 42.5-109.5q25.5-55 58.5-114 69-120 182-216.5t279-181.5l-49-409-1-10q0-33 24-57t58-24q32 0 54 20t27 52l45 369q153-47 351-47 95 0 182.5 8.5a1374 1374 0 0 1 169.5 27 1173.13 1173.13 0 0 1 159.5 48 1123 1123 0 0 1 153.5 72.5l183-328q24-41 72-41 36 0 58 23.5t22 55.5a107.2 107.2 0 0 1 -2 21 65.22 65.22 0 0 1 -7 19l-190 341q194 161 276 327 82 164 82 384z"/></svg>