<svg viewBox="0 0 2262 1613" xmlns="http://www.w3.org/2000/svg"><path d="m698 817q0-72-30-107-68 48-172 48-10 23-10 53a144.69 144.69 0 0 0 7.5 47 122.6 122.6 0 0 0 21 38.5 106.43 106.43 0 0 0 32 26.5 83.75 83.75 0 0 0 40.5 10q41 0 72-32.5t39-83.5zm654 53a136.55 136.55 0 0 0 8 47 131.34 131.34 0 0 0 22 39 111.56 111.56 0 0 0 32 27 79 79 0 0 0 39 10 97.16 97.16 0 0 0 44-10.5 122.44 122.44 0 0 0 37-28.5 125.58 125.58 0 0 0 24.5-42 120.46 120.46 0 0 0 6.5-50l-1-21-30-11a395.3 395.3 0 0 1 -68.5-32.5 209.17 209.17 0 0 1 -53.5-46.5q-60 41-60 119zm540 233q20 0 33.5-7.5a60.77 60.77 0 0 0 21.5-19.5 82 82 0 0 0 11.5-26.5 121.4 121.4 0 0 0 3.5-28.5q0-30-19-85a372.13 372.13 0 0 0 -21.5-51.5q-12.5-24.5-26.5-48.5-27-47-38-47-14 0-36 66-22 63-22 122 0 57 24 91.5t69 34.5zm-790 208q0-84-43-170-43-85-107-85-47 0-90 64-41 63-41 150 0 37 12 68.5a166 166 0 0 0 34 55 152.27 152.27 0 0 0 53 36.5q31 13 69 13 113 0 113-132zm1160-24q0 45-1 73t-3 40q-28 48-186 97-80 24-183.5 45t-234.5 38q-130 17-249 25t-231 8q-132 0-268-6t-279-20q-72-7-139-17.5t-132-26.5q-129-32-214-68.5t-135-91.5q-3-20-5-45.5t-2-59.5a798.83 798.83 0 0 1 8.5-118 712.15 712.15 0 0 1 26.5-113 954.56 954.56 0 0 1 45-113.5q27-57.5 63-120.5 10-17 28.5-43.5t46.5-60.5q28-34 61.5-68.5a972 972 0 0 1 73.5-68 1048.94 1048.94 0 0 1 87.5-65.5 1063.25 1063.25 0 0 1 105.5-62l-113-335-4-26q0-33 23-58t59-25q23 0 45.5 14.5a71.79 71.79 0 0 1 30.5 40.5l108 320q89-33 191.5-49t220.5-16a2250.3 2250.3 0 0 1 237.5 13q122.5 13 245.5 59l83-321q8-28 30-45a79.63 79.63 0 0 1 50-17q36 0 58 25t22 57l-2 21-91 347 14 7q31 16 67.5 40.5t75.5 56q39 31.5 79.5 68.5t79.5 78q78 81 141 233 65 151 65 354z"/></svg>