<svg viewBox="0 0 2264 1679" xmlns="http://www.w3.org/2000/svg"><path d="m1918 1173 1-9q0-23-22-30a277 277 0 0 1 -65.5-31.5 248.85 248.85 0 0 1 -50.5-43.5 194.11 194.11 0 0 1 -32.5-50.5 133.27 133.27 0 0 1 -11.5-53.5q0-11-8.5-21t-22.5-10q-30 0-32 31a198.71 198.71 0 0 0 14 73.5 234.28 234.28 0 0 0 40.5 66.5q26.51 31 64.5 56.5t85 41.5l10 1q24 0 30-21zm-161 216q0-33-42-62-20-14-48.5-27t-68.5-22.5q-40-9.49-93-15t-122-5.5q-100 0-178.5 6.5t-136.5 18.5q-115 24-180.5 67t-65.5 93q0 42 55 81t116 39q61 0 129-39 131-77 178-93 46-18 104-18 80 0 132 29 60 33 101 33a132.35 132.35 0 0 0 46.5-8 157.65 157.65 0 0 0 38-20q16.5-12 26-27t9.5-30zm-913-381-1 11q0 23 20 29 1 0 11.5 3.5t27 7.5a381.34 381.34 0 0 0 39 7 376.11 376.11 0 0 0 49.5 3q99 0 182-48 85-49 85-81 0-12-9-21.5a29.15 29.15 0 0 0 -22-9.5 29.92 29.92 0 0 0 -22 9q-88 88-215 88-45 0-73-7.5t-31-9.5l-11-1q-19 0-30 20zm-276-295q0-10-9-10-66 0-131 70-63 69-63 138 0 24 15 47t48 23q33 0 49.5-26.5t24.5-80.5l7-49q14-45 52-93a87.4 87.4 0 0 0 5-9.5 23.2 23.2 0 0 0 2-9.5zm1696 640q0 41-2 74t-5 59q-25 34-98 64.5t-208 61.5q-67 15-152.5 27.5t-191.5 21.5q-209 18-379 18-182 0-435-18-252-18-366-45-124-29-200.5-56.5t-121-51.5q-44.5-24-65.5-43t-33-30q-3-9-5-31t-2-58a827.75 827.75 0 0 1 7-109.5 604.27 604.27 0 0 1 22-100.5q30-98 98-223 70-128 187-229.5t282-183.5l-49-411-1-9q0-33 24-56.5t58-23.5q32 0 54.5 20a78.77 78.77 0 0 1 26.5 50l43 371q77-24 163.5-35.5t185.5-11.5q189 0 352.5 35.5t316.5 120.5l183-330q24-41 72-41a73.76 73.76 0 0 1 32.5 7 81.35 81.35 0 0 1 25 18.5 86.68 86.68 0 0 1 16.5 26.5 82.73 82.73 0 0 1 6 31 94.58 94.58 0 0 1 -2 19.5 66 66 0 0 1 -7 18.5l-192 342q41 33 78 66a918.27 918.27 0 0 1 70 69.5 853 853 0 0 1 62.5 78 773.82 773.82 0 0 1 55.5 91.5 891.23 891.23 0 0 1 44 98 725.29 725.29 0 0 1 29 97.5 836.46 836.46 0 0 1 16 101.5q5 52 5 109z"/></svg>