<svg viewBox="0 0 1620 1850.44" xmlns="http://www.w3.org/2000/svg"><path d="m1212 168h334q32 0 53 20.5t21 52.5v806q0 29-21 50.5t-53 21.5h-291a456.37 456.37 0 0 1 -12.5 107 520.57 520.57 0 0 1 -37.5 104q-47 100-109 141-55 35-78 62t-23 57q0 64 46 86 14 7 27.5 14.5a116.79 116.79 0 0 1 24 17.5 78.26 78.26 0 0 1 17 24q6.49 14 6.5 34 0 51-56 59-83 13-155.5 20t-135.5 5l-129-4-156-7a152.08 152.08 0 0 1 -31-5.5 110.41 110.41 0 0 1 -30-13.5 83.81 83.81 0 0 1 -23-21.5q-9-12.49-9-29.5 0-50 67-83 67-34 67-81 0-42-36-70.5t-111-54.5a390.84 390.84 0 0 1 -78-36.5 505 505 0 0 1 -74.5-55 499 499 0 0 1 -65-70 435.75 435.75 0 0 1 -49.5-81.5q-11-24-60-49-51-27-51-96 0-55 32.5-80.5t97.5-27.5l64-2q45-1 112-3t157-2q90 0 192.5-4t220.5-2l123 3a352.36 352.36 0 0 1 -39-67l-272-633q-23-54-34.5-95t-11.5-73q0-49 23.5-77.5t72.5-28.5q32 0 61.5 28.5t55.5 87.5l153 358 44 106q18 45 39 95.5t49 107.5v-542q0-32 21.5-52.5t50.5-20.5z"/></svg>