<svg viewBox="0 0 2262 1613" xmlns="http://www.w3.org/2000/svg"><path d="m1857 1021h5q11 0 21.5-8.5t10.5-22.5a22.74 22.74 0 0 0 -4.5-16.5q-5.51-7.5-22-13.5t-47.5-9q-31-3-82-3-36 0-72 2.5t-73 7.5a1229.8 1229.8 0 0 1 236-136q17-7 26.5-12t14-9.5q4.5-4.5 5.5-9a48.61 48.61 0 0 0 1-10.5q0-14-10.5-22.5t-21.5-8.5q-11 0-93 41-39 20-79.5 43t-78.5 48q-38 25-72 52a620.56 620.56 0 0 0 -61 55 28.47 28.47 0 0 0 -10 22q0 16 9.5 23.5a35.21 35.21 0 0 0 22.5 7.5l8-1 25-5a998.6 998.6 0 0 1 224-25q69 0 118 10zm-937 5 102 4 43 4a34.45 34.45 0 0 0 22-8q10-8 10-23 0-16-12-25a760.07 760.07 0 0 0 -91.5-62q-48.5-28-97-51t-93-40.5q-44.5-17.5-79.5-29.5t-57-18.5q-22-6.5-25-7.5l-8-1a35.21 35.21 0 0 0 -22.5 7.5q-9.5 7.5-9.5 23.5 0 24 24 30 17 0 125 42 56 22 105.5 45t94.5 49h-40q-81 0-150.5 8.5t-128.5 27.5q-22 7-22 33a25.15 25.15 0 0 0 10.5 21q10.5 8 21.5 8l10-1q54-18 120.5-28.5t147.5-7.5zm767 308q0-39-38-70-19-15-53.5-30t-86.5-29q-102-27-212-27-171 0-319 56-145 55-145 148 0 53 83.5 78.5t267.5 25.5q120 0 213.5-9.5t158-29q64.5-19.5 98-47.5t33.5-66zm575-47q0 45-1 73t-3 40q-28 48-186 97-80 24-183.5 45t-234.5 38q-130 17-249 25t-231 8q-132 0-268-6t-279-20q-72-7-139-17.5t-132-26.5q-129-32-214-68.5t-135-91.5q-3-20-5-45.5t-2-59.5a798.83 798.83 0 0 1 8.5-118 712.15 712.15 0 0 1 26.5-113 954.56 954.56 0 0 1 45-113.5q27-57.5 63-120.5 10-17 28.5-43.5t46.5-60.5q28-34 61.5-68.5a972 972 0 0 1 73.5-68 1048.94 1048.94 0 0 1 87.5-65.5 1063.25 1063.25 0 0 1 105.5-62l-113-335-4-26q0-33 23-58t59-25q23 0 45.5 14.5a71.79 71.79 0 0 1 30.5 40.5l108 320q89-33 191.5-49t220.5-16a2250.3 2250.3 0 0 1 237.5 13q122.5 13 245.5 59l83-321q8-28 30-45a79.63 79.63 0 0 1 50-17q36 0 58 25t22 57l-2 21-91 347 14 7q31 16 67.5 40.5t75.5 56q39 31.5 79.5 68.5t79.5 78q78 81 141 233 65 151 65 354z"/></svg>