<svg viewBox="0 0 2316 1962" xmlns="http://www.w3.org/2000/svg"><path d="m1765 841q0-15-11-27t-28-12q-23 0-34 19-51 74-141 74-35 0-61-11t-43-24.5q-17-13.5-26-25t-11-13.5q-10-19-34-19-17 0-27.5 12t-10.5 27q0 15 5 20 12 23 33 43a248.83 248.83 0 0 0 48 35.5 256.44 256.44 0 0 0 59.5 24.5 251.79 251.79 0 0 0 67.5 9 248 248 0 0 0 66.5-9 281.8 281.8 0 0 0 60-24 219.16 219.16 0 0 0 48.5-35.5q21-20.5 33-43.5 6-6 6-20zm-992 132q28-2 53-6a174.81 174.81 0 0 0 48-15 263.37 263.37 0 0 0 43.5-24 228.31 228.31 0 0 0 35.5-29.5 170.89 170.89 0 0 0 24-30.5q9-15 9-27 0-15-10.5-27t-27.5-12q-23 0-34 19-56 74-141 74a107.12 107.12 0 0 1 -51-6.5 221.82 221.82 0 0 1 -44.5-22.5q-19.5-13-31.5-26t-13-19q-13-19-35-19-17 0-27.5 11.5a38.14 38.14 0 0 0 -10.5 26.5q0 17 17.5 40t47.5 44.5q30 21.5 68.5 36a196.15 196.15 0 0 0 79.5 12.5zm280 375q0-12-9.5-22.5t-26-17.5a184.37 184.37 0 0 0 -37.5-11 234.54 234.54 0 0 0 -44-4 141.59 141.59 0 0 0 -46 7.5 108.6 108.6 0 0 0 -38.5 22.5 113.24 113.24 0 0 0 -26.5 36.5q-10 21.5-10 48.5 0 33 24 68-77 29-77 107 0 57 43.5 96.5t131.5 53.5l8 2q17 0 28.5-11.5a37.51 37.51 0 0 0 11.5-27.5q0-33-30-39-115-25-115-74 0-24 22.5-33t67.5-9a40.14 40.14 0 0 0 28-11q12-11 12-28 0-25-23-37-52-24-52-59t39-35q28 0 66 15l14 3q17 0 28-12t11-29zm1260-114q0 38-45 38l-149-27q0 17-2 46.5t-6 72.5l102 33q26 8 26 38 0 17-11 27.5t-27 10.5q-4 0-30.5-7.5t-74.5-23.5q-17 65-45 120.5a506.11 506.11 0 0 1 -69 103q-41 47.51-95.5 88t-123.5 75.5a1067.32 1067.32 0 0 1 -145.5 60.5 1132.42 1132.42 0 0 1 -161.5 40.5q-85 16-163.5 24a1505.45 1505.45 0 0 1 -152.5 8q-228 0-430-60-101-30-185-72.5t-149-98.5a579.2 579.2 0 0 1 -110-126q-45-70-68-156-75 24-82 24-17 0-29-10.5t-12-27.5q0-29 29-38l78-26a524.54 524.54 0 0 1 -6.5-60q-1.5-30-1.5-62l-125 23q-46 0-46-39 0-33 33-39l140-26q5-38 8.5-63t7.5-39l-159-23q-33-6-33-40 0-17 11.5-27.5a38.14 38.14 0 0 1 26.5-10.5h6l168 24q39-110 93-193-9-79-14-160.5t-5-168.5q0-230 42-348.5t119-118.5q35 0 82.5 22t104.5 65q57 43 123 106t138 145l57 66q105-15 194-15 88 0 193 15l59-66q147-164 261.5-251t185.5-87q75 0 117 118.5t42 346.5q0 93-4 175.5t-14 155.5a990.23 990.23 0 0 1 95 197l191-28h6q17 0 27.5 11t10.5 28q0 33-33 39l-182 26 14 95 167 30q31 6 31 40z"/></svg>