<svg viewBox="0 0 2392 2096.93" xmlns="http://www.w3.org/2000/svg"><path d="m1178 1483.93h13q119 0 223-10t196-31q182-42 247-108l-52-53q-22 22-72.5 44.5t-128 41q-77.51 18.49-181 30t-230.5 11.5h-15q-118 0-207-10t-153.5-25q-64.5-15-108-33t-69.5-34q-26-16-38-28t-14-15l-62 41q28 47 106 85 39 19 91 36t118.5 30q66.5 13 150 20.5t186.5 7.5zm388-606q-40 0-61.5 29t-21.5 70a133.65 133.65 0 0 0 8 46 118.64 118.64 0 0 0 22 38 109.32 109.32 0 0 0 32.5 25.5 85.29 85.29 0 0 0 39.5 9.5q20 0 36-8a81.24 81.24 0 0 0 27-21.5 98.83 98.83 0 0 0 17-31.5 116.28 116.28 0 0 0 6-37 129.47 129.47 0 0 0 -8-45.5 120.59 120.59 0 0 0 -22.5-38 116.49 116.49 0 0 0 -33.5-26.5 86.67 86.67 0 0 0 -41-10zm-657 92a125.79 125.79 0 0 0 -5.5-37 96.9 96.9 0 0 0 -16-31.5 83.13 83.13 0 0 0 -26-22q-15.5-8.5-35.5-8.5a86.2 86.2 0 0 0 -39 9.5 113.09 113.09 0 0 0 -33.5 25.5 128.12 128.12 0 0 0 -23.5 38 120.31 120.31 0 0 0 -9 46q0 41 24.5 70.5t62.5 29.5a79.07 79.07 0 0 0 39-10 111.56 111.56 0 0 0 32-27 133.15 133.15 0 0 0 22-38.5 126.71 126.71 0 0 0 8-44.5zm1137 372q0 34-2 59t-5 42a644.86 644.86 0 0 1 -85 57.5 700 700 0 0 1 -98 45.5q-52 19-118 36t-147.5 29.5q-81.49 12.49-180.5 20t-216 7.5q-306 0-525-55-112-28-191.5-66.5t-127.5-86.5q-6-10-6-80 0-118 41-231 35-94 74-154 40-63 115-131t181-125l-85-256-3-21q0-24 16.5-43t43.5-19a64.35 64.35 0 0 1 36.5 11q16.5 11 22.5 31l81 246q65-23 143.5-35.5t172.5-12.5q104 0 192.5 13t163.5 39l63-246q5-22 21.5-34a60.65 60.65 0 0 1 36.5-12q28 0 45 19t17 42l-71 283q98 53 170.5 121.5a719.52 719.52 0 0 1 123.5 153.5q51 86 76 173a644.75 644.75 0 0 1 25 179zm-1 755h-1698v-558q89 92 324 146 237 54 546 54 196 0 349-24.5t258.5-56.5q105.49-32 161.5-62.5t59-42.5zm-1776-636v451q-128-155-198.5-347t-70.5-409a1163.5 1163.5 0 0 1 20.5-218.5 1233.67 1233.67 0 0 1 58.5-207.5 1187.29 1187.29 0 0 1 93.5-192 1208.08 1208.08 0 0 1 125.5-172 1164.76 1164.76 0 0 1 330-262q188-103.01 288-103 54 0 100 19.5t85 57.5q79 76 79 183 0 78-37.5 140t-104.5 98q-30 8-60.5 18a495.69 495.69 0 0 0 -61.5 25l-50-154q-15-45-50-71t-82-26a134.41 134.41 0 0 0 -55 11.5 142.66 142.66 0 0 0 -45 31 147.6 147.6 0 0 0 -30 45 136.15 136.15 0 0 0 -11 54.5 96.77 96.77 0 0 0 2.5 22.5 195.89 195.89 0 0 0 6.5 21.5l64 196a971.64 971.64 0 0 0 -94 67 1034.11 1034.11 0 0 0 -91 83 843.38 843.38 0 0 0 -75.5 92.5 584.64 584.64 0 0 0 -54.5 95.5q-21 48-36.5 92a747.83 747.83 0 0 0 -24.5 84q-19 80-15 96zm950-1200q0-108 76-183a312.56 312.56 0 0 1 86-60q47-22 102-17l34 3a1119.78 1119.78 0 0 1 238 94q112 60 213 145 201 171 312 409 112 240 112 504 0 424-269 755v-436l4-52 4-81a532.87 532.87 0 0 0 -21.5-181.5q-26.51-89.51-74.5-179.5a778.11 778.11 0 0 0 -118.5-165.5q-70.5-75.51-167.5-138.5l52-208 4-36q0-58-41-99-40-43-97-43-48 0-86 30t-49 77l-38 152a907.57 907.57 0 0 0 -128-48q-73-37-110-101.5t-37-139.5z"/></svg>