<svg viewBox="0 0 768 2334" xmlns="http://www.w3.org/2000/svg"><path d="m125 910v858h509v-858zm500-372h-482a311.68 311.68 0 0 0 104 96q63 36 137 36 75 0 137.5-36a313.24 313.24 0 0 0 103.5-96zm-516-78h550q11-39 11-75 0-16-1-28.5a89.28 89.28 0 0 0 -5-23.5h-560a103.93 103.93 0 0 0 -5 25q-1 13-1 27 0 36 11 75zm275-361q-84 0-150.5 42a283.54 283.54 0 0 0 -102.5 112h507a291.82 291.82 0 0 0 -44-63.5 266.08 266.08 0 0 0 -59-48.5 294.14 294.14 0 0 0 -71-31 286.42 286.42 0 0 0 -80-11zm60 1971h225q32 0 55 22t23 54v188h-735v-188q0-32 23-54t55-22h226v-204h-240q-20 0-34.5-14.5t-14.5-34.5v-956q0-21 14.5-34.5a48.91 48.91 0 0 1 34.5-13.5h240v-51q-138-24-227-131-89-105-89-246 0-159 112-271 112-114 272-114 158 0 271 114 113 113 113 271 0 142-91 248-93 108-233 130v50h240q20 0 33.5 13.5t13.5 34.5v956a48.91 48.91 0 0 1 -13.5 34.5 43.91 43.91 0 0 1 -33.5 14.5h-240z"/></svg>