<svg viewBox="0 0 1532 1970" xmlns="http://www.w3.org/2000/svg"><path d="m1468 337q64 0 64 83 0 78-56 179a622.6 622.6 0 0 1 -66.5 97.5q-38.5 46.5-89.5 88.5a851.42 851.42 0 0 1 -107 76.5 800.64 800.64 0 0 1 -118.5 59 740.67 740.67 0 0 1 -124.5 37.5 617 617 0 0 1 -125 13 624.76 624.76 0 0 1 -74.5-4.5q-37.5-4.5-75.5-9.5t-76-9.5a637.29 637.29 0 0 0 -75-4.5q-122 0-218.5 26.5t-168.5 81.5v841q0 33-23 55.5t-56 22.5q-32 0-55-22.5t-23-55.5v-1814q0-33 23-55.5t55-22.5q33 0 56 22.5t23 55.5v5l8-1q35-6 67-10.5a445.19 445.19 0 0 1 62-4.5q235 3 477 160 69 45 126 77.5t106 52.5q95 40 190 40a458.89 458.89 0 0 0 72.5-6q37.5-6 79.5-17a301.9 301.9 0 0 0 29-10q15-6 30.5-12t31.5-10.5a117.72 117.72 0 0 1 32-4.5z"/></svg>