<svg viewBox="0 0 2262 1613" xmlns="http://www.w3.org/2000/svg"><path d="m2262 1287q0 45-1 73t-3 40q-28 48-186 97-80 24-183.5 45t-234.5 38q-130 17-249 25t-231 8q-132 0-268-6t-279-20q-72-7-139-17.5t-132-26.5q-129-32-214-68.5t-135-91.5q-3-20-5-45.5t-2-59.5a798.83 798.83 0 0 1 8.5-118 712.15 712.15 0 0 1 26.5-113 954.56 954.56 0 0 1 45-113.5q27-57.5 63-120.5 10-17 28.5-43.5t46.5-60.5q28-34 61.5-68.5a972 972 0 0 1 73.5-68 1048.94 1048.94 0 0 1 87.5-65.5 1063.25 1063.25 0 0 1 105.5-62l-113-335-4-26q0-33 23-58t59-25q23 0 45.5 14.5a71.79 71.79 0 0 1 30.5 40.5l108 320q89-33 191.5-49t220.5-16a2250.3 2250.3 0 0 1 237.5 13q122.5 13 245.5 59l83-321q8-28 30-45a79.63 79.63 0 0 1 50-17q36 0 58 25t22 57l-2 21-91 347 14 7q31 16 67.5 40.5t75.5 56q39 31.5 79.5 68.5t79.5 78q78 81 141 233 65 151 65 354zm-1155 174h19q109 0 209-6.5t193-19.5q93-13 169-32.5t135-41.5q59-22 99.5-43.5t62.5-38.5l20-16-71-71q-3 3-21.5 16.5t-57.5 32.5q-39 19-100.5 40t-151.5 39q-90 18-210 29.5t-276 11.5h-18q-164 0-292-15t-230-44a865.62 865.62 0 0 1 -94-30 770.83 770.83 0 0 1 -78.5-35q-34.5-18-58-36t-33.5-33l-82 54q25 46 100.5 89t189.5 76.5q114 33.5 261 53.5t316 20zm-607-683a133.19 133.19 0 0 0 8.5 47.5 126.82 126.82 0 0 0 23.5 39.5 111.29 111.29 0 0 0 36 27 103.29 103.29 0 0 0 45 10 108.79 108.79 0 0 0 46.5-10.5 116.23 116.23 0 0 0 39-29.5 155.4 155.4 0 0 0 26.5-43.5q10-24.5 10-53.5a134.84 134.84 0 0 0 -31.5-87 113.49 113.49 0 0 0 -35-27.5 96.2 96.2 0 0 0 -44.5-10.5q-52 0-89 43-35 41-35 95zm1026-2q0 29 10 53a136.22 136.22 0 0 0 26.5 41.5 121.48 121.48 0 0 0 38.5 27.5 109.9 109.9 0 0 0 46 10q25 0 45.5-10a116.53 116.53 0 0 0 35.5-26.5 120.74 120.74 0 0 0 23.5-39 133.19 133.19 0 0 0 8.5-47.5 148 148 0 0 0 -35.5-96 130.9 130.9 0 0 0 -38.5-30.5 100 100 0 0 0 -47-11.5 103.29 103.29 0 0 0 -45 10 108.06 108.06 0 0 0 -36 27.5 130.58 130.58 0 0 0 -23.5 41 147.29 147.29 0 0 0 -8.5 50.5z"/></svg>