<svg viewBox="0 0 2262 1613" xmlns="http://www.w3.org/2000/svg"><path d="m1687 1305q52 0 52-76 0-42-44-88-43-46-83-52-11 0-11 15 0 17 7 42a177.8 177.8 0 0 1 7 48q0 51 19.5 81t52.5 30zm-153-319q23 0 36.5-15.5t13.5-38.5q0-54-50-92-48-38-114-38-13 0-13 9 0 8 5 19.5a222.49 222.49 0 0 0 12 23.5q7 12 14 24.5a161.59 161.59 0 0 1 11 23.5q31 84 85 84zm-1027-216v-7q0-12-9-12-43 0-95 40-52 39-52 87 0 76 50 76 60 0 80-99zm-136 459a168.07 168.07 0 0 0 -12-63l-7-30q-8-35-12.5-52.5t-12.5-17.5q-21 0-50 50-29 48-29 91a102.26 102.26 0 0 0 5.5 32.5 116 116 0 0 0 14.5 29.5 78.53 78.53 0 0 0 21 21q12 8 25 8 20 0 38.5-18.5t18.5-50.5zm172-548a31.93 31.93 0 0 0 9.5 23.5 30.75 30.75 0 0 0 22.5 9.5l7-1a368.23 368.23 0 0 1 76-8q47 0 79.5 6t37.5 6h6a34.45 34.45 0 0 0 22-8q10-8 10-24 0-22-68-69a787.22 787.22 0 0 0 -67-41.5 530.25 530.25 0 0 0 -63-29.5l-25-10-11-3q-12 0-21.5 9t-9.5 23q0 21 20 30 55 22 100 48-62 0-93.5 7t-31.5 32zm832-72a32.6 32.6 0 0 0 -8.5-22.5q-8.5-9.5-22.5-9.5-11 0-38.5 7t-69.5 21q-42 14-75 28.5a407.09 407.09 0 0 0 -59 31.5q-14 8-14 26 0 31 44 31 113 0 186 32l12 3q11 0 20.5-7.5t9.5-23.5q0-35-119-58l77-21 31-7q26-6 26-31zm-70 524q1-51-22.5-107.5a395.94 395.94 0 0 0 -62.5-103q-39-46.5-88-76t-100-27.5a304.76 304.76 0 0 0 -55 9q-27 7-53 24-22 14-45 14-26 0-74-25-48-23-86-23-50 0-93 40-42 37-69 107-26 65-26 125a141.59 141.59 0 0 0 7.5 46 107.4 107.4 0 0 0 22 38 105.17 105.17 0 0 0 36 25.5q21.5 9.5 49.5 9.5 27 0 75-16 52-16 78-16 96 0 190 82 54 45 128 45 39 0 73-10.5t59.5-32q25.5-21.5 40.5-53.5t15-75zm957 154q0 45-1 73t-3 40q-28 48-186 97-80 24-183.5 45t-234.5 38q-130 17-249 25t-231 8q-132 0-268-6t-279-20q-72-7-139-17.5t-132-26.5q-129-32-214-68.5t-135-91.5q-3-20-5-45.5t-2-59.5a798.83 798.83 0 0 1 8.5-118 712.15 712.15 0 0 1 26.5-113 954.56 954.56 0 0 1 45-113.5q27-57.5 63-120.5 10-17 28.5-43.5t46.5-60.5q28-34 61.5-68.5a972 972 0 0 1 73.5-68 1048.94 1048.94 0 0 1 87.5-65.5 1063.25 1063.25 0 0 1 105.5-62l-113-335-4-26q0-33 23-58t59-25q23 0 45.5 14.5a71.79 71.79 0 0 1 30.5 40.5l108 320q89-33 191.5-49t220.5-16a2250.3 2250.3 0 0 1 237.5 13q122.5 13 245.5 59l83-321q8-28 30-45a79.63 79.63 0 0 1 50-17q36 0 58 25t22 57l-2 21-91 347 14 7q31 16 67.5 40.5t75.5 56q39 31.5 79.5 68.5t79.5 78q78 81 141 233 65 151 65 354z"/></svg>