<svg viewBox="0 0 1234 2206" xmlns="http://www.w3.org/2000/svg"><path d="m747 397q23 0 39.5-18t16.5-46q0-28-16.5-46t-39.5-18q-23 0-39 18t-16 46q0 28 16 46t39 18zm-7 78q0-15-10-24a33.37 33.37 0 0 0 -23-9l-17 6q-32 19-73 19-42 0-72-19l-18-6a30.75 30.75 0 0 0 -22.5 9.5 31.93 31.93 0 0 0 -9.5 23.5q0 11 10 21.5t27 18.5a190.88 190.88 0 0 0 39 13 207.2 207.2 0 0 0 46 5 211.9 211.9 0 0 0 47-5 190.88 190.88 0 0 0 39-13q17-8 27-18.5t10-21.5zm-308-142q0 28 16 46t39 18q24 0 40-18t16-46q0-28-16-46t-40-18q-23 0-39 18t-16 46zm802 1056q0 85-36.5 137.5t-98.5 52.5a133.65 133.65 0 0 1 -46-8 118.53 118.53 0 0 1 -38-22 102.36 102.36 0 0 1 -25-32.5 77.8 77.8 0 0 1 -8-38.5l6-84 4-75a213 213 0 0 0 -5-62q-7-30-20-68-13-40-24.5-64.5t-27.5-24.5q-12 0-19 5t-7 27l7 52q11 85 21.5 140.5t10.5 84.5q0 49-11.5 90.5a365.82 365.82 0 0 1 -32.5 79.5q-13 21-19 89-4 34-5.5 69t-1.5 71q0 171 37 198 67 49 67 104 0 96-127 96-105 0-150.5-43t-45.5-127q0-26 2-58t6-71q4-39 5.5-73t1.5-63q0-117-37-117-19 0-30 28.5t-7 85.5l16 268q6 87-44 128.5t-153 41.5q-127 0-127-96 0-51 67-104 20-16 29.5-66t9.5-135q0-40-2.5-77.5t-6.5-67.5q-4-30-9-51t-10-30q-42-66-42-170a551.61 551.61 0 0 1 5-70.5q5-38.51 14-85.5 18-91 18-121 0-22-7-27t-19-5q-16 0-28 25t-26 66q-13 40-19 69.5a217.45 217.45 0 0 0 -4 58.5l6 75 4 84a80.11 80.11 0 0 1 -8 39.5 97 97 0 0 1 -25 32 123.92 123.92 0 0 1 -38 21.5 133.65 133.65 0 0 1 -46 8q-62 0-98.5-51.5t-36.5-137.5q0-104 51-250a1245.23 1245.23 0 0 1 57.5-138.5 930.52 930.52 0 0 1 71-122q38.5-55.5 83-98t94.5-67.5q29-14 45.5-21.5t16.5-24.5q0-16-25-36-138-103-138-277 0-154 101-253 102-102 260-102 151 0 256 99t105 249q0 91-33.5 161.5t-103.5 122.5q-26 20-26 36t17 25l45 21q51 25 95.5 66.5t82.5 98.5a999 999 0 0 1 69.5 120 1290.1 1290.1 0 0 1 57.5 137q52 148 52 253z"/></svg>