<svg viewBox="0 0 2414 2282" xmlns="http://www.w3.org/2000/svg"><path d="m2414 1493a68.3 68.3 0 0 1 -7 31 79.69 79.69 0 0 1 -19 24.5 93.31 93.31 0 0 1 -27 16.5 82.73 82.73 0 0 1 -31 6q-23 0-46.5-18.5t-47.5-53q-24-34.5-46.5-83t-41.5-109.5q-23-71-37-110.5t-30-39.5q-20 0-20 37 0 34 11 78.5t37 95.5l27 53q16 33 27.5 54t18.5 34.5a163.43 163.43 0 0 1 10 22.5 56.63 56.63 0 0 1 3 18 58.31 58.31 0 0 1 -5.5 25.5q-5.51 11.51-18.5 21t-33.5 19a494.53 494.53 0 0 1 -50.5 19.5q-22 7-28 18-6 12-12 38.5t-14 66.5q-13 77-13 144 0 71 17 84l24 18q42 33 42 75 0 35-22.5 52t-58.5 17q-62 0-90.5-24.5t-25.5-87.5l11-245q2-54-6.5-80.5t-23.5-26.5q-20 0-26 29.5t-4 74.5l9 242q3 66-25.5 92t-89.5 26q-35 0-58.5-17t-23.5-53q0-17 6-30a94.09 94.09 0 0 1 16-24 174 174 0 0 1 21.5-20q11.51-9 23.5-18 9-6 13-27t4-55q0-54-12-138-7-42-13-70.5t-13-42.5q-7-10-29-17t-46-17a172.76 172.76 0 0 1 -43-25.5q-19-15.49-19-43.5 0-31 60-129a355.89 355.89 0 0 0 27-49.5 551.36 551.36 0 0 0 24-63.5q23-74 23-112 0-39-21-39-15 0-29.5 40t-37.5 110q-39 124-87 194t-93 70a86.58 86.58 0 0 1 -31.5-6 91.6 91.6 0 0 1 -27.5-16.5 79.69 79.69 0 0 1 -19-24.5 68.3 68.3 0 0 1 -7-31q0-52 50-74 61-27 84-93 90-253 153-340 34-46 65-65.5t54.5-27.5q23.51-8 37-14.5t13.5-27.5q0-11-55-44-44 51-129 51-73 0-73-36 0-15 17-33 32-30 32-95l-2-88q-1-76 19.5-135t58-99.5a245.81 245.81 0 0 1 89.5-61.5q52-21 114-21 63 0 115 21t88.5 61.5q36.5 40.5 56.5 100t19 137.5l-1 85q-1 62 32 95 18 18 18 33 0 36-75 36-87 0-129-51-54 32-54 44 0 20 13.5 26t36.5 15a232.56 232.56 0 0 1 78 47q34 31 62 78 27 45 60.5 121.5t72.5 187.5a186.25 186.25 0 0 0 13.5 31.5 130.13 130.13 0 0 0 17.5 24.5 114.3 114.3 0 0 0 24.5 20 370.13 370.13 0 0 0 35.5 19q17 8 30 29t13 43zm-1717-646q0 14 13.5 23.5t38.5 26.5a536.89 536.89 0 0 1 87 72 585.78 585.78 0 0 1 71 89 913.37 913.37 0 0 1 104 209q20 57 30.5 105t10.5 90q0 75-31.5 118t-82.5 43a101.17 101.17 0 0 1 -37-7 103.29 103.29 0 0 1 -31.5-19 99.83 99.83 0 0 1 -22-28 71.4 71.4 0 0 1 -8.5-34q0-46 9-86a381.74 381.74 0 0 0 9-84q0-46-22-101-23-53-44-53a56 56 0 0 0 -21 4q-10 4-10 27l5 45q9 72 17 119t8 70q0 45-9.5 81t-26.5 64q-8 14-15.5 64t-7.5 129q0 148 33 172 57 44 57 89 0 80-106 80-179 0-170-145l7-110 7-117q2-49-7-73.5t-25-24.5q-15 0-24.5 24.5t-6.5 73.5l6 117 7 110q9 145-169 145-107 0-107-80 0-47 57-89 32-22 32-169 0-78-6.5-128.5t-15.5-67.5q-37-66-37-141a476.31 476.31 0 0 1 4-57.5q4-32.51 12-74.5t12-68.5q4-26.51 4-37.5 0-23-10.5-27a59.87 59.87 0 0 0 -21.5-4q-26 0-46 54a314.3 314.3 0 0 0 -16 53 249.77 249.77 0 0 0 -5 49 353.85 353.85 0 0 0 9.5 82q9.5 40 9.5 86a71.4 71.4 0 0 1 -8.5 34 95.88 95.88 0 0 1 -22.5 28 110 110 0 0 1 -32 19 101.17 101.17 0 0 1 -37 7q-51 0-83-43.5t-32-117.5q0-82 43-198 44-118 107.5-212t154.5-155q25-16 38.5-26t13.5-24q0-15-21-32-117-90-117-236 0-134 88-218 45-42 99-63.5t121-21.5q129 0 219 85 89 84 89 211 0 149-116 243-22 19-22 32zm510-847q17 0 29.5 12.5t12.5 29.5v2198q0 17-12.5 29.5t-29.5 12.5q-17 0-30.5-12.5t-13.5-29.5v-2198q0-17 13.5-29.5t30.5-12.5z"/></svg>