<svg viewBox="0 0 2150 1850.44" xmlns="http://www.w3.org/2000/svg"><path d="m1742 168h334q32 0 53 20.5t21 52.5v806q0 29-21 50.5t-53 21.5h-292a456.37 456.37 0 0 1 -12.5 107 560.72 560.72 0 0 1 -36.5 104q-24 51-51.5 86t-57.5 55q-55 35-78.5 62t-23.5 57q0 64 47 86 14 7 27.5 14.5a116.79 116.79 0 0 1 24 17.5 78.26 78.26 0 0 1 17 24q6.49 14 6.5 34 0 51-56 59-84 13-156 20t-135 5l-129-4-156-7a152.08 152.08 0 0 1 -31-5.5 110.41 110.41 0 0 1 -30-13.5 83.81 83.81 0 0 1 -23-21.5q-9-12.49-9-29.5 0-50 67-83 67-34 67-81 0-42-36-70.5t-112-54.5a390.84 390.84 0 0 1 -78-36.5 483.76 483.76 0 0 1 -74-55 516.78 516.78 0 0 1 -64.5-70 435.75 435.75 0 0 1 -49.5-81.5q-11-23-61-49t-50-96q0-55 32.5-80.5t97.5-27.5l64-2q45-1 111.5-3t156.5-2q90 0 193-4t220-2l123 3a283.63 283.63 0 0 1 -20.5-32.5q-9.5-17.5-17.5-34.5l-272-633q-23-54-35-95t-12-73q0-49 24-77.5t72-28.5q67 0 118 116l153 358 44 106q18 45 38.5 96t48.5 107v-542q0-32 21.5-52.5t51.5-20.5zm-1144-135 3 10-116 633q0 10-14 10h-92q-11 0-12-10l-66-346-67 346q-1 10-12 10h-93q-11 0-12-10-3-10-117-632v-6q0-10 14-10h115q12 0 12 10l44 297 62-297q0-10 12-10h83q13 0 13 10l61 296 43-296q2-10 12-10h116zm288 668q-115 0-191-99-73-97-73-245 0-147 72-245 74-98 192-98 107 0 173 70l2 8-59 143-6 5-5-2q-44-45-105-45a106.46 106.46 0 0 0 -50 12 118.63 118.63 0 0 0 -39.5 33.5q-16.5 21.5-26 51.5t-9.5 67q0 73 35 118t90 45q29 0 62-15.5t55-39.5l7-2 4 5 53 140-1 6q-74 87-180 87z"/></svg>