<svg viewBox="0 0 1912 1247" xmlns="http://www.w3.org/2000/svg"><path d="m1468 911q67 0 118 48t51 119q0 71-50 119-48 50-119 50-73 0-119-50-23-26-35.5-55t-12.5-64q0-69 48-117 50-50 119-50zm-1069 0q66 0 117 48t51 119q0 35-12.5 63.5t-36.5 54.5q-48 51-119 51t-119-50q-50-48-50-119 0-73 50-119 51-48 119-48zm1238-377v-253q0-20-14-33.5t-34-13.5h-155q-20 0-34 13.5t-14 33.5v253a47.8 47.8 0 0 0 48 48h155a47.8 47.8 0 0 0 48-48zm-337 0v-253q0-20-13.5-33.5t-34.5-13.5h-156q-20 0-33 13.5t-13 33.5v253q0 20 13 34t33 14h156q21 0 34.5-14t13.5-34zm-347 0v-253q0-20-14-33.5t-34-13.5h-156q-20 0-33.5 13.5t-13.5 33.5v253q0 20 13.5 34t33.5 14h156a47.8 47.8 0 0 0 48-48zm-429 0v-253q0-20-13.5-33.5t-33.5-13.5h-156q-20 0-34 13.5t-14 33.5v253a47.8 47.8 0 0 0 48 48h156q20 0 33.5-14t13.5-34zm1388-313v822q0 20-14.5 34.5t-35.5 14.5h-167l2-14q0-94-69-160-68-65-160-65-98 0-162 69-65 70-65 170h-615q0-99-65-170-63-69-162-69-101 0-165 69-63 71-63 170h-121q-21 0-35.5-14.5t-14.5-34.5v-822q0-116 87-168.5t255-52.5h1230q166 0 253 52.5t87 168.5z"/></svg>