<svg viewBox="0 0 2318 1962" xmlns="http://www.w3.org/2000/svg"><path d="m1857 1437q0-22-26-22l-22 2v136a364.5 364.5 0 0 0 20-35 355.67 355.67 0 0 0 15-34q6-16 9.5-28.5t3.5-18.5zm-1396 2q0 47 49 106v-137l-14-2q-35 3-35 33zm1141 34v217l81-36 68-44v-173q-67 28-149 36zm-1035-49v178a464.39 464.39 0 0 0 67.5 44.5 682 682 0 0 0 81.5 37.5v-213q-38-10-78.5-18t-70.5-29zm207 56v226q32 9 69 18t80 16v-258l-75 5zm621-7v265q40-5 77.5-13t71.5-18v-229l-31 1a444.13 444.13 0 0 1 -59.5 0q-29.5-2-58.5-6zm-844-368q0 16 11.5 28a37.9 37.9 0 0 0 28.5 12q17 0 28-12 25-25 54.5-36t64.5-13q33-2 61.5 10.5t49.5 30q21 17.51 33.5 35t13.5 25.5q7 26 37 26 17 0 27.5-12.5t10.5-25.5l-1-14q0-1-5-12.5t-16-28.5q-11-17-29-37a215.75 215.75 0 0 0 -43.5-36.5q-25.5-16.5-60.5-27.5t-79-11q-68 0-127 35-59 34-59 64zm796 48-3 14q0 16 11.5 28a37.9 37.9 0 0 0 28.5 12q27 0 37-26 51-97 155-97 71 0 123 52 12 15 28 15a37.19 37.19 0 0 0 28.5-12.5q11.5-12.5 11.5-27.5a41.46 41.46 0 0 0 -8-25q-80-80-183-80-43 0-76.5 10.5t-59 26.5q-25.5 16-43 35a380.33 380.33 0 0 0 -29 35q-11.51 16-16.5 27.5t-5 12.5zm-365 318v276l111 7h38v-333a360.18 360.18 0 0 0 -76 24 502 502 0 0 1 -73 26zm356 273v-286q-36-11-72.5-25a248.83 248.83 0 0 0 -77.5-16v337q47-1 84.5-4t65.5-6zm976-383q0 40-46 40l-145-26q-8 38-14 66t-14 46l119 38q26 9 26 37 0 18-11 29a36.71 36.71 0 0 1 -27 11l-12-1-126-41q-67 136-222 232a975.33 975.33 0 0 1 -161.5 81 1075.53 1075.53 0 0 1 -178.5 52q-185 37-349 37-187 0-378-47-189-47-322.5-138.5t-198.5-216.5q-129 42-137 42-17 0-29-10.5t-12-27.5q0-30 29-39l119-36q-18-43-27-114l-147 26q-46 0-46-40 0-32 33-38l151-27-1-22v-51l1-29-154-23q-18-2-26-12.5t-8-25.5q0-17 11.5-28.5t29.5-11.5h5l149 22q29-172 123-317-9-81-14-164t-5-169q0-232 41.5-348.5t118.5-116.5q36 0 83 22.5t107 67.5q61 46 126 106.5t133 140.5l57 67q105-15 195-15 89 0 194 15 346-404 505-404 75 0 116.5 118.5t41.5 346.5q0 92-4 175t-13 158q97 150 123 317l150-22h6q15 0 27 10.5t12 27.5q0 17-8 27.5t-26 12.5l-153 23 1 52-1 50 152 27a32.73 32.73 0 0 1 22.5 13.5q8.5 11.5 8.5 24.5z"/></svg>