<svg viewBox="0 0 2264 1509" xmlns="http://www.w3.org/2000/svg"><path d="m575 780q0 14 8.5 22.5t22.5 8.5q60 0 98.5-19t61-42q22.5-23 31.5-42.5t9-20.5l1-10q0-11-8-21t-22-10q-25 0-31 22 0 9-10 22.5t-28 26q-18 12.5-44 22t-58 9.5q-14 0-22.5 9.5a32.6 32.6 0 0 0 -8.5 22.5zm649-108q0 24 61 63 59 37 139 37 32 0 55.5-4t38.5-11q21-7 21-29 0-16-9.5-24a32.49 32.49 0 0 0 -21.5-8l-6 2q-19 11-77 11-88 0-147-61-11-8-22-8-14 0-23 9t-9 23zm590 442q0-29-22-56t-61-48q-39-21-93.5-33.5t-120.5-12.5q-71 0-130.5 13.5t-113 30q-53.51 16.5-104 30a395.23 395.23 0 0 1 -102.5 13.5q-23 0-59-9-91-20-154-29t-99-9q-66 0-142 28-71 25-73 69a79.65 79.65 0 0 0 17.5 53.5q18.5 23.5 48.5 39.5t67 24a345 345 0 0 0 73 8h10q30 0 66.5-5.5t80.5-12.5q36-5 76.5-8t87.5-3q79 0 187 30 111 32 214 32 84 0 148.5-11.5t108.5-31q44-19.5 66.5-46t22.5-56.5zm450 67q0 90-8 112-47 43-99 68-50 26-130 52t-195 49q-51 11-123.5 19.5t-169.5 15.5q-97 7-204 9.5t-226 2.5q-149 0-299-11.5t-304-35.5q-154-23-260.5-52t-168.5-61q-57-29-65-45l-7-10a431.86 431.86 0 0 1 -4-47.5q-1-27.5-1-61.5 0-230 93-404 47-88 124-171.5t185-164.5l-223-319a87.37 87.37 0 0 1 -11-21.5 77.16 77.16 0 0 1 -4-25.5 72.89 72.89 0 0 1 6-29 82.52 82.52 0 0 1 42-43 77 77 0 0 1 33-7q42 0 67 34l231 329a1033.74 1033.74 0 0 1 146.5-61 1223 1223 0 0 1 149-38.5 1371.11 1371.11 0 0 1 153-20.5q77.51-6 160.5-6 302 0 548 123l236-309q23-32 64-32 36 0 58.5 25t22.5 55q0 28-15 47l-223 295q192 133 306 342 115 206 115 398z"/></svg>