<svg viewBox="0 0 2262 1680" xmlns="http://www.w3.org/2000/svg"><path d="m2262 1348q0 49-2 84t-5 55a49.16 49.16 0 0 0 -6 7.5 82.57 82.57 0 0 1 -10 11.5q-7 7-20 15.5t-35 18.5q-128 63-405 102-139 20-275.5 29t-276.5 9q-139 0-277-7.5t-278-24.5q-280-31-447-85t-219-128q-4-5-5-25.5t-1-56.5a788.76 788.76 0 0 1 36-239q17-55 45.5-113.5t66.5-122.5a749 749 0 0 1 87.5-119 1004.62 1004.62 0 0 1 228.5-188.5 1370.09 1370.09 0 0 1 131-69.5l-49-419q0-36 24-59t60-23q29 0 51.5 20.5a80.82 80.82 0 0 1 26.5 50.5l43 370a1181.34 1181.34 0 0 1 172.5-35.5 1414.72 1414.72 0 0 1 182.5-11.5q104 0 194 9t170.5 28.5a1106.11 1106.11 0 0 1 298.5 119.5l183-329q23-41 73-41a73.76 73.76 0 0 1 32.5 7 81.35 81.35 0 0 1 25 18.5 82.27 82.27 0 0 1 16 25.5 78.55 78.55 0 0 1 5.5 29 107.2 107.2 0 0 1 -2 21 65.22 65.22 0 0 1 -7 19l-190 342q84 69 162 155 78 84 136 224a801 801 0 0 1 44 152q15 80 15 174zm-671-523q0-33-32-33-11 0-35.5 2.5t-64.5 7.5q-41 5-76.5 10a654.69 654.69 0 0 0 -67.5 13q-64 15-71 25-8 8-8 21 1 23 23 29l25 8q57 20 112 45.5a1222.78 1222.78 0 0 1 109 57.5l17 4q11 0 21-8t10-23q0-8-10.5-19t-28.5-23a392.27 392.27 0 0 0 -42-24q-24-12-50-23l-44-18q46-9 88-14.5t80-7.5q28-1 36.5-9.5a27.93 27.93 0 0 0 8.5-20.5zm-372 295 2-9a33.37 33.37 0 0 0 -9-23q-9-10-23-10-22 0-29 22-20 38-40.5 64t-45 42.5a170.87 170.87 0 0 1 -54.5 24q-30 7.5-69 8.5-51 2-92.5-12.5t-70.5-41.5q-29-27-44.5-65.5t-15.5-85.5q0-37-30-37-33 0-33 41a271.87 271.87 0 0 0 19 101 238.27 238.27 0 0 0 56 84q37 36 90 57.5t122 21.5q53 0 95.5-15a276.84 276.84 0 0 0 77.5-42 410.58 410.58 0 0 0 33.5-31 242.73 242.73 0 0 0 30.5-39q30-43 30-55zm-695-279h7q36-6 77-10a643.51 643.51 0 0 1 89-2l100 3q12 0 21-9.5a31.6 31.6 0 0 0 9-22.5 23.2 23.2 0 0 0 -2-9.5 87.4 87.4 0 0 0 -5-9.5 339 339 0 0 0 -56.5-57 615.53 615.53 0 0 0 -60-42.5q-28.5-17.5-48.5-27t-21-11.5l-13-3q-12 0-21.5 9.5a31.93 31.93 0 0 0 -9.5 23.5q0 18 19 27 32 17 58.5 33a513.67 513.67 0 0 1 48.5 33q-39 0-90 3-25 1-47.5 2.5t-43.5 4.5q-41 6-41 34 0 14 9 22.5a29.61 29.61 0 0 0 21 8.5z"/></svg>