<svg viewBox="0 0 2274 1812" xmlns="http://www.w3.org/2000/svg"><path d="m1613 500-33-9q-11 0-11 14 0 16 13 45a209 209 0 0 1 10.5 32q3.49 15 5.5 29a168.44 168.44 0 0 0 9.5 43.5 132.83 132.83 0 0 0 19.5 36 99.5 99.5 0 0 0 28 25 67.34 67.34 0 0 0 35 9.5q16 0 27-6.5a50.28 50.28 0 0 0 17.5-17 77.36 77.36 0 0 0 9.5-23.5 115.29 115.29 0 0 0 3-26q0-101-134-152zm-958 379q-11 0-20.5 8.5a27.61 27.61 0 0 0 -9.5 21.5q0 16 20 27 54 17 199 110a365.09 365.09 0 0 0 -48-5q-25-1-53-1-42 0-69 2t-39 5q-23 6-23 31 0 29 28 29h6q23-4 46-6t48-2a836.92 836.92 0 0 1 184 20l17 5 9 1a25.65 25.65 0 0 0 20-9q8-9 8-20 0-14-8-22-68-68-182-132-57-32-89.5-47.5t-43.5-15.5zm631 216q0 11 7.5 20.5t21.5 9.5l8-1 19-5q43-9 87.5-14.5a761.88 761.88 0 0 1 93.5-5.5q23 0 47.5 2t48.5 6h5a30.5 30.5 0 0 0 20-7.5q9-7.5 9-21.5 0-12-6-19t-21.5-11.5q-15.49-4.5-41-6t-64.5-1.5q-27 0-51.5 1a392 392 0 0 0 -48.5 5q40-25 74.5-45t61.5-34.5q27-14.5 43.5-22.5t20.5-8q19-8 19-26 0-12-9-21.5t-21-9.5l-11 2q-3 2-25 11t-55.5 26q-33.49 17-74 41a796 796 0 0 0 -79.5 54l-23 17q-55 42-55 65zm-61 621q0 11 1 21.5a88.05 88.05 0 0 0 4 19.5h-185l4-41q0-102-94-178-94-77-237-94-110-14-183.5-25t-108.5-22q-36-11-61.5-24t-38.5-29q-28-34-28-177v-26q121 122 342 189 222 67 500 67 132 0 244.5-16t204-41.5q91.5-25.5 162-55.5t119-58.5q48.5-28.5 75.5-51.5t32-33q0 60-3.5 103t-10.5 70q-9 38-75 68t-174 42q-187 23-242 36-104 27-176 99-71 70-71 157zm-254-8a280.79 280.79 0 0 1 -2 35.5 54.16 54.16 0 0 1 -11 27q-9 11.51-28.5 19.5t-55.5 13q-36 5-90 7t-133 2q-141 0-241-9.5t-161-27.5q-121-37-185-131.5t-64-243.5q0-87 16.5-160t41.5-131.5q25-58.5 54.5-104t56.5-77q27-31.5 47-50t26-24.5l-19 199-4 107q-2 67 5 116t20 78q24 61 104 99 40 19 117 33.5t192 27.5q59 7 102.5 18.5t75.5 25.5q63 29 99.5 69.5t36.5 81.5zm1303-310a584.28 584.28 0 0 1 -7 90 429.32 429.32 0 0 1 -22.5 86 331.49 331.49 0 0 1 -41 76.5 296.49 296.49 0 0 1 -62.5 63.5q-72 56-179 77-105 21-338 21-69 0-120-2t-84-5q-32-3-54.5-8t-36.5-14.5q-14-9.49-20-26.5t-6-46q0-41 36-83a293.7 293.7 0 0 1 42.5-38.5q23.5-17.5 55.5-31.5t76-24.5q44-10.5 103-16.5 106-11 178.5-25t114.5-31q83-34 114-94 32-62 32-200 0-51-6-128.5t-17-184.5q45 44 76.5 83t51.5 71q20 33 37 67a651.76 651.76 0 0 1 30 70q27 71 37 126 10 53 10 128zm-1987-447 3-59q3-67 29-144t72-168a681.35 681.35 0 0 1 119.5-165q72.5-74 175.5-133l-78-193a23.59 23.59 0 0 1 -5-11 78.8 78.8 0 0 1 -1-13q0-25 18-45t46-20q44 0 59 40l75 186a868.9 868.9 0 0 1 321-61q51 0 102 4.5t103 12.5q51 9 91 19.5t67 24.5l62-168q8-20 23.5-31.5a58 58 0 0 1 35.5-11.5q30 0 47 20.5t17 44.5l-4 22-66 179 13 7a517.26 517.26 0 0 1 82.5 57.5q39.49 33.5 71 65.5t53 56.5q21.5 24.5 27.5 30.5 4 7 19.5 30.5t35 61q19.5 37.5 39 87t30.5 107.5q6 32 11.5 75.5t3.5 102.5l-3 88q-20 20-54 43.5t-84 49.5q-49 26-100 48a1093.35 1093.35 0 0 1 -105 39q-106 35-231 55t-281 20q-145 0-261-18t-207-45.5q-91-27.5-157.5-60.5t-110.5-62q-44-29-68-50t-30-25q-3-7-5.5-30t-.5-63z"/></svg>