<svg viewBox="0 0 1688 2020" xmlns="http://www.w3.org/2000/svg"><path d="m1688 549v1471h-445v-415q0-34 24-58t59-24h195v-928l-688-443q-38-24-38-70a80.37 80.37 0 0 1 7-33.5 78.36 78.36 0 0 1 18.5-26 86.68 86.68 0 0 1 26.5-16.5 82.73 82.73 0 0 1 31-6q26 0 45 13l725 468a91.68 91.68 0 0 1 29 27.5q11 16.5 11 40.5zm-751 1112a93.53 93.53 0 0 0 36-7 89.42 89.42 0 0 0 29.5-19.5 90.77 90.77 0 0 0 19.5-29 87.39 87.39 0 0 0 7-34.5 93.53 93.53 0 0 0 -7-36 88.42 88.42 0 0 0 -49-49 93.53 93.53 0 0 0 -36-7q-38 0-64 27t-26 65a87.39 87.39 0 0 0 7 34.5 95.09 95.09 0 0 0 19 29 85.19 85.19 0 0 0 28.5 19.5 89.88 89.88 0 0 0 35.5 7zm-700 0a87.39 87.39 0 0 0 34.5-7 90.77 90.77 0 0 0 29-19.5 98 98 0 0 0 20-29 82.45 82.45 0 0 0 7.5-34.5 88.18 88.18 0 0 0 -7.5-36 96.19 96.19 0 0 0 -20-29.5 90.77 90.77 0 0 0 -29-19.5 87.39 87.39 0 0 0 -34.5-7 89.81 89.81 0 0 0 -84 56 93.53 93.53 0 0 0 -7 36 87.39 87.39 0 0 0 7 34.5 90.38 90.38 0 0 0 84 55.5zm-95-814v171a133 133 0 0 0 10.5 52 138.62 138.62 0 0 0 28.5 43.5 135.23 135.23 0 0 0 43 29.5 132.66 132.66 0 0 0 54 11h617a135.47 135.47 0 0 0 53-10.5 138.62 138.62 0 0 0 43.5-28.5 128.84 128.84 0 0 0 29-43 138 138 0 0 0 10.5-54v-171a135.47 135.47 0 0 0 -10.5-53 128.84 128.84 0 0 0 -29-43 138.62 138.62 0 0 0 -43.5-28.5 135.47 135.47 0 0 0 -53-10.5h-617a132.66 132.66 0 0 0 -54 11 135.23 135.23 0 0 0 -43 29.5 140.28 140.28 0 0 0 -28.5 43 129.37 129.37 0 0 0 -10.5 51.5zm123-258h643q109 0 188 79 78 80 78 186v732q0 102-67 176-68 78-170 88v112q0 25-17 41.5t-40 16.5q-25 0-42-16.5t-17-41.5v-111h-468v111q0 25-17 41.5t-41 16.5q-24 0-40.5-16.5t-16.5-41.5v-112q-102-11-170-86-68-77-68-178v-732q0-110 78-187 78-78 187-78z"/></svg>