<svg viewBox="0 0 1930 1601" xmlns="http://www.w3.org/2000/svg"><path d="m1179 978q0-34-23-59t-59-25q-36 0-59.5 25t-23.5 59q0 34 23.5 58t59.5 24q34 0 58-24t24-58zm-383-115q-34 0-58 24t-24 58q0 36 24 59.5t58 23.5q36 0 60-23.5t24-59.5q0-34-24-58t-60-24zm601 63q-35 0-59.5 23.5t-24.5 59.5q0 34 24.5 58t59.5 24q35 0 59-24t24-58q0-36-24-59.5t-59-23.5zm-259-506q-95 0-131 36a222.85 222.85 0 0 1 5-32q4-18 9.5-35.5a182.56 182.56 0 0 1 13-31.5q7.5-14 16.5-20 37-27 102-27a331.49 331.49 0 0 1 74 8q35 8 61.5 23t41.5 36.5a82.75 82.75 0 0 1 15 48.5l-2 55q-21-21-90-41t-115-20zm42-173h-12l-35 3-11-1q0-21 17-39l29-35a178.14 178.14 0 0 1 61-57q37-21 75-21 73-2 80-17l17-19q20-23 54.5-32.5t80.5-9.5q54 0 84 15l13 4a19.19 19.19 0 0 0 14-6q12-12 45-22t71-10a184.05 184.05 0 0 1 65.5 11.5 163.34 163.34 0 0 1 53 32 149.41 149.41 0 0 1 35.5 49q13 28.5 13 62.5 0 54-55 102-55 46-123 46-52 0-131-27l-27-4q-23 0-69 27-49 29-74 29a104.9 104.9 0 0 1 -29-4 162.35 162.35 0 0 1 -28-11q-45-22-75.5-35.5t-50.5-18.5q-20-5-41.5-8.5a290.16 290.16 0 0 0 -46.5-3.5zm716 1017q0 53-47 140-27 52-42.5 85.5t-18.5 50.5l-6 61h-1517q14-18 14-38 0-29-16-61l-43-85q-17-35-50-83.5t-78-117.5l-54-82q-20-32-29-57.5t-9-45.5q0-56 74-56l221 20 159 20 58-210q11-41 28.5-64t58.5-23h38.5l14.5 1q8 1 87.5 9.5t233.5 27.5q9-48 15.5-108.5t11.5-133.5q44-38 116-38a447 447 0 0 1 67 5 396.15 396.15 0 0 1 66 16q33 12 56 24t37 26l-8 209 1 53 89 14q28 5 51.5 9t44.5 7q20 4 42.5 9t46.5 11q49 11 57 17 7 5 14 28.5t13 54.5q6 31 9.5 63.5t3.5 55.5v27l7 74 98 12q42 5 63.5 21.5t21.5 51.5z"/></svg>