<svg viewBox="0 0 2352 1666" xmlns="http://www.w3.org/2000/svg"><path d="m790 610q17 0 33-9.5a102.52 102.52 0 0 0 28.5-25.5 133.15 133.15 0 0 0 20-36.5 125.63 125.63 0 0 0 7.5-43.5q0-36-17-59t-46-23a66.5 66.5 0 0 0 -33 9 98.77 98.77 0 0 0 -28.5 24.5 124.05 124.05 0 0 0 -20 36.5 132.81 132.81 0 0 0 -7.5 45q0 36 17.5 59t45.5 23zm884-68a123.16 123.16 0 0 0 -7-41 132.68 132.68 0 0 0 -18.5-35.5 96 96 0 0 0 -27-25 61.3 61.3 0 0 0 -32.5-9.5q-30 0-48.5 25t-18.5 61a128.58 128.58 0 0 0 7.5 44.5q7.5 20.5 19.5 35a97.34 97.34 0 0 0 27 23 62 62 0 0 0 31 8.5l14-2q24-5 38.5-28.5t14.5-55.5zm-750 429 40-18q-52-93-52-123 0-16 14-24 13-10 13-29a39.52 39.52 0 0 0 -12-29q-12-12-27-12a46 46 0 0 0 -26 8 76 76 0 0 0 -21 21.5 116.58 116.58 0 0 0 -19 62.5q0 44 23 93-56 42-56 106a143.23 143.23 0 0 0 3 28 206.84 206.84 0 0 0 8 29 267.63 267.63 0 0 0 10.5 25.5q5.5 11.5 11.5 17.5 10 18 33 18 17 0 27.5-11.5a38.14 38.14 0 0 0 10.5-26.5q0-10-7-22 0-2-8.5-19t-8.5-39q0-36 43-56zm1428 104v214l-1 377h-198l-13-637q0-24-2-54t-7-65l35-3q40-3 69.5 7.5t50 28.5a160.79 160.79 0 0 1 33.5 40.5 300.31 300.31 0 0 1 20.5 42q7.5 19.5 10 33.5t2.5 16zm-2351 591-1-548q0-23 12.5-52.5t37-55.5q24.5-26 59-43.5t78.5-17.5a297.09 297.09 0 0 1 81 11l-7 95 1 22-5 589zm2071-540v540h-1735v-569q37 39 122 78t201 69.5q116 30.49 256.5 49t290.5 18.5a2088.41 2088.41 0 0 0 227.5-12q109.5-12 205-30t174-40q78.49-22 135.5-42.5t89-37q32-16.5 34-24.5zm-23-171-4 93q-145 78-381 123-234 45-493 45-162 0-293-16.5t-232-42q-101-25.5-173.5-56t-115.5-60.5q-7-14-7-86a905.91 905.91 0 0 1 5.5-103 494.23 494.23 0 0 1 18.5-90q14-44 33.5-90.5a1035.72 1035.72 0 0 1 47.5-97.5q53-96 123-164.5a867.49 867.49 0 0 1 153-119.5l18-11-79-192q-6-9-6-24 0-24 18-43.5t47-19.5q43 0 58 38l76 185q141-60 316-60 48 0 99 4t106 13q54 10 94.5 20t68.5 24l60-168q7-20 22-31t38-11q28-1 46 19.5t18 44.5l-4 22-65 179a681.78 681.78 0 0 1 60.5 39.5q32.51 23.5 65 52t63.5 60.5a844 844 0 0 1 57 65q4 8 20 31t35.5 60q19.5 37 39 86t31.5 108q8 41 12.5 84a614.36 614.36 0 0 1 2.5 90z"/></svg>