<svg viewBox="0 0 2264 1541" xmlns="http://www.w3.org/2000/svg"><path d="m601 461a117.61 117.61 0 0 0 7 41 113.75 113.75 0 0 0 19 33.5 90.41 90.41 0 0 0 28.5 23 74.33 74.33 0 0 0 34.5 8.5 77.86 77.86 0 0 0 37-9 97 97 0 0 0 30-25 116.49 116.49 0 0 0 20-37 141.32 141.32 0 0 0 7-45q0-48-29-78-26 20-66.5 32.5a271.89 271.89 0 0 1 -80.5 12.5q-3 11-5 21.5a115 115 0 0 0 -2 21.5zm501 43a121.81 121.81 0 0 0 7 41.5 112.38 112.38 0 0 0 19 34 90.41 90.41 0 0 0 28.5 23 76.35 76.35 0 0 0 35.5 8.5 75.06 75.06 0 0 0 34-8 106.17 106.17 0 0 0 50-53.5 131.28 131.28 0 0 0 10-40.5v-17l-1-15q-92-23-134-72-49 34-49 99zm502-198q-13 0-40 67-27 68-27 133 0 53 25 84t65 31q19 0 32-7.5a67.06 67.06 0 0 0 21.5-19.5 76 76 0 0 0 12-27 188.39 188.39 0 0 0 4.5-31q1-32-11.5-72a611.57 611.57 0 0 0 -29-75.5q-16.5-35.5-32-59t-20.5-23.5zm-1424 296 71-74q61 159 150 234-8 10-17.5 37t-18 70.5q-8.5 43.5-14.5 102.5t-6 133l-12-12a365.21 365.21 0 0 1 -66-86.5 624 624 0 0 1 -43-97 644.69 644.69 0 0 1 -25.5-98q-8.5-48.5-12.5-90t-4.5-72.5q-.5-31-1.5-47zm1882-10a332.22 332.22 0 0 1 24 28.5q10 13.5 18.5 27t16.5 28q8 14.5 18 30.5a1752.61 1752.61 0 0 1 -169.5 165 1498 1498 0 0 1 -186.5 135q-98 61-194.5 104a1148.56 1148.56 0 0 1 -194.5 67l10-129 5-113q2-31-9-63l7-1a1602.63 1602.63 0 0 0 339.5-107 2219.63 2219.63 0 0 0 315.5-172zm197 447 4 96q2 38 0 60.5t-5 27.5q-43 50-158 101-112 49-264 79-74 16-181.5 28t-250.5 23q-5 21-32.5 37t-74.5 27.5q-47 11.51-111.5 17t-142.5 5.5q-111 0-215.5-9a1853.3 1853.3 0 0 1 -204.5-29q-198-39-252-93-146-28-238-60.5t-124-74.5q-9-82-9-137 0-249 128-461 9 171 66.5 300t151.5 200l10 114a98.37 98.37 0 0 0 16 46.5q14 21.49 44 41.5 61 37 248 73a1953.5 1953.5 0 0 0 372 36 1386.7 1386.7 0 0 0 204-15q78-12 109.5-44t35.5-89l7-105q211-47 402.5-166t370.5-311q69 136 94 281zm-2140-929a69.25 69.25 0 0 1 7-30.5 92.84 92.84 0 0 1 18-25.5 83 83 0 0 1 26-17.5 77.25 77.25 0 0 1 31-6.5 81.6 81.6 0 0 1 31.5 6q14.5 6 27.5 20l257 271q60-30 112.5-50.5t97.5-34.5a956.85 956.85 0 0 1 98-24.5q53-10.5 115-18.5 63-8 118.5-12t106.5-4q310 0 555 131l246-286q25-28 63-28 34 0 57.5 24t23.5 56q0 30-21 54l-228 265q51 39 92 77t73 74q-158 100-320 168a1879.49 1879.49 0 0 1 -335 105q-46-46-126-46-36 0-126.5-6.5t-238.5-19.5q-113-10-234-30-115-20-130-20-47 0-78 21-92-84-144-235 20-19 40.5-36.5t43.5-34.5l-235-249q-24-26-24-57z"/></svg>