<svg viewBox="0 0 2024 1990" xmlns="http://www.w3.org/2000/svg"><path d="m2022 669 2 10q0 25-28 30l-453 26q-12 1-20-8.5a32.49 32.49 0 0 1 -8-21.5q0-17 11-23l362-271q6-6 17-6 19 0 28 21zm-659-188q-11 0-20-8.5a27.19 27.19 0 0 1 -9-20.5l2-11 162-421q8-20 29-20 10 0 16 6l206 160q11 8 11 21a36.71 36.71 0 0 1 -11 27l-370 261q-6 6-16 6zm-1363 199 3-11 89-243q4-21 27-21 12 0 18 6l361 271q13 9 13 24 0 31-30 29l-452-26q-29-2-29-29zm264-489q0-17 11-25l206-160q6-6 17-6 18 0 29 20l163 421 1 10q0 13-8.5 21.5a27.93 27.93 0 0 1 -20.5 8.5q-11 0-17-6l-368-261q-13-10-13-23zm1293 1681v-315h-1055v315zm-862-1012v470q0 12 11 17l7 1 12-4 238-237q6-4 6-12 0-9-6-14l-238-235q-3-6-12-6-18 0-18 20zm366 221-6 14q0 7 6 12l238 237 13 4 7-1q11-5 11-17v-470q0-20-18-20-7 0-13 6zm484 359h71q23 0 41 17.5t18 40.5v433q0 25-18 42t-41 17h-1172q-24 0-41.5-17t-17.5-42v-433q0-23 17.5-40.5t41.5-17.5h37q6-482 132-704 128-223 400-223 269 0 398 221 128 217 134 706z"/></svg>