<svg viewBox="0 0 1824 1809" xmlns="http://www.w3.org/2000/svg"><path d="m1430 173a105.16 105.16 0 0 0 8.5 42.5 109.41 109.41 0 0 0 23 34 111.11 111.11 0 0 0 33.5 23 94.55 94.55 0 0 0 39 8.5q25 0 45-8.5a104 104 0 0 0 34.5-23.5 108.37 108.37 0 0 0 30.5-76 100.19 100.19 0 0 0 -9-42.5 106 106 0 0 0 -24-33.5 114.58 114.58 0 0 0 -34-22 104 104 0 0 0 -80 0 114.58 114.58 0 0 0 -34 22 106 106 0 0 0 -24 33.5 100.19 100.19 0 0 0 -9 42.5zm-465 225-381 533h246l380-533zm-478 0-382 533h246l382-533zm-394 0v225l161-225zm64-225a105.78 105.78 0 0 0 8 40.5 108.21 108.21 0 0 0 22.5 34.5 114.18 114.18 0 0 0 33.5 24 94.55 94.55 0 0 0 41 9q24 0 44-8.5a109.7 109.7 0 0 0 35-23.5 104.3 104.3 0 0 0 23-34.5 108.31 108.31 0 0 0 8-41.5 97.84 97.84 0 0 0 -9-41.5 116.82 116.82 0 0 0 -23.5-34 102.55 102.55 0 0 0 -34-22.5 105.78 105.78 0 0 0 -40.5-8 100.28 100.28 0 0 0 -40.5 8.5 121.08 121.08 0 0 0 -34.5 22.5 106 106 0 0 0 -24 33.5 97.84 97.84 0 0 0 -9 41.5zm905 758h245l382-533h-246zm669 0v-267l-191 267zm-36-626h83q20 0 33 13t13 33v627q0 20-13 33t-33 13h-308l237 785h-219l-144-473-128 473h-219l212-785h-612l237 785h-219l-142-473-130 473h-219l213-785h-291q-20 0-33-13t-13-33v-627q0-20 13-33t33-13h105q-29-26-44.5-58.5t-15.5-73.5q0-70 51-121 51-52 120-52h47q70 0 120 50 53 53 53 123 0 80-60 132h1002q-61-53-61-132 0-70 51-121 51-52 120-52h47q70 0 120 50 54 53 54 123 0 41-15.5 73.5t-44.5 58.5z"/></svg>