<svg viewBox="0 0 2316 1993" xmlns="http://www.w3.org/2000/svg"><path d="m661 1291q49 0 90-22.5t66-59.5l-326-152q-14 33-14 62 0 70 54 122 51 50 130 50zm945 0q76 0 129-49 53-50 53-123 0-39-21-81l-328 152q22 45 66 73t101 28zm-59 342q0-26-23-41-3-1-25.5-13t-61-25.5q-38.51-13.5-91-24.5t-115.5-11q-188 0-362 115-22 15-22 41 0 22 14.5 35a49.94 49.94 0 0 0 34.5 13 50.86 50.86 0 0 0 27-8q149-97 310-97a517.38 517.38 0 0 1 122 14.5 524.88 524.88 0 0 1 118 44.5q5 2 11.5 4.5a40 40 0 0 0 14.5 2.5q27 0 41-24 3-7 5-13a41 41 0 0 0 2-13zm766-128q0 17-12 27.5t-26 10.5l-7-1-195-35q-16 47-44 102l184 57q26 12 26 38 0 18-11 29a36.71 36.71 0 0 1 -27 11l-217-67q-78 101-222 177-143 75-316 108-87 16-166.5 23.5t-152.5 7.5q-147 0-286-27-70-14-129-30.5a1150.83 1150.83 0 0 1 -110-36.5q-100-40-177.5-92t-131.5-118l-177 55q-17 0-29-11t-12-29q1-29 29-38l141-44q-14-26-26.5-52a423.76 423.76 0 0 1 -21.5-54l-148 26-7 1a37.51 37.51 0 0 1 -27.5-11.5q-11.5-11.5-11.5-28.5 0-28 33-39l140-25-13-108-130-19q-33-4-33-38 0-17 10.5-28t26.5-11h7l117 17q0-248 163-470 12-189 36.5-334.5t58-245q33.5-99.5 74.5-151t88-51.5q41 0 100 42 57 41 126 122 34 40 80.5 99t96.5 146l11 19q54-4 88-6t51-2q60 0 146 9 270-428 415-428 65 0 119 99 27 49 48 114.5t38 149.5q17 82 28 162t16 159l7 107q154 219 154 466l167-23h7q17 0 27 11.5t10 28.5q0 31-33 37l-179 27-12 92 190 33q31 11 31 41z"/></svg>