<svg viewBox="0 0 2262 1644" xmlns="http://www.w3.org/2000/svg"><path d="m1544 685q0-27-26-27l-4 1q-8 6-56 6a315.63 315.63 0 0 1 -59-5.5 202.26 202.26 0 0 1 -53-17.5 135.83 135.83 0 0 1 -41-31q-17-19-24-46-3-13-10.5-19a25.82 25.82 0 0 0 -16.5-6 27.93 27.93 0 0 0 -20.5 8.5q-8.5 8.5-8.5 19.5l2 5q0 2 3 10t9 20.5a229.14 229.14 0 0 0 16 27.5 173.94 173.94 0 0 0 26 30 112.22 112.22 0 0 0 -16 34.5 155 155 0 0 0 -5 40.5q0 46 23 78.5t57 32.5a63.79 63.79 0 0 0 32.5-9 86.51 86.51 0 0 0 26.5-24 114.14 114.14 0 0 0 17-35 129.11 129.11 0 0 0 5-43l-1-19 38 2q32 2 49-3t18-5q19-6 19-26zm-669 162a58.64 58.64 0 0 0 31.5-9 91.3 91.3 0 0 0 25.5-24 123 123 0 0 0 17.5-35 138.42 138.42 0 0 0 6.5-43q0-44-22-75a173.94 173.94 0 0 0 26-30 297.89 297.89 0 0 0 16.5-27.5 133.9 133.9 0 0 0 9-20.5 90.82 90.82 0 0 1 3.5-10v-5a28.63 28.63 0 0 0 -7.5-19.5q-7.5-8.5-20.5-8.5-17 0-20 10-15 57-64.5 86t-118.5 29l-37-4-22-3q-28 0-28 29 0 18 18 24 3 0 20.5 5t46.5 3l40-2-2 19a107.77 107.77 0 0 0 4.5 43 115.67 115.67 0 0 0 18 35 94.89 94.89 0 0 0 26.5 24 61.18 61.18 0 0 0 32 9zm378 396q0-130-47-228-46-100-115-100-38 0-64 22.5t-45 65.5q-14 30-23 70t-14.5 76q-5.5 36-7.5 61.5t-2 26.5q0 86 39.5 136t109.5 50a178.69 178.69 0 0 0 44.5-5.5 219 219 0 0 0 43.5-16.5q22-11 37.5-24.5a106.64 106.64 0 0 0 25-32q9.49-18.49 14-43.5t4.5-58zm518-225q70 0 118 53 49 54 49 127v431h-335v-427q0-75 49-130 49-54 119-54zm-1301 15q71 0 119 53 50 55 50 127v431h-337v-427q0-75 49-130 49-54 119-54zm1792 249q0 42-1 70.5t-4 45.5q-31 60-240 115v-311q0-109-72-186-73-76-174-76-102 0-175 76-71 75-71 190v386q-99 9-187 14t-166 5q-85 0-198-5t-258-14v-375q0-109-72-186-73-78-174-78-102 0-175 78-71 77-71 189v285q-39-15-68-27t-53-24.5a358.71 358.71 0 0 1 -46.5-29q-22.5-16.5-49.5-42.5-7-18-7-99 0-130 34-233 34-104 108-239 38-70 146-181 56-57 111-98.5a752.88 752.88 0 0 1 112-70.5l34-18-113-335-4-26q0-32 22.5-57t59.5-25a81.51 81.51 0 0 1 46.5 14.5q21.5 14.5 30.5 40.5l108 321q191-67 415-67 144 0 263 18.5t216 54.5l84-321q7-28 28.5-44.5t49.5-16.5q37 0 59.5 24.5t22.5 57.5l-3 20-90 347 13 6q43 22 89 55t99 78q53 45 90.5 84t62.5 72a644.45 644.45 0 0 1 48 74q23 41 45 89a874.12 874.12 0 0 1 36.5 95 782.17 782.17 0 0 1 23 91.5 844.9 844.9 0 0 1 12 92q3.5 46.5 3.5 96.5z"/></svg>