<svg viewBox="0 0 2110 1674" xmlns="http://www.w3.org/2000/svg"><path d="m655 161-246 39q-8 0-16.5-7a22.26 22.26 0 0 1 -8.5-18v-6l19-138q3-22 26-22l10 2 223 101q15 12 15 25 0 21-22 24zm472-24q0-19 15-25l221-101 11-2q20 0 26 22l20 138v6a22.26 22.26 0 0 1 -8.5 18q-8.51 7-17.5 7l-245-39q-22-3-22-24zm83 677v-97q0-24-23-24h-62v-61q0-22-21-22h-98q-23 0-23 22v61h-61q-22 0-22 24v97q0 22 22 22h61v61q0 23 23 23h98q21 0 21-23v-61h62q23 0 23-22zm-470 15v-240l1-35q1-45-25-45l-30 5q-30 5-58.5 22.5a297.42 297.42 0 0 0 -54.5 43.5q-26 26-51.5 61t-48.5 81q-48 93-48 125 0 37 41 37h218a54.73 54.73 0 0 0 39.5-16 52.28 52.28 0 0 0 16.5-39zm838 500q68 0 121 51 50 49 50 122 0 71-50 122-51 50-121 50-71 0-121-50-51-51-51-122 0-72 51-122 51-51 121-51zm-1004 0q71 0 122 51t51 122q0 70-51 122-50 50-122 50-71 0-122-50-50-51-50-122 0-72 50-122 52-51 122-51zm475-990h-294q-13 0-21.5-8t-8.5-22v-70a29.61 29.61 0 0 1 8.5-21q8.5-9 23.5-9 0-209 144-209 139 0 145 209 32 0 32 30v70q0 30-29 30zm436 545h385q33 0 52-4t29.5-13.5q10.5-9.5 13.5-25t3-38.5q0-60-45-134-44-75-98-112t-130-54q-74-16-217-16-83 0-101 12t-18 63l2 68v165l-2 27a127.27 127.27 0 0 0 2.5 26 42.73 42.73 0 0 0 11 21q8.51 9 23 13.5t37.5 3.5zm625 149q0 113-19.5 200.5t-56 147q-36.49 59.51-90 90.5t-121.5 31h-15q0-96-68-164-67-67-162-67-94 0-163 69-33 35-50.5 75t-17.5 87h-542q0-94-69-163-70-68-162-68-94 0-163 69-33 35-50.5 75t-17.5 87h-44q-69 0-124.5-19t-94-54.5q-38.5-35.5-59.5-86.5t-21-115a505.54 505.54 0 0 1 5-70.5 390.57 390.57 0 0 1 15.5-67.5 373.32 373.32 0 0 1 25.5-60 188.48 188.48 0 0 1 36-48l39-32q51-40 84-64t44-38q23-30 42-57.5t33-50.5q52-92 97-156t81-100q72-74 153-92 79-18 375-18h191l237-1q193-1 324 47t205 138q74 89 99 221 24 134 24 255z"/></svg>