<svg viewBox="0 0 2249.06 1925" xmlns="http://www.w3.org/2000/svg"><path d="m1610.06 1105h5a31.76 31.76 0 0 0 20-7q9-7 9-21 0-24-30-31.5t-103-7.5q-20 0-45 2t-55 5q45-32 79-51.5t58-31q24-11.5 40-17a213.94 213.94 0 0 0 25-10q9-4.5 12.5-10t3.5-17.5q0-13-9-21.5a29.61 29.61 0 0 0 -21-8.5l-11 2q-3 1-34.5 15t-77 39q-45.49 25-97.5 60.5a661.42 661.42 0 0 0 -95 78.5 27.14 27.14 0 0 0 -8 20q0 13 9 21.5t20 8.5l8-1 22-4q42-8 87-14.5a650.45 650.45 0 0 1 93-6.5q24 0 47.5 2t47.5 6zm-645 3 4-13q0-15-8-22a695.14 695.14 0 0 0 -95.5-78q-51.49-35-97-60t-77-39q-31.5-14-35.5-16l-11-2a30.5 30.5 0 0 0 -20 7.5q-9 7.5-9 21.5 0 21 18 27 130 61 200 111-30-3-54.5-5t-45.5-2q-27 0-51 1a298.29 298.29 0 0 0 -42.5 4.5q-18.49 3.49-29 11.5t-10.5 22q0 14 9 22t20 6l100-8a181.33 181.33 0 0 1 38 0q18 2 35 3t51 7q34 6 85 16 18 0 26-15zm450 387-31-116q145-21 253.5-57t180.5-73.5q72-37.5 109-69t40-42.5v71q0 63-9.5 117.5t-20.5 101.5q-23 94-40 105-25 23-51.5 35.5a252.39 252.39 0 0 1 -54 18.5 350.39 350.39 0 0 1 -57 7.5q-29.49 1.5-60.5 1.5h-23q-198.99 0-236-100zm-842 100q-93 0-138-13-47-15-84-50-22-14-41-100-10-43-18.5-95t-8.5-113v-101q195 205 580 256l-8 33-24 83q-14 52-80.5 76t-177.5 24zm1469-654q92 92 149 245 58 154 58 315t-70 246q-69 83-199 130.5t-320 47.5q-81 0-143-4t-104-13a573.61 573.61 0 0 1 -78.5-20.5 329.81 329.81 0 0 1 -66.5-31 218.65 218.65 0 0 1 -51.5-43.5 185 185 0 0 1 -33.5-58q-8-17-12-48.5t-6-77.5l-4-157q-2-66 3.5-109.5t14.5-65.5q18-45 52-45 54 0 101 191 26 106 66 143 41 37 105 56.5t148 19.5q119 0 184-20 62-20 107-62 47-44 74-221 14-90 20-194t6-224zm-955 538-4 153q-2 61-14.5 106t-40.5 76a259.66 259.66 0 0 1 -64.5 51.5q-37.5 21.49-90 34.5t-123 19q-70.5 6-162.5 6-59 0-106-3t-83-11q-36-7-75-17a516.44 516.44 0 0 1 -78-27q-62-26-108.5-57.5t-77.5-74q-31-42.49-46-100t-14-134.5q1-87 15.5-161.5t36-135q21.51-60.49 47-108t48.5-80.5q23-33 39-51.5t20-23.5q0 165 10.5 294.5t30.5 214.5q10 42 23.5 74t31.5 52a204 204 0 0 0 42 37q24 16 57.5 27t78.5 16.5q45 5.51 105 5.5 128 0 207.5-35t100.5-110l37-131q5-20 12.5-41.5a235.28 235.28 0 0 1 21.5-44.5q27-48 52-48 34 0 52 44 9 21 15 67t4 116zm144-293q-36 0-63.5 21a150.21 150.21 0 0 0 -43.5 53 128.88 128.88 0 0 0 -44.5-53.5q-29.49-20.51-63.5-20.5-33 0-62 21.5t-58 82.5q-100-12-189.5-35.5a1429.87 1429.87 0 0 1 -173.5-57.5q-164-67-250-154-6-10-6-85v-34q0-40 18-126t66-181a661 661 0 0 1 52-90 811.24 811.24 0 0 1 61-78q33-36 60.5-63t51.5-47a397.71 397.71 0 0 1 46-33.5 491.31 491.31 0 0 1 45-24.5l-80-193-4-24q0-24 17-44t46-20q43 0 59 40l77 184a970.23 970.23 0 0 1 156.5-44.5 842.28 842.28 0 0 1 161.5-15.5q49 0 99.5 5t104.5 14q55 10 94.5 20t65.5 21l62-168q15-41 61-41 28 0 45 19t17 44l-4 22-66 179q96 56 179 144 87 90 125 160a681 681 0 0 1 63 167 814.9 814.9 0 0 1 16.5 97 667.5 667.5 0 0 1 3.5 100l-4 101q-95 83-265 150a1331.3 1331.3 0 0 1 -173.5 56 1749.34 1749.34 0 0 1 -182.5 35q-12-24-22-40t-18-25a123.89 123.89 0 0 0 -34-27q-19.99-11-46-11z"/></svg>