<svg viewBox="0 0 2262 1679" xmlns="http://www.w3.org/2000/svg"><path d="m1788 806q-27 0-48 10.5a114 114 0 0 0 -36 28 125.38 125.38 0 0 0 -23 40 140.79 140.79 0 0 0 -8 47.5q0 28 9.5 51.5a118.59 118.59 0 0 0 26 40 122.54 122.54 0 0 0 38.5 26 114.91 114.91 0 0 0 46 9.5 104.59 104.59 0 0 0 44.5-9.5 109.84 109.84 0 0 0 35.5-26 120.74 120.74 0 0 0 23.5-39 133.19 133.19 0 0 0 8.5-47.5 140.9 140.9 0 0 0 -34.5-93.5 111.9 111.9 0 0 0 -37-27.5 106.54 106.54 0 0 0 -45.5-10zm-1253 153q0 105 64 173 63 68 159 68 110 0 187-86 78-88 78-208 0-105-63-177t-159-72q-107 0-187 92-79 89-79 210zm1454 560 1-25q3-53-31-101.5t-95-83.5q-3-1-21-9.5t-44-19.5q-26-11-58.5-22.5a422.65 422.65 0 0 0 -65.5-17.5q-77-16-141.5-23t-119.5-7q-60 0-120 4.5t-117.5 12.5q-57.49 8-110.5 20a858.76 858.76 0 0 0 -98 28q-133 47-199 111.5t-66 136.5l3 23q40 24 154.5 39.5t291.5 15.5h82q62 0 128-2t137-6q72-5 135.5-9.5t120.5-11.5q112-13 169-29t65-24zm273-173q0 85-6 140-31 50-182 96-75 23-170.5 40t-211.5 31q-115 13-230.5 19.5t-233.5 6.5q-98 0-209-5t-237-14q-247-19-383-50-67-15-125-33.5t-104.5-38q-46.5-19.5-80.5-39.5t-54-38l-28-26q-7-17-7-89 0-145 60-292 30-75 60.5-131t61.5-96q61-80 123-135 43-38 77-64t57-42q48-33 157-86l-49-411-2-9q0-33 24-56.5t59-23.5q32 0 54.5 20a74.61 74.61 0 0 1 25.5 50l44 371q78-24 165.5-35.5t187.5-11.5q94 0 181.5 8a1295.73 1295.73 0 0 1 169 26.5 1157.2 1157.2 0 0 1 159.5 48.5 1205 1205 0 0 1 155 73l183-330q23-41 73-41 36 0 57.5 25.5t21.5 55.5q0 23-10 40l-191 342q157 127 226 238a1136.91 1136.91 0 0 1 59.5 108.5 735.75 735.75 0 0 1 41.5 107.5q15 53 23 115t8 135z"/></svg>