<svg viewBox="0 0 2144 1262.18" xmlns="http://www.w3.org/2000/svg"><path d="m917 155-66 30a253.11 253.11 0 0 0 5.5 30 146.13 146.13 0 0 0 8.5 25l5 9q11 40 28 40 9 0 46-19 19-10 30-18t17-15.5a35.22 35.22 0 0 0 7.5-15.5 98.11 98.11 0 0 0 1.5-18 101.21 101.21 0 0 0 -9.5-42q-9.5-21-32.5-21-17 0-41 15zm-95 40q0-31 21-37a211.14 211.14 0 0 1 15-62 148.31 148.31 0 0 1 33.5-50q21.5-21 52-33.5t68.5-12.5q98 0 151 92 33-30 83-30 57 0 104 29 50 29 50 71 0 24-41 44-43 19-43 36 0 11 14 17 37 9 60 28t23 39q0 9-12 9-38-4-76.5-6t-76.5-2q-51 0-101.5 2.5t-101.5 8.5l-42 6q-49 0-89-29l-16 3q-24 0-35.5-18.5a228.48 228.48 0 0 1 -19.5-39.5l-6-9a222.61 222.61 0 0 1 -10-28.5 145.72 145.72 0 0 1 -5-27.5zm1227 834q0 9 12 13.5t26 9a115.61 115.61 0 0 1 26 12q12 7.5 12 23.5 0 13-8 21.5a115.53 115.53 0 0 1 -18 15.5 210.59 210.59 0 0 0 -18 14q-8 7-8 16 0 8 6 17t6 26q0 35-34 50-17 7-52.5 11.5t-91.5 3.5l-61-2-626-11h-46l-47 2a117.74 117.74 0 0 1 -21-2 81.73 81.73 0 0 1 -20.5-6.5 51.73 51.73 0 0 1 -16-11.5 24.09 24.09 0 0 1 -6.5-17q0-45 203-133a1727.36 1727.36 0 0 1 211-77q109-32 226-54 234-45 330-45 111 0 111 43 0 28-58 52l-19 11q-18 9-18 18zm-909 47q-257-25-462.5-81.5t-354.5-137.5q-146-80-235-180-88-97-88-146 0-36 55-51 28-7 87-12t151-3l267 9a869.92 869.92 0 0 1 118-46q64-20 140-34 152-28 315-28h56q35 0 230 15 196 14 272 30 77 16 104 45 14 14 23.5 49t17.5 89q-79-14-172.5-25.5t-202.5-23.5q-215-24-407-39-97-7-157-10t-86-3q-58 0-58 11 0 9 38 15 171 23 379 54t459 72l254 41q27 5 40.5 22t13.5 58q0 39-12 87-75 8-149 20.5t-151 29.5q-75 17-148.5 39t-145.5 50q-71 28-118.5 48.5t-72.5 35.5z"/></svg>