<svg viewBox="0 0 2264 1679" xmlns="http://www.w3.org/2000/svg"><path d="m1870 1401a1021.94 1021.94 0 0 0 90-96 1044.5 1044.5 0 0 0 80-112q74-122 74-204 0-67-50-128-47-59-120-59-61 0-95.5 49.5t-34.5 132.5h-3q-15-37-29.5-63t-27.5-43q-26-32-56-53.5t-71-21.5q-61 0-107 47-45 45-45 112 0 117 108 224 54 55 125.5 108t161.5 107zm-479-27q0-34-24-55.5t-54-21.5a91.14 91.14 0 0 0 -43 10.5 114.67 114.67 0 0 0 -35 28.5q-15 18-24 43.5t-9 55.5q0 57 22.5 91.5t58.5 34.5q38 0 55-18.5t25-62.5a192.22 192.22 0 0 1 6-25 271.43 271.43 0 0 1 10-27 132 132 0 0 0 12-54zm-186-616a309.88 309.88 0 0 0 -16.5-100.5q-16.5-48.5-47-85.5a225.61 225.61 0 0 0 -73-58.5q-42.5-21.5-94.5-20.5-66 2-109 46t-72 133l-24 78h-44l-25-62q-34-85-61.5-142t-55.5-85q-54-54-123-54-108 0-165.5 65.5t-57.5 181.5q0 23 2.5 52t11.5 64q9 35 27 76t48 86q30 45 85 110.5t136 151.5q162 173 178 173 11 0 29-14t45-38l29-26q86-78 156.5-146t120.5-139q51-71 75.5-132t24.5-114zm1059 595q0 36-2 69t-5 64q-48 59-212 104-81 23-180 39.5t-217 27.5q-118 11-222 16.5t-198 5.5q-188 0-435-18-122-9-213.5-20.5t-152.5-24.5q-129-27-209.5-58t-126-57q-45.5-26-63.5-44.5t-21-21.5q-3-9-5-31t-2-58q0-51 4-93.5a475.37 475.37 0 0 1 14-79.5q9-38 27.5-83.5t46.5-102.5q28-57 51.5-98.5t45.5-67.5a354.85 354.85 0 0 1 -11.5-38q-5.5-22-9.5-46t-6-47.5q-2-23.5-2-43.5 0-134 83-224 85-93 217-93 60 0 120 39l-33-279-1-9q0-33 24-56.5t58-23.5q32 0 55 20a77.9 77.9 0 0 1 27 50l42 371q75-24 162-35.5t187-11.5q197 0 356 39 157 37 313 117l183-328q24-41 72-41 37 0 58.5 24.5t21.5 54.5a107.2 107.2 0 0 1 -2 21 65.22 65.22 0 0 1 -7 19l-190 342q42 36 79.5 71t69.5 68a761.59 761.59 0 0 1 117 170 964 964 0 0 1 44 99 684.23 684.23 0 0 1 28.5 97 823.08 823.08 0 0 1 15 99.5q4.5 50.5 4.5 106.5z"/></svg>