<svg viewBox="0 0 1894 1895" xmlns="http://www.w3.org/2000/svg"><path d="m1277 1204q36 0 61.5 25t25.5 61q0 36-25.5 61t-61.5 25q-36 0-61-25t-25-61q0-36 25-61t61-25zm-662 0q36 0 61 25t25 61q0 36-25 61t-61 25q-36 0-61-25t-25-61q0-36 25-61t61-25zm40-726h584a121.5 121.5 0 0 1 49 10 134.79 134.79 0 0 1 40.5 27 122.72 122.72 0 0 1 27.5 40.5 127.57 127.57 0 0 1 10 50.5v162a124 124 0 0 1 -10 50 130.35 130.35 0 0 1 -68 68 121.5 121.5 0 0 1 -49 10h-584a123.76 123.76 0 0 1 -90-37.5 134.79 134.79 0 0 1 -27-40.5 124 124 0 0 1 -10-50v-162a124 124 0 0 1 10-50 134.79 134.79 0 0 1 27-40.5 123.76 123.76 0 0 1 90-37.5zm815 811v-653q0-98-70-167-69-69-166-69h-574q-96 0-168 69-70 70-70 167v653q0 93 62 161 62 67 150 75v102q0 21 15.5 35.5a51.66 51.66 0 0 0 36.5 14.5q22 0 36.5-14.5t14.5-35.5v-100h419v100a47.48 47.48 0 0 0 15 35.5q15 14.51 37 14.5 21 0 35.5-14.5t14.5-35.5v-102q87-7 149-75 63-67 63-161zm-524-1289q262 0 482 133 221 133 343 349 123 218 123 465 0 125-30 241t-93 227q-122 216-343 349-221 131-482 131-259 0-474-127-217-128-345-346-127-217-127-475t127-475q129-218 346-345 219-127 473-127z"/></svg>