<svg viewBox="0 0 2414 2042" xmlns="http://www.w3.org/2000/svg"><path d="m162 1051 5 52q14-15 53-37.5t103-51.5q64-28 123.5-48.5a1185.78 1185.78 0 0 1 117.5-34 942.17 942.17 0 0 1 115-19.5 1107.51 1107.51 0 0 1 116-6q54 0 108 4.5t111 9.5l19 1-76-304q-12-47-25.5-112.5t-24.5-153.5l-93-3 40 242-26-18q-93-63-183.5-108t-185.5-65q-99 31-197 98 29 0 78 7t117 20a537.37 537.37 0 0 1 134 46.5q65 32.5 128 83.5 125 104 164 171l-103-4-74 3q-103-123-277-156-47-9-97-18a542 542 0 0 0 -96-9q-17 0-39.5 5t-51.5 12l-21 6-10-4 10 86q60-23 106-23 25 0 72.5 6t119.5 20q39 7 88 28.5t109 56.5a1470.5 1470.5 0 0 0 -198 55.5q-100 35.5-203 90.5-10 5-20 11a92.91 92.91 0 0 0 -18 14 64.05 64.05 0 0 0 -13 19q-5 11-5 27zm2139 337-8-28q-13 14-72 28-56 12-122 12-78 0-169.5-20t-197.5-58q-154-56-254-56h-15l-15-56 11-2q54-6 106-15.5a858.89 858.89 0 0 0 103-25.5q50 17 99.5 33.5t100 29.5q50.51 13 102.5 21a696.59 696.59 0 0 0 106 8q22 0 38-.5a226.68 226.68 0 0 0 28.5-2.5 153.94 153.94 0 0 0 24.5-6 200.38 200.38 0 0 0 26-11 69.26 69.26 0 0 1 29-7.5 62 62 0 0 0 29-8.5l-14-46-15-3q-21 0-49 14a152.08 152.08 0 0 1 -69 16h-21q-167 0-330-65a729 729 0 0 0 105-50q48-28 90-57l42-29q14-10 34.5-25t48.5-38q56-47 53-71l-12-49a474.77 474.77 0 0 0 -39 30.5q-19 16.5-39 36.5-263 257-709 257l20 70 102 353q13 44 22 91t26 83h48l52-3a1459.94 1459.94 0 0 1 -47.5-161.5q-19.5-83.5-44.5-166.5l26 4a942.25 942.25 0 0 1 138 32.5l136 43 136.5 36.5q136.5 36.49 139.5 13l51-1 33-25q9-7 42.5-38.5t93.5-86.5zm-1026-448q98 0 182-9.5t158-28.5q73-19 135-45a807.07 807.07 0 0 0 117-60.5 781.85 781.85 0 0 0 103.5-77.5 1055.31 1055.31 0 0 0 95.5-97l-18-58q-12 0-24 15-35 45-105 93.5t-176 100.5q47-42 82.5-85.5a709.75 709.75 0 0 0 61.5-87.5q26-45 51.5-102t51.5-127l-70-228q-8 32-20.5 67.5t-27.5 75.5l-48 128q-93 246-347 431l-122 10-19-78q39-19 84-53t98-82a1165.25 1165.25 0 0 0 92.5-95q40.5-47 69.5-92 30-47 57-105.5t51-131.5l-64 42q-56 141-168 263-109 117-237 190l-67-288q-4-16-6.5-31t-4.5-31l-101-1 12 60 66 290q13 57 27 114t30 114zm-198 766 140 17a936.24 936.24 0 0 1 -31-110q-13-59-26-126l-43-238-26-109q-4-14-14-14h-10l-15-1q-91-8-154-11.5t-99-3.5q-115 0-236.5 31.5t-252.5 94.5q-93 44-110 59-18 17-18 37l6 61 8-8a109 109 0 0 1 21-26 160.25 160.25 0 0 1 31-22q115-63 228-100.5t225-51.5l-36 28q-140 108-247.5 254t-188.5 331l12 130q96-75 168-107-6-3-6-20l4-28q14-42 22-67t13-34q3-14 18.5-42t41.5-71a933.86 933.86 0 0 1 57-84.5q30-39.49 62-75.5 66-73 140.5-127.5a703.09 703.09 0 0 1 158.5-87.5l44 3 20 94-46 23-48 25q-194 133-312 379-20 40-33 56 64-25 89-28 22-42 43-78t44-68q45-63 125-134 79-71 153-100l66 309q1 18 12 41zm1331-351 6 34q-3 49-32 78-198 204-410 295-209 92-480 92-82 0-185.5-8t-232.5-26q-32-5-68-7.5t-78-2.5a1017 1017 0 0 0 -331 55q-81 28-150.5 64a748.26 748.26 0 0 0 -128.5 84 133.84 133.84 0 0 1 -36 21.5 110.66 110.66 0 0 1 -41 7.5 105.16 105.16 0 0 1 -42.5-8.5 121.08 121.08 0 0 1 -34.5-22.5 109.76 109.76 0 0 1 -24-32.5 113 113 0 0 1 -11-38.5l-127-1275-2-12q2-14 3.5-22t2.5-12q1-5 8.5-17t20.5-32q26-42 72.5-89a718.52 718.52 0 0 1 99.5-84q54-37 123.5-70.5t159.5-56.5a1036.78 1036.78 0 0 1 181-30q46-4 76-5t44-1q135 2 250 9.5t218 7.5q207 0 332-51 126-51 240-165 34-35 79-35 41 0 69 23.5a123.35 123.35 0 0 1 39 57.5z"/></svg>