<svg viewBox="0 0 2414 2039" xmlns="http://www.w3.org/2000/svg"><path d="m2414 1388q0 23-8.5 42a126.65 126.65 0 0 1 -23.5 35q-98 102-199 175.5t-209 119.5q-213 93-482 93-82 0-185.5-8t-232.5-26q-63-9-146-9a1029.33 1029.33 0 0 0 -166.5 13.5 1051.38 1051.38 0 0 0 -161 39.5 997.6 997.6 0 0 0 -150 63.5 858.27 858.27 0 0 0 -132.5 85.5q-35 27-75 27-49 0-79.5-29.5t-34.5-71.5l-129-1287q2-14 3.5-22t2.5-12q1-7 29-50 26-41 72.5-87.5a761.82 761.82 0 0 1 100.5-84.5q55-38 126-70t162-56q45-12 90.5-20a844.13 844.13 0 0 1 93.5-11q48-3 75.5-4.5t35.5.5q135 0 250 7.5t218 7.5q203 0 330-50 63-24 123-66t119-101q34-32 79-32 41 0 69 22t39 57l390 1274a104.4 104.4 0 0 1 6 35zm-136 21v-96l-111-361v557q20-15 47.5-39.5t63.5-60.5zm-189 158v-871l-110-361v1299l26-15q23-14 44.5-26a312 312 0 0 0 39.5-26zm-188 102v-1546q-20 17-45 43t-66 51v1489q28-8 55.5-17t55.5-20zm-189-65v-1338l-111 50v815q29 137 56.5 254.5t54.5 218.5zm-223 136 85-4 89-7q-147-527-292-1370l-112 3q-47 2-102.5-1t-120.5-7q-65-4-117.5-5.5t-93.5-1.5q-44 0-74 1t-47 3q11 117 31.5 287t51.5 399q31 228 56.5 392t47.5 268l37-1a515.84 515.84 0 0 1 78.5 2q39.49 4 81.5 9 121 16 221.5 26.5t179.5 6.5zm-676-37-10-49h-589l12 110h312q78-26 146.5-41.5t128.5-19.5zm-580 139 8 85q52-44 126-85zm-37-377 11 111h583l-19-111zm-19-190 11 110h570l-17-110zm-8-78h561l-17-110h-555zm-30-300 11 111h552l-13-111zm-20-189 11 111h548l-13-111zm523-189h-409q-48 40-104 111h525zm-8-77-8-83q-18 0-51.5 7.5t-82.5 21.5q-50 14-83.5 27t-52.5 27zm888 305v-409l-73 13z"/></svg>