<svg viewBox="0 0 2414 2039" xmlns="http://www.w3.org/2000/svg"><path d="m673 492-4-27q0-12 6-15l22-18 2-4-4-3q-9 0-16 .5a33.37 33.37 0 0 1 -13-1.5q-6-2-11.5-8.5t-11.5-21.5l-4-3-4 3q-18 30-27 32-33 8-33 9l21 19 5 11-8 29-2 2 3 3 4-1q34-17 37-17l7 2 27 12zm83 63-3 4 5 3 30-3a23.13 23.13 0 0 1 17 7l15 23 4 3 4-4 10-27q7-12 12-13l29-8q4 0 4-4l-3-4-25-14q-8-4-6-15l1-26q0-4-4-4l-4 1-24 18-12 4-4-1-29-8h-2l-3 5 9 25 2 5-6 10zm172 131 1-4q0-4-7-4l-34 6q-10 0-13-6l-21-20-5-3-3 4-6 30q-1 9-12 14l-29 12-4 6 7 5 25 11q10 5 11 14l1 31q0 6 4 6l32-30 5-2 8 2 34 5 5-3-2-4-13-27-3-8 3-10zm-108 238 3-5-5-6q-9-3-17-5.5a133.63 133.63 0 0 0 -13-3.5q-10-5-20-45l-4-4-4 2-21 26q-6 10-16 10l-34-1q-7-1-7 4l1 4 19 26 3 12-1 7-14 33-1 4 4 3h2l33-11 6-2q7 0 13 6l29 23q4 0 4-7l2-34q1-13 10-18zm-281-50 10 1q14 0 14-12l-4-17-58-101q-7-16-7-29 0-17 8-28l48-77 3-9q0-11-12-11l-7 1-94 14-9 1q-26 0-42-16l-51-52q-5-6-12-6-9 0-12 12l-25 73q-9 29-40 41l-91 37q-15 6-15 15 0 6 8 11l75 44a49.06 49.06 0 0 1 20 19.5q7 12.5 5 29.5l-10 123q-2 23 13 23 7 0 16-9l92-91q19-19 49-19 6 0 128 32zm1875 514q0 23-8.5 42a126.65 126.65 0 0 1 -23.5 35q-98 102-199 175.5t-209 119.5q-213 93-482 93-82 0-185.5-8t-232.5-26q-63-9-146-9-169 0-332 54-83 27-152 64a767.71 767.71 0 0 0 -126 84q-33 27-75 27-49 0-79.5-29.5t-34.5-71.5l-127-1273-2-14q2-14 3.5-22t2.5-12q1-7 29-50 26-41 72.5-87.5a761.82 761.82 0 0 1 100.5-84.5q55-38 126-70t162-56q45-12 90.5-20a844.13 844.13 0 0 1 93.5-11q48-3 75.5-4.5t35.5.5q135 0 250 7.5t218 7.5q203 0 330-50 63-24 123-66t119-101q34-32 79-32 41 0 69 22t39 57l390 1274a104.4 104.4 0 0 1 6 35z"/></svg>