<svg viewBox="0 0 2414 2042" xmlns="http://www.w3.org/2000/svg"><path d="m836 812 10-2q14 0 33 7 0-11-10.5-18.5a38 38 0 0 0 -22.5-7.5h-15a42.58 42.58 0 0 1 5 21zm-26-3q0-24-43-29l-11 3 4 18a172.28 172.28 0 0 1 17.5 1.5 276.89 276.89 0 0 1 32.5 6.5zm-130 3 39-11h8q0-19-15-19-34 0-34 26zm-67 7 2 4 27-6h14l-4-12-5-10q-34 0-34 24zm487 394q0 4-5 4l-14-4q-6 0-9 1.5t-5.5 3a27.91 27.91 0 0 1 -5.5 2.5q-3 1-10 1l-18-4-22 6q-9-9-9-34 0-4 9-4l-1-7q0-7 4-11l-1-6q0-5 5-5-9-17-12.5-40t-7.5-44q-28-9-28-33 0-8 4.5-8t13.5-5l-4-16q-14 0-33 7 11 50 17 82t6 49a74.35 74.35 0 0 1 -10 37.5 102 102 0 0 1 -27 30.5 125.92 125.92 0 0 1 -39.5 20 158.87 158.87 0 0 1 -47.5 7q-88 0-138-37t-67-111l-15-64a129.17 129.17 0 0 0 -41-7q1 7 1.5 13.5t7.5 6.5q21 0 21 25 0 13-18 19l8 38 6 40 4 11 4 7q0 1 4.5 10.5t7.5 9.5h8q9 0 9 35l-2 4q-7 0-19-7l-26 7-23-6-14 3-9 4q-5 0-6-11.5a178.37 178.37 0 0 0 -4-24.5l11-4-1-8 5-8-1-7q0-4 4-4l-13-64-10 4 6 18q0 9-4 9c-1.33 0-3.17-1.17-5.5-3.5a105 105 0 0 1 -7.5-8.5 61.43 61.43 0 0 1 -7-11 26.63 26.63 0 0 1 -3-12q0-7 2.5-10a27 27 0 0 1 6.5-5.5 39.53 39.53 0 0 1 8.5-4 21.86 21.86 0 0 0 8.5-5.5q-6-23-18-23-27 0-27-32 0-7 10.5-15.5t19.5-8.5l-7-43-3-8q-13-10-13-30 0-7 9-8-7-5-11-8.5t-4-6.5q0-12 11-14 11 0 14-8 2-7 7-7c4 1.33 6.67 2.67 8 4a24.49 24.49 0 0 1 3 3.5l2 3 4 1.5q24 0 24 17l-7 15q12 0 12 12l-5 12 1 6-7 4q2 4 13 46l38 3q-12-43-12-83 0-13 61-13a21.17 21.17 0 0 1 -11-15q-1-9-20-12-44-6-44-31l1-5q-11-9-11-26 0-20 14.5-30t41.5-8l17 1q18-16 44-16h9l10 3-2-4q0-7-5-8-7-3-7-17 0-4 7-8a29.73 29.73 0 0 1 15-4q25 0 25 22c0 3.33-1.17 5.17-3.5 5.5s-3.5 2.17-3.5 5.5v4l1 2 19-2q30 0 48 15 1-4 26-4 28 0 45 16.5t17 32.5l-4 15-5 12q-2 2-8 7a130.68 130.68 0 0 1 -13 9.5q-7 4.5-12.5 8l-5.5 3.5 4 17q0 5-11 7h20l29-1q14-1 22 12.5t15 46.5l7 31 34-7-12-46q-17-17-17-25 0-5 3.5-5a11.52 11.52 0 0 0 6.5-2q-14-13-14-19 0-9 10-9t12-9q1-6 6-6 7 0 8.5 5.5t6.5 6.5q26 0 26 18l-3 7-4 4q14 3 14 17l-5 7 2 6-3 2 12 54q21 0 30.5 12.5t9.5 20.5q0 23-26 23l4 20a126.33 126.33 0 0 0 17.5 9 51.5 51.5 0 0 1 11.5 6 18.71 18.71 0 0 1 6 7.5q2 4.5 2 12.5 0 1-8 15l-3 8q-4 0-6.5-6.5t-2.5-10.5l1-8-11-5q11 62 14 64 11 0 12 14l6 11q2 2 8 2 8 0 9 31zm386 123q233 0 394-76 81-38 157.5-97.5t147.5-141.5l-186-637q-173 173-330 240-153 66-388 66-73 0-164.5-6.5t-203.5-18.5q-23-2-49.5-3t-57.5-1a900.73 900.73 0 0 0 -193.5 20.5 954.09 954.09 0 0 0 -183.5 60.5q-178 79-295 222l72 647a1141.79 1141.79 0 0 1 163-135.5 1070.27 1070.27 0 0 1 181-100 927.49 927.49 0 0 1 193.5-59.5 879.49 879.49 0 0 1 200.5-15l89 5q64 3 124 8t116 10q56 5 109 8.5t104 3.5zm928 53q0 23-8.5 42a126.65 126.65 0 0 1 -23.5 35q-202 207-412 298-207 90-478 90-72 0-149.5-5.5t-162.5-16.5q-86-11-148-16.5t-104-5.5a1017 1017 0 0 0 -331 55q-81 28-150.5 64a748.26 748.26 0 0 0 -128.5 84 136.71 136.71 0 0 1 -35.5 21.5 104.11 104.11 0 0 1 -39.5 7.5 115 115 0 0 1 -44.5-8.5 111 111 0 0 1 -35-22.5 115 115 0 0 1 -34.5-72l-127-1274-2-12q0-53 80-142a712.43 712.43 0 0 1 86-82 769.64 769.64 0 0 1 98-67q105-61 236-94.5t291-33.5q133 0 249 8.5t219 8.5q205 0 328-48 63-24 123-66.5t121-103.5q33-33 79-33 41 0 69 22.5t39 58.5l390 1272a113.25 113.25 0 0 1 6 36z"/></svg>