<svg viewBox="0 0 2414 2042" xmlns="http://www.w3.org/2000/svg"><path d="m2278 1410v-96l-111-361v556q26-20 53.5-45t57.5-54zm-189 158v-871l-110-363v1300q81-45 110-66zm-188 101v-1545q-16 14-29 26l-25.5 23.5q-12.49 11.5-26 22t-30.5 21.5v1489q28-7 55.5-16.5t55.5-20.5zm-189-64v-1338q-37 19-64.5 31t-46.5 18v816q29 137 56.5 254.5t54.5 218.5zm-56 126 7-1q-42-152-82.5-323t-80.5-365q-41-195-73-364.5t-56-318.5l-112 4q-49 2-100-.5t-105-6.5q-54-4-111-6.5t-118-1.5l-121 3 17 162q41 371 83 665.5t87 519.5l37-1a563.18 563.18 0 0 1 78.5 1.5q39.5 3.5 81.5 9.5 121 16 221 24.5t180 8.5q37 0 79-.5a488.69 488.69 0 0 0 88-9.5zm-1506-720 656 657-34-191-640-641zm30 299 432 431 130-29-580-579zm30 297 209 209q31-16 58.5-27.5t52.5-20.5l-338-338zm30 296 14 15a423.88 423.88 0 0 1 38.5-29q23.5-16 55.5-35l-126-126zm-121-1188 632 632-27-186-566-568q-30 30-44 61zm563 136-379-380q-71 43-92 67l495 495zm-251-441-57 23 293 294-21-179-157-159zm201 15-6-66-50 9zm890-87-73 14 73 394zm886 1015 6 35a105.16 105.16 0 0 1 -8.5 42.5 124.29 124.29 0 0 1 -23.5 35.5q-98 102-199 175.5t-209 119.5q-213 93-482 93-82 0-185.5-8t-232.5-26q-32-5-68-7.5t-78-2.5a1017 1017 0 0 0 -331 55q-162 56-279 148a150.24 150.24 0 0 1 -37 21.5 108 108 0 0 1 -40 7.5 105.16 105.16 0 0 1 -42.5-8.5 121.08 121.08 0 0 1 -34.5-22.5 109.76 109.76 0 0 1 -24-32.5 114.21 114.21 0 0 1 -11-39.5l-127-1274-2-13q2-14 3.5-22t2.5-13q1-5 8.5-17t20.5-32a478.53 478.53 0 0 1 31.5-42.5q18.5-22.5 41-45t48-44.5a613.59 613.59 0 0 1 51.5-40q54-38 123-70t156-55q45-11 87.5-19t87.5-12q45-5 76.5-5.5t53.5-.5q135 2 250 8.5t218 6.5q205 0 330-49 124-49 242-167 33-33 79-33 41 0 69 22.5t39 58.5z"/></svg>