<svg viewBox="0 0 2412 2039" xmlns="http://www.w3.org/2000/svg"><path d="m1519 998-15-113a311.32 311.32 0 0 0 -62-70l21 141q38 21 56 42zm-173-71 52 7-23-168-55-28zm621 233 11-3q9 0 32 12 24 11 24 18l-15 30-33 58q-22 39-31 39-7 0-34-11-25-9-25-16l2-8zm-106 116q-6 0-15-3t-18-7a111.41 111.41 0 0 1 -16.5-9q-7.5-5-9.5-8l1-7 71-119 10-3q7 0 31 11 25 10 25 19 0 6-1 8l-36 65q-33 59-42 53zm-152-64 1-7 70-121 8-2q5 0 12.5 3t20.5 8q26 10 26 19l-25 46q-21 41-35 61t-19 20l-20-5q-8-2-16.5-5t-15-6q-6.49-3-9-6t1.5-5zm-506-509 35 249 48-18-30-219zm744-69q0 9-21 24a146.48 146.48 0 0 1 -18 11q-8 4-13 4l-7-4-8-6-96-90-3-7q0-4 6-11a94.47 94.47 0 0 1 14.5-13.5 109.63 109.63 0 0 1 17.5-11q9-4.5 16-4.5c1.33 0 3.17 1 5.5 3s5.5 4.67 9.5 8a332.62 332.62 0 0 1 30.5 25.5q15.5 14.5 32.5 29.5 34 31 34 42zm-1476 646q5 0 15 8 4 3 28 26.5t69 65.5l4 7q0 4-6 11a94.47 94.47 0 0 1 -14.5 13.5 143.91 143.91 0 0 1 -17.5 11.5q-9 5-15 5-1 0-15-12-14-11-29.5-24t-32.5-30q-36-34-36-42 0-10 20-25t30-15zm1157-591-4-7q0-3 5-9.5a79.67 79.67 0 0 1 13-13 116.88 116.88 0 0 1 17-11.5q9-5 17-5 5 0 18 9 6 6 21.5 19.5t32 28.5a396 396 0 0 1 29 29q12.49 14 12.5 20l-2 9q-33 31-48 31l-6-1q-6 0-105-99zm-766 406-42-292a231.78 231.78 0 0 0 -25.5 38.5 242.24 242.24 0 0 0 -14.5 33.5l26 183a198.79 198.79 0 0 0 27 23 106.17 106.17 0 0 0 29 14zm740-436-11-5-56-52-56-52-4-9q0-6 19-22 22-16 33-16l9 3 87 81q14 13 22.5 21t8.5 13q0 7-22 23-20 15-30 15zm157 787q-2 0-10-2.5t-17-6a165.46 165.46 0 0 1 -17.5-8q-8.51-4.5-12.5-9.5l3-10q2-5 14-26.5t26-45.5q14-24 27.5-43t18.5-19q5 0 17.5 4t32.5 14q10 6 10 11l-1 5-36 59-35 63q-7 14-20 14zm177-114 8 10q0 6-77 134l-8 7-11-2a94.9 94.9 0 0 0 -14-5.5q-8-2.51-15.5-5a89 89 0 0 1 -14-6q-6.49-3.49-8.5-7.5l3-9 45-80q30-55 38-55 13 0 54 19zm-1204 188 4 8q0 8-20 23-21 15-32 15l-9-3-25-24-25-22q-32-29-49.5-45t-17.5-22l4-11 10-7q22-22 38-22 8 0 23.5 14.5t42.5 40.5zm904-1085-5-10q0-5 20-22 20-16 32-16l11 4q116 106 116 113 0 6-12 18-31 22-40 22c-2 0-3.33-.33-4-1zm33 974q-6 0-15.5-3a126.62 126.62 0 0 1 -18.5-7.5q-9-4.5-16.5-9t-9.5-8.5l1-8q1-1 7-11.5t14.5-25.5q8.51-15 18-32t19-32q9.49-15 16.5-24.5t10-9.5a72.75 72.75 0 0 1 42 13l11 6q9 6 9 11l-2 4-71 122q-8 15-15 15zm-580-719 51 362 43-54-43-305zm-164 425 26 2h24l-54-391q-11 5-23.5 11.5a184.94 184.94 0 0 0 -23.5 14.5zm55-411 57 404 48-17-56-396zm-660 156q-3 0-30-9-26-10-26-18l2-8 169-289 7-3q4 0 12 3t21 8q26 11 26 19l-8 21-159 269q-2 7-14 7zm1233-376q0-5 20-22 20-16 30-16l10 2 5 7 247 230 4 7q0 7-21 23-20 17-31 17l-10-3-7-7q-57-57-114-107.5t-117-108.5q-16-16-16-22zm-1025 90 11-3q3 0 11 3t21 8q24 11 24 20 0 5-8 19l-155 262q-7 14-19 14l-4-1q-26-9-39-14.5t-13-10.5l2-10 52-83zm95 37 9-3q9 0 33 13 25 11 25 18l-3 9-164 281-9 5-6 1-6-1q-50-13-50-26l1-8zm188 851 4 7q0 9-23 25-23 15-29 15l-10-5-210-195q-20-19-32-29.5t-12-17.5l3-8q1-2 7-7t13-10.5a98.64 98.64 0 0 1 14.5-9.5q7.5-4 13.5-4l10 2 5 7zm-157 115 4 8q0 6-20 23-22 17-29 17l-12-4-7-7q-25-20-48.5-42.5t-47.5-45.5l-90-86q-29-28-45.5-43t-16.5-20l3-7q34-32 48-32l9 2 7 9q73 66 124 116t84 79zm436-925q209 0 357 119 148 120 148 286 0 137-111 234-54 48-119.5 71.5t-142.5 24.5q-101 1-191.5-30t-159.5-86.5q-69-55.5-109-132.5t-38-168q2-146 102-230 104-88 264-88zm400 1086q127 0 237-20.5t205-62.5q190-84 368-270l-392-1273q-132 133-279 191-145 58-372 58-103 0-217-7t-251-7q-226 0-400 74.5t-277 230.5l128 1275q301-231 686-231 44 0 83.5 2.5t76.5 7.5q123 17 224 24.5t180 7.5zm916-385 6 34q-1 25-9.5 44a123.28 123.28 0 0 1 -22.5 34q-195 201-410 295-209 92-480 92-81 0-184.5-8t-232.5-26q-32-5-68.5-7.5t-78.5-2.5a1047.85 1047.85 0 0 0 -167.5 13.5 1029.6 1029.6 0 0 0 -161.5 39.5 974.85 974.85 0 0 0 -149.5 64 843.12 843.12 0 0 0 -131.5 86q-20 15-39.5 21.5t-36.5 6.5a108.72 108.72 0 0 1 -43-8.5 112.56 112.56 0 0 1 -34.5-22.5 125.59 125.59 0 0 1 -24-32 102.58 102.58 0 0 1 -11.5-38l-127-1275q0-28 3-42 5-18 34-60a540.81 540.81 0 0 1 35-45.5 554.79 554.79 0 0 1 43.5-45.5q23.5-22 48-42t48.5-37q50-34 112.5-63t136.5-51q38-11 74-18.5t70-12.5q35-5 81-8.5t103-3.5q135-1 250.5 7t217.5 8q204 0 330-50 63-24 123-66t119-101q34-32 79-32 41 0 69.5 21.5t39.5 57.5z"/></svg>