<svg viewBox="0 0 2414 2039" xmlns="http://www.w3.org/2000/svg"><path d="m849 344-5-2-4 4-12 24q-2 8-14 11l-28 4-4 5 24 23q6 6 6 16l-6 29v3l3 2 4-1 25-15 8-1q5 0 34 15l4 1 3-3v-2l-7-29a27.84 27.84 0 0 1 6-17l23-24-4-4-30-3-14-10-11-22zm134 706-4-2q-5 0-5 4l-8 27q-2 8-12 11l-29 8-5 4 4 4 23 17q7 5 7 15l-1 29 1 5 5-1 24-17 11-4 5 2 27 10 3 2 3-3v-4l-8-27-2-4 4-13q21-22 21-26t-4-4h-30q-14 0-30-33zm-381-275-4 4 4 5 24 15q8 8 8 15v30l3 5 27-20q1-4 9-4l6 1 29 10 2 1 3-4v-3l-11-27-1-4 4-13 18-23 1-4-4-3h-30q-10 0-15-7l-17-23h-1l-4-3-3 4-8 28-11 12zm-294-280-3 5 3 3 26 12q11 3 11 14l4 29 3 5 25-24q6-6 12-6h3l28 6h3l4-3-1-4-15-26-2-8q0-4 16-33l1-4-4-3h-2l-28 5h-3q-10 0-14-5l-23-23q-4 0-4 5l-3 28a21.17 21.17 0 0 1 -11 15zm-161 90-3-1q-4 0-4 7l4 27q0 9-7 16l-23 18-1 4q0 4 4 4 32 8 35 11 3 2 17 33 0 4 4 4l4-2 14-26q3-10 13-10h30q6 0 6-4l-23-26q-5-5-5-14v-3l9-27 1-3q0-4-4-4l-4 2-26 12-7 1-10-2zm397 617-5-9 3-7 14-26 1-3-4-3h-1l-29 6q-10 0-16-6-22-22-25-22-4 0-4 4v17s-.83 4.5-2.5 13.5-5.17 13.17-10.5 12.5-13.67 4-25 14l-3 4q0 2 30 15l9 13 5 29q0 6 4 6l23-25a19.19 19.19 0 0 1 14-6h2l29 5h3l3-2-2-4zm-13-212-4 6 4 2 26 14 10 12 3 30q0 6 4 6l23-23q5-6 14-6h2l29 7h3l2-3v-4l-13-24-2-7q0-4 17-36v-4l-4-3-29 4h-3q-11 0-13-5-21-23-24-23l-2 4q-9 37-15 42zm460-234q0-4-6-4l-28-3q-12 0-15-9l-14-25-4-3q-4 0-4 4l-11 25q-3 11-13 12l-28 6-6 3 4 4 21 21 7 10v3l-4 29 2 7 4-2 25-16 8-2q8 0 36 14l3 1 2-4v-2l-6-29v-3q0-10 27-37zm-497-90-1 29q0 5 4 5 3 0 26-20l12-3h4l28 9 4 2 3-4v-3l-11-27-2-6 4-11 17-23 1-4-4-3h-31q-9 0-14-7l-16-23-5-3q-4 0-4 4l-7 28q-2 11-12 12l-27 10-4 4q0 4 27 19 9 6 8 15zm-190 633v-2l7-28v-1q0-6-4-6l-3 2-35 15-7-3-25-15h-3q-4 0-4 4v1l4 28v3q0 8-5 13l-25 25 6 3 27 4q12 2 15 11 13 30 15 30 3 0 18-30 1-9 12-9l30-2q4 0 4-4l-1-5q-12-13-21-19.5t-5-14.5zm105-395 2 27v3q0 5 4 5l26-23 12-4 4 1 28 9h2l5-3-2-4-12-28-2-6 3-10 17-23 1-4-5-3-29 3q-12 0-15-7l-18-22-5-3-3 4-7 28q-4 11-11 12-30 11-30 15l3 4 24 15q8 5 8 14zm193-551-5-3q-4 0-4 4l-6 29a21.92 21.92 0 0 0 -2.5 4.5q-.5 1.5-3.5 3.5a102.21 102.21 0 0 1 -10 5.5q-7 3.5-22 9.5l-4 4 4 4 25 14q8 6 8 14 2 35 4 35l26-22 11-4 5 1 28 9h2q5 0 5-4v-3l-13-28-1-5 3-11 16-23 1-4-4-3h-1l-29 1h-3q-8 0-13-7zm177 206-6-3-2 3-11 28q-7 10-13 10l-28 7-4 4 2 5 22 17q7 5 7 15l-4 29q0 6 4 6l4-2 23-16 9-2q3 0 11.5 4a222.92 222.92 0 0 0 23.5 9l4 1 3-3v-2l-8-29-2-4 6-14 22-23q0-4-6-4l-28-3q-6 0-16-8zm-45 505-4-3q-5 0-5 4l-5 28q-2 11-12 12l-28 10-4 4 3 5 25 14q7 5 8 15 2 35 4 35l26-21 12-5h4l29 10h1l4-3v-2l-10-28-2-7 3-9 16-23 2-5q0-4-6-4l-28 3q-8 0-16-8l-16-21zm-439-256 2 6 25-26 12-4h3l29 5q7 0 7-4l-17-29-3-8q0-2 17-34l1-3q0-4-7-4l-28 5h-3q-10 0-12-5l-25-22q-4 0-4 5l-3 28q0 11-10 14l-25 13-5 6 5 2 25 11q10 6 11 15zm-137 188-3 4q0 4 5 4 16 3 24.5 5.5a87.76 87.76 0 0 1 10.5 3.5q2 2 6 10t11 25q0 4 5 4l4-4 13-26a22.5 22.5 0 0 1 14-9l30-1q6 0 6-4l-24-26a24.63 24.63 0 0 1 -4-14v-3l8-27v-3l-4-2h-2l-33 13q-3 0-12.5-4t-23.5-13l-3-2q-4 0-4 6l4 28q0 11-6 17zm738-76 3-4q0-4-5-4h-29q-10 0-15-8l-16-23-5-3q-4 0-4 4l-8 26q-2 11-12 12-33 11-33 13l3 4 23 16q8 5 8 15l-3 29q0 5 5 5l4-1 23-16 11-4 5 1 28 11h1l4-3v-3l-8-28-1-6 4-11zm-560 229 2 5 6-4 19-20q5-6 14-6h2l29 6q6 0 6-4l-15-29-5-10 3-7 14-26 1-2q0-4-5-4l-29 5h-3q-8 0-38-27-4 0-4 5l-3 27q0 10-9 16l-26 12-3 5 3 4 26 11q4 2 10 13zm1677-705-30-98a903.56 903.56 0 0 1 -140 115q-74 49-161 82t-194 51.5q-107 18.5-236 13.5l-200-6 24 116 210 5q129 4 231.5-13t181.5-48q80-32 158-86t156-132zm-754-82-253-8 25 127q57 5 111.5 6.5t106.5 1.5q253 0 409-64a664 664 0 0 0 150.5-84.5q70.5-52.5 133.5-126.5l-32-102q-133 133-278 191-73 30-165.5 46.5t-207.5 12.5zm822 308-30-100q-81 73-163 125.5t-168 83.5q-85 32-195 48.5t-245 13.5l-182-4 20 105 18 2q172 12 276 12 225 0 374-67 151-69 295-219zm73 235-33-108q-149 143-312 211-162 66-397 66-54 0-122.5-3.5t-149.5-9.5l25 125q72 5 129 7t102 2q251 0 424-67 88-34 170.5-89.5t163.5-133.5zm-1950 647 10 103a1090.1 1090.1 0 0 1 155.5-102.5 1110.75 1110.75 0 0 1 364.5-122.5 1089.9 1089.9 0 0 1 198-12l129 4q158 5 257.5 15t142.5 10q236 0 409-67 174-67 360-224l-38-125q-173 152-356 218-180 64-437 64-57 0-147.5-8t-215.5-13l-114-4a854.26 854.26 0 0 0 -137 7 1176.73 1176.73 0 0 0 -135 26 1066.61 1066.61 0 0 0 -258 100q-63 34-109.5 66.5t-78.5 64.5zm1288 188q250 0 441-85 97-42 187.5-109t180.5-159l-34-110q-184 147-375 218-94 35-202.5 52.5t-233.5 17.5q-50 0-147.5-10t-247.5-15l-129-4q-115-4-210.5 16.5t-175.5 49.5q-79 29-142 67-32 19-61.5 38.5t-52.5 37q-23 17.51-39 32t-22 23.5l14 127a1134.55 1134.55 0 0 1 107-73q52-31 100-54 100-46 219.5-75t259.5-29q42 0 105.5 5.5t149.5 16.5q85 11 162 16.5t146 5.5zm922-352q0 23-8.5 42a126.65 126.65 0 0 1 -23.5 35q-98 102-199 175.5t-209 119.5q-213 93-482 93-69 0-146-5.5t-162-16.5q-86-11-149.5-16t-105.5-5q-94 0-175.5 15t-149.5 37q-68 22-121 48t-90 48.5q-37 22.5-56 37.5t-19 16q-35 27-77 27-24 0-44-8.5a112.56 112.56 0 0 1 -34.5-22.5 108.6 108.6 0 0 1 -23-32 115 115 0 0 1 -10.5-38l-127-1273-2-14q2-14 3.5-22t2.5-12q1-7 29-50 26-41 72.5-87.5a761.82 761.82 0 0 1 100.5-84.5q55-38 126-70t162-56q45-12 90.5-20a844.13 844.13 0 0 1 93.5-11q48-3 75.5-4.5t35.5.5q135 0 250 7.5t218 7.5q203 0 330-50 63-24 123-66t119-101q34-32 79-32 41 0 69 21.5t39 57.5l390 1274a104.4 104.4 0 0 1 6 35z"/></svg>