<svg viewBox="0 0 2414 2039" xmlns="http://www.w3.org/2000/svg"><path d="m2414 1388q0 23-8.5 42a126.65 126.65 0 0 1 -23.5 35q-98 102-199 175.5t-209 119.5q-213 93-482 93-82 0-185.5-8t-232.5-26q-63-9-146-9a1029.33 1029.33 0 0 0 -166.5 13.5 1051.38 1051.38 0 0 0 -161 39.5 997.6 997.6 0 0 0 -150 63.5 858.27 858.27 0 0 0 -132.5 85.5q-35 27-75 27-49 0-79.5-29.5t-34.5-71.5l-129-1287q2-14 3.5-22t2.5-12q1-7 29-50 26-41 72.5-87.5a761.82 761.82 0 0 1 100.5-84.5q55-38 126-70t162-56q45-12 90.5-20a844.13 844.13 0 0 1 93.5-11q48-3 75.5-4.5t35.5.5q135 0 250 7.5t218 7.5q203 0 330-50 63-24 123-66t119-101q34-32 79-32 41 0 69 22t39 57l390 1274a104.4 104.4 0 0 1 6 35zm-1698-424q0-142 104-230 103-87 271-87 127 0 250 53t193 144q70 91 70 206 0 137-114 234-111 96-264 96a666.44 666.44 0 0 1 -133-13 623.22 623.22 0 0 1 -124-39q-120-53-186.5-148t-66.5-216zm776 776q253 0 441-84 189-84 368-269l-391-1274q-134 134-279 192-144 57-372 57-103 0-217-7.5t-251-7.5a1259.4 1259.4 0 0 0 -154 9 881 881 0 0 0 -141 29q-134 39-237 115-51 38-87 77t-58 77l127 1273q294-231 687-231 39 0 78.5 3t81.5 8q123 16 223.5 24.5t180.5 8.5z"/></svg>