<svg viewBox="0 0 2414 2039" xmlns="http://www.w3.org/2000/svg"><path d="m2046 555v397l24-25q28-27 45-43.5t26-19.5zm-1891 506 36 356 75-62v-418q-33 26-60.5 52.5t-50.5 53.5zm945-297v381l111 8v-383zm-188-16v386l110 4v-380q-48-5-75.5-7.5t-34.5-2.5zm377 25v387l111 5v-397zm-566-24v404l109-15v-394q-28 0-54.5 1t-54.5 4zm756 13v405l110-6v-421q-26 7-53.5 12t-56.5 10zm-946 28v418q28-11 55-20.5a449.4 449.4 0 0 1 55-15.5v-410q-29 5-56.5 12t-53.5 16zm-189 91v420q28-17 55.5-32t55.5-29v-420q-30 14-57.5 28.5a520.73 520.73 0 0 0 -53.5 32.5zm1324-166v435a499.85 499.85 0 0 0 57.5-13q27.49-8 53.5-17v-458a475.65 475.65 0 0 1 -50.5 26.5q-27.5 12.5-60.5 26.5zm189-104v476a616.59 616.59 0 0 0 55.5-31.5q27.5-17.5 55.5-38.5v-500q-28 26-55.5 50t-55.5 44zm-365 1129q253 0 441-84 189-84 368-269l-119-383-24-84a747 747 0 0 1 -129.5 128q-72.49 56-160.5 97-177 80-356 80-81 0-195.5-10t-266.5-17l-121-5a843.35 843.35 0 0 0 -205 15 983.59 983.59 0 0 0 -194 59.5 1015.37 1015.37 0 0 0 -177 97 1079.05 1079.05 0 0 0 -154 127.5l44 435q55-42 106-72.5t99-53.5q95-44 214-74.5t267-30.5q41 0 103.5 5.5t148.5 16.5q86 11 162.5 16.5t148.5 5.5zm922-352q0 23-8.5 42a126.65 126.65 0 0 1 -23.5 35q-98 102-199 175.5t-209 119.5q-213 93-482 93-75 0-153-5.5t-163-16.5q-85-11-146.5-16t-101.5-5q-128 0-231 24-51 12-98.5 27.5a888.54 888.54 0 0 0 -93.5 36.5 879.21 879.21 0 0 0 -92 49q-46 28-95 65-36 27-75 27-46 0-76-26-31-26-37-65-3-19-35.5-344t-94.5-955q0-53 83-142 80-87 186-148 104-59 234.5-92t287.5-33q135 0 250 7.5t218 7.5q203 0 330-50 63-24 123-66t119-101q34-32 79-32 41 0 69 22t39 57l390 1274a104.4 104.4 0 0 1 6 35z"/></svg>