<svg viewBox="0 0 2066 2066" xmlns="http://www.w3.org/2000/svg"><path d="m1811 233 152-152-9-3h-1843a32.45 32.45 0 0 0 -33 33v1843q0 12 10 23l153-156q-25-25-25-60v-1457a83.85 83.85 0 0 1 7-34 90 90 0 0 1 47-47 83.85 83.85 0 0 1 34-7h1457q30 0 50 17zm-298 210 3 17-458 1200q-5 10-15 10h-305q-17 0-17-16l1-7 368-968h-549q-17 0-17-17v-209q0-16 17-16h958q9 0 14 6zm-1216-139v1457q0 7 7 7h1457q8 0 8-7v-1457q0-7-8-7h-1457q-7 0-7 7zm-186-304h1843a107 107 0 0 1 43.5 9 112.91 112.91 0 0 1 59.5 59.5 104.66 104.66 0 0 1 9 42.5v1843a107 107 0 0 1 -9 43.5 112.91 112.91 0 0 1 -59.5 59.5 107 107 0 0 1 -43.5 9h-1843a103.56 103.56 0 0 1 -43-9 116.81 116.81 0 0 1 -35-24 115 115 0 0 1 -24-35.5 107 107 0 0 1 -9-43.5v-1843a104.66 104.66 0 0 1 9-42.5 115 115 0 0 1 24-35.5 116.81 116.81 0 0 1 35-24 103.56 103.56 0 0 1 43-9z"/></svg>