<svg viewBox="0 0 2066 2065" xmlns="http://www.w3.org/2000/svg"><path d="m1811 233 152-153-9-2h-1843a32.45 32.45 0 0 0 -33 33v1843q0 12 10 23l153-154q-25-28-25-62v-1457a83.85 83.85 0 0 1 7-34 90 90 0 0 1 47-47 83.85 83.85 0 0 1 34-7h1457q30 0 50 17zm-830 412-18 195q111 3 199.5 34t157.5 88q137 113 137 298 0 116-68 208-67 93-178 142-109 50-214 50a654.49 654.49 0 0 1 -102.5-8q-50.5-8-117.5-31-33-11-65.5-24t-65.5-30q-66-33-69-41a41.77 41.77 0 0 1 -1-7v-3l67-212q2-11 15-11l10 3q53 34 134 53 79 21 152 21 186 0 186-132 0-62-75.5-95t-218.5-33q-21 0-47.5 1t-59.5 4q-33 3-54.5 5.5t-30.5 4.5q-20 0-20-19l61-697q1-16 18-16h689q18 0 18 18v217q0 17-18 17zm-684-341v1457q0 7 7 7h1457q8 0 8-7v-1457q0-8-8-8h-1457q-7 0-7 8zm-186-304h1843a107 107 0 0 1 43.5 9 115 115 0 0 1 35.5 24 116.81 116.81 0 0 1 24 35 103.56 103.56 0 0 1 9 43v1843a103.56 103.56 0 0 1 -9 43 116.81 116.81 0 0 1 -24 35 115 115 0 0 1 -35.5 24 107 107 0 0 1 -43.5 9h-1843a103.56 103.56 0 0 1 -43-9 115.77 115.77 0 0 1 -59-59 103.56 103.56 0 0 1 -9-43v-1843a103.56 103.56 0 0 1 9-43 115.77 115.77 0 0 1 59-59 103.56 103.56 0 0 1 43-9z"/></svg>