<svg viewBox="0 0 2066 2065" xmlns="http://www.w3.org/2000/svg"><path d="m1283 1009q88 46 135 121t49 170q1 78-34.5 146t-96.5 117.5q-61 49.5-142 77.5t-171 27a458.34 458.34 0 0 1 -121.5-16 692.44 692.44 0 0 1 -110-40 734.42 734.42 0 0 1 -94-52q-42.5-28-72.5-54t-47-45.5q-17-19.5-17-26.5l3-11 113-165q4-7 13-7l13 4a706.29 706.29 0 0 0 66 49 539.09 539.09 0 0 0 75 41q79 36 141 36 58 0 101-41 43-43 43-95 0-22-13-44t-37-41.5q-24-19.5-57-35.5a435.5 435.5 0 0 0 -72-27q-14-1-14-16v-145q0-15 14-16 85-28 137.5-72t52.5-94q0-52-40-92-38-38-89-38-97 0-230 103l-13 4-13-7-113-166-3-9 3-11q45-65 168-116 61-26 119.5-37.5a730.31 730.31 0 0 1 115.5-13.5 368.35 368.35 0 0 1 151 28q73 30 129.5 80.5t90 114.5q33.5 64 32.5 131a321.28 321.28 0 0 1 -42 152q-40 71-123 132zm528-776 152-153-9-2h-1843a32.45 32.45 0 0 0 -33 33v1843q0 12 10 23l153-156q-25-25-25-60v-1457a83.85 83.85 0 0 1 7-34 96.88 96.88 0 0 1 19-28.5 86.53 86.53 0 0 1 28-19.5 83.85 83.85 0 0 1 34-7h1457q27 0 50 18zm-1514 71v1457q0 7 7 7h1457q8 0 8-7v-1457q0-8-8-8h-1457q-7 0-7 8zm-186-304h1843a107 107 0 0 1 43.5 9 115 115 0 0 1 35.5 24 116.81 116.81 0 0 1 24 35 103.56 103.56 0 0 1 9 43v1843a103.56 103.56 0 0 1 -9 43 116.81 116.81 0 0 1 -24 35 115 115 0 0 1 -35.5 24 107 107 0 0 1 -43.5 9h-1843a103.56 103.56 0 0 1 -43-9 115.77 115.77 0 0 1 -59-59 103.56 103.56 0 0 1 -9-43v-1843a103.56 103.56 0 0 1 9-43 115.77 115.77 0 0 1 59-59 103.56 103.56 0 0 1 43-9z"/></svg>