<svg viewBox="0 0 2066 2066" xmlns="http://www.w3.org/2000/svg"><path d="m1203 1256q0-39-14.5-72a178.43 178.43 0 0 0 -40-57.5q-25.5-24.49-60.5-38t-77-13.5q-42 0-77 13.5t-60.5 38a172 172 0 0 0 -39.5 57.5q-14 33-14 72t14 72a172 172 0 0 0 39.5 57.5q25.5 24.49 60.5 38t77 13.5q42 0 77-13.5t60.5-38a178.43 178.43 0 0 0 40-57.5q14.5-33 14.5-72zm-192-427q212 0 349 121 138 120 138 306 0 187-138 308-138 120-349 120-233 0-364-137t-131-380q0-181 70-345 35-84 80.5-154a1045.58 1045.58 0 0 1 99.5-130q108-119 199-171l39-23 7-2q9 0 14 6l163 165 4 11q0 10-7 15-183 133-278 298 25-4 50.5-6t53.5-2zm800-596 152-152-9-3h-1843a32.45 32.45 0 0 0 -33 33v1843q0 12 10 23l153-156q-25-25-25-60v-1457a83.85 83.85 0 0 1 7-34 90 90 0 0 1 47-47 83.85 83.85 0 0 1 34-7h1457q30 0 50 17zm-1514 71v1457q0 7 7 7h1457q8 0 8-7v-1457q0-7-8-7h-1457q-7 0-7 7zm-186-304h1843a107 107 0 0 1 43.5 9 112.91 112.91 0 0 1 59.5 59.5 104.66 104.66 0 0 1 9 42.5v1843a107 107 0 0 1 -9 43.5 112.91 112.91 0 0 1 -59.5 59.5 107 107 0 0 1 -43.5 9h-1843a103.56 103.56 0 0 1 -43-9 116.81 116.81 0 0 1 -35-24 115 115 0 0 1 -24-35.5 107 107 0 0 1 -9-43.5v-1843a104.66 104.66 0 0 1 9-42.5 115 115 0 0 1 24-35.5 116.81 116.81 0 0 1 35-24 103.56 103.56 0 0 1 43-9z"/></svg>