<svg viewBox="0 0 2066 2065" xmlns="http://www.w3.org/2000/svg"><path d="m1018 1108q-39 0-72 13a183.49 183.49 0 0 0 -57.5 35.5 155.6 155.6 0 0 0 -38 54 169.53 169.53 0 0 0 -13.5 67.5q0 37 13.5 68.5a155.6 155.6 0 0 0 38 54 183.49 183.49 0 0 0 57.5 35.5q33 13 72 13t72-13q33-13 57-36a158.11 158.11 0 0 0 37-54.5 175.12 175.12 0 0 0 13-67.5 168.88 168.88 0 0 0 -13-66 159.26 159.26 0 0 0 -37-54q-24-23-57-36.5t-72-13.5zm-12-231q37 0 69-10.5t55-30a136.07 136.07 0 0 0 36-48q13-28.5 13-64.5 0-33-12-61a140 140 0 0 0 -33.5-48 158.52 158.52 0 0 0 -51-31.5q-29.5-11.5-64.5-11.5t-65 11.5a163.42 163.42 0 0 0 -52 31.5 136.81 136.81 0 0 0 -34 48q-12 28-12 61 0 67 45 109 46 44 106 44zm320 96q150 117 150 305 0 177-130 290-128 112-328 112-198 0-328-112-132-112-132-290 0-188 152-305-105-100-105-249 0-156 116-259 117-102 297-102t297 102q116 103 116 259 0 147-105 249zm485-740 152-153-9-2h-1843a32.45 32.45 0 0 0 -33 33v1843q0 12 10 22l153-155q-25-25-25-60v-1457q0-37 26-62.5t62-25.5h1457q30 0 50 17zm-1514 71v1457q0 7 7 7h1457q8 0 8-7v-1457q0-7-8-7h-1457q-7 0-7 7zm-186-304h1843a107 107 0 0 1 43.5 9 115 115 0 0 1 35.5 24 116.81 116.81 0 0 1 24 35 103.56 103.56 0 0 1 9 43v1843a103.56 103.56 0 0 1 -9 43 116.81 116.81 0 0 1 -24 35 115 115 0 0 1 -35.5 24 107 107 0 0 1 -43.5 9h-1843a103.56 103.56 0 0 1 -43-9 115.77 115.77 0 0 1 -59-59 103.56 103.56 0 0 1 -9-43v-1843a103.56 103.56 0 0 1 9-43 115.77 115.77 0 0 1 59-59 103.56 103.56 0 0 1 43-9z"/></svg>