<svg viewBox="0 0 2066 2065" xmlns="http://www.w3.org/2000/svg"><path d="m1181 1378h94q18 0 18 18v228q0 18-18 18h-484q-18 0-18-18v-228q0-18 18-18h93v-666l-120 35-5 2q-19 0-19-20v-239q0-15 14-18l406-86q21 0 21 17zm630-1145 152-153-9-2h-1843a32.45 32.45 0 0 0 -33 33v1843q0 12 10 22l153-155q-25-25-25-60v-1457q0-37 26-62.5t62-25.5h1457q30 0 50 17zm-1514 71v1457q0 7 7 7h1457q8 0 8-7v-1457q0-7-8-7h-1457q-7 0-7 7zm-186-304h1843a107 107 0 0 1 43.5 9 115 115 0 0 1 35.5 24 116.81 116.81 0 0 1 24 35 103.56 103.56 0 0 1 9 43v1843a103.56 103.56 0 0 1 -9 43 116.81 116.81 0 0 1 -24 35 115 115 0 0 1 -35.5 24 107 107 0 0 1 -43.5 9h-1843a103.56 103.56 0 0 1 -43-9 115.77 115.77 0 0 1 -59-59 103.56 103.56 0 0 1 -9-43v-1843a103.56 103.56 0 0 1 9-43 115.77 115.77 0 0 1 59-59 103.56 103.56 0 0 1 43-9z"/></svg>