<svg viewBox="0 0 2066 2066" xmlns="http://www.w3.org/2000/svg"><path d="m1019 1348q48 0 87-24t66-67.5q27-43.5 42-105.5t15-139q0-76-14.5-136t-43.5-107q-56-93-152-93-97 0-152 93-27 47-41.5 107.5t-14.5 135.5q0 76 15 138t42 106q27 44 65.5 68t85.5 24zm0-973q241 0 386 172 145 173 145 465t-145 464q-146 173-386 173-241 0-385-174-144-172-144-463 0-290 144-463 144-174 385-174zm792-142 152-152-9-3h-1843a32.45 32.45 0 0 0 -33 33v1843q0 13 10 23l153-156q-25-25-25-60v-1457a83.85 83.85 0 0 1 7-34 90 90 0 0 1 47-47 83.85 83.85 0 0 1 34-7h1457q27 0 50 17zm-1514 71v1457q0 8 7 8h1457q8 0 8-8v-1457q0-7-8-7h-1457q-7 0-7 7zm-186-304h1843a107 107 0 0 1 43.5 9 112.91 112.91 0 0 1 59.5 59.5 104.66 104.66 0 0 1 9 42.5v1843a107 107 0 0 1 -9 43.5 112.91 112.91 0 0 1 -59.5 59.5 107 107 0 0 1 -43.5 9h-1843a103.56 103.56 0 0 1 -43-9 116.81 116.81 0 0 1 -35-24 115 115 0 0 1 -24-35.5 107 107 0 0 1 -9-43.5v-1843a104.66 104.66 0 0 1 9-42.5 115 115 0 0 1 24-35.5 116.81 116.81 0 0 1 35-24 103.56 103.56 0 0 1 43-9z"/></svg>