<svg viewBox="0 0 2066 2066" xmlns="http://www.w3.org/2000/svg"><path d="m1017 903-191 293h191zm298 293h208q18 0 18 16v214q0 17-18 17h-208v214q0 16-18 16h-264q-16 0-16-16v-214h-487q-18 0-18-17v-214l3-8 504-778v-2q0-7 14-7h264q5 0 15 10l3 8zm496-962 152-153-9-3h-1843a30.43 30.43 0 0 0 -23.5 10.5q-9.5 10.5-9.5 23.5v1843q0 12 10 23l153-156q-25-25-25-60v-1457a83.85 83.85 0 0 1 7-34 96.88 96.88 0 0 1 19-28.5 86.53 86.53 0 0 1 28-19.5 83.85 83.85 0 0 1 34-7h1457q27 0 50 18zm-1507 1535h1457q8 0 8-7v-1457q0-8-8-8h-1457q-7 0-7 8v1457q2 7 7 7zm-193-1769h1843a107 107 0 0 1 43.5 9 112.91 112.91 0 0 1 59.5 59.5 107 107 0 0 1 9 43.5v1843a103.56 103.56 0 0 1 -9 43 116.81 116.81 0 0 1 -24 35 115 115 0 0 1 -35.5 24 107 107 0 0 1 -43.5 9h-1843a103.56 103.56 0 0 1 -43-9 115.77 115.77 0 0 1 -59-59 103.56 103.56 0 0 1 -9-43v-1843a107 107 0 0 1 9-43.5 115 115 0 0 1 24-35.5 116.81 116.81 0 0 1 35-24 103.56 103.56 0 0 1 43-9z"/></svg>