<svg viewBox="0 0 2066 2065" xmlns="http://www.w3.org/2000/svg"><path d="m997 1325h440q17 0 17 17v226a19.36 19.36 0 0 1 -5 13.5 15.64 15.64 0 0 1 -12 5.5h-767a15.64 15.64 0 0 1 -12-5.5 19.36 19.36 0 0 1 -5-13.5v-235q0-12 9-17 209-124 327-245 119-119 119-216a129.37 129.37 0 0 0 -10.5-51.5 136 136 0 0 0 -29-43 147 147 0 0 0 -44-30 131 131 0 0 0 -54.5-11.5q-105 0-250 124l-15 4a18.26 18.26 0 0 1 -13-8q-113-185-113-189 0-9 5-14 3-6 21-22.5t50-42.5a771.79 771.79 0 0 1 65-48q32-21 63-38a743.77 743.77 0 0 1 127.5-53.5q65.5-20.5 130.5-20.5a384.91 384.91 0 0 1 141 26.5q68 26.5 131 81.5 126 108 126 265a378.62 378.62 0 0 1 -23.5 132.5 422.61 422.61 0 0 1 -65.5 116.5q-20 26-56 60.5t-89 79.5q-102 87-208 152zm814-1092 152-153-9-2h-1843a32.45 32.45 0 0 0 -33 33v1843q0 13 10 23l153-154q-25-28-25-62v-1457a83.85 83.85 0 0 1 7-34 90 90 0 0 1 47-47 83.85 83.85 0 0 1 34-7h1457q30 0 50 17zm-1514 71v1457q0 7 7 7h1457q8 0 8-7v-1457q0-7-8-7h-1457q-7 0-7 7zm-186-304h1843a107 107 0 0 1 43.5 9 115 115 0 0 1 35.5 24 116.81 116.81 0 0 1 24 35 103.56 103.56 0 0 1 9 43v1843a103.56 103.56 0 0 1 -9 43 116.81 116.81 0 0 1 -24 35 115 115 0 0 1 -35.5 24 107 107 0 0 1 -43.5 9h-1843a103.56 103.56 0 0 1 -43-9 115.77 115.77 0 0 1 -59-59 103.56 103.56 0 0 1 -9-43v-1843a103.56 103.56 0 0 1 9-43 115.77 115.77 0 0 1 59-59 103.56 103.56 0 0 1 43-9z"/></svg>