<svg viewBox="0 0 2062 1366" xmlns="http://www.w3.org/2000/svg"><path d="m1778 961q68 0 118-48 49-51 49-118 0-68-49-117-50-50-118-50a114.59 114.59 0 0 1 -48-10 121.53 121.53 0 0 1 -37.5-26 114.38 114.38 0 0 1 -24-37 116.12 116.12 0 0 1 -8.5-44q0-35-12.5-63.5t-36.5-53.5a185.36 185.36 0 0 0 -53-37.5q-29-13.5-63-11.5l-55 4q-36 3-65.5-17.5a120.91 120.91 0 0 1 -43.5-54.5 256.13 256.13 0 0 0 -39.5-65.5 265.13 265.13 0 0 0 -55.5-50.5 247.93 247.93 0 0 0 -67-32 255.33 255.33 0 0 0 -75-11q-122 0-200 96-36 45-91 45-26 0-54-14-48-23-94-23-76 0-137 52-59 50-67 134-5 45-36 74.5t-76 32.5q-95 6-158 72-64 69-64 160 0 99 69 166 68 68 165 68h14l12-1q89 0 120 67a360.35 360.35 0 0 0 131 147 348.15 348.15 0 0 0 187 54q126 0 223-79 30-26 74-26a118.88 118.88 0 0 1 71 23q69 52 152 52a234.24 234.24 0 0 0 79-13.5 262.72 262.72 0 0 0 127-96.5 251.7 251.7 0 0 0 36-75q11-37 42-61.5t71-24.5a135 135 0 0 1 43 7 141.32 141.32 0 0 0 45 7zm284-166q0 117-83 200t-201 83q-50 0-88-13-35 121-134 195-100 76-221 76-126 0-223-76-133 106-297 106a477.88 477.88 0 0 1 -129.5-17.5q-62.5-17.5-120.5-54.5-115-70-174-196l-19 1h-21q-146 0-249-103-102-102-102-249 0-142 97-242 97-102 236-108 10-121 103-206 91-87 219-87 77 0 148 37 112-141 291-141 114 0 209 65 94 62 137 167l55-5q58-4 107.5 19t91.5 65q84 83 84 200 118 0 201 83t83 201z"/></svg>