<svg viewBox="0 0 1972 1317" xmlns="http://www.w3.org/2000/svg"><path d="m985 1053q119 0 187.5-72t68.5-203q0-254-254-388-256 133-256 387 0 63 18 114t51 87q33 36 80 55.5t105 19.5zm2-952a1481.92 1481.92 0 0 1 269.5-76q137.5-25 285.5-25 224 0 430 56v276l-33-11q-33-11-77-20t-100-18a1342.14 1342.14 0 0 0 -221-18q-65 0-126.5 5.5t-120.5 16.5q211 196 211 490 0 240-143 391-143 149-374 149-234 0-376-148-144-148-144-392 0-290 210-490-59-11-120.5-16.5t-126.5-5.5a1391.15 1391.15 0 0 0 -221 18q-56 8-99.5 18t-75.5 20l-35 11v-276q206-56 430-56 293 0 557 101z"/></svg>