<svg viewBox="0 0 2171.17 2021" xmlns="http://www.w3.org/2000/svg"><path d="m759.17 1106a32.6 32.6 0 0 0 8.5 22.5q8.51 9.49 24.5 9.5a57.73 57.73 0 0 0 26-6.5 84.71 84.71 0 0 0 23.5-17.5 92 92 0 0 0 17-25 70.4 70.4 0 0 0 6.5-30q0-38-39-38a46 46 0 0 0 -26 8 81.65 81.65 0 0 0 -21 20.5 114 114 0 0 0 -14.5 27.5 84 84 0 0 0 -5.5 29zm-30-62q0-20-14.5-28.5a59.38 59.38 0 0 0 -30.5-8.5q-24 0-47 29-22 28-22 53 0 40 45 40 28 0 48-33a261.62 261.62 0 0 0 15.5-30q5.51-13 5.5-22zm1379-115q0 34-44 66 76 129 76 179 0 48-46 48-33 0-86-36.5t-115-101.5q-89 38-192 70.5t-223 60.5q158 455 158 628 0 178-137 178-128 0-298-197-171-198-325-527l-171 6q-160 5-291-14.5t-224-56.5q-93-37-143-87t-47-106q2-36 23.5-71t59.5-65a400.08 400.08 0 0 1 44-28.5q24-13.5 52-27.5 55-27 65-27 14 97 111 180 99 84 141 84 18 0 48-32 30-30 30-46a35.83 35.83 0 0 0 -8.5-24q-8.5-10-32.5-24a408.32 408.32 0 0 1 -65-46 345.36 345.36 0 0 1 -53-57.5 328.16 328.16 0 0 1 -38-67.5 264.08 264.08 0 0 1 -19-75q124-77 295-77-9-54-13-106t-4-105q0-96 15.5-172.5t47.5-134.5q63-117 168-117 47 0 101 44t111 132q57 88 116.5 220t117.5 309q144 26 277.5 52.5t258.5 53.5q11-12 31-31.5t50-47.5q60-55 105.5-77.5t83.5-22.5q52 0 52 44 0 26-23.5 75.5t-69.5 124.5q30 27 30 53z"/></svg>