<svg viewBox="0 0 2216 2216" xmlns="http://www.w3.org/2000/svg"><path d="m2216 1108a25.62 25.62 0 0 1 -26 26q-466 0-793 94 85 152 208.5 308t285.5 320q8 6 8 18 0 8-7 16.5t-19 8.5a19.91 19.91 0 0 1 -9-2q-4-2-9-5-321-325-628-494-93 336-93 792a25.62 25.62 0 0 1 -26 26q-26 0-26-26 0-465-94-792-301 167-628 494-7 7-18 7-25 0-25-25 0-11 7-18 327-327 494-628-327-94-792-94a25.14 25.14 0 0 1 -18.5-7.5 26.57 26.57 0 0 1 0-37 25.14 25.14 0 0 1 18.5-7.5q465 0 792-94-84-152-206.5-308t-287.5-319q-7-7-7-18 0-26 25-26 6 0 18 7 168 166 324 289.5t304 204.5q94-327 94-792a25.14 25.14 0 0 1 7.5-18.5 26.57 26.57 0 0 1 37 0 25.14 25.14 0 0 1 7.5 18.5q0 456 93 792 301-167 628-494 5-3 9-5a19.91 19.91 0 0 1 9-2 25.62 25.62 0 0 1 26 26q0 10-8 18-322 322-494 627 327 94 793 94a25.62 25.62 0 0 1 26 26z"/></svg>