<svg viewBox="0 0 1856 2054.05" xmlns="http://www.w3.org/2000/svg"><path d="m447 1436.05q62 0 107-45t45-108q0-62-45-107t-107-45q-63 0-108 45t-45 107q0 63 45 108t108 45zm1245 300 164 243q-57 38-118.5 56.5t-130.5 18.5q-100 0-181-36t-144-109q-125-144-125-369a1262.85 1262.85 0 0 1 7.5-135.5q7.5-69.51 21-139t32.5-137.5q19-68 43-130 23-61 40-112.5t27.5-97a815.18 815.18 0 0 0 15.5-88 732 732 0 0 0 5-85.5q0-76-23-135.5t-65-100.5q-42-41-101.5-63t-132.5-22q-133 0-227 96t-94 225q0 141 76 275 111 195 111 393 0 186-131 317-130 130-315 130-189 0-319-133-128-131.05-128-314 0-186 131-315 134-131 313-131-32-120-32-223 0-166 83-307 42-72 98-128t128-97q72-42 148.5-61.5a668.44 668.44 0 0 1 157.5-20.5q88-1 168.5 19.5t149.5 59a563.2 563.2 0 0 1 124.5 94 576 576 0 0 1 94.5 124.5q39 69 59.5 149.5t19.5 168.5q-2 107-28 229.5t-80 261.5q-43 109-63.5 216a1129.42 1129.42 0 0 0 -20.5 213q0 106 41.5 165.5t114.5 59.5a159.14 159.14 0 0 0 85-24z"/></svg>