<svg viewBox="0 0 1982.1 1740" xmlns="http://www.w3.org/2000/svg"><path d="m462.1 881q69 0 117-48 49-51 49-119 0-67-49-118-51-49-117-49-68 0-119 49-48 50-48 118 0 71 48 119t119 48zm0 294a430.49 430.49 0 0 1 -176.5-37.5q-84.49-37.5-148.5-100.5a478.77 478.77 0 0 1 -101.5-146.5q-37.5-83.5-35.5-176.5 2-100 33.5-189.5t96.5-170.5q129-161 364-258a1223.56 1223.56 0 0 1 242-72.5q124.01-23.5 256-23.5 421 0 847 189l-132 264q-102-44-195-74.5a1711.1 1711.1 0 0 0 -181-49 1619.19 1619.19 0 0 0 -339-35.5 1039.33 1039.33 0 0 0 -274 37q94 62 148 162t56 221a420.29 420.29 0 0 1 -36 176q-37 84-100.5 147.5t-147.5 100.5a431.92 431.92 0 0 1 -176 37zm1059-316q-70 0-119 49-48 50-48 118 0 71 48 119t119 48q68 0 118-48 49-49 49-119 0-69-49-118t-118-49zm461 167q0 200-128 361-66 81-156.5 146t-209.5 113q-234 94-496 94-421 0-847-189l130-264q373 159 717 159 135 0 273-37-95-63-149-162.5t-56-220.5a410.68 410.68 0 0 1 16-121 460.17 460.17 0 0 1 48-110.5 492.43 492.43 0 0 1 74-94.5 470.29 470.29 0 0 1 95-73.5 459 459 0 0 1 109.5-46.5 414.12 414.12 0 0 1 118.5-15q96 2 176.5 34.5t149.5 100.5q135 137 135 326z"/></svg>