<svg viewBox="0 0 2080 2081" xmlns="http://www.w3.org/2000/svg"><path d="m1292 430h247q23 0 26 24l93 1107q1 9-7 17a26 26 0 0 1 -19 8h-230q-24 0-26-24l-47-470-178 476q-6 18-24 18h-172q-19 0-25-18l-179-476-45 470q-3 24-26 24h-232q-28 0-26-29l93-1103q3-24 26-24h247q20 0 24 17l229 742 227-742q6-17 24-17zm-251 1551q254 0 470-126 110-63 195.5-149.5t148.5-195.5q63-109 94.5-226t31.5-244q0-251-128-471-63-109-148.5-194.5t-194.5-148.5q-218-126-469-126-253 0-472 127-218 126-344 344-125 218-125 469 0 127 31 244.5t94 227.5q126 218 345 343 219 126 471 126zm0-1981q278 0 520 140 241 139 380 379 139 239 139 521 0 280-139 522-137 238-379 379-241 140-521 140-276 0-515-136-238-134-383-377-143-244-143-528 0-143 35.5-275t107.5-253q145-243 385-376 242-136 513-136z"/></svg>