<svg viewBox="0 0 1094 1838" xmlns="http://www.w3.org/2000/svg"><path d="m370 1116v47h228v-31q0-73 28-123 29-50 146-146 60-49 100-85.5t60-62.5q42-53 62-111.5t20-141.5q0-89-31-160a318.28 318.28 0 0 0 -91.5-120.5q-60.5-49.5-149-76t-203.5-26.5q-203 0-436 122l86 189q216-103 346-103 103 0 162 50.5t59 141.5q0 85-35 143-17 30-56 68t-101 87q-57 45-95 85.5t-58 79.5q-41 79-41 174zm308 16v110h-387v-126q0-114 47-205 25-47 69-95t109-101q100-80 122-109t31-59q9-30 9-68 0-50-34-82.5t-109-31.5a358.77 358.77 0 0 0 -75.5 8.5 772.92 772.92 0 0 0 -81.5 22.5q-42 15-98 39.5t-128 59.5l-152-326q299-169 539-169 257 0 405 124 75 63 112.5 146t37.5 192q0 137-59 238-29 51-82.5 106.5t-132.5 117.5q-49 39-79 68t-41 46q-12 17-17 41a260.6 260.6 0 0 0 -5 53zm-180 310q-166 0-166 158 0 44 12.5 74.5t34.5 49.5q22 19 52 27.5t65 8.5q81 0 123-42.5t42-117.5q0-158-163-158zm0 396q-115 0-180.5-61.5t-65.5-176.5q0-115 66-175.5t178-60.5q116 0 180.5 62t64.5 174q0 54-16.5 98t-48 75q-31.5 31-76.5 48t-102 17z"/></svg>