<svg viewBox="0 0 1938.23 1843.05" xmlns="http://www.w3.org/2000/svg"><path d="m1386.18.05a546.24 546.24 0 0 1 146.5 17.5 554.61 554.61 0 0 1 132.5 53.5 528 528 0 0 1 112.5 85 554.09 554.09 0 0 1 87 111.5q36.51 61.5 55.5 134t18 151.5q0 76-27 164-27 86-70 140l-212-174q17-26 26.5-65.5t9.5-68.5q0-57-20.5-104.5t-61.5-88.5q-41-40-89.5-60.5t-107.5-20.5q-117 0-199 82-80 83-80 196v1290h-275v-1290q0-115-83-196-82-82-195-82-115 0-197 79-82 81-82 195a279.49 279.49 0 0 0 3 40.5 261.79 261.79 0 0 0 8.5 38.5q5.51 18 11.5 32.5t12 22.5l-213 174q-43-52-70-139a510.51 510.51 0 0 1 -20-84 676.26 676.26 0 0 1 -7-81 474.66 474.66 0 0 1 18-144 553.21 553.21 0 0 1 57-132 571.57 571.57 0 0 1 89-113.5 579 579 0 0 1 114-88 562.83 562.83 0 0 1 132.5-56.5 498.11 498.11 0 0 1 143.5-19q125 2 231.5 52a571.24 571.24 0 0 1 184.5 137q77-87 184-137t232-52z"/></svg>