<svg viewBox="0 0 1876 1853" xmlns="http://www.w3.org/2000/svg"><path d="m664 1287-490 49a2935.89 2935.89 0 0 1 74-305q46-154 112-316a4168.12 4168.12 0 0 1 315-617h5zm1085 0h-951q106-234 106-588 0-390-181-694v-5q178 41 322 101.5t256 140.5q112 80 196 181.5t140 229.5q56 128 84 285.5t28 348.5zm-1691 138h1722q47 0 71.5 23t24.5 84q0 33-5.5 76t-16.5 98q-21 110-40 147h-1469a955.34 955.34 0 0 1 -92.5-68q-44.5-37-86.5-78l-40-38q-27-26-50-52.5a602.91 602.91 0 0 1 -40-51q-17-24.5-26.5-46.5t-9.5-39a61.26 61.26 0 0 1 3-18.5 48.63 48.63 0 0 1 10-17.5 58.18 58.18 0 0 1 18-13.5q11-5.5 27-5.5z"/></svg>