<svg viewBox="0 0 1912 2169" xmlns="http://www.w3.org/2000/svg"><path d="m1648 1736q0-82-78-150-79-70-164-70-31 0-57 11.5a135.32 135.32 0 0 0 -45 32q-19 20.51-29.5 49.5t-10.5 64q0 100 55 174 53 75 135 75 68 0 124-31 15-8 28-24a155.18 155.18 0 0 0 22-37 260.07 260.07 0 0 0 14.5-45.5 220.67 220.67 0 0 0 5.5-48.5zm-747-770q-20 0-32.5 12t-12.5 33a57 57 0 0 0 12.5 36q12.5 16 32.5 16 26 0 38.5-15.5t12.5-32.5a48.91 48.91 0 0 0 -13.5-34.5q-13.5-14.5-37.5-14.5zm-373 707q-1-35-11.5-64t-29.5-49.5a136.73 136.73 0 0 0 -44.5-32q-25.5-11.5-56.5-11.5-97 0-165 71-68 73-68 167 0 73 42 116.5t115 45.5q49 1 89.5-20.5a228.42 228.42 0 0 0 69.5-56.5 257.42 257.42 0 0 0 44.5-78.5 242.44 242.44 0 0 0 14.5-87.5zm1384 362q0 29-10 53.5a136.23 136.23 0 0 1 -27 42.5 123.57 123.57 0 0 1 -39 28 112.19 112.19 0 0 1 -47 10q-59 0-95-14t-53-40q-16-27-31.5-42.5t-33-23.5a117.75 117.75 0 0 0 -37.5-10q-20-2-45-2l-58 2q-63 2-116-27.5t-97-84.5q-44-56-68.5-128.5t-17.5-162.5l9-134q2-28-4.5-50a112 112 0 0 0 -22-40.5q-15.49-18.49-40.5-34a588.58 588.58 0 0 0 -59-31.5 217.41 217.41 0 0 1 -46-26q-11-7-30-23t-48-39l-67 54q-14 12-85 47-51 24-77 59.5t-23 83.5l10 134q7 94-21 168.5t-76 131.5q-99 114-263 114-71 0-126-21t-92.5-59q-37.5-38-56.5-92.5t-19-121.5a339.85 339.85 0 0 1 39-159 374.88 374.88 0 0 1 47.5-70q27.5-32 66-59t89-50.5q50.5-23.5 116.5-43.5 26-8 47.5-15t38.5-30a248.7 248.7 0 0 0 16.5-25 143.28 143.28 0 0 0 12.5-29q22-70 78-115 32-25 56.5-46t39.5-37q16-17 34-38.5t38-49.5q-57-118-106-241.5t-91-257.5q-41-133-61.5-226.5t-20.5-150.5q0-47 8.5-80t20.5-33q13 0 51 78l9 21q135 224 227 375t140 235l182-306 184-304 11-21q20-38 31-58t19-20q14 0 22 41 6 42 6 72 0 115-86 385-43 135-90.5 257t-102.5 234q30 41 57 70a673.62 673.62 0 0 0 50 49l62 52q56 48 78 115 7 25 19 43 13 20 24 28 13 10 71 28 125 37 196 87a433.41 433.41 0 0 1 64.5 56.5 375 375 0 0 1 50.5 67.5 338.49 338.49 0 0 1 32.5 75 281.29 281.29 0 0 1 11.5 80 512.89 512.89 0 0 1 -7 83.5 507 507 0 0 0 -7 82.5q0 14 7 24a53.57 53.57 0 0 0 17.5 16 88.26 88.26 0 0 0 22.5 9 94.83 94.83 0 0 0 23 3h9q26 0 42.5 21t16.5 56z"/></svg>