<svg viewBox="0 0 1630 1537" xmlns="http://www.w3.org/2000/svg"><path d="m1630 913q0 56-151 89-36 8-73 19.5a251.27 251.27 0 0 1 -75 11.5q-32 0-71-67a567.1 567.1 0 0 1 -33-64.5 533.8 533.8 0 0 1 -21-57.5 462.21 462.21 0 0 0 -25-59.5q-14-27.5-14-60.5 0-17 37.5-40.5t103.5-48.5q67-25 107.5-40.5t45.5-11.5q19 0 36 18 18 17 33 46 7 15 28.5 66t57.5 141q14 36 14 59zm-58 127q29 0 29 14 0 9-7 23l-48 92-38 63-21 38q-22 41-41.5 64.5t-45.5 28.5a777.8 777.8 0 0 1 -112 13.5q-55 2.51-113 9.5l-21 3q-53 6-52 38l1 38q2 36-6.5 54t-23.5 18q-16 0-36-17l-69-63q-36-32-67.5-60.5t-55-53q-23.5-24.49-37-45t-13.5-36.5q0-18 31-63t90-123l24-33q31-42 55-63.5t44-21.5q27 0 30 37 2 40 4 62.5t5 27.5q5 11 12.5 16t24.5 5a484.29 484.29 0 0 0 54.5-3q26.51-3 52.5-8l101-18 69-11q81-13 126-19.5t54-6.5zm-867 93q0 38-7.5 101.5t-24.5 151.5q-6 32-19.5 43.5t-43.5 11.5q-51 0-118.5-4.5t-153.5-9.5q-41-2-61.5-13t-20.5-35q0-45 12.5-93t31.5-104l14-39q29-87 69-87l249 26q36 4 54.5 16t18.5 35zm-520 179q-8 0-22-19l-34-48q-13-17-40-66t-69-128a203.23 203.23 0 0 1 -14.5-31.5 96.38 96.38 0 0 1 -5.5-32.5q0-33 20-73l73-152q8-17 14-29.5t6-23.5q0-13-15-22t-32.5-19a252.32 252.32 0 0 1 -32.5-22q-15-12-15-31 0-18 36.5-37.5t108.5-43.5l118-40a179.06 179.06 0 0 1 57-9 72.75 72.75 0 0 1 33 7.5q15 7.5 29 22.5t33.5 51q19.5 36 42.5 95 47 115 58 146 10 31 5 33 0 39-37 39-15 0-52-17-35-15-47-15-16 0-28.5 23t-33.5 78l-49 128q-46 118-69.5 177t-37.5 59zm643-1026q0 20-15 44t-41 56l-23 29q-38 46-59 76.5t-34 43.5a179.38 179.38 0 0 1 -23 18.5q-10 6.5-20 6.5l-12-3a568.88 568.88 0 0 1 -66.5-42q-34.5-25-75.5-55l-26-19q-34-25-52.5-44t-18.5-35a103 103 0 0 1 20-65l40-56 37-59q86-138 124-138 22 0 61.5 36t108.5 101l23 22q52 48 52 83zm-127-258q0-26 44-26h16l79-2h130q26 0 46.5 1t34.5 3q43 11 108 111 35 54 55.5 84.5t28.5 38.5q18 15 32 15 12 0 40-19a97.36 97.36 0 0 1 56-17q32 0 32 41 0 20-6.5 58.5t-17.5 95.5q-11 57-18.5 90.5t-9.5 46.5q-6 25-30 33.5a142.89 142.89 0 0 1 -48 8.5q-177 0-266.5-17t-89.5-46q0-16 14.5-29.5t31.5-27q17-13.5 31.5-27t14.5-28.5a42 42 0 0 0 -3.5-17q-3.5-8-13-20t-25-29q-15.5-17-39.5-43l-34-37-188-226q-5-5-5-16z"/></svg>