<svg viewBox="0 0 1798 2281" xmlns="http://www.w3.org/2000/svg"><path d="m930 1500h61a89.26 89.26 0 0 0 -16.5-52.5q-16.5-23.5-44.5-32.5zm-120 0h62v-85q-28 9-45 32t-17 53zm182 141v-81h-62v81zm-182-81v81h62v-81zm241-60v169q0 13-9 21.5a29.61 29.61 0 0 1 -21 8.5h-240a29.61 29.61 0 0 1 -21-8.5q-9-8.51-9-21.5v-169a146.38 146.38 0 0 1 11.5-58 149.24 149.24 0 0 1 32-47.5 156.31 156.31 0 0 1 47.5-32.5 141.17 141.17 0 0 1 58-12 144.65 144.65 0 0 1 58.5 12 154.63 154.63 0 0 1 48 32.5 156.31 156.31 0 0 1 32.5 47.5 141.17 141.17 0 0 1 12 58zm521 681v-554l-339-173v727zm-1347-554v554h340v-727zm675 205a148.22 148.22 0 0 1 59 12 151.3 151.3 0 0 1 48 32 154.51 154.51 0 0 1 32 47 141.17 141.17 0 0 1 12 58v200h82v-955h-468v955h86v-200a146.38 146.38 0 0 1 11.5-58 143.44 143.44 0 0 1 32-47 161.13 161.13 0 0 1 47.5-32 141.17 141.17 0 0 1 58-12zm898-275v101q0 21-15.5 36t-35.5 15h-9q-2-1-18.5-8.5t-46.5-23.5v554a47.48 47.48 0 0 1 -15 35.5q-15 14.51-35 14.5h-1449q-20 0-34.5-14.5t-14.5-35.5v-554l-52 26-24 6q-20 0-34.5-14.5t-14.5-36.5v-101q0-30 26-44l539-283v-53l4-22 255-556v-316h-153v-149h153v-134h149v134h153v149h-153v316l256 556 4 22v53l537 283q28 16 28 44z"/></svg>