<svg viewBox="0 0 2090 2091" xmlns="http://www.w3.org/2000/svg"><path d="m1075 1673q0 26-26 26-8 0-18-5.5t-30-5.5q-20 0-45 12l-12 4q-25 0-26-22-4-18-11-30.5a104.89 104.89 0 0 0 -14.5-20.5q-7.5-8-13.5-11.5a55.26 55.26 0 0 0 -9-4.5q-15-6-15-23a29.21 29.21 0 0 1 6.5-19q6.5-8 17.5-8l13 2q6 0 33 25 24 24 35 49a107.17 107.17 0 0 1 19.5-4 195.48 195.48 0 0 1 20.5-1q26 0 42.5 5.5t17.5 6.5q15 6 15 25zm-528-1014q0 26-30 26-53-8-88-46-38 27-87 27-34 0-34-26a24.37 24.37 0 0 1 8-18.5 26.84 26.84 0 0 1 19-7.5q51 0 78-33a26 26 0 0 1 19-8q17 0 23 14a90.34 90.34 0 0 0 31.5 33q20.5 13 37.5 13 23 2 23 26zm590 885a22.26 22.26 0 0 1 -8.5 18q-8.51 7-17.5 7a38.58 38.58 0 0 1 -19-5q-9-5-29-5-23 0-45 12l-13 5q-23 0-26-24-2-17-9-29a97.94 97.94 0 0 0 -15-20 73.67 73.67 0 0 0 -15-12q-7-4-9-6-15-7-15-22a27.89 27.89 0 0 1 7-19 22.85 22.85 0 0 1 18-8l12 3q5 0 14 5.5a105.21 105.21 0 0 1 19 15.5 210.09 210.09 0 0 1 20 23.5 120 120 0 0 1 16 29.5l41-6q26 0 41.5 5.5t18.5 5.5q14 8 14 26zm-620-600q0 12-9 19a31.78 31.78 0 0 1 -20 7 103.2 103.2 0 0 1 -12.5-1.5 96 96 0 0 1 -21.5-6.5 165.68 165.68 0 0 1 -26.5-14.5q-14.5-9.5-28.5-25.5-40 28-90 28-30 0-30-27a25.62 25.62 0 0 1 26-26l15 1q37 0 63-32 7-10 23-10 15 2 19 14 16 23 37 35.5t32 12.5q23 2 23 26zm-105 299q0 13-9 19t-17 6l-14-3q-45-30-63-78l-36 4q-27 0-44.5-6.5t-19.5-8.5q-15-7-15-23a24.37 24.37 0 0 1 8-18.5 26.84 26.84 0 0 1 19-7.5 25.71 25.71 0 0 1 10.5 2q4.5 2 9.5 4a112 112 0 0 0 12.5 4q7.5 2 19.5 2 21 0 43-11l11-1q21 0 27 22 2 18 8.5 30.5a103.69 103.69 0 0 0 13.5 20.5 88.77 88.77 0 0 0 13 12.5q6 4.5 9 6.5 14 11 14 24zm898-39-1 10q11 4 19.5 7a143 143 0 0 1 16.5 7 138.88 138.88 0 0 1 16.5 11.5 154.88 154.88 0 0 1 17 15.5 117.38 117.38 0 0 1 13 16.5q5.51 8.51 5.5 14.5 0 26-26 26-13 0-22-11 0-4-6-10a78.34 78.34 0 0 0 -16.5-12 138.67 138.67 0 0 0 -23.5-10.5 82 82 0 0 0 -27-4.5q-26-1-26-26l7-43q0-29-15-52l-3-11q0-11 8.5-19a27.66 27.66 0 0 1 19.5-8q13 0 22 11a206.69 206.69 0 0 1 16 42 153.45 153.45 0 0 1 5 37zm244-158-3 17q28 9 54 32 24 23 24 31l3 12q0 9-7.5 18t-18.5 9q-14 0-23-13-19-38-70-44-9 0-16-8t-7-17q0-11 6-25a68.38 68.38 0 0 0 6-27q0-25-7-34.5t-7-18.5a30.5 30.5 0 0 1 7.5-20q7.5-9 18.5-9 9 0 16 7a66.45 66.45 0 0 1 12.5 18.5 113.17 113.17 0 0 1 8.5 26 150.26 150.26 0 0 1 3 30.5zm-1022-245q0 26-30 26-53-8-88-46-36 27-87 27-33 0-33-26a26.84 26.84 0 0 1 7.5-19 24.37 24.37 0 0 1 18.5-8l10 1q20 0 36-8t32-25q6-8 18-8 16 0 24 12 10 20 31 34t38 14q23 3 23 26zm37-249q0 25-26 25l-11-1q-51-31-68-74-10 3-20 5a124.54 124.54 0 0 1 -24 2q-73 0-73-36a23.7 23.7 0 0 1 8.5-18.5q8.5-7.5 17.5-7.5a12.51 12.51 0 0 1 6.5 1.5 36.47 36.47 0 0 0 7 3 67.74 67.74 0 0 0 12 2.5 173.6 173.6 0 0 0 21.5 1q23 0 46-12l14-3q20 0 26 21 6 43 48 65 15 8 15 26zm629 864q0 11-7.5 17.5a24.66 24.66 0 0 1 -16.5 6.5 48.38 48.38 0 0 1 -20-4.5q-10-4.5-30-4.5-23 0-45 12l-12 3q-21 0-27-22-8-44-47-67-15-6-15-22 0-13 8.5-20.5t17.5-7.5l11 2q3 0 12 5.5a105.21 105.21 0 0 1 19 15.5 224.52 224.52 0 0 1 20.5 24 119.94 119.94 0 0 1 16.5 30q13-3 23-5a102 102 0 0 1 20-2q72 0 72 39zm-719-300a26.84 26.84 0 0 1 -7.5 19 24.37 24.37 0 0 1 -18.5 8q-4 0-13.5-5.5a125.87 125.87 0 0 1 -21-16 212.73 212.73 0 0 1 -23-25 142.37 142.37 0 0 1 -19.5-33.5l-31 4q-24 0-54-10-28-10-28-29a27.32 27.32 0 0 1 27-27q9 0 19.5 6t33.5 6a107.2 107.2 0 0 0 21-2 79.6 79.6 0 0 0 20-7l11-3a26.08 26.08 0 0 1 18.5 7q7.5 7 7.5 16 1 43 45 69 13 7 13 23zm714 161-2 18q53 12 84 55l4 15q0 11-8.5 19t-17.5 8q-10 0-22-12-2-2-7-8a65.11 65.11 0 0 0 -14-12 134 134 0 0 0 -22-11.5q-13-5.51-31-5.5a24.37 24.37 0 0 1 -18.5-8 26.84 26.84 0 0 1 -7.5-19l8-43q0-15-2.5-24a75.54 75.54 0 0 0 -6-15.5q-3.49-6.49-6-11a21.24 21.24 0 0 1 -2.5-10.5 31.27 31.27 0 0 1 6.5-19.5 20.88 20.88 0 0 1 17.5-8.5q16 0 23 13c.67 0 2.33 2 5 6a105.11 105.11 0 0 1 8.5 16.5 157.75 157.75 0 0 1 8 25 112.07 112.07 0 0 1 2.5 32.5zm485-301-2 17a164.07 164.07 0 0 1 53 33q25 23 25 30l2 12q0 9-7.5 18t-18.5 9q-13 0-23-13-3-4-8-10.5a97 97 0 0 0 -13-13.5 79.69 79.69 0 0 0 -20.5-12.5 101.63 101.63 0 0 0 -28.5-7.5q-23 0-23-25 0-12 6-25.5a64.93 64.93 0 0 0 6-26.5q0-24-6.5-33.5a35.63 35.63 0 0 1 -6.5-20.5 31.94 31.94 0 0 1 6.5-19 20.5 20.5 0 0 1 17.5-9q20 0 30.5 22.5t10.5 59.5zm226 9q0 9-7.5 17.5t-21.5 8.5q-10 0-17-10-31-29-69-29h-11q-26 0-26-26l3-30q0-25-9-39.5t-10-17.5a23.13 23.13 0 0 1 -7-17 24.37 24.37 0 0 1 8-18.5 26.84 26.84 0 0 1 19-7.5 25.65 25.65 0 0 1 20 9q32 43 32 95a158.53 158.53 0 0 1 35 9.5 182 182 0 0 1 28 14 107.79 107.79 0 0 1 19 14.5q7 7 7 9 3 5 5 9a19.91 19.91 0 0 1 2 9zm-888 756q26 0 26 26a27.32 27.32 0 0 1 -27 27q-46 0-74 36-7 10-23 10-15 0-21-13-10-15-21.5-23.5a118.86 118.86 0 0 0 -21.5-13 64.89 64.89 0 0 0 -17.5-5.5q-7.5-1-9.5-1-23-3-23-25 0-29 28-29 46 0 90 44 17-16 43-24.5a163.42 163.42 0 0 1 51-8.5zm412-628-1 21q48 13 78 49l6 7 5 15a25.62 25.62 0 0 1 -26 26q-15 0-24-11l-4.5-6-13.5-12.5q-13.5-12.49-22.5-12.5t-31.5-6q-26 0-26-27l7-41q0-25-13-50l-5-15a25.62 25.62 0 0 1 26-26q12 0 18 6 8 8 19 34 12 30 8 49zm-453 858 70 3q125 5 240.5-28.5t224.5-96.5q215-124 339-342 124-216 124-462 0-38-4-80t-12-87q-24-12-49-12l-37 6a27.32 27.32 0 0 1 -27-27q0-18-5-31a112.34 112.34 0 0 0 -11-22 65.11 65.11 0 0 0 -12-14q-6-5-8-7-11-9-11-22a25.62 25.62 0 0 1 26-26q18 0 41 30 24 33 29 59h14l37 4-32-101q-17 10-24 10-20 0-26-18-6-17-14.5-28.5a94.05 94.05 0 0 0 -17.5-18.5 75.63 75.63 0 0 0 -16-10c-4.67-2-7.33-3-8-3q-18-6-18-26a24.37 24.37 0 0 1 8-18.5 26.84 26.84 0 0 1 19-7.5q11 0 29.5 11.5t29.5 22.5q-26-54-41-73l-19-2-23 2a28.63 28.63 0 0 1 -19.5-7.5 23.7 23.7 0 0 1 -8.5-18.5q0-22 33-28l-51-66q-3 4-13 4a28.63 28.63 0 0 1 -19.5-7.5 23.7 23.7 0 0 1 -8.5-18.5q0-10 6-16-129-131-298.5-206t-366.5-75a806.61 806.61 0 0 0 -102 6.5q-51 6.5-102 17.5-6 16-24 16a23.13 23.13 0 0 1 -17-7l-56 18q7 7 7 20 0 10-7.5 18a24.37 24.37 0 0 1 -18.5 8 32.28 32.28 0 0 1 -15.5-3.5q-6.5-3.5-16.5-23.5l-64 29q12 36 45 52 14 6 14 24 0 26-26 26l-11-2q-50-29-68-74-17 7-46.5 27.5t-74.5 54.5l18 1a47 47 0 0 0 23.5-2 198.72 198.72 0 0 0 23.5-10l12-3q21 0 26 21 9 44 49 67 15 6 15 23a26.84 26.84 0 0 1 -7.5 19 24.37 24.37 0 0 1 -18.5 8q-20 0-45-27-26-28-36-49a193.14 193.14 0 0 1 -21 5 123.06 123.06 0 0 1 -22 2 129.42 129.42 0 0 1 -32.5-4 176.15 176.15 0 0 1 -30.5-11 973.9 973.9 0 0 0 -124.5 140 904.22 904.22 0 0 0 -154 344q-20.5 95-20.5 197a858.5 858.5 0 0 0 6.5 105.5q6.5 52.5 17.5 104.5l12-2q9 0 19 5.5t33 5.5q29 0 42-10l13-3q20 0 26 24 2 18 7.5 30a82.11 82.11 0 0 0 12.5 20 76.16 76.16 0 0 0 13.5 12.5 91.37 91.37 0 0 0 10.5 6.5q13 10 13 25a22.85 22.85 0 0 1 -8 18 26.6 26.6 0 0 1 -18 7l-12-3a110.46 110.46 0 0 1 -37.5-30.5q-15.5-19.5-26.5-47.5l-35 4q-23 0-50-10l23 73 12-3a26.08 26.08 0 0 1 18.5 7q7.5 7 7.5 16a81.28 81.28 0 0 0 20 48q18 22 26 22 12 6 12 22 0 28-28 28a904.8 904.8 0 0 0 125.5 165.5q71.5 74.5 162.5 134.5 180 120 398 147-27-22-60-21l-18 2q-11 1-18.5-8a30.5 30.5 0 0 1 -7.5-20q0-27 44-27 39 0 76 20a123.29 123.29 0 0 1 15.5-18.5 166.28 166.28 0 0 1 21.5-18 132.43 132.43 0 0 1 25-14 68.59 68.59 0 0 1 27-5.5 25.62 25.62 0 0 1 26 26q0 21-20 26-44 12-62 54zm70-1971q277 0 520 138t384 384q141 245 141 523 0 279-142 525-72 123-167 218.5t-216 164.5q-243 138-520 138t-521-139q-244-139-385-382-139-242-139-525 0-279 139-521 70-123 165.5-218t216.5-165q123-72 253-106.5t271-34.5z"/></svg>