<svg viewBox="0 0 2090 2091" xmlns="http://www.w3.org/2000/svg"><path d="m1702 1700q112-112 182-257t86-315a948.63 948.63 0 0 1 -104.5 92.5 801.71 801.71 0 0 1 -110.5 70.5q-6 88-37 182-15 48-34 86.5a509.44 509.44 0 0 1 -41 69.5q33 45 59 71zm-657 274q347 0 613-232-14-15-29.5-33.5t-30.5-39.5q-59 32-156 52-49 9-94.5 14a589.06 589.06 0 0 1 -90.5 3l-38-1q-139 114-304 164l33 67a750.33 750.33 0 0 0 97 6zm-721-1512q-187 229-205 528h20l20-1q1-38 15.5-83.5t42.5-100.5q55-107 97-143l-1-25v-27q0-39 3-76t8-72zm951-309 29 1a1026.44 1026.44 0 0 0 -128.5-27.5 894.85 894.85 0 0 0 -130.5-9.5h-8l-10 2q33 11 58.5 22t44.5 20q18-8 116-8zm566 416a877.25 877.25 0 0 0 -75-107 910.68 910.68 0 0 0 -89-94 150.18 150.18 0 0 1 20 28 303.19 303.19 0 0 1 17 36q16 38 16 57 28 17 55.5 36.5t55.5 43.5zm-423 297q0-38-1.5-80.5t-6.5-90.5l-48-26q-83-45-149.5-79t-116.5-60l-28-13a811 811 0 0 0 -209.5 81.5q-99.5 55.5-191.5 141.5 5 12 5 33l-5 251 5 126q195 128 420 167 20-28 39.5-52.5a437.8 437.8 0 0 1 40.5-44.5q78-75 152-126 36-25 57.5-38.5t28.5-16.5q5-48 6.5-90.5t1.5-82.5zm-555 989q91-26 170.5-66.5a840.37 840.37 0 0 0 149.5-97.5q-36-68-65-165-16-49-26-87t-14-64a1182.94 1182.94 0 0 1 -122.5-29 1177.18 1177.18 0 0 1 -119.5-42q-58-24-110.5-52a940.82 940.82 0 0 1 -95.5-58 198.51 198.51 0 0 1 -25 16l-26 14-178 89a888.11 888.11 0 0 0 25 161 977.78 977.78 0 0 0 55 159l22 15q48 33 136.5 86.5t223.5 120.5zm0-1720q-267 55-462 244-29 116-29 224v20l1 18a796.92 796.92 0 0 1 106 18l101 26 44 15q35-37 81-72.5a906.25 906.25 0 0 1 99.5-66.5 953.48 953.48 0 0 1 114-56 1015.13 1015.13 0 0 1 123.5-42l-2-24v-23q0-25 2-54t7-61q10-69 26-100a783.57 783.57 0 0 0 -212-66zm-698 913-48 1q0 337 219 596l78-17a950.22 950.22 0 0 1 -50.5-152.5 810.36 810.36 0 0 1 -21.5-158.5q-53-36-101-103.5t-76-165.5zm1587 177a924.66 924.66 0 0 0 119.5-87 1000.88 1000.88 0 0 0 101.5-101 854.34 854.34 0 0 0 -14.5-157.5 947.46 947.46 0 0 0 -42.5-153.5 868.38 868.38 0 0 0 -98-100 801.94 801.94 0 0 0 -115-83q-20 17-40 32.5t-41 30.5l-85 59q-34 23-67 34 4 39 5.5 78.5t1.5 81.5q0 40-1.5 84.5t-6.5 94.5q76 22 166 83 89 61 117 104zm-707-1225q277 0 520 138t384 384q141 245 141 524 0 278-142 524-72 123-167 218.5t-216 164.5q-243 138-520 138-278 0-521-138-122-69-217-164.5t-166-218.5q-72-124-106.5-254t-34.5-270q0-141 34.5-271.5t106.5-253.5q142-246 384-383 243-138 520-138z"/></svg>