<svg viewBox="0 0 1896.03 1883" xmlns="http://www.w3.org/2000/svg"><path d="m1410 1421q89 0 149-60 62-61 62-151 0-88-62-150-60-62-149-62-88 0-150 62-62 60-62 150 0 89 61 149 59 62 151 62zm0-696q198 0 342 142 72 71 107 156t37 187a441.06 441.06 0 0 1 -38 184.5 513 513 0 0 1 -106 156q-67 67.5-156 107.5a426.83 426.83 0 0 1 -186 38 567.8 567.8 0 0 1 -138-20.5q-66-18.49-128-58.5-60 121-180 194-116 72-257 72v-275q90 0 152-63 64-64 64-153v-901q0-88-64-152-63-64-152-64-90 0-153 64-63 63-63 152v719h-275v-719q0-88-64-152t-152-64v-275q104 0 195 40.5t158 110.5q150-151 354-151 130 0 245 67 116 67 181 180 65 116 65 244v282q99-48 212-48z"/></svg>