<svg viewBox="0 0 1468 1908" xmlns="http://www.w3.org/2000/svg"><path d="m735 1613q181 0 309-128 65-65 96.5-142t33.5-169a383.36 383.36 0 0 0 -15-113.5 458 458 0 0 0 -45-105 447.22 447.22 0 0 0 -70-90.5 469 469 0 0 0 -90-70.5 433.61 433.61 0 0 0 -105-45.5 388.11 388.11 0 0 0 -114-15q-91 2-168.5 32.5t-142.5 95.5q-128 129-128 312t128 311q128 128 311 128zm437-1026a808.57 808.57 0 0 1 125.5 120 716.38 716.38 0 0 1 93 141 744 744 0 0 1 57.5 157 710.83 710.83 0 0 1 20 169q0 199-99 370-98 169-268 266-170 98-366 98-203 0-372-100-86-51-152.5-118a732.65 732.65 0 0 1 -114.5-150q-49-85-72.5-175.5t-23.5-190.5q0-177 79-331a819.49 819.49 0 0 1 94.5-141 705.2 705.2 0 0 1 122.5-115q-139-103-218-260-78-153-78-327h296q0 183 127 311 128 129 312 129 182 0 310-129 129-129 129-311h294a730.68 730.68 0 0 1 -19 166.5 718.73 718.73 0 0 1 -56.5 157 723.19 723.19 0 0 1 -93 142 789.6 789.6 0 0 1 -127.5 121.5z"/></svg>