<svg viewBox="0 0 2244 2245" xmlns="http://www.w3.org/2000/svg"><path d="m722 1684q-44-37-83.5-77t-76.5-83q-33 16-60 19-38 5-66 11t-47 14q-38 14-88 48-68 44-118 175a963 963 0 0 0 -41 137 1169.67 1169.67 0 0 0 -23 153l206-207a99.68 99.68 0 0 1 -8-39q0-41 28-67t65-26a88.18 88.18 0 0 1 36 7.5 98.27 98.27 0 0 1 50.5 50.5 88.18 88.18 0 0 1 7.5 36 85.85 85.85 0 0 1 -7.5 35 102.84 102.84 0 0 1 -20 30 91.91 91.91 0 0 1 -29.5 20.5 88.18 88.18 0 0 1 -36 7.5 99.68 99.68 0 0 1 -39-8l-207 206 33-4a1303.15 1303.15 0 0 0 129-22.5 1092.69 1092.69 0 0 0 128-37.5q129-48 175-118 22-32 34-56.5a361.52 361.52 0 0 0 18.5-44 215.78 215.78 0 0 0 9-36.5q2.5-17 5.5-35.5t8-39.5q5-21 17-49zm577-457 64-64 28 19q31 22 54 33.5t40 11.5l13-4v1l-74 74a19.19 19.19 0 0 1 -14 6q-13 0-34-10l-483 483-12 4q-28 0-85-41a78.8 78.8 0 0 0 -6.5 22.5q-1.5 11.5-3.5 22.5a564 564 0 0 1 -16.5 82.5 383.32 383.32 0 0 1 -33 81q-21.5 39.5-55.5 76t-85 68.5a549.44 549.44 0 0 1 -74 38q-40 17-85 32a876.73 876.73 0 0 1 -91 25q-46 10-93 17-48 7-103 16.5t-119 23.5q-31 0-31-26l5-26q11-54 19.5-100t13.5-85a1205.57 1205.57 0 0 1 28.5-150.5 867.72 867.72 0 0 1 47.5-136.5q30-65 64.5-110t72.5-71q101-67 208-79 11-2 23.5-4a91.41 91.41 0 0 0 23.5-7q-41-59-41-86l4-12 483-482q-10-21-10-34a19.19 19.19 0 0 1 6-14l72-74 1 2-1 11q0 40 68 128 35 45 74 87t81 84l-64 65zm647-871-624 625q-48-48-88.5-92.5t-72.5-86.5q-64-85-64-122 0-9 5-14l353-353q140-140 278-221 22 46 75 112t138 152zm-503 728 625-626a426.11 426.11 0 0 0 44.5 32.5 343.74 343.74 0 0 0 41.5 22.5q-40 67-95 136t-126 140l-355 355a23 23 0 0 1 -13 4q-37 0-122-64zm801-840q0 38-10 81.5t-31 91.5q-35-23-57.5-38.5t-33.5-25.5q-110-94-180.5-172t-104.5-139q100-42 174-42 101 0 172 70 71 68 71 174z"/></svg>