<svg viewBox="0 0 2022 1946" xmlns="http://www.w3.org/2000/svg"><path d="m2022 1522-424 424v-277h-110q-173 0-294-123-120-123-120-293v-837a123.47 123.47 0 0 0 -9.5-48.5 121.09 121.09 0 0 0 -26-39 114.73 114.73 0 0 0 -39-25.5 129.85 129.85 0 0 0 -95 0 114.73 114.73 0 0 0 -39 25.5 121.09 121.09 0 0 0 -26 39 123.47 123.47 0 0 0 -9.5 48.5v895h-294v-895a122.79 122.79 0 0 0 -35.5-86.5 124.3 124.3 0 0 0 -38-26 113.79 113.79 0 0 0 -46.5-9.5q-53 0-87.5 34.5t-34.5 87.5v895h-294v-895q0-172 122-294t294-122q151 0 268 99 117-99 268-99 174 0 294 122 122 122 122 294v837a122.79 122.79 0 0 0 35.5 86.5 122.54 122.54 0 0 0 38.5 26 114.91 114.91 0 0 0 46 9.5h110v-278z"/></svg>