<svg viewBox="0 0 2244 2121.06" xmlns="http://www.w3.org/2000/svg"><path d="m383 1281-170 511q68 35 115 113l536-132 3-95q2-43-1.5-67t-8.5-29q-24-19-95-19h-26q-148 0-166-60-6-22-15-107-9-86-15-95-5-9-63-14-28-2-51-4t-43-2zm1426-1120-1147 1077v37l7 147q0 4 8.5 8a107.11 107.11 0 0 0 22 7 237.92 237.92 0 0 0 30.5 4.5q17 1.5 34 1.5 47 0 144 20l1153-1056q-71-75-134-136.5t-118-109.5zm-1194 1026 1116-1046q-110 6-145 17-30 10-68 45l-1053 966a601.08 601.08 0 0 0 75 5.5 245.57 245.57 0 0 1 75 12.5zm1493-532a584.28 584.28 0 0 0 -7-90q-7-45-10-93l-1130 1035q15 45 15 212l1069-971q31-29 47-51t16-42zm136-101q0 190-72 255l-1111 1006q-20 17-36 28.5t-30 16.5q-110 37-248.5 78t-309.5 88q-170 46-265 70.5t-116 24.5q-25 1-40.5-15t-15.5-48q0-37 47-184l203-631q17-52 50.5-91t84.5-85l1081-991q83-76 297-76a264.17 264.17 0 0 1 103 20.5q49 20.5 93 63.5l49 50 106 98q26 24 50.5 48.5a519.06 519.06 0 0 1 44.5 50.5q35 45 35 223z"/></svg>