<svg viewBox="0 0 1932 2155.06" xmlns="http://www.w3.org/2000/svg"><path d="m1605 1490q0-119-62-241-60-120-168-201-49-36-49-98 0-45 27-78 51-63 76-133.5t27-150.5a391.88 391.88 0 0 0 -16.5-119.5 431.71 431.71 0 0 0 -51-110.5 501.11 501.11 0 0 0 -79.5-95 541.21 541.21 0 0 0 -101-74.5 500.92 500.92 0 0 0 -117-48.5 474.49 474.49 0 0 0 -126-17 508.19 508.19 0 0 0 -127 18 514.05 514.05 0 0 0 -117 48 536.69 536.69 0 0 0 -101 73.5 466.89 466.89 0 0 0 -78.5 94 456.85 456.85 0 0 0 -50.5 110 370.42 370.42 0 0 0 -16 121.5 511.22 511.22 0 0 0 24 143.5q22 68.5 70 130.5 26 33 26 77 0 58-59 106-49 41-84.5 79t-58.5 73q-92 140-92 292 0 115 49.5 216t140.5 176q91 75 207 112t256 37q132 0 247.5-35t207.5-110q92-74 144-175.5t52-219.5zm275-592q20 0 36 15a48.69 48.69 0 0 1 16 37q0 23-21 41l-257 199q38 73 56.5 147a624.47 624.47 0 0 1 18.5 152 613.49 613.49 0 0 1 -38 214q-38 103-111 191a606.13 606.13 0 0 1 -126 114 810.65 810.65 0 0 1 -154 82 910.92 910.92 0 0 1 -346 65 1200.32 1200.32 0 0 1 -233-27 713.68 713.68 0 0 1 -219-87q-76-46-136-106a666.86 666.86 0 0 1 -102-130.5 609.32 609.32 0 0 1 -64-150q-22-79.5-22-165.5 0-167 89-322l-249-223q-18-17-18-38a48.69 48.69 0 0 1 16-37q16-15 36-15t34 12l102 90 20-73q5-20 18-29.5t31-9.5q24 0 38 14.5t14 36.5l-1 15-34 124 52 46q25-35 60.5-70t84.5-73q-121-152-121-349 0-157 84-295 85-140 224-215a695.62 695.62 0 0 1 148-58q76-20 159-20 165 0 306 78 143 79 226 215t83 295q0 202-130 362a955.87 955.87 0 0 1 79 71.5 823.71 823.71 0 0 1 69 79.5l67-50-19-118-3-20q0-21 16-36.5a52.77 52.77 0 0 1 38-15.5q20 0 33.5 11.5t16.5 31.5l11 74 90-69a50.39 50.39 0 0 1 32-11zm-896-155 94-1q14-1 19.5 5t5.5 26q0 34-6 40-3 3-14 6a195.92 195.92 0 0 1 -28.5 5q-17.51 2-40 3t-47.5 1q-26 0-60.5-2t-80.5-6q-20-3-20-43 0-35 16-35zm168-246a71.61 71.61 0 0 1 31.5 7.5 95.61 95.61 0 0 1 27.5 20 92.19 92.19 0 0 1 19 30 102.71 102.71 0 0 1 7 38.5 129.24 129.24 0 0 1 -5.5 38 109.73 109.73 0 0 1 -15.5 32 78.94 78.94 0 0 1 -24.5 22.5 63 63 0 0 1 -32.5 8.5q-33 0-59-27t-26-69a129.24 129.24 0 0 1 5.5-38 109.73 109.73 0 0 1 15.5-32 78.94 78.94 0 0 1 24.5-22.5 63 63 0 0 1 32.5-8.5zm-320 101q-1 40-25 68t-59 28a62.28 62.28 0 0 1 -30.5-8 83.92 83.92 0 0 1 -25-21 107.78 107.78 0 0 1 -17-30.5 104.06 104.06 0 0 1 -6.5-36.5q0-42 23-71.5t59-29.5a68.52 68.52 0 0 1 33.5 8.5 80.59 80.59 0 0 1 26 22.5 103 103 0 0 1 16 32 129.24 129.24 0 0 1 5.5 38z"/></svg>