<svg viewBox="0 0 2006 2007" xmlns="http://www.w3.org/2000/svg"><path d="m1723 1476-473-472 473-472q17-17 17-39 0-23-17-40l-168-168q-17-17-40-17-22 0-39 17l-472 472-472-472a55.88 55.88 0 0 0 -41-17q-23 0-40 17l-167 168q-16 16-16 40 0 23 16 39l472 472-472 472q-16 16-16 40t16 39l167 169q16 16 40 16t41-16l472-474 472 474q16 16 39 16 24 0 40-16l168-169q17-15 17-39 0-23-17-40zm-1665-1476h1891q23 0 40 17.5t17 41.5v1890a55.88 55.88 0 0 1 -17 41q-17 17-40 17h-1891q-23 0-40.5-17t-17.5-41v-1890q0-24 17.5-41.5t40.5-17.5z"/></svg>