<svg viewBox="0 0 1582 2199" xmlns="http://www.w3.org/2000/svg"><path d="m567 1363h445q124 62 176 123 55 62 90.5 157t46.5 238h-1071q10-143 47-239 17-48 39-86.5a430 430 0 0 1 48-68.5q52-60 179-124zm-394 588h1233q-6-175-42-301-37-125-107-206-72-82-196-143-49-24-82-46.5t-52.5-45.5q-19.5-23-28-48.5a171.18 171.18 0 0 1 -8.5-54.5 181.2 181.2 0 0 1 8-54.5q8-25.5 27.5-49t52.5-46.5q33-23 83-47 60-29 108-63t84-73q147-159 154-520h-1234q3 132 24 234t56 175a448 448 0 0 0 40.5 70.5 419.39 419.39 0 0 0 56.5 64.5q33 31 77 60.5t101 58.5q43 21 73.5 42t50 43.5q19.5 22.5 28.5 48t9 56.5q0 108-124 171-150 74-211 134-62 60-97 132-36 75-58.5 175t-25.5 233zm1409 123a127.14 127.14 0 0 1 -9.5 49 125.59 125.59 0 0 1 -26 40 116.1 116.1 0 0 1 -39.5 26.5 127.14 127.14 0 0 1 -49 9.5h-1334a127.14 127.14 0 0 1 -49-9.5 116.1 116.1 0 0 1 -39.5-26.5 127 127 0 0 1 -26-39.5q-9.5-22.5-9.5-49.5 0-45 27-77t68-43q5-271 92-445.5t265-263.5q48-24 80-42t48-32q31-27 31-65a92.63 92.63 0 0 0 -13.5-48.5q-13.5-22.5-42.5-38.5l-77-41q-94-50-165-117t-118.5-155.5q-47.5-88.5-72.5-202.5t-27-258q-41-11-68-43t-27-77a127.14 127.14 0 0 1 9.5-49 125.59 125.59 0 0 1 26-40 116.1 116.1 0 0 1 39.5-26.5 127.14 127.14 0 0 1 49-9.5h1334a127.14 127.14 0 0 1 49 9.5 116.1 116.1 0 0 1 39.5 26.5 127 127 0 0 1 26 39.5q9.5 22.5 9.5 49.5 0 45-27.5 78a121.08 121.08 0 0 1 -69.5 42q-3 140-25.5 253.5t-66 202.5q-43.5 89-109.5 154.5t-154 110.5q-51 26-83 45t-47 33q-30 26-30 62a95.13 95.13 0 0 0 5.5 33q5.5 15 19.5 30t39.5 30q25.5 15 64.5 33 190 86 284.5 263t101.5 459a121.08 121.08 0 0 1 69.5 42q27.5 33 27.5 78z"/></svg>