<svg viewBox="0 0 1968 1734" xmlns="http://www.w3.org/2000/svg"><path d="m987 1603q126 1 237-23t203-69q92-45 164.5-109t122-143q49.5-79 75.5-172t25-195q0-88-19-160-18-73-94-125-76-51-153-52a333.34 333.34 0 0 1 -44.5-3.5q-25.5-3.5-55-7t-62-6.5q-32.51-3-63.5-3-179 0-179 125 0 57 38 98 39 41 103 65a432.28 432.28 0 0 0 61 20q29 7 55 5l17-2q-5 16-10.5 36t-10.5 45a375.83 375.83 0 0 0 -6.5 45q-1.5 20-1.5 37l-49 14a1066.12 1066.12 0 0 0 -113 38 578.42 578.42 0 0 0 -97 50q-15 10-37 29.5t-50 49.5q-39 41-59 41-33 0-33-34 0-37 32-106 31-66 50-90l3-7q0-7-42-15-51-7-69-24-19 18-39.5 36.5a303.65 303.65 0 0 1 -43 32.5 262.3 262.3 0 0 1 -46.5 23 144 144 0 0 1 -51 9 307.22 307.22 0 0 1 -42.5-3 257 257 0 0 1 -45.5-11q-45-13-63-26-10 43-55 78-21 17-42 26.5t-41 7.5l-111-8q-23-2-34 11t-11 37q0 85 98 198 100 115 251 175t338 62zm-653-577a159.31 159.31 0 0 0 91.5-29.5 111.37 111.37 0 0 0 30-32.5 79.55 79.55 0 0 0 11.5-42l-4-30-89-292q-30-97-125-97-62 0-96 38t-34 110q0 52 58 190 57 138 83 161 29 24 74 24zm251-727q-69 0-104.5 42.5t-35.5 108.5q0 21 12.5 71t38.5 128q51 156 78 203 38 68 112 68a140.79 140.79 0 0 0 47.5-8 118.38 118.38 0 0 0 39-22.5 116.67 116.67 0 0 0 26.5-33.5 88.76 88.76 0 0 0 10-42l-3-25-79-373q-14-63-54-90a154 154 0 0 0 -88-27zm383-130q-66 0-100 35t-34 98l2 27q16 153 38.5 246.5t32.5 132.5q10 39 23.5 64.5t30 40.5q16.5 15 35.5 21a135.46 135.46 0 0 0 41 6q17 0 28-2.5a84.36 84.36 0 0 0 19-6.5 72.6 72.6 0 0 0 14.5-9.5q6.5-5.5 14.5-11.5-63-57-63-161 0-74 23-116t70-65l-19-159q-5-37-19-63.5t-35-43.5a138.15 138.15 0 0 0 -47.5-25 187.67 187.67 0 0 0 -54.5-8zm395-30a115.3 115.3 0 0 0 -54 13 133.78 133.78 0 0 0 -42.5 34.5 150.4 150.4 0 0 0 -26.5 49.5 158 158 0 0 0 -7 59l10 149q17-3 40-5t53-2q42 0 92 4.5t109 12.5l-6-160q-2-75-48-115t-120-40zm605 749q0 247-129 448-128 201-344.5 299.5t-510.5 98.5q-102 0-195-16a994.94 994.94 0 0 1 -181-49q-173-66-300-196-64-66-108.5-141a850.66 850.66 0 0 1 -73.5-160l-52-156q-20-59-34.5-106.5t-22.5-84.5q-8-38-12.5-75a620.75 620.75 0 0 1 -4.5-75q0-71 18.5-127t53-95q34.5-39 84-59.5t110.5-20.5q23 0 38-3t23-27q28-81 93-126t156-45q41 0 71 8t50 8q25 0 42-24 83-131 226-131 81 0 157 47l21 10q10 0 27-15 85-75 205-75 100 0 179 64 39 32 64.5 69.5a210.58 210.58 0 0 1 33.5 82.5l12 75q7 44 12 74.5t11 50q6 19.5 13.5 29.5a39.36 39.36 0 0 0 19.5 14 359.81 359.81 0 0 1 101 54q46 35 78.5 87.5t50.5 123.5q18 71 18 164z"/></svg>