<svg viewBox="0 0 1998 1762" xmlns="http://www.w3.org/2000/svg"><path d="m1723 1367q64 0 110-46 47-46 47-112 0-51-37-100-36-46-83-46-26 0-46.5 6t-48.5 6a114.08 114.08 0 0 1 -37-6.5 112.49 112.49 0 0 1 -34.5-19 145.26 145.26 0 0 1 -27.5-29.5 96.37 96.37 0 0 1 -16-38 160.61 160.61 0 0 0 -57.5-94 168.37 168.37 0 0 0 -48-26.5 163.32 163.32 0 0 0 -55.5-9.5q-28 0-71 18-23 10-39.5 14t-27.5 4a118.73 118.73 0 0 1 -45-8.5 117.14 117.14 0 0 1 -36.5-23 115.24 115.24 0 0 1 -25-34 118.41 118.41 0 0 1 -11.5-41.5q-7-86-72-146t-154-60q-43 0-74 9-15 5-27.5 10a99.27 99.27 0 0 0 -25 15 301.44 301.44 0 0 0 -27.5 25.5q-15 15.5-34 39.5-36 46-98 46l-12-2a204.74 204.74 0 0 0 -67 11 225.1 225.1 0 0 0 -139 137q-24 62-111 81-66 13-121 83-53 71-53 134 0 90 66 156 66 67 157 66l52-2q62-2 94 67 43 90 123 141.5t180 51.5q122 0 213-76 30-26 74-26 40 0 71 23 67 49 145 49a233.52 233.52 0 0 0 78-13 240.23 240.23 0 0 0 67-36 236 236 0 0 0 52-55.5 266.5 266.5 0 0 0 34-71.5q11-36 42.5-60.5a113.4 113.4 0 0 1 71.5-24.5 121.81 121.81 0 0 1 41.5 7q19.5 7 43.5 7zm35-422q50 0 91.5 20.5t77.5 61.5q71 82 71 182 0 113-82 195-82 80-193 80-46 0-85-13-35 117-131 188-99 73-214 73-119 0-216-73-124 103-287 103-129 0-241-70-113-69-168-190l-19 1h-21q-142 0-241-98-100-99-100-241 0-122 85-224 84-100 207-111 35-103 120-164 88-64 197-64l25-7a366.06 366.06 0 0 1 118-99.5q70-37.5 155-37.5a346.11 346.11 0 0 1 80 9q51-66 126-105.5t165-39.5q151 0 259 109 106 108 106 257 0 75-32 154 41 53 54 117a447 447 0 0 1 51.5-10 332.3 332.3 0 0 1 41.5-3zm-926-767-1-7q0-22 22-22l11 3 197 115q11 7 11 22 0 8-9 15l-121 100-14 4q-18 0-21-14zm906 453 11 2 205 100q12 6 12 19 0 16-16 22l-220 58-6 1q-11 0-17-8.5t-6-16.5l15-157q4-20 22-20zm-181-293q0-17 15-22l215-74 8-1q8 0 15 7t7 15l-3 11-115 197q-7 11-17 11-13 0-20-9l-99-121q-6-7-6-14zm-336-111 2-9 100-206q6-12 19-12 17 0 22 16l59 226q0 22-25 22l-157-15q-20-6-20-22z"/></svg>