<svg viewBox="0 0 1828 1828" xmlns="http://www.w3.org/2000/svg"><path d="m261 301-2-12q0-14 9.5-21.5t20.5-7.5l12 1 272 128q18 6 18 26 0 14-8 20l-148 148a27.14 27.14 0 0 1 -20 8q-21 0-28-16zm51 747-11-1-282-106q-19-6-19-27t19-27l293-107q12 0 20.5 9.5t8.5 20.5v208a29.61 29.61 0 0 1 -8.5 21 27.19 27.19 0 0 1 -20.5 9zm279 367q0 20-18 26l-272 126-12 2q-30 0-30-28l2-14 126-274q8-16 26-16 14 0 22 8l148 148q8 8 8 22zm218 71h209q11 0 20 9.5t9 20.5l-2 11-104 282q-6 19-27 19t-27-19l-106-282-1-10q0-31 29-31zm756 41 3 14a27.66 27.66 0 0 1 -8 19.5q-8 8.51-21 8.5l-12-2-274-126q-16-8-16-26 0-14 8-22l146-148a34.45 34.45 0 0 1 22-8q16 0 26 16zm263-613q0 21-19 27l-283 106-10 1a30.64 30.64 0 0 1 -21-8q-9-8-9-22v-208q0-11 8-20t19-9l13 2 283 104q19 6 19 27zm-591-499q0-16 16-26l274-128 12-1q11 0 20 8t9 21l-3 12-126 274q-6 14-20 16-17 0-28-8l-146-148q-8-6-8-20zm-219-73h-209q-13 0-21-9.5t-8-20.5l1-9 106-284q6-19 27-19t27 19l104 284 2 9q0 11-8.5 20.5t-20.5 9.5zm-104 88a450.94 450.94 0 0 1 125 17.5 477.17 477.17 0 0 1 115 50 526.29 526.29 0 0 1 99 77 487.64 487.64 0 0 1 77 98.5 505.07 505.07 0 0 1 50 115 442.9 442.9 0 0 1 18 126 452.58 452.58 0 0 1 -39.5 186.5q-39.5 88.5-106.5 155.5a503.1 503.1 0 0 1 -154.5 105.5 428.13 428.13 0 0 1 -183.5 36.5q-102-2-187-35.5t-156-105.5q-72-71-105.5-156t-35.5-187a431.36 431.36 0 0 1 36.5-184q38.5-88 105.5-154.5t155.5-106a452.58 452.58 0 0 1 186.5-39.5z"/></svg>