<svg viewBox="0 0 1002 1761" xmlns="http://www.w3.org/2000/svg"><path d="m240 1562q0-53 15.5-90.5t43-61.5q27.5-24 65.5-35t83-11q98 0 150 52t52 146q0 92-54 145.5t-148 53.5q-96 0-151.5-50.5t-55.5-148.5zm347-399h-308v-86q0-108 45-192 44-82 164-178 45-35 75-61t45-44q31-35 44.5-72.5t13.5-88.5q0-66-45.5-110t-136.5-44q-81 0-173.5 34t-191.5 83l-119-257q59-33 122-60.5a1150.63 1150.63 0 0 1 125.5-46.5 1018.15 1018.15 0 0 1 123.5-29.5 690.08 690.08 0 0 1 117-10.5q242 0 378 112 136 114 136 312 0 89-24 156a522.16 522.16 0 0 1 -31 66.5 401 401 0 0 1 -43 62.5q-25 29-65 65.5t-94 80.5q-44 35-71 60t-40 39q-24 29-35.5 60t-11.5 79z"/></svg>