<svg viewBox="0 0 504.38 1819" xmlns="http://www.w3.org/2000/svg"><path d="m253.17 1423q-167 0-167 158 0 160 165 160 82 0 124.5-41t42.5-119q0-158-165-158zm0 396q-115 0-179.5-62t-64.5-176q0-60 17.5-104.5t49.5-74q32-29.51 76.5-44t98.5-14.5q114 0 179.5 62.5t65.5 174.5q0 55-16.5 99t-48 75q-31.5 31-76.5 47.5t-102 16.5zm-173-1739 65 941h212l66-941zm298 1020h-253a53.66 53.66 0 0 1 -38-15q-16-15-18-35l-69-992a45.5 45.5 0 0 1 4-23.5 59.19 59.19 0 0 1 13-18 65.25 65.25 0 0 1 18-12 50.56 50.56 0 0 1 21-4.5h392q24 0 41 18t15 40l-69 992q-2 20-18.5 35a55.45 55.45 0 0 1 -38.5 15z"/></svg>