<svg viewBox="0 0 2362 1659" xmlns="http://www.w3.org/2000/svg"><path d="m2362 443a112.58 112.58 0 0 1 -2.5 23 86.05 86.05 0 0 1 -8 22.5 50.74 50.74 0 0 1 -15 17.5q-9.49 7-23.5 7-9 0-22-8.5t-31-24.5q-35-31-54-31-34 0-34 41l7 62q0 26-17.5 39t-37.5 13q-23 0-38-13.5a230.15 230.15 0 0 1 -27.5-29.5 282.14 282.14 0 0 0 -26.5-29.5q-14-13.5-34-13.5-21 0-35.5 14.5t-13.5 39.5l2 39q1 24-13.5 39.5t-40.5 15.5q-55 0-100-86-66-128-148.5-190t-193.5-62q-110 0-186 75l-13 18q-36 47-44 47-11 0-11-17 0-26 10.5-62t33.5-83a529.38 529.38 0 0 1 51.5-87.5 587.81 587.81 0 0 1 65.5-75.5q73-71 164-107t195-36q153 0 310 86a896.7 896.7 0 0 1 148 102.5q70 59.5 133 138.5 50 63 50 116zm-1455-115q-103 0-183.5 51t-135.5 158l-22 43q-45 86-101 86-26 0-40.5-15.5t-12.5-39.5l1-38q1-25-12.5-40t-36.5-15q-21 0-34 13.5a375.72 375.72 0 0 0 -25.5 29.5 230.15 230.15 0 0 1 -27.5 29.5q-15 13.5-39 13.5-20 0-37.5-13t-17.5-39l7-62q0-41-34-41-17 0-51 31-38 33-55 33-14 0-23.5-7a56 56 0 0 1 -15.5-17.5 75.92 75.92 0 0 1 -8.5-23.5 132.14 132.14 0 0 1 -2.5-25q0-51 50-113 128-160 280.5-243.5t310.5-83.5a559.89 559.89 0 0 1 195 35q95 35 165 104a590.29 590.29 0 0 1 63.5 75 616.78 616.78 0 0 1 51.5 87q45 92 45 150 0 17-11 17-10 0-27-26l-29-39q-75-75-187-75zm279 181q82 0 138 57 57 59 57 138h-392q0-82 57-138 58-57 140-57zm-304 312q0-28 18-47t46-19h478q28 0 46 19t18 47q0 28-18 46t-46 18h-478q-28 0-46-18t-18-46zm-215 112h1030q36 0 60.5 23.5t24.5 59.5q0 36-24.5 60t-60.5 24q-34 121-115 206t-196 136q-40 16-40 48 0 20 16 37.5t41 26.5q39 15 39 50 0 24-18 39.5t-44 15.5h-402q-26 0-44-15.5t-18-39.5q0-36 37-50 25-10 42-27t17-37q0-30-41-48a666.47 666.47 0 0 1 -112.5-63 528.66 528.66 0 0 1 -91-80 504.28 504.28 0 0 1 -67-94 415.21 415.21 0 0 1 -40.5-105q-32-3-54-27t-22-57q0-36 23.5-59.5t59.5-23.5z"/></svg>