<svg viewBox="0 0 1854 1726.05" xmlns="http://www.w3.org/2000/svg"><path d="m1854 1163.05q0 75-31 145t-94 136q-123 131-339 207a1315.63 1315.63 0 0 1 -223.5 56.5q-114.5 18.45-238.5 18.5-125 0-240-18.5a1313.11 1313.11 0 0 1 -224-56.5q-214-76-339-207-63-66-94-136t-31-145q0-124 86-237 88-114 133-114 34 0 34 33 0 18-12 37-26 42-37.5 82a347.81 347.81 0 0 0 -13.5 78q-2 59 25 115t76 105.5q49 49.5 118 91t151.5 71q82.5 29.49 176 45a1101.17 1101.17 0 0 0 191.5 14.5 1509.81 1509.81 0 0 0 189.5-15.5 942.26 942.26 0 0 0 176.5-43.5q172-59 271-161 51-53 75.5-108a277.36 277.36 0 0 0 24.5-114q0-38-12.5-78t-38.5-82a146.2 146.2 0 0 1 -8.5-18 52.05 52.05 0 0 1 -3.5-19q0-33 33-33 45 0 133 114 86 112.95 86 237zm-606-134q0-75-14.5-159t-43.5-178q-42-135-42-256 0-87 21.5-152t53.5-116a312.21 312.21 0 0 1 55-66.5 573.89 573.89 0 0 1 66-53q33-22.5 60-35.5t39-13q22-1 22 20 0 12-12 18-64 56-64 219 0 69 13 155.5t39 190.5q15 63 23 120a785.48 785.48 0 0 1 8 109q0 77-17 144.5t-48 123a406.09 406.09 0 0 1 -176 167.5l-8 1q-7 0-13.5-5.5a17.05 17.05 0 0 1 -6.5-13.5l4-14q41-74.05 41-206zm-379-2q0-73-13.5-156t-42.5-179q-21-69-32-131.5a706.31 706.31 0 0 1 -11-122.5q0-87 21-153t53-116a420.8 420.8 0 0 1 35.5-45.5 429.89 429.89 0 0 1 39.5-38.5 503.29 503.29 0 0 1 44.5-34 492.42 492.42 0 0 1 44-27q20.5-11 36-17.5t22.5-6.5q20 0 20 20 0 13-11 18-65 57-65 220 0 70 13 156t39 189q15 63 23 120a792.08 792.08 0 0 1 8 110q0 84-17 149t-46 116a428.66 428.66 0 0 1 -46.5 66 512.08 512.08 0 0 1 -53 54q-26.5 23-49.5 36.5t-35 13.5q-22 0-22-22l4-11q41-74.05 41-208zm-379 0q0-73-13.5-156t-42.5-179a1110.05 1110.05 0 0 1 -32-132 720.4 720.4 0 0 1 -11-124q0-87 22-152t54-116a319.74 319.74 0 0 1 54.5-66.5 543.31 543.31 0 0 1 65.5-53q33-22.5 60.5-35.5t39.5-13q20-1 20 19 0 14-11 19-64 56-64 219 0 69 13 155.5t39 190.5q32 128 32 229 0 77-17 144.5t-48 123a406.09 406.09 0 0 1 -176 167.5l-8 1q-21 0-21-19l4-14 8-18q14-30 23-77t9-113z"/></svg>