<svg viewBox="0 0 2232 2350" xmlns="http://www.w3.org/2000/svg"><path d="m1111 2029q74-110 175-191-105-82-175-188-76 109-177 188 102 79 177 191zm0-701q27 86 60 153.5t71 118.5a632.51 632.51 0 0 0 88 97 762 762 0 0 0 112 83l94 58-94 59q-122 76-199 180-75 101-132 273-69-190-143-284-75-98-189-169l-94-59 94-58q60-37 106.5-79.5a769.77 769.77 0 0 0 84.5-90.5q38-49 73-118.5t68-163.5zm597 175a836.42 836.42 0 0 1 104-110.5 1075.16 1075.16 0 0 1 126-95.5 1042.73 1042.73 0 0 1 -126-96 861.5 861.5 0 0 1 -104-111 1158.57 1158.57 0 0 1 -108 113 894.93 894.93 0 0 1 -123 94 894.93 894.93 0 0 1 123 94 1227.71 1227.71 0 0 1 108 112zm398-268 126 62-126 61a1124.72 1124.72 0 0 0 -128 75.5 755.41 755.41 0 0 0 -107 88.5q-97 98-164 255-32-78-71.5-140a685.46 685.46 0 0 0 -88.5-112 750.34 750.34 0 0 0 -108-91q-59-41-130-76l-125-61 125-62q72-35 130.5-76.5a725.87 725.87 0 0 0 106.5-92 777.07 777.07 0 0 0 88-112q40-61.5 74-137.5a888.47 888.47 0 0 0 66 129.5 720.33 720.33 0 0 0 85 111 740.46 740.46 0 0 0 109 95.5q61 44 138 82zm-1809-413q273 195 428 453a1618.92 1618.92 0 0 1 191.5-246.5q106.5-112.5 237.5-206.5a1563.94 1563.94 0 0 1 -234.5-202q-106.5-112-194.5-251a1273.18 1273.18 0 0 1 -85 123.5q-47 60.5-104 121.5a1460 1460 0 0 1 -116.5 112q-59.5 51-122.5 96zm428 822q-32-85-63.5-152t-62.5-120a1182.45 1182.45 0 0 0 -66.5-101.5q-35.5-48.5-77.5-95.5-83-95-165-161-42-35-114-82.5t-176-109.5l112-67a1509 1509 0 0 0 198-140 1313.34 1313.34 0 0 0 169-170q77-93 138.5-203.5t108.5-241.5q47 132 109.5 243t139 204a1298.33 1298.33 0 0 0 167.5 169.5 1448 1448 0 0 0 196 138.5l113 67-113 67a1450.87 1450.87 0 0 0 -198.5 140 1305.79 1305.79 0 0 0 -168 170q-76.5 93-138 203.5t-108.5 241.5z"/></svg>