<svg viewBox="0 0 2110 2112" xmlns="http://www.w3.org/2000/svg"><path d="m1919 923q92 0 141.5 33.5t49.5 99.5q0 66-50 99.5t-141 33.5q-59 0-731-78l222 176q162 129 249 200t101 85q78 78 78 147 0 26-10 47.5a125.48 125.48 0 0 1 -26.5 37.5 121.4 121.4 0 0 1 -38 25 116.63 116.63 0 0 1 -45.5 9 150.78 150.78 0 0 1 -70-17q-17-10-35.5-23a234.34 234.34 0 0 1 -35.5-31q-18-18-134-162t-333-416q78 671 78 730 0 92-33.5 142.5t-98.5 50.5q-63 0-98-49.5t-35-143.5q0-59 78-730-130 163-219.5 274t-140.5 174q-100 124-134 152-33 28-65.5 40.5t-49.5 8.5a105.64 105.64 0 0 1 -44-9.5 132.79 132.79 0 0 1 -38-26 127.54 127.54 0 0 1 -27-38 108.82 108.82 0 0 1 -10-46.5q0-68 78-146l125-104 447-357q-671 78-731 78-91 0-141.5-33.5t-50.5-99.5q0-66 49-99.5t143-33.5q60 0 731 78l-222-176q-107-86-188-150.5t-136-110.5q-107-92-104-170a170 170 0 0 1 9.5-44.5q7.5-20.5 24.5-39.5 36-36 84-36 42 0 86 28 47 31 120 118 38 45 138 170t266 333q-78-670-78-730 0-92 33.5-142.5t99.5-50.5q66 0 99 49.5t33 143.5q0 60-78 730l359-448 102-124q35-42 73.5-59.5t74.5-17.5a113.79 113.79 0 0 1 46.5 9.5 118.29 118.29 0 0 1 37.5 26 128.89 128.89 0 0 1 25.5 38 113.79 113.79 0 0 1 9.5 46.5q0 68-78 146-8 8-56 48t-138 112l-378 301q672-78 731-78z"/></svg>