<svg viewBox="0 0 2132 2216" xmlns="http://www.w3.org/2000/svg"><path d="m1246 1703q0-139-137-215-68-38-160-57t-211-19q-141 0-261 42-119 43-176.5 117t-57.5 172a247.62 247.62 0 0 0 10.5 70.5 303.45 303.45 0 0 0 30 68.5 375.41 375.41 0 0 0 46.5 62.5 360.2 360.2 0 0 0 60 52.5 371.52 371.52 0 0 0 74 39.5 601 601 0 0 0 85 27 666.89 666.89 0 0 0 90 15q46 4.5 90 4.5 147 0 260-50 116-52 186-143 71-90 71-187zm-524 493q-333 0-528-159-98-80-146-188.5t-48-245.5q0-205 149-316.5t446-111.5q102 0 176.5 9t132 19.5q57.5 10.5 103.5 19.5a473.09 473.09 0 0 0 91 9q57 0 92.5-12a181.77 181.77 0 0 0 63.5-37q29-25 52-64 12-20 76.5-135t180.5-327q3-8 10-8.5t16-1.5l300-647h243l-333 726q8 10 8 18l-2 10-238 546q-27 63-58 143.5t-65 180.5q-40 118-86 205t-97 146q-103 117-238.5 169t-300.5 52zm1007-461q99 0 169 71 72 72 72 169 0 98-72 170-70 71-169 71t-170-71q-71-71-71-170 0-98 71-169t170-71z"/></svg>