<svg viewBox="0 0 1932 1801" xmlns="http://www.w3.org/2000/svg"><path d="m1495 1123-57-4v276a107 107 0 0 0 9 43.5 112.91 112.91 0 0 0 59.5 59.5 107 107 0 0 0 43.5 9h97v294h-97q-166 0-286-119-120-118-120-287v-352l-360-93v445a107 107 0 0 0 9 43.5 112.91 112.91 0 0 0 59.5 59.5 107 107 0 0 0 43.5 9h97v294h-97q-169 0-287-119-119-119-119-287v-521a123.08 123.08 0 0 0 -30-6.5q-16-1.5-33-1.5-65 0-99 34.5t-34 82.5q0 50 36 84l-204 212q-126-123-126-296 0-167 119-288 61-62 132-95.5t154-28.5l85 6v-577h294v647l360 93v-740h294v819a123.08 123.08 0 0 0 30 6.5q16 1.5 33 1.5 62 0 99.5-32.5t37.5-84.5q0-48-36-84l204-212q126 123 126 296 0 177-126 295-63 59-140 92t-171 26z"/></svg>