<svg viewBox="0 0 1874 1962" xmlns="http://www.w3.org/2000/svg"><path d="m803 313q0 29 10.5 53.5a134.18 134.18 0 0 0 28.5 42.5 127.63 127.63 0 0 0 42.5 28 142.81 142.81 0 0 0 105 0 127.63 127.63 0 0 0 42.5-28 134.18 134.18 0 0 0 28.5-42.5q10.5-24.5 10.5-53.5a131.83 131.83 0 0 0 -10.5-52.5 132.25 132.25 0 0 0 -71-71 136.5 136.5 0 0 0 -105 0 132.25 132.25 0 0 0 -71 71 131.83 131.83 0 0 0 -10.5 52.5zm1071 1050q0 34-34 34-15 0-40-25-25-23-42-23-10 0-15.5 4a32.35 32.35 0 0 0 -9 10 56.4 56.4 0 0 0 -5.5 13q-2 7-4 13-74 187-185 310-112 124-272 192a979.59 979.59 0 0 1 -162.5 52.5 754.51 754.51 0 0 1 -167.5 18.5 716.87 716.87 0 0 1 -162-18.5 1058.46 1058.46 0 0 1 -159-50.5q-158-64-275.5-180.5t-173.5-284.5l-7-20q-19-59-44-59-18 0-41 23-24 25-41 25-34 0-34-36 0-39 35-146 38-108 59-136 22-28 56-28 22 0 33 5 28 11 62 32.5t76 53.5q85 65 85 91 0 31-53 31-55 0-55 25 0 52 131 186 132 133 248 133 103 0 115-137l5-62 29-245q6-25 6-60a85 85 0 0 0 -4.5-28 96.54 96.54 0 0 0 -10.5-22q-7-10-25-19.5t-43.5-18q-25.5-8.5-57-16.5t-65.5-15l-39-8q-56-12-56-67 0-43 26-59 25-16 117-16 65 0 102-6.5t55-21.5q18-15 22.5-40.5t4.5-63.5q0-24-6-39.5a89.66 89.66 0 0 0 -15.5-26.5 83.87 83.87 0 0 0 -23-18.5q-13.5-7.5-28.5-15.5a420.52 420.52 0 0 1 -80-54 363.87 363.87 0 0 1 -62-68.5 313.67 313.67 0 0 1 -40.5-82q-14.5-44.5-14.5-94.5 0-127 101-216 100-88 248-88 141 0 245 86 102 87 102 216 0 114-54.5 189t-144.5 115q-69 30-69 96 0 67 13 89 12 22 52.5 33t119.5 11q42 0 69 4t43 13q16 9 22.5 23t6.5 35q0 55-55 67l-39 8q-33 7-63 14t-58 16q-27 9-43.5 17.5t-25.5 19a59.89 59.89 0 0 0 -12.5 23q-3.5 12.5-3.5 30.5l39 367q7 68 34.5 102t80.5 34q63 0 145-50 81-51 158-142 80-93 75-127 0-16-12.5-20.5t-40.5-4.5q-55 0-55-30 0-10 14.5-27.5t38-38q23.5-20.5 52.5-41.5t57.5-38a432.38 432.38 0 0 1 53.5-27.5q25-10.5 40-10.5 39 0 67 49 14 24 28 58.5t28 81.5q29 92 29 123z"/></svg>