<svg viewBox="0 0 1658 2215" xmlns="http://www.w3.org/2000/svg"><path d="m1486 1569q0-98-74-187t-214-148q-70-29-132-44.5t-119-15.5q-36 0-67 10.5t-54 28.5a130.86 130.86 0 0 0 -36 43 113.24 113.24 0 0 0 -13 53q0 63 57 108t159 77q96 30 140.5 61t44.5 73q0 37-18 37-10 0-29-10-109-47-171-47a138.88 138.88 0 0 0 -65.5 16 154.54 154.54 0 0 0 -52 44.5q-21.5 28.5-33.5 67t-10 84.5l1 46q1 37-12 37-20 0-38-56-19-54-19-107 0-41 12-100l-15 13a187.23 187.23 0 0 1 -49.5 28q-26.5 10-58.5 10-48 0-81-21-47 72-86 92a152 152 0 0 1 -42.5 14.5 442.07 442.07 0 0 1 -52.5 6.5l15 61q27 111 139 170t292 59q273 0 476-144 206-146 206-360zm-1158 119a134.15 134.15 0 0 0 44.5-7.5 145.39 145.39 0 0 0 38.5-20 105 105 0 0 0 27.5-29.5 67.38 67.38 0 0 0 10.5-36q0-17-9-35l-103-241q-32-73-104-73-31 0-52.5 10t-34.5 26.5a101.11 101.11 0 0 0 -18.5 38 174.66 174.66 0 0 0 -5.5 43.5q0 23 8 52t25 62q34 64 68 124 17 30 31 47.5t25 25.5q20 13 49 13zm51-526q0 18 9 49.5t29 75.5q20 45 38 85t37 77q40 73 65 93 26 20 64 20a116.07 116.07 0 0 0 39.5-7 120.43 120.43 0 0 0 35.5-20 103.66 103.66 0 0 0 25.5-30 74.62 74.62 0 0 0 9.5-37l-6-31-107-312q-29-87-116-87-61 0-92 33t-31 91zm53-839q0 82 65 265 32 92 59.5 158t48.5 110q22 48 35.5 83.5t18.5 61.5q2 12 6.5 29.5t14.5 42.5q18 47 34 47 7 0 25-10 85-54 186-54 57 0 100 10t57 13q23 6 55.5 18t77.5 29l74 29q3-5 10-47.5t27-118.5l15-57 13-40q39-112 68-202t48.5-160q19.5-70 29.5-121.5t10-86.5a198 198 0 0 0 -9.5-62q-9.49-29-27.5-50a131.71 131.71 0 0 0 -44.5-33.5q-26.5-12.5-61.5-12.5-75 0-115 55-41 55-71 181-31 127-41 247-20 206-48 278-29 72-92 72t-92-57q-14-29-32.5-103t-42.5-195q-11-54-27-116.5t-36-134.5q-39-141-81-188-40-47-94-47-163 0-163 167zm1197 1264q0 160-117 319-59 80-133.5 138a746.78 746.78 0 0 1 -162 96q-87.49 38-186 56.5t-205.5 18.5q-180 0-315-43-135-42-213-142t-111-247q-48-68-83-127t-58-111.5q-23-52.5-34-100a409.61 409.61 0 0 1 -11-92.5q0-99 71-170 73-73 183-79 3-52 22-92t47-67.5a191.47 191.47 0 0 1 62.5-41.5q34.5-14 68.5-14-23-67-47.5-135t-53.5-137q-15-35-28.5-77a839.86 839.86 0 0 1 -23.5-92q-10-50-14.5-88t-4.5-66q0-133 79-212 79-81 208-81 106 0 181 63a351.22 351.22 0 0 1 67 76q29 44 49 102 20 57 37 118t29 127q24 131 36.5 198t21.5 62q10 0 24-117l15-138q26-242 106.5-358t214.5-116q72 0 129.5 22t97 61a264.83 264.83 0 0 1 60.5 92q21 53 21 115a788 788 0 0 1 -9 119q-9 59-21 109t-24 87q-12 37-18 55-44 130-71 217.5t-39 135.5q-9 38-19.5 72t-10.5 66q0 41 30 72 153 152 153 347z"/></svg>