<svg viewBox="0 0 2284 1292" xmlns="http://www.w3.org/2000/svg"><path d="m1680 1037q114 0 179.5-68.5t65.5-195.5q0-240-244-369-244 124-244 369 0 60 16.5 108.5t47.5 83q31 34.5 76 53.5t103 19zm-1080 0q115 0 180-68.5t65-195.5q0-240-243-369-244 124-244 369 0 60 16.5 108.5t47.5 83q31 34.5 76 53.5t102 19zm1086-915q248-94 526-94h37l35 1v256l-34-2h-35q-63 0-122 5.5a1105.32 1105.32 0 0 0 -114 16.5q201 194 201 470 0 229-141 373t-357 144q-217 0-358-144t-141-375q0-289 218-483a1003.49 1003.49 0 0 0 -518 0q218 195 218 487 0 223-141 370-140 145-356 145-218 0-359-144-141-142-141-373 0-276 201-470-110-22-237-22h-34l-34 2v-256l35-1h37q278 0 524 94a1339.51 1339.51 0 0 1 268.5-90.5q140.5-31.5 277.5-31.5 279 0 544 122z"/></svg>