<svg viewBox="0 0 2198 2198" xmlns="http://www.w3.org/2000/svg"><path d="m780 1352a32.45 32.45 0 0 1 32 32l-6 17-105 147q-118 163-184 254t-83 108q-59 59-126 59a104.66 104.66 0 0 1 -42.5-9 121.4 121.4 0 0 1 -36-24 119.78 119.78 0 0 1 -25-35 99 99 0 0 1 -9.5-43q0-26 13-55t37-57q12-14 78.5-64.5t187.5-139.5q121-89 184-135t70-51q15-7 15-4zm1223 505a98.94 98.94 0 0 1 -9 41 125.47 125.47 0 0 1 -24.5 36 117.82 117.82 0 0 1 -36.5 25.5 108 108 0 0 1 -45 9.5q-65 0-124-59-11-11-50.5-62.5t-105.5-143.5l-172-241-46-64a33.66 33.66 0 0 1 -4-15 32.45 32.45 0 0 1 32-32q8 0 18 7l146 105q322 233 358 270 63 62 63 123zm-1808-1517a104.66 104.66 0 0 1 9-42.5 112.61 112.61 0 0 1 25-36 125.47 125.47 0 0 1 36-24.5 103.56 103.56 0 0 1 43-9q46 0 75 19a319.31 319.31 0 0 1 51 41q17 17 83.5 107t183.5 254l105 148 6 17a32.45 32.45 0 0 1 -32 32q-9 0-15-3l-190-138q-93-68-171.5-128t-145.5-113q-63-62-63-124zm1223 506q-14 0-23-9.5a31.6 31.6 0 0 1 -9-22.5q0-11 6-17 8-14 52.5-77t127.5-178q84-115 131-177.5t61-76.5q60-60 124-60 46 0 81 35 34 34 34 78 0 61-63 123-5 5-42.5 33.5t-107.5 81.5q-69 53-121 91t-87 64l-146 106q-6 6-18 6zm-513 260q0 42-73 82-35 19-95 37t-144 35q-167 36-302 36-65 0-119-13.5t-92-39q-38-25.5-59-61t-21-80.5q0-96 72.5-147.5t216.5-51.5q36 0 78 4t90 11q49 8 92 17t82 19q59 15 110.5 31.5t89.5 35q38 18.49 58 39.5t16 46zm1002-203q141 0 216 53t75 144q0 45-20.5 81.5t-58.5 62q-38 25.5-92 39t-120 13.5a1264.52 1264.52 0 0 1 -157-10 1574.77 1574.77 0 0 1 -165-30q-85-20-137-34.5t-74-24.5q-42-17-64.5-41.5t-18.5-49.5q0-79 209-134 70-19 118.5-30.5t76.5-16.5q57-10 106.5-16a878 878 0 0 1 105.5-6zm-612 1009q0 65-14 117.5t-39.5 90q-25.5 37.5-61.5 58t-80 20.5q-96 0-147-77t-51-214q0-140 60-377 61-238 142-238 45 0 81.5 67.5t66.5 210.5q30 141 36 214 3 38 5 69.5t2 58.5zm-393-1621q0-140 51-215.5t147-75.5q44 0 80 20t61.5 57.5q25.5 37.5 39.5 90t14 118.5q0 67-10.5 147t-30.5 176q-41 190-73 244-32 53-77 53-21 0-40.5-15.5t-36.5-43.5q-17-28-31.5-66a696.41 696.41 0 0 1 -25.5-83q-17-70-29-118.5t-17-76.5q-10-57-16-106.5a878 878 0 0 1 -6-105.5zm60 811q0-56 44-97t104-41q31 0 57.5 10.5a137.82 137.82 0 0 1 46 29.5 136.15 136.15 0 0 1 30.5 45q11 26 11 57a143.44 143.44 0 0 1 -11 55.5 146.08 146.08 0 0 1 -30.5 46.5 149.93 149.93 0 0 1 -46 32 137.75 137.75 0 0 1 -57.5 12 152 152 0 0 1 -56.5-10.5q-26.5-10.5-47.5-33.5-44-44-44-106z"/></svg>