<svg viewBox="0 0 2242 1956" xmlns="http://www.w3.org/2000/svg"><path d="m982 1646q0-136 141-136 65 0 101.5 35t36.5 101q0 62-36 98.5t-102 36.5a192.29 192.29 0 0 1 -54.5-7.5 126.18 126.18 0 0 1 -45-23.5q-19.5-16-30.5-42t-11-62zm226-355h-172q-12 0-13-9l-46-676q-2-11 11-11h266q13 0 13 11l-48 676q-1 9-11 9zm-1047 547h1921l-960-1662zm2081 61q0 23-17.5 40t-41.5 17h-2124a59.43 59.43 0 0 1 -41.5-16q-17.5-16-17.5-41a59.5 59.5 0 0 1 8-30l1063-1840q17-29 51-29t50 29l1062 1840a59.5 59.5 0 0 1 8 30z"/></svg>