<svg viewBox="0 0 1892 1890" xmlns="http://www.w3.org/2000/svg"><path d="m945 1734q212 0 394-105 183-106 289-290 107-184 107-394 0-106-26.5-203.5t-79.5-189.5q-104-182-290-288-185-107-394-107-212 0-395 107-184 107-289 290-52 92-78.5 188.5t-26.5 202.5q0 213 105 394 107 183 290 290 183 105 394 105zm0-1734q258 0 478 130 219 129 343 347 126 221 126 468 0 250-127 472-126 218-345 346-218 127-475 127-255 0-472-126-214-124-344-343-66-109-97.5-227.5t-31.5-248.5q0-259 127-473 129-217 345-345 215-127 473-127z"/></svg>