<svg viewBox="0 0 2022.14 1614.1" xmlns="http://www.w3.org/2000/svg"><path d="m1495.05.1a503.76 503.76 0 0 1 200.5 37q96.5 39 169.5 106.5a520.79 520.79 0 0 1 116 156q43 88.5 41 184.5a807.63 807.63 0 0 1 -15.5 138.5 570.22 570.22 0 0 1 -42.5 128.5q-55 122-166 224-56 51-139.5 111.5t-196.5 130.5q-157 99-258.5 188.5t-155.5 181.5q-16 27-38 27-21 0-39-30-53-91-154-180t-260-188q-222-138-334-241t-166-224q-54-121-57-267a402.72 402.72 0 0 1 17.5-124 461.15 461.15 0 0 1 53-115 529.93 529.93 0 0 1 82.5-99.5 517.85 517.85 0 0 1 107-78 562.3 562.3 0 0 1 126-50.5 506 506 0 0 1 139-17q160 2 290 81 133 79 196 214 62-135 194-214 67-41 139-60t151-21z"/></svg>