<svg viewBox="0 0 1828 2013" xmlns="http://www.w3.org/2000/svg"><path d="m1426 642a114.77 114.77 0 0 0 -43 8 116.36 116.36 0 0 0 -35 21.5 94.64 94.64 0 0 0 -23.5 33 102.66 102.66 0 0 0 -8.5 41.5v588a878.92 878.92 0 0 0 96-122.5 711.5 711.5 0 0 0 68-135q27-71.51 40.5-152.5t13.5-174a106.2 106.2 0 0 0 -8.5-42 104 104 0 0 0 -23.5-34.5 115.73 115.73 0 0 0 -34.5-23 102.66 102.66 0 0 0 -41.5-8.5zm402 108q0 557-431 907 78 51 242 51v294q-160 0-280.5-36.5t-192.5-118.5l-21-23q-98 54-207.5 101t-234.5 88l-91-279q116-38 220.5-84t199.5-98q-5-36-7.5-85t-2.5-111v-953a108.72 108.72 0 0 0 -8.5-43 104 104 0 0 0 -23.5-34.5 115.73 115.73 0 0 0 -34.5-23 102.66 102.66 0 0 0 -41.5-8.5 105.16 105.16 0 0 0 -42.5 8.5 115.73 115.73 0 0 0 -34.5 23 104 104 0 0 0 -23.5 34.5 108.72 108.72 0 0 0 -8.5 43v853h-295v-853a108.72 108.72 0 0 0 -8.5-43 104 104 0 0 0 -23.5-34.5 115.73 115.73 0 0 0 -34.5-23 102.66 102.66 0 0 0 -41.5-8.5 105.16 105.16 0 0 0 -42.5 8.5 109.41 109.41 0 0 0 -34 23 109.26 109.26 0 0 0 -31.5 77.5v853h-294v-853q0-169 116-285 118-118 286-118 73 0 137.5 22.5t118.5 69.5q108-92 256-92 157 0 271 106 113 104 130 257 52-15 111-15 185 0 294 112 108 111 108 290z"/></svg>