<svg viewBox="0 0 2206 2065" xmlns="http://www.w3.org/2000/svg"><path d="m1074 1926 1014-342q-10-27-28.5-81t-48-124.5q-29.5-70.5-70.5-152.5a1625 1625 0 0 0 -95.5-165 1525.87 1525.87 0 0 0 -123.5-162.5 1018.18 1018.18 0 0 0 -154-144q-85-64.5-186.5-110t-221.5-60.5l-12 74q-32 195-53 512t-21 756zm-31-1351q-171 0-350 118-180 116-327 348-148 234-248 543l138 57q42-137 89-243.5t100-182.5q105-153 215-153 176 0 176 334 0 207-56 455l177 71q0-214 5-409.5t17-378.5q11-183 27-322t37-237zm119-130v20q111 16 209 53a1059.69 1059.69 0 0 1 185 91 1103.49 1103.49 0 0 1 163 123.5 1412.78 1412.78 0 0 1 142 150.5q45 55 86 115.5t79 129.5q38 67 70 135t58 138q52 142 52 183a114.25 114.25 0 0 1 -22 68.5q-22 30.49-59 42.5l-1071 363q-11 3-20 5a87.58 87.58 0 0 1 -19 2q-24 0-43-9l-898-363q-34-14-54-42t-20-61q0-64 106-311 54-124 116-230.5a1749.61 1749.61 0 0 1 134-198.5q143-184 324-289 180-104 364-104v-396a60.46 60.46 0 0 1 17-43q17-18 42-18a54.39 54.39 0 0 1 35 12q15 12 20 29l57 11 335 51q50 8 96.5 15t83 13.5q36.49 6.5 61 11t29.5 6.5q33 9 33 32 0 17-36 33-20 10-67.5 27.5t-123.5 43.5z"/></svg>