<svg viewBox="0 0 1580 2193" xmlns="http://www.w3.org/2000/svg"><path d="m821 1654h472q15 47 25.5 104.5t15.5 128.5h-1089q3-66 13.5-123a884.72 884.72 0 0 1 27.5-110h470v-551q0-151-169-237-113-57-166-100h735q-25 22-59.5 43t-78.5 43q-56 29-93.5 56.5t-60.5 57a189.92 189.92 0 0 0 -33 63.5q-10 34-10 74zm-647 291h1231q-4-182-44-305-40-122-105-199-33-39-84-76t-121-72q-84-42-123-86.5t-39-103.5a174.54 174.54 0 0 1 9-56.5q9-26.51 29.5-50t53.5-45.5q33-22 81-45 185-89 259-241 38-78 59.5-180t24.5-233h-1231q4 133 23.5 236.5t60 183a474.63 474.63 0 0 0 106 138.5q65.5 59 163.5 103 81 36 121 80t40 110q0 62-41 106t-120 84q-120 59-178 117-60 60-96 133-36 74-55.5 172t-23.5 230zm1406 125a123.47 123.47 0 0 1 -9.5 48.5 119.5 119.5 0 0 1 -65 65 123.47 123.47 0 0 1 -48.5 9.5h-1333a123.47 123.47 0 0 1 -48.5-9.5 127 127 0 0 1 -39.5-26 117.28 117.28 0 0 1 -26.5-39 123.47 123.47 0 0 1 -9.5-48.5q0-45 27-77t69-44q3-133 23-232.5t52-174.5q17-38 35-70.5a405.18 405.18 0 0 1 39-58.5 576.89 576.89 0 0 1 42.5-49 568.41 568.41 0 0 1 44.5-41q24-20 63-45.5t96-54.5q30-15 52.5-28.5t37-27q14.5-13.5 22-29t7.5-35.5a95.13 95.13 0 0 0 -5.5-33q-5.5-15-20-30t-40-30q-25.5-15-64.5-33a656.4 656.4 0 0 1 -99.5-56 648.4 648.4 0 0 1 -93.5-78q-90-88-139-240.5t-54-358.5q-40-11-67-43.5t-27-77.5a123.47 123.47 0 0 1 9.5-48.5 117.28 117.28 0 0 1 26.5-39 127 127 0 0 1 39.5-26 123.47 123.47 0 0 1 48.5-9.5h1333a123.47 123.47 0 0 1 48.5 9.5 119.5 119.5 0 0 1 65 65 123.47 123.47 0 0 1 9.5 48.5q0 44-27.5 78.5t-69.5 42.5q-5 280-92.5 455t-263.5 261q-45 23-76 40.5t-49.5 34q-18.5 16.5-26.5 33a80.33 80.33 0 0 0 -8 35.5 90.07 90.07 0 0 0 13.5 48q13.5 22 42.5 38l75 40q94 50 164.5 115.5t118 152.5q47.51 87 73 198.5t29.5 252.5q42 9 69.5 43t27.5 79z"/></svg>