<svg viewBox="0 0 2024 2023" xmlns="http://www.w3.org/2000/svg"><path d="m1787 944h215q22 0 22 22v93q0 22-22 22h-215l168 168q7 7 7 16 0 8-7 15l-65 66q-9 7-15 7l-17-7-265-265h-415l293 292h376q22 0 22 24v91q0 22-22 22h-238l152 152q5 5 5 16 0 13-5 15l-66 66q-7 7-16 7-8 0-15-7l-152-152v240q0 8-7 15t-15 7h-93q-23 0-23-22v-377l-293-292v414l265 266q6 5 6 16 0 10-6 15l-65 66q-7 7-15 7a23.13 23.13 0 0 1 -17-7l-168-169v215q0 22-22 22h-93q-22 0-22-22v-215l-169 169q-7 7-15 7-12 0-15-7l-67-66a18.94 18.94 0 0 1 -7-15l7-16 266-266v-414l-294 292v377q0 22-22 22h-93a20.43 20.43 0 0 1 -15.5-7q-6.5-7-6.5-15v-240l-151 152q-9 7-17 7t-15-7l-66-66a20.35 20.35 0 0 1 -6-15q0-10 6-16l152-152h-239q-22 0-22-22v-91q0-24 22-24h376l293-292h-415l-265 265q-7 7-15 7l-17-7-65-66q-7-7-7-15 0-9 7-16l169-168h-216q-22 0-22-22v-93q0-22 22-22h216l-169-170q-7-7-7-15 0-9 7-16l65-66q6-5 15-5 12 0 17 5l265 267h415l-293-294h-376q-8 0-15-7t-7-15v-93q0-22 22-22h239l-152-152q-6-6-6-16a20.35 20.35 0 0 1 6-15l66-66q7-7 15-7t17 7l151 152v-240q0-8 6.5-15a20.43 20.43 0 0 1 15.5-7h93q22 0 22 22v377l294 292v-414l-266-266q-7-6-7-16a18.94 18.94 0 0 1 7-15l67-66q2-5 13-5 12 0 17 5l169 169v-215q0-22 22-22h93q22 0 22 22v215l168-169a23.13 23.13 0 0 1 17-7q8 0 15 7l65 66q6 5 6 15 0 11-6 16l-265 266v414l293-292v-377q0-22 23-22h93q8 0 15 7t7 15v240l152-152q7-7 15-7l16 7 66 66q5 3 5 15 0 11-5 16l-152 152h238q22 0 22 22v93q0 22-22 22h-376l-293 294h415l265-267q5-5 17-5 9 0 15 5l65 66q7 7 7 16 0 8-7 15z"/></svg>