<svg viewBox="0 0 1832 2017" xmlns="http://www.w3.org/2000/svg"><path d="m967 800v-357h-773v357zm424-157q0 86 28 129.5t75 43.5q45 0 45-56 0-36-19-87-10-27-18.5-44t-17-26.5q-8.51-9.5-18-13a62 62 0 0 0 -21.5-3.5q-21 0-37.5 14.5t-16.5 42.5zm441 1017q0 129-71 211-72 81-188 81-109 0-179-48t-101-152q-32-104-32-324 0-355-101-456v1045h-1160v-1645q0-118 86-207 86-87 208-87h573q123 0 207 87 86 89 86 207v429q126 45 188.5 197t62.5 427q0 94 2.5 156.5t10.5 95.5q15 66 49.5 96.5t101.5 30.5q52 0 80.5-37.5t28.5-103.5q0-71-9-164t-28-208q-36-232-78-360l-15 2h-15q-66 0-111-17a161.15 161.15 0 0 1 -73.5-55q-28.5-38-41.5-99.5t-15-150.5q-1-34 5-60.5t19-46.5a133.36 133.36 0 0 1 33.5-35q20.51-15 49.5-26 38-15 59.5-23t26.5-13l4-23q0-111-143-269-21-24-21-48t20.5-45.5q20.5-21.5 56.5-21.5 38 0 79 39.5t86 109.5a624.29 624.29 0 0 1 41 77.5q19 42.5 35.5 89.5t31 96q14.51 49 28.5 95l13 48q21 73 31 128.5t10 95.5q0 91-49 118 47 165 82 393 17 113 26.5 205t9.5 165z"/></svg>