<svg viewBox="0 0 2066 2066" xmlns="http://www.w3.org/2000/svg"><path d="m1811 234 152-153-9-2h-1843a31.1 31.1 0 0 0 -23.5 10q-9.5 10-9.5 23v1843q0 12 10 23l153-154q-25-28-25-62v-1457q0-36 26-61.5t62-25.5h1457q31 0 50 16zm-1514 71v1457q0 7 7 7h1457q8 0 8-7v-1457q0-7-8-7h-1457q-7 0-7 7zm-186-305h1843a107 107 0 0 1 43.5 9 112.91 112.91 0 0 1 59.5 59.5 107 107 0 0 1 9 43.5v1843a103.56 103.56 0 0 1 -9 43 116.81 116.81 0 0 1 -24 35 115 115 0 0 1 -35.5 24 107 107 0 0 1 -43.5 9h-1843a103.56 103.56 0 0 1 -43-9 115.77 115.77 0 0 1 -59-59 103.56 103.56 0 0 1 -9-43v-1843a107 107 0 0 1 9-43.5 115 115 0 0 1 24-35.5 116.81 116.81 0 0 1 35-24 103.56 103.56 0 0 1 43-9z"/></svg>