<svg viewBox="0 0 1860 2078.03" xmlns="http://www.w3.org/2000/svg"><path d="m1189 155 3-11q48-70 115.5-107t145.5-37a338.66 338.66 0 0 1 81.5 10 434.89 434.89 0 0 1 82.5 30q24-20 54-20a73.76 73.76 0 0 1 32.5 7 75.54 75.54 0 0 1 24.5 18.5 87.29 87.29 0 0 1 15.5 25.5 76 76 0 0 1 5.5 28q0 17-6 29 117 111 117 246 0 67-31 134-29 63-46 63l-11-4-575-397q-8-5-8-15zm-1112 416q-19 0-48-64-29-67-29-134 0-137 117-245-6-12-6-29a76 76 0 0 1 5.5-28 87.29 87.29 0 0 1 15.5-25.5 75.54 75.54 0 0 1 24.5-18.5 73.76 73.76 0 0 1 32.5-7q32 0 55 20 42-20 82-30a332.62 332.62 0 0 1 81-10q162 0 261 144l4 11q0 10-8 15l-568 391q-10 10-19 10zm1409 851q20 0 33.5 13.5t13.5 34.5q0 20-14 33t-34 13q-24 0-34.5-16a64.19 64.19 0 0 1 -10.5-36q0-20 14.5-31t31.5-11zm-283 282q0-18 14-33t34-15q17 0 31.5 13t14.5 33q0 20-12 34t-33 14q-17 0-33-11.5t-16-34.5zm-272 38q20 0 33 14t13 34q0 20-14.5 33t-31.5 13q-20 0-34-13t-14-33q0-20 13.5-34t34.5-14zm-322-86q17 0 32.5 14t15.5 34q0 23-14.5 34.5t-34.5 11.5q-21 0-33-14t-12-34q0-21 14.5-33.5t31.5-12.5zm-282-185q0-20 12.5-34.5t34.5-14.5q20 0 33 13t13 33q0 48-45 48-23 0-35.5-14.5t-12.5-30.5zm-38-371q20 0 33.5 14t13.5 34q0 20-12 33.5t-32 13.5q-22 0-36.5-13.5a43.91 43.91 0 0 1 -14.5-33.5q0-17 14-32.5t34-15.5zm88-320q20 0 32.5 14t12.5 34q0 22-14 34.5t-34 12.5q-22 0-34.5-15.5t-12.5-32.5q7-47 50-47zm1156 47q0 17-12.5 32.5t-34.5 15.5a47.8 47.8 0 0 1 -48-48q0-20 13.5-33.5t33.5-13.5q21 0 34.5 15t13.5 32zm-925-281q20 0 34.5 12.5t14.5 34.5q0 17-13 32.5t-35 15.5q-17 0-31.5-12.5t-14.5-34.5q0-20 12.5-34t32.5-14zm644 0q20 0 32.5 14t12.5 34q0 21-14.5 34t-31.5 13q-22 0-35-15.5t-13-32.5q0-24 16-35.5t33-11.5zm320 554q18 0 32.5 14a45.48 45.48 0 0 1 14.5 34q0 18-13.5 33t-33.5 15a48 48 0 1 1 0-96zm-641 96q20 0 33-14t13-34a45.48 45.48 0 0 0 -14.5-34q-14.5-14-31.5-14a47.8 47.8 0 0 0 -48 48q0 21 15 34.5t33 13.5zm59-698v539a115.16 115.16 0 0 1 49.5 46.5 127.59 127.59 0 0 1 17.5 64.5q0 54-35 89.5t-97 35.5l-139 243-106-60 143-245a99 99 0 0 1 -14-31 135.42 135.42 0 0 1 -4-33q0-71 64-108v-541zm704 650q0-201-101-379-51-90-121-159t-160-121q-179-104-381-104-206 0-382 103-177 102-279 279-103 177-103 381t102 382q100 176 279 279 176 103 383 103 211 0 387-106 89-53 157-123.5t119-159.5q100-178 100-375zm-709-1004v125q227 13 419 138 193 125 300 321 54 100 81 204t27 216q0 280-162 508l54 258 2 37q5 64-29 96t-99 31l-658-5-657 5q-63 1-96.5-32.5t-33.5-94.5l4-37 59-280q-146-223-146-486 0-113 26.5-218.5t81.5-205.5q54-100 128.5-179t170.5-140q97-60 200.5-94.5t217.5-41.5v-125h-76v-124h263v124z"/></svg>