<svg viewBox="0 0 2220 2221" xmlns="http://www.w3.org/2000/svg"><path d="m1111 2061q254 0 474-128 222-129 348-348 127-224 127-475 0-254-127-474-127-218-348-347-219-129-474-129-128 0-245 31.5t-229 94.5q-218 124-348 348-129 219-129 476 0 255 127 476 64 110 150.5 197t197.5 150q221 128 476 128zm0-2061q298 0 555 149 129 75 229.5 176.5t175.5 230.5q149 255 149 554 0 297-149 554-75 129-175.5 231t-229.5 177q-257 149-555 149-301 0-557-149-129-75-230-176t-176-232q-148-257-148-554 0-300 150-557 75-129 177-229.5t231-175.5q258-148 553-148zm-114 1678v-831h227v831zm114-1155q123 0 123 111t-123 111q-123 0-123-111t123-111z"/></svg>