<svg viewBox="0 0 2080 2082" xmlns="http://www.w3.org/2000/svg"><path d="m898 1003h204q65 0 112-51 48-51 48-122 0-39-12-71t-34-54.5a153.19 153.19 0 0 0 -53-35q-31-12.5-68-12.5h-205q-7 0-7 6v334q0 6 15 6zm695 626a27.66 27.66 0 0 1 -8 19.5q-8 8.51-19 8.5h-259q-16 0-23-11l-297-396h-102v379q0 26-26 26h-259q-26 0-26-26v-1191a28.63 28.63 0 0 1 7.5-19.5 23.7 23.7 0 0 1 18.5-8.5h528q89 0 163.5 31t137.5 94q125 123 125 295 0 65-18.5 124a411 411 0 0 1 -53 109.5 424.38 424.38 0 0 1 -83 90 461 461 0 0 1 -108.5 65.5l297 394q5 5 5 16zm-552 353q253 0 468-124 216-127 343-345 129-220 129-472 0-255-129-473-66-111-151.5-196t-194.5-148q-215-124-465-124-128 0-244 32t-227 95q-220 127-345 345-125 220-125 469 0 254 125 471 128 220 346 344 220 126 470 126zm0-1982q286 0 528 145 242 144 376 383 135 240 135 513 0 274-135 514-135 241-378 383-242 144-526 144-281 0-522-139-240-141-380-379-70-121-104.5-251.5t-34.5-271.5q0-281 139-520 140-241 379-380 240-141 523-141z"/></svg>