<svg viewBox="0 0 2234 2258" xmlns="http://www.w3.org/2000/svg"><path d="m2078 1264q0-50-38-93-39-42-85-42-72 0-119 44-24 22-72 83t-122 163q-31 35-65 53.5t-71 16.5l-81-4q-23-2-41.5 2a181.76 181.76 0 0 0 -34.5 11q-31 14-48 14-11 0-22.5-7t-11.5-20q0-39 134-77l33-5q29 0 41-16t12-50q0-36-6-105t-20-171q0-109-4-300t-16-469q-6-136-139-136-28 0-51 12a116 116 0 0 0 -39 33 154.54 154.54 0 0 0 -24.5 48.5 196.9 196.9 0 0 0 -8.5 58.5q0 20 4.5 89.5t14.5 191.5q10 121 19 211t17 151q96 17 96 44 0 17-29 23-14 3-22.5 5a62.8 62.8 0 0 1 -13.5 2q-96 12-184 30t-170 43a1675.91 1675.91 0 0 0 -159.5 57.5q-77.5 32.5-152.5 71.5-29 20-41 20-22 0-22-21 0-23 51-74-55-127-99-241t-82-216q-16-45-52-65.5t-74-20.5q-30 0-53 10.5a113.67 113.67 0 0 0 -38.5 28 118.81 118.81 0 0 0 -23.5 41 155.8 155.8 0 0 0 -8 50.5q0 40 10 67 5 14 14 35t23 50q13 28 60 127.5t131 273.5q26 53 51 123.5t51 162.5q69 251 229.5 373t426.5 122q177 0 305-70 66-35 125-95.5t116-146.5l68-78 68-74 205-252q18-23 28-45.5a115.6 115.6 0 0 0 10-47.5zm-1508-924q-33 0-56.5 11a102.43 102.43 0 0 0 -38.5 30.5q-15 19.5-22 46a224.48 224.48 0 0 0 -7 57.5l4 38q16 48 67.5 190.5t139.5 385.5a1008.53 1008.53 0 0 1 97.5-57.5 1023.61 1023.61 0 0 1 101.5-45.5l-157-558q-15-53-50.5-75.5t-78.5-22.5zm347-167q-58 0-91 44t-33 119q0 20 15 92t47 199q32 127 54.5 212t35.5 130q77-18 203-27l-97-652q-5-28-17.5-50a129.16 129.16 0 0 0 -31-37 131 131 0 0 0 -40.5-22.5 138.58 138.58 0 0 0 -45-7.5zm1035 800q117 0 200 85 42 42 62 94t20 112q0 55-20 103t-55 93l-33 42q-63 81-111.5 143.5t-86.5 107.5l-44 50q-77 89-132.5 151.5t-93.5 97.5q-38 35-76.5 65a598.51 598.51 0 0 1 -80.5 53q-81 47-162 67.5t-176 20.5q-288 0-502-150-216-148-294-418-37-127-64-208t-47-119q-16-31-43.5-87t-66.5-139q-39-83-67-143.5t-45-99.5q-34-80-34-155 0-123 78-204 80-82 213-82 11-122 85-195 76-76 194-76 50 0 91 14 32-82 98.5-130.5t154.5-48.5q110 0 193 67 78-84 202-84 122 0 201 80 80 79 86 204 5 75 8.5 222.5t7.5 370.5q3 279 27 279 5 0 16-13.5t28-34a536.81 536.81 0 0 1 41.5-44q24.49-23.51 57.5-44t75-34q42-13.5 95-13.5z"/></svg>