<svg viewBox="0 0 1584.06 1761" xmlns="http://www.w3.org/2000/svg"><path d="m8.06 1562q0-198 205-198 97 0 150.5 51t53.5 147q0 91-53.5 145t-150.5 54q-98 0-151.5-53.5t-53.5-145.5zm330-521h-252q-17 0-18-13l-68-991q-1-16 16-16h392q18 0 17 16l-69 991q-1.01 13-18 13zm484 521q0-198 205-198 100 0 152 52t52 146q0 95-55 147t-149 52q-100 0-152.5-51t-52.5-148zm346-399h-308v-85q0-111 44-193 45-82 166-178 119-94 147-143a228.7 228.7 0 0 0 23-56.5q8-30.5 8-68.5a162.7 162.7 0 0 0 -11-60 128.37 128.37 0 0 0 -33.5-48.5q-22.5-20.5-57-32t-80.5-11.5q-134 0-366 117l-119-257q265-147 489-147 240 0 377 114 137 112 137 310 0 123-53 218-53 92-204 213-57 45-90.5 77.5t-45.5 52.5q-23 40-23 108z"/></svg>