<svg viewBox="0 0 1730 1843" xmlns="http://www.w3.org/2000/svg"><path d="m1730 774v295h-336q8 98 26 198t47 206q29 106 62.5 198.5t74.5 171.5h-323q-78-194-123-386.5a2479.58 2479.58 0 0 1 -59-387.5h-483a2479.58 2479.58 0 0 1 -59 387.5q-45 192.5-123 386.5h-321q79-157 135-365 29-106 47-207.5t26-201.5h-321v-295h321a2023 2023 0 0 0 -26.5-201.5q-18.5-101.5-46.5-205.5t-61.5-196q-33.5-92-73.5-171h321q78 194 123 386.5a2479.58 2479.58 0 0 1 59 387.5h483a2479.58 2479.58 0 0 1 59-387.5q45-192.5 123-386.5h323q-39 78-73 169t-63 196q-58 212-74 409z"/></svg>