<svg viewBox="0 0 1638 1829" xmlns="http://www.w3.org/2000/svg"><path d="m1050 1439v-1050q-55 4-112.5 6t-117.5 2q-61 0-118.5-2t-113.5-6v1050q56-4 113.5-6t118.5-2q60 0 117.5 2t112.5 6zm588-1439v302q-63 16-136 29.5t-158 26.5v1111q85 14 158 27.5t136 28.5v304a3207.76 3207.76 0 0 0 -407-78.5 3337 3337 0 0 0 -823.5 0 3203.71 3203.71 0 0 0 -407.5 78.5v-304q67-15 140-29t154-27v-1111q-81-12-154-26t-140-30v-302q97 25 198 44t210 33q109 13 210.5 19.5t201.5 6.5q96 0 196.5-6.5t209.5-19.5q109-14 211.5-32.5t200.5-44.5z"/></svg>