<svg viewBox="0 0 1706.18 2046.18" xmlns="http://www.w3.org/2000/svg"><path d="m703.18 442q-92 0-156-66-64-67-64-156 0-93 63-156 64-64 157-64t158 65q64 67 64 155 0 90-66 156-32 32-70.5 49t-85.5 17zm1003 1343q0 50-68 89-67 38-147 38-33 0-56.5-6.5a95.07 95.07 0 0 1 -40.5-22.5q-17-16-28.5-42t-20.5-64l-8-36q-23-97-42-159t-36-90a115.31 115.31 0 0 0 -48.5-42.5q-30.5-14.51-74.5-12.5l-167 7q-51 2-91.5-2.5t-73.5-16.5a236 236 0 0 1 -59-31 309.54 309.54 0 0 1 -49-45 395.32 395.32 0 0 1 -40-57 479.68 479.68 0 0 1 -32-67 601.94 601.94 0 0 1 -24-74q-10-39-17-84t-9.5-109.5q-2.49-64.5-2.5-152.5 0-137 42-208t116-71q34 0 61.5 7.5a187.33 187.33 0 0 1 50 21.5 201.43 201.43 0 0 1 42.5 36q20 22 41 50 69 98 168 141 102 44 249 71 74 15 132 59 58 43 58 93 0 30-17 48.5t-43 18.5q-53 0-112-41-16-10-95-16-39-3-69-7.5t-51-9.5a282.93 282.93 0 0 1 -45.5-15.5q-24.5-10.5-53.5-23.5l-46-21q-10 0-10 14 1 46 5.5 78t12.5 50q15 38 46.5 61.5t88.5 33.5l63 11q63 11 108.5 27.5t78 47q32.5 30.49 53 78.5t34.5 122q18 97 30.5 153.5t26.5 71.5q18 19 74 22 45 3 70.5 25t25.5 52zm-740-223q34 0 67.5-1t66.5-4q-24 206-181 348-78 72-170 105.5t-198 35.5a470.14 470.14 0 0 1 -143.5-18 555 555 0 0 1 -131.5-57 580.2 580.2 0 0 1 -201-201 553.21 553.21 0 0 1 -57-132 470.79 470.79 0 0 1 -18-143q2-101 33-189t97-165q131-155 326-188 6 147 37 252-105 23-171 105-66 83-66 185 0 124 86 211 44 44 96.5 65t112.5 21q100 0 185-64 84-65 107-176 44.01 10 123 10z"/></svg>