<svg viewBox="0 0 2140 2142" xmlns="http://www.w3.org/2000/svg"><path d="m1005 1161q0 11-7 18l-105 105a20.56 20.56 0 0 1 -34 0l-69-68v487q0 25-24 25h-195q-9 0-16.5-7t-7.5-18v-528l-103 100q-5 5-18 5-10 0-16-7l-120-125q-7-9-7-14 0-16 7-22l307-293h-225q-24 0-24-24v-175a24.82 24.82 0 0 1 7-17.5 22.39 22.39 0 0 1 17-7.5h175v-159q0-11 7.5-17.5a24.66 24.66 0 0 1 16.5-6.5h195q24 0 24 24v159h121a25.14 25.14 0 0 1 18.5 7.5 24 24 0 0 1 7.5 17.5v175a19.26 19.26 0 0 1 -9 17l-131 125 203 208q5 5 5 16zm204-230h258q10 0 10-8v-242q0-9-10-9h-258q-10 0-10 9v242q0 8 10 8zm483 596 23-2q26-1 26 25v157q0 20-18.5 24.5t-60.5 4.5q-53 0-95.5-13t-74-35q-31.5-22-51.5-49t-28-56q-11-28-21.5-72t-19.5-106q-10-63-14-130.5t-6-141.5h-46q-4 128-29 235-12 53-26 101a885.09 885.09 0 0 1 -33 93.5q-19 45.49-43 91a1065.75 1065.75 0 0 1 -56 93.5 25.65 25.65 0 0 1 -20 9l-11-2-146-77q-14-8-14-22 0-8 7-15 1-1 12.5-16.5t28-44.5q16.5-29 36-72t37-99q17.51-56 30-125t15.5-150h-86q-25 0-25-25v-613q0-25 25-25h661q24 0 24 25v613q0 25-24 25h-104q1 29 5 89t14 150q5 50 12.5 81.5t18.5 45.5q11 14 30.5 22t46.5 6zm-623 537q271 0 504-138 232-138 361-367 128-228 128-488 0-265-132-495-67-117-157.5-207t-206.5-157q-229-133-497-133-261 0-489 130-229 130-366 360-136 232-136 502 0 133 32.5 256.5t99.5 238.5q135 231 361 364 230 134 498 134zm0-2064q287 0 535 143 250 145 393 392 143 246 143 536t-143 536q-143 248-391 392-250 143-537 143-285 0-535-143-248-144-391-392-143-246-143-536 0-288 143-535 72-125 169-223t222-170q250-143 535-143z"/></svg>