<svg viewBox="0 0 2150 493" xmlns="http://www.w3.org/2000/svg"><path d="m2059 110 91 259q-178 124-329 124a386.48 386.48 0 0 1 -85-9 252.54 252.54 0 0 1 -75-30l-77-47q-82-50-151-75t-128-25q-144 0-281 77-36 21-66.5 35.5a591.71 591.71 0 0 1 -57.5 24 332.82 332.82 0 0 1 -52.5 14 295.8 295.8 0 0 1 -51.5 4.5q-43 0-81-12a542.92 542.92 0 0 1 -74-29.5q-36-17.5-71-38t-72-38a539 539 0 0 0 -77.5-29.5 299.44 299.44 0 0 0 -85.5-12 308.51 308.51 0 0 0 -69.5 7.5 373 373 0 0 0 -61 19.5 469.85 469.85 0 0 0 -53.5 26.5q-25 14.5-47 28.5l-104-221q163-164 349-164 50 0 94 12a566.26 566.26 0 0 1 83 29.5 747.17 747.17 0 0 1 74.5 38.5q35.5 21 68.5 38.5a554.43 554.43 0 0 0 65 29.5 183.78 183.78 0 0 0 65 12 231.08 231.08 0 0 0 74.5-12 581.92 581.92 0 0 0 71-29.5q35.5-17.5 72.5-38.5a685.66 685.66 0 0 1 80-38.5 635.07 635.07 0 0 1 94-29.5q51-12 114-12 113 0 301 114 137 85 221 85 93 0 232-89z"/></svg>