<svg viewBox="0 0 1766 1868" xmlns="http://www.w3.org/2000/svg"><path d="m1766 1571q0 7-7 14l-269 278q-5 5-14 5-41 0-200-199a1491.06 1491.06 0 0 1 -143.5-216 1855.5 1855.5 0 0 1 -111-243.5 1899 1899 0 0 1 -77-265 2103.56 2103.56 0 0 1 -40.5-281.5l-176 207q-24 28-54 41t-65 13a158.3 158.3 0 0 1 -54-9 154.2 154.2 0 0 1 -79-63 151.88 151.88 0 0 1 -20-49l-83-348-172 166a16.37 16.37 0 0 1 -12 5 23.13 23.13 0 0 1 -17-7l-168-219-4-12q0-9 5-14l334-313q34-32 67-46.5t67-14.5q53 0 86.5 32.5t50.5 98.5l79 302 244-266q76-84 148-84 66 0 102.5 45.5t36.5 132.5v92q0 191 33.5 358t101 314.5a1470.64 1470.64 0 0 0 168 279.5q100.5 132 235.5 253 8 6 8 13z"/></svg>