<svg viewBox="0 0 2140 2142" xmlns="http://www.w3.org/2000/svg"><path d="m986 1224v-190q0-25 24-25h128q23 0 23 25v190q0 25-23 25h-128q-24 0-24-25zm774-168 38 234v5q0 16-19 22l-126 22q-24 0-27-20l-40-234q0-23 21-29l124-21q26 0 29 21zm-672-510 5-14 60-111q6-13 22-13l11 2 208 114q13 7 13 23l-3 11-60 111q-6 13-22 13l-12-2-208-114q-14-11-14-20zm676 930q0 2-2 11.5a209 209 0 0 1 -7 24q-5 14.51-12.5 32a221.58 221.58 0 0 1 -19.5 35.5q-37 57-93 88t-143 28q-74-2-127.5-29.5t-87.5-86.5q-73 79-155 132l-12 3q-12 0-19-8l-110-123q-5-6-5-17 0-13 12-22 63-39 119-94.5t105-128.5q-18-112-34-249.5t-28-305.5q-3-24 21-26l162-14q25-2 27 22l21 182q27-123 45-282 0-9 8.5-15.5t16.5-6.5l6 2 156 44q20 5 18 26a1543.35 1543.35 0 0 1 -22 169.5q-16 86.5-39 177.5-49 181-136 326 4 30 10 51.5t16 36a57.09 57.09 0 0 0 26 21q16 6.49 40 6.5 33 0 50.5-24.5t27.5-66.5q8-19 24-19l14 4 116 78q11 8 11 18zm-754-157 2 9q0 17-12 23l-102 51-11 1q-15 0-22-13l-32-73v394q0 25-25 25h-160q-25 0-25-25v-375l-95 196q-4 14-24 14l-9-3-136-66q-13-6-13-22l2-11 225-458h-153q-25 0-25-24v-145q0-26 25-26h203v-73l-127 40-8 1q-19 0-23-16l-48-155-2-7q0-17 18-23l465-146 9-2q17 0 23 18l48 153 1 8q0 21-18 22l-128 41v139h142q25 0 25 26v145q0 24-25 24h-118zm59 745q271 0 504-138 232-138 361-367 128-228 128-488 0-265-132-495-67-117-157.5-207t-206.5-157q-229-133-497-133-261 0-489 130-229 130-366 360-136 232-136 502 0 133 32.5 256.5t99.5 238.5q135 231 361 364 230 134 498 134zm0-2064q287 0 535 143 250 145 393 392 143 246 143 536t-143 536q-143 248-391 392-250 143-537 143-285 0-535-143-248-144-391-392-143-246-143-536 0-288 143-535 72-125 169-223t222-170q250-143 535-143z"/></svg>