<svg viewBox="0 0 2066 2066" xmlns="http://www.w3.org/2000/svg"><path d="m1220 799q0-39-14-72a172 172 0 0 0 -39.5-57.5q-25.5-24.5-60.5-38t-77-13.5q-42 0-77 13.5t-60.5 38a178.43 178.43 0 0 0 -40 57.5q-14.5 33-14.5 72t14.5 72a178.43 178.43 0 0 0 40 57.5q25.5 24.5 60.5 38t77 13.5q42 0 77-13.5t60.5-38a172 172 0 0 0 39.5-57.5q14-33 14-72zm591-566 152-152-9-2h-1843a31.1 31.1 0 0 0 -23.5 10q-9.5 10-9.5 23v1843q0 12 10 22l153-155q-25-25-25-60v-1457q0-37 26-62t62-25h1457a89.74 89.74 0 0 1 50 15zm-295 589q0 119-19 208.5t-48 159.5a637.23 637.23 0 0 1 -34.5 72q-20.51 37-46.5 76t-50 71q-24 32-46 56-44 50-101.5 98t-111.5 81q-54 34-90 50t-47 20q-8 0-13-7l-143-184-4-10q0-14 10-15 12 0 75-44a1200.6 1200.6 0 0 0 129-102 785.31 785.31 0 0 0 114-129l-61 3q-106 5-193-27.5a505 505 0 0 1 -156-92.5q-138-121-138-307 0-187 138-306 139-121 349-121 214 0 351 126 136 126 136 324zm-1219-517v1457q0 7 7 7h1457q8 0 8-7v-1457q0-7-8-7h-1457q-7 0-7 7zm-186-305h1843a107 107 0 0 1 43.5 9 112.91 112.91 0 0 1 59.5 59.5 107 107 0 0 1 9 43.5v1843a103.56 103.56 0 0 1 -9 43 116.81 116.81 0 0 1 -24 35 115 115 0 0 1 -35.5 24 107 107 0 0 1 -43.5 9h-1843a103.56 103.56 0 0 1 -43-9 115.77 115.77 0 0 1 -59-59 103.56 103.56 0 0 1 -9-43v-1843a107 107 0 0 1 9-43.5 115 115 0 0 1 24-35.5 116.81 116.81 0 0 1 35-24 103.56 103.56 0 0 1 43-9z"/></svg>