<svg viewBox="0 0 2600 2601" xmlns="http://www.w3.org/2000/svg"><path d="m1815 1612v-140q30 5 53 8a314.8 314.8 0 0 0 40 3q118 0 118-118v-549h171v544q0 129-71 197t-202 68q-83 0-109-13zm-369-345h-96v211h101q67 0 92.5-29.5t25.5-80.5q0-101-123-101zm-96-311v177h90q63 0 87.5-23t24.5-67q0-47-27.5-67t-93.5-20zm-168 661v-801h235q74 0 130.5 10.5t94.5 35q38 24.5 57.5 63.5t19.5 96q0 67-30.5 113.5t-92.5 57.5v5q147 29 147 188 0 55-19.5 98a202.79 202.79 0 0 1 -55.5 73q-36 30-87.5 45.5t-115.5 15.5zm-474-131q185 0 185-270 0-268-185-268-184 0-184 268 0 270 184 270zm0 142q-87 0-153.5-28t-112-81q-45.49-53-69-129.5t-23.5-173.5q0-199 92-305t266-106q174-1 266.5 106t92.5 305q0 97-23.5 173.5t-69 129.5q-45.5 53-112.5 81t-154 28zm1892-511v372h-149v-372zm-2448-537v371h-152v-371zm0 537v372h-152v-372zm1871-965h-373v-152h373zm-536 0h-372v-152h372zm-1335 1502v369h-152v-369zm1335 947h-372v-149h372zm1113-2021v371h-149v-371zm0 1074v369h-149v-369zm-1651-1502h-369v-152h369zm0 2449h-369v-149h369zm1074 0h-373v-149h373zm577 0h-416v-149h267v-266h149zm-2186 0h-414v-415h152v266h262zm2037-2449h-267v-152h416v416h-149zm-2299 264h-152v-416h414v152h-262z"/></svg>