<svg viewBox="0 0 2570 2565" xmlns="http://www.w3.org/2000/svg"><path d="m1048 2003q0 85 48.5 134.5t144.5 49.5q94 0 142-49.5t48-134.5q0-88-48-138t-142-50q-96 0-144.5 50t-48.5 138zm37-376h288v-65a291.2 291.2 0 0 1 5-55 169.86 169.86 0 0 1 16-47q11-22 43-52t85-70q137-107 187-193 53-91 53-212 0-186-128-290-129-105-353-105a746.23 746.23 0 0 0 -113.5 9q-58.5 9-121.5 29-64 20-120 43.5a858.2 858.2 0 0 0 -105 52.5l112 243q111-54 195.5-81.5t146.5-27.5q87 0 129 39t42 104q0 35-6.5 62.5a187 187 0 0 1 -20.5 51.5q-14 23-47.5 57t-90.5 78a812.57 812.57 0 0 0 -83.5 75 433.93 433.93 0 0 0 -61.5 80.5 368.6 368.6 0 0 0 -38 90q-13 47.51-13 102.5zm-1085-344 1284-1283 1286 1283-1286 1282z"/></svg>